<?xml version="1.0" encoding="utf-8"?>
<!-- Generator: Adobe Illustrator 16.0.5, SVG Export Plug-In . SVG Version: 6.00 Build 0)  -->
<!DOCTYPE svg PUBLIC "-//W3C//DTD SVG 1.1//EN" "http://www.w3.org/Graphics/SVG/1.1/DTD/svg11.dtd">
<svg version="1.1" id="Layer_1" xmlns="http://www.w3.org/2000/svg" xmlns:xlink="http://www.w3.org/1999/xlink" x="0px" y="0px"
	 width="1225px" height="914px" viewBox="0 0 1225 914" enable-background="new 0 0 1225 914" xml:space="preserve">
<g id="Raw_image">
	
		<image overflow="visible" enable-background="new    " width="1225" height="914" xlink:href="Ganglioneuroma_8.jpg"  transform="matrix(1 0 0 1 0 -2.441406e-004)">
	</image>
</g>
<g id="Not_annotated" display="none" opacity="0.5">
	<polygon display="inline" fill="#0000FF" stroke="#800080" points="19,95 15,95 12,94 9,93 8,90 7,87 9,85 11,83 13,81 15,78 
		18,77 21,78 23,80 23,84 23,87 22,91 21,93 	"/>
	<polygon display="inline" fill="#0000FF" stroke="#800080" points="17,672 14,671 13,668 15,665 18,664 20,666 19,669 18,671 	"/>
	<polygon display="inline" fill="#0000FF" stroke="#800080" points="32,406 29,405 27,403 26,400 26,396 27,393 28,390 30,387 
		31,385 32,382 30,380 32,377 34,376 37,376 39,378 41,380 43,382 44,385 45,388 46,391 46,395 45,398 44,400 41,402 38,403 36,404 
		33,405 	"/>
	<polygon display="inline" fill="#0000FF" stroke="#800080" points="692,706 689,705 686,704 683,703 680,702 678,700 676,698 
		674,696 673,693 673,690 675,688 677,688 680,688 683,688 686,689 688,691 690,693 692,695 693,698 695,700 695,703 693,705 	"/>
	<polygon display="inline" fill="#0000FF" stroke="#800080" points="1023,737 1020,736 1017,735 1015,733 1013,731 1015,728 
		1017,727 1020,727 1022,729 1023,732 1024,735 	"/>
	<polygon display="inline" fill="#0000FF" stroke="#800080" points="985,725 982,724 981,721 983,719 985,716 987,714 989,713 
		992,713 993,716 992,719 990,721 988,722 986,724 	"/>
	<polygon display="inline" fill="#0000FF" stroke="#800080" points="1201,711 1197,711 1194,710 1191,709 1188,708 1185,707 
		1183,705 1181,703 1179,701 1179,697 1180,693 1183,692 1185,694 1188,693 1188,690 1186,688 1188,685 1190,685 1193,686 1195,688 
		1196,691 1197,694 1199,696 1201,698 1201,702 1202,705 1203,708 1202,710 	"/>
	<polygon display="inline" fill="#0000FF" stroke="#800080" points="240,463 236,463 234,461 233,458 234,455 236,453 238,451 
		240,449 243,447 247,447 249,449 251,451 253,453 253,456 251,458 248,459 245,461 243,462 	"/>
	<polygon display="inline" fill="#0000FF" stroke="#800080" points="275,490 271,490 269,488 266,487 263,486 261,484 260,481 
		261,477 264,476 266,478 268,480 271,479 272,477 274,474 275,472 274,469 271,468 272,465 275,463 279,463 281,465 283,467 
		284,470 284,474 284,478 283,481 282,483 280,485 278,488 276,489 	"/>
	<polygon display="inline" fill="#0000FF" stroke="#800080" points="282,443 279,442 276,441 274,439 271,438 269,436 268,433 
		267,430 266,427 265,424 266,421 268,419 271,417 273,419 275,421 277,423 280,422 282,420 281,418 281,414 281,411 283,409 
		287,409 290,408 292,410 294,412 294,416 294,420 295,423 297,425 298,428 299,431 299,435 298,438 296,440 293,440 289,440 
		286,441 283,442 	"/>
	<polygon display="inline" fill="#0000FF" stroke="#800080" points="291,313 287,313 285,311 282,310 280,308 280,305 283,304 
		286,305 289,306 291,308 293,310 292,312 	"/>
	<polygon display="inline" fill="#0000FF" stroke="#800080" points="273,366 270,365 268,363 269,360 271,358 274,356 276,355 
		280,354 282,356 284,358 284,361 282,363 279,364 276,365 	"/>
	<polygon display="inline" fill="#0000FF" stroke="#800080" points="525,510 521,510 518,509 517,506 519,504 523,503 525,505 
		526,508 	"/>
	<polygon display="inline" fill="#0000FF" stroke="#800080" points="748,500 744,500 742,498 741,495 741,491 741,487 738,486 
		736,484 734,482 735,478 738,477 741,478 743,480 745,482 747,484 749,486 751,488 752,491 752,494 750,497 749,499 	"/>
	<polygon display="inline" fill="#0000FF" stroke="#800080" points="930,592 927,591 926,588 925,585 924,582 923,579 924,576 
		926,573 930,573 934,573 937,574 939,576 941,578 942,581 942,585 944,587 943,590 941,591 937,591 934,590 931,590 	"/>
	<polygon display="inline" fill="#0000FF" stroke="#800080" points="943,566 939,566 936,565 933,564 931,562 931,559 932,557 
		935,555 939,555 942,556 944,558 945,561 945,564 	"/>
	<polygon display="inline" fill="#0000FF" stroke="#800080" points="105,92 102,91 100,89 98,87 100,85 103,85 105,87 106,90 	"/>
	<polygon display="inline" fill="#0000FF" stroke="#800080" points="147,133 144,132 140,132 138,130 137,127 140,125 142,127 
		145,128 147,130 	"/>
	<polygon display="inline" fill="#0000FF" stroke="#800080" points="229,202 226,201 224,199 222,197 220,195 217,194 216,191 
		214,189 213,186 212,183 210,181 209,178 209,175 211,173 214,174 217,175 220,176 222,178 223,181 225,183 226,186 228,188 
		228,192 229,195 230,198 230,201 	"/>
	<polygon display="inline" fill="#0000FF" stroke="#800080" points="468,193 464,193 461,192 459,190 456,189 453,190 449,190 
		447,188 445,186 445,184 446,181 447,178 449,175 451,174 455,173 459,173 462,174 464,176 467,177 467,181 467,183 469,185 
		471,184 472,181 474,178 478,178 480,180 482,182 482,185 480,188 478,190 476,191 472,191 469,192 	"/>
	<polygon display="inline" fill="#0000FF" stroke="#800080" points="602,159 599,158 596,157 594,155 595,151 598,150 601,149 
		602,147 604,144 606,144 609,145 610,148 609,151 608,154 607,156 604,158 	"/>
	<polygon display="inline" fill="#0000FF" stroke="#800080" points="625,197 621,197 620,194 618,192 617,189 615,187 613,185 
		610,184 609,181 609,179 611,176 613,175 616,173 619,172 622,171 624,170 627,168 630,169 632,171 631,174 631,178 630,181 
		629,184 629,188 628,191 626,193 626,196 	"/>
	<polygon display="inline" fill="#0000FF" stroke="#800080" points="780,38 777,37 776,34 773,33 770,33 767,33 764,34 760,34 
		758,32 758,29 760,27 763,26 766,26 769,25 772,23 776,23 779,24 781,26 782,29 784,31 784,33 783,36 781,37 	"/>
</g>
<g id="Clumps" display="none" opacity="0.5">
	<polygon display="inline" fill="#FF0000" stroke="#800080" points="0,26 1,24 4,22 7,23 10,24 13,25 16,26 18,28 21,29 23,31 
		25,33 27,35 29,37 31,39 32,42 32,46 31,48 29,50 27,53 27,57 26,60 24,61 20,61 16,61 13,60 11,58 9,56 7,54 5,52 6,49 5,46 4,43 
		2,41 0,39 	"/>
	<polygon display="inline" fill="#FF0000" stroke="#800080" points="0,323 2,321 5,322 8,323 11,322 12,320 13,317 15,314 17,313 
		21,312 24,311 27,312 30,313 33,314 35,316 37,318 39,320 41,322 43,324 45,326 46,329 46,333 45,336 44,338 42,340 39,341 36,342 
		32,342 28,342 24,342 21,341 18,340 16,338 13,337 11,335 8,334 5,334 3,336 4,339 6,341 7,344 7,348 5,350 3,352 1,351 	"/>
	<polygon display="inline" fill="#FF0000" stroke="#800080" points="79,59 75,59 72,58 69,57 67,55 65,53 63,51 61,49 60,46 59,43 
		58,40 56,38 53,40 52,43 52,47 50,48 46,48 45,45 44,42 42,40 40,38 39,35 38,32 40,30 43,29 46,27 49,26 53,26 56,25 60,25 63,24 
		65,23 69,22 72,23 75,24 77,26 79,28 82,29 84,31 85,34 87,36 87,40 89,42 89,46 88,49 87,52 86,55 84,57 82,58 	"/>
	<polygon display="inline" fill="#FF0000" stroke="#800080" points="113,655 110,654 107,653 104,652 102,650 100,648 98,646 
		96,644 94,642 93,639 91,637 89,635 87,633 86,630 85,627 84,624 81,623 78,622 75,621 73,619 69,619 65,619 62,618 59,617 56,616 
		54,614 51,613 49,611 48,608 46,606 45,603 45,601 47,598 51,598 53,597 56,595 58,593 59,591 60,588 63,586 66,587 69,588 71,590 
		72,593 74,595 76,597 78,599 79,602 81,604 83,606 85,608 87,610 88,613 88,617 90,619 93,620 95,622 98,623 100,625 102,627 
		104,629 106,631 108,633 110,635 112,637 114,639 115,642 116,645 117,648 117,651 115,654 	"/>
	<polygon display="inline" fill="#FF0000" stroke="#800080" points="86,563 82,563 78,563 75,562 71,562 67,562 63,562 61,560 
		60,558 59,556 58,553 59,550 59,546 58,543 55,543 54,546 53,549 54,552 55,555 54,558 51,558 49,556 48,553 47,550 47,546 47,542 
		49,540 52,539 51,536 51,533 52,531 55,529 59,529 61,531 64,532 67,533 69,535 69,539 70,542 73,543 76,544 79,543 83,543 86,544 
		89,545 91,547 93,549 94,552 95,555 94,557 92,559 90,561 87,562 	"/>
	<polygon display="inline" fill="#FF0000" stroke="#800080" points="117,799 114,798 111,797 108,796 106,794 104,792 103,789 
		102,786 103,783 105,780 107,778 110,777 113,778 115,780 118,781 122,781 125,782 127,784 128,787 127,790 126,792 123,793 
		121,796 119,798 	"/>
	<polygon display="inline" fill="#FF0000" stroke="#800080" points="202,246 199,245 197,243 195,241 193,239 190,238 188,236 
		186,234 184,232 183,229 182,226 181,223 181,219 182,216 185,214 187,213 191,212 195,212 198,213 201,214 203,216 206,217 
		208,219 211,219 212,216 211,213 210,210 210,206 208,204 207,201 205,199 203,197 201,195 198,194 194,194 191,196 188,196 
		185,195 183,195 180,194 176,194 172,194 169,193 166,192 163,191 161,189 159,187 157,185 155,183 153,181 152,178 151,175 
		149,173 146,172 143,171 141,169 138,168 136,166 133,165 131,163 130,160 128,158 126,156 124,154 122,152 122,148 123,145 
		125,143 127,140 127,137 126,134 126,130 128,128 131,128 133,130 135,132 138,133 140,135 141,138 143,140 145,142 147,144 
		148,147 147,149 144,148 141,150 143,152 145,154 147,156 149,158 151,160 153,162 155,164 157,166 160,167 162,169 165,170 
		168,171 171,172 173,174 176,175 179,174 182,175 186,175 188,177 191,178 194,179 197,180 199,182 201,184 203,186 205,188 
		207,190 209,192 211,194 213,196 216,197 216,201 217,204 218,207 218,210 217,214 218,217 219,220 217,222 215,224 214,226 
		212,229 210,231 208,232 205,232 203,234 205,236 207,238 207,241 205,244 203,245 	"/>
	<polygon display="inline" fill="#FF0000" stroke="#800080" points="207,283 203,283 200,282 197,281 196,278 194,276 193,273 
		190,272 186,273 183,273 181,271 180,268 181,265 182,262 182,258 182,254 182,250 183,247 185,244 188,243 190,245 193,246 
		194,249 196,251 197,254 199,256 200,259 201,261 200,265 202,267 206,267 209,266 211,264 213,263 215,261 217,259 219,257 
		222,255 224,254 227,252 230,251 233,250 237,250 239,252 242,253 243,256 243,260 243,263 241,266 239,268 237,270 235,271 
		232,273 230,274 227,275 225,277 222,278 219,280 216,281 213,281 209,282 	"/>
	<polygon display="inline" fill="#FF0000" stroke="#800080" points="217,913 215,911 213,909 212,906 210,904 209,901 208,898 
		207,895 205,893 203,891 201,889 199,887 196,888 193,890 190,890 187,889 185,887 183,885 183,881 184,878 186,875 187,873 
		188,869 189,867 191,864 193,863 197,862 201,862 203,864 204,867 204,871 203,874 203,878 205,880 207,881 210,879 212,878 
		215,878 218,879 220,881 222,883 223,886 224,889 224,893 225,896 227,898 227,902 227,906 227,910 225,912 	"/>
	<polygon display="inline" fill="#FF0000" stroke="#800080" points="332,580 328,580 325,579 323,577 321,575 319,573 318,570 
		317,567 316,564 315,561 314,558 313,555 311,553 310,550 309,547 308,544 310,541 312,543 316,543 318,542 317,539 315,537 
		313,535 312,532 310,530 310,526 310,522 311,519 313,516 315,514 318,513 321,514 324,515 326,517 327,520 329,522 331,524 
		333,526 335,528 337,530 339,532 340,535 339,538 338,540 335,541 332,542 329,544 329,546 331,547 334,545 336,547 337,550 
		338,553 338,557 338,561 338,565 337,568 337,571 336,575 335,577 333,579 	"/>
	<polygon display="inline" fill="#FF0000" stroke="#800080" points="336,69 332,69 328,69 325,68 323,66 321,64 320,61 318,59 
		317,56 316,53 317,49 319,47 321,46 322,43 322,39 321,36 320,33 320,29 319,26 320,23 322,21 325,19 329,19 332,20 335,21 338,22 
		339,25 340,28 340,32 339,35 339,38 337,41 335,43 334,46 334,50 334,52 335,55 338,56 340,58 342,60 343,63 342,65 340,67 337,68 
			"/>
	<polygon display="inline" fill="#FF0000" stroke="#800080" points="393,754 389,754 386,753 384,751 382,749 380,747 378,745 
		376,743 374,741 372,739 370,737 367,736 363,736 360,737 356,737 352,737 348,737 345,736 342,735 339,734 337,732 335,730 
		333,728 331,726 329,724 329,721 331,719 334,718 338,718 341,719 345,719 348,720 350,722 353,723 356,724 359,725 362,726 
		365,725 367,724 369,722 371,720 374,718 377,717 381,717 384,718 387,719 389,721 391,723 393,725 395,727 396,730 398,732 
		399,735 400,738 402,740 402,744 402,748 400,750 398,751 395,753 	"/>
	<polygon display="inline" fill="#FF0000" stroke="#800080" points="379,269 375,269 372,269 369,269 366,268 363,267 361,265 
		359,263 358,260 357,257 358,254 359,251 361,248 364,247 368,247 372,247 375,248 378,249 380,251 383,252 386,253 389,252 
		390,250 392,248 394,245 396,243 399,242 402,241 405,242 408,243 412,243 416,243 419,244 421,246 422,249 421,252 420,254 
		418,257 417,259 414,260 411,262 409,263 406,262 403,261 400,260 397,259 393,259 390,259 389,262 387,264 385,266 383,267 
		380,268 	"/>
	<polygon display="inline" fill="#FF0000" stroke="#800080" points="440,657 436,657 434,655 432,653 429,652 427,650 426,647 
		424,645 423,642 421,640 420,637 418,635 416,633 414,631 412,629 411,626 410,623 409,620 408,617 406,615 405,612 404,609 
		403,606 402,603 403,599 404,597 407,595 410,594 413,595 415,597 416,600 418,602 419,605 421,607 423,609 424,612 425,615 
		426,618 426,622 427,625 429,627 431,629 434,630 436,632 437,635 438,638 439,641 441,643 441,647 442,650 442,654 441,656 	"/>
	<polygon display="inline" fill="#FF0000" stroke="#800080" points="437,518 434,517 432,515 432,511 431,508 430,505 429,502 
		427,500 424,499 421,498 419,496 418,493 420,490 423,489 426,488 429,489 433,489 435,488 436,485 436,481 435,478 436,474 
		437,472 440,470 443,469 446,470 448,472 450,474 452,476 453,479 455,481 456,484 457,487 459,489 460,492 461,495 461,499 
		462,502 463,505 464,508 464,512 463,515 461,516 457,516 454,515 452,513 450,511 449,508 448,505 445,504 443,507 442,510 
		441,513 440,515 438,517 	"/>
	<polygon display="inline" fill="#FF0000" stroke="#800080" points="482,583 478,583 476,581 474,579 472,577 470,575 470,571 
		470,568 470,565 468,563 465,562 463,560 461,558 458,557 455,556 453,554 450,553 448,551 446,549 445,546 444,543 446,540 
		448,539 446,537 444,535 442,533 441,530 443,528 446,526 448,525 451,523 453,522 457,521 460,522 463,523 465,525 468,526 
		471,527 474,528 477,529 479,531 481,533 483,535 485,537 487,539 489,541 490,544 491,547 490,550 488,552 485,552 482,551 
		479,550 477,548 474,548 472,550 471,553 470,556 472,558 475,557 478,558 480,560 481,563 482,566 482,570 482,574 483,577 
		483,581 	"/>
	<polygon display="inline" fill="#FF0000" stroke="#800080" points="489,301 486,300 483,299 480,298 477,297 475,295 473,293 
		472,290 471,287 468,286 465,285 462,284 459,283 459,279 457,277 455,275 454,272 453,269 450,268 447,269 446,266 447,263 
		449,260 451,258 454,257 458,257 461,256 465,256 468,257 471,258 473,260 475,262 477,264 478,267 479,270 481,272 483,274 
		485,276 488,277 490,279 491,282 492,285 493,288 493,292 493,296 492,298 490,300 	"/>
	<polygon display="inline" fill="#FF0000" stroke="#800080" points="509,70 505,70 503,68 501,66 499,64 496,63 494,61 490,61 
		487,62 484,63 480,63 477,62 473,62 469,62 467,60 466,57 465,54 467,51 469,49 472,48 476,48 479,49 483,49 486,48 488,47 492,46 
		495,46 499,45 503,45 506,44 509,45 511,47 513,49 515,50 514,47 512,45 509,44 507,42 505,40 508,40 511,41 513,43 515,45 517,47 
		519,49 520,52 521,55 520,58 520,62 519,64 517,66 515,68 512,69 	"/>
	<polygon display="inline" fill="#FF0000" stroke="#800080" points="509,116 505,116 501,116 499,114 497,112 493,112 490,111 
		488,109 488,105 486,103 483,102 482,99 485,97 487,95 489,93 491,91 493,89 495,87 497,86 498,83 501,81 503,80 506,79 509,78 
		513,77 516,76 519,77 522,78 523,81 524,84 524,88 524,92 523,95 522,98 521,100 519,103 518,105 517,108 516,111 514,113 512,115 
			"/>
	<polygon display="inline" fill="#FF0000" stroke="#800080" points="555,738 551,738 548,737 546,735 543,734 541,732 543,729 
		544,726 545,724 546,721 546,717 546,713 545,710 545,706 544,703 544,699 543,696 541,694 538,693 536,691 534,689 532,687 
		530,685 529,682 527,680 526,677 524,675 523,672 521,670 519,668 517,666 516,663 515,660 516,656 517,654 520,652 523,651 
		526,652 528,654 530,656 532,658 534,660 536,662 538,664 540,666 542,668 544,670 545,673 547,675 548,678 549,681 550,684 
		551,687 553,689 555,691 556,694 557,697 558,700 559,703 560,706 561,709 561,713 562,716 562,720 564,722 564,726 565,729 
		565,732 563,734 561,736 558,737 	"/>
	<polygon display="inline" fill="#FF0000" stroke="#800080" points="550,864 547,863 544,862 541,861 539,859 538,856 537,853 
		538,850 539,847 538,844 536,842 532,842 529,841 526,840 524,838 522,836 521,833 521,829 522,826 524,824 528,823 530,825 
		532,827 534,829 538,829 541,830 545,830 549,830 553,830 557,830 561,830 565,830 567,830 570,831 570,835 571,838 573,840 
		576,841 577,844 577,848 578,851 578,854 576,857 574,858 570,858 566,858 563,859 560,860 557,861 554,862 551,863 	"/>
	<polygon display="inline" fill="#FF0000" stroke="#800080" points="570,501 566,501 562,501 558,501 555,500 553,498 551,496 
		550,493 549,490 549,486 550,483 552,480 554,478 556,476 558,475 561,473 565,473 568,472 571,471 570,469 568,467 565,466 
		566,463 569,461 572,462 575,462 577,460 579,458 582,456 584,458 586,460 587,463 588,466 588,470 586,472 584,473 580,473 
		578,473 579,475 582,476 583,479 584,482 586,484 585,487 584,490 583,492 581,494 578,496 576,498 574,499 571,500 	"/>
	<polygon display="inline" fill="#FF0000" stroke="#800080" points="604,199 601,198 598,197 595,196 593,194 591,192 591,188 
		589,186 587,184 585,182 582,181 579,182 577,185 575,186 571,186 569,188 566,187 564,185 563,182 561,180 560,177 560,173 
		562,170 564,168 567,167 571,167 574,166 578,166 581,165 584,164 587,163 590,162 593,163 595,165 596,168 596,171 596,174 
		597,177 599,179 601,181 603,183 605,185 607,187 608,190 609,192 607,195 605,197 	"/>
	<polygon display="inline" fill="#FF0000" stroke="#800080" points="599,721 595,721 592,720 589,719 586,718 583,717 582,714 
		581,711 580,708 579,705 578,702 577,699 576,696 575,693 575,691 577,688 579,686 582,685 585,684 587,683 590,681 593,681 
		597,680 600,679 603,678 606,677 609,677 612,676 616,675 619,674 622,675 625,674 627,673 630,671 633,671 637,670 640,670 
		643,668 644,666 645,663 645,659 647,657 650,655 652,654 655,652 659,652 663,652 667,652 669,651 671,649 673,646 674,644 
		676,641 677,638 678,636 680,633 682,631 684,630 687,628 689,627 693,626 696,627 700,627 702,629 704,631 704,635 705,638 
		705,642 704,644 702,646 700,648 698,651 697,653 694,655 692,656 689,657 686,659 683,660 680,661 677,661 673,661 671,664 
		670,666 668,668 666,670 664,672 662,675 661,677 660,679 661,682 662,685 661,688 661,692 660,695 658,697 656,699 654,701 
		652,702 649,703 645,703 641,703 638,702 636,700 633,699 631,697 630,694 629,691 625,691 623,689 620,688 616,688 612,688 
		608,688 604,688 600,688 597,690 600,691 601,694 599,695 596,697 596,701 598,703 599,706 601,708 602,711 603,714 603,717 
		601,720 	"/>
	<polygon display="inline" fill="#FF0000" stroke="#800080" points="660,446 656,446 652,446 648,446 644,446 640,446 636,446 
		632,446 628,446 624,446 621,445 619,443 616,442 614,440 613,437 613,434 614,432 617,430 619,429 622,427 625,426 629,426 
		633,426 637,426 641,426 644,427 647,428 650,429 653,430 656,431 659,432 662,433 664,435 665,438 664,441 663,443 661,445 	"/>
	<polygon display="inline" fill="#FF0000" stroke="#800080" points="649,568 646,567 642,567 639,566 636,565 634,563 633,560 
		634,556 634,553 635,550 634,547 632,545 628,545 625,544 622,543 620,541 618,539 616,537 615,534 614,531 616,528 617,526 
		619,524 622,522 624,520 626,518 628,516 629,514 631,512 634,512 636,514 638,516 639,519 640,522 640,526 641,529 643,531 
		644,534 643,537 644,540 646,542 648,544 650,546 651,549 652,552 653,555 654,558 653,561 653,564 651,567 	"/>
	<polygon display="inline" fill="#FF0000" stroke="#800080" points="689,160 685,160 682,159 680,157 679,154 680,151 679,148 
		680,145 679,142 678,139 676,137 675,134 672,133 670,131 667,130 665,128 664,125 662,123 662,119 663,116 665,114 668,112 
		671,113 674,114 676,116 678,118 679,121 681,123 683,125 685,127 687,129 688,132 690,134 691,137 693,139 694,142 695,145 
		695,149 694,152 693,155 692,157 690,159 	"/>
	<polygon display="inline" fill="#FF0000" stroke="#800080" points="715,618 711,618 707,618 704,617 701,616 697,616 693,616 
		690,615 689,612 687,610 686,607 684,605 682,603 680,601 678,599 677,596 676,593 675,590 675,588 678,586 682,586 685,585 
		688,586 690,588 693,589 697,589 700,589 704,588 707,589 709,591 709,595 708,598 710,600 713,601 716,600 719,599 722,598 
		725,598 729,597 732,598 735,599 737,601 738,604 739,607 738,609 735,610 733,612 730,614 728,615 724,615 721,616 718,617 	"/>
	<polygon display="inline" fill="#FF0000" stroke="#800080" points="724,907 721,906 718,905 717,902 716,899 717,896 717,892 
		716,889 714,887 711,886 707,886 704,885 702,883 700,881 698,879 698,875 699,871 700,868 701,866 704,864 708,864 711,863 
		713,862 715,860 716,857 718,855 720,853 722,850 725,849 729,849 731,851 732,854 734,856 735,859 736,862 738,864 738,868 
		738,871 737,874 735,877 734,879 732,882 731,885 730,888 730,890 731,893 731,897 730,900 731,903 729,905 727,906 	"/>
	<polygon display="inline" fill="#FF0000" stroke="#800080" points="727,765 723,765 720,764 716,764 712,764 709,763 706,762 
		705,759 704,756 706,753 708,752 711,750 714,750 717,748 718,746 717,743 717,739 718,736 720,733 722,731 725,730 728,729 
		731,730 733,732 735,734 737,736 738,739 738,743 737,746 737,750 740,751 742,753 745,754 747,756 749,758 748,761 746,763 
		743,763 739,763 736,764 732,764 728,764 	"/>
	<polygon display="inline" fill="#FF0000" stroke="#800080" points="771,556 767,556 764,555 762,553 759,552 756,553 754,555 
		751,556 748,555 745,554 743,552 743,548 741,546 740,543 739,540 738,537 737,534 736,531 736,527 736,523 734,521 732,519 
		730,517 728,515 726,513 725,510 723,508 721,506 720,503 718,501 717,498 715,496 714,493 712,491 711,488 710,485 708,483 
		708,480 710,478 712,477 716,476 720,476 723,477 727,477 728,480 727,483 726,485 726,488 727,491 729,493 731,495 733,497 
		735,499 737,501 738,504 739,507 739,511 739,515 739,519 741,521 745,521 749,521 751,523 753,525 755,527 756,530 758,532 
		760,534 762,536 765,537 767,539 768,542 770,544 773,545 774,548 775,551 774,554 772,555 	"/>
	<polygon display="inline" fill="#FF0000" stroke="#800080" points="771,339 767,339 763,339 760,338 758,336 755,335 753,333 
		751,331 749,329 748,326 746,324 744,324 741,325 737,325 735,323 734,320 735,317 736,313 737,311 739,309 742,307 746,307 
		748,309 749,312 751,314 754,313 756,311 758,309 761,308 763,310 763,314 763,318 765,320 768,319 771,318 774,317 777,318 
		779,320 783,320 784,323 785,326 784,329 784,332 782,335 780,336 777,337 774,338 	"/>
	<polygon display="inline" fill="#FF0000" stroke="#800080" points="741,913 739,911 740,908 742,906 746,905 750,905 752,904 
		754,902 756,900 759,898 761,896 763,895 766,893 770,893 774,893 778,893 782,893 784,895 787,896 788,899 789,902 790,905 
		792,907 792,911 790,913 	"/>
	<polygon display="inline" fill="#FF0000" stroke="#800080" points="790,55 786,55 783,54 781,52 779,50 777,48 775,46 776,43 
		780,42 782,41 783,37 786,38 789,37 791,35 792,33 793,29 794,27 796,24 797,22 799,20 802,18 804,16 807,15 808,13 811,11 814,12 
		816,14 818,16 820,18 822,20 826,20 828,22 830,24 831,27 832,30 832,34 830,36 828,37 824,37 822,40 822,44 821,46 819,49 817,50 
		814,52 811,52 807,52 805,50 802,49 800,47 798,45 795,47 794,49 792,52 791,54 	"/>
	<polygon display="inline" fill="#FF0000" stroke="#800080" points="808,690 804,690 801,689 798,688 795,687 792,686 789,685 
		787,683 786,680 786,678 788,676 789,673 791,670 793,668 795,667 799,666 803,666 806,667 810,667 814,667 818,667 821,666 
		824,665 828,665 832,665 834,667 836,669 836,673 835,675 833,677 830,679 827,679 824,680 821,682 819,683 817,685 814,687 
		812,688 809,689 	"/>
	<polygon display="inline" fill="#FF0000" stroke="#800080" points="882,332 879,331 876,330 874,328 874,324 871,323 869,321 
		869,317 870,314 871,310 873,308 875,307 878,305 879,303 879,299 882,297 885,296 888,297 890,299 893,298 895,297 897,295 
		899,293 901,291 904,289 908,289 910,291 912,293 914,295 916,297 918,299 920,301 922,303 923,306 925,308 927,310 929,312 
		931,314 930,317 929,319 926,321 923,322 921,323 917,323 913,323 911,321 909,319 907,317 906,314 904,312 901,311 898,310 
		896,308 893,309 891,312 889,314 888,317 888,321 888,325 889,327 887,330 885,331 	"/>
	<polygon display="inline" fill="#FF0000" stroke="#800080" points="924,773 920,773 917,772 915,770 913,768 911,766 909,764 
		906,766 905,768 902,770 900,771 897,770 895,768 894,765 893,762 894,759 895,756 897,754 900,752 903,753 906,753 908,751 
		910,748 911,746 913,743 915,741 918,740 921,741 924,742 927,743 930,743 934,742 937,741 939,739 941,737 943,735 946,734 
		950,734 953,733 956,732 958,731 961,729 965,729 968,730 970,732 972,734 972,738 970,740 968,741 965,742 961,742 957,742 
		953,742 949,743 948,746 950,748 952,750 953,753 952,756 950,758 948,759 945,760 942,762 939,763 937,764 934,766 931,766 
		929,768 927,770 925,772 	"/>
	<polygon display="inline" fill="#FF0000" stroke="#800080" points="945,85 942,84 940,82 938,80 936,78 933,77 932,74 931,71 
		932,68 933,65 932,62 930,60 927,59 925,57 922,56 921,53 921,49 923,46 925,44 929,44 933,44 935,46 938,47 941,48 945,48 947,50 
		948,53 950,55 952,57 952,60 951,64 952,67 953,70 953,74 953,78 952,80 950,82 947,84 	"/>
	<polygon display="inline" fill="#FF0000" stroke="#800080" points="992,231 988,231 984,231 980,231 977,230 975,228 972,227 
		970,225 969,222 971,220 973,217 974,215 976,212 977,210 977,206 978,203 979,200 981,198 983,196 985,194 986,191 984,190 
		982,192 979,192 976,193 973,195 971,196 968,197 966,199 963,201 960,201 960,198 960,195 959,192 957,190 956,187 955,184 
		957,182 960,180 963,179 966,178 968,177 968,173 969,170 972,168 975,167 978,166 982,166 986,166 988,165 992,164 995,165 
		997,167 999,169 1000,172 1002,174 1003,177 1004,180 1007,181 1008,184 1009,187 1008,190 1007,193 1005,195 1003,197 1001,199 
		999,200 997,203 998,206 1001,205 1003,204 1005,205 1006,208 1005,211 1006,214 1005,217 1004,220 1003,223 1001,225 999,227 
		997,228 994,230 	"/>
	<polygon display="inline" fill="#FF0000" stroke="#800080" points="986,640 982,640 979,639 979,636 980,633 979,631 976,630 
		972,630 969,629 967,627 966,624 965,621 964,618 964,615 966,613 968,611 970,609 972,607 975,606 978,605 981,606 985,606 
		989,606 992,607 995,608 997,610 999,612 1000,615 1002,617 1003,620 1003,624 1003,627 1001,630 999,632 997,634 995,635 992,637 
		990,638 987,639 	"/>
	<polygon display="inline" fill="#FF0000" stroke="#800080" points="1042,359 1038,359 1034,359 1032,357 1031,354 1030,351 
		1029,348 1028,345 1027,342 1026,339 1024,337 1022,338 1020,340 1019,342 1017,344 1015,346 1011,346 1008,345 1005,344 1003,342 
		1002,339 1000,337 997,336 996,333 996,331 997,327 999,325 1002,324 1005,325 1008,326 1010,328 1011,331 1013,333 1015,335 
		1018,334 1020,332 1023,331 1026,332 1029,333 1033,333 1036,334 1038,336 1041,337 1042,340 1044,342 1046,344 1048,346 1050,348 
		1051,351 1050,354 1048,355 1046,357 1043,358 	"/>
	<polygon display="inline" fill="#FF0000" stroke="#800080" points="1047,642 1044,641 1041,640 1038,639 1035,638 1033,636 
		1031,634 1030,631 1029,628 1028,625 1028,621 1030,618 1032,616 1035,615 1038,616 1041,617 1043,619 1045,621 1046,624 1046,628 
		1046,632 1046,636 1048,638 1051,638 1055,637 1054,640 1052,641 1048,641 	"/>
	<polygon display="inline" fill="#FF0000" stroke="#800080" points="1110,237 1107,236 1103,236 1101,234 1098,233 1096,231 
		1094,229 1091,230 1087,230 1085,228 1082,227 1079,226 1077,224 1074,223 1071,222 1068,224 1066,225 1062,225 1060,223 1058,221 
		1055,220 1052,219 1049,218 1047,216 1045,214 1044,211 1047,209 1049,211 1053,211 1055,213 1057,215 1059,217 1061,216 1063,213 
		1066,212 1069,211 1070,209 1072,206 1073,203 1075,201 1078,202 1081,203 1083,205 1086,206 1089,205 1092,204 1096,204 1099,205 
		1101,207 1100,210 1101,213 1103,215 1105,217 1108,218 1111,219 1114,220 1117,221 1119,223 1121,225 1121,228 1119,231 1117,233 
		1115,235 1113,236 	"/>
	<polygon display="inline" fill="#FF0000" stroke="#800080" points="1069,665 1065,665 1061,665 1058,664 1056,662 1053,661 
		1052,658 1051,655 1051,651 1052,647 1052,644 1054,642 1058,641 1061,642 1063,644 1066,645 1067,648 1068,651 1069,654 1070,657 
		1071,660 1072,662 1070,664 	"/>
	<polygon display="inline" fill="#FF0000" stroke="#800080" points="1074,0 1077,1 1079,3 1081,5 1083,7 1086,8 1088,10 1090,12 
		1092,14 1095,15 1098,16 1100,18 1103,19 1106,20 1108,22 1112,22 1115,23 1118,24 1121,25 1123,27 1126,28 1128,30 1129,33 
		1130,36 1130,40 1128,42 1125,42 1122,41 1119,40 1117,38 1115,36 1114,33 1112,31 1109,33 1109,35 1109,38 1107,40 1104,41 
		1100,41 1098,39 1096,37 1094,35 1093,32 1092,29 1090,27 1087,26 1085,24 1082,23 1080,21 1078,19 1075,18 1072,17 1069,16 
		1066,16 1064,17 1061,16 1059,14 1058,11 1058,9 1061,8 1062,4 1063,2 1066,0 	"/>
	<polygon display="inline" fill="#FF0000" stroke="#800080" points="1138,649 1134,649 1130,649 1127,648 1124,647 1121,646 
		1117,646 1114,645 1110,645 1107,644 1103,644 1101,642 1097,642 1094,643 1091,645 1089,646 1086,647 1082,647 1079,646 1076,645 
		1074,643 1072,641 1070,639 1068,637 1067,634 1066,631 1067,628 1069,626 1071,624 1074,622 1078,622 1081,621 1085,621 1088,620 
		1092,620 1096,620 1099,621 1102,620 1105,619 1107,618 1111,617 1114,618 1117,619 1119,621 1122,622 1125,621 1127,619 1129,617 
		1132,616 1135,615 1138,616 1141,617 1143,619 1145,621 1146,624 1147,627 1149,629 1151,631 1151,635 1151,639 1150,641 1148,643 
		1145,644 1142,645 1140,648 	"/>
	<polygon display="inline" fill="#FF0000" stroke="#800080" points="1088,190 1085,189 1082,188 1080,186 1079,183 1078,180 
		1078,176 1079,173 1081,171 1083,169 1086,167 1089,166 1091,168 1094,169 1096,171 1099,172 1103,172 1107,172 1111,172 1114,173 
		1116,175 1117,178 1117,181 1115,183 1113,185 1110,187 1108,188 1104,188 1100,188 1097,187 1094,186 1091,185 1088,184 1084,184 
		1084,187 1087,188 	"/>
	<polygon display="inline" fill="#FF0000" stroke="#800080" points="1224,315 1222,317 1219,316 1215,316 1211,316 1208,315 
		1205,314 1202,313 1199,314 1196,315 1193,314 1191,312 1189,310 1187,308 1187,305 1188,303 1191,301 1195,301 1198,302 1199,300 
		1197,298 1195,296 1193,294 1190,293 1187,292 1185,290 1182,289 1180,287 1177,286 1173,286 1170,285 1167,284 1164,283 1162,281 
		1159,280 1157,278 1156,275 1154,273 1154,269 1156,266 1157,264 1160,262 1162,261 1166,260 1169,261 1172,262 1174,264 1177,265 
		1180,266 1182,268 1184,270 1186,272 1188,274 1190,276 1193,277 1195,279 1198,280 1200,282 1202,284 1205,285 1207,287 1209,289 
		1211,291 1214,292 1216,294 1218,296 1220,298 1222,300 	"/>
	<polygon display="inline" fill="#FF0000" stroke="#800080" points="1224,79 1221,80 1219,78 1217,76 1216,73 1215,70 1213,68 
		1209,68 1206,67 1203,66 1201,64 1200,61 1198,59 1196,57 1194,55 1193,52 1192,49 1192,45 1193,41 1194,39 1197,37 1200,36 
		1203,35 1206,36 1208,38 1211,39 1213,41 1215,43 1216,46 1218,48 1218,52 1219,55 1220,58 1220,62 1221,65 1223,67 	"/>
	<polygon display="inline" fill="#FF0000" stroke="#800080" points="190,859 186,859 183,858 180,857 177,856 176,853 175,850 
		174,847 174,843 176,840 178,838 180,836 180,833 180,830 183,829 185,831 186,834 186,838 187,841 189,843 191,845 192,848 
		194,850 194,854 193,857 191,858 	"/>
	<polygon display="inline" fill="#FF0000" stroke="#800080" points="460,813 456,813 452,813 449,812 447,810 447,807 448,805 
		449,802 448,799 446,797 444,795 442,793 439,792 437,790 435,788 433,786 431,784 429,782 428,779 428,775 430,773 433,771 
		436,772 439,773 442,774 445,775 447,777 450,778 452,780 453,783 455,785 457,787 459,789 461,791 463,793 465,795 466,798 
		467,801 468,804 468,807 466,809 464,811 461,812 	"/>
	<polygon display="inline" fill="#FF0000" stroke="#800080" points="887,836 883,836 881,834 879,832 877,830 876,827 875,824 
		874,821 872,819 871,816 870,813 869,810 868,807 867,804 866,801 864,799 862,797 860,795 859,792 858,789 860,787 864,786 
		866,788 868,790 869,793 871,795 873,797 875,799 878,800 881,801 885,801 888,802 890,804 891,807 891,811 890,814 889,817 
		889,821 890,824 891,827 891,831 890,834 888,835 	"/>
	<polygon display="inline" fill="#FF0000" stroke="#800080" points="874,566 870,566 867,565 864,564 863,561 862,558 863,554 
		864,552 866,549 868,548 872,547 875,548 877,547 880,545 883,546 884,549 885,552 885,556 884,558 882,561 880,563 878,564 
		875,565 	"/>
	<polygon display="inline" fill="#FF0000" stroke="#800080" points="830,398 827,397 824,396 823,394 823,391 821,389 820,386 
		820,382 820,378 821,375 823,372 824,370 827,368 830,368 833,366 836,367 837,370 836,373 838,375 840,376 842,373 843,371 
		847,370 849,372 850,375 849,377 847,379 845,382 843,384 842,386 840,389 838,391 836,393 834,395 832,397 	"/>
	<polygon display="inline" fill="#FF0000" stroke="#800080" points="228,74 224,74 220,74 218,72 216,70 213,69 211,67 210,64 
		209,61 207,59 206,56 205,53 206,49 209,48 211,50 213,52 216,51 219,50 222,49 225,48 229,48 231,50 233,52 233,56 234,59 236,61 
		237,64 237,67 235,70 233,71 230,73 	"/>
	<polygon display="inline" fill="#FF0000" stroke="#800080" points="55,163 52,162 50,160 48,158 45,157 43,155 41,153 39,151 
		38,148 37,145 38,142 39,139 42,137 44,135 46,133 50,133 53,134 55,136 57,138 58,141 59,144 59,148 60,151 60,155 60,158 58,161 
		56,162 	"/>
	<polygon display="inline" fill="#FF0000" stroke="#800080" points="414,57 410,57 407,56 403,56 400,55 397,54 394,53 392,51 
		392,47 392,43 394,41 396,39 398,36 399,34 400,30 402,28 404,27 408,26 411,25 415,25 418,26 420,28 422,30 422,34 423,37 422,39 
		420,41 417,40 415,40 415,43 417,43 419,45 419,49 418,52 417,54 415,56 	"/>
	<polygon display="inline" fill="#FF0000" stroke="#800080" points="742,82 739,81 737,79 736,76 735,73 733,71 732,68 731,65 
		732,62 734,59 735,57 737,55 740,53 743,52 746,51 749,52 752,53 754,55 757,56 759,58 759,61 757,63 754,64 751,65 748,66 747,63 
		745,61 741,62 741,64 743,66 744,69 744,73 744,77 744,80 	"/>
	<polygon display="inline" fill="#FF0000" stroke="#800080" points="746,299 742,299 740,297 740,293 738,291 736,293 733,292 
		732,289 731,286 733,283 736,282 740,282 742,281 745,279 748,278 751,277 754,276 757,277 759,279 761,281 761,285 761,288 
		759,291 758,293 756,296 754,297 750,298 747,298 	"/>
	<polygon display="inline" fill="#FF0000" stroke="#800080" points="668,228 665,227 661,227 658,226 656,224 654,222 653,219 
		656,217 659,218 658,216 658,212 659,208 661,206 663,204 666,205 669,206 672,207 674,209 676,211 677,214 679,216 679,220 
		678,223 676,225 674,226 671,227 	"/>
	<polygon display="inline" fill="#FF0000" stroke="#800080" points="655,202 651,202 649,200 646,199 644,197 643,194 641,192 
		640,189 640,186 641,184 644,182 647,181 650,182 652,184 655,185 657,185 660,186 661,189 663,191 663,195 661,197 659,199 
		657,201 	"/>
	<polygon display="inline" fill="#FF0000" stroke="#800080" points="980,150 976,150 973,149 970,148 967,149 964,150 960,150 
		958,148 955,147 954,144 953,141 952,138 950,136 950,132 950,128 950,124 950,120 951,116 954,115 956,117 958,119 960,121 
		963,122 966,123 968,125 970,127 972,129 974,131 976,133 978,135 979,138 981,140 982,143 982,147 981,149 	"/>
</g>
<g id="Single_nuclei" opacity="0.2">
	<polygon fill="#00FF00" stroke="#800080" points="0,647 2,645 6,645 9,646 11,648 11,652 11,656 10,659 8,661 6,662 3,663 0,662 	
		"/>
	<polygon fill="#00FF00" stroke="#800080" points="35,448 31,448 27,448 24,447 22,445 20,443 17,442 14,441 11,440 9,438 8,435 
		10,433 12,430 15,429 17,428 20,426 24,426 27,427 30,428 33,429 36,430 39,431 41,433 43,435 45,437 46,440 45,443 43,445 41,446 
		38,447 	"/>
	<polygon fill="#00FF00" stroke="#800080" points="25,775 21,775 18,774 15,773 13,771 12,768 14,766 18,765 21,764 24,763 26,765 
		28,767 28,771 27,773 	"/>
	<polygon fill="#00FF00" stroke="#800080" points="30,752 26,752 23,751 20,750 19,747 19,743 18,740 19,736 19,733 21,730 23,729 
		27,728 30,729 33,730 35,732 36,735 36,739 36,743 35,746 34,749 32,751 	"/>
	<polygon fill="#00FF00" stroke="#800080" points="60,709 56,709 53,708 50,707 48,705 47,702 45,700 43,698 43,694 45,692 47,690 
		49,688 51,685 53,683 55,682 58,682 61,683 63,685 66,686 68,688 69,691 69,695 69,698 67,701 66,704 64,706 62,708 	"/>
	<polygon fill="#00FF00" stroke="#800080" points="75,256 71,256 69,254 66,253 64,251 61,250 58,249 55,248 52,247 50,245 47,244 
		45,242 44,239 45,236 48,234 51,233 55,233 58,234 62,234 65,235 68,235 72,234 76,234 78,236 80,238 81,241 81,245 81,249 80,252 
		79,254 76,255 	"/>
	<polygon fill="#00FF00" stroke="#800080" points="52,913 51,910 52,907 54,904 57,903 60,904 63,905 66,906 68,908 69,911 	"/>
	<polygon fill="#00FF00" stroke="#800080" points="75,489 71,489 69,487 67,485 66,482 65,479 63,477 61,475 60,472 60,468 61,464 
		62,461 63,458 64,456 66,454 69,454 72,455 74,457 76,459 78,461 80,463 82,465 83,468 84,471 83,474 83,478 82,481 81,483 79,486 
		77,488 	"/>
	<polygon fill="#00FF00" stroke="#800080" points="108,356 104,356 101,355 97,355 94,354 91,353 88,352 86,350 84,348 81,347 
		78,346 75,345 73,343 71,341 72,338 71,335 73,333 75,331 77,329 80,327 82,325 85,324 88,325 91,326 94,327 97,328 99,330 
		100,333 101,336 102,339 104,341 106,343 108,345 111,346 112,349 112,352 110,355 	"/>
	<polygon fill="#00FF00" stroke="#800080" points="99.975,117.17 95.956,113.402 93.318,111.518 91.309,109.258 89.55,107.876 
		88,106 86,104 84.652,100.592 84.652,97.2 87.29,94.563 90.932,93.181 94.323,92.679 98.342,94.06 101.482,95.819 104.12,97.451 
		106.757,99.587 108.139,102.224 109,104 110,107 110,111 109,114 108,116 106,118 102.989,118.175 	"/>
	<polygon fill="#00FF00" stroke="#800080" points="100,410 96,410 93,409 91,407 90,404 89,401 88,398 88,394 88,390 89,387 90,384 
		92,382 94,380 97,378 100,377 104,377 105,380 106,383 106,387 105,390 106,393 106,397 106,401 105,404 104,407 102,409 	"/>
	<polygon fill="#00FF00" stroke="#800080" points="132,470 128,470 125,469 122,468 119,467 117,465 115,463 113,461 112,458 
		112,454 113,451 115,448 118,449 122,449 124,448 127,447 131,446 133,448 135,450 137,452 138,455 139,458 138,461 137,463 
		135,466 134,468 	"/>
	<polygon fill="#00FF00" stroke="#800080" points="203.47,240.543 202.551,243.184 199.91,243.76 195.66,243.07 191.581,240.229 
		186.816,236.178 184.978,234.455 183.294,231.172 181.992,228.253 182.762,224.242 185.289,223.094 190.342,224.242 
		195.052,226.999 199.761,231.249 202.437,235.604 203.815,238.131 	"/>
	<polygon fill="#00FF00" stroke="#800080" points="211.477,227.573 210.017,230.435 207.375,231.01 203.125,230.321 196.66,227.803 
		191.261,224.242 187.356,221.946 184.944,220.797 183.106,217.81 183.221,213.79 186.667,211.953 195.167,212.757 200.45,214.25 
		206.193,218.5 209.179,221.946 210.787,224.817 	"/>
	<polygon fill="#00FF00" stroke="#800080" points="179.235,224.463 178.316,227.104 175.675,227.678 171.425,226.99 169.208,222.52 
		169.668,218.959 172.654,215.628 175.985,215.743 178.053,217.81 179.58,222.052 	"/>
	<polygon fill="#00FF00" stroke="#800080" points="187,566 184,565 180,565 178,563 175,562 173,560 171,558 169,556 168,553 
		167,550 167,546 169,543 171,542 175,541 178,542 180,544 181,547 184,548 187,549 191,549 193,549 195,551 197,553 199,555 
		200,558 200,561 198,563 195,564 192,565 188,565 	"/>
	<polygon fill="#00FF00" stroke="#800080" points="206,162 202,162 199,161 195,161 192,160 189,159 186,158 184,156 183,153 
		183,149 182,146 181,143 181,139 182,136 184,133 186,131 189,130 192,129 195,128 198,127 202,127 205,128 209,128 211,130 
		214,131 217,132 218,135 220,137 220,141 220,145 220,149 219,152 217,154 215,156 213,157 211,159 208,161 	"/>
	<polygon fill="#00FF00" stroke="#800080" points="203,112 199,112 196,111 193,110 191,108 188,107 186,105 184,103 183,100 
		184,97 186,95 187,92 189,90 191,88 194,86 198,86 201,87 204,88 207,89 210,90 212,92 214,94 216,96 216,100 215,103 214,105 
		212,107 209,109 207,110 204,111 	"/>
	<polygon fill="#00FF00" stroke="#800080" points="222,37 218,37 215,36 211,36 209,34 207,32 205,30 204,27 203,24 203,20 203,16 
		201,14 200,11 201,7 203,5 206,6 209,7 210,10 212,12 214,14 216,16 217,19 219,21 221,23 224,24 226,26 226,30 225,33 224,35 	"/>
	<polygon fill="#00FF00" stroke="#800080" points="222,875 218,875 216,873 214,871 212.015,868.203 211,866 209,864 
		206.186,861.314 204.95,859.371 204,857 205,854 207,852 210,850 214,850 218,850 220.404,849.924 223,851 225,853 226,856 
		227,859 227.734,862.904 228,866 227,868 225.615,870.411 223.672,872.885 	"/>
	<polygon fill="#00FF00" stroke="#800080" points="235,410 231,410 228,409 225,408 223,406 221,404 219,402 217,400 216,397 
		215,394 214,391 216,388 218,386 221,385 224,384 227,383 229,382 232,381 236,380 240,380 243,379 246,380 247,383 247,387 
		246,390 245,393 245,397 245,401 244,404 242,406 240,407 237,409 	"/>
	<polygon fill="#00FF00" stroke="#800080" points="272,245 268,245 264,245 261,244 258,243 257,240 255,238 254,235 253,232 
		252,229 253,225 254,222 255,220 256,217 259,215 261,214 264,212 267,211 271,211 275,211 278,212 281,213 283,215 285,217 
		286,220 287,223 288,226 289,229 288,232 287,235 286,237 284,240 282,242 280,243 277,244 273,244 	"/>
	<polygon fill="#00FF00" stroke="#800080" points="292.372,794.294 291.436,799.325 289,801 286,800 283.828,798.27 282,796 
		280.316,793.823 279,791 277.742,787.853 278,785 279,783 281,781 284,779 288,779 290.616,780.948 292.606,783.174 
		293.542,787.035 293.074,789.844 	"/>
	<polygon fill="#00FF00" stroke="#800080" points="321.234,831 317.418,831.044 314.234,830 311.234,829 309.234,827 307.234,825 
		305.949,822.848 304.234,820 303.234,817 301.618,814.89 300.234,812 299.043,809.857 297.234,807 295.649,804.356 294.234,802 
		292.234,800 292.021,795.929 293.074,792.42 294.479,788.907 296.819,787.034 300.234,787 303.234,788 305.234,790 306.234,793 
		307.47,795.344 309.234,798 310.513,800.728 312.234,803 313.439,805.643 315.234,808 317.234,810 318.706,812.081 
		320.228,814.304 322.452,817.114 324.234,819 325.234,822 325.234,826 324.234,829 322.234,830 	"/>
	<polygon fill="#00FF00" stroke="#800080" points="327,140 323,140 317,138.5 314.5,134.375 313,130 313,126 313,123 313,120 
		313,116 314,113 315.625,110.125 316.375,108.125 317.25,106 318.125,103.5 320,100.125 322,97 323.5,95.625 326,96 328,98 
		329,101 330,104 330.75,108.375 331,111 332,114 333,117 333,121 333,125 333,129 333,133 332,136 330,138 328.75,139.125 	"/>
	<polygon fill="#00FF00" stroke="#800080" points="377,902 373.257,901.334 371,900 369,898 367,896 365.548,893.873 364,891 
		363,888 362,885 361,882 360,879 358.834,876.717 357,874 356,871 355,868 355.436,864.282 356,862 357,860 360,858 363,859 
		366,860 368,862 370,864 372,866 374,868 376,870 377.995,872.834 378.995,875.834 380.077,878.173 381.077,881.173 382,884 
		383,887 383,891 383.038,894.204 382,897 380,900 378.562,901.334 	"/>
	<polygon fill="#00FF00" stroke="#800080" points="398.58,556.079 395.111,555.107 392.475,552.193 391,549 391.42,546.488 392,542 
		393,539 394,536 394.928,532.639 395.667,529.87 396,527 397,524 399,521 400,519 403,517 405,516 409,515 412,516 414,518 
		415,521 415,525 414,528 414,531 413,535 412,537 411,541 410,544 410,547 409,550 408.417,552.336 404.823,554.275 
		401.216,555.524 	"/>
	<polygon fill="#00FF00" stroke="#800080" points="446.307,544.979 444.503,536.932 444.087,528.885 445.756,524.885 
		446.756,522.885 449.756,520.885 451.756,519.885 455.756,518.885 458.756,519.885 460.756,521.885 463.372,524.862 
		467.118,530.412 470.17,536.655 474.055,542.205 474.749,546.367 473.639,549.974 471.141,553.72 464.759,555.246 461.291,555.246 
		455.756,553.885 448.665,549.28 	"/>
	<polygon fill="#00FF00" stroke="#800080" points="401.277,561.167 397.277,561.167 394.277,560.167 391.088,556.634 
		391.504,552.333 394.695,555.662 398.302,556.772 402.048,556.218 404.823,555.246 407.875,553.72 407.277,556.167 
		406.277,558.167 403.277,560.167 	"/>
	<polygon fill="#00FF00" stroke="#800080" points="456.467,897.796 454,898 451,897 449,895 447,893 446,890 445,887 444,884 
		445,880 446,878 448,876 451,874 454,873 456,872 460,871 463,871 466,871 469,872 470,875 469,878 468,881 467,883 465,886 
		463,888 462,890 461,893 459,896 458.074,896.99 	"/>
	<polygon fill="#00FF00" stroke="#800080" points="470,715 466,715 463.799,713.228 462,711 460.845,709.166 459.737,707.135 
		458.076,704.18 456.598,701.044 455.491,697.902 454.198,694.579 453.829,692.364 453.829,689.41 454.013,687.01 455.121,685.347 
		456.414,685.719 457.415,687.138 458.999,690.517 459.368,691.995 460.091,692.587 461.091,695.587 461.983,697.031 
		464.168,700.675 465.276,701.968 465.646,703.26 469.045,707.814 470.784,710.26 470.816,712.305 	"/>
	<polygon fill="#00FF00" stroke="#800080" points="481,795 477,795 474,794 472,792 470,790 467,789 465,787 463,785 463,781 
		465,778 466,776 467,773 468,770 469,767 472,765 476,765 479,766 481,768 482,771 484,773 485,776 486,779 487,782 487,786 
		486,789 485,792 483,794 	"/>
	<polygon fill="#00FF00" stroke="#800080" points="501,469 497,469 493,469 491,467 488,466 486,464 484,462 482,460 481,457 
		481,453 482,450 484,448 486,446 489,444 491,443 494,443 497,444 500,445 502,447 506,447 509,448 512,449 514,451 515,454 
		516,457 515,460 513,462 511,464 509,465 506,467 504,468 	"/>
	<polygon fill="#00FF00" stroke="#800080" points="500,869 496,869 493,868 491,866 489.75,863.37 490.487,859.619 492.764,858.681 
		495.443,858.079 499.193,858.414 502,860 503,863 503,866 501,868 	"/>
	<polygon fill="#00FF00" stroke="#800080" points="524,302 520,302 517,301 513,301 509,301 507,299 504,298 502,296 500,294 
		498,292 498,288 499,285 501,283 504,281 506,280 509,278 513,278 517,278 520,279 522,281 524,283 526,285 527,288 528,291 
		528,295 528,298 526,301 	"/>
	<polygon fill="#00FF00" stroke="#800080" points="533,464 529,464 527,462 525,460 523,458 521,456 519,454 517,452 
		515.684,450.285 514.446,447.108 513.446,444.108 512,441 511,438 510,435 510,431 510,427 512,424 514,422 517,421 520,422 
		522,424 524.177,426.469 525.477,428.523 526.477,431.523 527.478,433.969 528.793,436.622 529.716,437.914 532.108,440.415 
		534.478,444.076 535.554,447 537,449 538,452 538,456 538,459 536,462 534,463 	"/>
	<polygon fill="#00FF00" stroke="#800080" points="551,446 547,446 543,446 540,445 538,443 537,440 535,438 533,436 532,433 
		531,430 530,427 529,424 530,420 532,418 535,417 538,418 540,420 542,422 544,424 546,426 548,428 551,429 554,430 556,432 
		558,434 558,438 557,441 556,443 553,445 	"/>
	<polygon fill="#00FF00" stroke="#800080" points="558,660 554,660 551,659 548,658 546,656 544,654 542,652 540,650 539,647 
		538,644 537,641 538,637 539,635 542,633 545,632 549,632 552,633 555,634 557,636 559,638 561,640 563,642 564,645 565,648 
		565,652 564,655 562,657 560,659 	"/>
	<polygon fill="#00FF00" stroke="#800080" points="554,116 550,116 547,115 545,113 543,111 542,108 544,105 546,103 549,102 
		551,104 553,106 556,107 557,110 557,113 555,115 	"/>
	<polygon fill="#00FF00" stroke="#800080" points="558,141 554,141 551,140 548,139 546,137 544,135 543,132 545,129 548,128 
		552,128 556,128 560,128 562,130 564,132 565,135 564,138 562,139 559,140 	"/>
	<polygon fill="#00FF00" stroke="#800080" points="559,161 555,161 552,160 550,158 551,155 554,153 557,152 559,152 561,154 
		562,157 561,159 	"/>
	<polygon fill="#00FF00" stroke="#800080" points="625.925,189.268 622.388,188.37 616.738,185.255 615.629,183.249 
		615.683,180.556 618.059,178.708 620.487,177.441 622.44,176.068 625.345,172.741 627.403,170.735 628.987,169.785 
		630.624,170.365 631.311,171.844 630.889,173.798 629.252,177.018 628.143,180.398 627.826,182.668 627.721,185.202 
		627.563,187.789 	"/>
	<polygon fill="#00FF00" stroke="#800080" points="615.417,183.333 612.917,185.167 608.572,183.838 607.463,181.832 
		607.517,179.139 609.893,177.291 612.321,176.024 617.167,173.833 619.417,173.25 620.75,173.75 621.417,174.75 620.417,176.25 
		618.75,177.333 616.75,178.833 615.25,180 	"/>
	<polygon fill="#00FF00" stroke="#800080" points="567,631 564,630 561,629 558,628 556,626 554,624 556,621 559,622 562,623 
		565,624 568,625 568,629 	"/>
	<polygon fill="#00FF00" stroke="#800080" points="587,90 584,89 581,88 579,86 577,84 575,82 573,80 571,78 571,74 572,71 574,69 
		577,67 581,67 583,66 585,65 588,66 590,68 592,70 594,72 595,75 596,78 597,81 598,84 597,87 595,88 592,89 588,89 	"/>
	<polygon fill="#00FF00" stroke="#800080" points="637,803 633,803 630,802 628,800 628,796 627,793 626,790 624,788 622,786 
		620,784 618,782 616,780 614,778 613,775 611,773 612,769 613,767 616,765 620,765 622,767 625,768 627,770 629,772 631,774 
		634,775 636,777 639,778 641,780 643,782 645,784 648,785 649,788 649,792 649,795 647,798 645,800 643,801 640,802 	"/>
	<polygon fill="#00FF00" stroke="#800080" points="642.358,834.978 639.67,837.315 636.839,838.848 633.216,838.848 629,838 
		626,837 623,836 621,834 618,833 617,830 616,827 618,824 620,823 624,822 628,822 631,823 633.8,823.772 636.722,824.94 
		638.592,825.76 640.462,826.927 642.74,829.849 643.151,832.901 	"/>
	<polygon fill="#00FF00" stroke="#800080" points="657.769,845.35 653.769,845.35 651.002,845.052 648.002,844.052 641.514,842.59 
		638.358,840.484 638.048,838.328 639.628,837.194 641.652,835.858 642.948,834.238 643.151,831.282 642.25,828.361 
		647.591,828.214 653.002,828.052 657.002,828.052 660.002,829.052 662.785,830.2 665.002,832.052 666.002,835.052 666.002,839.052 
		665.002,841.052 663.002,843.052 660.002,845.052 	"/>
	<polygon fill="#00FF00" stroke="#800080" points="650,172 646,172 644,170 642,168 642,164 640,162 639,159 639,155 637,153 
		635,151 635,147 637,145 641,144 643,146 644,149 646,151 648,153 650,155 653,156 654,159 655,162 655,166 654,169 652,171 	"/>
	<polygon fill="#00FF00" stroke="#800080" points="660,474 657,473 654,472 652,470 651,467 649,465 647,463 646,460 647,457 
		650,455 653,454 656,453 659,454 661,456 663,458 664,461 666,463 666,467 665,470 664,472 661,473 	"/>
	<polygon fill="#00FF00" stroke="#800080" points="687.223,764.269 684.901,764.617 682.696,764.153 681.072,763.224 
		679.857,760.811 679.68,758.699 680,755 682,753 685,751 688,750 692,750 695,751 698,752 700,754 700.335,756.146 699,758 
		697,760 694,762 692,763 689,764 	"/>
	<polygon fill="#00FF00" stroke="#800080" points="741,255 737,255 735,253 732,252 728,252 724,253 721,253 717,253 715,251 
		713,249 711,247 711,243 713,240 715,238 718,237 721,236 725,236 729,236 732,237 734,239 736,241 738,243 741,244 742,247 
		743,250 743,253 	"/>
	<polygon fill="#00FF00" stroke="#800080" points="733.321,577.022 732.284,573.457 732.284,569.457 732.521,566.402 
		732.407,562.177 733.197,559.344 735.197,556.344 736.747,554.983 738.688,554.412 741,555 743,557 744,560 745,563 
		745.426,566.175 745.197,568.915 745.197,571.541 745.312,574.968 744.513,578.051 743.37,579.649 741.771,581.135 
		738.117,581.362 735.377,579.649 	"/>
	<polygon fill="#00FF00" stroke="#800080" points="746.084,899.948 741.543,900.355 738.543,899.355 735,897 733.729,895.355 
		732.729,892.355 732,888 733,885 734,882 735,879 738,877 740,876 744,875 746.834,875.827 748.678,877.78 750.678,879.78 
		752.354,883.457 753.354,886.457 753.204,889.652 752.221,893.544 750.221,896.544 748.084,898.948 	"/>
	<polygon fill="#00FF00" stroke="#800080" points="749,609 745,609 743,607 742,604 740,602 740,598 742,595 743,593 745,591 
		747,589 750,587 753,586 756,587 758,589 760,591 763,592 765,594 769,594 771,596 771,600 769,602 766,603 763,603 760,605 
		758,606 755,607 752,608 	"/>
	<polygon fill="#00FF00" stroke="#800080" points="770,448 766,448 762,448 759,447 756,446 754,444 752,442 750,440 748,438 
		745,437 743,435 744,432 747,430 749,429 751,427 754,425 757,424 760,423 764,423 768,423 772,423 775,424 777,426 779,428 
		780.869,431.092 781.507,433.801 782,437 781,440 780,442 778,444 776,446 773,447 	"/>
	<polygon fill="#00FF00" stroke="#800080" points="835,568 831,568 827,568 824,567 821,568 817,568 813,568 810.325,567.513 
		808.008,566 806.008,564 805,560 804,557 802,555 801,552 803,549 805.287,547.81 808,548 812,548 815,549 819,549 822,550 
		825,551 827,553 830,554 833,555 835.289,556.654 837,559 838,562 838,565 837.191,566.954 	"/>
	<polygon fill="#00FF00" stroke="#800080" points="837,779 833,779 830,778 828,776 826,774 823,773 820,772 820,768 818,766 
		816,764 814,762 812,760 811,757 810,754 811,751 813,748 816,747 819,748 821,750 823,752 825,754 828,755 830,757 832,759 
		834,761 836,763 838,765 839,768 840,771 841,774 840,777 838,778 	"/>
	<polygon fill="#00FF00" stroke="#800080" points="835,298 831,298 828,297 827,294 826,291 825,288 823,286 821,284 819,282 
		817,280 815,278 815,274 816,271 818,268 820,267 823,265 826,264 829,263 833,263 836,264 838,266 840,268 842,270 844,272 
		846,274 847,277 848,280 848,284 848,287 846,290 845,292 842,294 840,295 837,297 	"/>
	<polygon fill="#00FF00" stroke="#800080" points="843,714 840,713 838,711 836,709 835,706 834,703 834,699 835,696 837,693 
		839,692 842,690 845,689 848.946,688.183 852,688 856,688 858.35,689.303 861,691 862.827,693.445 864,696 865.85,698.707 867,701 
		867,705 866,707 863,709 861,710 858,711 855,712 852,713 848.274,713.819 844.916,713.819 	"/>
	<polygon fill="#00FF00" stroke="#800080" points="862.675,435.349 856,436 854.156,434.901 851,433 849,431 847,429 845,427 
		843,425 841.006,422.05 840,420 839,417 839,414 840,412 842.65,410.244 847,410 850,411 853,412 855.502,413.233 858,415 860,417 
		862,419 864,421 866,423 867.755,425.636 869,428 868.203,431.464 865.663,433.706 	"/>
	<polygon fill="#00FF00" stroke="#800080" points="878.045,447.15 873.882,447.604 870.045,447.15 868.054,445.511 866.091,444.15 
		864.091,442.15 859.088,436.844 864.168,436.246 866.41,434.154 868.054,432.659 869.549,429.521 874.148,435.15 876.148,437.15 
		877.917,439.833 878.813,442.223 879.045,445.15 	"/>
	<polygon fill="#00FF00" stroke="#800080" points="916,102 912,102 909,101 906,100 904,98 902.229,95.193 901,93 899,91 897,89 
		895,87 893,85 891,83 889,81 887,79 886,76 885.847,73.464 886.644,71.302 888.69,70.733 890.853,70.961 892.786,71.416 
		895.403,72.098 898.021,73.122 900.067,74.032 902,75 904.959,76.649 907,78 909.965,79.834 912,81 915.313,83.02 918.271,84.271 
		920.659,85.409 922.82,87.457 923.958,89.618 925,90.976 925,96 924,98 922,100 919,101 	"/>
	<polygon fill="#00FF00" stroke="#800080" points="901,0 903,2 903,6 902,9 902,13 902,16 900,19 899,21 896,23 893,23 890,22 
		888,20 886,18 884,16 883,13 884,10 886,7 888,5 890,3 892,1 	"/>
	<polygon fill="#00FF00" stroke="#800080" points="942.49,614.732 939.509,615.005 936.438,615.724 932.554,616.357 
		928.669,616.808 926.592,615.724 925.779,613.286 926.141,611.479 927.946,609.676 931.289,608.318 933.366,607.143 
		936.528,606.331 941.165,605.763 941.52,606.979 941.824,610.524 942.381,612.5 944.609,614.221 	"/>
	<polygon fill="#00FF00" stroke="#800080" points="942.634,612.803 941.723,610.373 941.57,608.701 942.077,606.067 
		944.002,603.687 945.977,602.117 948.571,601.358 950.92,601.631 952.907,602.442 954.984,604.341 955.526,606.326 
		955.165,608.585 954.849,610.544 952.849,612.544 949.849,613.544 947.396,613.915 944.457,614.323 	"/>
	<polygon fill="#00FF00" stroke="#800080" points="982,881 979,880 976,879 973,878 969,878 966,877 964,875 961,874 959,872 
		958,869 957,866 957,862 958,858 959,856 961,853 963,851 966,850 968,849 971,848 975,847 979,847 982,848 984,850 986,852 
		988,854 990,856 992,858 994,860 996,862 998,864 998,868 997,870 995,872 993,874 990,876 988,878 986,879 983,880 	"/>
	<polygon fill="#00FF00" stroke="#800080" points="998,543 994,543 992,541 991,538 991,534 991.201,531.2 991.114,528.856 991,526 
		991.201,524.777 992.156,522.607 993.17,520.516 993.719,519.135 994.847,518.094 996.235,516.357 997.19,514.274 998.146,512.103 
		997.885,509.588 998,507 1000,505 1004,504 1007,505 1009,507 1010,510 1011.6,512.972 1012.814,515.402 1014.725,517.922 
		1016,520 1016,524 1015,527 1013,529 1012,531 1010,533 1008,536 1006,538 1004,540 1002,541 999,542 	"/>
	<polygon fill="#00FF00" stroke="#800080" points="1095,722 1091,722 1088,721 1086,719 1083,718 1079,718 1076,717 
		1073.792,716.014 1072,713 1072,709 1073,705 1074,703 1077,701 1081,701 1085,701 1087,703 1089,705 1090.126,708.515 
		1091.873,709.954 1095,711 1097.112,712.625 1099,715 1099.271,717.145 1098,720 1096.393,721.151 	"/>
	<polygon fill="#00FF00" stroke="#800080" points="1091,506 1087,506 1084,505 1081,504 1078,503 1076,501 1074,499 1073,496 
		1073,492 1073,488 1073,484 1073,480 1074,477 1076,475 1079,473 1082,472 1085,473 1086,476 1087,479 1087,483 1088,486 1089,489 
		1090,492 1092,494 1094,496 1095,499 1095,502 1093,505 	"/>
	<polygon fill="#00FF00" stroke="#800080" points="1127,603 1123,603 1119.401,602.58 1117,601 1115,599 1113,597 1111,595 
		1109,593 1108,590 1107,587 1105.29,584.423 1105,581 1106,578 1107,575 1110,573 1113.166,572.389 1115,574 1117,576 1118,579 
		1120,581 1123,582 1126,581 1129,582 1131,584 1132,587 1133,590 1133,594 1132,597 1131,599 1129,602 	"/>
	<polygon fill="#00FF00" stroke="#800080" points="1143,121 1139,121 1136,120 1134,118 1132,116 1130,114 1129,111 1127,109 
		1126,106 1125,103 1124,100 1124,96 1125,93 1127,91 1129,89 1132,87 1135,88 1137,90 1139,92 1140,95 1142,97 1144,99 1145,102 
		1146,105 1146,109 1147,112 1147,116 1146,118 1144,120 	"/>
	<polygon fill="#00FF00" stroke="#800080" points="1214.563,402.656 1208.507,401.865 1205.7,400.989 1203.771,400.813 
		1199.738,399.761 1196.581,396.078 1195.705,391.694 1196.729,387.823 1196.757,386.082 1197.809,383.802 1198.16,380.997 
		1200.439,378.191 1203.771,375.56 1207.98,373.631 1210.436,373.982 1212.54,378.015 1214.995,382.75 1218.729,391.823 
		1220.563,394.823 1219.563,398.656 1217.396,400.989 	"/>
	<polygon fill="#00FF00" stroke="#800080" points="1213.942,403.444 1215.346,402.742 1219.905,398.533 1220.432,394.676 
		1218.151,390.642 1216.397,386.258 1215.521,381.874 1219.204,378.366 1222.887,378.015 1225,378.365 1225,401.689 
		1218.678,403.795 	"/>
	<polygon fill="#00FF00" stroke="#800080" points="1154.65,258.901 1151,258 1148,257 1146,255 1144,253 1143,250 1142,247 
		1142,243 1143,240 1145,238 1148,236 1151,235 1154.65,235.385 1157.979,236.841 1160,238 1162,240 1164.354,243.416 
		1165.354,246.416 1164.849,250.472 1163.495,253.594 1162.038,255.572 1160.146,257.249 1157.252,258.38 	"/>
	<polygon fill="#00FF00" stroke="#800080" points="1171,615 1168,614 1165,613 1163,611 1161,609 1159,607 1157,605 1155,603 
		1154,600 1155,597 1156,594 1157,590 1158,587 1159,585 1161,582 1163,580 1166,579 1168,578 1172,577 1175,578 1178,579 1181,580 
		1183,582 1185,584 1187,586 1188,589 1189,592 1189,596 1189,600 1189,603 1187,606 1185,608 1183,610 1181,611 1178,613 1175,613 
		1172,614 	"/>
	<polygon fill="#00FF00" stroke="#800080" points="1176.333,197.666 1174.179,196.781 1172.068,194.912 1168.833,192.166 
		1167,190.166 1165.817,187.978 1163.817,185.978 1161.425,183.48 1160,182 1160,179 1162,177 1163.808,175.719 1167,176 1170,177 
		1171.706,178.033 1174.833,179.166 1178,181 1180,183 1182,185 1184,187 1185,190 1186,193 1185,195 1183,197 1180,198 	"/>
	<polygon fill="#00FF00" stroke="#800080" points="1197.167,357.333 1194.5,356.166 1192.333,353.666 1191,350.833 
		1191.667,347.333 1193.5,346.166 1195.167,345.333 1199.167,345.333 1203.5,349.5 1204.167,352.666 1202.5,355.5 1200.333,357.166 
			"/>
	<polygon fill="#00FF00" stroke="#800080" points="1153.084,358.561 1149.339,356.944 1151.893,355.327 1155.127,352.689 
		1156.318,350.987 1157.595,349.625 1158.021,348.774 1158.616,346.561 1161.029,350.436 1161.696,353.602 1160.029,356.436 
		1157.862,358.102 	"/>
	<polygon fill="#00FF00" stroke="#800080" points="1193.763,314.01 1191.096,312.844 1188.929,310.344 1187.596,307.51 
		1187.391,301.01 1189.37,298.265 1192.969,298.31 1198.052,299.84 1204.574,304.563 1205.339,309.196 1204.006,312.114 
		1198.698,314.408 	"/>
	<polygon fill="#00FF00" stroke="#800080" points="1223.986,493.755 1223.937,497.371 1223.529,501.052 1223.529,505.052 
		1223.12,508.378 1221.438,511.28 1219.808,513.574 1216,515 1213,515 1210,514 1207,513 1205,511 1202,510 1200,508 1198,506 
		1197,503 1197,499 1198,496 1200,493 1202,491 1204,489 1206,487 1209,486 1212,485 1216,485 1218.941,485.497 1221.765,486.828 
		1223.765,488.828 	"/>
	<polygon fill="#00FF00" stroke="#800080" points="0,29 1,27 4,25 8,25 11,26 14,27 16.734,28.033 19.011,29.552 21.857,31.07 
		24,33 26.032,34.296 27.93,35.814 30.776,39.609 32.294,43.973 30.586,47.579 29.068,48.907 24,50 21,49 18,48 15,47 12,46 
		9.523,45.302 7,43 5,41 3,39 1,37 0,34 	"/>
	<polygon fill="#00FF00" stroke="#800080" points="37,341 33,341 29,341 25,341 22,340 19,339 17,337 14,336 12,334 9,333 7,331 
		6,328 8,325 10,324 12,322 13,319 15,316 17,314 20,313 23,312 26,313 29,314 32,315 34,317 36,319 38,321 40,323 42,325 44,327 
		45,330 45,334 44,336 42,338 39,340 	"/>
	<polygon fill="#00FF00" stroke="#800080" points="77.551,59.122 73.429,58.511 70.06,57.164 67.99,55.449 65.456,53.346 
		63.66,51.325 61.863,49.416 60.179,47.058 59.28,44.026 58.495,40.77 58.045,36.391 58.495,32.91 59.168,29.541 61,26 
		63.772,24.489 66.467,23.478 70,23 73,24 75.337,24.825 78.011,26.877 80.011,28.877 82,31 84.208,33.247 85.667,35.829 
		86.898,38.552 87.898,41.552 88.363,45.149 88.138,49.191 87.689,51.886 85.78,54.806 82.86,57.501 79.941,58.399 	"/>
	<polygon fill="#00FF00" stroke="#800080" points="112.155,654.997 107.357,653.755 103.921,651.68 101.578,649.714 99.243,647.948 
		97.525,645.816 95.638,643.594 93.815,641.354 91.216,638.594 89.157,635.822 87.692,632.723 86.626,629.643 86.152,625.32 
		88.936,622.42 92.549,621.469 95.452,622.358 98.651,624.469 100.651,626.469 103.836,628.348 105.836,630.348 107.89,632.548 
		109.481,634.704 111.125,636.588 113.605,639.112 114.879,641.43 116.36,644.927 117.486,649.55 116.606,653.198 	"/>
	<polygon fill="#00FF00" stroke="#800080" points="86,622 82,622 79,621 76,620 74.167,619 70,618 66,618 63,617 60,616 57,615 
		55,613 52,612 50,610 49,607 47,605 46,602 48,600 52,599 54,598 57,596 59,594 60,592 61,589 64,587 67,588 69,590 70,593 72,595 
		74,597 76,599 78,601 79,604 81,606 83,608 85,610 86,613 87,616 87,620 	"/>
	<polygon fill="#00FF00" stroke="#800080" points="86.405,562.354 82.304,562.81 78.953,562.611 74.999,561.75 71,561 68,560 
		65,559 63.19,557.343 61.669,554.603 61.771,551.056 62.937,548.724 64.863,545.988 67.802,544.926 71.354,544.509 74.999,544.771 
		78.902,544.822 82.196,544.72 86,545 89,546 91.572,548.015 93.549,551.008 94.259,554.401 92.89,558.255 90.356,560.635 
		88.531,561.902 	"/>
	<polygon fill="#00FF00" stroke="#800080" points="113,798 111,796 108,795 106,793 104,791 102,789 103,786 104,782 106,780 
		109,779 112,780 114,782 116,784 118,786 120,788 120,792 119,795 118,797 114,797 	"/>
	<polygon fill="#00FF00" stroke="#800080" points="148,170 145,169 142,168 139,167 137,165 134,164 132,162 131,159 129,157 
		127,155 125,153 124,150 125,147 127,145 130,145 133,146 135,148 137,150 139,152 142,153 144,155 146,157 148,159 151,160 
		153,162 154,165 153,167 150,169 	"/>
	<polygon fill="#00FF00" stroke="#800080" points="212.625,221.714 208.738,219.944 206.767,218.383 204.7,216.545 202.264,214.358 
		199.264,212.31 196.804,209.507 194.804,207.507 193.148,205.392 191.148,203.392 188.16,201.155 185.978,200.35 184,199 181,198 
		178.699,196.475 175.886,194.954 173,194 170,193 167,192 164,191 161.295,189.363 159,188 157,186 155,184 153,182 151,180 
		150,177 150.024,174.16 151,172 152,169 155,167 157.608,166.812 160.824,167.156 164.155,168.764 167.601,170.947 
		171.506,171.981 174.345,173.216 177.733,174.002 181.728,174.737 184.953,175.527 187.363,176.862 189.768,178.298 
		190.993,179.143 193.689,180.838 195.511,181.973 197,183 199,185 201,187 203.781,188.75 205.689,190.656 208.26,193.574 
		210.259,195.511 211.608,197.769 212.625,200.121 213.699,202.302 215,205 216,208 217.301,211.731 217.793,214.708 
		217.69,218.609 215.681,220.793 	"/>
	<polygon fill="#00FF00" stroke="#800080" points="188.823,860.472 185.823,859.472 182.253,857.256 179.646,855.706 
		177.646,853.706 176,851 175,848 175,844 177,841 179,839 181,838 184,838 186,840 187.993,841.975 189.441,844.558 
		191.441,846.558 193.59,849.735 194.59,852.735 193.59,857.561 191.59,859.561 	"/>
	<polygon fill="#00FF00" stroke="#800080" points="207,283 203,283 201,281 199,279 199,275 201,272 202,270 204,268 207,267 
		210,265 212,264 214,262 216,260 218,258 220,256 223,254 226,253 228,252 231,250 235,250 238,251 241,252 242,255 243,258 
		243,262 242,265 240,267 238,269 236,270 233,272 231,273 228,275 226,276 223,278 221,279 218,280 215,281 211,281 208,282 	"/>
	<polygon fill="#00FF00" stroke="#800080" points="194,270 190.657,271.178 186.053,271.402 183.358,268.932 183,265 184,261 
		184,258 184,254 184,250 185.379,245.127 188.748,244.341 191.892,246.138 194.362,249.282 195.26,251.977 196,255 198.18,257.591 
		200.426,260.96 199.977,263.991 199.19,267.135 196.496,269.493 	"/>
	<polygon fill="#00FF00" stroke="#800080" points="191.526,890.895 188.17,890.544 184.991,888.425 183.057,884.352 183.41,881.09 
		185.293,878 186.293,876 187.287,872.969 187.94,869.028 188.94,866.028 191.293,864.296 194.293,862.296 198.944,862.016 
		202.943,863.056 204.943,865.056 205.921,869.612 205.391,873.232 204.826,877.205 203.801,880.386 201.501,884.264 
		199.297,886.568 196.383,888.864 193.353,890.472 	"/>
	<polygon fill="#00FF00" stroke="#800080" points="211.131,896.728 208.482,896.378 206.009,895.315 204.155,893.373 
		202.83,891.692 201.947,889.927 201.682,887.983 201.707,886.005 203.707,883.005 205.265,881.385 208.265,879.385 
		211.573,878.094 215,878 218,879 220,881 222.083,883.393 223,886 224,889 223.23,892.931 218.638,894.258 213.516,896.287 	"/>
	<polygon fill="#00FF00" stroke="#800080" points="226.939,912.885 223.148,914 219.148,914 216.148,913 214.148,911 
		212.456,908.205 211.485,905.732 210.425,902.199 210.425,899.02 213.251,896.55 216.342,895.311 218.991,893.986 222.789,893.014 
		225.148,895 227.148,897 228.088,900.787 228.148,904 228.148,908 228.148,911 	"/>
	<polygon fill="#00FF00" stroke="#800080" points="228,61 224,61 220,61 217,60 216,57 215,54 216,51 219,49 222,48 225,49 229,49 
		231,51 231,55 231,59 229,60 	"/>
	<polygon fill="#00FF00" stroke="#800080" points="327.719,542.611 325.318,542.798 321,542 318.486,541.506 316.456,539.288 
		314.793,537.81 312.763,534.674 312,531 311,528 311,524 312,521 313,518 315,516 318,514 321,515 323,517 325,519 327,521 
		329,523 331,525 333,527 335,529 337.135,532.089 339.108,534.926 339.108,537.926 336.951,540.395 333.627,541.319 
		330.673,542.057 	"/>
	<polygon fill="#00FF00" stroke="#800080" points="330,579 327,578 325,576 323,574 321,572 319,570 318,567 317,564 316,561 
		315,558 313.871,553.69 311.101,550.736 308.701,547.781 308.516,543.535 311.101,541.319 316.185,541.048 319.369,541.306 
		322.369,542.306 326.846,542.385 329.846,543.385 331.227,544.459 334.815,546.784 336,552 337,555 337.874,557.936 337.847,562 
		337.847,565 336.846,569 335.846,572 334,576 332,578 	"/>
	<polygon fill="#00FF00" stroke="#800080" points="330.23,40.708 326.152,38.96 322.572,34.548 321.24,31.302 320.158,28.221 
		320,24 321,22 323,20 326.168,19.749 330.064,20.313 332.335,21.082 334.643,22.478 336.557,24.475 338.002,26.499 340,30 340,33 
		339,37 337.473,40.042 333.644,41.041 	"/>
	<polygon fill="#00FF00" stroke="#800080" points="335,67 331,67 328,66 325,65 323,63 321,61 319.076,57.94 318.16,54.693 
		318.243,51.197 320.158,49.532 323.238,49.865 326.484,51.114 330,53 332.395,54.527 335,56 338.139,57.94 342.135,60.935 
		343.05,62.768 341.968,64.182 339.554,65.598 	"/>
	<polygon fill="#00FF00" stroke="#800080" points="394.747,752.097 390.747,752.097 387,751 385.078,750.087 382,748 
		380.155,746.435 378.155,744.435 375.986,742.52 373.986,740.52 371.567,738.094 370.469,734.885 371.061,731.76 369.034,727.201 
		369.48,723.493 370.48,721.493 373.847,719.516 378,719 382,719 385.163,719.432 388.203,720.952 390,723 392.267,725.24 
		394.267,727.24 395.549,729.734 396.675,732.071 398.42,734.719 400.098,736.818 401.436,740.831 402.364,744.747 401.448,748.76 
		398.52,750.844 	"/>
	<polygon fill="#00FF00" stroke="#800080" points="353.328,736.321 351.47,736.405 348,736 345,735 342,734 339.816,732.943 
		337,731 335,729 333,727 331,725 329.937,722.641 330.781,720.614 334,719 337.452,718.421 341,718 344.039,718.421 
		347.071,719.255 349.071,721.255 352,723 354.087,724.5 357,726 360.421,726.779 364,727 368,727 370,729 371.145,732.352 
		369.794,734.55 367.007,735.729 363.629,735.983 360,736 356,736 	"/>
	<polygon fill="#00FF00" stroke="#800080" points="372.137,267.156 369.137,266.156 367.144,265.364 363.819,264.976 360,265 
		358,263 357,260 357,256 358,253 359,250 362,248 365,247 369,247 373,247 376,248 379,249 381,251 383,253 385,255 
		386.461,257.24 387,261 386,264 384,266 382,267 379,268 375,268 	"/>
	<polygon fill="#00FF00" stroke="#800080" points="405.779,259.152 403.727,259.819 398.84,259.887 395.84,258.887 393.083,257.582 
		390.771,254.658 390.771,251.658 392.604,248.777 394.516,246.251 397.109,244.34 399.294,243.043 402.317,242.317 
		405.574,242.633 408.795,243.976 412,246 413.492,248.026 413.498,251.136 411.854,254.305 410.021,256 408.1,257.582 	"/>
	<polygon fill="#00FF00" stroke="#800080" points="417,38 411.706,39.018 407.754,38.806 404.754,37.806 402.103,36.306 
		401.297,32.494 402.91,28.903 406,28 409,27 413,27 416.104,27.07 419.036,28.316 420,32 420,35 418,37 	"/>
	<polygon fill="#00FF00" stroke="#800080" points="440,655 436,655 434,653 432,651 430.292,648.34 428.292,646.34 427.24,643.984 
		425,642 423,640 422,637 421.517,634.385 422,632 424,630 426,629 429,629 432,630 434,632 435.734,634.754 437,637 438,640 
		439,643 440,646 441,649 441,653 	"/>
	<polygon fill="#00FF00" stroke="#800080" points="422,632 418,632 416,630 414,628 413,625 411,623 410,620 409,617 408,614 
		407,611 405,609 404,606 403,603 403,599 406,597 409,596 412,597 415,598 416,601 418,603 420,605 421,608 423,610 424,613 
		425,616 425,620 426,623 426,627 425,629 423,631 	"/>
	<polygon fill="#00FF00" stroke="#800080" points="437,516 434,515 432.78,512.512 432,509 431,506 430.564,503.096 
		430.379,499.772 430.195,497.373 430.379,494.051 431.302,491.835 434,490 437,491 439,493 440,496 441,499 442,502 
		442.935,505.866 442.565,509.743 440.719,512.698 439.058,515.283 	"/>
	<polygon fill="#00FF00" stroke="#800080" points="458.814,516.575 456.077,515.107 454.077,513.107 451.613,510.482 
		449.767,508.082 448.29,505.497 447.446,503 446.185,500.632 444.738,498.632 443.858,496.635 442.108,493.633 439.923,490.891 
		438.923,487.891 437.95,484.262 437.58,481.124 437.58,477.061 438,474 439,472 443,471 446,472 448,474 450,476 452,478 453,481 
		454,484 455.675,486.847 458.076,488.881 459,491 460,494 460.845,498.111 461,501 462,504 462.507,507.897 463.615,512.698 
		462.138,515.839 	"/>
	<polygon fill="#00FF00" stroke="#800080" points="463,806 459,806 456,805 453,804 451,802 449,800 447,798 445,796 443,794 
		441,792 439,790 437,788 435,786 433,784 431,782 429,780 428,777 429,774 431,771 435,771 437,773 440,774 443,775 446,776 
		448,778 450,780 452,782 454,784 457,785 459,787 461,789 463,791 464,794 465,797 465,801 466,803 464,805 	"/>
	<polygon fill="#00FF00" stroke="#800080" points="483.187,549.628 480.786,549.259 478.386,546.302 477,544 475,542 473,540 
		471,538 470,535 471,532 474,530 477,531 479,533 481,535 482.261,537 483.002,539.101 485.033,542.796 486.141,545.75 
		485.957,548.149 	"/>
	<polygon fill="#00FF00" stroke="#800080" points="490,302 486,302 484,300 481,299 478,298 477,295 475,293 473,291 471,289 
		469,287 467,285 465,283 463,281 461,279 459,277 457,275 456,272 457,269 459,267 462,265 465,266 468,267 471,268 473,270 
		476,271 479,272 482,273 484,275 486,277 489,278 491,280 492,283 493,286 494,289 495,291 494,295 493,298 492,301 	"/>
	<polygon fill="#00FF00" stroke="#800080" points="480.163,61.267 478,61 474,61 471,60 468,59 467,56 468,52 470,51 
		472.611,50.031 476,50 480,50 482,52 483,55 483,59 481.453,60.531 	"/>
	<polygon fill="#00FF00" stroke="#800080" points="513.453,68.363 509.245,69.735 504.715,69.235 501.689,64.878 502.173,60.156 
		505.926,55.678 507.5,54.104 511.01,51.927 514.399,51.441 518,53 519,56 519,60 518.757,63.304 517.21,65.726 515.21,67.726 	"/>
	<polygon fill="#00FF00" stroke="#800080" points="494,58.625 492.458,61.001 488.25,59.875 486.375,57.25 485.25,54.125 
		485.625,51.375 486.625,50.125 488,48.625 490.458,48.001 494.458,48.001 496.25,48.875 496.25,51.25 494.625,54.875 
		494.25,57.125 	"/>
	<polygon fill="#00FF00" stroke="#800080" points="506.375,53.75 503.75,57.875 501.25,62.375 497.875,63.5 495.083,62.126 
		494.375,57.375 495.75,53.5 497.625,51 499.625,49 502.75,47.5 505.5,47.875 507.5,49.125 508.875,51.75 	"/>
	<polygon fill="#00FF00" stroke="#800080" points="504.118,110.358 501.935,110.887 499.909,111.309 497.799,111.056 
		495.436,110.043 492.567,108.524 490.373,106.921 489.697,105.908 489.022,104.811 487.941,102.772 487.841,98.988 489.604,96.253 
		491.048,94.177 492.735,92.152 494.677,89.873 496,88 498,86 500,84 502,82 504,80.325 507.167,78.564 510.253,77.734 
		514.253,76.734 517,77 520.928,77.916 522.928,79.916 524.468,83.29 524.974,86.919 525.448,91.506 524.448,94.506 523.363,97.506 
		522.363,99.506 520.501,102.026 518.604,103.493 514.425,106.752 511.215,107.805 508.433,108.947 506.118,109.358 	"/>
	<polygon fill="#00FF00" stroke="#800080" points="544,692 540,692 536,692 534,690 533,687 531,685 529,683 528,680 526,678 
		525,675 523,673 521,671 519,669 518,666 516,664 515,661 515,657 517,654 519,652 522,651 525,652 528,653 530,655 532,657 
		534,659 536,661 537,664 539,666 541,668 543,670 545,672 546,675 548,677 549,680 550,683 549,686 547,688 546,690 	"/>
	<polygon fill="#00FF00" stroke="#800080" points="551,737 548,736 546,734 545,731 546,728 546,724 546,720 546,716 546,712 
		546,708 545,705 544,702 543,699 543,695 544,693 546,691 548,689 551,690 553,692 555,694 557,696 558,699 559,702 560,705 
		560,709 561,712 561,716 561,720 561,724 560,727 560,731 559,734 557,736 554,736 	"/>
	<polygon fill="#00FF00" stroke="#800080" points="569,499 565,499 561,499 557,499 555,497 553,495 552,492 551,489 552,485 
		553,483 555,480 557,478 559,477 562,475 565,475 569,474 572,475 575,476 578,477 580,479 582,481 583,484 583,488 582,490 
		580,492 578,494 575,496 573,497 570,498 	"/>
	<polygon fill="#00FF00" stroke="#800080" points="605,193 601,193 598,192 595,191 593,189 591,187 589,185 588,182 
		584.141,180.596 584,178 584.563,176.237 588,175 592,175 594,177 597,178 598,181 600,183 602,185 605,186 607,188 607,192 	"/>
	<polygon fill="#00FF00" stroke="#800080" points="582.313,179.612 579,180 575,180 572,179 568,179 565.158,177.783 564,175 
		564,172 565,170 568,168 571,167 574,166 578,166 581,165 584,164 587,163 590,162 593,163 595,165 595,169 595,173 
		593.422,174.55 590,175 586,175 583,177 	"/>
	<polygon fill="#00FF00" stroke="#800080" points="599,719 595,719 592,718 588,718 586,716 584,714 583,711 582,708 581,705 
		580,702 579,699 578,696 576,694 577,691 579,688 581,687 584,686 587,684 590,683 592,683 595,684 596,687 597,690 597,694 
		596,696 594,699 595,702 596,705 598,707 599,710 601,712 602,715 601,717 	"/>
	<polygon fill="#00FF00" stroke="#800080" points="646.592,703.416 643.178,702.914 640.178,701.914 636.477,701.049 
		634.36,699.822 632.36,697.822 629.552,694.76 629.278,690.385 630.463,686.831 631.818,684.635 633.818,682.635 636.112,680.546 
		639.302,679.45 642.491,679.177 645.134,679.723 649.456,680.635 652.456,681.635 654.885,683.186 658.529,685.646 
		660.549,689.367 660.549,693.367 659.714,697.131 657.437,699.498 654.247,701.229 650.875,703.142 	"/>
	<polygon fill="#00FF00" stroke="#800080" points="638.418,680.347 635.358,681.979 633.115,683.203 631.075,685.65 
		629.852,688.914 629.444,693.401 625.161,690.546 622.306,684.835 621.897,680.756 623.529,678.512 627.088,676.311 
		629.647,674.433 632.571,673.127 637.194,670.557 642.293,668.314 651.675,664.643 656.774,666.274 660.854,669.742 
		661.669,674.636 662.077,680.756 660.854,686.058 655.958,683.611 651.879,680.552 646.78,679.532 642.293,679.532 	"/>
	<polygon fill="#00FF00" stroke="#800080" points="598.238,681.571 607.009,677.085 615.167,675.453 618.227,674.636 
		622.713,674.841 626.792,675.861 621.693,679.532 621.489,684.019 623.733,688.506 613.739,688.506 607.009,687.894 
		599.054,686.671 597.015,684.222 	"/>
	<polygon fill="#00FF00" stroke="#800080" points="646.373,658.116 654.123,654.445 661.669,652.609 668.195,652.406 
		668.604,654.649 669.216,658.728 671.867,660.767 670.235,665.663 661.669,674.229 660.649,669.742 655.958,665.459 
		651.063,664.643 643.925,666.682 644.129,662.195 	"/>
	<polygon fill="#00FF00" stroke="#800080" points="679,660 675,660 671,660 669,658 669,654 671,651 672,649 674,647 676,644 
		677,642 678,639 679,636 681,634 684,632 686,630 688,629 691,627 695,627 698,628 701,629 703.528,631.664 704.248,634.802 
		705.021,639.066 704.3,643.076 701.719,645.976 699.719,647.976 697.926,651.094 695.742,653.285 694.173,654.898 692.168,656.183 
		688.949,657.181 685.949,658.181 682.967,659.371 680.91,660.141 	"/>
	<polygon fill="#00FF00" stroke="#800080" points="658,445 654,445 650,445 647,444 643,444 639,444 635,444 631,445 628,445 
		625,444 622,443 619,442 617,440 615,438 614,435 616,433 618,431 621,429 624,428 627,427 631,427 635,427 639,427 642,428 
		645,429 648,430 651,431 654,432 657,433 660,434 662,436 663,439 662,442 660,444 	"/>
	<polygon fill="#00FF00" stroke="#800080" points="636,544 632,544 629,543 626,542 623,541 621,539 619,537 617,535 617,531 
		618,528 620,526 622,524 624,522 626,520 628,518 631,516 634,517 637,518 638,521 638,525 639,528 640,531 641,534 641,538 
		640,541 638,543 	"/>
	<polygon fill="#00FF00" stroke="#800080" points="648,558 644,558 642,556 640,554 638,552 638,548 639,545 641,543 645,542 
		648,543 649,546 650,549 651,552 650,555 649,557 	"/>
	<polygon fill="#00FF00" stroke="#800080" points="655,200 651,200 648,199 646,197 644,195 642,193 641,190 640,187 642,184 
		644,183 648,182 651,183 652,186 654,188 656,190 658,192 658,196 657,199 	"/>
	<polygon fill="#00FF00" stroke="#800080" points="674,224 670,224 667,223 665,221 666,218 665,215 663,213 662,210 661,207 
		664,205 667,206 670,207 672,209 674,211 676,213 678,215 678,219 677,222 675,223 	"/>
	<polygon fill="#00FF00" stroke="#800080" points="691,151 687,151 685,149 683,147 682,144 680,142 679,139 678,136 677,133 
		675,131 672,130 669,129 668,126 667,123 667,121 669,118 672,117 676,117 678,119 679,122 681,124 683,126 685,128 686,131 
		688,133 690,135 692,137 693,140 693,144 693,147 692,150 	"/>
	<polygon fill="#00FF00" stroke="#800080" points="698.93,615.677 694.916,615.965 691.477,615.031 688.681,612.094 
		686.889,608.938 686,606 683.879,603.135 682.283,601.218 680.283,599.218 678.79,596.539 678,594 679,590 681,588 685,588 
		688,589 691,590 694,591 698,591 701.94,590.303 706.886,590.949 709.251,593.459 708.218,597.857 706.886,601.844 
		705.573,604.429 704.573,606.429 703.087,608.938 701.797,611.593 700.865,614.173 	"/>
	<polygon fill="#00FF00" stroke="#800080" points="714,617 710,617 708,615 707,612 707,608 708,604 710,602 714,602 717,601 
		720,600 723,599 726,599 729,599 733,599 735,601 737,603 737,607 735,609 733,610 731,612 728,613 725,614 721,615 718,616 
		715,616 	"/>
	<polygon fill="#00FF00" stroke="#800080" points="729.484,881.655 726.097,880.978 722.166,879.893 718.777,877.454 717,875.237 
		716.085,871.747 715.117,867.559 715.795,864.716 719.726,861.463 724.47,862.005 730.976,864.173 734.635,868.373 737,874 
		736,877 733.957,879.623 731.382,880.978 	"/>
	<polygon fill="#00FF00" stroke="#800080" points="725.542,906.355 721.353,906.459 718.642,904.561 717,901 717,897 717,893 
		716.744,889.516 714.44,887.215 711.322,886.948 707.935,886.131 705,885 703,883 701,881 699.396,878.134 699,875 699,871 
		700,868 701,865 704,863 707,862 710,863 711,866 711,870 712,873 714,875 716,877 718.458,878.544 721.896,879.893 
		724.741,880.302 727.187,881.544 728.129,883.01 729,886 729,890 729,894 730.22,899.084 730.22,903.084 728.542,905.355 	"/>
	<polygon fill="#00FF00" stroke="#800080" points="730,764.625 726,764.625 722.116,764.276 718.116,764.276 714.724,764.618 
		710.535,763.856 708,761 707.413,759.28 707.205,756.58 709.205,753.58 710.314,752.088 712.751,751.273 714.84,751.041 
		717.509,750.463 721,751 725,751 729,751 732,751 735,751 738,752 741,753 744,754 745.823,755.219 747.563,758.584 
		746.867,760.44 744.083,761.369 740.949,762.299 737.584,763.459 733.522,764.269 	"/>
	<polygon fill="#00FF00" stroke="#800080" points="727.257,750.344 724,750 720,750 717,749 716,746 717,743 718,740 719,737 
		720,734 722,731 725,730 728.185,730.037 732,731 734,733 736,735 737.816,737.695 738.277,741.347 738.28,745.588 737.7,749.996 
		734,750 730,750 	"/>
	<polygon fill="#00FF00" stroke="#800080" points="737,520 734,519 731,518 729,516 727,514 726,511 724,509 722,507 720,505 
		719,502 717,500 716,497 714,495 713,492 712,489 710,487 709,484 707,482 709,479 711,477 714,476 718,476 722,476 725,477 
		727,479 727,482 725,485 726,488 727,491 729,493 731,495 733,497 735,499 737,501 738,504 738,508 737,511 738,514 738,516 
		738,519 	"/>
	<polygon fill="#00FF00" stroke="#800080" points="750,556 747,555 745,553 743,551 742,548 741,545 740,542 739,539 738,536 
		737,533 736,530 736,526 737,523 739,520 742,521 746,521 749,522 751,524 753,526 755,528 757,530 759,532 761,534 763,536 
		765,538 767,540 769,542 771,544 773,546 774,549 774,552 772,554 769,555 765,555 763,553 760,552 757,552 755,553 752,555 	"/>
	<polygon fill="#00FF00" stroke="#800080" points="747,295 744,294 743,292.166 742.167,289.833 741.167,286.833 741,284.666 
		743,281 745,279 748,277 752,277 756,277 758,279 760,281 761,284 760,287 758,288 755,289 753,292 751,294 	"/>
	<polygon fill="#00FF00" stroke="#800080" points="735.667,316.333 736.333,313.5 738.5,310.833 741.667,309.166 745.167,308.667 
		747.833,310.5 749.167,312.667 750.167,315.667 749.167,318.667 746.833,321.333 743.667,321.333 739,320 737.167,318.833 	"/>
	<polygon fill="#00FF00" stroke="#800080" points="813,50 809,50 806,49 804,47 801,46 799,44 797,42 795,40 794,37 794,33 795,30 
		796,27 798,24 799,22 801,20 804,18 806,18 808,20 810,22 812,24 814,26 816,28 818,30 819,33 820,36 820,40 820,43 818,46 817,48 
		814,49 	"/>
	<polygon fill="#00FF00" stroke="#800080" points="815.475,684.601 811.78,685.051 807.639,685.161 803.608,685.385 
		798.794,684.825 795.66,683.482 792.189,681.243 790.511,678.334 790,675 791,672 793,669 795,668 799,667 803.048,667.026 
		806.295,667.25 810,668 813.459,669.041 816.258,670.385 818,672 820,674 821.296,677.997 819.393,682.026 	"/>
	<polygon fill="#00FF00" stroke="#800080" points="829.915,678.108 825.112,678.567 822.112,677.567 820,674 818.161,671.28 
		818.272,669.265 820.176,667.924 823,666 827,666 831,666 833,668 834.841,670.944 835.064,674.19 833.273,676.317 	"/>
	<polygon fill="#00FF00" stroke="#800080" points="925.031,769.888 920.851,771.142 915.834,768.993 913.087,765.174 
		909.803,760.512 909.324,753.469 910.698,749.405 913.804,744.927 918.044,741.344 922.403,740.629 926.285,742.895 
		929.032,746.658 927.838,751.379 928.688,755.122 928.853,758.545 927.838,763.618 	"/>
	<polygon fill="#00FF00" stroke="#800080" points="903.592,767.858 900.785,769.47 898.157,769.411 895.888,766.604 
		894.454,763.319 896.067,757.706 897.799,753.943 899.232,752.094 902.039,751.077 904.606,750.241 907.093,752.265 
		908.093,755.265 907.115,762.245 905.682,766.246 	"/>
	<polygon fill="#00FF00" stroke="#800080" points="935.959,762.965 934.466,762.066 931.975,760.514 930.286,757.945 
		928.674,755.317 928.076,751.677 929.33,746.957 934.287,743.675 940.558,744.269 946.111,745.762 951.068,748.389 
		953.099,750.599 952.979,753.943 951.188,757.288 944.977,761.528 940.498,763.383 	"/>
	<polygon fill="#00FF00" stroke="#800080" points="952.083,742.177 948.321,742.954 943.782,741.464 942.229,740.565 
		942.349,737.698 945.335,735.489 948.44,734.951 952.501,735.787 956.801,735.19 959.906,733.219 962.773,730.651 967.491,731.368 
		970.896,734.653 970.238,737.519 963.968,740.207 957.04,741.401 	"/>
	<polygon fill="#00FF00" stroke="#800080" points="835,389 831,389 827,389 825,387 822,386 821,383 820,380 821,376 822,374 
		825,372 829,372 832,373 834,375 836,377 837,380 837,384 837,387 	"/>
	<polygon fill="#00FF00" stroke="#800080" points="885,835 881,835 879,833 877,831 876,828 875,825 874,822 873,819 872,816 
		871,813 870,810 869,807 868,804 866,802 865,799 863,797 862,794 860,792 859,789 861,786 864,787 866,789 867,792 869,794 
		871,796 873,798 874,801 876,803 878,805 880,807 881,810 883,812 884,815 886,817 887,820 888,823 890,825 889,828 889,831 
		887,833 	"/>
	<polygon fill="#00FF00" stroke="#800080" points="875,565 871,565 868,564 865.514,562.7 864,560 864,556 866,553 869,552 871,552 
		875,552 877,554 878,557 878,561 877,563 	"/>
	<polygon fill="#00FF00" stroke="#800080" points="887,314 884,313 883.258,310.339 883.649,308.729 883.432,306.076 
		881.706,302.693 880,299 882,296 885,295 889,295 891,297 893,299 893,303 893,307 892.653,310.208 891,312 889.479,313.166 	"/>
	<polygon fill="#00FF00" stroke="#800080" points="884,323 881,322 878,321 875,320 873,318 871,316 872,312 873,309 875,308 
		878,308 881,309 883,311 885,313 886,316 886,320 885,322 	"/>
	<polygon fill="#00FF00" stroke="#800080" points="921.125,319 917.688,320.562 914.625,320.5 912.188,319.812 908.188,316.75 
		906.375,313.75 907.438,310.937 910.75,308.562 913.875,307.437 916.875,307.437 920.063,307.75 922.563,309.562 924.25,312 
		925.5,314.875 924.063,317.375 922.313,318.625 	"/>
	<polygon fill="#00FF00" stroke="#800080" points="921.938,318.937 918.5,320.5 915.438,320.437 913,319.75 909,316.687 
		907.188,313.687 908.25,310.875 911.563,308.5 914.688,307.375 917.688,307.375 920.875,307.687 923.375,309.5 925.063,311.937 
		926.313,314.812 924.875,317.312 923.125,318.562 	"/>
	<polygon fill="#00FF00" stroke="#800080" points="907.181,309.274 904.633,311.609 899.963,310.76 896.142,308 895.08,302.693 
		896.991,297.385 898.052,292.927 901,290 905.271,290.38 907,292 910,293 912,295 914.61,297.598 916.097,300.145 917.795,303.754 
		918.432,306.726 912,307 909.94,307.788 	"/>
	<polygon fill="#00FF00" stroke="#800080" points="943,62 939.5,63 935.834,63 933,62.166 929.834,60.666 926.834,58.5 
		924.167,56.666 922.5,54.666 922,51 923,48 926,46 929,45 932,46 934.5,47.333 936.834,48.667 939.834,50.333 941.667,52.5 
		943.889,54.525 944.889,57.525 944.76,60.305 	"/>
	<polygon fill="#00FF00" stroke="#800080" points="986,189.5 982.667,186.333 981.167,183 981,178.5 981.834,174.666 983,171 
		985,168 987.167,166.666 990,165 994,165.166 996,167 998.834,169.833 1000.667,172 1002.167,174.166 1003.5,176.833 
		1003.5,180.666 1000.479,182.365 996.905,183.936 993.921,185.86 991.486,187.391 989.288,188.844 	"/>
	<polygon fill="#00FF00" stroke="#800080" points="957.051,138.511 955.12,137.354 953.576,136.582 951.801,135.115 
		951.955,132.027 954.349,129.557 957.338,126.813 959.505,125.479 962.338,123.813 966.338,123.979 968.338,125.813 
		971.172,128.646 973.005,130.813 980.44,141.059 981.753,145.845 981.83,147.852 979.206,148.547 974.883,146.617 967.703,143.606 
		964.461,142.217 960.91,141.059 	"/>
	<polyline fill="#00FF00" stroke="#800080" points="206.652,219.074 210.328,224.128 210.672,227.459 	"/>
	<polygon fill="#00FF00" stroke="#800080" points="983.5,208.125 980.153,207.432 977.43,205.179 976.565,201.802 978,199 
		980.257,196.932 982.06,195.118 985.041,192.55 987.324,190.729 989.602,189.197 991.958,187.705 994.944,185.942 997.809,184.564 
		1000.243,183.346 1002.649,182.471 1005.271,182.247 1006.644,182.286 1008,183 1009,186 1008.943,188.829 1007,192 
		1005.74,194.146 1004.013,196.109 1002.129,198.336 1000.147,200.111 998.617,201.368 996.541,203.446 993.22,204.996 
		990.119,206.546 986.5,207.625 	"/>
	<polygon fill="#00FF00" stroke="#800080" points="987.75,626.875 985,627 981,627 978,626 974,626 971,625 968.5,622.875 
		967.625,619.625 968.125,618.5 969.125,615.5 972.25,613.875 973.5,613.75 976.625,613.25 979,613.875 982.125,615.125 
		985,617.125 987.5,619.625 988.625,622.625 988.875,625.5 	"/>
	<polygon fill="#00FF00" stroke="#800080" points="1013,344 1009,344 1006,343 1003,342 1002,339 1000,337 998,335 996,333 996,329 
		998,326 1000,324 1004,324 1007,325 1008,328 1009,331 1011,333 1014,334 1017,335 1018,338 1017,341 1015,343 	"/>
	<polygon fill="#00FF00" stroke="#800080" points="1040,357 1037,356 1034,355 1033,352 1032,349 1031,346 1030,343 1029,340 
		1031,337 1034,336 1037,337 1039,339 1041,341 1043,343 1045,345 1047,347 1048,350 1047,353 1045,355 1043,356 	"/>
	<polygon fill="#00FF00" stroke="#800080" points="1144.374,359.492 1139.254,358.567 1135.381,356.433 1132.231,353.114 
		1130.274,350.05 1130.359,347.582 1132.146,344.093 1135.466,341.454 1138.445,338.815 1141.509,336.262 1145.084,334.56 
		1148.009,335.377 1150.009,337.377 1151.243,339.377 1153.243,341.377 1158.021,346.05 1157.766,348.774 1154.021,352.604 
		1151.723,354.817 1148.434,356.207 	"/>
	<polygon fill="#00FF00" stroke="#800080" points="1043.625,638.5 1042.052,638.964 1039.649,639.006 1036.033,638.812 
		1033.825,637.008 1032.371,634.247 1031,631 1030,628 1029,625 1030,621 1031,619 1034,617 1038,617 1041,618 1043,620 1044,623 
		1045,626 1045,630 1045,634 1044.459,636.454 	"/>
	<polygon fill="#00FF00" stroke="#800080" points="1111,235 1107,235 1103,235 1100,234 1098,232 1095.034,228.276 
		1092.339,224.356 1091.726,220.067 1092.828,216.146 1096.137,214.677 1100.058,214.677 1104,217 1107,218 1110,219 1112,221 
		1115,222 1117,224 1117,228 1116,231 1115,233 1112,234 	"/>
	<polygon fill="#00FF00" stroke="#800080" points="1058,662 1055,661 1053,659 1052.875,656.25 1054.375,654.125 1055.125,650.375 
		1056.125,647.375 1057.625,644.25 1059.875,643.25 1061.875,643 1064.875,644 1066.25,645.375 1067.25,648.375 1067.125,650.5 
		1067,654 1066.5,656.5 1064.5,659.5 1062.625,660.375 1059.875,661.125 	"/>
	<polygon fill="#00FF00" stroke="#800080" points="1092.418,23.945 1090,25 1087,24 1084.707,22.561 1082.703,21.19 1080,19 
		1077.642,17.815 1075.216,15.917 1072.262,14.527 1069.521,13.913 1067,12 1065,10 1065,6 1066,3 1068,0 1071.841,0 
		1074.794,1.153 1077,3 1080,4 1082.387,5.371 1085,7 1086.816,8.534 1089,11 1091,13 1091.668,14.335 1092.782,16.153 
		1093.146,19.292 1093.146,20.874 	"/>
	<polygon fill="#00FF00" stroke="#800080" points="1108.333,32.583 1106.5,37.166 1104.083,39.5 1101.333,39 1099.667,37.333 
		1097,34.083 1095,32.083 1092,26.583 1093.777,22.033 1094.094,15.811 1097.417,17.333 1103.834,20.5 1106.584,23.833 
		1107.833,26.833 1108.417,29.5 	"/>
	<polygon fill="#00FF00" stroke="#800080" points="1086,647 1082,647 1077.954,646.316 1075.376,645.286 1073.072,643.721 
		1071.072,641.721 1068.674,639.511 1066.921,636.83 1066.096,633.943 1066,631 1067,628 1069,626 1071,624 1074.139,622.6 
		1078,622 1081.46,621.569 1085,621 1088.368,620.332 1092,620 1095.07,619.922 1098.062,621.053 1100.433,623.84 1101.154,628.065 
		1101.464,631.778 1100.825,634.896 1099,638 1097.647,640.027 1095.722,642 1093.722,644 1090.824,645.619 1087.824,646.619 	"/>
	<polygon fill="#00FF00" stroke="#800080" points="974.136,632.378 969.03,628.921 966.673,625.228 967.773,623.186 
		970.365,624.993 974.843,626.721 981.678,627.586 985.522,627.761 989.455,625.228 988.041,621.301 985.605,617.058 
		980.028,613.76 976.414,613.602 972.251,614.231 968.401,616.509 966.987,619.729 965.966,621.615 966.752,613.288 
		969.973,607.868 975.157,604.961 984.427,603.389 993.697,604.725 998.096,609.439 1000.846,616.038 1002.181,620.908 
		1003.124,623.344 1002.417,626.957 999.746,630.964 994.561,633.398 982.228,635.049 	"/>
	<polygon fill="#00FF00" stroke="#800080" points="1120.063,644 1115.238,644.618 1111.238,644.618 1106.12,644.58 1101.55,643.515 
		1098.168,640.949 1100.639,636.521 1101.566,632.912 1101.464,628.272 1101.566,624.869 1099.671,620.788 1104.351,618.969 
		1109.825,618 1113.825,618 1116.725,618.579 1119.715,619.51 1122.211,621.164 1124.147,622.704 1125.592,626.863 
		1126.094,631.619 1125.281,635.12 1122.774,637.384 1121.334,640.199 1121.063,643 	"/>
	<polygon fill="#00FF00" stroke="#800080" points="1137,648 1133,648 1129,648 1126,647 1123,646 1120.849,644.257 
		1120.849,640.955 1122.396,638.067 1125.166,635.309 1126.166,632.309 1125.901,627.965 1124.87,623.735 1125.283,620.539 
		1127.448,618.682 1130,618 1133,617 1137,617 1140,618 1142,620 1144,622 1145,625 1146,628 1148,630 1150,632 1150,636 1149,639 
		1148,641 1145,643 1143.019,644.463 1141.162,645.904 1138.791,647.039 	"/>
	<polygon fill="#00FF00" stroke="#800080" points="1108,186 1104,186 1100,186 1097,185.941 1094,184.941 1090.82,183.582 
		1087.82,182.582 1085,181 1083.812,178.273 1084,176 1086,173 1088,172 1092,171 1095,172 1098,173 1100.89,173.208 1104,173 
		1108,173 1112,173 1115,174 1117,176 1116,179 1115,182 1113,183 1110,185 	"/>
	<polygon fill="#00FF00" stroke="#800080" points="1184,287 1179.104,287.31 1175.896,286.872 1172.896,285.872 1170.259,285.125 
		1167,283.666 1164.64,282.523 1161.728,281.275 1159.5,279.166 1157.376,276.353 1156,273 1155,270 1155.543,266.896 
		1157.044,264.938 1159.125,262.233 1162.663,259.944 1165.576,259.736 1169.53,261.192 1172.832,263.294 1175.208,264.711 
		1178.208,265.711 1180.248,267.123 1184.5,269.666 1190.167,276.166 1187.833,276.833 1185.833,279.5 1185.333,282.333 
		1184.333,285.166 	"/>
	<polygon fill="#00FF00" stroke="#800080" points="1199.31,294.149 1195.802,294.34 1191.5,293.333 1188.333,290.5 
		1185.833,287.666 1184.833,285.5 1185.5,282.333 1186,280.5 1188,277.5 1190.333,277.333 1192,277 1195,278 1197.667,280.166 
		1199,281.167 1201.667,283.5 1203.009,287.898 1201.732,290.832 	"/>
	<polygon fill="#00FF00" stroke="#800080" points="1218.667,309.551 1215.368,309.487 1212.201,307.654 1209.5,305.718 
		1206.667,303.717 1205.334,302.384 1202.498,300.654 1200.5,299.051 1194.398,294.786 1199.819,293.957 1201.605,291.661 
		1202.243,289.939 1203.009,286.75 1203.264,284.454 1210.834,290.551 1213.213,292.618 1215.5,294.217 1217.358,295.934 
		1219,297.384 1220.667,298.551 1224,301.717 1225,303.717 1224.5,306.717 1222,309.051 	"/>
	<polygon fill="#00FF00" stroke="#800080" points="1217.505,68.348 1212.337,68.82 1206.623,67.097 1202.944,64.671 1200.831,62.01 
		1198.248,59.819 1197.152,58.175 1195.587,55.905 1194.49,53.322 1193.864,50.034 1193.16,46.512 1194,43 1195.587,39.781 
		1198.404,37.824 1201.927,36.572 1205.84,37.198 1208.658,38.607 1211,41 1213,43 1215.468,46.121 1217.271,48.687 
		1218.271,51.687 1219.427,54.139 1220.427,57.139 1220.79,62.558 1219.505,66.348 	"/>
</g>
</svg>
