<?xml version="1.0" encoding="utf-8"?>
<!-- Generator: Adobe Illustrator 16.0.0, SVG Export Plug-In . SVG Version: 6.00 Build 0)  -->
<!DOCTYPE svg PUBLIC "-//W3C//DTD SVG 1.1//EN" "http://www.w3.org/Graphics/SVG/1.1/DTD/svg11.dtd">
<svg version="1.1" id="Layer_1" xmlns="http://www.w3.org/2000/svg" xmlns:xlink="http://www.w3.org/1999/xlink" x="0px" y="0px"
	 width="1360px" height="1024px" viewBox="0 0 1360 1024" enable-background="new 0 0 1360 1024" xml:space="preserve">
<g id="Raw_image">
	
		<image overflow="visible" enable-background="new    " width="1360" height="1024" xlink:href="Ganglioneuroma_10.jpg"  transform="matrix(1 0 0 1 2.441406e-004 -2.441406e-004)">
	</image>
</g>
<g id="Not_annotated" display="none" opacity="0.5">
	<polygon display="inline" fill="#0000FF" stroke="#800080" points="47,280 41,280 37,278 39,274 41,270 45,267 48,265 51,261 
		53,258 57,257 57,254 61,251 66,252 70,254 73,257 75,261 73,264 70,267 67,271 64,273 61,276 56,278 52,279 	"/>
	<polygon display="inline" fill="#0000FF" stroke="#800080" points="187,240 181,240 176,239 175,235 177,232 181,230 187,229 
		190,232 192,236 189,238 	"/>
	<polygon display="inline" fill="#0000FF" stroke="#800080" points="201,879 196,878 192,876 192,871 193,866 192,862 190,858 
		192,855 197,856 200,859 203,862 205,866 207,870 206,875 203,878 	"/>
	<polygon display="inline" fill="#0000FF" stroke="#800080" points="274,960 268,960 265,957 262,954 266,951 269,949 268,944 
		267,939 266,934 264,930 261,929 258,932 253,934 248,934 244,932 240,930 236,928 232,926 229,923 225,921 221,919 220,914 
		220,908 222,903 224,899 227,898 227,901 226,907 225,912 226,917 231,916 236,915 241,916 245,915 249,912 247,909 241,909 
		241,905 239,901 234,900 230,898 234,896 238,894 242,891 247,890 246,894 245,898 247,902 251,904 253,908 257,908 261,910 
		262,915 264,919 265,924 266,929 269,932 272,935 274,939 276,943 279,946 284,945 288,945 289,950 291,954 289,957 285,959 
		280,958 275,959 	"/>
	<polygon display="inline" fill="#0000FF" stroke="#800080" points="249,283 244,282 241,280 244,278 248,277 252,279 250,282 	"/>
	<polygon display="inline" fill="#0000FF" stroke="#800080" points="298,115 293,114 288,115 284,113 281,110 281,106 279,104 
		276,108 273,108 269,106 268,102 270,99 267,96 263,99 261,102 257,100 255,96 254,92 256,89 257,84 255,80 255,76 256,71 252,69 
		247,68 245,64 246,59 248,55 252,52 255,55 259,56 263,57 264,62 266,66 268,70 270,74 274,76 277,79 278,84 283,85 285,89 284,93 
		279,92 275,94 276,98 281,99 286,98 289,101 293,101 295,98 298,95 303,95 305,99 306,104 305,109 303,112 299,114 	"/>
	<polygon display="inline" fill="#0000FF" stroke="#800080" points="569,810 563,810 559,808 555,806 553,802 555,797 558,795 
		561,792 564,789 566,785 569,781 574,782 577,785 575,789 577,793 581,791 583,788 583,782 585,777 589,777 591,781 591,787 
		590,792 588,795 584,798 581,801 579,804 576,807 572,809 	"/>
	<polygon display="inline" fill="#0000FF" stroke="#800080" points="905,756 899,756 894,755 890,753 892,748 896,750 901,751 
		905,749 907,745 906,741 903,738 897,738 894,735 895,730 895,726 900,724 903,721 908,720 911,717 913,714 916,710 918,707 
		920,702 925,703 931,703 936,704 940,704 943,707 946,710 947,715 946,719 944,724 942,727 938,730 935,733 932,736 929,739 
		926,742 923,745 921,749 918,751 913,752 909,754 	"/>
	<polygon display="inline" fill="#0000FF" stroke="#800080" points="338,374 333,373 330,370 328,366 328,361 331,358 334,355 
		334,350 333,345 335,340 339,338 342,341 345,344 348,347 350,351 349,356 347,360 346,365 345,369 342,372 	"/>
	<polygon display="inline" fill="#0000FF" stroke="#800080" points="339,158 334,157 330,155 329,150 327,148 324,149 321,146 
		322,141 321,136 325,133 328,133 332,130 335,133 336,138 336,142 337,146 337,151 340,154 	"/>
	<polygon display="inline" fill="#0000FF" stroke="#800080" points="445,190 439,190 436,187 438,183 441,179 443,175 445,171 
		449,171 453,172 456,168 460,166 464,168 464,173 461,177 458,180 455,182 452,185 448,188 	"/>
</g>
<g id="Clumps" display="none" opacity="0.5">
	<polygon display="inline" fill="#FF0000" stroke="#800080" points="58,393 53,392 50,389 45,390 40,389 36,387 32,385 29,382 
		27,378 25,374 23,370 22,365 20,361 20,355 21,350 20,345 21,340 22,335 24,331 26,326 28,322 30,319 33,316 36,313 40,310 44,308 
		49,307 54,306 59,307 62,310 65,313 66,318 68,322 70,326 71,331 72,336 76,338 79,335 79,330 81,325 82,321 82,315 82,309 83,304 
		85,300 87,295 89,292 92,289 95,286 99,283 103,281 106,279 111,277 115,275 119,273 124,272 130,272 136,272 142,272 147,272 
		153,271 158,272 164,272 169,273 175,273 177,270 175,266 172,263 173,259 176,257 180,254 185,253 190,254 195,255 200,256 
		206,256 211,256 216,255 221,253 225,252 229,250 233,247 236,245 239,242 241,238 239,234 239,229 242,226 245,223 249,221 
		255,221 261,221 266,222 271,223 275,223 279,225 281,229 283,233 283,237 287,239 290,236 292,233 295,235 296,240 295,245 
		294,249 291,253 288,255 283,256 277,256 272,258 267,259 263,260 258,262 254,263 250,265 246,267 242,269 237,270 233,268 
		229,271 225,272 222,275 218,278 214,280 210,282 206,284 202,285 197,284 191,284 185,284 179,284 175,282 169,282 164,283 
		160,285 156,287 153,290 149,290 144,289 139,290 134,292 130,294 128,297 126,302 128,305 131,302 134,299 137,300 134,304 
		132,308 130,312 128,315 125,319 123,322 120,325 117,328 113,331 110,334 106,334 106,338 104,341 102,345 99,349 97,353 95,357 
		91,359 89,363 87,366 84,369 81,372 78,375 73,377 71,381 69,384 66,387 63,391 59,392 	"/>
	<polygon display="inline" fill="#FF0000" stroke="#800080" points="146,451 142,449 142,444 139,443 134,443 128,443 122,443 
		116,443 111,442 106,441 101,440 97,438 93,436 93,432 92,427 91,422 89,418 86,415 84,411 82,407 82,401 83,396 86,392 89,389 
		92,386 95,384 99,381 102,379 106,377 110,375 114,373 119,371 125,371 131,371 136,372 140,374 144,376 147,379 150,382 153,385 
		157,383 160,380 163,383 165,387 166,392 168,396 167,401 167,407 166,412 165,417 163,421 161,425 159,429 156,432 158,436 
		160,440 158,444 155,446 151,448 147,450 	"/>
	<polygon display="inline" fill="#FF0000" stroke="#800080" points="344,0 344,4 341,7 338,10 333,10 329,8 324,9 319,11 315,12 
		309,12 304,11 298,11 293,10 289,8 287,4 282,3 277,5 277,8 273,11 270,14 268,17 265,21 262,23 258,25 253,26 248,27 243,28 
		237,28 234,25 230,23 225,22 221,20 218,17 216,13 217,8 219,3 222,0 	"/>
	<polygon display="inline" fill="#FF0000" stroke="#800080" points="357,167 351,167 347,165 347,160 347,155 351,152 356,151 
		359,151 361,147 359,143 359,139 358,134 354,134 354,139 355,144 352,147 348,148 344,146 341,143 340,138 341,133 338,130 
		336,126 336,122 332,121 331,125 326,126 322,124 320,120 321,115 324,111 323,107 320,104 320,99 323,100 326,103 329,101 333,98 
		334,94 332,90 331,85 330,80 331,75 333,71 337,68 341,66 346,65 351,66 356,67 360,67 365,68 368,71 372,73 375,76 379,78 382,81 
		386,83 390,85 393,88 397,90 401,92 405,94 409,96 412,99 414,103 417,106 418,111 420,115 424,117 427,120 429,124 427,127 
		423,130 420,132 417,135 414,138 411,141 408,144 405,147 401,150 397,152 393,154 390,156 385,157 381,159 376,160 371,162 
		366,163 362,164 358,166 	"/>
	<polygon display="inline" fill="#FF0000" stroke="#800080" points="624,546 618,546 613,545 609,543 608,538 605,535 601,533 
		597,531 593,529 590,526 588,522 585,519 582,516 579,513 576,510 574,506 571,503 568,500 568,494 570,490 573,486 576,483 
		580,481 583,484 586,487 589,490 594,491 600,491 606,491 612,491 616,493 620,495 625,496 629,498 632,501 635,504 637,508 
		639,512 641,516 643,520 644,525 643,530 641,534 638,537 635,540 632,542 628,544 	"/>
	<polygon display="inline" fill="#FF0000" stroke="#800080" points="705,415 701,413 704,410 704,406 701,403 698,400 695,397 
		693,393 690,390 689,385 687,381 686,376 686,370 686,364 688,359 690,356 693,353 697,350 701,348 706,349 710,351 713,354 
		715,358 717,362 719,366 721,370 723,374 728,375 731,378 731,384 731,390 730,395 728,399 727,403 725,408 721,409 716,410 
		713,413 707,413 	"/>
	<polygon display="inline" fill="#FF0000" stroke="#800080" points="713,480 707,480 702,479 697,478 695,475 694,471 693,466 
		691,462 690,457 689,452 689,446 688,441 686,437 688,432 690,429 693,426 697,423 702,422 707,423 712,424 716,426 719,429 
		723,431 725,435 727,439 729,443 730,448 735,449 735,453 737,457 739,461 737,464 734,467 731,471 731,475 729,478 726,475 
		722,478 718,479 	"/>
	<polygon display="inline" fill="#FF0000" stroke="#800080" points="792,522 788,520 784,518 780,516 775,515 769,515 765,513 
		760,512 755,511 752,508 751,503 750,498 749,493 749,487 750,482 751,477 754,474 758,471 762,469 766,467 771,468 776,469 
		779,472 782,475 786,477 789,480 792,483 795,486 798,489 800,493 802,497 804,501 809,502 812,505 813,501 815,496 818,499 
		820,503 820,509 819,514 817,517 814,514 813,509 811,510 810,515 809,520 806,518 803,515 801,511 797,510 794,512 793,516 
		795,519 	"/>
	<polygon display="inline" fill="#FF0000" stroke="#800080" points="1228,570 1223,569 1221,565 1218,562 1216,558 1214,554 
		1213,549 1213,543 1215,539 1217,535 1220,531 1223,528 1226,526 1230,523 1233,521 1238,519 1240,516 1241,511 1239,507 1238,502 
		1239,497 1242,493 1244,490 1244,486 1242,482 1241,477 1242,472 1243,467 1242,462 1241,457 1241,451 1242,446 1244,441 1245,437 
		1248,433 1250,430 1251,424 1255,422 1259,424 1262,427 1263,432 1263,438 1265,442 1267,446 1269,450 1271,454 1273,458 1276,461 
		1281,462 1284,465 1286,469 1284,472 1280,474 1281,478 1285,480 1288,483 1292,485 1296,487 1298,491 1300,495 1301,500 1301,506 
		1300,511 1299,516 1298,521 1297,526 1294,529 1291,531 1287,534 1284,536 1280,539 1277,541 1274,544 1270,546 1266,548 1262,551 
		1258,553 1254,555 1250,556 1246,558 1242,560 1238,563 1234,565 1231,568 	"/>
	<polygon display="inline" fill="#FF0000" stroke="#800080" points="690,685 685,684 681,682 678,679 675,676 673,672 671,668 
		671,662 672,657 674,652 677,649 681,647 686,646 692,646 697,645 703,645 707,644 708,641 705,638 701,636 698,633 697,628 
		701,625 705,623 710,624 716,624 719,627 722,630 723,635 721,639 718,642 719,645 723,647 725,651 723,655 721,659 719,663 
		717,667 714,670 711,673 708,676 705,678 701,681 697,683 693,684 	"/>
	<polygon display="inline" fill="#FF0000" stroke="#800080" points="319,957 313,957 308,956 302,956 297,955 295,951 292,948 
		290,944 294,941 297,939 300,935 302,932 305,928 307,924 309,921 312,918 314,914 312,910 309,907 312,903 316,905 316,909 
		321,910 327,910 331,912 334,915 338,917 341,920 344,923 349,924 353,926 356,929 357,934 356,939 355,944 353,947 350,951 
		347,951 344,948 338,948 334,951 331,953 327,955 322,956 	"/>
	<polygon display="inline" fill="#FF0000" stroke="#800080" points="868,846 863,845 860,842 855,841 851,843 846,842 842,840 
		840,836 836,834 831,833 828,830 826,826 820,826 816,828 813,825 811,821 814,817 817,820 820,818 818,814 820,811 824,813 
		830,813 835,812 840,812 845,812 850,813 854,815 859,816 862,819 866,821 870,820 875,818 879,816 881,820 882,824 879,828 
		877,831 874,835 872,839 870,843 	"/>
</g>
<g id="Single_nuclei" opacity="0.1">
	<polygon fill="#00FF00" stroke="#800080" points="168,891 162,891 157,890 153,888 149,886 144,885 140,883 138,879 136,875 
		135,870 137,865 139,861 141,858 145,855 148,852 152,850 155,848 161,847 165,849 168,852 170,856 172,860 175,863 177,867 
		178,872 180,876 181,881 179,884 175,887 171,889 	"/>
	<polygon fill="#00FF00" stroke="#800080" points="208.413,1024 206,1020 205,1015 206,1010 209,1006 211.179,1004.429 
		215.179,1001.429 220.03,1000.132 225,1000 230,1001 234.149,1002.989 238.795,1004.422 241.833,1006.743 245.765,1008.887 
		248.982,1011.213 250.591,1014.07 252.021,1017.468 251.484,1021.757 250.77,1024 	"/>
	<polygon fill="#00FF00" stroke="#800080" points="279,917 275,915 274,910 273,905 273,899 275,895 277,890 277,885 279,880 
		280,876 283,873 286,870 289,867 293,868 295,872 296,877 294,881 295,886 297,890 296,895 295,900 293,904 292,908 289,912 
		286,914 281,916 	"/>
	<polygon fill="#00FF00" stroke="#800080" points="339,440 334,439 328,439 324,437 320,435 316,433 312,431 309,428 306,425 
		303,422 300,419 297,416 295,412 294,407 294,401 293,396 294,391 296,386 299,384 304,382 309,383 313,385 316,388 320,390 
		323,393 326,396 330,398 333,401 335,405 337,409 340,412 343,415 346,418 348,422 351,425 351,431 349,435 346,437 342,439 	"/>
	<polygon fill="#00FF00" stroke="#800080" points="332.49,734.223 328,735 323,734 319,732 315,730 312,727 310.706,724.11 
		309.152,720.219 308.893,718.145 309.152,713.477 311,709 313,705 316,702 320,700 324,698 327,696 332,694 337,693 342,692 
		348,692 353,693 354.532,695.325 354.532,699.474 353.494,703.885 349.606,710.625 345,719 343,722 340,725 338.196,728 
		335.862,731.889 	"/>
	<polygon fill="#00FF00" stroke="#800080" points="354.308,693.132 358.766,691.06 363.962,691.964 367.962,693.964 
		370.069,698.941 369.829,703.878 368.157,708.811 365.612,712.552 362.665,714.545 359.781,715.765 356.615,715.975 
		353.621,714.959 351.841,712.393 351.122,710.008 352.398,706.821 354.531,698.436 	"/>
	<polygon fill="#00FF00" stroke="#800080" points="408,454 402,454 398,452 393,451 389,449 385,447 381,445 377,443 374,440 
		371,437 370,432 369,427 370,422 369,417 372,413 377,412 382,413 386,415 390,417 394,419 398,421 400,425 405,426 409,428 
		412,431 414,435 416,439 415,444 414,448 411,452 	"/>
	<polygon fill="#00FF00" stroke="#800080" points="483.699,142.142 478.343,142.685 475.483,142.142 471.973,140.344 
		469.402,137.704 467.808,132.835 468.743,130.144 471.986,127.479 476.986,125.479 481.564,123.57 485.509,120.94 489,119 493,117 
		496,115 499,112 502,109 505,106 508,103 511,100 515,97 519,96 525,95 530,96 535.965,97.602 540.073,98.917 543,101 543,106 
		540,109 536,112 532,113 528,115 523,117 520,119 516,121 513,124 509,126 505,129 502,132 499,134 497.014,135.239 
		493.808,137.37 490.808,139.37 487.152,141.485 	"/>
	<polygon fill="#00FF00" stroke="#800080" points="605.604,940.36 601.087,940.721 596,939 592,937 588,935 585,932 582,929 
		580,925 578,921 577,916 578,910 579,906 581,902 583,898 586,894 588,891 591.868,886.687 594.942,884.157 598,882 602,880 
		606,879 610.484,879.82 614,882 618,884 621,887 624,890 626,894 627,899 628,904 628.014,908.916 628,914 627,919 
		625.845,922.108 624.036,925.544 620.783,930.059 618.615,932.77 615.183,935.481 612.541,937.553 608.541,939.553 	"/>
	<polygon fill="#00FF00" stroke="#800080" points="615.479,1024 614,1019 615,1014 617,1010 620,1007 624,1004 628,1002 633,1001 
		637.242,1002.056 640.949,1004.147 643.136,1006.716 645,1009 647,1013 648,1018 646.652,1024 	"/>
	<polygon fill="#00FF00" stroke="#800080" points="717.918,915.775 708.848,918.903 702.592,919.218 695.606,916.507 
		690.078,908.476 689.036,891.589 692.687,875.427 697.483,870.525 703.53,869.691 715.312,874.07 723.966,878.761 731.992,883.766 
		734.601,890.231 734.184,896.278 726.885,904.619 	"/>
	<polygon fill="#00FF00" stroke="#800080" points="655,483 649,483 644,482 641,479 640,474 638,470 636,466 633,463 631,459 
		629,455 628,450 625,447 624,442 624,436 623,431 621,427 620,422 622,417 625,414 629,412 635,412 639,414 643,416 646,419 
		649,422 651,426 653,430 656,433 659,436 660,441 662,445 663,450 666,453 668,457 670,461 669,466 667,470 664,473 661,476 
		659,479 656,482 	"/>
	<polygon fill="#00FF00" stroke="#800080" points="837.541,839.615 832.227,837.312 828.506,836.427 824.432,835.01 
		813.408,830.486 807.778,825.442 805.298,816.587 808.841,810.738 814.51,807.195 824.201,806.655 838.427,806.486 
		848.348,810.561 860.218,817.295 869.43,828.454 872.796,838.021 872.974,844.576 871.733,849.536 867.481,850.599 
		856.495,846.524 842.994,842.356 	"/>
	<polygon fill="#00FF00" stroke="#800080" points="782.775,559.304 771.089,558.681 758,555 754,553 750,551 748,547 745,544 
		743,540 742,535 742,529 745,525 749,523 753,521 759,521 763,523 768,524 773,525 779,525 784,526 789,527 793,529 796,532 
		798,536 797.733,542.01 796.02,551.513 791.813,556.969 788.073,558.681 	"/>
	<polygon fill="#00FF00" stroke="#800080" points="820,902 814,902 809,901 805,899 800,898 796,896 791,895 787,893 785,889 
		783,885 780,882 778,878 775,875 773,871 771,867 771,861 772,856 775,852 777,849 780,846 784,843 788,841 792,839 798,839 
		803,838 808,838 813,838 818,839 823,840 827,842 831,844 835,846 839,848 843,850 847,852 851,854 854,857 858,859 860,863 
		861,868 860,872 858,877 856,881 855,885 852,888 848,891 844,893 840,895 836,896 832,898 828,900 823,901 	"/>
	<polygon fill="#00FF00" stroke="#800080" points="1036,295 1030,295 1024,295 1020,293 1016,291 1015,286 1013,282 1011,278 
		1012,273 1014,269 1017,266 1021,263 1025,261 1029,259 1033,258 1038,256 1043,255 1048,254 1052,256 1055,259 1057,263 1057,268 
		1055,273 1053,277 1051,281 1049,285 1046,288 1043,291 1040,293 	"/>
	<polygon fill="#00FF00" stroke="#800080" points="1073,126 1067,126 1064,123 1061,120 1057,118 1054,115 1051,112 1049,108 
		1047,104 1047,98 1048,93 1051,90 1056,88 1061,89 1066,90 1070,92 1074,94 1077,97 1080,100 1083,103 1085,107 1086,112 1085,116 
		1082,120 1079,123 1075,125 	"/>
	<polygon fill="#00FF00" stroke="#800080" points="1139,179 1133,179 1128,178 1125,175 1122,172 1119,169 1117,165 1115,161 
		1113,157 1112,152 1113,147 1115,143 1118,139 1121,136 1125,134 1130,133 1135,134 1140,135 1143,138 1146,141 1148,145 1150,149 
		1152,153 1153,158 1152,163 1151,168 1149,172 1146,175 1143,177 	"/>
	<polygon fill="#00FF00" stroke="#800080" points="1208,0 1209.78,3.188 1210,8 1209,12 1206,15 1203,18 1199,21 1195,22 1190,24 
		1185,25 1180,25 1175,24 1167.744,20.687 1162.896,17.263 1159.187,14.315 1156.429,10.701 1154.24,7.753 1151.674,3.854 1152,0 	
		"/>
	<polygon fill="#00FF00" stroke="#800080" points="1259,252 1254,251 1251,248 1249,244 1247,240 1248,235 1250,231 1252,226 
		1256,224 1262,224 1266,226 1268,230 1266,234 1265,238 1263,243 1262,248 1260,251 	"/>
	<polygon fill="#00FF00" stroke="#800080" points="1287.399,55.733 1286.174,52.991 1286.99,49.258 1289.383,47.041 
		1291.832,46.691 1294.808,47.158 1297.082,49.083 1297.866,52.878 1296.966,56.783 1293.933,58.125 1290.024,57.658 	"/>
	<polygon fill="#00FF00" stroke="#800080" points="1315,230 1310,229 1305,228 1301,226 1300,223 1299,218 1302,214 1304,211 
		1306,207 1308,203 1312,200 1317,199 1321,199 1325,201 1327,205 1328,210 1327,215 1326,220 1324,224 1321,227 1317,229 	"/>
	<polygon fill="#00FF00" stroke="#800080" points="52.979,385.69 47.643,387.469 44.645,387.998 38.645,387.998 33.591,385.779 
		29.822,382.952 26.822,379.952 25.979,378.264 22.741,373.595 21.94,370.66 21,368 21,362 22,357 24,352 27,350 31,348 35,346 
		39,343 43,341 47.465,341.582 52.09,343.182 56,346 60,348 63,351 65,353 66,358 67,363 67.209,366.391 67.12,369.237 
		65.43,372.705 62.851,375.463 60.005,378.487 58.671,379.998 56.003,381.777 	"/>
	<polygon fill="#00FF00" stroke="#800080" points="20.517,356.434 19.806,350.119 20.162,344.695 21.318,339.803 22.474,334.911 
		24,329 26.579,325.245 29.49,320.711 33.914,317.089 36.704,315.079 39.046,313.245 42.046,311.245 45.953,308.942 50,307 
		55.292,307.519 58,309 61.339,312.233 63.563,314.812 66,319 66.942,324.862 67,330 67,336 66,341 65,346 64.096,350.92 61,349 
		58,346 54,344 50,342 45,341 40,343 36,345 33,347 29,349 25,351 22,354 	"/>
	<polygon fill="#00FF00" stroke="#800080" points="81,337 79,335 79,329 79,323 80,318 80,312 82,308 84,304 86,300 89,296 91,292 
		93,289 95,285 98,281 102,279 107,278 111,276 116,275 120,273 125,272 131,272 137,272 143,272 148,273 154,273 158,275 160,279 
		159,283 155,286 152,288 146,289 141,289 136,290 132,293 129,295 126,298 124,303 123,308 122,312 120,317 118,321 115,323 
		111,325 106,327 102,329 98,331 94,333 90,335 86,336 	"/>
	<polygon fill="#00FF00" stroke="#800080" points="121.04,421.601 113.685,420.681 108.503,419.511 103.237,418.174 98.807,416.837 
		93.04,415.248 88,413 85,410 84,405 84.18,399.948 85.39,396.923 87.118,394.42 89.118,390.42 92.025,387.328 96.025,384.328 
		98.513,381.42 102.513,379.42 105,377.723 109,375.723 112.092,374.328 116.092,372.328 118.064,371.509 122.905,370.299 
		130.771,370.299 136,372 139,375 142,378 145,381 147,385 146,390 145,395 144,400 143,404 140.682,408.645 138,412 
		135.915,414.167 132.157,417.171 126.557,420.012 	"/>
	<polygon fill="#00FF00" stroke="#800080" points="232,0 238,0 244,0 250,0 256,0 262,0 267.348,0 266.472,3.005 262,11 
		260.779,13.953 257.714,16.362 253,20 248,22 244,23 239,24 233,24 228,23 222.242,18.77 219.396,15.704 219.176,13.515 
		218.082,10.011 219,6 221.146,0 	"/>
	<polygon fill="#00FF00" stroke="#800080" points="303,957 299,955 297,951 297,947 298,941 298,936 300,932 303,929 306,925 
		308,922 311,919 315,916 318,913 321,910 325,912 330,913 333,916 335,920 337,924 336,929 335,934 334,939 332,943 329,946 
		327,949 324,952 319,953 315,955 310,956 304,956 	"/>
	<polygon fill="#00FF00" stroke="#800080" points="624.296,537.412 619.883,538.254 614.209,536.991 608.744,535.52 604.121,533.63 
		599,532 595,530 591.303,527.115 589,524 586,521 583,518 580.796,514.927 578,511 575.753,508.622 575.121,506.52 
		575.753,501.687 578.274,497.904 580.375,495.173 583.528,493.281 587,491 591,489 596,488 602,488 607,489 612,490 616,492 
		621,493 625.557,494.753 629,497 632,500 634.594,502.107 636.905,505.679 639,511 640,516 640,520 638,523 635,527 
		633.963,530.056 632.072,533.42 627.868,535.94 	"/>
	<polygon fill="#00FF00" stroke="#800080" points="717,641 712,640 709,637 704,636 700,634 698,630 701,627 706,625 712,625 
		717,626 720,629 722,633 721,637 718,640 	"/>
	<polygon fill="#00FF00" stroke="#800080" points="712,406 706,406 703,403 700,400 696,398 694,394 692,390 690,386 689,381 
		688,376 687,371 688,366 689,361 692,357 694,354 698,351 704,351 708,353 711,356 714,359 717,362 719,366 721,370 723,374 
		723,380 724,385 724,390 722,395 721,399 718,403 715,405 	"/>
	<polygon fill="#00FF00" stroke="#800080" points="714,463 708.17,463.969 702.026,464.106 697,462 694,459 693,454 692,449 
		691,444 690,439 690,433 692,428 694,425 700,424 705.712,423.821 710.356,425.051 714.041,426.552 717.184,427.781 721,431 
		723,435 725,439 726,444 725,449 724,454 722.781,457.278 720.051,459.6 717.455,461.784 	"/>
	<polygon fill="#00FF00" stroke="#800080" points="784,516 779.318,517.093 773.719,516.409 769.213,515.862 763.887,514.635 
		758.287,512.721 755,509 753,505 751,501 750,496 750,490 751,485 752,479 754,476 757,473 761,471 765,469 770,469 775,470 
		778.089,472.301 781.503,475.304 785,478 788,481 791,484 794,487 797,490 799,494 800,499 799.256,503.982 797.206,507.396 
		794,510 791,513 787,515 	"/>
	<polygon fill="#00FF00" stroke="#800080" points="1224.922,565.5 1220.77,563.625 1217.957,559.07 1215.948,554.515 
		1214.877,551.839 1214,548 1214.341,542.729 1215,539 1216.752,534.427 1219.564,530.942 1222.241,528.532 1225.726,525.587 
		1230.012,522.638 1233.981,520.147 1240.48,517.413 1254.457,515.222 1269.161,515.118 1283.347,518.664 1289.082,520.334 
		1293.673,523.464 1293,528 1290,530 1286,533 1283,535 1279,538 1276,540 1272,543 1268,545 1264,547 1260,548 1256,550 1252,552 
		1248,554 1244,556 1240,558 1236,560 1232,563 1228,565 	"/>
	<polygon fill="#00FF00" stroke="#800080" points="1274.881,515.541 1260.147,514.603 1247.155,513.802 1241.477,511.13 
		1237.11,505.763 1235.503,500.54 1237.646,496.256 1243.477,492.13 1247.477,490.13 1251.477,489.13 1256.477,487.13 
		1260.477,485.13 1264.477,483.13 1268.477,482.13 1273.477,480.13 1277.477,478.13 1282.477,479.13 1287.477,480.13 
		1291.477,482.13 1294.838,486.21 1297.248,490.494 1297.782,494.914 1299.123,498.801 1299.793,503.756 1300.062,508.844 
		1299.793,514.603 1298.856,520.764 1295.907,523.177 1288.407,519.291 1278.766,516.478 	"/>
	<polygon fill="#00FF00" stroke="#800080" points="1246,489 1241,488 1237,486 1236,482 1237,477 1238,472 1239,467 1240,462 
		1240,457 1241,452 1241,446 1242,441 1242,435 1245,431 1247,427 1249,424 1251,420 1256,418 1260,420 1262,424 1264,428 1266,432 
		1267,437 1270,440 1272,444 1274,448 1277,451 1282,452 1285,455 1289,457 1291,461 1292,466 1290,470 1288,473 1283,475 1279,476 
		1275,478 1270,480 1266,481 1262,483 1257,485 1253,486 1249,488 	"/>
	<polygon fill="#00FF00" stroke="#800080" points="675.173,653.986 673.073,657.397 672.417,661.465 672.417,665.794 
		673.336,669.468 675.173,673.272 677.272,676.29 680.027,678.258 683.7,679.964 686.85,679.964 689.211,677.47 689.342,673.272 
		690.092,668.635 691.574,665.726 693.286,662.703 695.226,660.307 698.192,658.196 701.729,657.112 704.693,656.217 
		705.742,653.854 704.431,650.05 701.675,647.688 698.001,647.164 694.197,647.295 691.048,647.688 687.243,648.344 683.963,649 
		680.421,650.312 677.797,651.756 	"/>
	<polygon fill="#00FF00" stroke="#800080" points="690.392,673.928 690.261,676.815 689.867,679.833 692.885,681.407 
		696.559,680.751 699.576,679.439 702.2,677.47 704.562,676.027 707.186,674.191 709.81,671.961 711.647,669.992 713.877,668.156 
		715.845,665.663 717.156,663.302 717.419,660.152 717.026,656.741 715.845,653.986 714.271,651.624 712.565,650.969 
		710.456,650.552 708.346,650.609 706.805,651.751 706.692,654.717 705.612,657.004 703.325,657.797 700.587,658.766 
		697.792,659.794 695.339,661.961 694.028,664.129 692.715,666.239 691.632,668.236 690.948,670.517 	"/>
</g>
</svg>
