<?xml version="1.0" encoding="utf-8"?>
<!-- Generator: Adobe Illustrator 16.0.0, SVG Export Plug-In . SVG Version: 6.00 Build 0)  -->
<!DOCTYPE svg PUBLIC "-//W3C//DTD SVG 1.1//EN" "http://www.w3.org/Graphics/SVG/1.1/DTD/svg11.dtd">
<svg version="1.1" id="Layer_1" xmlns="http://www.w3.org/2000/svg" xmlns:xlink="http://www.w3.org/1999/xlink" x="0px" y="0px"
	 width="550px" height="430px" viewBox="0 0 550 430" enable-background="new 0 0 550 430" xml:space="preserve">
<g id="Raw_image">
	
		<image overflow="visible" enable-background="new    " width="550" height="430" xlink:href="Ganglioneuroma_9.jpg"  transform="matrix(1 0 0 1 2.441406e-004 -2.441406e-004)">
	</image>
</g>
<g id="Not_annotated" display="none" opacity="0.5">
	<polygon display="inline" fill="#0000FF" stroke="#800080" points="124,210 119,209 121,204 125,202 127,205 125,209 	"/>
	<polygon display="inline" fill="#0000FF" stroke="#800080" points="306,342 300,342 296,340 293,337 294,332 293,327 293,323 
		296,319 298,316 301,312 304,313 307,316 312,315 316,313 320,315 321,319 319,324 318,329 317,334 315,337 311,339 307,341 	"/>
</g>
<g id="Clumps" display="none" opacity="0.5">
	<polygon display="inline" fill="#FF0000" stroke="#800080" points="48,190 43,189 44,184 48,181 49,177 53,174 57,176 59,180 
		57,184 53,186 50,188 	"/>
	<polygon display="inline" fill="#FF0000" stroke="#800080" points="156,216 152,214 150,210 155,208 159,208 160,204 162,199 
		163,195 165,190 167,186 168,182 170,178 172,174 175,170 178,168 182,169 184,173 183,178 181,182 179,186 177,189 175,194 
		175,198 174,203 172,206 169,210 166,213 162,214 157,215 	"/>
	<polygon display="inline" fill="#FF0000" stroke="#800080" points="161,25 155,25 154,20 155,15 156,10 160,7 164,6 167,3 171,4 
		173,8 172,13 170,17 167,20 164,23 	"/>
	<polygon display="inline" fill="#FF0000" stroke="#800080" points="193,272 190,269 190,263 188,259 187,254 188,249 189,243 
		190,239 191,234 192,229 193,223 198,222 200,226 201,231 200,236 199,241 200,246 199,251 198,256 197,261 196,266 195,270 	"/>
	<polygon display="inline" fill="#FF0000" stroke="#800080" points="210,64 205,63 202,60 203,55 205,51 208,47 210,44 210,38 
		212,34 213,29 216,26 219,22 218,18 216,14 218,9 220,5 223,2 227,4 229,8 230,13 231,18 230,22 228,26 226,31 224,35 222,39 
		221,44 221,49 219,53 217,57 214,61 211,63 	"/>
	<polygon display="inline" fill="#FF0000" stroke="#800080" points="216,0 216,4 214,7 212,11 211,17 209,21 205,20 204,15 207,12 
		209,8 210,3 	"/>
	<polygon display="inline" fill="#FF0000" stroke="#800080" points="223,426 219,424 217,420 216,415 217,410 219,405 221,401 
		222,397 226,394 230,392 235,393 236,398 236,404 235,409 234,413 231,416 228,419 226,424 	"/>
	<polygon display="inline" fill="#FF0000" stroke="#800080" points="248,354 243,353 240,350 240,345 242,342 243,337 245,332 
		249,330 252,333 254,337 256,341 257,345 255,349 252,352 	"/>
	<polygon display="inline" fill="#FF0000" stroke="#800080" points="269,0 271,4 272,9 273,14 273,20 273,26 275,30 276,35 274,39 
		271,41 266,40 264,36 264,30 263,25 264,20 265,15 265,9 265,3 	"/>
	<polygon display="inline" fill="#FF0000" stroke="#800080" points="337,266 332,265 330,261 331,256 334,252 337,250 340,246 
		343,244 346,241 348,237 351,233 354,230 358,232 360,236 360,242 361,247 359,250 356,254 353,252 348,254 346,257 343,260 
		340,263 	"/>
	<polygon display="inline" fill="#FF0000" stroke="#800080" points="365,251 364,248 365,243 368,239 368,234 365,231 363,227 
		362,222 361,217 364,214 370,213 374,211 371,209 366,208 363,205 363,199 365,194 366,190 368,185 370,181 372,178 374,174 
		378,171 381,174 382,179 385,177 386,172 387,167 390,164 393,161 397,160 400,163 401,168 400,173 399,178 398,183 400,187 
		402,191 402,197 402,202 400,207 397,210 393,211 391,207 391,201 391,195 391,191 388,188 385,185 383,183 383,188 383,194 
		383,200 382,204 382,209 383,213 382,219 381,224 379,228 378,233 377,237 375,242 374,246 371,249 366,250 	"/>
	<polygon display="inline" fill="#FF0000" stroke="#800080" points="499,416 495,414 495,410 496,405 497,400 499,395 499,390 
		500,384 503,381 505,385 504,390 503,395 504,400 504,406 503,411 501,415 	"/>
	<polygon display="inline" fill="#FF0000" stroke="#800080" points="284,90 279,89 278,84 278,78 277,73 275,71 274,77 274,81 
		272,85 269,83 268,78 268,72 270,67 271,63 273,59 275,55 278,52 282,51 285,54 287,58 288,63 288,69 288,75 289,80 288,85 286,88 
			"/>
	<polygon display="inline" fill="#FF0000" stroke="#800080" points="367,158 362,157 360,153 356,153 352,151 350,147 351,142 
		352,137 354,133 356,128 359,125 363,125 367,125 370,122 374,124 375,129 374,134 373,139 373,145 372,150 371,154 368,157 	"/>
	<polygon display="inline" fill="#FF0000" stroke="#800080" points="298,44 294,42 293,37 293,31 293,25 294,19 293,15 291,11 
		289,7 291,2 295,2 299,2 303,4 305,8 304,13 304,19 305,24 307,28 306,33 304,37 301,40 299,43 	"/>
	<polygon display="inline" fill="#FF0000" stroke="#800080" points="446,328 441,327 439,323 440,318 439,313 439,308 443,306 
		446,309 452,309 454,313 454,318 451,322 449,325 	"/>
</g>
<g id="Single_nuclei" opacity="0.2">
	<polygon fill="#00FF00" stroke="#800080" points="0,282.484 4,281 7,284 8.592,288.594 10.237,292.118 12.352,296.818 
		13.879,300.107 15.524,303.514 15.289,308.683 12.822,312.796 9,313 5.655,310.446 4,306 1.896,301.517 0,296.347 	"/>
	<polygon fill="#00FF00" stroke="#800080" points="16,235 11,234 9,230 9,226 12,222 15,219 18,217 22,214 26,212 30,212 32,216 
		32,221 30,225 27,229 24,232 20.231,234.25 	"/>
	<polygon fill="#00FF00" stroke="#800080" points="57,401 51,401 48,398 46,394 46,390 47.924,386.577 51,383 52.924,380.038 
		55.231,376.192 58,372 63,370 67,370 70,373 70,378 68,383 67,388 65,392 63,396 61,399 	"/>
	<polygon fill="#00FF00" stroke="#800080" points="72,358 67,357 64,354 62,350 62,345 65,342 69.269,341.192 73.693,338.885 
		78,337 81.577,336.577 84,339 85,344 84,348 81,352 79,355 75,357 	"/>
	<polygon fill="#00FF00" stroke="#800080" points="144,291 138,291 135,288 133,284 133,278 132,273 131,268 131,262 132,257 
		135,253 138,252 141,255 143,259 144,264 145,269 146,274 146,280 146,286 145,290 	"/>
	<polygon fill="#00FF00" stroke="#800080" points="145,52 140,51 137,48 135,44 135.409,38.669 139,35 144,34 147.693,36.978 
		149,41 150,46 148,50 	"/>
	<polygon fill="#00FF00" stroke="#800080" points="177,101 173,99 172,95 173,91 175,87 179,84 182,87 182,93 181,97 178,100 	"/>
	<polygon fill="#00FF00" stroke="#800080" points="202,345 197,344 192,343 190,339 192,334 195,331 198,329 202,326 205,323 
		209,321 213,323 214,328 213,333 211,336 208,340 205,343 	"/>
	<polygon fill="#00FF00" stroke="#800080" points="242,102 237,101 235,97 234,92 234,86 237,82 242,81 244.577,82.537 
		246.383,83.942 247.587,85.346 248.39,87.152 249.293,89.761 249,92 248,96 245,100 	"/>
	<polygon fill="#00FF00" stroke="#800080" points="243,57 240.062,57.453 237.353,56.751 236.249,54.443 236,52 238,48 241,44 
		244,41 248,39 250.898,38.089 253.707,38.992 254.009,42.504 253,46 250,49 247,52 245,55 	"/>
	<polygon fill="#00FF00" stroke="#800080" points="249,420 244,419 242,416 243,412 245,407 246,403 248,399 251,396 255,397 
		257,401 258,406 257,411 255,415 252,418 	"/>
	<polygon fill="#00FF00" stroke="#800080" points="256,74 251,73 248,70 247,66 249,62 251,58 253,55 256,52 261,50 264,53 263,58 
		262,63 262,68 259,72 	"/>
	<polygon fill="#00FF00" stroke="#800080" points="256,218 251,217 248.906,213.7 249,209 250,204 252,199 254,195 257,192 262,191 
		266.262,193.09 268.742,196.964 269,202 266.417,205.797 264.713,208.586 262,212 259,216 	"/>
	<polygon fill="#00FF00" stroke="#800080" points="272.995,351.698 269,351 265,349 262,346 261,341 261.284,335.586 263,331 
		266,328 269.424,324.788 272.912,322.214 277.73,321.716 281,324 283,328 284,333 283,338 282,342 280,346 277,350 	"/>
	<polygon fill="#00FF00" stroke="#800080" points="268,274 262,274 259,271 261,266 264,263 267,260 269,257 271,252 273,249 
		275,245 278.08,242.214 282,243 283,248 283,253 281,257 278,261 276,265 274,269 271,272 	"/>
	<polygon fill="#00FF00" stroke="#800080" points="311,153 306,152 304,148 305,145 309,142 312,139 316,137 317,142 315,146 
		313,150 	"/>
	<polygon fill="#00FF00" stroke="#800080" points="318,0 320,3 320,8 321,13 322,18 320,22 316,21 314,17 312,13 312,7 313,2 	"/>
	<polygon fill="#00FF00" stroke="#800080" points="356.643,348.831 353,349 349.104,347.382 344,346 339.187,344.641 335,343 
		331,341 327.062,338.329 325,335 324,330 326.895,326.452 332,325 338,325 343,326 347,328 352,329 357,330 361,332 
		363.427,336.074 363.891,339.09 363.832,343.032 362.034,345.931 360,348 	"/>
	<polygon fill="#00FF00" stroke="#800080" points="349,413 345,411 344,407 346,404 350,401 353,404 353,409 350,412 	"/>
	<polygon fill="#00FF00" stroke="#800080" points="373.45,330.445 369,330 365,328 361.592,325.922 359.025,324.699 
		356.456,323.598 355.968,320.177 357.435,317.241 358.78,315.529 361.592,314.796 366,316 371,317 375,319 377,323 376,328 	"/>
	<polygon fill="#00FF00" stroke="#800080" points="369.751,371.8 365.017,371.717 362,372 359.534,371.883 357,371 355.715,368.394 
		357.044,365.238 359.285,362.913 362.526,360.256 365.931,357.182 369,355 371.992,353.113 375.565,352.033 378,353 
		380.133,354.441 381,356 381.628,359.425 381,362 380,366 377,369 373,371 	"/>
	<polygon fill="#00FF00" stroke="#800080" points="426.235,-0.001 426.334,3.87 425.526,8.419 424,13 421.989,17.01 420,21 417,23 
		412,24 408.343,20.851 407,17 406.623,12.866 407.533,8.722 409.453,3.769 411.174,-0.001 	"/>
	<polygon fill="#00FF00" stroke="#800080" points="520.556,0 520.337,4.014 519,9 517.805,12.161 514.172,15.684 510,17 
		502.943,17.115 499.861,14.363 499.31,10.4 499.64,4.455 501.072,0 	"/>
	<polygon fill="#00FF00" stroke="#800080" points="519.634,288.219 515.574,286.558 514,283 513,278 514,273 516,269 518,265 
		521,261 524.063,258.329 528,256 532,254 536.424,252.609 540,254 542,258 542,263 539,267 536.24,270.691 534,273 531,276 
		528,280 526,283 523.323,286.374 	"/>
	<polygon fill="#00FF00" stroke="#800080" points="550,187 547.837,191.281 545.291,195.552 543.156,198.51 540.034,201.958 
		536,203 531,202 528,199 526,195 525,190 525,184 526.239,179.209 528,175 531,171 534.121,168.615 537.406,166.726 543,165 
		547,167 548.74,168.369 550,171.736 	"/>
	<polygon fill="#00FF00" stroke="#800080" points="170,198 166,196 164,192 165,187 166,182 168,178 171,174 173,171 176,168 
		180,165 184,167 186,171 186,175 184,178 181,182 179,186 177,189 174,193 172,197 	"/>
	<polygon fill="#00FF00" stroke="#800080" points="159.147,23.288 157.664,21.063 157.24,17.143 157.028,12.799 157.24,8.879 
		160.313,6.972 164,8 165,13 164,18 162.231,22.445 	"/>
	<polygon fill="#00FF00" stroke="#800080" points="272,40 267,39 265,35 266,30 270,28 274,29 274,33 274,38 	"/>
	<polygon fill="#00FF00" stroke="#800080" points="270,0 273,3 274,8 274,14 274,18 273,23 272,27 267,29 265,26 265,22 265,16 
		264,11 265,6 267,1 	"/>
	<polygon fill="#00FF00" stroke="#800080" points="284.615,88.15 282.081,88.502 279.689,86.953 278.633,85.194 278,82 278,76 
		277,71 276,66 276.422,60.436 276.24,57.465 277,55 277.788,52.469 279,51 281.589,50.427 284,51 285.671,53.312 287.078,56.057 
		288,59 288,65 289,70 289,76 288,81 287,85 286.163,87.024 	"/>
	<polygon fill="#00FF00" stroke="#800080" points="360,250 357.389,249.478 355,249 353.131,247.414 352.444,245.059 
		350.284,240.841 349,237 348.716,233.581 349.99,230.344 352.174,229.748 354.308,229.166 358.428,231.815 361.274,235.935 
		362,241 362,246 361.055,247.892 	"/>
	<polygon fill="#00FF00" stroke="#800080" points="335,267 331,265 329,261 329,255 332,251 335,248 338,246 342.045,242.312 
		344.694,239.565 349,240 351,244 351,248 349,252 347,256 345,259 342,262 339,265 	"/>
	<polygon fill="#00FF00" stroke="#800080" points="363.933,144.729 361.813,141.719 362,138 364,134 366,130 368,126 
		370.456,122.479 375,122 376,127 375,131 373,136 370.346,140.1 367.056,144.785 	"/>
	<polygon fill="#00FF00" stroke="#800080" points="358,153 353,152 351,148 350,143 352,138 353,134 355,130 357,126 360,123 
		364,124 366,128 365,132 362,136 361,141 361,147 360,151 	"/>
	<polygon fill="#00FF00" stroke="#800080" points="367,157 362,156 362,152 364,148 368,145 370.346,141.552 372.465,137.368 
		373.356,140.714 373.411,143.669 373,147 371,152 369,155 	"/>
	<polygon fill="#00FF00" stroke="#800080" points="501.853,393.539 498.94,391.282 499.065,385.872 500.938,381.044 
		502.562,378.047 505,376 507.824,377.755 508,383 507.506,387.247 505.371,391.725 	"/>
	<polygon fill="#00FF00" stroke="#800080" points="499,418 495,416 495,412 496,407 497,402 499,397 504,396 506,400 506,405 
		505,411 503,415 502.173,416.682 	"/>
	<polygon fill="#00FF00" stroke="#800080" points="97.993,40.472 97.993,43.853 97.768,47.797 99.233,50.389 103.403,51.742 
		106.671,51.742 110.615,49.6 112.194,46.107 112.757,42.05 112.419,38.669 112.531,35.288 112.194,31.456 111.292,29.202 
		109.376,28.075 106.22,27.061 103.177,27.741 100.811,29.094 98.895,31.122 97.993,33.935 98.106,38.219 	"/>
	<polygon fill="#00FF00" stroke="#800080" points="97.656,52.869 96.641,56.25 97.205,59.969 99.233,63.011 100.924,65.153 
		104.079,66.956 107.798,66.844 110.615,65.04 112.194,62.448 111.855,58.842 110.954,55.911 109.263,53.77 107.122,53.207 
		103.741,52.756 100.811,52.193 99.008,51.854 	"/>
	<polygon fill="#00FF00" stroke="#800080" points="65.649,11.739 64.072,14.219 65.424,16.697 67.678,18.726 69.143,20.529 
		70.72,22.332 72.862,23.346 75.792,22.557 77.032,19.74 76.581,17.035 75.679,14.33 74.552,11.739 73.313,9.372 71.397,8.358 
		68.692,8.583 67.115,9.935 	"/>
	<polygon fill="#00FF00" stroke="#800080" points="165.049,5.315 165.838,8.245 166.176,11.626 165.838,14.443 166.514,17.373 
		169.331,16.923 171.022,14.219 172.036,11.288 172.374,8.245 171.923,5.653 170.683,4.188 168.317,3.624 166.288,3.849 	"/>
	<polygon fill="#00FF00" stroke="#800080" points="211.594,0.094 210.279,2.254 208.588,5.917 207.555,9.204 207.367,12.586 
		209.152,14.558 212.345,13.149 214.13,10.895 215.914,8.171 217.793,6.011 219.577,4.226 220.986,2.442 221.456,0 	"/>
	<polygon fill="#00FF00" stroke="#800080" points="216.384,10.144 215.445,12.492 215.445,14.558 216.29,17.47 218.168,19.63 
		219.765,20.663 221.08,22.26 224.179,22.917 226.34,23.669 228.219,24.045 230.097,22.635 231.13,20.287 231.13,17.188 
		230.472,14.089 230.097,11.365 229.909,9.017 228.876,6.481 227.467,4.602 225.589,3.287 223.522,3.287 221.362,4.602 
		219.577,6.199 218.074,7.608 	"/>
	<polygon fill="#00FF00" stroke="#800080" points="218.45,23.387 216.102,25.453 214.735,27.312 213.383,30.21 212.476,33.081 
		211.418,37.01 210.36,41.696 211.116,43.963 213.232,43.66 217.917,40.487 220.892,39.354 223.052,37.288 224.179,34.47 
		225.401,32.216 226.152,29.962 226.34,26.862 225.964,25.265 223.522,23.763 220.704,23.199 	"/>
	<polygon fill="#00FF00" stroke="#800080" points="209.151,46.986 206.71,48.746 205.113,50.813 203.798,53.631 202.953,56.167 
		202.953,58.984 204.174,62.084 205.77,63.868 208.964,64.526 211.406,63.399 213.284,61.614 214.975,59.736 216.196,57.857 
		217.605,56.073 218.45,53.631 220.047,51.001 221.456,48.653 221.831,46.304 221.55,43.769 220.789,41.394 219.73,40.487 
		218.219,41.091 216.708,41.847 215.045,43.358 213.081,44.719 211.267,45.777 	"/>
	<polygon fill="#00FF00" stroke="#800080" points="268.498,75.834 268.217,79.001 268.147,82.168 268.85,84.631 270.117,86.742 
		272.158,86.813 274.41,85.264 276.029,82.238 276.521,79.282 276.521,75.411 276.029,72.174 275.325,69.219 275.044,67.107 
		275.184,65.066 275.396,62.602 275.255,60.561 274.129,59.365 272.44,59.647 271.032,61.195 270.047,63.306 269.132,66.473 
		268.569,69.148 268.358,71.541 268.287,73.722 	"/>
	<polygon fill="#00FF00" stroke="#800080" points="313.276,37.992 312.338,40.251 312.338,43.17 312.781,46.442 314.461,48.565 
		316.406,50.245 318.616,49.803 320.827,47.592 322.509,44.939 324.013,42.02 325.694,39.632 326.931,37.421 327.991,34.856 
		327.991,32.115 327.55,29.991 326.49,27.957 324.101,26.277 321.713,26.011 320.627,26.528 318.964,26.878 317.126,28.103 
		315.814,29.328 314.719,31.135 314.189,33.788 313.664,35.298 	"/>
	<polygon fill="#00FF00" stroke="#800080" points="290.229,3.282 289.609,6.112 289.609,8.677 290.581,11.33 291.907,13.63 
		293.234,15.487 295.18,16.018 297.656,15.664 299.426,14.072 301.37,11.595 301.637,10.004 300.487,7.615 298.01,5.405 
		296.949,3.547 295.977,1.955 294.739,0 292.439,0 	"/>
	<polygon fill="#00FF00" stroke="#800080" points="293.76,23.465 293.498,26.09 293.236,28.891 294.285,31.604 295.861,34.141 
		298.311,35.542 300.674,35.717 302.599,34.317 303.823,32.303 304.437,29.591 303.65,27.053 303.123,24.865 303.737,22.94 
		303.823,20.577 302.687,18.389 300.849,17.251 298.836,16.814 296.736,17.339 294.811,18.739 294.023,20.577 	"/>
	<polygon fill="#00FF00" stroke="#800080" points="394.494,48.344 393.485,50.972 393.585,54.005 395.506,55.42 397.932,54.409 
		399.347,52.69 400.358,50.365 400.864,47.535 399.952,45.817 398.031,45.918 395.707,47.131 	"/>
	<polygon fill="#00FF00" stroke="#800080" points="394.091,39.146 393.181,41.774 392.474,44.2 393.181,46.221 394.798,46.221 
		396.414,45.413 398.639,44.503 400.156,43.29 400.56,41.067 400.762,38.439 400.66,36.72 400.56,35.002 399.853,33.081 
		398.74,32.475 397.324,33.182 396.113,34.8 395.102,36.619 	"/>
	<polygon fill="#00FF00" stroke="#800080" points="461.407,22.973 461.813,27.32 461.913,31.363 461.106,35.81 461.913,39.552 
		463.632,42.684 466.26,43.088 469.394,40.662 471.112,37.63 472.527,33.182 472.931,29.24 472.527,25.501 471.213,22.367 
		470.505,18.829 470.303,15.898 470.303,13.27 469.09,10.137 467.17,9.227 464.743,11.047 463.328,13.776 462.319,15.797 
		461.813,19.537 	"/>
	<polygon fill="#00FF00" stroke="#800080" points="462.681,134.868 463.692,137.092 465.006,139.821 467.329,141.842 
		470.158,142.448 473.091,141.842 474.809,139.821 475.112,137.698 474.303,134.868 473.293,133.352 471.573,131.837 
		469.857,130.422 466.926,129.916 464.5,130.826 462.883,132.342 	"/>
	<polygon fill="#00FF00" stroke="#800080" points="405.986,98.992 405.683,101.923 406.288,104.449 408.665,107.287 
		410.623,107.427 412.021,105.33 413.839,103.023 415.937,101.135 416.704,98.269 416.194,96.061 414.779,94.545 413.464,93.433 
		411.24,93.332 409.523,94.344 407.401,95.656 406.592,97.173 	"/>
	<polygon fill="#00FF00" stroke="#800080" points="395.678,115.667 394.566,118.901 394.868,121.832 397.194,123.954 
		399.822,124.257 402.245,124.56 404.268,124.965 406.288,125.874 408.513,126.278 410.433,125.571 411.444,123.651 
		411.544,121.225 410.837,118.8 408.715,116.981 407.198,115.566 405.279,114.454 402.752,114.151 400.024,114.151 397.598,114.858 
			"/>
	<polygon fill="#00FF00" stroke="#800080" points="396.032,127.733 394.106,129.867 392.592,132.207 391.344,134.178 
		389.493,137.715 388.049,140.33 386.74,142.877 385.415,145.516 384.46,148.511 384.561,151.24 385.572,153.666 387.996,154.575 
		390.322,154.07 392.848,153.363 394.868,151.645 396.788,149.32 398.203,146.187 399.822,143.762 401.135,141.437 402.651,139.113 
		403.965,136.688 405.58,134.363 406.49,132.241 407.3,129.31 406.694,127.693 404.613,126.126 401.835,125.499 398.168,126.15 	"/>
	<polygon fill="#00FF00" stroke="#800080" points="385.893,167.844 384.817,170.779 383.936,174.008 384.132,177.824 
		384.326,181.152 384.425,183.794 385.306,186.24 386.577,188.393 388.731,189.568 391.079,189.959 393.329,188.981 
		395.287,187.121 397.049,185.066 398.419,182.522 399.692,180.271 400.964,177.335 401.649,173.812 402.237,171.17 
		402.921,168.038 402.726,165.298 402.334,162.754 401.158,160.894 399.887,159.622 397.637,159.328 395.484,159.916 
		392.742,161.188 390.689,162.656 388.927,164.026 387.459,165.885 	"/>
	<polygon fill="#00FF00" stroke="#800080" points="393.036,191.329 391.765,193.189 390.689,196.516 390.785,200.529 
		391.276,204.052 392.156,207.379 393.527,210.119 395.386,211.195 397.735,210.412 400.181,207.966 402.039,205.519 
		403.215,202.779 403.606,198.865 403.606,195.537 403.313,192.993 403.115,190.742 401.649,188.785 399.692,187.806 
		397.93,187.611 396.168,188.393 394.603,189.763 	"/>
	<polygon fill="#00FF00" stroke="#800080" points="361.916,214.523 360.741,216.969 360.645,219.807 361.428,223.135 
		362.406,225.678 363.483,229.104 365.147,232.823 367.299,235.269 370.038,235.954 372.682,235.954 375.716,234.584 
		377.867,232.334 380.217,229.202 381.392,226.853 382.762,224.113 383.447,220.885 383.74,218.241 384.032,214.523 
		383.153,211.391 382.075,209.63 378.945,209.727 375.422,210.902 373.365,212.469 370.431,212.565 367.787,212.761 
		365.929,212.272 363.579,212.565 	"/>
	<polygon fill="#00FF00" stroke="#800080" points="425.196,226.026 423.615,228.72 423.243,231.6 423.707,234.48 426.123,236.246 
		429.469,236.524 432.161,236.524 434.577,236.153 437.273,235.41 438.109,233.552 438.665,231.043 438.665,228.535 
		437.551,225.841 435.972,223.518 433.185,222.775 430.582,222.775 427.889,223.611 	"/>
	<polygon fill="#00FF00" stroke="#800080" points="423.802,237.825 422.687,240.241 421.572,243.306 420.921,246.372 
		419.807,249.344 419.435,252.132 419.62,255.291 421.108,257.613 423.152,259.007 425.658,258.821 427.889,257.52 429.84,255.662 
		431.977,253.619 433.369,251.388 434.486,248.881 435.229,246.186 435.972,243.771 436.343,241.448 435.972,239.219 
		435.043,237.732 432.998,237.267 430.118,237.36 427.611,237.175 425.752,236.989 	"/>
	<polygon fill="#00FF00" stroke="#800080" points="297.7,255.654 296.721,258.5 295.936,261.737 295.643,264.876 296.525,268.114 
		297.8,269.977 299.86,272.038 301.626,273.313 303.588,273.411 306.039,271.645 307.707,268.898 309.573,265.563 311.437,262.62 
		313.104,259.775 314.968,256.929 316.93,254.281 318.304,251.927 318.892,249.473 318.99,246.825 317.813,244.568 316.536,242.802 
		314.968,241.233 313.3,240.35 310.748,240.35 308.297,241.822 305.648,243.98 303.588,245.942 301.626,248.1 300.056,250.651 
		298.781,252.809 	"/>
	<polygon fill="#00FF00" stroke="#800080" points="210.57,223.738 209.538,225.896 208.506,229.086 208.318,231.618 
		208.694,234.245 209.725,236.965 211.508,239.029 213.853,240.154 217.23,238.559 219.575,235.84 221.451,233.213 222.671,231.055 
		223.984,228.616 224.12,226.599 223.763,224.933 222.217,223.385 219.479,221.719 216.742,220.53 213.767,220.411 211.508,221.112 
			"/>
	<polygon fill="#00FF00" stroke="#800080" points="206.63,200.474 206.63,204.133 206.63,207.979 207.662,210.136 209.913,211.449 
		212.577,211.604 215.433,210.176 217.813,209.224 220.193,208.153 222.335,206.844 223.168,204.464 222.858,201.694 
		221.076,199.067 219.012,197.285 217.323,195.878 214.791,195.221 212.352,195.409 209.725,196.347 207.474,197.848 	"/>
	<polygon fill="#00FF00" stroke="#800080" points="190.777,265.01 190.026,268.386 190.402,271.388 191.058,273.922 
		193.309,275.329 195.748,273.077 196.499,269.981 196.968,267.636 197.531,265.01 197.624,262.946 196.405,260.789 
		193.872,260.976 191.715,262.571 	"/>
	<polygon fill="#00FF00" stroke="#800080" points="191.058,234.336 189.932,237.713 189.182,240.62 189.276,243.153 
		190.683,244.935 193.122,244.56 196.03,243.059 198,240.432 199.125,237.619 200.907,234.711 202.315,231.709 202.408,228.519 
		201.658,225.611 200.439,223.829 199.031,222.515 197.249,222.328 194.717,223.829 193.497,226.643 192.841,229.269 
		191.902,231.99 	"/>
	<polygon fill="#00FF00" stroke="#800080" points="189.651,246.999 188.338,249.157 187.681,251.408 186.837,254.035 187.4,256.192 
		187.963,258.349 189.088,259.85 191.152,260.413 193.122,259.85 196.124,258.913 197.437,257.599 199.219,256.192 200.439,253.753 
		201.002,251.127 201.47,248.406 201.095,246.155 200.251,244.185 198.938,243.341 196.968,243.809 195.185,244.935 193.216,245.78 
		191.34,246.436 	"/>
	<polygon fill="#00FF00" stroke="#800080" points="520.212,338.277 519.13,340.982 518.372,344.337 519.023,347.366 
		520.104,350.287 521.944,352.018 524.323,352.775 527.137,351.693 528.976,349.53 530.49,347.69 531.14,344.445 531.357,341.091 
		531.031,338.061 530.382,335.14 529.084,333.842 526.488,333.085 523.998,334.058 521.835,335.897 	"/>
	<polygon fill="#00FF00" stroke="#800080" points="481.263,358.401 480.829,360.998 481.155,364.028 482.451,366.624 
		484.074,368.572 485.807,370.628 488.404,371.926 490.892,372.034 493.597,370.736 495.003,369.22 496.408,366.949 
		497.059,364.352 496.408,361.864 493.921,360.565 491.433,358.942 490.241,357.427 487.971,356.238 485.483,355.697 
		482.992,356.779 	"/>
	<polygon fill="#00FF00" stroke="#800080" points="495.977,305.496 494.354,307.876 493.704,310.364 494.679,312.636 
		497.166,312.745 499.33,311.338 501.387,310.148 502.902,308.094 502.575,305.712 500.738,304.414 498.031,304.521 	"/>
	<polygon fill="#00FF00" stroke="#800080" points="445.449,316.216 443.719,318.812 442.313,321.843 441.555,325.52 
		442.744,328.224 445.126,328.765 447.615,327.9 449.021,325.303 450.86,323.031 452.483,320.434 454.43,317.839 455.078,315.349 
		454.647,312.645 452.591,311.779 450.427,311.455 447.939,312.645 446.424,314.16 	"/>
	<polygon fill="#00FF00" stroke="#800080" points="417.277,284.6 415.799,287.703 415.576,290.657 415.576,293.98 416.612,297.01 
		418.311,299.889 419.98,302.768 421.707,305.354 423.776,306.61 426.361,306.536 428.724,306.241 431.088,305.798 433.051,304.329 
		435.002,302.964 436.367,301.89 437.245,300.33 437.537,298.476 437.144,295.605 436.406,293.02 435.815,290.361 435.297,288.219 
		434.486,286.3 433.156,284.157 432.12,282.163 430.718,280.686 429.24,279.43 427.541,278.84 425.106,279.135 422.816,279.726 
		420.896,280.834 418.902,282.533 	"/>
	<polygon fill="#00FF00" stroke="#800080" points="241.684,344.887 244.093,343.143 245.92,341.15 248.245,339.572 250.156,337.828 
		251.983,336.001 253.893,334.921 255.969,334.755 257.298,336.001 257.547,337.994 257.049,339.738 256.135,341.648 
		254.391,343.392 252.896,345.136 251.069,347.13 249.075,348.293 246.833,349.705 244.508,350.701 242.099,350.535 
		240.853,348.957 240.936,346.466 	"/>
	<polygon fill="#00FF00" stroke="#800080" points="297.189,330.614 296.016,333.814 296.441,336.693 298.681,339.146 
		302.627,340.106 307.321,339.36 310.412,336.8 313.4,334.56 315.639,332.427 318.198,329.335 318.838,326.455 318.732,323.469 
		316.919,321.229 313.719,319.844 310.307,319.949 308.067,320.055 305.408,322.075 302.99,324.496 300.775,326.67 298.723,328.392 
			"/>
	<polygon fill="#00FF00" stroke="#800080" points="293.563,322.615 292.922,325.601 293.882,327.734 296.335,327.628 
		298.573,326.668 300.493,324.749 302.627,323.042 304.654,321.336 306.254,319.736 307,317.923 306.573,316.429 304.441,315.15 
		301.561,315.257 298.573,316.963 296.548,318.883 294.842,320.802 	"/>
	<polygon fill="#00FF00" stroke="#800080" points="217.92,406.17 216.543,408.605 215.378,411.994 215.06,415.065 216.649,417.714 
		219.191,418.772 222.368,419.091 224.804,419.408 227.134,419.725 229.781,418.137 231.794,415.701 233.806,413.265 
		235.183,410.618 236.666,407.864 237.09,405.322 237.513,401.827 236.878,398.968 235.289,396.426 233.065,394.837 
		230.629,393.884 228.193,394.202 225.969,395.155 223.957,396.532 222.156,398.65 220.674,400.768 219.615,402.463 
		218.873,403.945 	"/>
	<polygon fill="#00FF00" stroke="#800080" points="3.071,254.64 4.245,259.692 3.658,264.744 3.658,268.151 6.83,269.209 
		10.707,268.739 14.701,268.386 18.461,268.386 21.515,266.976 23.865,264.274 24.688,260.397 23.748,256.168 20.341,252.174 
		17.404,249.824 14.701,247.122 11.53,245.594 8.71,244.184 5.42,245.242 3.305,246.181 2.131,249.353 2.131,252.055 	"/>
	<polygon fill="#00FF00" stroke="#800080" points="48.64,175.777 47.627,178.704 48.753,181.744 50.667,184.784 53.82,186.361 
		56.86,186.248 59.224,185.01 60.688,182.983 60.913,180.168 60.35,178.479 58.211,176.227 55.734,174.651 52.581,174.313 
		50.442,174.989 	"/>
	<polygon fill="#00FF00" stroke="#800080" points="48.094,80.682 46.547,84.188 45.516,88.312 44.898,92.745 45.207,95.942 
		46.691,98.559 50.097,99.214 53.241,99.607 56.254,98.69 58.219,96.856 59.135,94.236 59.642,91.818 60.054,88.106 59.745,84.806 
		58.92,81.713 57.992,79.548 56.961,77.486 55.621,76.145 53.868,75.836 51.496,76.558 49.95,77.898 	"/>
	<polygon fill="#00FF00" stroke="#800080" points="85.335,125.93 83.839,128.223 83.839,131.812 85.833,135.601 88.525,138.791 
		91.317,140.586 94.308,142.381 97.897,143.278 101.286,143.976 103.978,143.178 105.374,141.782 104.677,139.589 103.281,137.196 
		100.788,135.102 98.296,132.61 95.405,130.417 92.613,128.722 90.619,127.226 87.827,125.531 	"/>
	<polygon fill="#00FF00" stroke="#800080" points="91.317,119.35 89.821,121.444 88.924,123.537 90.818,125.93 93.809,128.024 
		96.7,129.819 98.894,131.613 101.286,133.806 103.38,135.7 105.773,137.196 107.867,137.396 110.06,136.099 111.755,133.906 
		113.151,132.012 114.547,129.719 116.341,127.525 117.338,125.531 117.537,123.438 117.139,121.244 116.042,118.851 
		113.948,117.057 112.154,115.063 109.861,113.368 107.368,111.773 105.175,111.573 101.885,111.773 98.993,113.069 96.302,114.963 
		94.208,116.558 92.713,117.655 	"/>
	<polygon fill="#00FF00" stroke="#800080" points="362.908,198.676 362.65,201.65 362.52,205.012 362.65,207.987 363.684,210.444 
		365.623,211.608 368.469,211.737 370.796,211.479 372.995,210.832 375.064,209.798 377.004,209.28 379.461,208.375 
		381.401,207.599 382.306,205.401 382.435,201.909 382.565,199.064 382.823,196.736 383.47,194.021 384.245,191.305 
		384.634,188.848 384.504,186.261 383.729,183.029 383.599,180.313 383.47,178.373 383.211,175.786 383.211,173.329 
		382.823,171.519 381.53,170.096 379.849,170.355 378.038,171.519 376.099,173.2 374.158,175.14 372.865,177.209 371.573,178.89 
		370.28,181.089 368.986,183.029 367.951,185.615 366.658,188.33 365.623,190.529 364.718,192.857 363.943,194.408 363.425,196.348 
			"/>
	<polygon fill="#00FF00" stroke="#800080" points="214.243,212.08 212.696,212.913 212.101,214.341 211.863,216.245 212.339,218.03 
		213.518,219.19 215.838,219.54 218.158,220.089 220.303,221.036 222.647,222.533 224.693,222.358 225.466,220.662 225.865,217.768 
		225.668,215.888 225.073,214.103 224.12,212.675 223.526,210.652 223.05,209.224 221.978,208.51 219.955,209.343 218.289,210.176 
		216.936,210.685 215.552,211.366 	"/>
</g>
</svg>
