<?xml version="1.0" encoding="utf-8"?>
<!-- Generator: Adobe Illustrator 16.0.0, SVG Export Plug-In . SVG Version: 6.00 Build 0)  -->
<!DOCTYPE svg PUBLIC "-//W3C//DTD SVG 1.1//EN" "http://www.w3.org/Graphics/SVG/1.1/DTD/svg11.dtd">
<svg version="1.1" id="Layer_1" xmlns="http://www.w3.org/2000/svg" xmlns:xlink="http://www.w3.org/1999/xlink" x="0px" y="0px"
	 width="1360px" height="1024px" viewBox="0 0 1360 1024" enable-background="new 0 0 1360 1024" xml:space="preserve">
<g id="Raw_image">
	
		<image overflow="visible" enable-background="new    " width="1360" height="1024" xlink:href="Ganglioneuroma_6.jpg"  transform="matrix(1 0 0 1 2.441406e-004 -2.441406e-004)">
	</image>
</g>
<g id="Not_annotated" display="none" opacity="0.5">
	<polygon display="inline" fill="#0000FF" stroke="#800080" points="38,943 33,942 32,937 31,932 32,927 35,924 39,925 41,929 
		41,935 39,939 	"/>
	<polygon display="inline" fill="#0000FF" stroke="#800080" points="65,971 60,970 62,965 65,963 70,961 72,965 69,967 66,970 	"/>
	<polygon display="inline" fill="#0000FF" stroke="#800080" points="996,80 991,79 987,77 987,74 991,76 993,73 989,71 984,72 
		982,68 983,63 981,59 981,55 980,50 985,48 989,50 993,52 997,54 999,58 1001,62 1003,66 1005,70 1004,74 1000,77 997,79 	"/>
	<polygon display="inline" fill="#0000FF" stroke="#800080" points="1030,926 1025,925 1025,921 1029,918 1032,921 1031,925 	"/>
</g>
<g id="Clumps" display="none" opacity="0.5">
	<polygon display="inline" fill="#FF0000" stroke="#800080" points="0,609 3,608 7,610 10,613 12,617 13,622 16,625 21,624 20,629 
		18,633 14,634 12,630 7,631 2,632 	"/>
	<polygon display="inline" fill="#FF0000" stroke="#800080" points="93,1017 87,1017 81,1017 77,1015 75,1011 76,1006 79,1002 
		82,999 87,998 92,999 96,1001 101,1000 105,1002 106,1006 103,1009 100,1012 96,1015 	"/>
	<polygon display="inline" fill="#FF0000" stroke="#800080" points="112,116 106,116 102,114 98,112 94,110 91,107 88,104 87,99 
		85,95 86,90 90,91 94,90 98,87 101,85 99,81 99,77 104,75 107,72 108,68 105,65 108,61 114,61 117,64 117,67 113,65 110,69 113,72 
		117,71 121,68 126,69 129,67 131,63 132,58 133,53 137,54 139,58 140,63 142,67 144,71 145,76 144,81 144,87 143,91 142,96 
		140,100 136,103 133,106 130,108 126,110 122,112 118,114 113,115 	"/>
	<polygon display="inline" fill="#FF0000" stroke="#800080" points="178,950 172,950 166,950 163,947 160,944 156,942 153,939 
		150,936 149,931 151,927 155,925 160,923 165,922 168,919 173,920 177,922 180,925 182,929 184,933 184,939 184,944 181,948 	"/>
	<polygon display="inline" fill="#FF0000" stroke="#800080" points="198,346 192,346 190,342 188,338 186,334 185,329 186,324 
		189,321 194,319 197,322 200,325 204,325 206,329 209,332 210,337 209,341 206,344 201,345 	"/>
	<polygon display="inline" fill="#FF0000" stroke="#800080" points="333,648 328,647 323,646 319,644 317,640 319,636 317,632 
		315,628 313,624 311,620 312,615 314,611 314,605 315,600 319,597 321,601 323,605 326,603 331,601 334,604 338,606 341,609 
		345,611 347,615 350,618 351,623 354,626 357,629 358,634 356,638 354,641 351,644 347,646 342,647 336,647 	"/>
	<polygon display="inline" fill="#FF0000" stroke="#800080" points="402,501 397,500 393,498 390,495 387,492 385,488 380,489 
		375,490 370,491 364,491 360,489 358,485 356,481 354,477 354,471 353,466 355,461 359,459 364,460 365,456 362,453 360,449 
		362,445 367,443 371,441 376,442 380,444 382,448 384,452 386,456 386,462 387,467 390,470 394,472 398,474 402,476 405,479 
		409,481 411,485 412,490 412,496 409,498 404,500 	"/>
	<polygon display="inline" fill="#FF0000" stroke="#800080" points="658,1018 652,1018 648,1016 647,1013 646,1008 645,1003 
		645,998 646,994 649,991 653,988 658,987 664,987 668,987 671,990 672,995 673,1000 672,1004 670,1009 667,1012 664,1015 660,1017 
			"/>
	<polygon display="inline" fill="#FF0000" stroke="#800080" points="814,176 808,176 803,175 799,173 795,171 792,168 791,164 
		794,161 793,157 789,155 789,151 791,146 793,142 794,138 797,134 801,136 802,141 805,144 804,149 807,152 812,151 816,151 
		821,150 826,149 830,151 834,153 837,156 837,162 834,165 831,167 827,170 823,172 819,174 815,175 	"/>
	<polygon display="inline" fill="#FF0000" stroke="#800080" points="959,807 954,806 950,804 949,799 945,797 940,796 935,795 
		930,794 926,792 922,790 919,787 917,783 917,777 921,774 925,776 925,780 929,782 933,780 936,777 939,774 940,770 940,765 
		945,764 949,764 950,768 947,772 945,776 949,778 954,779 957,777 960,773 963,770 966,769 970,771 972,775 974,779 974,785 
		973,790 972,795 970,798 967,802 964,805 960,806 	"/>
	<polygon display="inline" fill="#FF0000" stroke="#800080" points="1120,266 1115,265 1110,264 1106,262 1103,259 1102,254 
		1101,250 1100,246 1096,244 1096,238 1096,234 1095,229 1099,228 1104,227 1107,225 1111,226 1113,230 1115,234 1118,237 1122,239 
		1126,241 1129,244 1131,248 1131,254 1130,258 1127,262 1124,264 	"/>
	<polygon display="inline" fill="#FF0000" stroke="#800080" points="1156,793 1150,793 1145,792 1140,791 1137,788 1134,785 
		1132,781 1130,777 1128,773 1127,768 1130,765 1129,760 1133,757 1137,759 1141,761 1145,761 1148,759 1148,755 1147,751 1151,749 
		1153,753 1155,757 1159,759 1164,760 1169,759 1174,758 1178,758 1182,760 1184,764 1184,769 1183,775 1181,779 1179,783 1176,785 
		1171,786 1167,788 1163,790 1159,792 	"/>
	<polygon display="inline" fill="#FF0000" stroke="#800080" points="1288,735 1282,735 1279,732 1278,727 1280,723 1282,718 
		1284,715 1287,711 1290,708 1295,709 1300,709 1300,705 1298,701 1298,697 1298,691 1298,686 1302,684 1306,686 1310,685 1313,681 
		1315,678 1319,675 1322,672 1325,669 1329,667 1334,666 1336,670 1336,676 1336,681 1334,686 1332,689 1329,692 1326,696 1323,699 
		1320,702 1318,705 1315,709 1313,713 1310,716 1308,719 1304,722 1301,724 1298,728 1295,731 1292,733 	"/>
	<polygon display="inline" fill="#FF0000" stroke="#800080" points="1317,419 1311,419 1307,417 1303,415 1302,410 1299,407 
		1297,403 1295,399 1293,395 1290,392 1291,386 1291,381 1293,377 1295,373 1293,369 1290,366 1290,360 1292,357 1294,361 1296,365 
		1298,362 1297,357 1294,354 1290,352 1289,347 1290,342 1292,337 1294,334 1297,331 1302,331 1307,332 1310,335 1312,339 1312,343 
		1310,347 1309,351 1308,357 1309,362 1311,366 1313,370 1314,375 1316,379 1319,382 1322,385 1325,388 1326,393 1326,399 1327,404 
		1326,409 1324,413 1322,416 1318,418 	"/>
	<polygon display="inline" fill="#FF0000" stroke="#800080" points="1324,655 1319,654 1315,652 1314,647 1313,642 1311,638 
		1310,633 1312,628 1312,623 1314,619 1317,615 1319,612 1319,608 1315,608 1310,609 1306,607 1309,603 1313,601 1317,603 1321,604 
		1325,605 1327,609 1330,612 1333,615 1335,619 1336,624 1337,629 1339,633 1338,638 1336,642 1336,648 1333,651 1329,653 1325,654 
			"/>
	<polygon display="inline" fill="#FF0000" stroke="#800080" points="396,559 391,558 385,558 380,557 375,556 369,556 363,556 
		358,555 353,554 349,552 346,549 342,547 339,544 338,539 341,535 346,536 351,537 354,535 358,532 363,533 367,534 366,531 
		362,529 357,528 352,528 348,527 349,523 353,521 356,518 360,516 365,515 370,515 375,513 379,513 383,515 386,518 390,520 
		394,522 397,525 401,527 405,529 407,533 408,538 407,543 407,548 405,553 402,556 399,558 	"/>
	<polygon display="inline" fill="#FF0000" stroke="#800080" points="287,497 283,495 278,494 274,494 276,489 278,485 280,482 
		283,479 288,477 292,476 294,472 297,468 301,466 303,470 303,476 304,481 305,486 303,490 300,493 297,491 295,487 291,490 
		291,494 288,496 	"/>
</g>
<g id="Single_nuclei" opacity="0.1">
	<polygon fill="#00FF00" stroke="#800080" points="0,505.367 4.602,504.641 8.542,507.212 10.254,512.52 9.227,519.201 
		5.972,523.14 0,524.511 	"/>
	<polygon fill="#00FF00" stroke="#800080" points="0,582 0,579.322 0,575 0,567.16 6.144,567.845 11.282,569.387 15,573 
		18.305,576.755 19.504,581.551 19.504,586.687 18,592 15.736,594.91 11.282,596.623 5.287,597.65 0,595.937 	"/>
	<polygon fill="#00FF00" stroke="#800080" points="50.932,1024 48.505,1020.472 48,1017 48,1013 47.811,1008.822 47.534,1003.135 
		50.238,999.462 54.191,997.518 60.78,999.529 64.871,1002.026 68.2,1005.285 68.478,1009.307 67,1013 65,1017 67.922,1024 	"/>
	<polygon fill="#00FF00" stroke="#800080" points="66.495,933.634 60.611,936.244 58.603,935.827 54,934 52,930 52,924 
		53.678,917.552 57.713,914.469 61,914 63.053,915.003 64.477,916.9 65.901,919.748 67.325,923.901 68.215,927.76 67.365,932.04 	
		"/>
	<polygon fill="#00FF00" stroke="#800080" points="72,897 67,896 64,893 61,890 59,886 57,882 55,878 54,873 56,868 60,866 64,864 
		69,863 73,865 77,867 80,870 82,874 83,879 83,885 82,889 79,893 76,895 	"/>
	<polygon fill="#00FF00" stroke="#800080" points="179,300 174,299 171,296 169,292 168,287 169,281 171,277 172,273 176,270 
		181,271 184,274 185,279 185,285 184,290 183,295 181,298 	"/>
	<polygon fill="#00FF00" stroke="#800080" points="211,413 205,413 200,412 196,410 193,407 192,402 193,398 196,395 200,393 
		204,391 208,389 212,391 216,391 221,392 227,392 229,396 230,401 228,405 225,408 222,410 217,412 212,412 	"/>
	<polygon fill="#00FF00" stroke="#800080" points="234.243,138.554 230.356,141.173 225.027,141.833 222.5,142.017 218.276,140.666 
		215,138 214,133 216,129 219,125 223,123 228,122 232,124 235.256,127.319 235.679,131.542 235.51,134.499 	"/>
	<polygon fill="#00FF00" stroke="#800080" points="272.985,604.23 268.518,602.421 264.775,598.799 261.877,596.02 258.98,593.605 
		257.29,590.709 255.237,588.175 254.392,586.24 253.667,583.705 252.822,578.151 253.185,572.355 253.909,567.888 254.996,564.145 
		256.203,561.248 259.583,557.143 265.017,555.093 270.45,555.453 275,558 279.022,560.161 282,563 286,565 289,568 
		290.975,569.459 294.959,574.048 297.012,577.67 297.736,582.135 296.529,587.568 294.551,590.76 291.941,594.692 289.405,597.227 
		285.421,600.487 282.282,602.54 278.418,604.109 	"/>
	<polygon fill="#00FF00" stroke="#800080" points="289.553,359.145 284.728,359.367 280.347,358.757 277.241,356.871 
		274.135,354.265 272.194,352.046 270.641,348.109 272,344 274,340 277,336 281,334 285,332 290.219,332.912 294.101,336.129 
		296.708,341.232 296.874,346.389 295.765,351.547 293.109,355.4 	"/>
	<polygon fill="#00FF00" stroke="#800080" points="301,538 295,538 290,537 286,535 284,531 285,526 287,522 289,518 292,515 
		296,512 299,510 303,507 308,506 314,506 318,508 321,511 324,514 327,517 326,522 324,526 322,529 318,532 315,534 311,536 
		306,537 	"/>
	<polygon fill="#00FF00" stroke="#800080" points="314,453 308,453 305,450 303,446 303,440 305,435 307,432 310,428 313,425 
		316,423 319,420 322,416 327,415 331,416 335,417 339,419 341,423 340,428 338,432 336,435 333,439 330,442 327,445 324,447 
		320,449 316,452 	"/>
	<polygon fill="#00FF00" stroke="#800080" points="353,988 347,988 342,987 339.439,983.642 335.948,981.074 333,978 330,975 
		329.034,971.526 329.233,968.498 331,965 333.513,962.047 337,960 343,959 347,961 350,964 353.025,967.044 356.025,970.044 
		357.35,973.635 359,979 358,983 355,987 	"/>
	<polygon fill="#00FF00" stroke="#800080" points="315.732,956.924 309.741,955.989 307.371,955.659 304.408,954.013 
		300.986,952.103 298.035,949.029 295.037,946.029 294.072,942.555 294.27,939.527 296.037,936.029 298.55,933.074 299.6,932.677 
		303.156,932.551 306.648,934.459 309.348,937.354 312.704,941.176 315.735,945.322 318.172,948.152 319.488,951.381 
		319.547,953.304 317.513,955.659 	"/>
	<polygon fill="#00FF00" stroke="#800080" points="318.471,872.247 314.741,873.489 312.371,873.159 308.695,871.848 
		305.303,870.022 302.433,867.5 300.035,863.529 299.072,860.055 299.27,857.027 301.035,853.529 303.55,850.574 304.6,850.177 
		308.156,850.051 311.648,851.959 314.348,854.854 317.704,858.676 318.611,859.932 319.74,861.933 320.959,864.194 
		320.783,866.803 320.251,870.984 	"/>
	<polygon fill="#00FF00" stroke="#800080" points="210.752,638.497 207.025,639.739 204.548,640.283 200.822,639.869 
		197.371,638.35 193.92,635.592 192.402,632.003 191.768,628.927 192.678,625.928 193.644,624.41 195.853,622.891 199.09,621.672 
		202.064,620.683 205.239,621.235 208.137,622.202 210.208,623.857 211.864,625.238 213.244,627.587 213.796,630.345 
		213.796,632.969 212.533,637.234 	"/>
	<polygon fill="#00FF00" stroke="#800080" points="403,614 397,614 391,614 387,612 384,609 381,606 380,601 379.321,594.885 
		380,591 382,587 386,584 391.569,582.443 397,583 402,584 406,586 410,588 414,590 417.164,593.33 419,597 419,603 417,607 
		414,609 410,611 406,613 	"/>
	<polygon fill="#00FF00" stroke="#800080" points="422,660 417,659 412,658 408,656 404,654 401,651 401,646 403,643 406,640 
		410,638 414,636 420,635 424,634 429,632 433,634 437,636 439,640 440,644 438,649 436,653 433,656 430,658 425,659 	"/>
	<polygon fill="#00FF00" stroke="#800080" points="451,441 445,441 441,439 438,436 435,433 432,430 431,425 432,420 435,416 
		437,413 441,410 447,410 452,411 456,413 459,416 461,420 462,425 461,430 459,434 456,437 453,440 	"/>
	<polygon fill="#00FF00" stroke="#800080" points="480,663 475,662 471,660 469,656 467,652 464,649 462,645 461,640 461,636 
		464,633 467,630 472,628 476,626 480,628 485,629 487,633 488,638 490,642 491,647 490,652 488,656 486,659 482,662 	"/>
	<polygon fill="#00FF00" stroke="#800080" points="476,478 470,478 465,477 463,473 462,468 463,463 464,458 465,453 468,449 
		472,449 477,450 480,453 483,456 486,459 488,463 486,467 484,471 482,474 478,477 	"/>
	<polygon fill="#00FF00" stroke="#800080" points="486,544 480,544 475,543 473,539 471,535 473,531 477,528 482,527 487,526 
		492,527 494,531 493,536 491,540 488,543 	"/>
	<polygon fill="#00FF00" stroke="#800080" points="513,715 508,714 503,713 501,709 501,705 504,702 506,698 509,695 514,695 
		518,697 522,699 524,703 525,707 523,711 519,713 514,714 	"/>
	<polygon fill="#00FF00" stroke="#800080" points="523,876 518,875 513,874 510,871 507,868 505,864 506,859 510,856 514,854 
		519,853 523,855 527,857 530,860 531,865 530,870 528,873 524,875 	"/>
	<polygon fill="#00FF00" stroke="#800080" points="577,247 571,247 566,246 562,244 558,242 556,238 553,235 552,230 551,225 
		554,221 557,219 562,217 567,218 571,220 575,222 578,225 581,228 584,231 585,236 584,241 582,244 578,246 	"/>
	<polygon fill="#00FF00" stroke="#800080" points="636.966,360.961 630.965,360.961 625.965,359.961 621.965,357.961 
		617.965,355.961 613.145,351.872 609.767,346.683 608.198,341.133 608.681,336.185 611.214,332.807 615.317,331.238 
		619.538,331.721 623.826,333.892 627.826,335.892 633.535,338.961 638.002,341.253 641.38,344.994 643.07,348.976 643.912,352.596 
		643.966,354.961 641.966,357.961 638.967,360.077 	"/>
	<polygon fill="#00FF00" stroke="#800080" points="562,905 557,904 554,901 553,896 555,892 558,888 561,885 566,884 569,887 
		571,891 570,896 568,900 565,903 	"/>
	<polygon fill="#00FF00" stroke="#800080" points="609,281 603,281 600,278 599,273 602,269 607,268 612,269 614,273 613,278 
		610,280 	"/>
	<polygon fill="#00FF00" stroke="#800080" points="708,0 707.788,3.557 705.778,7.34 703.322,9.115 699.322,11.115 696.037,11.928 
		691.093,11.907 686.093,10.907 681.39,6.052 680.906,0 	"/>
	<polygon fill="#00FF00" stroke="#800080" points="777.896,7.237 778.455,17.557 775.606,23.9 773.041,26.826 769.92,29.902 
		765.34,31.087 759.97,29.823 757.363,26.427 756.179,21.768 758.153,13.396 761.154,7.552 764.55,3.446 768.656,1.708 
		773.396,2.498 	"/>
	<polygon fill="#00FF00" stroke="#800080" points="694,338 689,337 685,335 683,331 683,326 685,323 690,321 694.544,321.759 
		698,325 700.012,329.702 699.287,334.861 696.813,336.924 	"/>
	<polygon fill="#00FF00" stroke="#800080" points="940.331,850.5 937.166,849.5 933.5,847.334 931,845.334 928,843.169 
		924.5,840.834 919.896,836.923 917.268,833.652 914.268,830.652 912.427,827.445 909.427,824.445 906.74,820.757 904,817 
		901.747,813.385 899,810 896,807 893,804 890.416,799.993 888.277,796.189 883.603,789.217 883.283,785.094 885.108,782.719 
		888,782 890.972,783.113 894.775,785.256 897.706,787.79 900.573,791.051 903.651,794.29 907.217,798.567 910,802 913.75,807 
		916.567,811.4 919,814.25 921.25,818 924.5,822 926.5,824.5 928.445,827.694 930.666,831 932.666,834.334 934.166,836.834 
		936.831,840.834 939.331,844.834 940.666,847.5 	"/>
	<polygon fill="#00FF00" stroke="#800080" points="956.089,203.602 952.309,204.502 947,204 942,203 937,202 933,200 930,197 
		927,194 924,191 920.987,188.842 918.02,184.26 916.02,180.26 915.021,174.9 914.021,169.9 915.228,164.001 917.745,158.6 
		923.688,155.54 926.92,154.3 932.92,153.3 938.721,153.86 943.721,154.86 947.809,155.36 953,157 958,158 962,160 967,161 971,163 
		974.448,166.341 976.61,170.661 977,175 976,180 975,185 973,189 971,193 969,197 966.35,198.922 962.82,201.02 958.82,203.02 	"/>
	<polygon fill="#00FF00" stroke="#800080" points="922.447,904.261 920.309,904.027 916.891,901.144 913.728,897.758 
		910.565,893.147 907.854,889.219 906.68,885.332 906.047,882.714 907.867,880.295 912.867,881.295 915.867,884.295 
		918.867,887.295 921.867,890.295 924.117,893.421 925.246,896.762 925.791,899.969 923.848,903.222 	"/>
	<polygon fill="#00FF00" stroke="#800080" points="980,365 975,364 971,362 967,360 964.02,356.973 961.447,354.476 958,351 
		955,348 953,344 951,340 951,334 953,330 957,327 958.269,325.948 960.991,325.645 963.49,325.721 966.896,327.083 971,331 
		974,334 977,337 980,340 983.546,344.422 985.586,348.649 986.168,351.227 987,357 985,361 982,364 	"/>
	<polygon fill="#00FF00" stroke="#800080" points="1016,0 1014.729,3.527 1011.545,4.943 1007.418,6.004 1003.88,6.829 
		1000.106,6.475 997.275,5.768 994.682,4.943 990.788,3.055 987.842,-0.001 	"/>
	<polygon fill="#00FF00" stroke="#800080" points="1015,436 1010,435 1007,432 1004,429 1001,426 999,422 999,418 1001,413 
		1003,409 1005,406 1010,404 1014,406 1018,408 1021,411 1024,414 1027,417 1028,422 1027,427 1025,430 1021,433 1018,435 	"/>
	<polygon fill="#00FF00" stroke="#800080" points="1015,984 1009,984 1005,982 1002,979 1002,973 1000,969 1000,963 1002,959 
		1004,954 1007,952 1012,951 1016,952 1019,955 1021,959 1022,964 1022,970 1021,975 1019,979 1017,983 	"/>
	<polygon fill="#00FF00" stroke="#800080" points="979.034,889.654 967.345,887.638 957.467,880.785 952.427,876.955 
		948.597,872.117 945.17,867.681 945.17,863.247 945.774,859.419 950.177,855.427 953.177,853.427 956.658,852.969 959.685,853.974 
		962.104,856.594 963.716,859.419 968.177,865.427 972.785,871.915 978.028,877.76 983.068,883.607 983.471,887.843 	"/>
	<polygon fill="#00FF00" stroke="#800080" points="1025.198,938.844 1022.176,938.438 1017.942,930.778 1016.935,925.738 
		1015.321,918.078 1010.887,906.184 1007.057,897.719 1008.669,893.484 1011.895,893.686 1017.942,897.516 1024.393,903.362 
		1029.836,909.209 1038.325,914.363 1040.52,919.489 1039.108,923.722 1033.464,928.966 	"/>
	<polygon fill="#00FF00" stroke="#800080" points="1072,455 1066,455 1061,454 1058,451 1055,448 1054,443 1054,439 1058,436 
		1062,438 1066,440 1072,440 1075,443 1077,447 1076,452 1073,454 	"/>
	<polygon fill="#00FF00" stroke="#800080" points="1084.523,65.401 1082.772,65.205 1080,65 1076,63 1073,60 1070,57 1068,53 
		1066.498,46.572 1066.263,41.265 1067.7,36.702 1069.7,31.702 1072.396,28.529 1074.989,26.524 1077.938,24.165 1081,24 1085,25 
		1087,29 1089.023,32.302 1091.5,36.43 1092.562,41.029 1093,47 1093,53 1092.207,58.365 1089.142,62.846 1087.726,64.379 	"/>
	<polygon fill="#00FF00" stroke="#800080" points="1086.93,167.52 1082.64,166.383 1080.702,164 1079.702,159 1077,155 
		1075.031,152.084 1072.707,148.281 1070.241,145.533 1068,141 1068.06,135.954 1070.313,131.587 1073,129 1075.453,128.769 
		1078.978,130.037 1082.286,133.77 1084.189,137.644 1084.683,141.73 1086.091,145.674 1087.853,149.337 1089.684,153.563 
		1090.74,157.789 1090.529,162.861 1088.93,166.52 	"/>
	<polygon fill="#00FF00" stroke="#800080" points="1120.629,-0.001 1119,4 1116,7 1113,10 1112,15 1112,21 1112,27 1113,32 1114,37 
		1112,41 1108,42 1103.293,39.85 1100,38 1097,35 1094,32 1093,27 1092,22 1092,16 1093,11 1094,6 1095.981,-0.001 	"/>
	<polygon fill="#00FF00" stroke="#800080" points="1158.857,584.803 1152.242,584.993 1148.276,581.969 1146.532,577.523 
		1143.25,571.75 1139.962,567.801 1133.5,555 1135.031,550.102 1138.142,547.479 1142.318,548.451 1149.977,554.95 
		1154.098,558.183 1157.473,561.76 1161.982,569 1163.982,573 1164.903,577.056 1163.77,581.594 	"/>
	<polygon fill="#00FF00" stroke="#800080" points="1279,916 1273,916 1268,915 1263,914 1259,912 1256,909 1253,906 1251,902 
		1249,898 1250,893 1252,889 1255,886 1261,885 1265,883 1270,882 1275,883 1279,885 1282,888 1284,892 1286,896 1286,902 1286,908 
		1284,912 1281,915 	"/>
	<polygon fill="#00FF00" stroke="#800080" points="1270.829,408.058 1268.505,408.118 1263.531,406.376 1260.531,403.376 
		1258.546,399.232 1256.398,395.117 1255,391 1257,387 1262,385 1266,387 1270,389 1272,393 1273,398 1275,402 1275,406 1272,408 	
		"/>
	<polygon fill="#00FF00" stroke="#800080" points="1293,148.72 1287,148.72 1284.082,145.824 1282.302,143.403 1281.946,139.912 
		1281.02,130.437 1280.806,125.81 1281.02,120.464 1280.959,118.24 1281.659,112.913 1283.655,109.778 1285.437,106.573 
		1286.574,104.435 1288.072,102.726 1292,103 1295,106 1299,108 1302,111 1305,114 1308,117 1311,120 1314.43,123.282 
		1317.43,126.282 1320,129 1323,132 1325,136 1327,140 1327,145 1324,149 1320,150 1315,149 1309,149 1303,149 1297,149 	"/>
	<polygon fill="#00FF00" stroke="#800080" points="1298,490 1293,489 1290,486 1289,481 1289,475 1290,470 1293,466 1298,465 
		1302,467 1306,469 1308,473 1309,477 1307,482 1305,485 1302,488 	"/>
	<polygon fill="#00FF00" stroke="#800080" points="1360,290.5 1355,290 1353,286 1354,281 1355,276 1356.834,271.166 
		1357.834,265.5 1360,262.5 	"/>
	<polygon fill="#00FF00" stroke="#800080" points="0,605 4,607 8.37,609.982 10.083,613.925 11,618 10,622 7,626 0,630.538 	"/>
	<polygon fill="#00FF00" stroke="#800080" points="84,1015 79,1014 75.69,1009.796 76.037,1004.662 78.325,1000.986 82.694,998.282 
		88.45,998.007 92.68,1000.087 93.803,1006.278 90.947,1010.628 87.895,1013.747 	"/>
	<polygon fill="#00FF00" stroke="#800080" points="114,113 108,113 103,112 99,110 95,108 91,106 88,103 85,100 82,97 81,92 80,87 
		81,82 83,77 85,74 88,70 90,67 93,64 96,61 99,57 102,54 107,53 111,51 116,50 121,49 126,50 131,51 136,52 139,55 141,59 143,63 
		145,67 146,72 146,78 146,83 143,87 141,91 139,94 136,98 133,101 130,104 127,106 124,109 120,111 115,112 	"/>
	<polygon fill="#00FF00" stroke="#800080" points="179,951 173,951 168,950 164,948 160,946 157,943 154,940 151,937 148,934 
		147,929 150,925 153,922 156,919 160,918 165,916 171,916 175,918 178,921 182,923 184,927 186,931 186,937 185,942 183,946 
		181,950 	"/>
	<polygon fill="#00FF00" stroke="#800080" points="200,341 195,340 191,338 188,335 187,330 187,326 189,321 194,322 198,324 
		201,327 203,331 202,336 201,340 	"/>
	<polygon fill="#00FF00" stroke="#800080" points="333,635 327,635 323,633 319,631 315,629 311,627 310,622 308,618 307,613 
		309,609 310,604 312,599 316,597 320,595 324,597 329,598 332,601 336,603 339,606 342,609 345,612 347,616 348,621 348,627 
		346,630 343,633 338,634 	"/>
	<polygon fill="#00FF00" stroke="#800080" points="395,555 389,555 383,555 377,555 372,554 366,554 361,553 356,552 351,551 
		347,549 343,547 340,544 336,542 335,537 335,531 338,528 341,524 344,521 347,518 351,516 355,514 359,512 363,510 369,510 
		374,509 378,511 382,513 385,516 389,518 393,520 397,522 399,526 402,529 404,533 404,539 404,545 402,549 400,552 396,554 	"/>
	<polygon fill="#00FF00" stroke="#800080" points="376,491 370,491 365,490 359,490 355,488 354,483 352,479 351,474 349,470 
		350,465 350,459 351,454 351,448 354,444 357,441 360,438 365,439 371,439 375,441 379,443 382,446 384,450 386,454 387,459 
		387,465 387,471 387,477 386,482 385,487 381,489 377,490 	"/>
	<polygon fill="#00FF00" stroke="#800080" points="660,1013 655,1012 649,1012 647,1008 644,1005 644,1001 644,995 647,991 650,989 
		655,987 660,988 664,990 667,993 670,996 669,1001 668,1005 665,1009 662,1011 	"/>
	<polygon fill="#00FF00" stroke="#800080" points="958,806 953,805 951,801 949,797 949,791 950,786 952,782 956,779 959,777 
		962,773 965,771 969,772 971,776 973,780 973,786 972,791 970,795 968,799 965,802 962,804 	"/>
	<polygon fill="#00FF00" stroke="#800080" points="1011.153,761.579 1007.648,758.969 1004.517,754.05 1004.145,747.188 
		1006.604,742.416 1008.916,740.701 1012.719,738.762 1017.116,738.24 1022.188,738.539 1028.229,740.104 1031.51,743.834 
		1031.211,748.605 1025.99,754.496 1024.873,755.987 1022.338,758 1018.832,761.057 1014.062,762.551 	"/>
	<polygon fill="#00FF00" stroke="#800080" points="858.765,746.648 856.112,744.26 852.969,740.895 850.451,734.713 
		851.025,730.349 852.573,727.902 855.491,726.31 859.473,725.514 863.187,727.725 864.336,730.82 868.138,740.989 870.7,748.77 
		870.7,751.954 869.198,753.014 865.928,751.688 862.567,749.477 860.976,748.24 	"/>
	<polygon fill="#00FF00" stroke="#800080" points="1196.73,985.772 1191.564,981.9 1188.348,976.906 1187.211,972.892 
		1185.812,966.829 1186.477,960.257 1189.545,953.635 1195.924,948.95 1200.85,949.031 1205.679,952.022 1207.461,953.53 
		1209.57,957.428 1211.024,966.23 1210.863,971.237 1210.538,983.511 1208.602,986.983 1203.596,988.195 	"/>
	<polygon fill="#00FF00" stroke="#800080" points="1313.11,979.224 1306.826,973.99 1301.979,968.879 1295.659,960.612 
		1290.657,951.189 1288.475,941.177 1291.543,934.553 1298.337,932.927 1307.85,936.698 1311.715,941.302 1314.111,945.153 
		1316.221,949.052 1320.933,960.298 1325.092,971.663 1327.187,979.343 1326.14,982.598 1320.09,982.482 	"/>
	<polygon fill="#00FF00" stroke="#800080" points="948,796 943,795 938,794 933,793 928,792 924,790 921,787 917,785 917,781 
		917,775 920,772 925,770 928,768 931,765 935,762 940,763 946,763 950,765 953,768 955,772 956,776 953,780 951,784 949,788 
		949,794 	"/>
	<polygon fill="#00FF00" stroke="#800080" points="1120,266 1115,265 1110,264 1106,262 1103,259 1100.884,254.094 
		1099.725,250.267 1098.217,247.251 1096,244 1094.041,238.205 1093.462,233.799 1095,229 1099.028,227.42 1104,227 
		1107.146,227.42 1110.885,229.247 1113.062,232.291 1115,234 1118,237 1122,239 1126,241 1129,244 1131,248 1131,254 1129,258 
		1127,261 1124,264 	"/>
	<polygon fill="#00FF00" stroke="#800080" points="1156,793 1151,792 1146,791 1142,789 1138,787 1135,784 1132,781 1129,778 
		1127,774 1126,769 1125,764 1125,759 1126,755 1128,751 1132,749 1137,747 1141,747 1146,748 1150,750 1154,752 1158,754 1163,755 
		1167,755 1173,755 1178,756 1182,758 1184,762 1186,766 1185,771 1184,775 1182,780 1180,783 1176,785 1172,787 1168,789 1163,790 
		1158,792 	"/>
	<polygon fill="#00FF00" stroke="#800080" points="1288,735 1282,735 1279,732 1278,727 1280,723 1282,718 1284,715 1287,711 
		1290,709 1295,709 1301,709 1304,712 1305,717 1304,722 1301,724 1298,728 1295,731 1292,733 	"/>
	<polygon fill="#00FF00" stroke="#800080" points="1312,694 1306,694 1301,693 1297,691 1292,690 1291,687 1295,684 1299,682 
		1304,681 1309,680 1312,678 1316,675 1320,673 1323,671 1327,668 1330,665 1333,664 1335,668 1337,671 1335,676 1333,680 1332,684 
		1330,689 1326,690 1321,691 1316,693 	"/>
	<polygon fill="#00FF00" stroke="#800080" points="1312,712 1307,711 1303,709 1299,707 1296,704 1294,700 1294,694 1297,692 
		1302,693 1307,694 1312,694 1317,693 1323,692 1323,695 1320,699 1318,703 1316,706 1313,710 	"/>
	<polygon fill="#00FF00" stroke="#800080" points="1290,375 1288,371 1288,365 1288,359 1288,353 1288,347 1288,341 1289,335 
		1292,332 1295,330 1300,328 1305,329 1309,331 1311,335 1313,339 1312,344 1311,348 1308,352 1306,356 1304,360 1302,364 1300,368 
		1298,371 1294,373 	"/>
	<polygon fill="#00FF00" stroke="#800080" points="1312,419 1308,417 1304,415 1301,412 1298,409 1297,404 1295,400 1293,396 
		1291,392 1290,387 1289,382 1289,378 1293,376 1297,373 1300,371 1302,367 1304,363 1306,359 1308,358 1310,362 1312,366 1314,370 
		1316,374 1317,379 1319,383 1322,386 1324,390 1326,394 1326,400 1327,405 1325,409 1323,413 1321,417 1317,418 	"/>
	<polygon fill="#00FF00" stroke="#800080" points="1320,654 1317,651 1314,648 1313,643 1312,638 1311,633 1310,628 1311,624 
		1312,620 1314,616 1316,612 1319,608 1322,609 1325,612 1327,616 1329,620 1329,626 1329,632 1329,638 1329,644 1328,649 1325,651 
		1321,653 	"/>
	<polygon fill="#00FF00" stroke="#800080" points="979.704,62.73 984.787,68.491 991.567,72.558 1000.717,76.964 1006.818,76.964 
		1010.205,74.592 1006.818,66.119 1001.056,60.358 995.294,54.935 988.856,52.902 982.416,56.969 	"/>
	<polygon fill="#00FF00" stroke="#800080" points="1126.157,190.232 1124.599,194.716 1125.184,199.98 1126.157,206.413 
		1128.303,211.092 1132.007,213.626 1136.686,212.457 1138.829,208.168 1139.805,203.684 1138.244,198.42 1135.711,193.936 
		1131.422,189.842 	"/>
</g>
</svg>
