<?xml version="1.0" encoding="utf-8"?>
<!-- Generator: Adobe Illustrator 16.0.1, SVG Export Plug-In . SVG Version: 6.00 Build 0)  -->
<!DOCTYPE svg PUBLIC "-//W3C//DTD SVG 1.1//EN" "http://www.w3.org/Graphics/SVG/1.1/DTD/svg11.dtd">
<svg version="1.1" id="Layer_1" xmlns="http://www.w3.org/2000/svg" xmlns:xlink="http://www.w3.org/1999/xlink" x="0px" y="0px"
	 width="1280px" height="1024px" viewBox="0 0 1280 1024" enable-background="new 0 0 1280 1024" xml:space="preserve">
<g id="Raw_image">
	
		<image overflow="visible" enable-background="new    " width="1280" height="1024" xlink:href="Neuroblastoma_10.jpg"  transform="matrix(1 0 0 1 2.441406e-004 -2.441406e-004)">
	</image>
</g>
<g id="Not_annotated" opacity="0.5">
	<polygon fill="#0000FF" stroke="#800080" points="1215,953 1208,948 1203,949 1197,944 1198,951 1189,953 1183,947 1175,947 
		1170,940 1165,933 1160,926 1156,918 1162,911 1166,903 1174,903 1171,910 1176,917 1178,910 1177,901 1176,895 1183,891 1185,883 
		1182,874 1185,872 1193,870 1199,872 1202,866 1207,859 1216,859 1224,857 1231,858 1239,858 1249,858 1250,865 1246,873 1246,883 
		1240,880 1231,879 1221,877 1212,878 1207,874 1201,880 1206,885 1206,888 1196,889 1193,898 1201,901 1208,905 1215,904 1221,902 
		1229,906 1238,907 1230,910 1222,908 1213,912 1205,913 1199,909 1203,916 1212,915 1220,911 1221,915 1219,923 1211,920 1203,923 
		1198,916 1191,911 1184,913 1185,922 1191,928 1184,930 1176,926 1168,927 1173,930 1176,939 1182,935 1183,940 1190,943 1198,939 
		1206,939 1212,945 1216,952 	"/>
	<polygon fill="#0000FF" stroke="#800080" points="1279,953 1272,952 1266,946 1261,942 1257,950 1257,960 1257,969 1253,977 
		1248,984 1242,990 1237,998 1230,1002 1219,1003 1210,1000 1203,995 1196,992 1191,987 1191,977 1184,974 1182,964 1188,969 
		1195,974 1197,982 1201,979 1200,970 1205,962 1211,956 1217,962 1220,960 1222,955 1226,958 1232,952 1228,944 1234,940 1240,935 
		1249,934 1248,928 1258,929 1264,926 1271,924 1275,919 	"/>
	<polygon fill="#0000FF" stroke="#800080" points="1227,901 1219,897 1214,894 1217,885 1224,885 1218,891 1224,891 1227,900 	"/>
	<polygon fill="#0000FF" stroke="#800080" points="1256,901 1250,895 1251,891 1259,894 1256,887 1264,886 1263,895 1257,900 	"/>
	<polygon fill="#0000FF" stroke="#800080" points="1279,745 1269,747 1261,743 1257,735 1254,728 1256,718 1261,711 1269,706 
		1277,702 	"/>
	<polygon fill="#0000FF" stroke="#800080" points="1270,885 1264,879 1260,871 1268,866 1269,875 1271,884 	"/>
	<polygon fill="#0000FF" stroke="#800080" points="1279,890 1274,886 1274,879 1279,875 	"/>
	<polygon fill="#0000FF" stroke="#800080" points="1279,913 1276,906 1276,899 	"/>
	<polygon fill="#0000FF" stroke="#800080" points="1279,858 1275,852 1275,842 1275,832 1275,820 1276,809 	"/>
	<polygon fill="#0000FF" stroke="#800080" points="1279,687 1275,681 1276,670 1278,663 	"/>
</g>
<g id="Clumps" display="none" opacity="0.5">
	<polygon display="inline" fill="#FF0000" stroke="#800080" points="0,697 6,692 3,683 8,676 16,671 25,668 35,666 44,669 52,673 
		62,675 73,674 79,680 84,687 86,695 91,702 94,704 100,697 105,690 112,685 121,682 132,681 142,683 151,684 161,686 168,691 
		175,696 181,702 188,707 192,715 192,725 191,734 191,744 189,754 185,762 181,769 174,775 167,780 159,784 150,786 139,787 
		129,785 120,782 113,777 107,771 100,766 95,759 91,751 89,751 84,759 78,765 70,769 61,771 50,772 41,769 34,764 25,765 18,760 
		9,757 5,749 3,739 	"/>
	<polygon display="inline" fill="#FF0000" stroke="#800080" points="266,890 255,889 246,886 239,881 235,873 233,863 236,854 
		229,851 230,842 228,832 229,821 233,812 240,808 250,805 258,802 268,801 277,798 286,795 295,792 306,793 314,797 318,805 
		323,812 327,820 328,814 329,805 322,804 320,794 316,786 308,784 310,774 303,776 299,783 291,779 289,773 293,765 297,757 
		300,750 290,749 286,755 280,758 273,753 268,746 266,738 268,728 266,718 264,710 263,699 271,694 282,693 291,696 299,700 
		296,708 286,707 290,715 289,722 286,731 290,739 298,737 300,728 300,719 298,711 306,710 313,714 314,723 315,732 315,743 
		313,752 319,753 325,747 330,740 337,734 345,731 356,729 365,732 373,736 380,741 386,747 389,756 390,767 393,776 390,785 
		390,794 386,802 380,808 373,814 366,819 358,822 349,825 340,828 333,834 328,841 324,849 320,857 315,863 309,869 302,875 
		295,879 286,882 277,885 268,889 	"/>
	<polygon display="inline" fill="#FF0000" stroke="#800080" points="343,1023 341,1013 343,1003 348,996 354,989 360,983 367,978 
		375,974 385,972 395,974 405,976 412,981 418,987 422,995 428,1001 438,1003 448,1005 455,1010 460,1017 	"/>
	<polygon display="inline" fill="#FF0000" stroke="#800080" points="561,1023 563,1014 567,1006 572,1000 579,994 590,993 600,993 
		611,994 622,995 631,998 641,1000 649,1004 654,1011 659,1018 	"/>
	<polygon display="inline" fill="#FF0000" stroke="#800080" points="914,861 911,856 908,851 897,853 890,849 882,845 876,839 
		871,832 866,825 864,815 865,804 867,794 870,785 875,778 883,773 890,768 897,764 906,762 916,762 927,763 934,768 941,773 
		946,780 948,790 953,797 952,805 950,814 949,825 949,837 944,843 940,851 934,857 929,857 920,859 	"/>
	<polygon display="inline" fill="#FF0000" stroke="#800080" points="1003,957 992,956 982,954 974,950 975,940 971,933 966,926 
		961,919 960,908 958,898 959,889 964,882 968,874 973,867 981,862 988,858 997,854 1006,851 1016,849 1028,849 1035,854 1043,858 
		1050,863 1053,872 1058,879 1060,889 1062,899 1060,909 1057,918 1053,925 1048,933 1042,939 1035,944 1028,949 1020,953 1011,955 
			"/>
	<polygon display="inline" fill="#FF0000" stroke="#800080" points="1171,416 1161,416 1151,414 1142,411 1134,407 1128,401 
		1128,391 1124,383 1120,375 1118,365 1120,355 1126,348 1131,341 1137,336 1142,329 1150,324 1160,322 1166,328 1173,327 1183,325 
		1190,330 1193,339 1200,340 1203,349 1204,360 1206,370 1206,382 1204,391 1199,399 1194,405 1187,410 1178,414 	"/>
</g>
<g id="Single_nuclei" opacity="0.5">
	<polygon fill="#00FF00" stroke="#800080" points="299.571,0 297.093,5.281 290.75,11.25 282.724,16.692 274.484,19.438 
		266.877,21.974 255.044,24.51 242.366,23.453 233.491,20.706 226.941,16.269 222.081,11.832 215,5.25 213.304,0 	"/>
	<polygon fill="#00FF00" stroke="#800080" points="356,638 345,637 338,632 330,636 319,635 311,631 307,623 301,617 295,611 
		294,600 300,593 305,587 299,583 290,584 284,578 283,567 284,556 290,549 297,545 304,539 311,534 319,532 326,528 335,524 
		344,521 350,527 349,536 345,544 340,550 336,559 332,567 340,571 348,567 352,559 355,550 359,543 365,536 375,534 383,536 
		391,540 398,543 403,550 405,560 405,572 401,580 394,585 398,593 398,603 395,612 390,619 384,625 378,630 369,634 360,637 	"/>
	<polygon fill="#00FF00" stroke="#800080" points="454.739,501.013 447.388,500.117 441,497 432,494 425,489 419,483 415,475 
		411,467 410,456 410.452,447.585 411.887,438.799 415.115,431.447 419.239,424.992 425,418 432,413 441.471,410.111 
		450.436,407.242 460,405 471,404 481,406 489.522,408.497 497.77,410.828 503.865,416.566 508.348,423.38 512.472,431.268 
		514.445,441.308 515.698,450.99 513.727,461.031 512,469 508,477 503,483 494.364,487.567 485.757,490.076 477.151,494.381 
		470.517,497.427 463.165,500.298 	"/>
	<polygon fill="#00FF00" stroke="#800080" points="533,171 523,171 514,168 505,165 499,159 492.826,152.079 488,146 485,137 
		483,127 482.211,117.415 482,108 482,96 484,86 489,78 495,72 502,68 511,64 521,64 531,66 540.056,67.153 549.805,71.052 557,76 
		563,82 568,89 572,97 574,107 575,118 574,129 572,139 568,147 563,154 557,160 550,165 542,168 	"/>
	<polygon fill="#00FF00" stroke="#800080" points="685.211,158.362 679.146,155.545 673.73,151.645 668.963,148.829 
		667.013,144.063 665.93,137.347 662.738,135.899 657.627,138.052 650.904,138.588 645.781,136.263 641.233,133.014 
		636.466,128.464 634.516,120.882 636.683,115.682 639.066,109.833 643.399,106.583 644.698,101.817 644.482,96.834 642.156,93.237 
		639.498,88.168 639,80 641,70 644,60 650,55 657,50 667,47 676,44 686,44 695,47 703,51 710.559,55.671 718.359,61.087 
		723.775,66.286 730,72 734.607,78.635 738.507,86.651 742.19,94.45 744.788,103.116 746,114 745,124 742,133 737,141 732,147 
		726,153 718,158 708.176,160.745 699.944,160.961 693.659,159.661 	"/>
	<polygon fill="#00FF00" stroke="#800080" points="1280,156.172 1276.761,168.986 1271.72,177.752 1264.707,183.888 
		1257.257,187.832 1251,190 1240,191 1228,191 1218,189 1211,184 1204.883,178.409 1200,171 1195,164 1192,155 1189.762,143.566 
		1189,134 1190,123 1194,114 1199,107 1205,101 1213,97 1221,94 1231,91 1242.573,90.315 1253.97,90.753 1264.005,92.885 
		1273.144,96.323 1278.531,103.159 1280,115.255 1280,127.836 	"/>
	<polygon fill="#00FF00" stroke="#800080" points="57.797,768.114 48.976,767.347 39.964,764.471 31,763 23,762 14,759 8,753 
		4.107,744.913 1.998,737.435 0.272,724.012 0,711.55 1.039,699.277 1.039,687.772 4.107,681.445 11,675 19,671 28.843,668.022 
		38.047,668.406 46.292,671.092 55.112,673.968 66,676 74.862,678.378 81,683 86.175,690.842 90.585,698.128 93.845,710.592 
		93.845,723.053 93.078,736.094 90.393,745.872 86,753 79.272,759.486 72.369,764.471 66.042,766.965 	"/>
	<polygon fill="#00FF00" stroke="#800080" points="148.685,783.839 139.289,783.646 128.36,782.496 120.115,779.427 113,775 
		107,769 102.282,763.321 98.255,755.267 96.146,749.515 94.228,740.504 94.612,727.081 95.762,713.658 96.721,703.112 
		100.365,696.401 104.966,690.457 111,687 120,683 131,682 141.015,683.362 150,685 159.614,687.581 167,692 174.187,696.211 
		180.898,702.345 184.541,709.056 187.993,717.302 189.335,726.888 188.951,736.669 187.418,747.215 185.308,755.651 183,763 
		178,770 171,776 164,780 156.738,782.112 	"/>
	<polygon fill="#00FF00" stroke="#800080" points="353.469,819.053 345.027,818.812 336.344,817.365 332.002,814.953 325,809 
		319,803 314,796 308,790 306.436,783.597 308,774 311,764 315,756 319,749 324.043,742.352 331,736 339,732 346.716,730.294 
		357.087,728.604 366.011,730.534 374,735 378.795,739.459 384.823,746.453 388,757 390,767 390,779 387.719,789.144 
		385.066,798.31 379.277,806.028 374.452,811.336 368.663,814.47 360.464,816.884 	"/>
	<polygon fill="#00FF00" stroke="#800080" points="257.473,891.172 250,890 241,887 234.318,882.007 229,875 226,866 224,856 
		223,845 224,834 225,823 229.735,816.159 236.73,809.405 241.795,804.581 251.202,801.205 259.161,799.275 268.809,796.863 
		279.422,793.486 291.24,790.35 299.923,789.144 305.471,790.35 314,797 320,803 325,810 328,819 330,829 328,839 326,849 321,856 
		315,861 309,867 302,873 295,877 288,882 279.663,887.07 271,890 264.226,891.172 	"/>
	<polygon fill="#00FF00" stroke="#800080" points="926,852 914.681,853.984 902.326,854.241 890,852 882,848 874,844 
		868.996,838.284 865,829 862.563,818.723 862,808 862.821,797.361 866,788 870.327,780.695 876.847,774.843 885.082,768.536 
		892.805,764.16 901,762 910.692,760.943 923,762 932,765 939.389,770.339 944,777 947.495,785.136 950.455,793.631 952,803 
		951.742,813.705 950,825 946.724,835.324 942.991,841.244 937,847 932.183,850.123 	"/>
	<polygon fill="#00FF00" stroke="#800080" points="1013,949 1001,949 991,947 982,944 975,939 970,932 965,925 961,917 
		958.188,906.744 958,896 960,887 963.978,879.592 969,873 975,866 982,861 989.844,856.555 998,853 1006.83,850.25 1018,849 
		1028.449,851.022 1036,855 1043,860 1049,866 1053,874 1056,883 1057.532,893.103 1057,904 1055,913 1051.357,921.544 1046,929 
		1040,935 1033,940 1026.52,944.707 1019.571,947.151 	"/>
	<polygon fill="#00FF00" stroke="#800080" points="1172.265,414.088 1163.409,413.047 1154,412 1144,410 1135,407 1128,402 
		1122,396 1119,387 1116,378 1114.715,368.778 1115.495,360.185 1118,352 1123,344 1128,337 1133.986,331.28 1139.714,327.114 
		1148.047,322.947 1158.724,321.385 1167.838,321.124 1175.65,322.687 1181.379,324.249 1187.108,327.635 1192.836,333.364 
		1196.482,339.613 1200.128,347.165 1202.211,358.362 1204.293,368.258 1204.815,379.715 1204,389 1201,398 1195.961,403.412 
		1188.93,409.141 1181,413 	"/>
	<polygon fill="#00FF00" stroke="#800080" points="340.672,1023.864 340.072,1016.467 341.33,1009.224 342.905,1001.354 
		346.997,994.743 351.405,989.39 358.339,983.765 364.491,978.406 370.744,973.641 378.09,970.565 386.352,969.241 393.278,970.185 
		399.889,973.334 407.445,977.427 412.798,980.89 417.52,985.612 420.983,992.224 424.761,998.206 428.854,1000.41 433.261,999.466 
		438.614,999.466 443.651,1001.67 448.372,1005.761 453.096,1010.171 456.873,1014.577 460.022,1019.929 459.706,1024.022 	"/>
	<polygon fill="#00FF00" stroke="#800080" points="558.625,1024 560.625,1017.375 564.375,1011.125 569.25,1004.5 573.625,999.625 
		579.029,995.687 586.25,993.875 595.085,992.539 602.011,991.594 611.455,991.909 619.956,993.483 628.142,995.372 635.375,997.5 
		642.625,1000.625 648.375,1004.625 653.375,1011.375 656.161,1018.355 657.737,1024.022 	"/>
	<polygon fill="#00FF00" stroke="#800080" stroke-miterlimit="10" points="221.74,712.063 215.167,717.167 207.167,725.167 
		201.834,734.5 197.834,744.5 195.834,756.5 195.167,766.5 197.834,777.834 204.5,785.167 215.834,789.834 225.167,794.5 
		234.5,798.5 241.834,801.167 251.125,800.467 261.335,796.731 270.798,794.49 279.514,791.502 287.234,789.759 296.198,788.015 
		299.834,785.834 303.167,781.834 306.159,774.817 308.4,766.35 311.139,759.627 314.626,752.654 317.365,745.681 317.834,737.834 
		317.167,731.834 313.63,723.02 309.167,716.5 303.834,709.834 297.167,701.834 290.5,697.167 284.5,693.167 277.167,691.834 
		270.549,692.888 266.067,696.126 264.052,702.286 262.829,708.079 259.841,709.075 254.114,703.596 245.769,702.186 
		238.425,704.842 229.958,708.079 	"/>
</g>
</svg>
