<?xml version="1.0" encoding="utf-8"?>
<!-- Generator: Adobe Illustrator 16.0.1, SVG Export Plug-In . SVG Version: 6.00 Build 0)  -->
<!DOCTYPE svg PUBLIC "-//W3C//DTD SVG 1.1//EN" "http://www.w3.org/Graphics/SVG/1.1/DTD/svg11.dtd">
<svg version="1.1" id="Layer_1" xmlns="http://www.w3.org/2000/svg" xmlns:xlink="http://www.w3.org/1999/xlink" x="0px" y="0px"
	 width="1280px" height="1024px" viewBox="0 0 1280 1024" enable-background="new 0 0 1280 1024" xml:space="preserve">
<g id="Raw_image">
	
		<image overflow="visible" enable-background="new    " width="1280" height="1024" xlink:href="Neuroblastoma_13.jpg"  transform="matrix(1 0 0 1 2.441406e-004 -2.441406e-004)">
	</image>
</g>
<g id="Not_annotated" display="none" opacity="0.5">
	<polygon display="inline" fill="#0000FF" stroke="#800080" points="705,345 695,345 687,343 676,344 669,339 668,331 672,324 
		678,317 684,311 695,312 701,316 709,318 719,320 719,330 715,337 709,343 	"/>
	<polygon display="inline" fill="#0000FF" stroke="#800080" points="691,579 683,577 674,574 677,572 685,572 691,578 	"/>
	<polygon display="inline" fill="#0000FF" stroke="#800080" points="696,592 691,590 694,582 698,585 	"/>
	<polygon display="inline" fill="#0000FF" stroke="#800080" points="715,593 708,588 700,584 708,583 713,590 	"/>
	<polygon display="inline" fill="#0000FF" stroke="#800080" points="807,1011 797,1009 788,1006 780,1002 772,998 766,992 769,984 
		778,987 780,980 787,984 793,986 798,993 804,999 808,1007 	"/>
	<polygon display="inline" fill="#0000FF" stroke="#800080" points="792,868 785,863 789,862 	"/>
	<polygon display="inline" fill="#0000FF" stroke="#800080" points="820,632 810,630 810,622 815,614 820,619 823,628 	"/>
	<polygon display="inline" fill="#0000FF" stroke="#800080" points="831,960 822,957 818,949 819,943 825,949 831,955 	"/>
	<polygon display="inline" fill="#0000FF" stroke="#800080" points="829,791 825,785 833,780 833,788 	"/>
	<polygon display="inline" fill="#0000FF" stroke="#800080" points="845,918 836,915 828,911 825,902 826,892 833,887 841,891 
		845,899 853,903 857,911 854,917 	"/>
	<polygon display="inline" fill="#0000FF" stroke="#800080" points="853,879 843,877 840,869 851,868 856,875 	"/>
	<polygon display="inline" fill="#0000FF" stroke="#800080" points="849,795 842,790 846,783 852,783 855,792 	"/>
</g>
<g id="Clumps" display="none" opacity="0.5">
	<polygon display="inline" fill="#FF0000" stroke="#800080" points="334,574 324,572 313,571 305,569 298,564 290,560 281,559 
		273,555 270,546 270,534 269,523 274,516 277,507 281,498 286,491 291,485 298,479 304,473 308,465 313,458 319,452 325,447 
		332,441 339,436 349,434 361,434 367,429 361,423 355,417 350,410 350,400 351,389 354,379 354,368 360,362 366,356 375,352 
		384,349 393,346 400,342 406,337 413,341 421,340 431,339 441,338 447,342 454,347 460,353 465,360 470,367 474,375 474,387 
		475,398 471,406 467,414 477,416 486,413 494,409 500,404 511,402 519,406 526,411 533,416 541,413 550,415 555,422 561,428 
		567,434 567,445 564,454 557,460 553,468 548,474 541,480 539,490 541,500 538,508 532,514 524,518 513,520 506,524 496,523 
		492,531 486,536 477,535 467,535 458,538 449,539 439,537 431,541 420,542 414,536 410,528 407,519 403,511 402,500 401,489 
		404,480 409,473 415,467 421,460 427,454 421,449 411,452 401,451 393,447 387,450 394,455 398,463 400,473 398,483 397,493 
		392,500 387,508 383,516 382,527 379,536 375,544 371,552 366,559 360,564 354,571 345,573 	"/>
	<polygon display="inline" fill="#FF0000" stroke="#800080" points="1279,813 1273,809 1270,800 1265,793 1260,786 1256,778 
		1252,770 1249,761 1247,751 1245,741 1244,730 1239,723 1234,716 1228,710 1222,704 1216,698 1211,691 1205,685 1200,678 1196,670 
		1192,662 1187,655 1185,645 1182,636 1178,628 1173,621 1170,612 1168,602 1165,593 1158,588 1151,583 1145,577 1137,573 1133,565 
		1128,558 1124,550 1121,541 1121,529 1122,520 1128,514 1133,506 1140,502 1145,494 1152,489 1163,488 1173,490 1181,494 1188,499 
		1196,503 1203,508 1207,516 1209,526 1207,536 1211,544 1215,552 1216,563 1214,573 1212,583 1216,591 1218,601 1217,612 1222,619 
		1226,627 1231,634 1234,643 1237,652 1235,662 1235,672 1231,679 1229,690 1236,690 1241,683 1249,684 1254,691 1255,702 1260,709 
		1266,715 1270,723 1273,732 1276,741 	"/>
	<polygon display="inline" fill="#FF0000" stroke="#800080" points="841,983 833,979 826,974 820,968 809,969 799,967 791,963 
		783,965 775,967 771,959 766,962 763,955 765,945 764,934 764,924 760,916 759,905 761,895 763,885 763,875 763,863 762,854 
		761,843 761,833 756,826 748,822 740,827 730,826 720,828 712,824 709,815 706,806 703,797 702,786 707,778 713,772 716,764 
		717,753 718,742 720,732 723,723 726,713 729,705 730,694 731,683 733,673 737,665 741,657 746,649 751,643 758,638 768,635 
		779,636 789,638 797,642 804,647 812,651 819,656 825,662 829,670 833,678 837,686 841,694 844,703 849,710 854,717 857,726 
		859,736 861,746 865,754 868,763 873,770 878,777 883,784 886,793 892,799 898,805 903,812 909,818 913,826 917,834 920,843 
		920,853 917,861 914,871 914,881 918,889 923,896 921,906 913,907 909,908 912,917 909,926 904,932 895,929 892,922 898,917 
		903,922 906,914 904,904 896,900 891,893 886,886 880,880 876,889 879,898 872,900 863,897 869,890 863,885 859,877 860,868 
		854,862 850,854 857,850 863,856 863,866 870,871 877,876 885,872 887,863 884,854 880,846 876,838 874,828 868,822 864,814 
		862,804 859,795 860,788 859,779 853,773 849,765 844,758 842,748 835,745 830,753 827,762 824,771 822,780 816,787 810,792 
		801,795 794,800 788,807 781,811 775,818 772,827 775,836 776,845 776,855 774,865 775,876 779,884 786,889 789,898 794,896 
		797,887 806,884 802,876 797,869 798,860 797,849 798,840 798,830 798,818 802,810 807,803 817,802 825,804 835,804 844,807 
		852,811 855,820 859,828 864,835 870,841 872,851 866,850 861,843 853,839 845,839 840,846 834,840 829,833 830,822 826,814 
		819,814 815,822 812,831 806,837 809,844 809,855 804,863 805,872 809,880 812,889 812,898 810,909 815,916 821,922 827,927 
		818,931 813,938 813,946 813,956 818,963 827,964 835,961 843,962 847,970 844,978 	"/>
</g>
<g id="Single_nuclei" opacity="0.5">
	<polygon fill="#00FF00" stroke="#800080" points="84,393 72,393 62,391 54,387 46,383 41,376 40,365 39,354 39,342 42,333 45,324 
		50,317 57,311 66,308 76,306 86,308 95,311 102,316 108,322 113,329 119,335 123,343 125,353 124,364 121,372 116,380 110,386 
		103,390 92,391 	"/>
	<polygon fill="#00FF00" stroke="#800080" points="501,822 491.571,820.427 483,816 475,812 469,806 465,798 461,790 
		453.816,784.36 451,776 452,767 452.761,756.096 456.347,748.503 457,738 461,729 460.565,720.027 461.83,712.645 468,708 473,702 
		478,695 482,687 485,678 489,670 495,664 500,657 507,651 517,649 527.427,647.05 533,643 540,639 545.989,635.87 557,637 565,637 
		572,640 581,643 588.173,647.26 594,654 600,660 604,668 608.843,675.312 614.115,682.905 618,690 619,701 620,711 617,721 
		612,727 604,732 599,738 593.024,743.862 585,748 580,755 574,761 566,765 559,770 551,774 544,780 539,786 534,793 530,801 
		524,808 517,813 511,819 506.546,821.06 	"/>
	<polygon fill="#00FF00" stroke="#800080" points="863,557 851,557 842,554 835,549 828,544 820,540 813,535 805,531 798,526 
		791,521 784,516 774,514 763,513 754,510 748,504 742,498 740,488 739,478 740,468 741,457 745,449 751,443 758,437 764,431 
		770,425 776,419 786,417 797,418 807,416 818,415 830,415 837,420 845,424 853,428 861,432 868,437 873,444 878,451 882,459 
		884,469 885,480 887,490 887,502 887,514 886,525 884,535 881,544 875,549 868,555 	"/>
	<polygon fill="#00FF00" stroke="#800080" points="333,573 323,571 312,570 304,566 297,561 289,557 278,558 272,552 271,541 
		271,529 272,520 277,513 280,503 284,496 290,489 295,483 302,478 306,470 311,463 317,456 323,451 329,445 337,440 344,435 
		356,435 368,435 375,440 382,445 387,452 394,457 398,465 398,475 397,486 394,495 389,502 385,509 382,519 380,529 377,538 
		372,545 369,553 363,560 357,565 351,571 340,572 	"/>
	<polygon fill="#00FF00" stroke="#800080" points="735,830 725,828 717,824 709,820 706,811 704,801 703,790 702,780 706,773 
		710,765 713,756 715,746 717,736 719,726 722,716 724,707 727,698 730,688 732,679 736,671 739,662 743,653 748,646 754,640 
		760,634 770,634 781,635 791,637 798,642 806,646 813,651 819,657 824,664 829,671 832,680 834,690 835,701 837,711 836,720 
		834,730 832,740 830,750 828,760 825,769 821,777 818,786 812,792 806,798 800,803 792,808 785,812 778,817 770,822 762,825 
		752,827 741,829 	"/>
	<polygon fill="#00FF00" stroke="#800080" points="1159,587 1149,585 1142,580 1135,575 1129,569 1125,561 1122,552 1118,544 
		1120,534 1121,523 1123,512 1128,505 1133,499 1140,493 1146,488 1157,486 1168,487 1178,489 1186,493 1193,498 1200,503 1206,509 
		1210,517 1212,527 1214,537 1217,546 1219,556 1217,563 1212,570 1207,577 1199,581 1189,583 1179,585 1168,586 	"/>
	<polygon fill="#00FF00" stroke="#800080" points="0,107.354 23.318,111.558 43.391,112.471 65.289,107.909 81.834,102.167 
		95.398,93.31 108.172,83.274 118.209,70.5 126.42,58.639 134.632,44.952 141.931,34.004 142.844,23.967 141.019,13.931 
		137.369,8.456 131.563,0 0,0 	"/>
	<polygon fill="#00FF00" stroke="#800080" points="413.568,460.439 407.271,467.532 404.447,477.416 402.094,486.358 
		399.74,498.125 400.681,508.479 403.976,516.951 407.74,526.836 413.86,535.306 421.018,540.736 430.803,541.895 441.157,539.544 
		449.63,541.895 458.101,540.483 465.632,539.544 474.104,537.189 484.457,538.601 491.989,537.189 499.048,532.011 
		506.578,526.836 515.991,522.129 526.346,519.304 534.347,516.01 540.466,509.422 543.76,500.948 544.231,493.889 544.701,487.77 
		547.995,480.712 555.056,475.063 559.291,470.356 565.881,466.12 569.815,461.06 571.058,453.884 571.058,447.764 569.176,438.351 
		565.409,430.821 559.763,423.291 555.996,418.584 549.879,415.289 543.289,411.995 535.288,411.995 526.817,408.7 521.169,404.935 
		511.756,404.935 502.343,407.288 493.449,410.358 483.31,415.117 474.617,419.05 467.581,424.223 463.236,430.432 458.89,434.157 
		452.474,438.504 443.99,443.262 436.125,447.816 424.742,453.196 	"/>
	<polygon fill="#00FF00" stroke="#800080" points="36.645,1023.826 40.611,1018.393 42.804,1009.701 44.078,999.508 44.397,991.117 
		43.749,983.431 41.318,976.675 36.577,972.225 31.198,968.192 25.371,965.504 19.096,964.158 12.373,964.606 7.442,966.847 
		4.785,969.558 0.001,973.594 0.001,1024 	"/>
	<polygon fill="#00FF00" stroke="#800080" points="526.512,0.361 519,9.029 515.532,18.853 513.221,28.677 513.799,38.5 
		512.643,47.168 508.598,59.303 508.02,69.127 511.488,79.529 516.111,90.51 523.622,99.754 531.713,104.377 542.115,107.844 
		554.25,109 562.34,104.377 569.852,101.488 577.365,101.488 586.611,106.689 591.811,113.623 595.856,119.98 602.213,126.336 
		608.57,129.225 616.081,129.225 623.594,124.603 626.483,118.246 625.906,110.156 621.861,102.644 621.861,96.287 627.061,90.51 
		633.995,86.464 641.053,80.873 646.327,73.365 649.574,67.684 652.822,59.568 653.43,51.046 653.633,43.945 653.025,39.887 
		653.633,35.423 654.221,30.988 654.445,25.278 654.445,19.596 651.402,14.524 649.02,9.607 645.553,6.14 642.474,0.524 	"/>
	<polygon fill="#00FF00" stroke="#800080" points="353.615,372.93 351.734,386.579 351.263,399.287 352.675,412.936 356.91,423.29 
		363.5,430.821 373.384,437.41 382,445 392.209,449.177 404.447,452 417.626,452.471 430.334,449.647 438.335,444.47 
		448.219,439.294 456.22,434.116 461.866,427.527 467.515,419.055 473.634,410.583 477.399,400.699 478.34,389.874 478.34,376.225 
		474.574,366.812 467.515,356.458 457.16,347.516 448.689,343.28 431.745,338.103 420.449,335.749 405.86,337.161 393.622,339.985 
		382.326,344.692 371.973,351.281 363.501,359.753 	"/>
	<polygon fill="#00FF00" stroke="#800080" points="1067,543 1059,541 1051,539 1045,533 1043,532 1034,530 1027,525 1020,520 
		1012,516 1005,511 999,505 992,500 984.439,495.054 979,489 975,481 970,474 966,466 963,459 960,450 959,441 958,432 959,421 
		961,411 965.552,403.89 969,397 973,388 979,382 986,377 994,373 1005,374 1015,374 1023,376 1030,379 1038,383 1047,386 
		1054.536,390.452 1062,395 1069,400 1077,404 1084,409 1090,415 1095,422 1099,430 1101,436 1103,444 1104,455 1103,464 1104,471 
		1107,479 1107,486 1107,494 1106,503 1104,512 1098,519 1093,526 1089,534 1082,539 1073,541 	"/>
	<polygon fill="#00FF00" stroke="#800080" points="618.5,584.5 621.947,600.01 626.5,620.5 632.059,638.105 638.5,658.5 
		645.528,669.043 654.5,682.5 670.5,696.5 688.045,697.596 703.672,694.715 713.928,686.034 724.5,674.5 741.066,652.518 
		752.5,628.5 753.073,602.43 745.783,584.281 733.862,569.496 723.815,560.427 716.022,554.058 707.103,546.168 694.5,538.5 
		676.57,530.044 655.643,529.014 640.307,534.145 626.5,544.5 619.964,562.635 	"/>
</g>
</svg>
