<?xml version="1.0" encoding="utf-8"?>
<!-- Generator: Adobe Illustrator 16.0.1, SVG Export Plug-In . SVG Version: 6.00 Build 0)  -->
<!DOCTYPE svg PUBLIC "-//W3C//DTD SVG 1.1//EN" "http://www.w3.org/Graphics/SVG/1.1/DTD/svg11.dtd">
<svg version="1.1" id="Layer_1" xmlns="http://www.w3.org/2000/svg" xmlns:xlink="http://www.w3.org/1999/xlink" x="0px" y="0px"
	 width="1280px" height="1024px" viewBox="0 0 1280 1024" enable-background="new 0 0 1280 1024" xml:space="preserve">
<g id="Raw_image">
	
		<image overflow="visible" enable-background="new    " width="1280" height="1024" xlink:href="Neuroblastoma_7.jpg"  transform="matrix(1 0 0 1 2.441406e-004 -2.441406e-004)">
	</image>
</g>
<g id="Not_annotated" opacity="0.5">
	<polygon fill="#0000FF" stroke="#800080" points="6,1023 6,1015 3,1009 11,1012 12,1022 	"/>
	<polygon fill="#0000FF" stroke="#800080" points="9,127 3,121 8,119 14,121 10,126 	"/>
	<polygon fill="#0000FF" stroke="#800080" points="50,113 47,107 53,101 59,103 65,109 57,112 	"/>
	<polygon fill="#0000FF" stroke="#800080" points="86,138 81,131 75,125 69,119 77,114 84,114 84,107 90,109 89,120 89,130 	"/>
	<polygon fill="#0000FF" stroke="#800080" points="388,920 384,914 379,907 383,901 388,894 387,885 381,891 375,897 368,902 
		358,904 350,900 343,895 346,889 350,884 346,876 337,873 335,866 341,860 347,854 355,850 360,857 361,866 356,872 359,878 
		359,886 366,883 374,885 381,881 372,880 363,879 361,871 369,872 377,876 382,870 382,861 389,864 389,874 390,883 396,888 
		392,897 393,907 392,917 	"/>
	<polygon fill="#0000FF" stroke="#800080" points="408,868 398,866 394,858 388,852 381,851 373,853 373,845 382,841 388,845 
		393,848 403,848 410,853 405,858 411,864 	"/>
	<polygon fill="#0000FF" stroke="#800080" points="400,1005 398,999 396,991 390,992 390,1001 382,1001 376,995 381,988 385,980 
		390,972 394,972 392,980 400,980 411,979 414,986 411,994 407,1003 	"/>
	<polygon fill="#0000FF" stroke="#800080" points="397,943 387,941 389,934 395,940 	"/>
	<polygon fill="#0000FF" stroke="#800080" points="398,1023 394,1016 398,1008 407,1009 404,1016 	"/>
	<polygon fill="#0000FF" stroke="#800080" points="407,944 402,940 408,935 406,929 406,924 406,913 407,902 406,894 410,887 
		418,882 427,881 435,879 439,876 432,872 425,877 420,871 427,868 435,863 443,861 445,867 451,867 456,874 460,882 462,892 
		464,902 462,912 460,922 457,931 451,936 442,936 434,937 425,936 416,939 408,943 	"/>
	<polygon fill="#0000FF" stroke="#800080" points="416,976 409,972 405,967 406,956 411,960 417,966 418,974 	"/>
	<polygon fill="#0000FF" stroke="#800080" points="418,1023 419,1017 424,1011 424,1003 430,997 440,996 448,997 457,995 463,1001 
		470,1001 476,994 482,998 486,1006 489,1014 485,1022 	"/>
	<polygon fill="#0000FF" stroke="#800080" points="421,864 419,855 423,849 430,854 428,861 	"/>
	<polygon fill="#0000FF" stroke="#800080" points="444,987 435,984 439,976 431,972 429,964 431,954 439,951 448,948 456,944 
		465,941 474,944 480,950 486,956 486,966 484,976 479,982 469,984 459,982 458,974 463,968 458,968 452,973 449,982 	"/>
	<polygon fill="#0000FF" stroke="#800080" points="483,282 478,275 484,278 	"/>
	<polygon fill="#0000FF" stroke="#800080" points="513,324 504,321 508,314 513,308 517,302 511,296 509,288 516,282 511,278 
		505,273 500,279 490,279 487,272 483,264 483,261 491,261 497,260 500,254 503,261 512,260 520,260 525,253 533,257 539,263 
		546,268 551,275 562,276 566,283 561,291 560,299 557,308 553,310 545,310 546,317 538,315 531,320 522,317 515,315 514,323 	"/>
	<polygon fill="#0000FF" stroke="#800080" points="498,961 492,955 499,957 	"/>
	<polygon fill="#0000FF" stroke="#800080" points="541,1001 533,997 526,998 521,991 513,987 517,980 520,972 512,968 504,966 
		501,957 507,950 515,946 525,946 531,940 539,938 547,936 554,931 561,927 568,921 578,921 584,916 586,919 593,924 598,918 
		603,910 608,915 615,916 623,920 630,921 635,926 636,935 629,933 623,927 617,930 619,934 621,942 620,950 614,953 613,959 
		604,956 600,964 599,972 593,977 587,983 580,988 571,991 562,994 554,998 544,1000 	"/>
	<polygon fill="#0000FF" stroke="#800080" points="527,232 519,228 522,226 528,227 531,231 	"/>
	<polygon fill="#0000FF" stroke="#800080" points="553,268 547,262 541,258 535,252 535,247 542,252 548,258 552,251 560,252 
		561,246 566,250 563,259 560,263 	"/>
	<polygon fill="#0000FF" stroke="#800080" points="574,561 569,557 577,557 	"/>
	<polygon fill="#0000FF" stroke="#800080" points="602,274 594,270 598,266 600,260 592,256 589,251 592,241 599,236 606,241 
		609,249 601,254 606,258 614,257 615,262 609,268 603,273 	"/>
	<polygon fill="#0000FF" stroke="#800080" points="613,906 606,901 597,905 596,900 604,896 608,891 610,884 614,892 613,901 	"/>
	<polygon fill="#0000FF" stroke="#800080" points="617,975 610,973 609,968 617,964 618,973 	"/>
	<polygon fill="#0000FF" stroke="#800080" points="623,1023 618,1019 629,1020 639,1022 	"/>
	<polygon fill="#0000FF" stroke="#800080" points="631,956 628,950 631,946 632,954 	"/>
	<polygon fill="#0000FF" stroke="#800080" points="696,1023 697,1015 702,1008 708,1003 715,998 722,992 726,985 733,987 738,994 
		744,994 753,993 758,1000 762,1006 768,1008 773,1015 766,1013 767,1019 778,1018 	"/>
	<polygon fill="#0000FF" stroke="#800080" points="779,236 768,235 760,231 758,226 767,229 776,232 785,231 780,235 	"/>
	<polygon fill="#0000FF" stroke="#800080" points="890,964 883,959 880,950 887,946 892,953 892,962 	"/>
	<polygon fill="#0000FF" stroke="#800080" points="996,745 995,736 986,738 983,737 987,729 992,723 997,715 996,724 1000,730 
		1001,739 	"/>
	<polygon fill="#0000FF" stroke="#800080" points="1228,971 1220,967 1212,965 1202,965 1200,957 1205,949 1215,949 1227,949 
		1236,950 1247,951 1257,953 1266,956 1270,964 1263,968 1253,968 1244,969 1234,969 	"/>
	<polygon fill="#0000FF" stroke="#800080" points="1279,128 1273,124 1269,116 1268,110 1269,102 1272,93 1272,85 1267,78 1261,72 
		1258,63 1260,52 1266,46 1274,45 1271,38 1275,32 1278,26 	"/>
	<polygon fill="#0000FF" stroke="#800080" points="1279,940 1271,938 1272,930 	"/>
</g>
<g id="Clumps" display="none" opacity="0.5">
	<polygon display="inline" fill="#FF0000" stroke="#800080" points="0,164 4,157 11,153 17,148 25,146 34,144 42,144 46,141 49,132 
		56,126 62,132 60,139 52,142 57,149 64,154 69,161 76,166 80,174 82,184 84,194 80,202 74,208 70,216 66,223 60,229 52,234 47,240 
		42,247 35,253 29,258 17,258 8,255 3,248 	"/>
	<polygon display="inline" fill="#FF0000" stroke="#800080" points="0,900 9,897 19,899 29,901 38,904 46,908 51,915 54,924 59,931 
		60,940 65,946 63,955 62,966 64,973 58,980 57,991 55,1000 50,1008 55,1015 63,1017 73,1017 82,1020 	"/>
	<polygon display="inline" fill="#FF0000" stroke="#800080" points="124,1023 115,1021 107,1018 106,1009 100,1003 90,1001 84,995 
		79,988 74,981 73,970 75,960 79,952 82,942 87,936 90,927 96,920 103,916 111,919 120,916 120,907 123,898 125,888 130,880 
		135,874 139,866 145,859 152,854 160,850 168,846 174,841 177,832 179,822 180,813 179,802 179,792 170,791 160,793 149,792 
		139,790 130,787 122,783 117,776 111,770 108,762 110,753 107,744 102,737 102,727 101,716 102,705 107,698 114,692 123,693 
		132,693 137,686 145,682 151,676 148,667 146,657 143,648 137,642 136,633 141,626 147,619 153,613 161,609 170,606 181,605 
		192,604 190,597 183,592 176,587 171,580 169,570 166,561 168,551 173,543 179,538 188,536 195,531 202,526 212,524 218,518 
		227,515 237,517 243,523 249,529 258,530 267,527 272,534 270,544 281,545 289,542 296,536 302,540 306,548 314,544 323,547 
		325,544 319,538 317,530 318,523 309,521 304,518 309,511 314,505 325,503 335,501 333,494 323,494 315,490 310,483 304,477 
		299,470 296,461 294,451 292,441 292,431 284,433 272,433 262,431 253,428 245,432 234,431 227,426 220,421 213,416 213,406 
		208,399 204,391 204,383 206,374 207,366 200,361 199,351 197,342 187,345 180,349 174,356 178,364 186,368 189,377 193,385 
		190,394 187,403 181,409 180,418 179,428 174,435 168,441 160,445 150,448 140,449 130,447 121,444 117,447 116,456 117,466 
		113,474 107,481 101,487 94,492 84,493 73,494 63,494 52,495 41,494 33,490 27,484 23,476 18,469 17,458 17,446 20,436 24,429 
		27,419 31,412 40,408 46,403 53,397 60,393 70,390 80,392 87,388 90,379 97,373 103,368 108,360 113,353 122,350 131,347 133,340 
		128,333 123,326 116,321 107,322 96,323 87,320 79,316 72,311 65,306 60,299 55,292 49,286 45,278 46,267 48,256 52,249 59,244 
		67,239 73,234 82,230 92,228 104,228 114,228 116,219 115,208 117,198 120,189 125,181 130,175 137,170 143,163 144,155 144,143 
		142,133 140,123 141,112 146,104 149,96 155,89 161,83 168,79 177,79 183,84 187,76 196,75 205,71 216,72 224,70 234,70 244,68 
		255,69 263,73 271,77 277,83 282,90 287,97 292,104 296,112 299,121 301,131 299,141 297,150 293,158 287,165 280,169 272,174 
		264,177 255,181 248,185 240,189 231,193 238,198 248,198 258,199 268,196 277,199 282,206 288,212 294,218 296,228 296,238 
		294,248 289,253 296,256 298,248 305,251 310,252 318,256 315,250 314,246 322,250 328,256 333,263 340,266 340,276 338,285 
		335,295 332,303 327,309 332,316 337,323 344,328 355,329 359,322 363,314 370,309 369,302 362,299 358,291 356,281 359,279 
		367,283 372,290 378,292 382,300 380,308 379,317 379,327 378,336 377,344 375,351 377,359 375,369 370,376 373,381 373,389 
		379,395 373,396 367,403 367,411 375,415 385,417 392,415 400,410 403,402 397,400 391,394 382,391 383,384 389,378 395,371 
		391,364 383,364 383,354 386,345 390,337 395,330 400,323 403,314 408,307 415,302 421,295 429,291 440,292 452,292 461,295 
		470,298 477,303 481,311 486,318 486,328 489,335 496,340 495,347 497,353 495,363 492,371 484,375 475,379 465,380 456,379 
		448,384 441,388 432,387 433,395 442,398 448,404 454,410 459,417 463,425 466,434 469,443 468,453 467,465 463,473 458,480 
		453,486 448,493 442,499 436,505 430,512 422,515 413,519 415,527 417,537 417,547 415,557 412,566 408,574 403,581 396,585 
		387,588 378,591 369,594 364,594 369,601 372,610 371,619 365,625 360,632 352,635 343,638 335,643 328,647 319,648 316,658 
		315,669 308,673 307,679 317,677 326,675 335,673 346,674 353,679 359,685 364,692 366,700 375,703 379,711 381,721 381,731 
		378,740 375,749 370,755 365,762 359,769 354,776 348,782 341,786 332,789 323,789 325,795 327,805 325,815 321,823 317,831 
		313,839 306,843 307,849 308,858 315,863 321,869 325,876 329,883 332,892 335,901 339,909 337,919 335,929 333,939 330,948 
		326,956 325,967 319,973 318,981 310,985 303,980 295,984 290,991 295,997 302,992 310,992 318,996 323,1003 323,1013 318,1020 	
		"/>
	<polygon display="inline" fill="#FF0000" stroke="#800080" points="487,147 477,145 468,142 461,137 457,129 457,121 455,111 
		456,102 464,97 468,90 468,82 461,88 456,95 451,101 444,106 434,108 424,106 418,100 411,95 410,84 409,73 407,63 398,62 392,56 
		395,46 405,44 409,39 408,31 413,25 419,18 425,13 433,9 443,8 452,5 462,5 470,9 479,12 485,18 488,27 488,37 486,45 481,52 
		487,58 493,53 497,44 508,45 517,48 527,48 534,53 541,58 546,65 549,74 552,83 553,94 551,104 550,114 545,122 540,128 534,134 
		525,137 515,139 507,143 498,146 	"/>
	<polygon display="inline" fill="#FF0000" stroke="#800080" points="587,690 575,690 565,688 557,684 549,680 543,674 540,665 
		537,656 532,649 527,642 526,631 528,621 533,614 542,610 550,606 559,604 565,597 567,588 573,581 581,577 588,573 585,564 
		580,557 576,549 571,542 566,535 561,528 554,523 546,519 540,513 537,504 535,494 530,487 526,479 523,470 521,460 523,450 
		525,440 527,430 530,421 530,411 527,402 519,400 513,394 514,384 512,375 513,367 515,359 520,352 525,345 529,338 538,335 
		547,336 557,337 567,338 577,335 585,332 594,328 602,325 610,321 621,319 632,320 640,324 648,328 656,326 660,319 668,314 
		674,318 680,324 689,321 699,319 708,317 716,312 725,312 734,310 745,311 755,309 762,304 769,299 778,296 788,296 796,300 
		803,305 814,304 825,305 835,307 843,311 849,317 851,327 855,335 857,345 858,356 855,365 854,374 848,380 841,385 834,390 
		826,394 816,395 809,400 802,405 796,411 791,419 787,426 786,432 786,437 777,439 769,438 760,439 750,439 741,442 733,447 
		726,450 717,453 710,455 704,462 700,469 697,478 692,486 690,496 690,508 691,518 692,528 693,537 696,546 700,554 704,562 
		710,568 715,575 720,582 725,589 729,597 731,605 732,613 731,621 730,632 728,639 727,650 722,657 710,657 699,656 691,654 
		683,658 673,658 663,658 654,657 644,657 636,653 629,658 626,668 620,674 614,679 607,684 598,688 588,689 	"/>
	<polygon display="inline" fill="#FF0000" stroke="#800080" points="939,1023 946,1019 956,1019 959,1013 954,1006 950,998 946,990 
		940,984 933,987 923,987 917,981 917,971 915,961 914,952 917,943 914,934 912,926 907,931 898,930 890,926 888,918 884,921 
		878,926 870,924 866,916 868,906 868,894 870,884 875,876 880,870 889,868 897,870 905,867 909,861 902,856 894,852 889,845 
		883,839 881,829 879,819 877,809 869,809 860,812 849,811 840,808 831,805 825,799 821,791 816,784 813,775 810,766 810,756 
		808,746 808,736 810,726 811,717 804,712 796,708 789,703 783,697 779,689 776,680 773,671 770,662 768,652 769,641 768,630 
		761,634 759,644 756,653 749,658 746,666 735,665 729,671 724,678 724,669 731,664 735,657 740,650 742,640 739,633 742,624 
		742,614 742,602 740,592 736,584 730,578 725,571 720,564 715,557 710,550 707,541 704,532 702,524 702,514 701,505 701,497 
		704,488 708,480 711,471 716,464 723,462 730,457 739,454 748,451 757,450 767,450 776,449 784,448 791,452 800,455 809,458 
		816,463 820,471 825,478 826,489 828,499 832,507 831,518 834,527 842,531 850,535 857,540 862,547 867,554 871,562 870,571 
		876,577 873,583 873,594 872,602 871,610 866,616 861,624 867,630 876,628 886,625 898,625 908,623 915,618 919,610 922,602 
		925,593 919,599 918,591 923,585 930,584 934,575 933,565 930,556 925,549 921,541 916,534 912,526 908,518 905,509 903,499 
		903,487 904,475 905,465 908,455 907,447 901,441 894,436 889,429 885,421 882,412 879,403 878,392 880,382 883,373 886,363 
		890,356 893,347 887,341 881,335 877,327 874,318 873,307 875,297 879,288 885,282 894,279 901,274 907,268 913,262 920,258 
		929,254 939,252 946,248 953,242 960,237 969,234 979,234 985,240 991,246 1000,249 1008,253 1018,255 1027,258 1035,262 1041,268 
		1044,277 1047,286 1046,297 1044,307 1040,315 1034,321 1028,327 1024,335 1019,342 1012,347 1004,350 994,352 985,355 977,355 
		972,361 974,371 976,381 977,390 974,397 982,401 991,400 996,407 1005,410 1011,416 1016,423 1021,430 1027,436 1034,441 
		1044,443 1048,436 1045,427 1046,416 1050,408 1058,403 1063,397 1070,391 1075,385 1082,379 1091,376 1100,373 1111,372 1121,374 
		1129,378 1139,378 1148,381 1158,383 1166,387 1170,395 1178,399 1185,403 1192,403 1199,408 1202,417 1203,428 1206,435 1212,441 
		1216,449 1220,457 1219,468 1217,478 1214,486 1211,495 1206,503 1213,508 1219,514 1227,514 1232,521 1237,528 1243,534 1247,542 
		1250,551 1249,560 1247,568 1248,578 1252,579 1257,572 1263,567 1266,559 1273,554 	"/>
	<polygon display="inline" fill="#FF0000" stroke="#800080" points="930,0 932,10 933,20 931,31 928,39 921,45 914,49 903,50 
		894,53 884,53 881,57 885,65 888,74 891,83 890,94 888,104 884,111 878,117 872,123 865,129 857,132 846,133 836,133 839,135 
		841,145 842,154 838,162 836,172 833,180 827,186 821,193 814,198 808,203 800,207 791,211 782,213 774,209 767,204 760,199 
		753,194 748,187 744,179 744,167 744,157 747,147 751,140 757,133 762,127 765,118 772,113 783,111 788,105 789,94 788,83 790,73 
		795,66 800,59 805,52 812,47 819,42 826,37 837,35 847,37 856,37 854,29 848,23 843,16 836,19 829,25 821,28 811,31 801,30 791,28 
		783,24 775,20 770,13 765,6 	"/>
	<polygon display="inline" fill="#FF0000" stroke="#800080" points="799,1023 794,1016 791,1007 788,998 782,992 776,986 773,979 
		774,968 778,959 779,951 776,942 772,935 778,929 784,935 790,941 797,940 800,932 798,924 790,920 782,916 775,911 772,902 
		768,894 765,885 763,875 763,863 766,854 771,846 776,839 781,833 789,828 797,824 807,822 817,822 826,825 835,826 843,830 
		848,837 852,845 857,852 858,863 865,868 864,877 860,885 856,893 858,903 857,914 854,922 853,930 857,938 861,946 864,955 
		866,965 866,977 867,988 868,997 863,1004 858,1011 854,1018 844,1021 	"/>
	<polygon display="inline" fill="#FF0000" stroke="#800080" points="1060,0 1068,4 1072,12 1075,21 1074,32 1072,41 1068,50 
		1064,58 1059,65 1051,68 1042,71 1033,74 1023,76 1012,77 1001,78 990,77 982,73 977,66 973,58 972,48 968,41 969,30 972,20 
		966,15 957,16 948,13 941,8 939,0 	"/>
	<polygon display="inline" fill="#FF0000" stroke="#800080" points="1043,172 1032,171 1022,169 1013,166 1005,162 999,156 993,150 
		988,143 985,134 986,123 988,113 993,106 998,99 1005,93 1012,89 1021,85 1030,83 1040,80 1048,77 1058,78 1068,78 1072,71 
		1074,61 1077,51 1083,46 1084,35 1089,27 1095,22 1105,19 1114,16 1125,15 1135,17 1143,21 1152,24 1158,30 1164,36 1169,43 
		1171,53 1172,64 1170,74 1169,84 1164,92 1159,98 1152,103 1146,109 1139,114 1131,118 1120,117 1108,117 1098,115 1091,110 
		1085,113 1087,123 1087,135 1084,144 1081,152 1075,159 1067,162 1058,165 1050,169 	"/>
	<polygon display="inline" fill="#FF0000" stroke="#800080" points="1279,922 1269,924 1261,925 1255,930 1246,934 1236,935 
		1226,933 1216,934 1209,930 1200,927 1194,921 1191,912 1187,904 1184,895 1181,886 1178,877 1173,870 1173,861 1177,854 1180,844 
		1185,838 1190,831 1187,822 1188,811 1190,800 1193,792 1200,786 1207,781 1212,775 1214,764 1215,754 1219,745 1225,739 1234,736 
		1246,736 1255,739 1265,741 1274,744 	"/>
</g>
<g id="Single_nuclei" opacity="0.5">
	<polygon fill="#00FF00" stroke="#800080" points="435,739 424,738 414,736 405,733 399,727 397,717 397,707 400,698 399,687 
		400,676 403,666 406,657 410,650 415,642 420,636 427,630 435,626 446,625 457,626 461,634 469,634 480,633 488,637 490,647 
		492,657 491,668 490,679 486,686 480,692 473,697 467,703 462,711 461,719 454,725 448,730 441,735 	"/>
	<polygon fill="#00FF00" stroke="#800080" points="473,610 461,610 452,607 445,602 439,596 434,589 431,580 430,569 428,559 
		429,548 429,536 432,526 437,519 442,513 448,507 457,503 466,500 477,501 486,504 493,509 500,514 506,520 511,527 516,534 
		520,542 522,552 521,563 517,571 513,579 509,587 505,594 498,599 490,603 482,607 	"/>
	<polygon fill="#00FF00" stroke="#800080" points="0,156.039 8.611,152.316 17.047,148.098 24,147 35,146 46,147 55,150 62,155 
		69,160 75,166 79,174 82,183 83,193 81,203 76,210 71,217 65,224 59,230 53,236 49.056,242.884 42.853,249.832 35.906,256.035 
		27,258 18,258 8,256 0,252 	"/>
	<polygon fill="#00FF00" stroke="#800080" points="0,893 10,893 21,894 29,898 37,902 44,907 50,913 54,921 57,930 59,940 61,950 
		60,959 56,967 52,975 47,981 41,987 35,994 28,998 17,999 7,997 0,992 	"/>
	<polygon fill="#00FF00" stroke="#800080" points="62,495 50,495 40,493 32,489 27,482 22,475 18,467 17,456 17,444 20,435 25,427 
		27,418 32,411 41,407 47,402 54,397 62,392 72,390 81,392 86,398 90,406 95,413 99,421 104,428 109,435 114,442 118,450 116,460 
		116,469 111,477 105,483 99,489 91,492 80,493 70,493 	"/>
	<polygon fill="#00FF00" stroke="#800080" points="143,449 132,448 122,446 116,440 110,434 105,427 100,420 96,412 92,404 88,396 
		88,387 91,378 97,373 104,367 108,360 113,353 123,350 132,347 141,350 151,352 161,354 170,357 177,362 185,366 188,375 192,383 
		191,392 188,401 183,407 180,415 180,426 175,434 169,440 162,444 153,447 	"/>
	<polygon fill="#00FF00" stroke="#800080" points="216,193 205,192 196,189 191,182 185,176 178,171 170,167 160,165 151,162 
		145,156 142,147 139,138 136,129 138,119 141,110 144,100 149.132,93.482 154,87 161,81 168,76 178,74 189,73 199,72 210,70 
		220,68 231,67 243,67 254,68 262,72 270,76 278,80 283,87 288,94 293,101 297,109 298,120 299,131 297,141 295,151 290,157 
		284,164 278.919,169.007 271.621,173.132 264.322,177.892 256.706,181.383 246.235,185.191 237.667,188.047 229.416,189.633 
		221.8,192.172 	"/>
	<polygon fill="#00FF00" stroke="#800080" points="152.641,256.997 146,256 140,250 135,243 128,238 122,232 114,228 110,220 
		109,211 113,202 116,194 120,185 124,178 130,172 137.99,167.489 145,164 156,165 166.148,167.26 175,170 182,175 189,180 195,186 
		200,193 200,205 200,217 199,228 198,238 193,246 186,250 177,254 168,256 157,257 	"/>
	<polygon fill="#00FF00" stroke="#800080" points="108,321 96,321 85,320 76,317 68,313 62,307 56,301 51,294 46,287 43,278 42,267 
		45,257 48.808,250.08 53.275,243.877 60,237 69,233 77,229 86,226 94,224 104,226 114,228 122,232 128,238 135,243 138,252 
		140,262 138,272 134,280 130,288 126,296 123,305 120,314 115,320 	"/>
	<polygon fill="#00FF00" stroke="#800080" points="161,350 151,348 142,345 133,342 128,335 123,328 119,320 122,310 124,301 
		128,292 132,284 136,276 141,270 149,265 157,261 166,258 175,255 185,255 194,258 201.631,261.804 208,268 212,276 217,283 
		219.945,295.456 218,306 213,313 209.643,319.95 204.378,328.421 199.342,335.746 194.305,341.927 186,345 177,348 166,349 	"/>
	<polygon fill="#00FF00" stroke="#800080" points="491,150 482,147 474,143 466,139 459,134 454,127 450,119 450,108 455,102 
		461,95 466,88 471,82 477,75 482,69 487,61 490,53 494,45 504,42 515,41 524,44 533,47 541,51 547,57 551,65 554,74 555,83 554,94 
		553,105 549,112 544,120 539,127 533,133 527,138 520,143 511,146 501,148 	"/>
	<polygon fill="#00FF00" stroke="#800080" points="460,0 470,2 478,6 485,11 490,18 493,27 495,37 494,45 490,54 486,62 482,69 
		476,76 471,82 465,89 460,95 454,102 449,108 439,110 428,109 421,104 413,100 409,92 405,84 402,75 400,65 395,58 389,52 389,40 
		393,32 399,25 405,20 412,14 418,8 425,3 435,1 446,0 	"/>
	<polygon fill="#00FF00" stroke="#800080" points="621,421 611,419 603,415 594,412 586,408 581,401 575,395 570,388 567,379 
		565,369 563,359 568,352 573,345 578,338 585,332 592,327 599,323 608,319 618,317 628,317 637,320 644,325 650,331 656,337 
		662,343 666,351 669,360 669,370 668,379 665,387 659,393 652,398 645,404 639,409 632,415 626,420 	"/>
	<polygon fill="#00FF00" stroke="#800080" points="563,528 555,524 546,521 539,516 534,509 530,501 527,492 525,482 523,472 
		523,462 523,450 524,439 530,432 536,426 542,421 550,416 558,412 566,408 574,406 583,409 592,412 601,415 610,418 618,422 
		622,429 619,438 614,446 610,453 605,460 600,467 595,475 593,484 590,493 587,503 583,511 580,519 574,525 564,527 	"/>
	<polygon fill="#00FF00" stroke="#800080" points="604,549 597,544 591,538 585,532 579,526 581,517 584,509 588,501 592,492 
		595,484 599,476 603,467 606,459 611,452 616,444 620,437 627,433 639,433 645,439 651,445 657,451 662,458 667,465 672,472 
		677,479 679,489 679,501 677,510 673,518 669,526 665,534 656,537 647,540 638,543 628,545 617,547 607,548 	"/>
	<polygon fill="#00FF00" stroke="#800080" points="669,658 659,656 649,654 639,652 633,646 627,640 621,634 618,625 616,615 
		615,604 613,594 612,583 614,575 617,566 620,557 626,550 636,548 646,546 656,544 667,545 675,549 681,555 688,560 694,566 
		698,574 703,581 707,589 711,597 713,607 713,619 709,627 705,634 700,641 693,647 687,653 678,655 	"/>
	<polygon fill="#00FF00" stroke="#800080" points="577,695 565,695 558,690 552,684 546,678 541,671 535,665 530,658 525,651 
		526,640 527,629 528,618 535,612 543,608 552,605 557,598 560,590 567,584 575,580 584,577 593,580 601,584 610,587 612,597 
		614,607 616,617 618,627 622,635 628,641 634,647 632,657 631,667 626,674 620,680 612,684 604,689 597,693 586,694 	"/>
	<polygon fill="#00FF00" stroke="#800080" points="749,436 737,436 725,436 715,434 707,430 699,426 691,422 685,416 682,407 
		679,398 676,389 673,380 669,372 670,363 673,354 676,345 680,336 683,328 691,323 698,319 706,315 714,310 723,309 735,309 
		746,310 755,313 754,324 757,333 761,341 764,350 768,358 773,365 778,372 783,379 783,389 782,400 779,409 775,416 770,423 
		762,428 755,432 	"/>
	<polygon fill="#00FF00" stroke="#800080" points="821,395 809,395 797,395 790,390 786,382 781,375 777,367 773,359 768,352 
		764,344 760,336 755,329 755,319 756,308 760.5,298.499 768,295 778,293 787.167,293.499 795,296 803,300 813,302 822,305 831,308 
		839,312 845,318 849,326 853,334 853,344 851,354 849,364 846,372 839,378 833,384 827,389 	"/>
	<polygon fill="#00FF00" stroke="#800080" points="782,551 770,551 759,550 750,547 742,543 735,538 728,533 720,529 713,524 
		712,513 712,501 712,489 718,482 723,476 730,470 739,467 749,467 759,469 769,471 777,467 783,462 794,460 805,461 814,464 
		820,470 824,478 827,487 830,496 830,508 830,517 825,525 818,529 810,534 803,538 795,543 788,547 	"/>
	<polygon fill="#00FF00" stroke="#800080" points="946.167,865.833 939,864 929,864 918,863 909,860 901,856 894,851 
		888.167,846.833 883,838 881,828 879,818 881,810 886,802 891,795 895,788 900,781 905,773 910,766 918,762 928,760 939,761 
		949,763 958,766 965,771 970,778 977,783 984,786 988,794 988,804 987,815 985,825 981,833 975,838 968,844 964,851 
		960.834,859.833 954.5,864.166 	"/>
	<polygon fill="#00FF00" stroke="#800080" points="969.64,562.291 958.913,560.85 947,555 938,552 930,548 924,542 919,535 914,528 
		910,520 905,513 905,501 905,489 905,477 905,465 910,458 915,451 920,444 925,437 931,430 937,424 944,420 952,415 959,410 
		967,406 975,403 984,399 996,399 1004,403 1011,408 1017,414 1024,419 1030,425 1037,430 1043,436 1046,445 1048,455 1049,466 
		1051,476 1054,485 1057,494 1056.245,504.341 1053.364,514.906 1046.8,520.51 1039.437,525.952 1032.073,530.114 1023.908,534.276 
		1017.025,538.598 1010.461,543.241 1003.577,547.243 996.373,551.405 990.931,555.248 984.688,559.41 978.5,561.5 	"/>
	<polygon fill="#00FF00" stroke="#800080" points="1036.715,641.852 1024.229,641.692 1012.222,638.171 1002.777,632.567 
		994.773,627.125 989.49,621.361 983,616 979.244,609.676 976,599 975,588 975,580 977,573.5 979.5,569 985.488,561.491 
		991.411,557.009 999.095,552.526 1004.858,548.844 1012.542,543.882 1019.906,539.399 1028.231,534.596 1037.675,530.755 
		1048.5,528.5 1056.5,528.5 1064.249,528.674 1073.054,528.353 1083,529 1093,531 1102.829,533.797 1111.475,536.838 1119,541 
		1126,546 1133,551 1136,560 1136,572 1136,584 1136,596 1132,603 1127,611 1122,618 1116.597,623.282 1110,629 1102,634 1095,638 
		1084,639 1072.253,642.173 1062.489,646.495 1052.564,644.574 1044.559,639.931 	"/>
	<polygon fill="#00FF00" stroke="#800080" points="1132,543 1123,540 1114,537 1106,533 1097,530 1088,527 1079,524 1071,520 
		1065,514 1062,505 1059,496 1055,488 1052,479 1050,469 1048,459 1047,448 1045,438 1044,427 1044,417 1048,408 1051,400 1054,391 
		1059,383 1068,381 1078,378 1088,376 1097,374 1107,371 1117,369 1126,368 1134,372 1143,375 1151,379 1160,382 1168,386 1176,390 
		1185,393 1190,400 1195,407 1200,414 1205,421 1210,428 1215,435 1219,443 1219,455 1219,467 1219,478 1215,486 1211,494 1206,501 
		1196.102,506.003 1184.026,506.499 1173.77,508.153 1166.16,509.972 1158.882,515.266 1153.588,520.394 1148.791,525.522 
		1146.641,536.274 1140.851,542.229 	"/>
	<polygon fill="#00FF00" stroke="#800080" points="1093,746 1083,744 1074,741 1066,737 1057,734 1051,728 1047,720 1043,712 
		1039,704 1035,696 1031,688 1035,680 1040.076,674.67 1044.399,668.266 1049.842,662.503 1054.804,656.9 1062.008,651.137 
		1069.853,644.893 1081,641 1091,639 1102,638 1113,637 1125,637 1134,640 1138,648 1142,656 1146,664 1148,674 1147,685 1147,697 
		1146,708 1142,716 1136,721 1130,727 1123,732 1114,736 1106,740 1098,743 	"/>
	<polygon fill="#00FF00" stroke="#800080" points="850,817 840,815 833,810 826,805 821,798 817,790 813,782 809,774 806,765 
		807,754 808,743 810,733 813,724 820,718 828,715 837,711 845.696,711.166 856,710 865,713 874,716 881,721 891.402,728.005 
		896.213,733.16 900.681,740.377 902,748 905,757 907.554,766.494 905,773 900,780 896,787 891,795 886,802 881,809 874,814 
		864,815 853,816 	"/>
	<polygon fill="#00FF00" stroke="#800080" points="856,133.75 845.75,134.25 834.75,132.5 827,130.25 816.75,124.5 808.5,119.25 
		799.75,114.75 791.333,108.667 788.833,102 787.167,91.333 788,78.5 792.667,68.333 797.833,61.667 803.167,54.5 809,48 
		815.524,44.274 823,40 832,37 844,37 854,39 860.444,42.571 867.895,46.722 876,53 882,60 887.167,68.333 889.833,76.667 890,87 
		889,98 886,107 881.667,113.833 875.167,120.5 870.5,126.5 864.5,131 	"/>
	<polygon fill="#00FF00" stroke="#800080" points="1063,0 1072,3 1075,12 1077,22 1076,31 1073,40 1070,48 1065,56 1061,64 1055,70 
		1046,73 1037,75 1027,77 1016,78 1006,80 996,80 986,78 979,73 974,66 969,59 967,49 966,38 966,27 968,18 974,11 980,5 987,0 	"/>
	<polygon fill="#00FF00" stroke="#800080" points="1043,172 1032,171 1022,169 1013,166 1005,162 999,156 993,150 988,143 985,134 
		986,123 988,113 993,106 998,99 1005,93 1012,89 1021,85 1030,83 1040,80 1049,77 1058,78 1066,82 1071,89 1075,97 1080,104 
		1085,111 1087,121 1087,133 1085,143 1081,151 1076,158 1069,162 1059,165 1052,169 	"/>
	<polygon fill="#00FF00" stroke="#800080" points="1132,118 1121,117 1109,117 1099,115 1092,110 1085,105 1080,98 1075,91 1071,83 
		1070,74 1074,66 1075,54 1081,48 1084,39 1086,30 1092,24 1100,19 1110,17 1120,15 1131,16 1140,19 1149,22 1156,27 1162,33 
		1167,40 1171,48 1171,60 1172,70 1169,80 1166,89 1161,96 1154,101 1148,107 1142,112 1134,117 	"/>
	<polygon fill="#00FF00" stroke="#800080" points="851,534.5 841.5,531.5 832,531.5 823,534 816,538.5 809,542.5 804,545 796,549.5 
		787,554.5 779,559.5 772.5,565 768.5,573.5 768,582.5 769,592 771.5,601.5 773.5,608.5 776.5,615 781,619 789,623 800,627.5 
		812,630.5 820.5,633.5 830.5,634 842,632.5 849,629 857,624.5 863,617.5 868,607 871,593.5 870.5,581 869.5,570.5 869,561.5 
		865.5,550 857.5,540.5 	"/>
	<polygon fill="#00FF00" stroke="#800080" points="853.5,639.5 843,639.5 834.5,636.5 828,636.5 821.5,636.5 815,634.5 807.5,632 
		800,629.5 792,627 786.5,624.5 781.5,625.5 776,629 772.5,634.5 769.5,643.5 769.5,652.5 770.5,662 772.5,669 773,677.5 773.5,686 
		776.5,694.5 780.5,701 788.5,708.5 798,712.5 807,715.5 818.5,713.5 827.5,711.5 835,709.5 844,707.5 850,704 853.5,696 853.5,686 
		854,680.5 857,677 858.5,671 861.5,664.5 861.5,657 859.5,645.5 	"/>
	<polygon fill="#00FF00" stroke="#800080" points="876,634.5 868.5,637.5 862,640.5 861.5,645 863,652.5 863,660.5 861.5,664.5 
		860.5,671 858,679 855.5,684 856,690 853.5,696 853,702 857.5,706 865,709.5 872,712.5 879,716 883.5,719 890.5,723 894,727.5 
		900,729.5 907.5,728.5 914,726.5 921,721.5 928,714 930,703 932,695 933.5,684.5 934,673.5 932.5,662 926.5,653 919.5,642 910,636 
		900,633 887.5,632 	"/>
	<polygon fill="#00FF00" stroke="#800080" points="1279.834,648.834 1273.167,644.5 1268.167,636.834 1264.834,627.5 
		1264.834,619.5 1263.501,612.5 1259.167,605.5 1255.167,600.167 1250.501,596.167 1249.167,590.167 1250.167,582.834 
		1252.167,575.834 1252.501,568.834 1253.167,563.167 1256.501,558.834 1260.167,555.5 1265.501,552.5 1270.834,549.834 
		1275.834,548.5 1279.834,548.167 	"/>
	<polygon fill="#00FF00" stroke="#800080" points="1162.501,586.834 1168.834,589.167 1178.501,589.5 1187.167,589.834 
		1195.167,590.167 1204.501,590.834 1214.167,592.5 1223.834,594.167 1230.834,593.5 1236.834,593.5 1242.167,593.167 
		1245.834,591.167 1248.167,584.5 1249.501,578.167 1250.501,572.5 1250.501,567.167 1251.834,561.5 1254.167,556.834 
		1253.501,551.167 1251.501,545.5 1249.834,540.5 1248.167,534.834 1244.834,529.167 1241.834,523.167 1237.167,517.167 
		1231.167,514.167 1225.167,510.833 1220.167,509.5 1215.167,509.167 1207.167,508.5 1200.834,508.167 1190.834,507.833 
		1184.834,507.5 1177.834,508.5 1172.834,509.167 1165.501,512.5 1160.501,515.834 1155.167,521.167 1150.834,527.5 
		1149.501,532.834 1148.167,539.167 1146.167,542.167 1143.167,545.167 1138.501,547.834 1137.167,550.167 1135.834,557.5 
		1137.167,563.834 1138.167,568.834 1139.501,573.834 1142.834,578.167 1146.501,582.167 1152.167,583.5 1157.167,584.834 	"/>
	<polygon fill="#00FF00" stroke="#800080" points="1161.834,596.5 1157.167,602.834 1152.834,609.834 1149.501,616.834 
		1146.834,624.5 1144.834,632.167 1143.501,640.167 1143.501,646.834 1144.834,654.167 1147.834,659.5 1149.501,665.834 
		1153.834,672.5 1158.834,679.167 1165.501,683.167 1171.167,687.834 1175.167,692.5 1182.167,693.5 1190.501,692.834 
		1199.501,692.834 1207.167,692.5 1214.167,691.834 1222.834,690.5 1230.834,687.834 1237.834,685.834 1246.167,682.167 
		1253.501,678.167 1259.834,673.834 1265.167,669.5 1269.501,663.834 1270.834,656.5 1270.834,648.5 1269.167,642.834 
		1264.834,636.5 1262.501,628.834 1262.834,622.5 1261.501,616.5 1260.167,611.5 1256.501,606.5 1253.834,603.167 1249.167,598.167 
		1242.834,595.834 1234.167,595.834 1226.834,596.167 1217.167,594.834 1209.501,594.5 1200.834,593.834 1193.167,592.5 
		1187.167,592.5 1176.834,592.834 1168.167,593.5 	"/>
	<polygon fill="#00FF00" stroke="#800080" points="1279.501,748.168 1273.501,742.168 1265.167,735.501 1256.834,732.168 
		1248.834,731.501 1241.834,731.501 1233.834,733.168 1227.167,735.501 1221.834,739.168 1217.167,744.168 1213.501,750.834 
		1212.501,757.501 1212.167,765.501 1212.834,772.501 1214.167,776.501 1209.834,778.168 1203.834,779.501 1197.834,782.834 
		1194.501,786.834 1190.167,792.501 1186.501,798.168 1184.501,804.501 1184.167,811.834 1184.834,819.501 1187.167,824.834 
		1190.167,830.168 1194.167,831.834 1200.501,832.168 1206.834,831.834 1214.167,831.168 1220.834,830.501 1228.501,831.501 
		1234.167,833.168 1240.501,834.501 1244.501,836.501 1248.834,839.501 1253.167,841.501 1257.834,838.834 1263.501,834.834 
		1268.167,830.501 1272.167,827.501 1275.834,825.168 1279.834,823.168 	"/>
	<polygon fill="#00FF00" stroke="#800080" points="1280.167,900.501 1273.834,897.168 1269.834,890.501 1268.501,884.168 
		1269.501,879.501 1268.167,873.168 1264.834,868.834 1262.167,866.168 1260.501,860.168 1258.167,856.168 1257.167,848.834 
		1258.167,842.501 1260.167,838.834 1263.834,836.501 1267.167,833.501 1270.834,830.168 1273.834,827.501 1280,825.169 	"/>
	<polygon fill="#00FF00" stroke="#800080" points="1187.501,916.834 1192.167,924.168 1198.167,930.501 1206.834,934.168 
		1216.834,936.501 1224.834,935.834 1230.834,935.501 1235.834,937.834 1241.834,938.168 1249.834,937.168 1257.167,930.501 
		1262.834,925.834 1269.834,921.168 1273.501,915.501 1270.501,909.168 1266.167,904.501 1266.167,899.501 1267.501,894.501 
		1267.501,889.834 1267.167,883.834 1267.834,879.168 1266.501,874.168 1265.501,872.168 1262.167,869.834 1259.501,865.168 
		1258.501,860.834 1256.501,855.834 1255.501,851.501 1254.501,846.168 1251.501,843.834 1247.834,841.168 1242.834,838.501 
		1237.167,836.834 1232.167,835.501 1225.167,834.168 1217.834,832.834 1210.834,833.834 1204.834,833.834 1198.834,834.501 
		1192.834,834.834 1186.167,836.168 1181.167,838.501 1177.834,842.168 1174.167,847.168 1171.834,854.834 1170.501,862.168 
		1171.167,869.834 1175.167,875.834 1176.834,880.501 1179.167,886.834 1180.501,890.834 1180.834,896.501 1182.167,904.501 
		1183.834,908.834 	"/>
	<polygon fill="#00FF00" stroke="#800080" points="1147.426,1023.744 1149.585,1016.183 1150.665,1007.543 1150.665,1000.344 
		1151.026,992.783 1155.705,987.022 1162.906,981.262 1170.826,975.503 1180.906,971.542 1192.427,971.542 1201.067,973.343 
		1208.988,974.782 1218.348,974.782 1227.348,977.663 1236.708,981.262 1244.268,984.863 1250.029,987.383 1257.588,990.983 
		1263.349,996.383 1268.749,1002.503 1272.349,1008.263 1273.069,1014.023 1270.189,1024 	"/>
	<polygon fill="#00FF00" stroke="#800080" points="1017.102,1024.464 1020.702,1014.744 1025.382,1007.543 1028.622,1001.423 
		1029.702,994.583 1035.462,988.102 1040.502,982.343 1046.622,977.663 1053.103,974.062 1062.103,969.742 1071.463,970.102 
		1081.904,974.423 1088.384,976.222 1096.304,980.902 1101.704,985.942 1107.824,990.623 1113.225,996.383 1118.265,1002.503 
		1121.865,1007.903 1124.745,1012.943 1125.824,1024.103 	"/>
	<polygon fill="#00FF00" stroke="#800080" points="1033.302,924.741 1026.102,924.381 1018.902,922.941 1011.342,920.421 
		1004.862,918.621 999.461,917.18 992.621,917.541 985.421,917.901 980.74,918.981 976.421,922.581 971.381,930.141 967.42,936.261 
		964.18,941.662 959.861,947.061 956.62,952.462 954.1,959.302 952.3,965.062 948.34,971.182 943.659,979.102 942.94,987.383 
		945.1,994.943 948.34,1001.423 952.3,1006.823 956.981,1012.223 963.46,1015.464 969.221,1017.624 975.7,1019.424 
		981.821,1020.143 989.021,1019.784 997.661,1017.624 1003.781,1014.744 1009.902,1011.504 1014.582,1008.983 1019.262,1008.623 
		1023.222,1004.303 1026.102,998.543 1027.903,993.142 1031.502,989.182 1035.462,982.703 1040.863,978.742 1044.823,974.423 
		1048.782,968.302 1051.663,964.342 1054.903,959.302 1056.703,953.542 1057.783,947.422 1054.903,942.741 1050.943,938.061 
		1045.183,932.661 1038.702,927.621 	"/>
	<polygon fill="#00FF00" stroke="#800080" points="864.818,902.78 863.377,908.541 863.377,915.381 865.178,920.781 
		869.138,926.181 875.618,929.421 881.378,928.701 886.779,926.541 892.178,928.341 897.939,932.302 904.779,933.741 
		909.099,935.901 909.099,943.462 909.099,951.021 908.019,955.702 905.498,961.462 901.899,967.582 903.339,974.782 
		904.779,981.623 909.099,986.663 917.379,989.903 923.86,991.343 930.699,989.182 935.379,985.942 940.78,980.902 944.811,974.284 
		948.005,968.654 951.657,961.504 954.396,953.592 958.047,947.506 961.851,941.724 965.351,937.008 968.545,930.922 
		972.806,925.139 977.218,919.053 978.581,913.22 978.581,905.66 976.781,899.54 972.821,895.22 968.5,889.82 962.74,883.7 
		957.7,879.019 950.86,875.779 943.3,874.34 935.681,872.649 928.073,871.736 919.705,870.519 913.924,868.237 909.099,867.859 
		904.643,866.868 898.658,866.42 893.618,864.979 887.859,865.34 880.298,868.579 874.178,872.899 870.218,880.46 868.418,886.58 
		866.617,893.42 	"/>
	<polygon fill="#00FF00" stroke="#800080" points="765.214,898.801 769.076,906.525 773.641,914.952 776.449,921.974 
		781.717,925.135 786.632,930.051 793.304,930.753 801.029,930.051 807.699,928.646 815.424,927.242 823.15,926.539 
		831.576,924.432 838.599,924.082 845.621,923.379 849.834,923.73 855.804,922.326 858.964,918.464 860.368,911.09 861.422,904.769 
		863.529,897.747 865.284,891.076 866.689,885.106 868.445,878.084 869.849,871.764 869.147,866.848 867.039,861.932 
		864.582,856.314 862.826,852.101 860.017,847.185 856.857,842.621 853.698,838.407 851.59,834.896 848.43,831.034 843.515,826.469 
		837.195,823.309 832.279,821.553 825.607,819.798 817.531,819.095 809.807,820.149 802.784,821.202 795.41,822.958 786.984,826.82 
		781.015,829.98 775.045,836.301 769.779,842.269 765.565,848.239 763.107,855.612 760.298,866.146 759.596,876.679 760.65,884.756 
		762.054,890.374 	"/>
	<polygon fill="#00FF00" stroke="#800080" points="773.289,961.301 775.397,955.682 776.449,951.118 771.885,949.011 
		768.725,944.798 768.725,939.179 770.481,933.913 774.695,931.806 779.556,931.123 783.472,931.806 787.686,932.509 
		792.952,932.157 798.922,931.455 806.391,929.984 811.562,929.348 817.531,927.944 824.444,927.219 830.523,925.837 
		835.99,925.105 841.057,924.784 845.972,924.784 852.994,926.89 856.506,931.806 859.315,937.775 862.826,943.744 865.635,949.362 
		867.742,956.034 869.849,963.759 871.253,970.429 870.199,977.101 868.795,982.719 868.795,987.986 871.253,992.551 
		871.955,998.169 871.253,1003.787 868.795,1009.053 864.933,1011.862 863.879,1015.022 862.124,1019.587 860.043,1024.001 
		796.958,1024 794.006,1017.832 790.846,1014.32 788.388,1010.106 786.984,1005.191 782.77,1001.679 778.907,999.573 
		775.747,994.657 772.939,990.795 770.832,984.826 771.885,978.154 772.888,973.895 773.051,970.155 773.051,966.739 	"/>
	<polygon fill="#00FF00" stroke="#800080" points="109.657,1024.001 107.591,1014.715 102.943,1009.033 96.228,1005.934 
		87.447,1000.252 82.281,995.603 76.599,989.405 73.5,981.657 71.951,972.876 75.05,967.711 76.599,958.413 77.633,950.149 
		79.698,943.434 84.347,936.203 87.963,930.004 93.128,923.289 100.36,917.091 106.042,913.992 115.339,916.574 123.087,922.257 
		131.351,926.388 139.099,933.103 147.881,937.235 153.046,942.401 160.794,949.116 168.542,958.413 174.74,961.512 
		181.971,967.711 185.071,973.909 188.686,982.174 188.686,989.922 187.136,998.186 183.521,1004.901 181.971,1008.516 
		176.289,1014.198 169.574,1017.298 166.992,1023.496 	"/>
	<polygon fill="#00FF00" stroke="#800080" points="205.732,1020.913 207.798,1012.649 214.513,1007.483 216.062,996.12 
		220.711,986.822 227.943,979.074 239.306,974.942 250.153,971.326 263.583,970.294 274.947,972.359 289.409,977.009 
		297.674,981.14 305.938,985.789 311.62,987.339 319.368,990.955 326.083,996.12 329.182,1002.318 328.149,1009.55 
		325.567,1016.264 318.851,1024.012 	"/>
	<polygon fill="#00FF00" stroke="#800080" points="149.947,852.525 141.166,860.273 134.451,868.02 129.285,874.219 
		123.604,881.967 120.505,890.231 120.505,900.046 119.988,909.343 123.087,916.057 127.736,922.773 137.55,927.422 
		142.715,931.553 151.496,935.686 156.145,941.368 162.86,946.533 168.025,951.698 172.157,956.864 177.323,960.996 
		185.587,963.579 193.851,965.128 201.599,965.128 210.897,961.512 218.128,958.413 223.81,950.149 225.876,940.335 225.36,932.587 
		222.26,921.74 220.195,911.926 217.095,904.177 212.963,894.881 208.831,886.616 206.248,878.868 201.599,870.603 199.533,866.988 
		197.467,861.305 195.401,855.107 188.686,849.942 181.971,849.426 171.124,849.942 162.343,852.009 	"/>
	<polygon fill="#00FF00" stroke="#800080" points="328.149,873.703 319.885,862.855 306.971,855.624 296.641,853.042 
		282.695,849.942 270.298,847.359 261,844.777 247.054,841.677 233.624,838.579 225.36,834.446 217.612,830.314 206.765,827.731 
		199.017,827.731 192.819,831.864 189.719,837.029 189.203,843.227 192.302,847.876 197.467,855.624 200.567,863.888 
		206.248,873.186 208.314,880.418 213.996,889.198 215.546,895.913 222.777,904.177 223.294,912.442 225.876,924.322 
		227.943,933.103 229.492,940.851 231.558,949.116 238.273,955.831 246.021,960.479 255.835,964.095 265.133,965.644 
		277.529,966.161 284.244,969.26 293.542,972.359 299.74,974.942 306.971,980.624 314.203,983.207 320.918,983.723 327.116,978.557 
		330.732,967.194 335.897,957.896 339.513,948.599 340.546,935.686 342.095,925.355 344.678,918.124 341.579,908.31 
		336.413,900.046 333.314,893.847 329.182,883 	"/>
	<polygon fill="#00FF00" stroke="#800080" points="215.546,763.681 207.798,765.231 201.083,768.331 194.368,774.529 
		187.136,783.31 181.455,794.157 182.488,802.938 185.587,812.752 191.269,818.434 199.017,823.083 206.248,823.599 
		215.029,825.666 221.744,828.248 229.492,832.896 239.306,836.512 248.604,839.095 258.934,841.161 266.166,842.194 
		275.463,844.777 283.211,846.327 291.992,847.359 301.289,847.359 308.521,842.711 315.752,834.963 322.984,825.666 
		328.149,814.818 328.149,802.938 325.567,797.257 318.851,790.025 312.136,783.827 305.422,777.628 299.223,773.496 
		295.608,764.198 293.542,757.483 291.475,751.802 289.926,748.186 285.277,744.053 277.529,740.438 269.265,741.471 
		259.967,741.988 253.769,743.02 244.988,747.67 239.306,752.318 232.591,756.967 223.294,762.649 	"/>
	<polygon fill="#00FF00" stroke="#800080" points="0.153,815.335 12.033,815.335 23.397,809.653 32.178,801.905 39.409,796.223 
		45.608,788.475 50.773,778.661 52.323,766.781 50.773,755.934 48.19,747.67 47.157,741.988 45.091,737.855 41.475,733.723 
		37.86,736.305 30.628,738.888 24.43,737.339 18.232,735.273 12.033,734.24 5.835,733.207 0.67,732.174 	"/>
	<polygon fill="#00FF00" stroke="#800080" points="0.67,727.525 8.418,730.107 16.682,732.174 22.364,733.723 29.595,734.24 
		36.31,733.207 41.475,727.525 45.608,720.81 50.257,716.161 54.389,706.864 58.005,704.281 61.104,709.446 67.819,708.929 
		72.467,699.633 74.017,690.851 73.5,677.938 69.885,671.74 67.302,665.542 64.719,657.794 59.037,652.629 51.289,649.012 
		41.992,646.946 39.926,641.264 34.76,635.066 30.112,631.967 25.463,628.351 16.166,626.285 9.451,627.318 0,629.385 	"/>
	<polygon fill="#00FF00" stroke="#800080" points="94.678,709.963 92.612,720.81 92.612,732.174 95.711,743.02 98.294,753.868 
		106.042,764.715 114.823,775.046 124.12,785.376 136.517,791.574 149.43,792.607 161.827,792.607 171.641,788.475 179.905,783.31 
		186.104,777.112 194.368,765.231 200.05,754.901 201.083,743.02 201.599,729.074 198.5,717.194 191.269,708.929 184.554,701.698 
		179.905,696.016 170.608,690.851 160.794,685.17 149.43,681.553 140.133,681.037 129.285,683.103 120.505,686.719 110.174,692.918 
		102.426,700.149 	"/>
	<polygon fill="#00FF00" stroke="#800080" points="287.343,721.327 282.178,729.074 284.76,736.305 290.959,744.053 
		293.542,753.351 295.608,764.198 300.773,771.429 309.037,777.112 318.851,782.794 330.215,784.859 343.645,783.827 
		352.943,777.112 360.69,769.364 368.438,761.616 376.703,753.351 383.418,741.471 386,731.657 384.45,718.744 381.351,709.963 
		375.67,700.666 368.955,691.885 363.789,685.17 357.591,677.422 346.744,673.29 337.447,671.74 327.116,672.773 318.851,676.388 
		311.62,679.488 303.872,683.62 297.674,693.434 293.025,704.798 289.926,713.579 	"/>
	<polygon fill="#00FF00" stroke="#800080" points="319.885,661.409 317.302,654.694 311.104,649.012 303.356,643.847 
		296.641,639.715 290.443,636.099 284.244,630.418 276.496,624.736 267.715,621.12 259.967,621.12 252.219,624.219 244.471,628.868 
		236.207,634.55 229.492,643.331 225.36,651.595 223.81,661.926 220.711,672.257 219.678,682.587 217.612,691.368 212.447,698.083 
		208.314,706.864 209.864,713.579 213.996,723.392 221.228,730.107 229.492,733.207 239.823,735.79 251.703,733.723 259.45,731.14 
		267.198,724.942 272.881,724.426 279.079,723.909 283.211,720.81 287.86,710.996 290.443,701.698 296.124,690.335 302.839,680.005 
		312.136,672.773 	"/>
	<polygon fill="#00FF00" stroke="#800080" points="151.496,611.822 144.265,618.02 138.067,625.252 133.418,632.483 
		131.868,641.781 137.033,649.012 140.649,655.727 144.781,666.058 145.814,673.805 147.881,677.422 154.079,677.938 
		161.31,681.037 168.542,684.653 175.257,689.302 182.488,694.467 187.136,699.116 190.236,702.731 192.819,705.314 198.5,708.413 
		204.698,707.897 207.281,700.666 210.897,695.5 214.513,690.335 216.579,681.037 218.128,672.257 220.711,663.475 222.777,653.144 
		224.843,645.913 227.943,639.715 232.074,633 236.723,628.868 234.657,623.186 228.459,618.537 215.546,614.405 206.765,608.723 
		196.951,606.14 188.17,604.074 178.872,602.009 164.409,605.107 	"/>
	<polygon fill="#00FF00" stroke="#800080" points="183.005,531.244 175.773,537.442 168.542,542.091 164.926,549.839 
		163.376,560.17 164.926,570.5 168.025,581.347 171.124,592.194 177.839,597.876 187.653,601.492 197.984,603.558 207.281,606.657 
		215.546,610.273 223.81,614.405 233.108,615.955 243.955,615.955 254.285,610.79 262.033,606.657 267.715,597.876 269.781,583.413 
		271.331,573.599 270.814,563.785 271.331,554.488 271.331,546.223 276.496,537.959 276.496,531.244 271.331,527.112 
		263.067,525.046 254.285,522.979 247.571,518.847 241.372,515.231 234.141,512.649 225.36,511.616 218.128,513.166 
		208.831,520.397 201.083,526.079 191.785,528.144 	"/>
	<polygon fill="#00FF00" stroke="#800080" points="371.021,628.351 375.67,619.571 378.252,612.34 373.604,601.492 366.372,595.81 
		358.624,592.195 350.876,585.996 347.26,581.864 345.711,574.633 339.513,568.434 332.281,560.17 327.116,551.388 322.984,546.223 
		313.686,540.025 307.488,535.377 301.289,531.244 292.509,532.794 281.661,534.344 276.496,537.959 274.43,546.223 
		271.331,554.488 270.814,563.785 272.364,571.017 272.881,579.281 271.847,584.964 270.298,592.712 268.232,599.427 
		266.166,606.658 268.748,614.922 274.947,621.636 284.244,626.286 291.992,631.451 297.157,636.616 305.938,641.265 
		314.203,646.43 321.95,649.529 329.182,650.046 340.029,641.781 347.777,636.616 359.141,631.968 	"/>
	<polygon fill="#00FF00" stroke="#800080" points="305.422,506.968 313.686,500.769 326.083,500.769 337.447,501.285 
		345.334,501.832 355.009,503.352 365.339,506.451 375.153,508 386,510.583 396.331,512.649 406.661,518.331 414.409,523.497 
		417.509,535.377 416.475,548.806 415.443,561.203 410.794,573.599 407.178,584.964 399.947,592.195 388.067,595.81 
		377.736,597.877 366.372,595.81 358.108,589.095 350.876,585.996 349.327,579.798 347.777,572.566 342.095,567.401 
		337.963,564.302 331.765,555.005 328.666,548.806 324.533,542.608 317.819,539.509 310.587,534.344 303.872,527.629 
		301.289,520.914 302.839,513.166 	"/>
	<polygon fill="#00FF00" stroke="#800080" points="309.037,418.641 301.806,425.356 294.667,432 288.893,439.819 287.86,448.083 
		289.926,456.864 294.058,465.645 300.257,476.492 304.905,484.757 310.587,490.955 316.785,494.571 326,498.166 335.167,498.999 
		343.334,500.332 351.5,501.166 358.667,502.666 366.834,504.832 376.186,505.934 384.167,508.499 394.334,510.999 401.834,513.999 
		408.211,515.749 415.959,517.299 423.707,516.265 430.938,514.199 436.104,509.033 439.203,502.319 448.5,497.154 455.215,491.471 
		461.413,484.757 467.612,476.492 471.228,467.711 472.777,457.897 473.294,448.083 470.711,436.719 467.612,426.389 
		462.963,418.641 457.281,410.377 451.083,405.211 441.269,397.464 431.455,391.265 424.74,387.133 418.542,382.484 
		413.376,377.835 406.661,374.219 397.881,373.703 386,377.319 378.252,381.451 370,386 361.167,390.333 352.334,395 342.834,399.5 
		333.5,405 324.667,410.166 316.5,413.833 	"/>
	<polygon fill="#00FF00" stroke="#800080" points="419.058,295.191 408.728,301.389 402.013,307.587 396.847,316.368 
		393.232,325.666 388.583,333.414 384.967,343.228 382.385,354.592 381.868,364.406 385.484,369.571 391.682,366.988 
		397.364,367.505 403.562,369.054 409.76,373.187 416.475,377.319 422.157,381.968 428.356,386.616 437.136,390.232 
		445.918,390.232 453.666,387.133 460.381,383.517 468.128,384.55 477.943,381.451 485.69,376.802 490.339,369.054 493.438,359.757 
		493.438,352.009 491.889,343.228 488.273,337.03 485.174,332.381 486.207,326.699 485.174,315.852 481.042,308.62 474.843,299.84 
		465.546,294.674 454.182,291.575 441.785,292.092 428.356,293.125 	"/>
	<polygon fill="#00FF00" stroke="#800080" points="232.074,297.773 238.789,290.026 247.054,282.278 254.285,275.563 
		263.067,268.331 269.265,261.1 277.529,255.934 286.31,251.802 294.574,249.219 303.356,245.604 314.203,247.154 325.05,251.802 
		334.347,260.583 341.579,267.815 347.26,274.013 357.591,279.178 367.405,284.86 377.736,291.058 384.967,299.84 389.099,311.203 
		390.133,318.434 388.067,326.182 384.967,334.447 381.351,343.228 379.802,350.976 379.285,360.79 374.636,371.637 
		372.054,378.868 365.856,385.067 357.591,389.199 348.294,393.848 339.513,399.013 331.248,404.178 322.467,409.86 
		314.719,412.959 308.667,417.5 302.5,422.5 297.674,425.356 294.058,430.005 289.409,434.137 282.695,437.236 273.397,437.236 
		264.099,438.269 256.868,436.203 249.12,437.236 240.339,435.687 228.459,429.488 218.645,423.806 211.413,413.992 
		205.215,405.211 200.567,392.815 197.984,383.001 196.951,375.769 193.851,366.472 192.819,359.757 193.335,351.492 
		199.017,344.261 206.248,338.579 210.897,328.765 216.062,316.885 222.777,306.038 	"/>
	<polyline fill="#00FF00" stroke="#800080" points="-0.074,363.477 12.5,363.5 22,359.5 31,352.5 39,342 43,332 46,321 45,310 
		43,302 41,293.5 37,285.5 33,279.5 27.5,274 20,269.5 15,266.5 6.5,264.5 -0.5,264.5 0.422,364.469 	"/>
	<polygon fill="#00FF00" stroke="#800080" points="227.728,292.251 233.451,291.335 235.282,288.13 239.632,284.697 243.753,281.72 
		249.018,276.684 254.512,272.793 259.548,268.901 263.211,265.696 266.187,262.033 270.307,257.913 274.657,255.852 
		279.693,252.419 284.958,248.527 288.85,247.611 295.031,245.093 298.923,242.117 299.381,235.707 300.067,230.9 300.983,226.779 
		299.839,221.056 297.092,217.851 293.886,213.502 290.452,209.839 287.019,206.405 282.669,201.14 276.717,196.79 270.078,194.272 
		263.211,192.67 257.488,192.899 251.307,194.959 246.271,195.875 241.692,196.79 234.824,194.73 229.33,194.501 223.607,196.79 
		218.571,198.622 213.992,200.911 209.872,203.429 205.065,205.26 202.089,208.008 201.86,213.502 200.715,219.454 200.944,224.032 
		199.8,229.526 200.029,236.165 199.571,241.43 197.51,246.238 195.908,250.129 197.052,254.25 201.86,257.455 206.438,259.973 
		208.727,263.178 211.474,269.588 213.992,274.853 216.969,279.889 219.945,285.155 222.463,290.191 	"/>
	<polygon fill="#00FF00" stroke="#800080" points="763.188,0.078 763.499,6.934 767.551,14.725 772.848,21.893 779.081,26.567 
		785.937,30.93 795.286,34.047 803.389,34.358 811.803,32.8 818.97,30.307 824.678,27.988 829.254,24.074 832.993,19.711 
		836.421,15.348 839.226,11.921 840.473,5.999 839.85,0.39 	"/>
	<polygon fill="#00FF00" stroke="#800080" points="841.603,0.206 841.719,5.999 842.343,12.544 844.477,18.302 847.351,23.73 
		851.069,29.06 854.808,33.735 859.794,39.032 865.092,42.149 870.701,45.577 876.311,50.875 882.855,53.679 890.334,54.615 
		896.567,54.615 903.111,53.679 910.59,52.121 918.693,49.005 924.614,45.265 929.911,40.591 933.028,34.358 934.586,27.191 
		934.275,19.4 934.275,11.921 933.891,6.38 933.039,0 	"/>
	<polygon fill="#00FF00" stroke="#800080" points="935.832,-0.233 937.702,5.065 941.442,10.051 945.805,13.167 949.856,15.66 
		955.154,16.906 959.828,16.906 965.126,16.283 970.424,12.855 974.475,7.869 977.591,5.376 981.954,1.013 	"/>
	<polygon fill="#00FF00" stroke="#800080" points="782.25,107 775.75,109.25 770.5,112.25 766,115 761.75,120.25 761,124.5 
		759.25,128 755.75,130.5 751.5,133.25 748.5,138 745.5,142.75 743,148.5 741.25,154 740.75,160 740.5,166.5 740.5,172.75 
		741.75,180.25 744,186 748.5,192 753.75,197.25 761,202.25 769,206.25 774.5,210.25 782.75,211.75 791.75,211 798.5,208.25 
		804.5,205 811.5,200.75 816.5,196.75 821,196.25 825.25,193.75 829.75,189.5 833.5,184.75 836.75,180.75 839.25,175.25 842,169.75 
		842.5,164.75 843.75,160.5 846.25,156.75 847.75,152.5 847.25,146.75 846.25,143.25 843.75,140.75 838,138 831.75,135 
		825.75,131.75 818,127.75 812.25,124.75 804,119.75 797.75,116.5 791.75,113 786.25,109.25 	"/>
	<polygon fill="#00FF00" stroke="#800080" points="884,369 880,378.5 875.5,388 875,397 876,408.5 879,418.5 883,427 889,435 
		898,441 906,444.5 918.5,441 925.5,430 932,424 941,419 950,413.5 957.5,407.5 964.5,402.5 970,395.5 975.5,389.5 975.5,378.5 
		975,370.5 972.5,362 967,351.5 959.5,348.5 951.5,346 939.5,345.5 931.5,344 922.5,345 909,349 897.5,354 890.5,361 	"/>
	<polygon fill="#00FF00" stroke="#800080" points="332.263,0 334.837,6.117 337.187,11.759 339.773,16.459 346.354,21.63 
		350.82,24.45 355.52,26.331 362.806,28.211 368.682,30.326 375.263,31.266 381.139,32.677 387,33.16 390.775,31.971 
		393.831,29.151 397.38,25.457 399.942,22.57 403.467,19.045 408.408,15.483 412.634,11.523 416.159,7.763 418.979,4.943 
		423.896,0.156 	"/>
	<polygon fill="#00FF00" stroke="#800080" points="553.316,0 553.888,4.472 555.299,9.878 557.649,15.754 563.29,20.925 
		569.87,23.745 576.922,24.685 582.798,24.215 591.024,22.335 597.84,21.395 603.245,18.809 608.416,16.694 613.352,12.698 
		616.407,8.703 619.463,4.943 621.01,0 	"/>
	<polygon fill="#00FF00" stroke="#800080" points="882.500,278.500 876.000,288.000 871.000,299.500 869.500,311.000 872.000,321.000 880.000,331.500 888.500,340.000 898.000,344.500 907.000,345.500 919.000,343.000 928.500,341.000 937.500,342.000 948.500,342.500 959.500,343.500 965.500,347.500 973.500,351.500 983.000,353.500 991.500,354.500 1001.000,354.000 1009.000,352.000 1016.500,347.000 1024.500,340.000 1029.000,331.000 1033.500,325.500 1042.000,318.000 1049.000,310.500 1053.000,295.500 1052.000,281.000 1047.000,271.500 1041.500,264.000 1031.500,256.500 1020.000,252.000 1011.000,248.000 1003.500,245.000 994.500,241.000 987.500,235.500 978.500,231.000 971.000,232.000 962.000,234.000 955.000,238.500 947.500,243.500 938.000,246.000 932.000,246.500 923.000,250.500 916.500,253.000 911.500,260.500 905.500,266.500 899.000,269.500 892.000,273.000 882.500,278.500"/>
</g>
</svg>
