<?xml version="1.0" encoding="utf-8"?>
<!-- Generator: Adobe Illustrator 16.0.5, SVG Export Plug-In . SVG Version: 6.00 Build 0)  -->
<!DOCTYPE svg PUBLIC "-//W3C//DTD SVG 1.1//EN" "http://www.w3.org/Graphics/SVG/1.1/DTD/svg11.dtd">
<svg version="1.1" id="Layer_1" xmlns="http://www.w3.org/2000/svg" xmlns:xlink="http://www.w3.org/1999/xlink" x="0px" y="0px"
	 width="1280px" height="1024px" viewBox="0 0 1280 1024" enable-background="new 0 0 1280 1024" xml:space="preserve">
<g id="Raw_image">
	
		<image overflow="visible" enable-background="new    " width="1280" height="1024" xlink:href="Neuroblastoma_15.jpg"  transform="matrix(1 0 0 1 0 2.441406e-004)">
	</image>
</g>
<g id="test">
</g>
<g id="test2">
</g>
<g id="Single_nuclei" opacity="0.2">
	<polygon fill="#00FF00" stroke="#800080" points="422,0 430,2 438,4 446,6 452,10 458,14 464,18 469,23 472,30 476,36 476,46 
		476,56 476,66 475,74 470,79 464,83 456,85 449,88 439,88 429,88 419,88 409,88 400,87 393,84 386,81 378,79 372,75 367,70 366,61 
		368,53 368,43 368,33 365,26 364,17 361,10 356,5 	"/>
	<polygon fill="#00FF00" stroke="#800080" points="346,0 353,3 358,8 363,13 364,22 367,29 368,38 368,48 367,57 363,63 360,69 
		355,74 348,77 341,80 331,80 322,79 315,76 307,74 302,69 295,66 290.048,56.305 288.85,44 294.242,31.444 297.836,21.26 
		303.527,0 	"/>
	<polygon fill="#00FF00" stroke="#800080" points="543.156,0 551.844,8.979 575.205,20.062 618.94,35.937 632.719,46.121 
		630.921,56 628,63 622,67 616,71 610,75 601,74 594,71 585.691,68.587 577,67.388 564.125,69.784 557.359,73.379 553,78 544,80 
		538,83 533,88 530,96 521,96 514,93 511,86 506,81 503,74 499,68 495,62 492,55 490,47 487,40 483,34 482,25 484,16 487,10 
		490.439,0 	"/>
	<polygon fill="#00FF00" stroke="#800080" points="1022,0 1029,3 1034,8 1036,16 1035,25 1032,32 1029,39 1026,46 1026,56 1026,66 
		1030,72 1033,79 1036,86 1035,95 1032,101 1027,104 1019.064,102.911 1009.299,104 999.383,103.469 991,102 985,100 976,99 967,98 
		960,95 951,94 946,89 943,82 938,77 935,70 928,67 921,64 912,63 906,59 900,55 898,47 898,37 899,28 902,21 906,14 911,9 918,6 
		924,3 932,0 	"/>
	<polygon fill="#00FF00" stroke="#800080" points="214,84 204,84 194,84 184,84 175,83 168,80 159,79 153,75 148,70 146,62 143,55 
		142,46 145,39 147,31 151,25 158,22 165,18 175,18 182,15 188,12 197,10 204,7 213,6 220,9 223.275,14.476 227.706,21.882 
		231.104,29.052 234.106,37.604 236,43 236,53 235,62 231,68 227,74 222,79 217,83 	"/>
	<polygon fill="#00FF00" stroke="#800080" points="590,156 580,156 572,154 565,151 559,147 553,143 550,136 546,130 543,123 
		539,117 536,110 531,105 530,96 533,88 538,83 544,80 553,78 559.861,72.05 568.467,68.976 578.502,68.976 585.691,68.587 594,71 
		601,74 610,75 615,80 618,87 620,95 623,102 624,111 623,120 619,126 615,132 611,138 606,142 601,147 596,152 	"/>
	<polygon fill="#00FF00" stroke="#800080" points="971.644,177.972 965.212,177.608 957.688,176.273 949.314,176.88 942,178 
		934.143,178.95 924.677,177.494 916.786,174.946 907.444,170.576 899.919,171.062 893,169.363 889.115,164.144 886.081,157.955 
		886.813,150.309 889.604,144.12 893,138.052 897.247,133.197 901.982,128.707 908.293,123.973 913.39,119.24 918.242,114.386 
		923,109 927.83,106.135 935,101 942,98 949,94 958,95 965,98 974,99 983,100 990,103 996.896,103.107 1007.639,104.669 
		1018.125,104.917 1024.316,106.01 1029.048,109.406 1031.84,114.385 1030.505,122.758 1030.625,128.097 1030.866,137.928 1028,145 
		1025,152 1022,159 1017,163 1010,167 1003.441,168.02 998.222,171.297 992.396,173.845 984.992,177.365 978.198,177.858 	"/>
	<polygon fill="#00FF00" stroke="#800080" points="113.656,186.126 108.6,185.109 98.642,186.126 87.859,189.601 81.868,189.601 
		73,182 66,179 62.998,171.927 62.416,164.879 64.196,153.955 60.002,146.167 58,137 58,127 61,119 66,114 71,109 76,104 84,102 
		91,99 100,98 109,99 115,103 122,106 128,110 133,115 138,120 143,125 145.669,136.283 144,145.269 140.577,153.057 137.881,162.5 
		134.287,167.734 130.416,174 123.803,179.118 119,183.311 	"/>
	<polygon fill="#00FF00" stroke="#800080" points="654,212 644,212 634,212 625,211 620,206 615,201 610,196 606,190 602,184 
		597,179 592,174 590,166 591,157 596,152 601,147 606,142 613,138 616.241,132.687 619.838,127.296 624,118.309 635.115,115.314 
		647.097,116.812 657,122 664,125 669,130 674,135 677,142 680,149 680,159 683,166 684,175 682,183 680,190 676,197 673,204 
		667,207 659,210 	"/>
	<polygon fill="#00FF00" stroke="#800080" points="230,272 220,272 210,272 200,272 190,272 183,269 176,266 169,263 164,258 
		159,253 156,246 153,239 152,230 149,223 146,216 146,206 146,196 142,190 139,183 137.881,171.927 139.978,157.55 
		147.467,143.802 153.757,133.886 161.844,130.592 179,130 189,130 199,130 209,130 219,130 227,132 235,134 243,136 250,139 
		255,144 260,149 263,156 267,162 269,170 272,177 275,184 276,193 279,200 280,209 279,218 274,223 269,227 263,231 257,235 
		252,240 249,247 246,255 243,262 238,267 233,271 	"/>
	<polygon fill="#00FF00" stroke="#800080" points="834.008,227.941 823.225,227.342 805.852,212 801,207.057 798.362,198.886 
		794,188 795,179 799,173 803,167 807,160 810,154 811,145 816,140 825,138 830.113,140.5 835.259,140.798 839.758,141.66 
		849.883,145.268 860.067,145.268 867,146 875,148 879,154 880,163 883,170 883,177 878,182 873,187 870,194 866,201 864,208 
		862,217 860.966,223 852,227 843.893,228.24 	"/>
	<polygon fill="#00FF00" stroke="#800080" points="1277.811,193.631 1274,199 1269,204 1261.682,205.169 1256,211 1247,212 
		1239.346,209.415 1231.823,206.875 1227.145,202.743 1221.774,198 1217.39,191.397 1214.782,183.829 1213.171,174.648 
		1212.799,167.08 1211.559,160.505 1211.063,151.82 1213.171,144.996 1217.467,140.5 1222.973,135.691 1228,134 1237.489,132.342 
		1248.406,132.591 1258,134 1264,138 1271,141 1275,147 1277.811,158.395 1278.431,169.437 1278.803,181.472 	"/>
	<polygon fill="#00FF00" stroke="#800080" points="71.684,215.362 75.578,205.777 79.771,196.79 87.859,189.601 106,185.374 
		118,188 123,193 128,198 133,203 138,208 143,213 147,219 151,225 152,234 155,241 156,250 156,260 153,266 146,270 139,273 
		134,278 129,283 116.892,285.547 101,280.061 90.854,272 80.071,267.481 74,259 69,254 62,251 61.2,242.619 68.389,226.145 	"/>
	<polygon fill="#00FF00" stroke="#800080" points="347.908,254.287 340.295,250.589 335.836,245.341 333.378,235.46 332.365,228 
		329.365,221 325.629,217 323,213 323,204 326,198 329,191 332,184 338,179 344,176 353,174 363,174 371,176 378,179 383,184 
		388,189 391,196 395,202 399,208 400,217 397,224 395,232 391,238 386,243 379,246 374,251 367,254 360,256 354,255.81 	"/>
	<polygon fill="#00FF00" stroke="#800080" points="915,268 910,263 905,258 900,253 893,250 888,245 883,240 878,235 872,231 
		866,227 862,221 863,212 866,205 868,196 871,190 876,184 881,179 887,175 896,174 906,174 915.33,176.402 923.221,179.072 
		931.956,180.529 941.787,181.378 948,182 958,182 966,184 971,189 970,198 971,207 974,214 976,222 978.675,228.24 976.281,231 
		971,235.104 964.025,239.437 959.073,242.656 952.017,247.36 946.27,251.275 942.979,255.035 935.675,259.74 927.381,264.444 
		921.314,269.52 	"/>
	<polygon fill="#00FF00" stroke="#800080" points="1026,258.286 1023,257 1017.42,251.315 1010.879,247.93 1002,244.342 
		992.436,240.596 987.214,237.902 983.5,232.868 980,230 977,223 974,216 971,209 970,200 971,191 975,185 983,182 993,182 
		1002,183 1009,186 1016,189 1023,192 1030,195 1036,199 1042,203 1045,210 1048,217 1048,227 1048,237 1047,246 1042,251 1037,256 
		1031,259 	"/>
	<polygon fill="#00FF00" stroke="#800080" points="1230.573,272.814 1224.77,273.564 1216.421,272.758 1208.349,270.407 
		1199,267.372 1189.436,265.126 1180.133,263.353 1168,256.174 1161.945,246.122 1162.149,228.007 1165.149,220.007 1175.195,212 
		1188,207.832 1204.729,206.326 1216.261,209.899 1225,216.372 1231.939,221.06 1236.813,226.109 1241.683,229.298 
		1247.441,233.461 1252,239.372 1252.392,249.153 1250.243,256.203 1247.281,263.663 1241.865,268.364 1235,271.372 	"/>
	<polygon fill="#00FF00" stroke="#800080" points="310,308 300,308 290,308 280,308 272,306 265,303 260,298 257,291 254,284 
		250,278 247,271 246,262 247,252 250,246 253,239 258,234 265,230 272,227 280,224.754 290,223 295.493,217 300.485,208.821 
		309.698,204.52 320.463,206.242 325.283,217.957 329.365,221 332.365,228 333.378,235.46 336.392,247.572 338.772,255.375 340,263 
		338.337,271.038 335,278 332,284 325.629,293.206 320.893,299.663 317.35,305.086 314,307 	"/>
	<polygon fill="#00FF00" stroke="#800080" points="769,319 762,316 755,313 751,307 748,300 744,294 741,287 736,282 734,274 
		734,264 736,256 739,249 743,243 747,237 752,232 759,229 767,226 775,225 782,223 789,226 798,227 805,230 810,235 815,240 
		819,246 820,255 818,263 818,273 819,282 820,291 820,301 817,308 811,307 803.608,310.123 796,310 786.995,314.298 
		780.496,316.023 774.656,319 	"/>
	<polygon fill="#00FF00" stroke="#800080" points="882,324 872,324 862.857,319 857.905,314.114 852.271,310.528 848.855,303.356 
		841.513,302.502 836.391,299.258 832.291,296.013 826.486,288 823.41,282.011 822.9,276.889 822.729,267.839 823.925,261.35 
		827.17,252.129 829.73,247.69 833.316,240.006 836,236 842,231 848,228 857,226 866,227 872,231 878,235 883,240 888,245 893,250 
		900,253 905,258 910,263 914,269 914,279 913,287 910,295 909,304 904,309 899,314 894,318 887,322 	"/>
	<polygon fill="#00FF00" stroke="#800080" points="980,345 976,339 971,334 967,328 963,322 958,317 951,314 944,311 936,309 
		928,308 923.615,308.13 914,303.536 915.438,293 916.729,285.456 920.5,275 922.429,269.148 927.381,264.444 935.675,260.483 
		942.979,255.035 947.313,250.083 952.017,247.36 958.203,244.141 964.025,239.437 970,235 977,231 983.5,232.868 987.214,237.902 
		995.882,242.375 1003.712,244.892 1009,247.129 1015.735,250 1022.143,255 1026,260 1028,268 1025,275 1022,282 1019,289 1018,298 
		1015,304 1010,310 1007,316 1003,323 1002,332 1000,337 993,340 987,345 	"/>
	<polygon fill="#00FF00" stroke="#800080" points="0,288 2,281 2,271 2,261 6,254 12,251 22,250 32,250 45.325,257.298 
		60.901,269.279 68.988,283.956 69.587,292 73,299 80,302 87,305 96,306 104,304 111,303 117,307 120,314 122,322 126,328 131,333 
		132,342 132,352 130,360 127.997,368.725 121.707,377 115.716,382.803 101.413,392.375 87.859,395.683 63.597,393.886 
		48.919,386.697 39.634,383.103 33.044,379.509 26,373 23,366 18,361 15,354 10,349 5,344 0,339 	"/>
	<polygon fill="#00FF00" stroke="#800080" points="394.244,320.85 388.807,327.594 377.277,331.073 367.704,332.597 
		359.656,331.727 349,330 340,322.842 334.67,308.518 333.378,293 341,278 354.043,267.806 371,263.931 382,262 395,265 400,270 
		404,276 407,283 409.473,290.613 412,298 412,308 408.603,315.194 401.206,319.326 	"/>
	<polygon fill="#00FF00" stroke="#800080" points="1070.895,416 1060.895,416 1051.895,415 1044.895,412 1036.895,410 1029.895,407 
		1023.894,403 1020.931,398.303 1015.946,393.134 1009.894,388.275 1007.282,381.573 1002.894,372.957 1002.894,363.386 
		999.893,352.897 1002.868,339.497 1006.74,330.267 1010.315,322.228 1013.888,314.782 1019.245,307.34 1023.714,299.598 
		1034.136,288.879 1040.688,281.732 1051.406,277.861 1066.293,274.586 1081.182,276.969 1089.222,282.626 1094.035,286.483 
		1098.189,291.72 1100.534,298.406 1103.229,302.296 1108.566,306.842 1113.895,310 1118.895,315 1120.895,323 1119.895,332 
		1116.895,339 1116.895,349 1116.895,359 1114.895,367 1112.895,374 1108.895,381 1105.895,388 1102.895,395 1097.895,399 
		1090.895,403 1085.895,407 1078.895,411 1073.895,415 	"/>
	<polygon fill="#00FF00" stroke="#800080" points="501.276,328.897 493.01,329.115 483.003,328.679 473,330 465.599,328.897 
		456.463,326.504 447,326 439.059,322.806 435,318 431,312 432,304 434,297 436,288 441,283 446,278 451,273 456,268 461,263 
		470,262 480,262 490,262 498,264 503,269 507,275 509.543,279.953 511.282,286.914 513.024,295.397 513.459,303.882 
		512.589,311.931 510.631,318.675 507,326 	"/>
	<polygon fill="#00FF00" stroke="#800080" points="182,339 176.821,341.767 167.536,342.365 158.25,341.767 147.766,340.269 
		141,339 134,337 129,332 124,327 122,319 119,312 119,304 122,297 124,288 129,283 134,278 139,273 146,270 152,267 162,266 
		171,267 178,270 184,274 189,279 194,284 197,291 200,298 200,308 200,318 199,326 194,331 188,335 	"/>
	<polygon fill="#00FF00" stroke="#800080" points="728.916,345.165 721.382,346.259 712,346.259 703.709,344 694.605,341.105 
		688.543,338.369 681,332 680,325 679,316 676,309 676,299 676,288 680,278 688.125,271 693.722,268 701.472,264.792 708.359,268 
		718,270 725.655,271.756 732.057,276.222 736,282 740.395,287.388 744,294 748,300 751.263,311.209 749.178,320.44 746,327 
		744.092,332.813 738.065,339.7 734.084,342.665 	"/>
	<polygon fill="#00FF00" stroke="#800080" points="612.714,370.877 604,372 592.118,372 586,366 582.219,357.353 579.202,345 
		582.649,336 583.94,326 585.66,315.162 588,308.13 593.409,302.678 599.069,299.506 601,295 606,290 611,285 616,280 625,278 
		635,278 644,279 651,282 660,283 666,287 673,290 676,297 676,307 679,314 680,323 678,331 673,335 669.183,341.855 
		662.294,346.259 655.233,351.057 645.504,350.895 640,352.616 634,357 629.524,360.552 624.23,364.656 618.935,367.568 	"/>
	<polygon fill="#00FF00" stroke="#800080" points="934,402 926,400 923.615,396.96 920.5,393.5 914,386 910,379.309 905.966,372 
		900.366,362.089 892.016,348 889.606,331 894.342,321.19 903,311 909,306 916,307 922,311 928,308 936,309 944,311 951,314 
		958,317 963,322 967,328 971,334 976,339 980,345 983,352 984,361 984,371 984,381 980,387 974,390 965,391 952,400 942,403 	"/>
	<polygon fill="#00FF00" stroke="#800080" points="811.25,381.165 806.334,379.915 800.05,377.351 793,375 784.929,372.265 
		778.834,369 771.943,365.046 766.834,360.25 764,354 762,346 762,336 764,328 767.811,325 772,321.098 778.594,319 784.884,315 
		791.771,312.712 801,310.615 812.142,308.518 819,310 827,312 832,317 837,322 840,329 840,338 837.75,345.915 836,354 
		833.75,361.75 831,370 827.416,375.25 820.834,379 815.916,380.75 	"/>
	<polygon fill="#00FF00" stroke="#800080" points="478,424 468,424 458,424 451,421 444,418 439,413 436,406 436,396 
		432.098,386.546 429.704,379.802 428,374 424.919,365.01 424,358 423,349 424.7,341.297 428,336 433,331 440,327 449.936,327.592 
		458.855,328.243 466.033,331.073 474.518,331.508 485,330 494,331 501,334 508,337 513,342 516,349 519,356 522,363 524,371 
		523,380 520,386 516,393 511,398 506,403 501,408 496,413 491,418 484,421 	"/>
	<polygon fill="#00FF00" stroke="#800080" points="399.684,417.871 391.198,419.829 384.674,422.223 375.972,422.657 368,422 
		361,419 354,416 347,413 338,412 329,411 322,408 315,405 311,399 310,390 308,382 306,374 306,364 308,356 313,351 318,346 
		323,341 328,336 335,333 343,330 353.565,332.159 362.049,335.641 369.228,334.989 382.497,331.289 393,330 402,331 408,335 
		414,339 419,344 421.003,348.91 421.438,356.307 422.526,363.703 422.526,372.406 422.526,379.15 421.656,385.676 423.396,395.247 
		422.526,401.342 420.35,407.216 416.435,411.132 412.737,413.307 406.427,415.697 	"/>
	<polygon fill="#00FF00" stroke="#800080" points="162,484 152,484 143,483 136,480 130,476 123,473 116,470 111,465 107,459 
		106,450 107,441 110,434 111,425 114,418 115,409 119,403 123,396 126,390 127,380 130,374 130,364 131,355 135,348 138,342 
		144.172,340.269 150.374,340.269 158.25,341.767 167.536,342.365 178.618,342.665 184,341 187,348 191,354 192,363 196,369 
		201,374 204,381 209,386 214,391 219,396 223,402 224,411 224,421 221,428 218,435 216,442 212,449 209,456 206,463 201,468 
		196,473 190,476 182,479 174,480 166,483 	"/>
	<polygon fill="#00FF00" stroke="#800080" points="652.729,449.379 647,449 638,448 631,445 626,440 622,434 619,427 
		618.935,421.308 621.185,416.146 625.686,413.631 627.142,410.322 626.215,406.747 621.185,403.968 618,398 615,391 611,385 
		614.17,376.569 617.611,372.068 623.038,367.303 628.863,363.729 634.025,360.155 638.128,357.242 643.952,354.463 650.75,352.187 
		660.63,351.949 665.528,351.421 667.248,349.831 668.837,344.802 671.352,342.817 674.793,340.434 678.5,338.052 686.505,337.536 
		691.729,339.671 700.411,344 712,346.259 721.382,346.259 727.672,350.155 731,352 732,361 735,368.427 735,377 732.639,384 
		731,390.657 730.259,398.985 725.645,407.479 720.448,414.462 716.063,419.171 712.325,422.58 709.24,427.778 705.345,431.84 
		700,437 694,440 687,443 679,446 672.701,446.29 665.883,447.592 657.763,449.216 	"/>
	<polygon fill="#00FF00" stroke="#800080" points="772.545,478.362 766.807,475.903 763.116,470.574 759,466 755,460 752,453 
		747,448 743,442 740,435 737,428 734,421 731,414 731.895,402 733.085,393.483 733.977,386.791 735,382.479 736.948,379.357 
		740.668,377.126 746.319,372.664 755.092,368.65 764,366 773,367 779,371 786,374 794,376 801,379 807.166,383.415 811,389 
		814,396 816.916,404.25 818,412 818,422 817.615,429.922 815.265,437.922 813.877,444.657 811.104,452 808.324,462.1 
		807.174,469.345 803.896,476.312 797.746,478.771 786.684,479.386 778.896,479.181 	"/>
	<polygon fill="#00FF00" stroke="#800080" points="985.482,460.155 980.681,458.123 976.989,454.802 972.188,450.184 967,445 
		962,440 957,435 953.538,428.951 951.14,422.49 947,413.571 947,405 952,400 958,395 964,392 973,390 980,387 989,386 998,387 
		1005,390 1010.96,392.948 1017,398 1021.485,406.058 1022.406,414.735 1020.744,423.781 1019,434 1016,441 1011.328,445.015 
		1006.345,449.261 998.959,452.953 993.42,457.016 989.174,459.97 	"/>
	<polygon fill="#00FF00" stroke="#800080" points="844.547,512 833.896,508.281 820.814,495.005 811.301,480.731 808.324,464 
		813.281,451 816.451,436.927 818,427.611 818,420 819,411 823,405 831,402 841,402 848,405 856,407 862,411 867,416 871,422 
		876.313,437.72 878.49,452 880.766,469.049 879.087,487.297 874,497 871,503 865,507 858,511 	"/>
	<polygon fill="#00FF00" stroke="#800080" points="922,528 912,528 904,526 897,523 892,518 885,515 880,510 878.097,505.905 
		876.313,499.76 878.461,492.86 879.683,482 880.674,474.191 880.869,463.094 879.088,450 877.502,431.381 879.484,419.486 
		884.043,412.945 890,410 897,406 904,403 913,402 923,402 933,402 939.23,405.552 943.24,408.616 947,414.986 949.479,423.781 
		952.615,430.614 957.416,437.075 961.849,443.171 967.388,447.969 972.37,453.51 976.617,458.308 979.02,462.369 980.127,468.831 
		980.313,474.004 977.358,482.31 974.219,490.434 971.634,495.235 967.019,500.774 964.247,505.573 959,510 954,515 947,518 
		940,521 934,524 926,527 	"/>
	<polygon fill="#00FF00" stroke="#800080" points="1126.817,480.909 1121,482 1117,482.201 1107.443,481.772 1097.541,485 
		1088.666,485 1081,482 1074,481 1069,476 1065,470 1062,463 1057,458 1057.936,450 1057,443 1060,436 1065,431 1070,426 1073,419 
		1078,414 1084,411 1091,407 1097,403 1106,402 1116,402 1126,402 1134,404 1139,409 1144,414 1149,419 1152,426 1152,436 1151,445 
		1146,450 1143,456 1140,464 1135,469 1134,478 1131.877,480.654 	"/>
	<polygon fill="#00FF00" stroke="#800080" points="446,512 436,512 426,512 419,509 410,508 403,505 398,500 393,495 390,488 
		386,482 383,475 382,466 383,457 386,450 389,443 392,436 398,431 404,428 411,425 418,422 425,418 435,418 443,420 450,423 
		457,426 462,431 467,436 472,441 475,448 476,457 476,467 476,477 473,484 468,489 465,496 460,501 455,506 450,511 	"/>
	<polygon fill="#00FF00" stroke="#800080" points="1205.262,541.25 1199.412,543.443 1192.98,544.613 1184.207,542.273 
		1177.189,539.202 1173.24,535.257 1170.171,529.845 1168.924,522.596 1170.807,511.831 1173.999,506.018 1176.367,502.522 
		1176.029,499.026 1173.548,497.109 1169.262,495.642 1164.686,492.739 1159.366,489.066 1155.694,485.52 1153.414,481.214 
		1150.881,476.906 1149.868,471.715 1150.881,466.396 1151.895,461.134 1155.052,455.382 1159.45,448.952 1165.202,444.555 
		1173,442 1183,442 1193.622,443.201 1202,442 1209,438 1219,438 1229,438 1236,441 1241,446 1243.587,453.574 1248,459 1251,466 
		1255,472 1260,477 1263.436,483.01 1266.368,490.115 1267.841,495.049 1268.061,503.534 1268.133,510.84 1266.671,516.539 
		1263.893,521.803 1259.361,527.067 1253.656,530.575 1248.098,531.843 1241.331,533.196 1233.189,533.503 1224.563,530.722 
		1217.691,529.698 1212.865,531.307 1209.795,536.135 	"/>
	<polygon fill="#00FF00" stroke="#800080" points="722,568 712,568 702,568 695,565 688,562 682,558 674,556 666,554 656,554 
		651,549 646,544 642,538 642,528 642,518 645,511 648,504 653,499 658,494 663,488 666,482 673,478 680,475 685,471 692,467 
		697,463 702,458 707,453 715,450 722,447 731,446 739.759,450.087 744.677,454.8 748.776,459.922 751.439,465.045 754.922,469.963 
		758.611,476.313 759.226,480.821 759.021,485.123 758.199,490.246 757.176,495.573 757.381,503.77 758,513 759.84,522.214 
		762.418,531.975 765.988,539.219 767.511,546 766,552 756,552 749,551 740,553 735,558 730,563 725,567 	"/>
	<polygon fill="#00FF00" stroke="#800080" points="1037.698,546.78 1025.717,548.071 1020,548.504 1012.73,545.057 
		1008.855,540.755 1002,540.322 995,539 989,535 986,528 981,523 978,516 978,506 978,496 978,486 981,479 984,472 987,465 992,460 
		998,455 1004,452 1013,450 1023,450 1033,450 1042,451 1049,454 1056,457 1061,462 1064,469 1067,476 1071,482 1071,490 
		1073.433,494.5 1073.433,501 1071,514 1066,525 1066,535 1063,542 1056,545 1050,548 1043.729,547.641 	"/>
	<polygon fill="#00FF00" stroke="#800080" points="0,472 5,467 14,466 24,466 34,466 44,466 51,469 58,472 63,477 67,483 
		65.344,495.531 71.417,500.738 73.731,507.679 71.417,521.272 64.766,528.216 53.775,535.155 42.5,541.228 32.084,547.302 20,551 
		13,548 0,547.594 	"/>
	<polygon fill="#00FF00" stroke="#800080" points="130,544 119.428,541.518 106,534.73 100.9,525.26 95.303,519 85.3,515.488 
		73.731,507.679 71.417,495.241 73.153,480.781 86,467 95,466 105,466 114,467 120,471 126,475 133,478 138,483 143,488 147,494 
		149,502 150.374,508.839 149,516 148,525 145,532 140,537 135,542 	"/>
	<polygon fill="#00FF00" stroke="#800080" points="362,556 352,556 342,556 332,556 322,556 315,553 308,550 301,547 296,542 
		293,535 290,528 290,518 293,511 296,504 300.259,499.387 303.673,491.677 310.13,484 315.727,481 320.893,476.609 326,474 
		331,469 339,466 347,468 354,471 360,475 366,479 371,484 376,489 383,492 388,497 391,504 392,513 392,523 390,531 387,538 
		382,543 377,548 371,551 365,555 	"/>
	<polygon fill="#00FF00" stroke="#800080" points="1123.804,570.456 1116,576 1106,576 1099,573 1090,572 1083,569 1078,564 
		1073,559 1070,552 1071,546.78 1066,536 1066,526 1073.433,512 1080.321,490.385 1088.666,485 1097.541,485 1112.395,483.802 
		1119.395,486.802 1129,486 1138,487 1145,490 1152.918,492.852 1157.305,497.094 1162.13,502.648 1164.177,508.935 
		1166.368,517.269 1165.49,529.405 1162.276,536.133 1158.241,542.905 1151.454,546.365 1145.462,551.19 1140.781,556.453 
		1135.373,560.694 1131.119,565 	"/>
	<polygon fill="#00FF00" stroke="#800080" points="558,556 548,556 538,556 529,555 524,550 519,545 514,540 510,534 510,524 
		512,516 515,509 519,503 523,496 526,490 533,486 540,483 549,482 558,483 565,486 572,489 577,494 582,499 585,506 588,513 
		588,523 587,532 583,538 578,543 573,547 566,551 561,555 	"/>
	<polygon fill="#00FF00" stroke="#800080" points="805.533,543.318 798.979,548.031 790.369,551.514 777,551 771.725,545.981 
		765.5,535 762.5,528 761.07,519.756 759.5,509.5 758.431,499.121 761.889,490.04 766.604,483.484 773.979,480.821 784.5,481 
		794.5,481 804.5,481 811.5,484 816.5,489 820.814,495.005 823.5,502 823.771,508.893 824,516 822.338,521.597 818.5,528 
		812.5,534.5 	"/>
	<polygon fill="#00FF00" stroke="#800080" points="832.173,608.274 824.182,613.192 816,614 809,611 804,606 801.438,600.488 
		797.543,593.726 794,586 794,576 794,566 797,559 802,554 806.15,549.468 809.83,542.17 812.5,534.5 818.5,528 822.5,523 
		826.5,516.5 833,514 842,515 849.591,518.319 856.148,521.597 860.861,526.927 866.189,531.228 871.926,533.277 877.661,537.378 
		883,544 889.956,550.49 893.646,557.456 893.237,565.448 889,572 886,579 881,584 876,589 871,593 865.162,597.212 
		856.558,598.439 850.615,595.365 845.285,596.389 838.321,603.766 	"/>
	<polygon fill="#00FF00" stroke="#800080" points="498,628 488,628 480,626 472,624 466,620 461,615 456,610 453,603 450,596 
		447,589 442,584 438,578 438,568 438,558 439,548 442,542 447,537 454,534 461,530 471,530 481,530 491,530 499,532 506,535 
		513,538 518,543 523,548 528,553 531,560 535,566 536,574 532,581 532,591 530,599 527,606 522,611 517,616 512,621 506,624 
		499,627 	"/>
	<polygon fill="#00FF00" stroke="#800080" points="1235,617 1229.709,616 1221.198,610.115 1213.304,607.633 1208.332,605.145 
		1205.847,602.074 1206.462,597.15 1205.115,585.99 1203.362,576.488 1200.73,562.45 1202.485,552.802 1207.017,545.929 
		1212.573,541.545 1219.445,537.595 1229.24,536.279 1239.189,536.576 1248.323,540.411 1254.527,545.034 1259.037,549.547 
		1264,554.396 1267,560 1270,567 1272,575 1272,586 1268.025,600.162 1258.985,609.635 1245.76,616 	"/>
	<polygon fill="#00FF00" stroke="#800080" points="210,644 203,641 198,636 190,634 180,634 170,634 162,632 158,626 156,618 
		153,611 150,604 147,597 146,588 146,578 147,569 152,564 157,559 164,555 170,551 179,550 186,547 195,546 204,547 210,551 
		215,556 220,561 225,566 230,571 236,575 242,579 247,584 251,590 255,596 255,604 252,610 248,617 245,624 240,629 235,634 
		228,637 222,640 214,643 	"/>
	<polygon fill="#00FF00" stroke="#800080" points="666,640 656,640 646,640 636,640 630,636 624,632 618,628 613,623 610,616 
		605.83,613.17 602.166,605.5 599.83,597 597.5,586 605.166,573.834 611,569.834 616,568 619.83,561.834 625.166,557.834 
		629.83,550.5 642,548.781 648.781,552 663,554 672,555 679,558 687,560 692,565 697,570 700,577 703,584 704,593 704,602 700,609 
		697,616 694,623 689,628 683,631 677,635 670,639 	"/>
	<polygon fill="#00FF00" stroke="#800080" points="833.156,694 827,697.299 820.688,697.299 817.703,682.656 820.829,670.459 
		826,655 827,646 831,640 835,633 840,628 845,623 850,618 854,613 858,606 863,601 868,596 873,591 880,588 888,586 897,587 
		906.556,589.837 913.319,595.366 915.365,600.49 919.261,606.432 920,614 922.537,622.213 924,630 924,640 923,649 922.129,656.02 
		919.875,662.577 915.982,667.699 906.615,670.459 896.317,670.459 885.475,670.459 871.921,670.459 860.55,678.955 
		845.646,689.316 	"/>
	<polygon fill="#00FF00" stroke="#800080" points="318,680 308,680 298,680 288,680 280,678 272,676 266,672 261,667 256,662 
		253,655 248,650 246,642 246,632 247,623 251,616 254,610 259,605 264,600 271,597 279,594 286,591 295,590 305,590 314,591 
		320,595 326,599 331,604 336,609 339,616 342,623 344,631 344,641 343,650 340,657 339,666 334,671 329,675 322,679 	"/>
	<polygon fill="#00FF00" stroke="#800080" points="162.521,682.368 152.688,672.535 148.35,665.595 147.482,658.654 149,651 
		152,644 155.869,637.254 161.364,634 170,634 183,634 193,634 200,637 205,642 208,649 211.11,659.232 208,669 204,674 
		198.673,680 188.551,683.527 177,687.574 	"/>
	<polygon fill="#00FF00" stroke="#800080" points="600,702.334 591,701.334 584.5,695.5 573.37,682 571,669.5 571,659.334 
		574,652.334 577,645.334 582,640.334 587,635.334 594,631.334 604,631.334 614,631.334 621,634.334 626,639.334 629.166,646.834 
		633,664.5 633,672.334 629.166,679.5 625.166,689.17 619.166,695.834 613,702.334 	"/>
	<polygon fill="#00FF00" stroke="#800080" points="109.016,699 98.604,713.027 81,720 72,719 67,714 62,709 57,704 52,699 50,691 
		50,681 52,672 55,666 60,660 65,655 70,650 76,647 83,643 92,642 102,642 108,646 115,649 120,654 127,657 128.394,671.382 
		118.849,685 	"/>
	<polygon fill="#00FF00" stroke="#800080" points="459.67,745.111 455,745 447,743 440,740 434,736 428,732 419,731 413,727 
		408,722 405,715 400,710 398,702 398,692 398,682 398,672 400.109,664.315 403.984,653.983 410,647.525 417.76,647.525 426,651 
		432,655 439,658 447,660 454.118,661.997 461.139,664.12 470,667 475,672 480,677 483,684 484,693 484,703 484,712 
		482.857,719.148 479.264,724.699 473.549,731.068 469.304,737.599 463.262,743.315 	"/>
	<polygon fill="#00FF00" stroke="#800080" points="870,780 860.807,782.143 853.217,782.143 845.896,779.432 838,772 835,765 
		831,759 827,753 822,748 817,743 812,738 811,730 815,725 816,716 820.688,704.886 836,695.941 854.843,683 869.481,672.631 
		890.354,670.459 905.264,670.73 918,671 929.115,673.983 936.705,680.489 940.177,684.677 944.177,690.677 948,697.567 
		948,705.156 948,711 948,720.34 945.32,726.394 942.281,734.394 930.199,740 926.948,742.297 921.527,742.839 914,747 
		910.411,744.734 906.89,747 906.348,754 905.184,762.817 890.08,774.5 882,775 875,778 	"/>
	<polygon fill="#00FF00" stroke="#800080" points="226,760 216,760 206,760 196,760 187,759 180,756 172,754 164,752 158,748 
		148,748 140.83,748 136.781,742 137.07,734.139 141.697,726.618 152.688,717.654 160.497,713.316 167.148,706.662 175.247,689.311 
		183.923,686.421 203.301,680 217,678 224,681 231,684 238,687 243,692 244,701 247,708 248,717 248,727 247,736 244,743 242,751 
		237,755 230,759 	"/>
	<polygon fill="#00FF00" stroke="#800080" points="776.502,745.277 767.825,743.65 761,739 756,734 750.205,723.051 
		747.768,708.951 746,702 749,695 754.545,687.808 762,683 771.352,681.031 781,678.955 789.782,678.955 799,678.955 806,683 
		811,688 815,694 816,703 816,713 816,722 812,729 806,732 801.17,736.602 790.866,740 782.194,745.277 	"/>
	<polygon fill="#00FF00" stroke="#800080" points="694,800 684,800 674,800 660.572,791.745 652.822,787.87 647,779 643,773 
		637.754,763.762 633,743.098 630.436,730 630,722 633,712.115 645.935,702.334 653.684,702.334 661,702 670,702 677,698 687,698 
		695,697 703,694 713,694 723,694 732,695 738,699 740,707 740,717 737,724 732,729 728,734 724,741 724,751 724,761 724,770 
		720,777 717,784 712,789 707,794 700,797 	"/>
	<polygon fill="#00FF00" stroke="#800080" points="1038,804 1030.942,804 1022,800 1013,799 1005.479,799.838 997.494,796.334 
		990.388,788.593 985.561,777.881 983.459,771.308 986.366,761.922 994.041,755.709 1002.076,747 992.215,745.277 983,739 979,733 
		972.852,722.825 975.043,714 977,707 984,703 991,701 998,698 1005,694 1014,695 1021,698 1026,703 1031,708 1035,714 1045,714 
		1052,717 1060,719 1066,723 1073,726 1078,731 1083,736 1087,742 1088.666,749 1087.203,765.573 1086.476,776 1081,784 1076,789 
		1070,792 1063,795 1057,799 1048,800 1044.095,804 	"/>
	<polygon fill="#00FF00" stroke="#800080" points="1280,770.268 1271.24,774.272 1263.373,777.276 1254.9,780.187 1244.5,780.187 
		1237.2,775.419 1231.339,772.13 1224,767 1219,762 1216,755 1213,748 1212.52,740 1214,734 1217,727 1222,722 1225,715 1228,708 
		1233,703 1238,698 1246.927,694.472 1254,694 1261.656,697.761 1265.659,702.625 1269.523,707.487 1272.813,712.491 
		1277.442,716.545 1280,721.504 	"/>
	<polygon fill="#00FF00" stroke="#800080" points="504,772 494.123,774.666 484.979,772.38 479.323,770 475,764.622 470.714,760 
		469.304,752.133 469.238,742.252 472.57,735.64 475.835,730.578 481.06,724.536 485.633,718.006 488.245,712.291 491.347,709.024 
		495.266,705.269 499,702 505.88,699.881 516,699 524,699 531.843,701.187 539,704 544,709 548.171,716.535 551,722 
		550.784,731.068 548.988,738.09 545,743 538,747 531,750 525.964,753.112 520.249,756.704 512.574,761.603 508.982,768.135 	"/>
	<polygon fill="#00FF00" stroke="#800080" points="1145.657,807.952 1135.431,807.952 1112.779,802.108 1099.261,788.954 
		1088.666,768.133 1090.858,747.305 1094.512,735 1102.184,723.558 1117.895,712.115 1129.948,708.944 1139.43,708.944 1151,714 
		1160,715 1166,719 1173,722 1178,727 1183,732 1186,739 1188,747 1188,757 1188,766 1183.5,787.492 1173.063,798.453 1154.429,804 
			"/>
	<polygon fill="#00FF00" stroke="#800080" points="346,841.257 338.546,846.851 326.061,846.851 313.146,836.948 306.688,828.959 
		305.396,819.645 306.257,815.426 306,810 303,803 301,795 298,788 298,778 298,768 299,759 303,753 308,748 313,743 320,739 
		326,735 332,732 341,730 351,730 361,730 371,730 381,730 390,731 397,734 406,735 412,739 418,743 421,750 424,757 427,764 
		428,773 426.439,782.291 424,788 419,794 413,807 410,815 407.474,823.352 403,827 394,828 384,828 374.765,828.224 
		366.762,826.31 362.064,820.569 358.41,817.784 354.757,818.828 352.669,824.049 351,835 	"/>
	<polygon fill="#00FF00" stroke="#800080" points="786.331,816.669 775,811 769,807 766,800 763,793 762,784 763,775 766,768 
		768,760 774.063,752.323 782.194,745.277 795,740 800.356,740 809.845,742.566 818.787,749 823.669,754 829.904,759.371 
		832.886,767.507 836,771 836,781 833,788 831,796 828,802 824,809 812.831,816.169 799.166,818 	"/>
	<polygon fill="#00FF00" stroke="#800080" points="623,832 613,832 604,831 598,827 593,822 588,817 585,810 582,803 579,796 
		575,790 575,780 572,773 571,764 571,754 574,747 581,743 589,743 602,747 613.215,745.277 617.09,733.196 625.27,730 630,735.5 
		633,749 636.703,759.202 640,770 645,777 648,784 650.75,792.177 652,800 652,808 648,814 643,819 638,824 632,827 626,831 	"/>
	<polygon fill="#00FF00" stroke="#800080" points="82,820 72,820 63,819 56,816 48,814 43,809 38,804 34,798 31,791 30,782 30,772 
		31,763 35,757 40,752 47,749 54,746 61,742 71,742 79,744 86,747 93,750 98,755 103,760 106,767 108,775 108,785 108,794 104,801 
		101,808 96,813 90,816 83,819 	"/>
	<polygon fill="#00FF00" stroke="#800080" points="958,896 949,895 943,891 937,887 928,886 918,886 908,886 897.224,882.118 
		889.188,871.158 889.84,857.987 893.182,851.196 895.23,843.545 894.475,832.871 892,822 892,812 892,800 896.128,791.148 
		908,773.611 933.394,763.015 963.718,761.922 981,766 984,773 985.639,782.143 990.388,788.593 992.945,794 996.965,802.108 
		1000,807 1000,817 999,826 995,832 992,838 989.291,847.777 994,855 996,862 992,869 991,878 986,883 979,886 972,889 966,892 
		959,895 	"/>
	<polygon fill="#00FF00" stroke="#800080" points="534,868 524,868 514,868 507,865 498,864 491,861 489,856 492,850 491,841 
		492,832 492,822 491,813 491,803 488,796 488.359,793.734 491.134,791.056 492,784.857 497.637,781 507.478,779.635 
		513.277,775.414 523.116,775.594 529.27,773.483 538.056,775.594 548.776,776.822 554.048,781 557.739,786.661 560,793 561,802 
		564,809 564,819 564,829 561,836 559,844 555,850 551,856 547,862 540,865 	"/>
	<polygon fill="#00FF00" stroke="#800080" points="466,868 456,868 445.091,869.084 441,867.325 434,860 429,855 424,850 421,843 
		416,838 413,831 410,824 413.025,814.134 416,807.677 423.357,797 439,784.857 459.521,784.857 468.99,788.427 484,804.659 
		491,812 492,821 492,831 488.795,839.5 484,846.851 477.602,858.047 469.853,862.78 	"/>
	<polygon fill="#00FF00" stroke="#800080" points="863.97,868.879 856.531,868.445 850.461,866 845.323,862.302 840,857 837,850 
		834,843 830.666,833.834 829.331,827.169 829.5,820.169 830.831,813 833.831,806.5 838.331,802.169 844.5,797.834 853,795.834 
		862.831,795.169 872,798 878.331,799.669 885.831,803.669 890,810 892,818 892,828 892.966,837.937 892.211,847.209 
		888.979,853.782 884,860 878.091,864.456 871.3,867.475 	"/>
	<polygon fill="#00FF00" stroke="#800080" points="236.39,884.227 226.39,884.227 217.39,883.227 211.39,879.227 206.39,874.227 
		201.39,869.227 200,864.5 196.475,860.195 194.752,850 195.183,843.727 197.335,832 200.39,826.227 205.39,821.227 210.39,816.227 
		218.861,812.406 225.116,807.62 231.39,806.227 238.39,803.227 246.39,803.227 253.39,806.227 261.39,808.227 266.39,813.227 
		271.39,818.227 274.39,825.227 274.39,835.227 272.39,843.227 267.39,848.227 261.482,850 256.316,850 249.5,854.17 248,864.5 
		246.39,877.227 241.39,882.227 	"/>
	<polygon fill="#00FF00" stroke="#800080" points="793.166,946.505 787.166,947.005 775,948 766,947 760,943 756,937 755,928 
		752,921 749,914 744,909 741,902 738,895 738,885 742,878 743,870 747,864 751,857 755,852 758,845 762,841.199 766,835.72 
		770.882,831.584 775.882,826.584 781,822.201 788.831,819.5 800.771,819.645 809.5,819.669 815.5,820.669 823.5,823.334 
		826.166,826.669 828.666,832 832.166,840 835.19,847.427 838.101,854.864 842.304,861.223 847.047,866.613 847.5,873.5 
		847.666,880.669 848,888 846.166,896.169 843,903 840,910 837,916 832,922 826.666,927.5 821.666,931.834 817.166,936.5 
		811.166,940.669 806.166,943.338 799.831,945.505 	"/>
	<polygon fill="#00FF00" stroke="#800080" points="1280,893.862 1274.549,901.177 1269.148,908.427 1265.016,914.118 
		1259.808,918.413 1253.438,921 1245.76,921 1237.049,919.112 1230.057,917.196 1224.128,913.365 1218.73,909.888 1215.056,904.573 
		1210.131,893.862 1207.607,884.801 1208.525,875.161 1210,865 1212.998,857.608 1217,851 1222,846 1227,841 1234,838 
		1244.779,836.728 1254,838 1264.168,842.926 1272.314,849.692 1280,857.264 	"/>
	<polygon fill="#00FF00" stroke="#800080" points="385,943 374.383,943 366.619,940.99 359.828,938.078 353.363,932.633 
		348.189,928.381 343.659,919.323 343.659,911.239 346,902 346,892 348,884 351,877 356,872 363,869 370,866 377,862 384,860 
		391,857 399,854 406,851 415,850 424,851 430,855 435,860 439,866 440,874 436,881 436,890 432,897 429,903 424,909 421,916 
		418,923 411.571,928.7 404.454,934.198 399.884,939.081 394.432,941.313 388.955,941.081 	"/>
	<polygon fill="#00FF00" stroke="#800080" points="160.667,977.334 150.667,977.334 140.667,977.334 131.667,976.334 
		126.667,971.334 119.667,968.334 114.667,963.334 109.667,958.334 104.667,953.334 100.667,947.334 97.667,940.334 96.667,931.334 
		96.667,921.334 98.667,913.334 104.667,908.334 110.667,905.334 117.667,902.334 125.667,899.334 132.667,896.334 140.667,895.334 
		145.667,890.334 150.667,885.334 155.667,880.334 162.667,876.334 171.667,875.334 178.667,878.334 183.667,883.334 
		186.667,890.334 189.667,897.334 192.667,904.334 194.667,912.334 197.667,919.334 198.667,928.334 198.667,938.334 
		195.667,945.334 194.667,954.334 191.667,961.334 185.667,964.334 179.667,968.334 172.667,972.334 165.667,975.334 	"/>
	<polygon fill="#00FF00" stroke="#800080" points="929.613,958.115 919.613,958.115 909.613,958.115 900.613,957.115 
		893.613,954.115 886.613,951.115 881.613,946.115 877.613,940.115 875.613,932.115 873.613,924.115 874.613,915.115 
		877.613,908.115 880.613,901.115 885.613,896.115 892.613,892.115 899.613,889.115 908.613,888.115 918.613,888.115 
		928.613,888.115 935.5,891.5 943,896 948,898.5 952,904 957.613,909.115 959.613,917.115 958.613,926.115 955.613,933.115 
		953.613,941.115 948.613,946.115 943.613,951.115 937.613,954.115 930.613,957.115 	"/>
	<polygon fill="#00FF00" stroke="#800080" points="434,1000 424,1000 415,999 406.396,996 397.323,990.723 393,985.291 
		388.797,980.113 385.054,974.5 381.82,969.77 376.646,959.765 376.646,953.601 382,947 388.935,943.5 394.432,941.313 
		401.546,938.403 410,932.633 417,926 422.24,922.234 423,916 426,910 429,903 436,899 442,895 451,894 461,894 464.604,896.5 
		470.101,896.5 474.305,901.217 475.729,909.352 476.242,917.705 477,923 475,932 479,938 482,945 482.066,951 486.27,955.219 
		487.24,965.241 490.15,969.447 489,976 486,979 479,982 472,985 466,988 458,991 450,992 443,995 437,999 	"/>
	<polygon fill="#00FF00" stroke="#800080" points="231,981 224,978 219,973 217,967 212,962 210,954 209.139,947 208.492,939.052 
		210,932 212,924 217,919 221.104,916.737 226.601,914.439 232.745,911.239 238.243,909.946 245.68,910.914 252.147,912.531 
		266.053,914.439 275,916 280,921 285,926 288,933 289,942 288.689,948.427 285.778,955.219 284.162,961.685 280.035,968.01 
		274.39,971.063 270.903,976 266,978 256.207,981 245.68,981 238.243,982.384 	"/>
	<polygon fill="#00FF00" stroke="#800080" points="1136.526,1016 1130.681,1023 1115.096,1023 1105.096,1023 1090.127,1021.321 
		1082.09,1015.476 1076.975,1008.532 1074.416,1003.053 1074.416,992.823 1078,982 1078,972 1080,964 1083,957 1088,952 1094,947 
		1102,946 1109,942 1116,939 1123,937 1130,934 1135,929 1143,926 1153,926 1163,926 1171,928 1176,933 1179,940 1183,946 1187,952 
		1188,961 1188,971 1190.599,981.864 1187.676,991.728 1178.541,999.765 1170.867,1002.688 1162.102,1003.783 1156.618,1004.883 
		1152,1005 1143.104,1001.956 1141.462,1007.801 	"/>
	<polygon fill="#00FF00" stroke="#800080" points="214.636,1023.773 213.99,1017.305 216.577,1003.401 219.869,989.495 
		226.601,986.588 234.508,984.22 252.147,982.384 270.903,976 285.508,963.22 295.508,963.22 305.508,963.22 315.508,963.22 
		325.508,963.22 335.508,963.22 342.508,966.22 350.508,966.22 357.508,963.22 363.508,967.22 368.508,972.22 373.508,977.22 
		378.508,982.22 383.508,987.22 388.508,992.22 393.508,997.22 396.508,1004.22 397.342,1011.808 396.508,1017.22 395.402,1022.156 
		382.788,1023.773 	"/>
	<polygon fill="#00FF00" stroke="#800080" points="775,1024 774.465,1018.398 774.465,1010.726 773,1003 773,994 773,984 773,974 
		777,967 782,962 789.81,958.115 802.597,956 813.191,956 827,963.964 832.921,970.536 838,976 839.229,985.885 838,994 
		842.55,1001.733 844.979,1011.455 846,1016 852,1023 	"/>
	<polygon fill="#00FF00" stroke="#800080" points="852,1023 847,1018 846.804,1011.094 841.229,998.823 839.229,990.823 
		840.229,974.5 847.169,965.786 859.5,958.115 882.608,958.846 889.912,963.964 896.49,967.25 901.972,976.018 908,984 908,994 
		907,1003 905.99,1010.361 896.857,1023 	"/>
	<polygon fill="#00FF00" stroke="#800080" points="66.73,1024.002 67.124,1015.621 70.069,1008.814 74.248,1003 79.248,997 
		86.248,994 93.248,991 103.248,991 112.248,992 119.248,995 126.248,998 131.248,1003 136.248,1008 139.323,1012.349 
		140.5,1019.093 138.995,1024.002 	"/>
	<polygon fill="#00FF00" stroke="#800080" points="71.923,578.852 58.452,575.4 51.183,571.636 46.9,566.105 40.182,558.581 
		36.865,554.532 34.687,547.303 46.287,537.819 53.718,533.422 64.905,526.8 73.51,521.701 81.062,520.719 87.912,522.474 
		94.06,526.969 101.948,534.19 104.248,544.18 103.353,550.52 101.826,558.397 97.736,571.019 87.034,575.955 	"/>
	<polygon fill="#00FF00" stroke="#800080" points="145.344,639.947 135.334,647.084 124.344,648.818 117.114,648.818 
		107.955,643.965 104.248,641.01 98.315,637.826 93.296,626.524 95.133,616.718 99.669,604.556 101.34,594.697 105.468,588.3 
		111.234,584.201 118.637,582.414 129.244,581.06 138.355,585.76 142.616,590.537 147.642,596.796 150.374,612.666 150.374,626.26 	
		"/>
	<polygon fill="#00FF00" stroke="#800080" points="66.79,621.344 54.643,607.463 54.932,595 58.403,584.323 68.49,578.852 
		81.49,578.852 91.49,578.852 98.49,581.852 104.248,590.189 100.733,598.275 99.669,604.556 95.796,614.939 93.296,622.213 
		83.978,627.314 	"/>
	<polygon fill="#00FF00" stroke="#800080" points="142.854,723.728 137.07,734.139 133.021,740.505 128.394,740.505 
		120.295,740.216 115.155,738.99 111.248,735.084 106.248,730.084 104.248,722.084 104.248,712.084 106.248,703.084 
		109.248,697.084 114.248,691.084 119.248,686.084 124.248,681.084 128.394,675.719 139.248,670.693 147.482,671.382 
		154.423,675.719 161.152,681 167.727,683.527 174.248,687.574 169.343,701.964 160.497,713.316 149.811,720 	"/>
	<polygon fill="#00FF00" stroke="#800080" points="62.998,241.122 62,251 50.221,250 39.334,250 31.247,248.311 23.221,248.5 
		18.221,243.5 16.569,238.725 16.597,229.037 14.772,219.256 15.292,208.698 18.221,194.5 23.221,189.5 28.221,184.5 35.221,181.5 
		41.221,178.5 51.221,177.5 60.221,178.5 67.221,181.5 73.221,185.5 78.221,190.5 77.975,197.689 75.578,205.777 72.237,214 
		66,229.44 	"/>
	<polygon fill="#00FF00" stroke="#800080" points="0,126 9.081,129.693 14.772,132.988 17.281,137.916 22.515,146.379 
		28.239,156.352 30.947,171.628 27.353,178.817 22.86,185.406 17.468,191.997 9.381,196.789 0,199 	"/>
	<polygon fill="#00FF00" stroke="#800080" points="0.994,199 8.482,201.582 13.274,208.771 15.631,219.953 16.576,236.274 
		14.745,242.418 10.252,249.008 4.86,255.598 0.994,256.697 	"/>
	<polygon fill="#00FF00" stroke="#800080" points="279.292,0 296.039,0 297.536,3.886 297.836,8.679 297.292,22 294.242,31.444 
		287.053,44 276.869,53.31 268.182,58.102 255.602,57.503 243.32,52.411 236,43 229.841,25.453 220,9 221.155,1.49 236.819,0 	"/>
	<polygon fill="#00FF00" stroke="#800080" points="680.645,84.462 665.968,79.67 652.189,67.388 645,54.209 645.898,44 
		653.986,27.251 663.868,20.661 678.219,15.569 698.018,19.163 713.822,33.917 713.894,45.522 712.992,53.61 711.797,59.21 
		709.996,73.978 704.009,78.471 693.823,82.964 	"/>
	<polygon fill="#00FF00" stroke="#800080" points="785.657,59.226 778.294,53.31 772.604,44 761.819,31.534 758.769,23.302 
		767.81,8.679 776.74,-0.038 794.047,0.096 812.74,1.49 826.692,13.219 826.764,24.823 825.865,32.91 824.666,38.511 
		814.837,50.015 806.746,58.103 795.067,63.107 	"/>
	<polygon fill="#00FF00" stroke="#800080" points="713.894,36.237 701.909,25.154 694.424,15.569 691.729,0 708.743,-0.038 
		726.052,0.096 743.847,-0.038 763.615,0 757.026,17.067 754.63,24.555 744.146,31.534 725.245,37.435 	"/>
	<polygon fill="#00FF00" stroke="#800080" points="743.909,92.781 737.557,94 727.672,90.752 717.784,85.66 710.485,73.594 
		712.992,53.61 719.282,40.131 732.202,36.985 751.335,30.353 756.727,26.652 770.306,44.083 773.401,51.608 775.041,63.107 
		767.906,75.344 762.115,80.268 750.438,89.854 	"/>
	<polygon fill="#00FF00" stroke="#800080" points="791.396,128.129 781.948,128.22 771.404,128.22 757.323,119.508 749.535,112.293 
		747.359,97.588 752.234,90.153 762.418,78.471 777,64.139 789.215,64.139 803.451,74.577 809.445,82.365 813.639,91.351 
		813.639,102.135 806.995,113.896 801.133,125.17 	"/>
	<polygon fill="#00FF00" stroke="#800080" points="898,101.536 901.403,115.314 887.936,137.485 858.569,145.268 833.705,140.5 
		813.639,135 801.846,123.8 815.137,99.739 813.204,87.467 805.419,80.253 803.24,65.548 808.115,58.113 824.666,38.511 
		828.615,21.26 839.995,17.067 866,24.555 888.224,42.827 901.403,56.623 904.099,67.09 893.016,79.969 889.422,85.96 	"/>
	<polygon fill="#00FF00" stroke="#800080" points="715.678,974.5 699.318,969.547 690.705,950 686.402,935.103 683.819,926 
		684.85,908.808 689.847,896.5 701.471,890.76 726.44,890.76 740,899.67 742.801,907.08 748.281,915.85 749.771,921.885 
		755.556,933 755.556,947 750.979,960.885 738,972.989 	"/>
	<polygon fill="#00FF00" stroke="#800080" points="659.28,996 638.185,986.5 625.698,971.697 620.104,956 622,941.561 
		632.156,929.074 644.744,926 659.586,917.022 670.474,914.439 679.084,920.896 683.819,932.633 687.532,939.024 692.898,954.972 
		695.045,967.318 690.277,979.016 683.819,986.5 674.779,992.795 	"/>
	<polygon fill="#00FF00" stroke="#800080" points="1165.991,620.827 1165.991,620.827 1159.5,619.504 1152,611.787 
		1142.962,607.651 1138.334,594.137 1131.553,584.235 1129.827,570.889 1135.663,562.594 1143.998,555.138 1150.577,550.313 
		1156.72,546.804 1164.469,544.759 1172.218,544.318 1180,546 1188.448,548.996 1195.759,553.824 1198.975,559.817 1200.438,570.2 
		1202.777,577.949 1204.239,587.745 1204.823,595.056 1204.531,601.635 1200.291,604.703 1195.466,608.066 1186.694,612.745 
		1176.75,617.427 	"/>
	<polygon fill="#00FF00" stroke="#800080" points="1205.171,695 1193.979,700.046 1184.073,697.299 1173.313,687.99 
		1164.271,679.809 1161.688,668.186 1160.229,663.481 1149.263,658.51 1141.885,650.968 1140.637,637.162 1142.828,628.682 
		1150.064,622.552 1156.135,621.518 1162.276,622.834 1167.658,622.448 1173.824,620.056 1184.354,615.672 1195.759,609.677 
		1203,606.62 1210.38,607.774 1221.961,612.219 1228.418,620.827 1229.709,630.302 1236.99,635.992 1239.035,643.888 
		1240.041,653.551 1240.041,666.466 1232.293,675.507 1221.1,676.365 1215.191,686.953 	"/>
	<polygon fill="#00FF00" stroke="#800080" points="556.531,946.318 542.938,942.038 540.166,941.168 534.334,939.5 530.834,933.5 
		529.657,925.26 528.14,918.136 526.334,909.668 525.334,900.834 525.96,895.121 530.166,888.168 536.115,882.637 545.271,877.763 
		553.125,876.888 561.531,879.925 570.014,887.385 578.262,899.951 588.277,903.684 596.325,910.948 599.005,920.882 
		597.506,933.927 591.813,944.529 581.011,949.24 571.837,948.145 564.651,947.286 	"/>
	<polygon fill="#00FF00" stroke="#800080" points="487.735,960.826 484.114,953.056 476.539,932.634 477.324,921.75 477.74,899.559 
		489.502,887.777 501.088,884.635 515.334,886.5 521.166,893.334 523.671,903.094 529.563,929.568 529.834,939.168 526.334,947.168 
		522.5,953.334 518.625,958.757 513.334,967.834 505.834,972.834 498.834,974 492.334,971.834 	"/>
	<polygon fill="#00FF00" stroke="#800080" points="548.411,996 531.918,990.282 521.511,983.803 514.666,971 517.387,963.22 
		521.381,957.423 524.849,952.385 528.834,944.5 532.5,941 537.334,941.5 541.148,943 547.882,944.454 555.116,946.017 
		565.92,948.32 577.166,949.834 585.528,952.578 589.259,961.024 591.813,973.198 589.259,985.288 580.422,995.193 572.368,1000 
		559.407,998.727 	"/>
	<polygon fill="#00FF00" stroke="#800080" points="1212.68,183.12 1209.375,200.3 1200.695,205.126 1191.063,207.832 
		1183.129,207.832 1175.195,212 1165.563,212 1157.063,201.726 1148.274,184.12 1146.359,163.388 1152,155.26 1157.629,152.427 
		1164.387,147.264 1171.68,144.12 1182.844,142.518 1191.68,144.12 1198,145.268 1204.68,151.12 1208.68,157.12 	"/>
	<polygon fill="#00FF00" stroke="#800080" points="1211.584,342 1201.564,338.428 1194.183,332.1 1192.072,321.817 
		1183.368,318.125 1174.67,325.244 1161.945,326.3 1157.982,323.939 1153.573,318.653 1151.16,314.055 1150.938,306 
		1152.248,300.021 1154.918,294.98 1157.686,290.335 1160.969,286.574 1164.123,281.21 1166.975,273.732 1168.556,269.284 
		1169.841,264.837 1173.088,263.28 1189.436,265.126 1215.537,273.564 1229.778,282.792 1236.707,291.181 1237.159,306 
		1233.471,321.553 1223.714,337.11 	"/>
	<polygon fill="#00FF00" stroke="#800080" points="1152.521,297.031 1150.668,301.305 1148.099,307.235 1143.849,313.164 
		1133.865,314.647 1127.207,312.852 1117.86,308.92 1111.034,306.248 1105.729,301.74 1102.142,297.255 1099.671,291.918 
		1096.805,285.198 1094.927,277.983 1097.398,271.164 1100.561,264.641 1106.194,259.7 1114.198,255.646 1124.082,251.594 
		1142.237,247.46 1150.938,246.141 1156.991,247.74 1161.638,251.198 1165.888,256.338 1167.865,260.489 1168.063,266.221 
		1166.382,271.953 1163.813,278.278 1159.86,285.594 1155.741,291.035 	"/>
	<polygon fill="#00FF00" stroke="#800080" points="1180.509,125.544 1167.366,134 1151.796,141.847 1136.345,141.847 
		1123.691,136.129 1116.392,126.883 1106.05,111.066 1097.287,92.573 1097.287,83.326 1103.738,73.594 1112.666,60 1117.129,56.334 
		1123.887,51.173 1131.18,48.029 1142.344,46.427 1151.589,46.927 1158.117,50.123 1165.672,53.933 1170.095,60.737 
		1180.096,71.555 1185.862,83.692 1187.688,96.101 1183.916,110.823 	"/>
	<polygon fill="#00FF00" stroke="#800080" points="1097.287,89.723 1087,91.667 1077.332,94 1066,98.834 1051.191,98.281 1036,84.5 
		1030,72 1026,58.738 1024.787,45.479 1031.238,35.746 1039,21.321 1043.504,16.351 1046.971,11.151 1053.655,5.704 1062.939,0 
		1092.404,0 1090.176,4.961 1091.5,13.25 1097.595,22.89 1105.75,37 1111,46.427 1116.05,52.624 1115.188,58.254 1098,80.5 	"/>
	<polygon fill="#00FF00" stroke="#800080" points="1093.25,167.75 1079.5,169.25 1061.5,169.25 1052.25,163.25 1048,157.25 
		1039.25,156.5 1032.287,147.5 1032,129 1032.287,118.068 1033.5,104 1038.25,97.75 1046.5,93.909 1057.25,98.834 1065.5,100.25 
		1071.5,96.5 1081.25,91.5 1090.75,90.25 1097.287,92.573 1101.852,102.202 1103.698,112.257 1104.5,118.5 1116.392,126.883 
		1121.049,134.439 1124.202,141.866 1121,153.5 1111.5,162.5 	"/>
	<polygon fill="#00FF00" stroke="#800080" points="1159.43,22.928 1156.125,40.108 1147.445,44.934 1137.813,47.64 1129.879,47.64 
		1124.202,49.75 1115.188,49.75 1106.25,41 1098.5,26 1091.5,13.25 1091.5,6.25 1095.25,0.805 1156.618,0.805 	"/>
	<polygon fill="#00FF00" stroke="#800080" points="1161.945,219.5 1155.875,236.3 1146.359,242.25 1138.25,246.141 1128.5,248 
		1121.695,248 1112,239.945 1105.75,238.25 1101.25,244.25 1097.287,251.5 1093,257 1085.25,259 1074.5,259 1068.25,253.25 
		1061,242.75 1059.5,231 1059.5,220.5 1062.75,204.25 1072.25,189.5 1083.25,180.5 1094.25,179.5 1106,180.5 1118.18,180.12 
		1129,175.25 1141.5,177.26 1148.182,183.12 1150.938,192 1158.566,206.326 	"/>
	<polygon fill="#00FF00" stroke="#800080" points="1225.5,23 1224,34 1215.5,43.75 1202.5,48.25 1184.5,49.417 1173.75,46.427 
		1163.5,38.75 1159.43,33 1159.133,24.473 1159.43,17.067 1157.25,5.75 1156.618,0.805 1225.5,0 	"/>
	<polygon fill="#00FF00" stroke="#800080" points="1269.166,54.418 1261.584,57 1253.25,57.666 1244.584,55 1238.166,49.75 
		1232.666,42.5 1229.188,31.534 1228.166,20.335 1229.188,8.5 1234.084,0 1280,0 1280,52 	"/>
	<polygon fill="#00FF00" stroke="#800080" points="1280,117.354 1273.096,120.364 1261.5,118.834 1252.832,111.208 
		1249.028,106.443 1246.198,100.137 1244.046,93.603 1242.073,86.07 1242.802,78.956 1244.5,73.167 1249.189,64.727 1255.09,60.362 
		1261.396,58.179 1268.916,55.916 1280,52.251 	"/>
	<polygon fill="#00FF00" stroke="#800080" points="1279.82,717.061 1276.817,713.486 1273.384,710.197 1270.095,706.338 
		1267.378,702.331 1264.658,698.326 1262.656,693.608 1261.944,688.176 1262.656,683.311 1264.373,678.305 1266.091,673.589 
		1268.663,669.581 1269.809,666.15 1272.813,662.574 1276.388,660.429 1280,658.856 	"/>
	<polygon fill="#00FF00" stroke="#800080" points="1280,1006.125 1276,1005.125 1271.625,1004.375 1267.25,1002.5 1263.5,999.75 
		1261,996.25 1259.75,992.125 1258.125,988.625 1256.75,985 1255.875,981 1254.375,977 1253,972.625 1252.625,967.75 
		1253.125,963.5 1254.5,959.75 1256.125,955.375 1257.875,952.25 1259.875,949.125 1262.625,946 1266,943.25 1268.875,941.125 
		1272.875,939.5 1276.25,939.375 1280,939.5 	"/>
	<polygon fill="#00FF00" stroke="#800080" points="1279.75,938.625 1276.625,938.125 1273,937.375 1269.875,934.875 
		1267.875,932.375 1265.625,927.5 1264.5,922.375 1264.75,918.75 1266.375,914.5 1268.125,911.875 1270,909.125 1272.25,906.375 
		1274.25,903.625 1276,901.125 1278.125,898.375 1279.875,896 	"/>
</g>
</svg>
