<?xml version="1.0" encoding="utf-8"?>
<!-- Generator: Adobe Illustrator 16.0.1, SVG Export Plug-In . SVG Version: 6.00 Build 0)  -->
<!DOCTYPE svg PUBLIC "-//W3C//DTD SVG 1.1//EN" "http://www.w3.org/Graphics/SVG/1.1/DTD/svg11.dtd">
<svg version="1.1" id="Layer_1" xmlns="http://www.w3.org/2000/svg" xmlns:xlink="http://www.w3.org/1999/xlink" x="0px" y="0px"
	 width="1280px" height="1024px" viewBox="0 0 1280 1024" enable-background="new 0 0 1280 1024" xml:space="preserve">
<g id="Raw_image">
	
		<image overflow="visible" enable-background="new    " width="1280" height="1024" xlink:href="Neuroblastoma_2.jpg"  transform="matrix(1 0 0 1 -1.2146 -2.0247)">
	</image>
</g>
<g id="Not_annotated" display="none" opacity="0.5">
	<polygon display="inline" fill="#0000FF" stroke="#800080" points="49,0 45,5 35,7 24,8 18,14 10,10 5,3 	"/>
	<polygon display="inline" fill="#0000FF" stroke="#800080" points="23,63 20,57 26,51 26,44 18,48 11,49 13,40 22,37 28,37 35,38 
		37,47 32,54 26,60 	"/>
	<polygon display="inline" fill="#0000FF" stroke="#800080" points="63,938 52,937 44,935 34,933 27,928 21,922 24,914 27,910 
		17,910 13,906 12,899 18,892 23,885 22,893 28,896 34,902 37,900 41,891 40,887 34,883 27,879 24,878 27,870 27,862 34,857 41,857 
		34,861 30,868 36,872 44,874 48,882 56,886 62,890 62,898 69,893 66,887 60,881 53,876 50,869 41,866 39,862 48,864 53,862 49,857 
		58,860 60,859 58,854 64,860 70,866 70,873 76,878 79,887 74,894 71,903 76,907 78,899 80,891 86,896 84,905 86,908 88,915 86,926 
		80,932 71,934 	"/>
	<polygon display="inline" fill="#0000FF" stroke="#800080" points="28,856 28,847 32,849 29,855 	"/>
	<polygon display="inline" fill="#0000FF" stroke="#800080" points="50,853 40,851 43,847 50,852 	"/>
	<polygon display="inline" fill="#0000FF" stroke="#800080" points="63,39 59,33 66,37 	"/>
	<polygon display="inline" fill="#0000FF" stroke="#800080" points="435,349 434,342 437,333 433,325 442,321 449,316 455,311 
		461,312 457,320 453,328 449,335 443,341 437,347 	"/>
	<polygon display="inline" fill="#0000FF" stroke="#800080" points="545,849 536,846 538,835 544,831 552,829 557,836 555,844 
		548,848 	"/>
	<polygon display="inline" fill="#0000FF" stroke="#800080" points="621,867 611,865 606,858 613,853 621,848 618,840 609,837 
		601,841 599,852 593,857 584,860 576,856 576,849 575,841 568,844 568,836 573,829 580,827 580,818 582,808 587,800 598,799 
		606,803 615,801 624,797 631,802 632,812 628,821 625,830 624,839 633,840 639,835 644,828 642,820 644,815 648,823 652,831 
		652,838 647,846 648,849 656,847 662,844 661,835 660,826 655,819 662,813 668,819 669,830 673,838 672,849 667,856 660,858 
		652,854 644,858 633,859 626,865 	"/>
	<polygon display="inline" fill="#0000FF" stroke="#800080" points="649,144 637,144 626,143 620,138 613,136 607,130 601,125 
		605,118 602,109 602,99 605,90 611,83 618,78 627,75 638,74 646,78 654,80 662,78 667,83 673,85 679,91 684,98 688,105 685,115 
		681,122 676,129 670,135 663,140 654,143 	"/>
	<polygon display="inline" fill="#0000FF" stroke="#800080" points="673,596 664,593 659,588 666,583 673,578 675,570 669,564 
		676,560 682,566 687,573 693,579 693,587 686,591 676,591 	"/>
	<polygon display="inline" fill="#0000FF" stroke="#800080" points="687,870 684,864 691,863 	"/>
	<polygon display="inline" fill="#0000FF" stroke="#800080" points="717,889 712,882 716,873 722,877 721,886 	"/>
	<polygon display="inline" fill="#0000FF" stroke="#800080" points="853,948 847,942 850,940 854,947 	"/>
	<polygon display="inline" fill="#0000FF" stroke="#800080" points="912,560 902,558 896,552 891,545 892,536 893,528 897,520 
		904,515 912,513 919,509 926,509 930,517 938,517 941,526 938,535 935,543 928,548 921,554 914,559 	"/>
	<polygon display="inline" fill="#0000FF" stroke="#800080" points="911,508 909,501 914,505 	"/>
	<polygon display="inline" fill="#0000FF" stroke="#800080" points="1047,419 1037,417 1033,410 1041,414 	"/>
	<polygon display="inline" fill="#0000FF" stroke="#800080" points="1077,881 1068,878 1066,872 1067,863 1074,857 1073,849 
		1082,849 1086,857 1086,865 1079,867 1078,871 1080,878 	"/>
	<polygon display="inline" fill="#0000FF" stroke="#800080" points="1070,823 1068,817 1074,820 	"/>
	<polygon display="inline" fill="#0000FF" stroke="#800080" points="1143,867 1134,864 1133,855 1127,849 1125,858 1122,867 
		1115,863 1113,853 1109,845 1104,853 1097,855 1092,848 1092,838 1085,834 1077,837 1077,833 1078,824 1081,816 1089,814 1097,816 
		1094,825 1095,833 1103,829 1112,831 1119,836 1127,840 1133,835 1130,826 1130,819 1139,819 1136,812 1127,811 1128,803 1132,795 
		1140,797 1144,805 1146,815 1149,824 1152,833 1154,843 1152,852 1147,860 1144,866 	"/>
	<polygon display="inline" fill="#0000FF" stroke="#800080" points="1103,884 1094,881 1090,873 1095,865 1102,860 1108,866 
		1106,876 	"/>
	<polygon display="inline" fill="#0000FF" stroke="#800080" points="1120,818 1114,812 1121,812 	"/>
	<polygon display="inline" fill="#0000FF" stroke="#800080" points="1200,875 1190,873 1184,867 1192,870 1201,873 	"/>
	<polygon display="inline" fill="#0000FF" stroke="#800080" points="1196,866 1194,860 1201,862 	"/>
	<polygon display="inline" fill="#0000FF" stroke="#800080" points="1212,891 1204,887 1204,882 1207,878 1206,869 1211,862 
		1205,856 1207,847 1212,840 1217,834 1219,827 1223,832 1219,839 1216,848 1211,853 1216,860 1219,868 1213,875 1212,884 	"/>
	<polygon display="inline" fill="#0000FF" stroke="#800080" points="1243,880 1235,876 1238,869 1236,861 1229,856 1225,848 
		1234,845 1241,839 1241,847 1238,856 1243,863 1243,871 1245,878 	"/>
	<polygon display="inline" fill="#0000FF" stroke="#800080" points="1239,836 1233,830 1233,825 1241,825 1240,834 	"/>
</g>
<g id="Clumps" display="none" opacity="0.5">
	<polygon display="inline" fill="#FF0000" stroke="#800080" points="0,733 2,724 5,715 8,706 15,700 21,695 25,689 27,679 31,671 
		40,669 35,676 43,678 51,682 57,688 61,696 65,704 72,709 80,713 90,713 100,715 109,718 113,726 119,732 124,739 130,745 131,754 
		131,764 130,775 128,785 128,795 123,802 115,805 107,809 99,814 91,818 81,817 70,818 58,818 48,816 39,813 32,808 26,802 22,794 
		16,788 10,794 6,803 6,815 4,824 	"/>
	<polygon display="inline" fill="#FF0000" stroke="#800080" points="10,37 4,31 1,22 9,19 11,17 14,23 21,25 27,20 31,22 26,27 
		17,26 10,32 	"/>
	<polygon display="inline" fill="#FF0000" stroke="#800080" points="355,415 345,413 337,409 328,406 322,400 317,393 314,384 
		309,377 306,368 309,359 307,349 300,349 294,355 288,360 278,362 267,361 256,362 249,357 242,352 235,347 228,349 230,358 
		227,368 223,375 217,381 210,386 201,389 190,390 178,390 168,388 159,385 152,380 145,375 141,367 137,359 132,352 127,345 
		120,349 111,351 103,351 96,356 86,356 77,355 67,353 57,351 58,344 49,341 41,339 31,341 23,343 14,340 11,333 16,326 12,318 
		17,313 20,305 22,297 26,289 32,283 39,278 46,277 53,276 60,277 69,274 76,278 84,279 95,280 102,283 109,288 116,291 123,296 
		130,301 137,306 143,312 149,318 149,326 157,322 157,313 150,308 142,304 145,295 149,287 155,281 163,276 174,275 184,277 
		189,284 194,291 202,295 208,301 215,305 219,297 214,290 210,282 208,272 204,264 200,256 198,248 196,238 189,233 186,224 
		186,214 191,206 197,200 203,194 211,190 219,187 229,184 237,186 246,189 254,193 261,198 267,204 274,209 279,216 284,223 
		286,233 289,242 288,253 294,259 302,263 308,269 314,275 318,283 322,291 325,300 323,310 323,318 332,315 342,313 354,313 
		364,312 372,308 373,301 367,295 363,287 359,279 358,268 360,258 360,248 363,239 365,229 371,223 378,217 386,213 396,211 
		408,211 417,214 427,216 436,219 443,224 449,230 451,240 456,247 460,255 458,264 456,274 452,283 448,291 443,297 437,303 
		429,308 421,311 414,317 416,327 417,338 415,348 413,357 410,367 408,376 404,384 399,392 394,399 387,403 379,407 371,411 
		361,414 	"/>
	<polygon display="inline" fill="#FF0000" stroke="#800080" points="217,624 205,624 195,622 187,618 179,614 173,608 169,600 
		167,590 167,578 168,567 173,560 178,553 183,546 190,540 198,536 207,534 213,528 214,517 214,507 221,501 226,495 232,489 
		236,481 239,474 249,471 256,466 265,467 275,469 283,473 291,477 298,482 303,489 307,497 311,505 316,509 319,499 328,500 
		332,506 341,507 350,508 359,511 366,516 371,523 376,530 380,538 379,549 378,560 374,567 368,574 364,581 358,588 350,592 
		341,594 332,595 322,597 313,594 317,586 313,580 305,584 295,585 297,590 290,596 283,600 276,606 269,611 261,614 254,620 
		246,621 247,615 246,612 238,616 230,619 221,622 	"/>
	<polygon display="inline" fill="#FF0000" stroke="#800080" points="241,1023 239,1013 243,1004 247,997 246,990 236,990 226,988 
		218,984 211,979 205,973 199,967 195,959 191,951 191,939 188,930 188,920 193,913 199,906 205,900 211,894 217,888 226,885 
		234,881 244,879 253,882 261,886 270,889 278,893 286,897 290,905 295,912 298,921 298,931 294,938 290,947 285,954 279,960 
		275,968 271,975 274,981 283,978 294,977 305,978 314,981 322,985 330,989 338,989 340,982 345,974 352,970 359,964 370,963 
		380,961 389,964 399,964 409,966 417,970 423,976 428,983 427,993 426,1001 435,1003 446,1003 454,1007 459,1014 461,1022 	"/>
	<polygon display="inline" fill="#FF0000" stroke="#800080" points="258,801 249,798 240,801 230,799 222,795 219,788 211,786 
		211,778 210,769 206,761 205,752 206,741 209,732 214,736 222,740 230,744 230,750 238,748 245,744 243,736 240,727 234,721 
		228,715 224,707 220,699 218,689 215,680 216,669 218,659 222,651 227,644 234,639 244,636 253,637 261,634 267,627 277,625 
		287,627 295,631 301,637 305,645 310,652 315,659 318,668 319,677 317,687 315,697 311,704 307,713 302,719 295,725 288,729 
		280,734 275,741 276,746 286,744 296,746 306,748 309,753 309,764 305,773 301,780 295,787 288,791 280,795 271,796 260,798 	"/>
	<polygon display="inline" fill="#FF0000" stroke="#800080" points="291,162 280,161 275,154 280,146 275,142 267,147 258,147 
		248,149 239,146 234,139 235,132 231,124 232,115 235,105 235,96 244,96 250,102 257,98 254,91 245,92 248,84 259,83 269,85 
		278,82 283,76 291,72 298,67 304,61 312,64 320,68 325,75 318,77 311,83 303,87 309,93 319,95 324,91 330,85 333,91 339,97 
		342,106 340,116 338,126 340,136 337,144 331,150 323,155 315,158 306,159 297,157 	"/>
	<polygon display="inline" fill="#FF0000" stroke="#800080" points="265,0 266,9 273,13 280,7 287,10 293,7 298,9 298,19 297,30 
		296,39 294,49 291,57 282,58 274,54 270,46 263,50 263,56 268,61 265,70 255,71 248,72 241,69 248,67 256,63 252,58 247,51 245,43 
		240,51 237,47 240,38 236,30 241,22 248,17 251,9 252,0 	"/>
	<polygon display="inline" fill="#FF0000" stroke="#800080" points="689,811 684,804 673,803 662,805 652,806 644,802 639,795 
		634,788 628,782 623,775 620,766 618,756 619,745 622,735 620,726 612,728 604,732 596,736 587,739 577,742 570,747 565,752 
		572,757 577,764 584,759 588,767 590,777 583,779 575,784 571,787 565,781 558,776 553,777 545,782 545,789 539,785 542,776 
		543,767 540,762 531,766 524,770 517,776 512,782 506,789 500,792 502,785 501,781 492,784 484,789 476,792 466,794 455,793 
		446,790 438,786 431,781 427,773 424,764 421,755 420,744 422,734 425,725 431,718 436,712 442,706 448,700 455,695 463,690 
		472,687 482,685 493,684 502,682 509,676 516,672 520,664 525,656 529,648 523,643 512,644 500,644 491,641 484,636 478,630 
		471,625 465,619 459,613 455,605 452,596 450,586 451,575 454,566 459,558 464,551 469,544 475,538 482,533 491,530 502,529 
		513,530 522,533 529,538 535,544 544,544 550,537 554,530 558,521 562,514 568,507 575,502 583,498 593,496 603,496 613,498 
		621,502 629,506 635,512 641,518 647,524 653,530 660,532 668,535 673,542 671,551 662,551 659,560 656,569 652,576 647,584 
		649,592 656,596 647,599 641,593 634,596 628,603 631,612 634,621 642,625 648,631 650,641 651,652 651,662 647,670 641,676 
		638,685 640,695 644,703 653,701 662,697 671,694 681,693 690,695 699,698 706,703 712,709 717,716 722,723 725,732 727,741 
		723,750 724,760 719,767 714,774 709,781 703,788 698,795 697,804 691,810 	"/>
	<polygon display="inline" fill="#FF0000" stroke="#800080" points="777,690 766,689 758,685 750,681 744,675 738,669 734,661 
		731,652 731,642 731,630 734,621 739,614 745,607 750,601 757,595 764,590 763,582 758,575 754,567 746,563 735,562 726,559 
		716,557 707,554 700,549 692,545 688,537 684,529 682,519 680,509 682,498 686,491 690,483 696,476 702,470 709,465 714,459 
		719,451 730,450 739,453 746,458 756,456 766,458 773,463 778,470 774,478 779,485 782,494 787,501 795,505 807,505 817,505 
		825,509 832,514 839,519 847,523 854,528 857,537 859,547 860,558 858,568 856,578 849,582 841,587 834,592 825,594 820,600 
		824,608 828,616 832,624 833,635 832,646 830,656 826,664 820,670 812,673 802,676 795,680 788,685 780,689 	"/>
	<polygon display="inline" fill="#FF0000" stroke="#800080" points="736,93 729,88 721,84 714,89 713,82 710,73 708,63 706,53 
		703,44 703,34 704,25 709,17 715,11 723,7 732,8 740,10 749,10 759,9 764,16 773,19 772,23 762,22 764,30 773,29 777,35 774,42 
		779,42 784,44 787,53 782,59 774,57 768,56 763,60 760,68 752,72 747,79 744,87 737,92 	"/>
	<polygon display="inline" fill="#FF0000" stroke="#800080" points="1061,547 1049,547 1039,545 1032,540 1026,534 1019,529 
		1015,521 1012,512 1008,504 1000,506 993,511 986,516 974,516 963,515 958,510 954,502 947,497 939,493 932,488 926,482 923,473 
		917,467 908,469 899,471 889,469 881,465 873,461 865,457 859,451 854,444 847,441 836,443 826,444 816,442 806,440 799,435 
		791,431 784,426 780,418 776,410 772,402 769,393 771,382 774,374 779,367 784,360 790,353 798,349 808,349 819,350 828,353 
		836,357 845,360 852,365 860,369 869,372 870,366 863,361 855,357 848,352 842,346 836,340 832,332 828,324 825,315 821,307 
		819,297 820,286 823,276 827,269 832,262 838,256 844,250 850,244 857,238 864,233 873,230 883,228 893,228 903,230 913,232 
		922,235 930,239 937,244 943,250 949,255 955,249 961,243 968,238 975,233 982,228 990,224 999,220 1010,219 1022,219 1031,222 
		1039,226 1047,230 1054,235 1058,243 1061,252 1061,261 1059,272 1062,277 1072,277 1081,274 1089,278 1097,282 1105,286 1111,292 
		1116,299 1116,308 1113,316 1115,326 1111,333 1104,339 1100,346 1097,354 1102,361 1101,370 1101,380 1098,389 1091,394 1086,400 
		1076,402 1065,401 1056,398 1049,393 1042,388 1038,380 1034,372 1026,368 1019,363 1014,356 1011,347 1011,335 1009,325 1008,314 
		999,316 991,319 980,320 971,319 963,315 956,312 951,320 947,328 942,335 937,342 931,348 925,353 918,358 909,361 900,364 
		890,366 895,370 905,372 914,375 923,378 929,384 935,390 941,396 945,404 948,413 956,415 964,412 974,409 985,409 996,409 
		1004,413 1010,419 1014,427 1018,435 1020,445 1027,449 1035,444 1043,440 1054,439 1064,441 1073,444 1083,446 1089,452 1095,458 
		1099,466 1102,475 1103,486 1103,498 1101,507 1097,516 1093,523 1088,530 1082,537 1075,542 1067,545 	"/>
	<polygon display="inline" fill="#FF0000" stroke="#800080" points="1094,0 1103,3 1112,6 1118,12 1121,21 1119,30 1113,37 1112,47 
		1106,54 1101,61 1095,66 1092,75 1084,79 1077,84 1070,90 1075,97 1081,103 1086,110 1094,114 1100,120 1108,119 1115,113 
		1121,119 1123,127 1119,135 1126,140 1132,135 1136,126 1144,126 1147,135 1154,139 1161,134 1166,127 1164,117 1159,110 1151,107 
		1143,110 1136,105 1127,102 1117,104 1109,100 1100,103 1092,99 1090,91 1096,84 1106,86 1112,92 1122,92 1124,83 1130,76 1134,71 
		1128,65 1121,65 1115,66 1118,57 1124,50 1132,50 1133,57 1135,65 1139,73 1147,77 1155,81 1164,83 1172,79 1178,74 1180,82 
		1180,90 1189,91 1197,91 1199,101 1201,111 1199,121 1193,127 1186,131 1179,136 1173,143 1168,150 1162,156 1160,164 1156,172 
		1151,178 1140,179 1132,175 1126,169 1122,161 1117,154 1117,142 1111,142 1103,142 1097,136 1091,141 1092,152 1094,162 1099,169 
		1102,178 1112,180 1118,186 1112,191 1100,191 1091,190 1083,194 1077,201 1069,204 1060,205 1051,204 1041,202 1032,199 1024,195 
		1021,188 1023,180 1017,187 1008,185 1002,179 998,171 995,162 991,154 988,145 989,133 993,126 988,123 977,122 968,119 961,117 
		954,121 944,119 933,120 926,115 920,109 916,101 914,91 909,84 910,74 912,65 915,56 920,48 925,42 932,36 940,33 947,27 955,29 
		965,31 972,36 982,36 992,38 999,43 1004,50 1005,61 1006,72 1010,80 1011,91 1009,100 1012,107 1019,102 1024,95 1031,89 1036,83 
		1030,77 1024,71 1023,62 1019,54 1018,43 1021,34 1026,27 1027,17 1033,12 1039,17 1036,26 1046,26 1051,20 1046,13 1046,7 1055,5 
		1063,9 1066,1 	"/>
	<polygon display="inline" fill="#FF0000" stroke="#800080" points="1072,804 1061,803 1049,803 1038,804 1031,799 1024,794 
		1018,788 1012,782 1011,771 1010,760 1013,751 1009,743 1000,740 991,737 983,733 974,730 966,726 963,717 965,707 968,698 
		969,687 972,677 977,670 983,664 992,661 1000,657 1007,653 1015,648 1026,647 1037,648 1047,650 1056,653 1063,658 1073,660 
		1080,665 1082,675 1084,685 1088,693 1086,703 1090,711 1097,716 1103,722 1108,729 1112,737 1112,747 1112,759 1111,769 1106,777 
		1102,784 1095,789 1087,793 1080,798 1073,803 	"/>
	<polygon display="inline" fill="#FF0000" stroke="#800080" points="1172,1023 1171,1014 1174,1005 1179,997 1185,991 1191,985 
		1198,981 1207,977 1210,969 1207,960 1205,950 1204,939 1198,936 1194,943 1190,951 1185,959 1181,966 1173,971 1166,975 1158,979 
		1149,982 1140,981 1130,979 1122,975 1118,967 1111,964 1102,961 1099,952 1093,946 1087,940 1086,929 1088,919 1090,909 1096,902 
		1103,897 1110,892 1118,889 1127,886 1137,883 1147,881 1158,882 1168,884 1179,885 1185,891 1189,899 1195,905 1201,911 1208,913 
		1216,908 1224,904 1230,899 1240,896 1251,895 1262,896 1272,898 	"/>
	<polygon display="inline" fill="#FF0000" stroke="#800080" points="1167,312 1156,311 1151,304 1144,303 1135,306 1127,302 
		1123,294 1117,288 1112,281 1105,276 1100,269 1099,262 1093,256 1091,246 1090,235 1091,224 1096,217 1102,210 1110,206 1118,203 
		1127,199 1136,200 1146,202 1152,208 1158,214 1164,220 1168,217 1166,207 1165,196 1165,186 1168,177 1172,169 1177,161 1185,157 
		1191,152 1197,146 1204,141 1213,137 1225,137 1230,143 1227,151 1235,151 1242,156 1241,167 1248,172 1253,179 1255,189 1258,198 
		1262,206 1261,217 1258,226 1252,231 1243,235 1237,240 1228,243 1218,246 1208,247 1202,241 1197,234 1188,231 1180,231 1181,237 
		1186,244 1187,253 1187,263 1186,274 1184,284 1185,295 1181,303 1175,308 	"/>
</g>
<g id="Single_nuclei" opacity="0.5">
	<polygon fill="#00FF00" stroke="#800080" points="403,951 391,951 381,949 372,946 364,942 357,937 351,931 346,924 342,916 
		339,907 338,896 340,886 342,876 346.205,867.856 351,862 359,858 368.96,854.337 380.172,854.665 391.385,855.325 
		399.957,856.973 412.82,860.271 419.744,865.219 425.351,871.813 431.947,879.398 438.212,885.993 441.18,895.556 441,903 439,914 
		437,924 433,931 427.658,938.097 419.744,944.033 414,948 409.192,949.309 	"/>
	<polygon fill="#00FF00" stroke="#800080" points="508,997 498,995 490,991 482,987 476,981 471,974 467,966 463,958 461,948 
		461,938 464,929 469,922 475,916 482,911 490,906 497,902 505.156,897.535 517,897 527,899 535,903 542,908 548,914 553,921 
		557,929 559,939 560,950 559,961 555,969 551,977 546,983 539,988 531,992 523.951,995.477 515.049,996.798 	"/>
	<polygon fill="#00FF00" stroke="#800080" points="700,350 689,349 678,348 669,345 660,342 650,340 643,335 637,329 632,322 
		627,315 622,308 618,300 615,291 613,281 614,270 616,259 619,251 623,243 629,237 636,231 641,224 647,219 656,215 666,213 
		676,211 685,208 697,208 707,210 716,213 724,217 731,222 737,228 741,236 742,247 746,255 748,265 748,275 746,285 744,295 
		747,304 748,315 745,324 739,330 732,335 725,339 718,344 709,348 	"/>
	<polygon fill="#00FF00" stroke="#800080" points="802,185 791,184 782,181 774,177 768,171 764,163 759,156 754,149 749,142 
		747,132 748,121 753,113 756,105 761,98 765,90 772,84 781,81 791,79 801,81 812,82 822,82 829,87 834,94 840,100 846,106 851,113 
		852,124 849,132 845,141 843,151 840,160 835,166 829,173 823,178 814,182 805,184 	"/>
	<polygon fill="#00FF00" stroke="#800080" points="817,1015 806,1014 797,1011 787,1011 778,1008 768,1006 761,1001 755,995 
		751,987 748,978 748,966 749,955 751,945 755,936 760,930 766,924 773,919 779,913 787,908 798,907 808,909 817,912 824,917 
		830,923 836,929 841,936 843,946 846,955 850,963 852,973 849,982 846,990 844,1000 839,1007 830,1010 821,1013 	"/>
	<polygon fill="#00FF00" stroke="#800080" points="868,804 857,803 850,798 845,791 838,786 834,778 830,770 832,761 836,754 
		835,743 833,733 835,723 839,714 845,708 852,703 860,699 871,698 883,698 892,701 900,705 907,710 913,716 918,723 922,731 
		925,740 926,751 924,761 921,769 916,776 911,783 905,789 897,793 889,797 879,799 870,803 	"/>
	<polygon fill="#00FF00" stroke="#800080" points="79,819 67,819 56,818 46,816 39,811 33,805 26,800 21.875,794.135 18,784 17,773 
		17,761 18,751 22,744 27,736 32,729 39,725 47,720 55,716 65,714 75,712 85,710 95,709 104,711 112,715 118,721 123,728 128,735 
		131,744 134,753 137,761 137.088,772.27 134.986,782.361 131.201,793.296 127.417,800.022 120,805 113,810 105,813 96,817 86,818 	
		"/>
	<polygon fill="#00FF00" stroke="#800080" points="417,313 408.494,312.239 398.552,309.179 388.99,306.502 379,303 371,299 
		366,292 361,285 359,275 359,265 361,255 361,245 363,235 367,227 373,221 380,216 389,212 400,211 411,212 420,215 430,217 
		438,221 445,226 450,233 452,243 457,250 460,259 457,268 454,277 451,286 447,293 441,300 434,305 427,309 423.029,311.474 	"/>
	<polygon fill="#00FF00" stroke="#800080" points="353.039,412.824 346,411 336,409 328,405 322,399 316,393 313,384 308,377 
		306,367 305.425,356.986 307.528,344.747 309.632,335.951 314.986,328.493 320.913,322.374 328,318 336,314 347,313 359,313 
		368.529,312.813 375.412,308.414 386,308 396,310 405,313 411.555,318.55 416,326 417,337 417.291,346.66 414.615,356.795 
		411.938,367.121 408,376 404,384 400,391 395,398 388,403 380,407 371,410 363.94,412.25 	"/>
	<polygon fill="#00FF00" stroke="#800080" points="269.12,735.687 261,734 251,732 243,728 236,723 230,717 225,710 221,702 
		216.98,691.957 216,683 216,673 217,662 221,653 225,646 232,640 240,636 252,636 261,636 266.598,628.465 276.689,623.419 
		288.884,625.94 296.873,631.828 302.339,638.555 307.805,644.442 312.851,653.693 318.738,664.205 320.42,673.877 320.42,683.969 
		319.578,694.9 316.635,704.151 311.59,712.981 307.385,718.448 302.76,724.756 295.611,729.382 285.52,732.744 277.11,734.007 	"/>
	<polygon fill="#00FF00" stroke="#800080" points="303,165 291,165 280.834,162.833 274,158 266,154 256,152 244,152 236,148 
		230,142 229,131 227,121 226,110 230,101 233,93 240.846,85.583 247.089,81.004 259.16,79.756 269.774,78.299 278.514,74.761 
		284.966,70.807 292,67 298,62 307,58 316,61 322,67 330,71 336,77 340,85 344,93 347,102 347,114 347,126 344,135 341,143 334,149 
		327,154 320,158 311,162 	"/>
	<polygon fill="#00FF00" stroke="#800080" points="506,647 495,646 486,643 480,637 474,631 467,626 461,620 458,611 454,603 
		451,594 451,582 451,571 455,564 459,556 464,549 469,542 474,534 481,529 491,527 501,526 511,525 519,529 525.205,534.911 
		531,541 537.532,548.646 541.759,557.803 543.871,565.904 545.985,574.709 549.507,583.865 552,592 555,601 554,610 550,617 
		545,624 539,631 533,637 527,643 518,645 507,646 	"/>
	<polygon fill="#00FF00" stroke="#800080" points="584,737 573,736 562,735 554,731 548,725 542,719 537,712 533,704 530,695 
		528,685 525,676 528,666 531,657 534,648 538,640 544,634 550,628 556,623 562,617 569.581,613.449 578.033,610.983 588,607 
		599,605 609,603 620,602 630,604 638.611,608.166 645,613 649,621 651,631 651,643 651,655 649,665 646,674 643,683 640,692 
		636,700 631,707 627,714 622,722 615,726 607,730 599,734 589,736 	"/>
	<polygon fill="#00FF00" stroke="#800080" points="777,690 766,689 758,685 750,681 744,675 738,669 734,661 731,652 731,642 
		731,630 734,621 739,614 745,607 750,601 757,595 764,591 775,589 786,590 796,592 805,595 814,598 821,603 825,611 830,618 
		832,628 833,639 832,650 829,659 824,666 818,671 809,674 799,677 793,682 785,686 	"/>
	<polygon fill="#00FF00" stroke="#800080" points="731,561 721,559 711,557 702,554 696,548 691,541 687,533 685,523 683,513 
		681,503 680,493 684,486 689,479 695,472 701,466 707,460 713,454 722,451 734,451 745,452 755,454 765,456 772,461 779,466 
		780,477 782,487 786,495 789,504 787,513 782,521 777,528 772,535 767,542 762,549 757,555 749,559 738,560 	"/>
	<polygon fill="#00FF00" stroke="#800080" points="828,597 817,596 807,594 796,593 787,590 777,588 768,585 760,581 756,573 
		753,564 758,556 763,549 767,542 772,535 777,528 782,521 787,513 793,507 799,501 809,501 820,502 828,506 835,511 843,515 
		850,520 856,526 860,534 863,542 862,554 861,565 858,573 852,580 846,585 839,590 831,595 	"/>
	<polygon fill="#00FF00" stroke="#800080" points="978,320 969,317 962,312 956,306 954,296 954,286 953,275 951,265 951,256 
		956,250 962,244 969,239 976,234 983,229 991,225 1000,221 1011,220 1022,221 1031,224 1039,228 1047,232 1054,237 1058,245 
		1060,255 1059,266 1056,274 1049,279 1042,284 1033,288 1026,292 1018,297 1015,305 1009,311 1000,314 991,318 981,319 	"/>
	<polygon fill="#00FF00" stroke="#800080" points="987,516 975,516 964,515 958,510 954,503 947,498 939,494 933,488 926,483 
		924,473 924,464 928,456 932,449 937,441 941,434 946,426 950,419 958,414 967,411 977,409 988,408 998,410 1006,414 1012,420 
		1014,430 1018,438 1021,447 1020,456 1019,466 1016,476 1013,485 1010,494 1006,502 999,507 992,512 	"/>
	<polygon fill="#00FF00" stroke="#800080" points="1061,547 1049,547 1039,545 1032,540 1026,534 1019,529 1015,521 1012,512 
		1012,502 1014,492 1016,482 1019,473 1022,463 1024,454 1030,447 1037,443 1047,440 1058,439 1068,441 1076,445 1085,448 1091,454 
		1096,461 1101,468 1102,479 1103,490 1102,501 1099,510 1096,518 1091,525 1086,533 1080,539 1073,543 1064,546 	"/>
	<polygon fill="#00FF00" stroke="#800080" points="892,365 880,365 869,364 861,360 853,356 846,351 840,345 835,338 831,330 
		827,322 824,313 820,305 819,294 820,283 824,274 829,267 834,260 840,254 846,248 852,242 858,237 866,232 876,230 885,227 
		896,228 906,230 915,233 924,236 932,240 938,246 944,252 948,260 950,270 952,280 953,291 954,302 954,313 950,322 946,330 
		941,337 936,343 930,349 923,355 916,359 907,362 897,364 	"/>
	<polygon fill="#00FF00" stroke="#800080" points="833,444 821,444 812,441 803,438 796,433 788,429 782,423 778,415 775,406 
		771,398 769,388 772,379 776,371 781,364 786,357 793,351 802,348 813,349 823,351 832,354 839,359 846,364 855,367 862,372 
		865,381 865.075,392.272 863.671,402.465 860,412 857,421 854,429 850,437 843,442 	"/>
	<polygon fill="#00FF00" stroke="#800080" points="905,471 894,470 885,467 877,463 868,460 862,454 856,448 853,439 856,429 
		859,421 862,412 865,403 867,393 868.24,382.782 873.864,376.455 882,373 893,374 905,374 916,375 924,379 930,385 936,391 
		941,398 945,406 947,415 946.619,422.148 942.403,429.529 937.13,437.613 931.858,446.4 925.531,454.134 920,461 914,466 906,470 	
		"/>
	<polygon fill="#00FF00" stroke="#800080" points="1072,407 1062,405 1051,404 1045,398 1041,390 1037,382 1032,375 1025,370 
		1018,365 1013,358 1011,348 1009,338 1009,326 1009,315 1014,309 1020,303 1026,296 1032,291 1039,286 1046,281 1054,276 1061,271 
		1071,269 1082,268 1092,270 1101,273 1108,278 1113,285 1117,293 1121,301 1121,310 1118,320 1114,328 1110,336 1106,343 1102,352 
		1100,362 1099,372 1097,383 1094,392 1087,397 1080,402 1073,406 	"/>
	<polygon fill="#00FF00" stroke="#800080" points="973,126 961,126 950,125 938,125 929,122 922.367,113.899 916.393,107.221 
		912.878,101.597 909,94 908,83 907,72 909,62 913,53 916,45 920,37 927,32 937,29 947,27 955.759,26.029 965.95,26.732 
		973.685,27.434 983,29 992,32 1001,35 1005.669,39.385 1011,47 1013,57 1015,67 1015,79 1016,89 1010,96 1005,102 999,109 994,115 
		988,122 979,124 	"/>
	<polygon fill="#00FF00" stroke="#800080" points="1073,210 1061,210 1049,210 1037,210 1029,206 1021,202 1014,197 1006,193 
		999,188 995,180 991,172 987,164 983,156 982,145 981,134 985,126 991,119 996,113 1002,106 1007,100 1013,93 1020,88 1030,86 
		1040.466,86.132 1049.955,87.538 1059.446,88.592 1066.123,89.998 1071.045,93.161 1075.263,97.731 1080,104 1084,112 1087,121 
		1089,131 1092,140 1094,150 1097,159 1098,169 1096,180 1095,191 1091,198 1084,203 1076,208 	"/>
	<polygon fill="#00FF00" stroke="#800080" points="1098,0 1110.762,2.831 1116.033,7.4 1120,14 1120,23 1118,33 1116.033,40.791 
		1113.573,49.226 1107.246,57.662 1101.975,63.637 1096.352,70.315 1090.025,78.048 1084,83 1074,85 1063,86 1053,86 1042,85 
		1032,83 1025,78 1020,71 1016.916,62.583 1014.808,54.147 1014.455,45.712 1014.808,36.925 1017,29 1021,22 1025,14 1029.57,8.806 
		1037,1 1048,0 	"/>
	<polygon fill="#00FF00" stroke="#800080" points="1066.344,805.702 1058,807 1046,807 1037,804 1028,801 1020,797 1015,790 
		1011,782 1008,773 1005,764 1005,754 1009.743,745.429 1019.682,744.135 1026,741 1030,733 1035,725 1041,719 1051,717 1061,715 
		1071,713 1081,712 1091,711 1099,715 1104,722 1109,729 1113,737 1117,745 1119,754 1117,765 1115,775 1110.846,783.234 1105,789 
		1099,794 1091,799 1083,802 1074,805 	"/>
	<polygon fill="#00FF00" stroke="#800080" points="1021.409,742.405 1009.529,743.269 1001.534,742.621 991,742 982,739 975,734 
		969,728 964.161,720.802 962.865,710.002 964.594,701.575 966.537,689.477 967.187,679.758 971.723,672.629 977.772,665.5 
		987.021,660.244 994.406,657.073 1001.32,652.754 1008.88,649.08 1018.602,646.055 1030,646 1041,647 1050.358,648 
		1060.078,650.808 1068.504,654.697 1075.85,659.666 1081.899,667.01 1084,676 1085.786,682.565 1089,695 1087.515,703.736 
		1084,711 1074,713 1063,714 1053,716 1043,718 1036,723 1031,731 1027,739 	"/>
	<polygon fill="#00FF00" stroke="#800080" points="1279.998,987.354 1272,991 1262.99,993.591 1253.516,994.08 1245.266,992.365 
		1235.627,988.444 1226.396,984.278 1220,979 1213.834,971.843 1210,965 1208,955 1206,945 1205,934 1206,923 1209.75,913.25 
		1216,908 1223,904 1232,900 1241,897 1250,896 1261,897 1279.89,900.881 	"/>
	<polygon fill="#00FF00" stroke="#800080" points="1167,312 1156,311 1151,304 1144,303 1135,306 1127,302 1123,294 1117,288 
		1112,281 1106,275 1100,269 1099,262 1093,256 1091,246 1090,235 1091,224 1096,217 1102,210 1110,206 1118,203 1127,199 1136,200 
		1146,202 1152,208 1158,214 1164,220 1170,226 1176,232 1182,238 1187,245 1189.143,254.491 1189.143,266.442 1186.682,275.58 
		1184,286 1185,296 1180,304 1173,309 	"/>
	<path fill="#00FF00" stroke="#800080" d="M1108,278l-1-2L1108,278z"/>
	<path fill="#00FF00" stroke="#800080" d="M1179,160"/>
	<polygon fill="#00FF00" stroke="#800080" points="83.658,0 92.256,7.969 98.297,10.811 103.273,15.431 107.182,21.118 
		110.736,27.515 118.199,30.714 125.307,33.912 131.704,34.978 144.143,35.689 150.895,31.78 158.359,26.804 166.888,25.027 
		173.64,23.25 181.104,20.407 184.302,12.589 186.079,6.902 186.717,0.032 	"/>
	<polygon fill="#00FF00" stroke="#800080" points="219.759,-0.001 216.705,4.627 213.791,9.622 211.71,14.2 209.421,19.195 
		207.756,25.022 207.132,30.849 208.589,35.844 211.502,39.798 215.248,44.169 217.953,49.163 220.867,53.533 223.781,57.696 
		226.486,60.818 229.4,64.356 232.938,68.101 235.851,72.472 240.013,74.553 244.384,77.26 248.754,77.052 252.916,78.091 
		257.703,77.883 263.322,77.052 270.814,75.385 277.057,72.68 283.925,68.726 288.296,66.228 292.458,63.315 296.62,60.61 
		299.949,58.737 303.28,56.447 303.488,53.117 303.28,46.458 304.945,42.088 308.899,38.758 314.726,36.677 319.096,34.803 
		323.467,30.849 325.548,26.895 327.213,21.901 328.461,16.49 328.461,11.079 325.964,7.541 324.299,4.003 322.219,0 	"/>
	<polygon fill="#00FF00" stroke="#800080" points="21.042,299.415 15.128,305.678 11.648,315.072 10.952,324.118 10.605,331.772 
		12.692,340.818 15.128,349.516 19.998,356.475 28.697,364.825 36.351,369.348 45.049,372.827 54.791,373.871 64.532,373.523 
		72.883,370.74 81.233,369.348 89.583,368.652 96.889,366.912 105.935,365.173 111.85,360.65 118.808,358.91 124.028,353.691 
		126.811,348.821 128.202,340.818 127.158,333.164 128.551,326.553 130.986,320.638 133.421,314.724 133.421,308.114 
		126.463,304.635 119.852,301.155 114.634,294.544 108.371,290.021 101.76,286.194 94.454,282.019 84.712,280.975 77.754,280.628 
		67.664,282.367 57.226,284.455 47.484,286.89 40.874,289.674 31.48,293.153 	"/>
	<polygon fill="#00FF00" stroke="#800080" points="146.294,290.021 142.119,294.892 139.684,301.503 142.815,308.461 
		146.642,311.245 149.426,314.724 146.642,316.464 142.119,314.028 138.292,314.724 135.509,317.159 132.725,322.03 
		130.986,327.249 129.594,333.164 129.942,339.078 129.594,344.645 130.638,349.864 133.073,356.475 135.857,362.737 
		139.684,367.956 143.511,373.523 148.73,378.742 153.253,382.221 158.82,387.44 166.126,389.875 174.824,391.963 183.522,393.702 
		192.568,394.051 200.918,392.658 209.616,389.875 216.227,386.048 221.446,381.177 226.665,376.654 232.231,371.088 
		236.058,363.781 236.754,357.866 236.058,352.648 232.927,345.689 230.84,338.731 228.404,333.164 226.317,328.641 
		224.925,322.726 222.142,316.115 220.75,308.809 216.923,304.635 212.748,301.503 207.877,297.677 204.05,292.457 199.875,287.238 
		198.135,282.715 193.96,279.584 187.698,275.757 181.782,274.713 173.781,274.017 167.518,273.669 160.559,276.452 
		155.688,279.584 151.513,283.76 	"/>
	<polygon fill="#00FF00" stroke="#800080" points="199.527,190.515 195.352,195.734 189.785,200.953 186.305,206.868 
		183.522,213.826 182.131,221.828 182.826,229.831 187.698,232.962 191.872,235.745 193.96,240.964 195.699,249.314 
		198.135,253.837 199.875,256.969 198.831,261.491 198.135,268.45 201.266,274.713 203.702,280.975 208.573,288.282 
		213.095,293.153 217.271,297.328 224.229,297.677 231.535,294.197 237.798,290.718 243.017,285.151 247.888,280.628 
		256.238,275.408 263.544,270.885 270.503,267.058 276.765,263.579 282.332,261.491 288.595,259.404 291.726,254.185 
		292.074,246.183 290.335,236.441 289.639,230.178 288.943,224.96 285.464,220.089 281.984,214.174 277.809,208.955 
		272.591,203.388 268.068,198.17 263.197,193.647 256.238,188.428 251.019,185.644 246.148,183.557 239.538,181.469 230.84,180.427 
		223.881,180.774 216.575,182.165 209.616,185.644 	"/>
	<polygon fill="#00FF00" stroke="#800080" points="310.514,269.146 304.599,263.927 298.685,260.1 293.951,258.504 288.943,260.796 
		280.593,263.579 273.634,266.711 267.719,270.19 261.805,273.669 256.238,277.844 249.628,281.671 243.713,286.89 239.885,290.718 
		235.711,293.848 231.535,296.284 227.361,298.371 223.185,300.111 220.402,302.547 220.402,307.418 222.49,312.984 
		224.577,318.203 226.317,323.074 228.752,328.293 229.796,333.164 230.84,338.731 233.275,341.514 235.711,347.081 
		239.538,353.691 246.496,357.171 251.019,359.606 256.934,362.737 263.892,364.129 272.242,363.781 278.853,363.781 
		286.159,363.781 292.422,361.694 297.641,358.562 301.816,355.083 303.555,349.168 304.599,342.558 306.339,336.295 
		309.121,331.076 313.645,327.249 317.125,323.074 321.648,318.899 324.431,313.332 326.518,308.809 327.562,302.894 
		327.214,298.719 323.387,290.369 319.56,283.76 315.036,275.757 	"/>
	<polygon fill="#00FF00" stroke="#800080" points="181.659,543.525 174.932,548.992 170.727,556.14 166.943,565.39 165.26,575.903 
		165.681,588.938 167.783,600.713 172.409,609.121 178.716,616.69 185.865,622.156 193.854,625.52 202.684,628.465 211.934,628.044 
		220.344,622.997 229.595,618.794 238.425,614.168 245.573,609.543 254.404,604.496 260.711,598.188 264.916,589.358 
		266.177,579.687 265.757,572.539 264.495,568.334 259.87,562.868 253.563,558.242 248.096,554.038 242.21,549.412 235.902,544.366 
		227.913,538.479 222.026,534.695 214.878,531.331 205.207,533.433 194.274,537.638 	"/>
	<polygon fill="#00FF00" stroke="#800080" points="248.937,469.52 241.368,471.202 235.482,475.827 232.959,483.396 
		228.754,488.442 222.447,493.067 217.401,499.374 213.616,505.681 212.355,513.252 212.776,521.66 214.457,527.969 
		219.924,530.911 224.969,534.275 230.856,537.638 235.482,541.424 240.528,545.209 246.414,550.254 252.301,554.459 
		256.506,558.663 262.393,563.709 267.859,568.756 273.325,570.436 279.633,569.176 286.361,567.073 292.247,562.027 
		296.873,555.719 300.656,547.309 304.442,540.582 306.964,532.174 306.964,525.865 308.226,520.819 311.59,515.353 311.59,507.364 
		310.748,500.636 308.646,494.328 306.544,488.442 303.18,483.816 298.975,479.191 293.509,474.145 285.52,470.361 278.371,466.997 
		271.643,464.474 263.655,464.474 257.347,466.576 	"/>
	<polygon fill="#00FF00" stroke="#800080" points="523.515,756.293 527.719,746.2 531.082,735.267 530.662,724.756 526.879,715.506 
		521.832,709.197 513.844,703.73 507.115,698.685 495.762,694.059 488.194,692.379 477.261,691.957 466.748,691.957 
		455.817,693.639 446.566,699.526 438.996,704.992 432.69,712.14 425.12,721.391 420.915,732.324 418.393,744.938 419.655,757.552 
		423.018,768.065 423.86,778.157 429.745,786.146 437.736,791.192 446.986,795.396 457.919,796.238 470.953,796.238 
		480.625,794.555 491.137,788.25 501.229,782.361 510.9,773.111 518.048,763.86 	"/>
	<polygon fill="#00FF00" stroke="#800080" points="238.386,1024 238.843,1017.057 238.843,1011.26 240.951,1005.196 245.168,999.66 
		249.65,995.707 254.394,992.807 260.193,989.644 267.046,986.219 271,983.054 275.481,978.838 279.435,976.728 284.97,975.675 
		290.242,975.41 296.832,975.41 302.894,976.728 308.693,978.309 315.81,979.364 322.136,982 326.09,984.899 330.571,990.434 
		333.206,997.288 334.787,1002.559 335.052,1005.722 335.316,1009.94 335.843,1014.423 336.132,1019.405 335.663,1024.082 	"/>
	<polygon fill="#00FF00" stroke="#800080" points="336.91,1023.927 336.6,1020.497 336.756,1017.067 336.6,1013.949 
		336.287,1011.143 336.444,1008.025 336.132,1005.531 335.82,1002.882 335.04,999.139 333.948,996.334 332.858,993.371 
		332.701,990.878 333.794,988.07 336.287,985.264 338.5,980.5 342,976 346,972 349.75,968.25 354.25,964.25 359.5,961.25 365.5,960 
		371.25,959.25 377.25,958.5 383.75,959 389.75,959.25 394.5,960.25 400.5,962 406.75,964.25 411.75,965.75 415.25,966.75 
		419.5,969.75 422.5,973.75 424.5,977.25 427.5,980.75 429.25,986 430.75,992.25 430.166,995.834 428.334,1000.834 425,1006.834 
		420.334,1012.502 416.334,1018.502 411.834,1024 	"/>
	<polygon fill="#00FF00" stroke="#800080" points="412.966,1024.013 415.166,1021.168 417.334,1018.334 419.166,1015.002 
		421.166,1012.668 423,1010.168 424.845,1007.868 426.5,1005.502 428.718,1002.945 431.5,1001.334 434.666,1000.502 
		439.334,1001.002 443.334,1001.502 446.666,1002.834 450,1004.334 453.334,1006.502 456.334,1009.502 458.166,1012.668 
		459.5,1015.168 460.666,1018.002 461.334,1020.834 461.075,1024 	"/>
	<polygon fill="#00FF00" stroke="#800080" points="194.51,909.077 190.223,913.364 186.926,919.961 185.277,927.875 
		186.926,937.108 188.245,945.022 190.883,954.257 195.5,962.172 199.787,969.757 206.052,976.021 212.318,981.957 219.243,986.903 
		225.509,990.201 233.094,991.85 240.678,992.179 247.934,990.531 254.199,987.892 260.465,984.926 267.72,979.319 272.996,975.361 
		277.943,970.415 281.24,962.83 285.198,957.224 289.155,953.927 293.113,948.32 294.431,942.054 297.729,937.437 301.686,932.491 
		302.016,923.918 300.697,917.322 297.729,911.056 294.761,905.12 292.123,900.834 287.506,896.877 281.24,892.59 276.294,889.951 
		270.688,887.312 264.093,885.334 259.146,882.696 253.869,880.718 249.912,878.079 242.657,877.421 234.413,879.398 
		227.158,881.707 221.552,884.014 215.946,887.972 209.35,895.556 204.074,899.514 199.457,903.802 	"/>
	<polygon fill="#00FF00" stroke="#800080" points="1169.134,1024 1170.25,1016.75 1171.5,1011 1173.5,1005 1177,999.75 1180,994.25 
		1183.75,990.75 1188,987 1193,984 1198.25,981.75 1204.25,980.75 1211,981 1217,982.5 1222.802,985.097 1228.357,987.468 
		1233.503,989.674 1238.731,992.286 1243.305,994.737 1248,997.75 1251.392,1000.7 1254,1003.75 1256.865,1007.724 
		1260.214,1012.054 1262.5,1016.25 1265.25,1020.5 1265.5,1024 	"/>
	<polygon fill="#00FF00" stroke="#800080" points="1088.75,909 1091.25,903.5 1097.25,899.25 1102.75,897 1108.25,894 
		1113.25,890.5 1118.25,887 1123.25,884 1129.75,882.75 1136.5,881.75 1143.25,881 1149.75,880 1157,880 1163.25,880.25 
		1171.25,882 1176.75,883.5 1181.75,885.5 1186,889 1189,894.5 1190.75,898.25 1193.75,901.75 1197.5,905 1200.75,910 
		1202.25,915.5 1202.5,920.5 1201.5,926.75 1200,932.25 1197.25,937.25 1195.25,942.75 1192.75,947 1193.25,951 1192.75,956 
		1190.75,960.75 1186.75,966 1180.25,970.75 1174.75,975 1166.5,978.25 1158.75,980.75 1151.75,982.75 1146.25,983 1139.75,983.25 
		1135.25,983.5 1129.5,982.75 1124.25,980.25 1119.75,976.25 1116.25,971.5 1113.25,967.5 1110,966.5 1104.5,963.5 1101.25,960.25 
		1098,956.75 1096,952.75 1092,948.25 1088.5,944.75 1087,941.75 1085.25,934.5 1086,927.75 1086.5,921 1087.25,915 	"/>
	<polygon fill="#00FF00" stroke="#800080" points="651.642,554.281 651.992,544.068 650.937,533.15 647.414,522.937 
		642.837,514.134 637.554,507.089 629.453,501.101 619.945,497.227 609.379,495.467 599.869,494.057 591.416,494.057 
		581.907,495.819 571.343,500.397 564.299,506.385 557.608,514.134 552.677,523.641 548.449,534.911 545.633,541.955 
		545.633,549.35 545.281,558.155 547.745,567.312 550.212,574.709 553.029,582.808 556.198,589.148 560.777,594.079 
		568.173,598.304 574.159,601.122 581.556,602.178 589.656,600.419 597.757,599.01 607.266,595.487 617.479,591.261 
		624.171,589.148 631.919,585.274 640.37,577.526 646.711,566.961 	"/>
	<polygon fill="#00FF00" stroke="#800080" points="704.822,701.143 696.721,696.918 689.678,694.099 680.521,691.635 
		670.658,693.395 662.206,694.452 654.459,697.973 648.823,702.904 644.948,709.244 640.019,714.88 635.441,719.809 
		631.215,726.853 627.693,734.601 624.875,742.702 622.409,752.212 621.353,760.663 622.409,769.82 625.579,777.568 630.51,783.555 
		637.201,787.077 642.837,792.36 647.414,796.938 658.685,799.404 666.784,802.573 674.182,805.039 680.872,807.505 
		686.861,808.913 693.198,808.56 698.483,805.039 701.652,798.699 704.822,793.768 710.809,790.247 712.922,784.965 
		714.683,776.511 716.796,774.048 721.023,770.173 724.192,767.004 726.305,761.367 726.656,755.028 725.601,750.097 
		727.009,746.576 730.179,743.406 730.179,737.066 728.066,729.672 725.247,723.331 722.077,718.05 716.092,711.006 
		710.105,706.074 	"/>
	<polygon fill="#00FF00" stroke="#800080" points="1279.778,613.719 1272.593,615.315 1263.014,616.512 1254.233,617.31 
		1244.253,616.113 1234.674,612.921 1227.09,607.332 1221.901,598.949 1218.707,588.571 1216.313,576.996 1216.313,565.82 
		1217.908,556.639 1221.901,546.66 1224.695,535.885 1230.282,525.507 1236.668,516.723 1245.449,510.737 1253.434,507.544 
		1263.411,507.942 1270.198,509.14 1276.984,509.539 1280.177,509.539 	"/>
	<polygon fill="#00FF00" stroke="#800080" points="1278.98,505.947 1273.392,503.552 1266.606,500.759 1260.22,501.556 
		1252.237,503.552 1246.649,505.947 1237.468,507.144 1229.084,504.749 1220.304,499.56 1213.118,492.775 1207.531,485.591 
		1200.347,478.007 1194.758,468.027 1189.57,455.255 1188.771,446.473 1189.57,435.696 1192.763,426.116 1194.36,418.133 
		1198.75,411.347 1205.136,403.763 1211.523,399.372 1222.3,397.776 1230.282,398.574 1239.065,402.566 1247.047,407.755 
		1253.434,418.532 1257.823,423.721 1262.615,428.511 1268.602,433.7 1274.989,436.494 1280.575,437.293 	"/>
	<polygon fill="#00FF00" stroke="#800080" points="1279.778,616.113 1273.392,616.911 1267.803,617.711 1261.018,617.711 
		1254.233,617.31 1249.443,620.505 1245.052,626.491 1243.056,633.677 1242.656,641.26 1247.447,649.243 1250.24,656.827 
		1251.438,666.009 1254.631,673.192 1259.022,677.982 1266.207,679.579 1272.195,679.179 1279.379,678.382 	"/>
	<polygon fill="#00FF00" stroke="#800080" points="1126.823,48.375 1116.05,52.932 1108.593,60.39 1103.62,66.191 1098.649,72.406 
		1093.677,78.62 1089.118,84.421 1084.563,90.635 1083.32,97.679 1085.805,105.552 1088.291,113.837 1090.777,122.538 
		1093.263,132.067 1095.334,140.354 1100.307,144.911 1106.521,145.74 1110.663,146.569 1111.906,151.126 1115.222,158.998 
		1118.949,165.213 1123.094,170.599 1128.895,175.571 1138.424,179.3 1146.709,182.2 1154.995,180.957 1163.698,175.985 
		1168.668,168.942 1173.641,162.313 1178.613,157.341 1181.927,151.955 1182.756,144.497 1185.656,137.039 1191.041,132.067 
		1197.257,128.339 1201.815,124.196 1205.129,120.052 1207.615,111.351 1205.957,102.237 1203.058,96.022 1198.5,90.221 
		1192.698,88.15 1182.756,87.321 1179.856,83.592 1183.17,79.449 1183.17,73.234 1178.613,67.019 1171.57,60.804 1165.355,53.761 
		1160.383,50.861 1154.995,48.789 1145.881,47.961 1136.767,48.375 	"/>
	<polygon fill="#00FF00" stroke="#800080" points="1179,160 1174.884,163.97 1171.57,167.699 1168.255,172.671 1165.355,177.642 
		1162.867,184.272 1161.625,193.386 1163.698,200.844 1165.769,209.131 1169.082,217.417 1174.055,226.118 1181.099,231.09 
		1186.071,231.09 1192.284,233.161 1196.843,235.233 1199.327,241.033 1203.886,246.005 1211.344,249.32 1219.216,247.662 
		1226.259,246.419 1234.131,243.933 1241.175,241.448 1246.561,238.547 1253.19,233.99 1256.918,231.09 1259.82,225.289 
		1263.134,217.831 1262.719,207.473 1263.134,198.773 1261.891,191.729 1258.99,185.1 1254.847,177.642 1250.703,171.842 
		1248.632,165.213 1247.804,161.484 1246.147,154.855 1242.832,149.054 1238.689,143.668 1234.959,139.111 1228.33,136.625 
		1219.63,136.211 1210.515,138.282 1202.229,140.768 1195.186,145.325 1188.556,151.126 	"/>
	<polygon fill="#00FF00" stroke="#800080" points="1279.705,91.05 1272.662,92.707 1265.618,97.264 1259.405,101.408 
		1252.776,110.109 1248.632,118.395 1247.39,129.581 1246.975,140.768 1249.461,149.469 1253.605,154.441 1254.433,161.484 
		1258.161,169.356 1263.548,174.742 1271.006,178.057 1279.789,179.022 	"/>
	<polygon fill="#00FF00" stroke="#800080" points="950.353,0.107 951.5,8.5 956.5,14.5 963.834,20.167 970.166,23.167 978.5,25.167 
		988.166,25.833 996.834,24.833 1003.5,23.167 1011.5,20.833 1016.5,16.5 1022.166,12.5 1026.5,7.167 1030.834,0.167 	"/>
	<polygon fill="#00FF00" stroke="#800080" points="787.253,0 787.166,9.167 787.834,17.167 792.166,24.167 797.166,30.833 
		804.834,35.5 814.166,39.833 822.166,40.167 830.166,40.5 836.5,39.5 843.834,36.167 850.166,30.5 855.834,24.167 860.834,15.833 
		865.166,8.167 866.185,0 	"/>
	<polygon fill="#00FF00" stroke="#800080" points="0,67.5 10.5,75.5 22,78.5 34,81 47,82.5 60.5,81 72,78.5 80.119,70.325 84.5,64 
		89.5,54.5 95,43.5 102.5,36.5 103.911,29.256 102.5,20.5 96.183,13.192 88.605,7.888 82.695,3.341 78,0 0.001,0 	"/>
	<polygon fill="#00FF00" stroke="#800080" points="377.834,0 374.501,16.498 374.501,31.165 378.501,44.498 383.168,56.498 
		391.168,65.832 403.168,70.498 415.168,70.498 430.501,65.165 444.501,58.498 459.168,53.165 474.501,45.165 481.834,35.832 
		488.501,25.165 489.168,14.498 488.502,0 	"/>
	<polygon fill="#00FF00" stroke="#800080" points="360.501,74.498 353.834,82.498 349.168,91.165 351.168,105.165 350.501,117.831 
		351.834,131.165 357.834,143.831 368.501,152.498 380.501,159.831 392.501,163.165 405.834,161.165 417.168,157.165 
		427.168,149.831 433.834,140.498 439.834,129.165 439.834,117.831 436.501,108.498 428.501,97.831 416.501,88.498 406.501,82.498 
		393.834,76.498 379.834,73.165 369.834,71.831 	"/>
	<polygon fill="#00FF00" stroke="#800080" points="1059.416,831.279 1060.243,842.038 1060.243,852.383 1055.692,861.899 
		1052.795,873.072 1056.52,882.176 1063.968,890.865 1072.657,896.658 1083.416,898.726 1092.106,896.658 1100.795,893.761 
		1107.829,889.21 1115.692,884.658 1124.794,880.106 1132.656,876.382 1140.519,870.589 1148.38,865.21 1153.346,858.59 
		1155.415,849.072 1155.415,837.9 1155.828,830.038 1154.173,820.52 1151.691,811.831 1148.794,803.141 1143.001,796.107 
		1137.208,789.487 1132.656,784.107 1127.691,782.452 1121.898,781.625 1116.105,785.348 1111.967,790.314 1104.519,795.28 
		1096.243,799.832 1087.14,804.383 1077.209,809.762 1069.347,815.555 1063.554,822.59 	"/>
	<polygon fill="#00FF00" stroke="#800080" points="1278.528,838.492 1265.167,834.5 1257.531,828.155 1250.102,816.526 
		1244.934,804.575 1243.319,791.331 1244.5,777.833 1249.167,766.5 1253.332,759.999 1259.147,754.507 1266.576,750.954 
		1274.328,750.631 1278.528,750.631 	"/>
</g>
</svg>
