<?xml version="1.0" encoding="utf-8"?>
<!-- Generator: Adobe Illustrator 16.0.1, SVG Export Plug-In . SVG Version: 6.00 Build 0)  -->
<!DOCTYPE svg PUBLIC "-//W3C//DTD SVG 1.1//EN" "http://www.w3.org/Graphics/SVG/1.1/DTD/svg11.dtd">
<svg version="1.1" id="Layer_1" xmlns="http://www.w3.org/2000/svg" xmlns:xlink="http://www.w3.org/1999/xlink" x="0px" y="0px"
	 width="1280px" height="1024px" viewBox="0 0 1280 1024" enable-background="new 0 0 1280 1024" xml:space="preserve">
<g id="Raw_image">
	
		<image overflow="visible" enable-background="new    " width="1280" height="1024" xlink:href="Neuroblastoma_9.jpg"  transform="matrix(1 0 0 1 2.441406e-004 -2.441406e-004)">
	</image>
</g>
<g id="Not_annotated" opacity="0.5">
	<polygon fill="#0000FF" stroke="#800080" points="212,0 208,6 200,9 190,11 180,9 171,6 167,0 	"/>
	<polygon fill="#0000FF" stroke="#800080" points="395,487 388,482 378,480 383,477 380,472 377,467 384,469 392,473 398,474 
		393,467 386,462 377,459 368,462 359,465 351,470 347,478 344,478 347,469 351,460 360,457 369,454 380,455 390,457 398,459 
		405,463 412,467 414,476 409,483 400,480 392,476 392,481 	"/>
	<polygon fill="#0000FF" stroke="#800080" points="350,446 353,440 362,443 353,444 	"/>
	<polygon fill="#0000FF" stroke="#800080" points="350,456 351,449 361,448 370,445 373,451 363,451 353,454 	"/>
	<polygon fill="#0000FF" stroke="#800080" points="383,446 374,443 366,440 375,441 383,445 	"/>
	<polygon fill="#0000FF" stroke="#800080" points="404,461 398,455 391,450 386,453 385,448 393,447 400,452 404,460 	"/>
	<polygon fill="#0000FF" stroke="#800080" points="402,910 397,903 398,897 401,904 	"/>
	<polygon fill="#0000FF" stroke="#800080" points="406,922 404,916 410,909 412,914 407,921 	"/>
	<polygon fill="#0000FF" stroke="#800080" points="414,931 412,922 418,926 	"/>
	<polygon fill="#0000FF" stroke="#800080" points="479,1023 483,1016 492,1014 501,1010 508,1006 513,999 508,992 502,988 496,995 
		494,990 500,984 493,981 489,976 484,970 476,970 473,961 468,954 460,950 452,954 443,953 438,956 441,949 436,951 428,950 
		420,946 418,939 427,936 425,931 421,926 427,928 434,927 436,932 439,940 448,940 441,937 441,929 437,921 429,919 425,914 
		433,911 432,902 434,895 440,890 444,882 452,878 458,872 467,870 474,873 482,873 491,876 500,879 508,883 515,888 520,889 
		527,892 535,894 539,901 533,902 541,906 542,900 539,891 545,890 547,900 554,901 552,896 552,889 559,890 563,898 559,905 
		556,909 562,915 572,915 573,921 565,923 562,929 572,929 579,934 582,943 583,950 588,957 584,964 582,956 577,955 581,962 
		587,968 593,971 596,965 598,972 597,980 600,987 604,984 608,983 609,992 617,992 609,995 603,994 598,994 594,986 590,979 
		591,988 595,996 601,1000 612,999 620,1003 627,1000 624,1008 614,1011 611,1020 606,1018 601,1011 599,1003 596,1013 600,1021 
		594,1020 589,1015 593,1007 588,1006 585,1012 586,1020 579,1021 	"/>
	<polygon fill="#0000FF" stroke="#800080" points="429,909 419,909 420,901 428,905 	"/>
	<polygon fill="#0000FF" stroke="#800080" points="435,883 432,877 435,872 436,882 	"/>
	<polygon fill="#0000FF" stroke="#800080" points="445,878 448,872 453,867 450,875 	"/>
	<polygon fill="#0000FF" stroke="#800080" points="465,977 457,973 452,966 446,960 453,960 458,956 466,957 466,964 459,964 
		465,968 466,976 	"/>
	<polygon fill="#0000FF" stroke="#800080" points="469,1023 471,1016 473,1022 	"/>
	<polygon fill="#0000FF" stroke="#800080" points="486,990 480,984 472,984 470,976 475,972 479,979 484,983 	"/>
	<polygon fill="#0000FF" stroke="#800080" points="514,858 506,854 498,850 489,847 480,844 475,841 484,841 491,844 500,845 
		505,852 514,855 	"/>
	<polygon fill="#0000FF" stroke="#800080" points="569,0 567,7 561,13 552,16 542,16 530,16 521,13 512,10 503,7 496,2 	"/>
	<polygon fill="#0000FF" stroke="#800080" points="522,872 518,867 521,863 520,858 521,850 524,855 526,865 	"/>
	<polygon fill="#0000FF" stroke="#800080" points="531,888 524,883 532,884 534,887 	"/>
	<polygon fill="#0000FF" stroke="#800080" points="542,880 534,878 529,874 533,867 535,864 538,871 542,879 	"/>
	<polygon fill="#0000FF" stroke="#800080" points="564,912 565,907 571,908 565,911 	"/>
	<polygon fill="#0000FF" stroke="#800080" points="584,932 578,926 581,916 584,925 	"/>
	<polygon fill="#0000FF" stroke="#800080" points="659,0 654,5 645,7 637,5 630,11 623,15 612,14 605,9 598,4 	"/>
	<polygon fill="#0000FF" stroke="#800080" points="741,587 740,582 735,579 731,571 729,563 730,554 728,546 736,549 742,548 
		735,543 726,540 725,532 730,529 735,536 743,540 741,533 735,527 727,523 718,520 708,518 700,522 695,521 703,517 711,514 
		721,516 729,520 735,519 729,513 720,510 708,510 699,514 694,512 703,508 713,506 722,505 730,509 737,506 743,512 749,518 
		754,525 754,535 758,543 758,553 754,561 750,569 747,578 743,586 	"/>
	<polygon fill="#0000FF" stroke="#800080" points="719,580 718,570 720,561 716,553 711,546 705,550 705,545 704,539 712,535 
		707,530 697,532 698,527 706,525 714,524 722,526 716,532 718,537 711,541 717,547 723,553 726,562 721,569 720,578 	"/>
	<polygon fill="#0000FF" stroke="#800080" points="867,1023 866,1014 859,1010 855,1005 853,998 860,1002 863,1004 868,997 874,991 
		884,989 887,983 879,986 871,987 877,982 885,978 895,976 896,973 901,980 892,982 891,990 884,994 874,997 868,1003 870,1009 
		870,1019 	"/>
	<polygon fill="#0000FF" stroke="#800080" points="899,1023 900,1016 901,1005 895,1002 889,1008 887,1014 892,1021 883,1021 
		877,1017 876,1011 881,1005 890,1001 894,993 903,996 907,1004 908,1013 911,1005 908,996 901,991 897,986 905,988 912,993 
		912,990 906,984 909,979 901,975 904,973 913,976 919,982 922,991 925,1000 924,1009 922,1016 917,1014 919,1022 	"/>
	<polygon fill="#0000FF" stroke="#800080" points="935,860 929,856 934,849 945,849 945,856 938,854 	"/>
	<polygon fill="#0000FF" stroke="#800080" points="967,892 964,885 957,886 946,885 943,877 942,868 948,874 955,879 961,875 
		963,868 958,861 959,854 961,845 970,842 979,843 986,842 990,850 987,859 981,858 973,854 965,859 968,868 976,870 983,865 
		986,874 986,882 980,888 973,886 	"/>
	<polygon fill="#0000FF" stroke="#800080" points="953,871 946,866 945,859 950,859 955,866 	"/>
	<polygon fill="#0000FF" stroke="#800080" points="985,931 977,927 980,921 985,915 990,911 993,920 989,925 	"/>
	<polygon fill="#0000FF" stroke="#800080" points="1196,333 1186,332 1180,327 1176,319 1182,320 1188,326 1198,326 1206,323 
		1215,320 1217,324 1208,325 1202,331 	"/>
	<polygon fill="#0000FF" stroke="#800080" points="1194,349 1187,344 1195,339 1204,337 1213,333 1218,335 1210,339 1201,343 
		1195,348 	"/>
	<polygon fill="#0000FF" stroke="#800080" points="1217,361 1212,354 1219,348 1219,356 	"/>
	<polygon fill="#0000FF" stroke="#800080" points="1229,320 1221,316 1226,314 	"/>
	<polygon fill="#0000FF" stroke="#800080" points="1247,15 1239,15 1232,10 1234,3 1239,4 1241,10 1247,4 1247,12 	"/>
	<polygon fill="#0000FF" stroke="#800080" points="1279,57 1271,61 1262,58 1256,52 1251,45 1248,36 1254,30 1258,30 1254,39 
		1257,48 1263,45 1266,39 1274,43 	"/>
	<polygon fill="#0000FF" stroke="#800080" points="1265,33 1260,27 1264,19 1269,22 1266,31 	"/>
	<polygon fill="#0000FF" stroke="#800080" points="1279,31 1275,25 1274,14 1274,4 	"/>
</g>
<g id="Clumps" display="none" opacity="0.5">
	<polygon display="inline" fill="#FF0000" stroke="#800080" points="0,97 4,92 6,83 15,84 22,87 32,87 31,81 22,80 14,76 16,69 
		28,69 36,73 44,77 50,83 57,88 63,94 68,101 71,110 73,120 73,130 77,135 86,131 95,128 105,126 116,125 124,126 121,117 122,106 
		126,97 131,90 136,84 143,79 151,74 160,72 169,68 179,66 188,65 197,68 202,75 204,85 202,94 197,102 205,106 216,107 226,109 
		234,113 241,118 247,124 252,131 257,138 262,143 267,150 269,160 274,167 275,176 271,184 267,192 272,197 276,190 281,190 
		285,198 291,202 291,212 286,216 283,209 281,217 274,222 265,219 261,213 263,205 263,197 255,200 250,207 243,211 235,215 
		225,217 214,216 205,213 197,209 190,204 183,199 176,194 171,187 166,180 161,173 156,177 154,187 153,198 149,206 143,211 
		135,216 126,218 116,220 107,223 97,223 87,221 80,216 73,211 67,205 62,198 61,188 63,181 65,171 67,160 64,152 58,159 55,166 
		51,174 46,181 39,185 30,188 21,191 11,193 1,193 	"/>
	<polygon display="inline" fill="#FF0000" stroke="#800080" points="76,883 64,883 54,881 45,878 37,874 31,868 30,861 26,855 
		24,845 26,835 27,826 27,818 30,811 32,801 36,793 42,786 50,783 57,778 67,777 71,770 70,759 70,749 72,739 77,731 82,725 89,720 
		97,715 106,712 118,712 128,714 136,718 143,723 150,728 158,728 163,722 169,716 178,713 189,711 200,712 209,715 219,717 
		226,722 231,729 231,741 228,748 231,754 232,760 231,771 229,781 227,791 224,800 221,808 213,813 205,816 194,815 186,811 
		179,806 170,805 163,800 159,792 155,784 149,789 146,798 141,805 133,808 123,811 115,814 106,815 99,812 101,819 106,826 
		110,834 110,844 107,853 103,861 99,869 91,873 85,879 77,882 	"/>
	<polygon display="inline" fill="#FF0000" stroke="#800080" points="242,1023 241,1014 235,1008 231,1000 224,995 221,986 217,978 
		224,975 225,966 215,966 205,964 197,960 189,956 186,951 180,947 180,937 177,928 175,918 169,915 162,919 153,916 145,912 
		138,907 133,900 130,891 121,890 121,880 129,879 134,886 131,880 128,871 120,871 120,863 119,856 126,855 126,847 127,837 
		136,834 144,831 143,824 140,818 147,813 151,821 155,816 163,813 173,815 183,817 192,820 201,823 203,833 205,843 207,851 
		214,856 220,862 231,863 241,865 249,869 256,874 264,878 271,883 281,883 277,878 287,877 291,872 287,864 288,860 295,865 
		299,872 299,877 304,876 310,881 316,884 316,892 321,899 324,906 331,911 337,909 341,917 338,925 335,933 332,941 329,949 
		326,958 321,965 314,965 313,958 311,952 304,958 300,965 291,962 284,967 285,971 295,971 300,978 302,988 304,994 311,998 
		317,995 316,1004 317,1012 313,1020 	"/>
	<polygon display="inline" fill="#FF0000" stroke="#800080" points="290,720 280,718 272,714 266,708 260,702 252,698 248,690 
		244,682 240,674 238,664 239,653 241,643 245,634 243,625 234,622 224,622 217,617 211,611 209,602 206,594 205,587 205,575 
		209,567 215,561 221,555 228,549 236,545 246,545 255,542 264,543 273,546 282,549 289,554 295,560 302,565 306,573 309,582 
		308,593 306,602 300,609 292,613 294,621 300,627 309,628 319,630 325,636 331,642 336,649 341,656 344,665 345,676 343,686 
		339,694 334,701 329,708 323,713 314,717 304,718 292,719 	"/>
	<polygon display="inline" fill="#FF0000" stroke="#800080" points="549,847 540,844 530,842 522,838 514,834 506,830 500,824 
		494,818 488,812 484,804 478,798 471,802 464,806 455,809 448,804 441,807 431,809 420,808 412,804 405,799 398,794 392,788 
		387,781 383,773 377,778 374,787 370,794 365,802 360,808 352,813 344,816 333,817 322,816 312,816 303,813 296,808 291,801 
		288,792 283,785 278,778 276,768 277,757 280,748 284,739 289,733 296,728 306,725 315,728 325,730 335,732 345,733 356,731 
		363,736 370,741 376,736 381,728 385,721 390,714 397,708 403,702 410,697 417,693 425,688 435,686 443,683 440,674 436,666 
		430,660 423,655 415,651 413,641 412,630 411,619 414,609 415,599 408,595 398,596 389,593 381,589 373,585 365,581 358,576 
		352,570 347,563 344,554 340,546 338,536 339,524 342,516 347,509 354,503 361,499 371,496 381,498 390,501 400,503 408,507 
		417,510 424,515 430,521 435,528 438,537 439,548 441,558 443,568 439,576 447,580 458,579 468,578 479,576 478,570 471,565 
		465,559 460,552 453,547 447,541 442,534 443,523 445,513 450,505 456,499 463,494 471,490 479,486 486,482 494,477 502,474 
		503,465 500,456 498,446 500,435 501,427 493,427 483,425 477,419 471,413 465,407 458,402 459,395 455,387 452,378 450,368 
		452,358 457,351 463,345 469,339 476,333 483,328 490,324 501,322 513,322 524,323 530,329 538,331 545,336 551,342 554,351 
		558,359 558,369 557,380 553,387 555,394 566,395 573,400 581,404 590,407 596,413 604,415 608,408 613,401 619,394 626,389 
		630,382 635,374 642,373 647,366 653,361 662,357 670,353 678,355 687,358 689,349 690,338 691,328 694,319 700,313 704,306 
		711,300 718,296 728,293 738,291 747,292 759,292 768,293 775,298 783,302 788,309 792,317 795,326 795,338 793,348 789,356 
		787,365 782,373 777,379 770,385 763,389 754,392 743,393 735,391 727,389 719,385 711,386 715,394 721,400 724,409 728,417 
		729,428 728,438 725,447 721,456 717,463 712,471 707,477 700,482 692,486 683,485 675,484 669,489 659,491 649,491 639,489 
		630,486 624,480 615,479 608,474 603,467 599,476 592,481 584,480 578,479 581,488 577,495 569,497 565,504 572,509 573,520 
		573,531 569,540 565,547 558,553 562,561 571,564 578,569 584,575 588,583 591,592 591,604 591,615 588,624 583,631 579,639 
		575,646 582,651 590,655 597,660 605,664 614,667 621,672 626,679 629,688 630,699 629,707 624,715 618,721 617,732 612,739 
		605,744 602,753 599,762 596,762 592,754 588,759 590,769 593,778 596,787 602,789 601,800 598,808 593,816 588,822 581,828 
		574,833 568,838 560,839 556,846 	"/>
	<polygon display="inline" fill="#FF0000" stroke="#800080" points="407,367 396,366 385,365 376,362 370,356 363,351 355,347 
		354,341 350,334 347,325 348,316 350,306 345,299 337,295 329,291 321,287 315,281 309,275 305,267 300,260 298,250 295,241 
		296,229 299,221 304,214 310,208 314,199 320,193 324,185 327,177 327,167 325,157 328,148 332,140 339,135 345,128 350,122 
		359,118 369,116 379,114 387,112 397,114 404,119 408,127 415,128 420,135 424,143 425,154 423,164 422,174 418,182 414,190 
		409,197 403,203 393,204 389,211 380,212 380,219 389,222 396,227 401,234 405,242 409,250 412,259 421,259 428,261 430,269 
		433,278 431,286 440,289 450,287 454,291 459,295 465,290 468,299 468,309 471,318 468,327 463,334 458,341 451,345 445,351 
		438,357 431,361 422,364 411,366 	"/>
	<polygon display="inline" fill="#FF0000" stroke="#800080" points="655,320 645,318 636,315 632,307 635,297 641,292 640,281 
		635,276 633,287 628,294 618,293 609,290 606,283 616,280 622,275 615,270 610,266 611,273 607,278 598,281 588,284 580,288 
		569,288 559,290 550,289 539,288 531,284 525,278 521,270 517,262 515,252 515,241 514,231 515,222 522,219 528,213 534,206 
		541,202 549,197 559,195 570,196 581,197 590,198 599,201 605,207 608,216 609,225 612,234 613,245 611,255 616,262 625,263 
		631,258 637,252 630,251 628,243 623,236 621,226 619,218 626,221 628,210 631,202 637,195 646,193 650,185 651,189 658,194 
		667,195 668,189 659,186 661,181 672,180 680,184 686,190 692,196 698,202 703,209 707,217 710,226 713,235 714,246 717,255 
		717,265 713,273 711,283 707,290 701,296 694,301 686,301 683,294 678,302 675,311 668,315 660,319 	"/>
	<polygon display="inline" fill="#FF0000" stroke="#800080" points="645,1023 647,1014 651,1006 654,998 647,993 638,990 630,986 
		623,981 617,975 610,970 604,964 600,956 598,946 599,935 603,926 606,917 612,911 617,905 623,899 630,893 639,890 650,889 
		661,890 670,893 678,897 685,902 692,907 695,916 698,925 701,934 701,944 700,955 696,963 693,971 691,980 700,983 712,983 
		721,986 729,990 738,987 746,989 758,989 756,997 749,999 744,994 744,1001 751,1006 759,1007 761,998 768,995 771,1004 775,1012 
		781,1018 	"/>
	<polygon display="inline" fill="#FF0000" stroke="#800080" points="926,330 915,329 907,325 898,322 892,316 886,310 882,302 
		879,293 877,283 871,277 867,269 866,258 869,248 873,240 877,233 883,227 891,222 897,217 905,212 911,207 910,198 908,188 
		902,182 894,186 884,188 875,187 865,185 856,182 846,182 838,178 831,173 827,165 827,153 824,144 827,135 831,127 834,118 
		837,108 840,99 845,93 853,88 862,85 868,80 877,82 887,84 896,86 904,89 908,97 913,104 914,112 914,121 921,126 924,135 932,138 
		943,136 954,135 964,135 972,132 977,128 983,134 980,137 988,137 995,142 1000,149 1006,155 1011,162 1014,171 1014,181 1013,192 
		1011,202 1007,210 1001,216 995,221 988,227 981,231 972,234 964,234 955,231 950,237 953,246 958,253 965,258 972,263 977,270 
		980,279 980,289 978,299 974,307 968,313 962,318 954,323 945,326 936,328 	"/>
	<polygon display="inline" fill="#FF0000" stroke="#800080" points="1075,707 1064,706 1054,704 1045,701 1036,698 1029,693 
		1023,687 1015,683 1005,683 996,682 988,678 980,674 972,670 965,665 958,660 952,654 947,647 944,638 942,628 943,617 945,607 
		948,598 954,591 959,585 965,579 972,573 980,569 989,566 999,564 1005,558 1012,553 1019,548 1028,545 1035,540 1040,545 
		1049,548 1059,550 1067,554 1076,555 1083,550 1087,543 1093,537 1098,530 1100,522 1095,515 1091,507 1088,498 1087,487 1084,478 
		1080,470 1079,461 1080,450 1082,440 1083,429 1085,419 1083,411 1074,412 1069,405 1061,409 1050,410 1039,409 1029,407 1019,405 
		1011,401 1003,397 997,391 992,384 988,376 985,367 984,356 985,345 989,336 994,329 1000,323 1007,318 1015,314 1025,312 
		1036,311 1045,308 1055,307 1063,303 1072,299 1083,299 1093,298 1103,300 1111,304 1118,309 1125,314 1134,316 1140,318 1140,325 
		1148,329 1155,334 1160,341 1165,347 1160,353 1162,363 1164,371 1173,374 1182,377 1191,380 1199,384 1207,388 1214,393 1220,399 
		1225,406 1230,413 1235,420 1241,426 1241,436 1241,446 1240,455 1242,464 1240,475 1237,484 1232,491 1228,498 1222,505 1216,511 
		1214,519 1225,518 1235,518 1243,522 1250,527 1257,532 1262,539 1266,547 1270,555 1271,566 1271,578 1268,587 1265,596 1260,603 
		1254,608 1247,614 1239,618 1230,620 1220,622 1208,622 1199,619 1192,614 1182,613 1180,620 1171,623 1162,624 1153,625 1151,632 
		1148,628 1142,626 1142,631 1146,638 1141,646 1136,648 1135,637 1132,643 1133,652 1136,659 1130,657 1128,666 1124,674 1117,680 
		1112,686 1105,692 1099,698 1092,703 1084,706 	"/>
	<polygon display="inline" fill="#FF0000" stroke="#800080" points="1064,1023 1059,1016 1055,1008 1052,999 1052,987 1055,978 
		1059,970 1064,963 1068,955 1058,953 1048,955 1039,956 1031,952 1023,948 1018,941 1012,935 1006,929 1000,923 998,913 998,901 
		999,890 1001,880 1006,873 1011,866 1017,860 1025,855 1036,854 1048,854 1057,857 1064,862 1071,867 1077,873 1082,880 1085,889 
		1089,897 1095,903 1099,911 1101,921 1099,930 1094,937 1093,945 1103,945 1113,947 1122,950 1129,955 1136,960 1144,964 1149,971 
		1153,979 1157,987 1159,997 1160,1008 1159,1019 	"/>
	<polygon display="inline" fill="#FF0000" stroke="#800080" points="1279,392 1275,390 1269,384 1264,377 1260,369 1257,360 
		1256,349 1257,338 1253,330 1247,324 1242,317 1238,309 1236,299 1228,302 1228,308 1220,309 1211,313 1206,319 1197,322 1189,318 
		1183,312 1173,310 1167,304 1160,299 1154,293 1149,286 1145,278 1144,271 1147,266 1143,263 1144,258 1149,252 1154,244 1157,236 
		1150,231 1157,231 1164,228 1172,226 1179,221 1188,218 1183,214 1176,213 1186,210 1193,213 1197,221 1202,228 1204,223 1198,217 
		1197,207 1205,207 1211,213 1218,218 1221,225 1229,229 1234,236 1237,245 1234,252 1243,253 1251,249 1251,240 1256,233 1262,226 
		1267,220 1265,210 1264,199 1264,187 1266,176 1269,167 1274,160 	"/>
</g>
<g id="Single_nuclei" opacity="0.5">
	<polygon fill="#00FF00" stroke="#800080" points="166.235,454.937 159,454 150,451 140.218,445.98 136,441 132,433 129,425 
		129,417 131,407 134,398 137,390 143,383 150,378 158,375 167,371 178,370 189,371 197,373 204,378 212,382 219,387 223,395 
		227,403 228,414 227,425 223,433 218,439 212,445 203,449 194,451 183,453 173,454 	"/>
	<polygon fill="#00FF00" stroke="#800080" points="252,367 242,365 234,361 227,356 219,352 213,346 208,339 205,330 196,327 
		189,322 186,315 185.483,306.649 181.819,299.687 182,291 187,284 192,277 198,271 205,266 214,264 225,263 237,263 247,265 
		254,270 260,276 267,281 272,288 276,296 280,304 283,313 282,324 279,333 275,341 272,349 269,358 263,364 253,366 	"/>
	<polygon fill="#00FF00" stroke="#800080" points="589,131 578,130 568,128 559,125 553,119 547,113 542,106 538,98 537,87 541,79 
		545,70 549,62 553,55 559,49 567,44 575,40 583,36 595,36 604,37 613,40 619,46 624,53 629,60 631,70 631,80 630,91 630,103 
		626,111 621,117 613,122 603,124 596,128 	"/>
	<polygon fill="#00FF00" stroke="#800080" points="672.088,641.885 663,642 652,641 642,639 634,635 626,631 619,626 
		611.762,620.594 606,615 601,608 599,598 600,587 603,577 606,569 612,562 618,557 627,553 636,551 647,549 657.752,548.061 
		668,548 678,550 688,552 696,556 702,562 706,570 710,578 712.4,586.102 714,596 713,605 710.412,612.362 705,619 701.044,626.698 
		696.076,632.376 690,637 681,640 	"/>
	<polygon fill="#00FF00" stroke="#800080" points="678,818 667,817 660,812 651,809 643,805 637,799 631,793 626,786 622,778 
		617,771 614,762 614,750 617,740 621,732 626,725 632,719 639,715 648,711 657,708 667,708 677,710 686,713 693,718 699,724 
		705,730 712,735 719,740 722,749 724,759 724,771 724,781 721,790 717,797 710,802 701,806 693,810 686,815 	"/>
	<polygon fill="#00FF00" stroke="#800080" points="1162.065,206.151 1155,207 1145,205 1138,200 1133,193 1128,186 1123,179 
		1121,169 1121,157 1123,147 1126.082,137.818 1131.695,132.206 1138.297,126.264 1146,121 1155,119 1164,119 1172,118 1181,117 
		1190.783,118.342 1199,120 1206,125 1212,131 1216,139 1218,149 1218,161 1216,171 1213,180 1210,188 1205,195 1198.705,198.888 
		1191.115,202.519 1181.541,203.84 1171.308,205.16 	"/>
	<polygon fill="#00FF00" stroke="#800080" points="105,228 95,226 85,224 78,219 73,212 69,204 64.351,199.853 60.312,191.272 
		61.019,178.707 63.573,170.617 66.554,163.378 69.961,155.714 74.219,145.494 78.477,138.681 83.16,131.869 88.696,127.611 
		96.786,122.075 106.58,121.649 113.819,122.927 122,126 128,132 134,138 140,144 146,150 149.156,156.946 154.709,164.013 159,173 
		160,184 157,193 153,201 148,207 141,213 135,218 127,222 117,225 108,227 	"/>
	<polygon fill="#00FF00" stroke="#800080" points="62.859,883.286 53.1,881.917 44.712,877.807 38.72,872.501 33.07,867.879 
		27.421,861.715 23.312,854.353 20.915,846.649 19.546,836.378 20,826 21,815 23.312,804.878 26,796 31,789 36,782 43,776 52,773 
		59.263,773.898 67,778 72.617,785.026 78.095,791.018 84,797 90.079,801.29 97,808 103,814 108,821 111.136,829.538 113,840 
		112,850 108,859 102.406,865.995 96.927,871.644 89.908,876.952 81.691,880.547 73,883 	"/>
	<polygon fill="#00FF00" stroke="#800080" points="109.183,814.873 103,812 97,806 91,800 84,795 78,789 72,783 67,776 64,767 
		63,758 65,747 68.51,738.119 72,730 78,724 84,718 92.306,713.296 99.668,709.358 109.597,708.844 119.355,710.385 127.402,712.61 
		136,716 143,721 146.405,727.505 150,735.893 151,747 152,758 153,769 153,781 150,789 145,797 140,804 133.394,808.824 125,813 
		116,815 	"/>
	<polygon fill="#00FF00" stroke="#800080" points="200.842,817.344 195,817 186,814 176,812 169.174,807.112 162.326,801.804 
		158.731,794.786 155.821,785.884 154.622,774.756 153.937,764.312 153.595,752.671 154.622,741.885 154.793,732.299 
		158.046,721.684 161.812,716.548 170.886,712.268 178,709 189,708 201,708 209.576,709.872 218,713 226,717 232,723 235,732 
		236,743 236,755 234.058,766.195 231.832,776.468 229.264,786.054 226.011,794.786 223.615,802.147 219.677,809.166 213,815 
		206.009,817.119 	"/>
	<polygon fill="#00FF00" stroke="#800080" points="288.746,722.006 283,721 274,718 267,713 260,708 253.026,701.485 248,696 
		243,689 238,682 235,673 233,663 232,652 235,644 238,636 243,629 250.376,625.33 259.445,621.184 268.644,618.204 278.49,616.52 
		288.856,616.132 299.22,617.686 307,620 315,624 323,628 329,634 334,641 339,648 343,656 346,665 346,675 343.467,684.955 
		340.237,693.885 336,701 331,707 325.416,712.315 316.106,716.305 307,719 297,721 	"/>
	<polygon fill="#00FF00" stroke="#800080" points="234.829,624.424 229,624 220,621 213,616 209,608 205.419,600.066 
		202.309,592.163 201,582 203.475,571.554 206.455,563.521 212,556 220.059,551.084 227,547 235,544 246,542 257,541 
		267.478,541.885 278,544 285.487,547.586 293,553 299,559 304,566 307,575 309,585 307.123,594.754 303,602 297,609 
		290.281,612.245 280.045,614.058 270.199,615.483 260.093,618.334 251.672,622.091 244.028,623.516 	"/>
	<polygon fill="#00FF00" stroke="#800080" points="757,387 746,386 735,387 724,386 715,383 708,378 702,372 697,365 692,358 
		689,349 690,338 691,327 695,319 701,312 705,305 712,299 720,295 730,293 739,290 749,292 760,293 769,296 776,301 782,307 
		787,314 790,323 790,333 788,343 787,353 783,362 780,370 774,376 767,382 760,386 	"/>
	<polygon fill="#00FF00" stroke="#800080" points="336.437,816.056 330,816 320,816 310,814 302,810 295,805 291,797 287,789 
		282,782 278,774 277,763 280,753 283,745 288,738 293,731 301,727 312,727 320,731 330,733 341,734 352,733 361,734 
		367.977,737.966 373,746 374,757 376,767 375.197,777.106 373,786 369,793 364,801 359,807 351,812 343,815 	"/>
	<polygon fill="#00FF00" stroke="#800080" points="660.5,491 653,491 643,490 633,488 626,483 618.5,478.5 612.75,473.5 610,465 
		609,454 609,442 608,431 607.25,420.5 608,411 611,403 616,397 623,391 629,385 634.25,379.75 639,375 646,370 654,366 663,364 
		675,363 684,366 691,371 698,376 704,382 710,388 715,395 721,401 725,409 728,418 729,428 727,439 724,448 721,456 716,464 
		712,471 706,477 699,482 691.5,484 683,484 675,485 668,489 	"/>
	<polygon fill="#00FF00" stroke="#800080" points="484.171,424.485 475.775,420.541 470,416 464,410 458,404 454.148,397.134 
		450,388 449,377 451.071,366.778 454.344,358.363 458.346,351.722 462,346 467,339 473,332 479.591,327.425 487.766,323.071 
		496.892,320.301 505.296,318.396 515.339,318.01 523.735,319.537 532,323 538,329 543,336 548,343 551.595,349.56 555.157,358.465 
		556,369 555,380 552,389 546,395 540.145,399.297 532.385,403.876 524.243,409.219 516.356,414.689 510.886,417.87 501,422 
		493,425 	"/>
	<polygon fill="#00FF00" stroke="#800080" points="561,492.75 555,492 546,489 537,486 529,482 520,477.75 512,473.5 506,469 
		500,463 496,455 495,444 497.75,434.75 503,428.25 507.399,423.573 515.346,417.496 522.358,412.588 530.477,406.929 
		538.719,402.07 545.616,397.77 552,394 561,393.5 570,396 578,400 586,404 592.75,409 598.25,414.75 603,423 605.5,430.75 608,442 
		608,454 607,463 604,471 599,478 592,483 585,488 576,491 568.5,492 	"/>
	<polygon fill="#00FF00" stroke="#800080" points="511.634,571.903 500,573 488,573 477.932,569.257 472.462,565.727 465,560 
		458,555 451,550 444.936,543.847 441,536 441,524 442,514 445.75,506.75 450,501 456,494 462,488 469,484 477,480 485,476 
		492.5,474.5 500.75,474 510,476 519,479 528,483.25 535.75,487 544.5,490.75 553.5,494 562.5,497 569,501 573,509 576,518 
		574,528.5 570.5,536.75 567,545 563,553 557,559 550,563 541.63,565.375 532.278,568.021 522.044,569.786 	"/>
	<polygon fill="#00FF00" stroke="#800080" points="400,595 391,592 382,589 374,585 367,580 360,575 353,570 348,563 345,554 
		341,546 339,536 339,526 343,517 348,510 354,504 362,500 371,497 380,500 390,502 399,505 408,508 417,511 424,516 429,523 
		434,530 437,539 438,550 440,560 441,569 437,577 431,582 424,587 416,592 407,594 	"/>
	<polygon fill="#00FF00" stroke="#800080" points="479.698,693.322 474,692 465,689 456,686 447.588,681.922 441,677 436,670 
		430,664 424,658 418,652 413.008,645.834 410.347,638.043 406.927,628.353 406,618 408,608 411.298,600.802 417.568,594.533 
		424,588 432,583 439.988,579.902 451,578 463,578 475,578 482.549,579.902 488.439,585.033 492.049,593.772 495.469,603.843 
		498.319,612.012 502.118,620.943 505.349,628.543 510.859,636.523 514.089,644.313 514,653 510.099,658.172 505,667 500,675 
		496,683 492.239,689.332 486.919,692.562 	"/>
	<polygon fill="#00FF00" stroke="#800080" points="440,807 428,807 417,806 408,803 401,798 393,794 388,787 385,778 381,770 
		378,761 376,751 375.577,739.866 376.337,730.176 379.567,722.006 383.747,715.166 388,709 395.147,703.006 400.847,697.685 
		408,693 417,689 424.978,686.095 433.338,685.145 443.598,685.905 453,689 463,691 472,694 480,698 487,703 492,710 
		494.899,716.698 496.419,722.575 498.888,730.365 498.319,737.395 497,746 493,755 490.529,761.146 486.158,769.506 
		482.359,778.816 477,787 472.288,794.016 467,800 459,805 449,806 	"/>
	<polygon fill="#00FF00" stroke="#800080" points="540,849 532,845 524,841 516,837 508,833 501,828 496,821 491,814 486,807 
		481,800 480.648,790.786 483.308,781.476 486.919,773.116 490.339,766.086 495.089,759.626 501.739,753.546 509,749 
		515.799,746.902 527,747 537.649,748.992 549.239,751.082 558,752 567,755 576,758 583,763 587,771 592,778 595,787 593,797 
		590,806 587,814 581,821 576,827 570,834 564,839 555,843 547,846 	"/>
	<polygon fill="#00FF00" stroke="#800080" points="580.4,752.412 572.8,751.463 564,751 553,750 542,749 532,747 522.069,744.432 
		515.419,739.112 512.379,731.132 508.009,724.482 501,718 495,712 492.049,705.101 491,696 494.899,688.002 500.219,680.021 
		504.019,672.042 508.198,663.871 513.519,657.411 519.219,652.471 525.299,647.341 536,644 547,643 557.599,643.351 568,644 
		578,646 587,649 595,653 602,658 610,662 617,667 623,673 627,681 628.28,689.901 628,700 625.62,709.851 623,719 619,726 615,734 
		607.57,741.012 603,746 594,750 587.429,751.082 	"/>
	<polygon fill="#00FF00" stroke="#800080" points="522.449,642.223 517,640 511.049,633.103 507,626 502.689,617.143 
		498.888,608.023 495.279,598.713 493.379,588.833 495,580 500.517,574.726 512,573 523,571 533,569 543,567 554,566 563,565 
		572,568 581,571 586,578 590,586 592,596 592,607 589,617 587,627 582,634 576,640 566,641 554,641 543,642 531,642 	"/>
	<polygon fill="#00FF00" stroke="#800080" points="366,206.004 359,206 349,204 338.334,201.338 330,199 321.797,192.786 317,188 
		314,179 315,170.504 316.667,161.338 319.334,153.338 322,144 327,136.004 332,130 337,124 343,118 349.56,113.533 359,109 
		369,107 379.167,106.171 388.667,108.004 396.667,111.338 403.167,114.671 409.667,119.338 417,125 423,131 426,137.338 
		427.5,146.671 426.834,155.171 425.334,165.338 423.334,174.338 418.334,182.338 414,188 407,193 398.834,197.838 391.5,201.338 
		383.5,203.171 375.167,205.171 	"/>
	<polygon fill="#00FF00" stroke="#800080" points="341,297 333.167,294.169 324.834,289.835 317.667,284.669 310.834,279.669 
		305.334,273.835 300.834,268.166 295,259 291,251 290,242 292,232 295,223 299,214.502 303.167,208.335 308.667,203.669 
		315.834,200.669 326,201 336,203 346,205 356,207 366,209 376,211 385,214 393.167,218.335 400,223 405,230 406.823,237.198 
		409,248 407,257 402,264 395.394,269.394 388.511,274.436 381.006,280.14 374.42,283.828 367.144,289.241 357.701,295.403 
		349.656,297.79 	"/>
	<polygon fill="#00FF00" stroke="#800080" points="408,371 397,370 387,368 377,366 369,362 362,357 356,351 349,346 345,338 
		343,328 343.557,320.239 346.38,310.9 350,304 356,299 363,294 370,289 377,284 384,279 391,274 398,269 405,264 413.146,260.908 
		421.84,259.591 426.845,261.962 432.114,265.65 434.991,273.762 439.552,279.192 447.588,281.798 457.931,286.199 462.146,292.258 
		467.414,300.425 469.785,308.855 472,320 469.259,330.194 465.307,336.516 460,344 453,349 447,354 440,359 431,362 422,366 
		413,369 	"/>
	<polygon fill="#00FF00" stroke="#800080" points="557,283 545,283 534.549,280.967 527,277 522,270 517,263 515,253 514,242 
		516,232 519,223 523.114,216.032 530,210 537,204 544,199 553,196 564,195 574.164,195.203 585,196 593,200 600,205 605,212 
		608,221 609.694,230.121 611,240 611,250 609,260 605,268 599,273 591,277 583,281 576.206,283.213 566.404,283.417 	"/>
	<polygon fill="#00FF00" stroke="#800080" points="645.225,317.11 637.057,314.455 630,311 623.988,305.062 619.291,299.753 
		616.024,294.444 611.328,286.684 608.06,278.72 609.49,269.327 613.165,259.73 615.412,250.745 615.412,240.331 614.186,227.875 
		615.003,218.686 616.433,208.476 619.291,199.287 621.946,190.303 626,184 633,180 643.183,178.255 653,177 665,177 
		673.199,179.276 681.163,182.952 688.719,187.035 695.865,192.957 703,199 708,206 712,214 715,223 716,234 715.265,243.803 
		715.265,254.217 714.652,265.039 712.406,274.228 709.343,282.804 705.259,290.36 700.563,297.507 695.049,302.816 
		687.493,308.738 680.959,311.801 672,315 662,317 654.209,317.314 	"/>
	<polygon fill="#00FF00" stroke="#800080" points="654,992 644,990 634,988 627,983 621,977 614,972 607,967 602,960 599,951 
		599,941 601,931 604,922 608,914 614,908 620,902 626,896 634,891 644,889 656,889 666,891 674,895 682,899 688,905 693,912 
		697,920 699,930 700,941 699,952 696,961 692,969 687,976 681,981 673,985 665,989 655,991 	"/>
	<polygon fill="#00FF00" stroke="#800080" points="876,189 864,189 854.633,187.378 844,185 836,181 830.044,175.425 
		827.157,168.146 824.229,160.532 823.058,149.99 823.448,141.595 826.572,133.201 829.11,124.806 830.671,115.435 834.772,103.722 
		837.114,95.132 840.433,88.299 845.704,83.028 852,79 862,76 870.698,75.992 881,77 891,79 899,83 904.225,87.756 911,95 915,103 
		918.132,111.726 919.499,121.097 920.106,130.105 920,140 918.132,148.819 914.423,159.361 910.714,167.951 906.614,174.588 
		901,180 894,185 884,187 	"/>
	<polygon fill="#00FF00" stroke="#800080" points="965.285,233.141 957,232 949,228 941.037,222.896 934,219 927,214 920,209 
		914.814,203.286 911.885,195.477 910.714,186.692 911.494,178.493 914.228,168.732 916.18,160.727 919.109,152.333 
		923.404,141.986 929.651,133.201 934.727,129.687 942.535,127.539 949.368,125.977 958.544,126.173 967.524,126.368 
		975.724,127.929 983.728,131.444 990,134 997,139 1003,145 1007,153 1011,161 1012.817,168.927 1013.012,180.25 1011.84,191.768 
		1009.888,199.382 1005.593,207.191 1001.103,214.219 995.246,221.442 990,227 981,230 972,233 	"/>
	<polygon fill="#00FF00" stroke="#800080" points="1219.535,621.804 1212,622 1203.351,620.149 1195.442,615.735 1189.372,609.482 
		1187.902,600.286 1189.557,588.883 1191.764,577.664 1192.499,565.892 1193.419,553.754 1195.993,545.477 1199,537 1204,530 
		1212,525 1220,521 1229,518 1238,519 1246,523 1252,529 1256.872,535.362 1260.918,542.167 1265.149,552.098 1267.723,560.559 
		1268.275,569.571 1267.907,579.871 1265.884,589.434 1262.39,596.792 1256.872,604.333 1252,610 1245,615 1236,618 1227,621 	"/>
	<polygon fill="#00FF00" stroke="#800080" points="1080.859,703.094 1075.709,703.83 1066.145,704.014 1056.581,702.543 
		1047.753,700.887 1040.396,697.393 1033.959,691.508 1028,686 1024.028,678.449 1021.085,670.541 1019.798,660.241 
		1020.717,649.021 1022.372,639.274 1026.603,631.917 1032.672,625.112 1039.478,620.882 1048.49,617.755 1057,616 1069,616 
		1080,615 1090.055,615.183 1098.699,615.367 1107.711,615.551 1118.195,619.413 1123.345,625.482 1128,633 1130,643 1129,654 
		1127,664 1123,672 1118,678 1112,684 1106,690 1099.619,694.818 1094.285,697.577 1087.848,700.519 	"/>
	<polygon fill="#00FF00" stroke="#800080" points="1002.509,678.081 994.968,679.184 987,678 978,675 971,670 964,665 958,659 
		952.851,652.516 948,645 945.862,637.619 944.574,626.951 944.023,615.916 946,608 949,600 953.771,592.19 958.737,585.936 
		965.541,580.97 973.266,576.188 981.542,572.694 990.37,570.855 998.647,571.774 1007,573 1015,577 1022,582 1028,588 1034,594 
		1039,601 1040,610 1038.741,616.468 1032.489,623.272 1026.603,629.526 1021.637,637.251 1019.43,646.262 1018.51,656.93 
		1018.51,667.966 1015.383,673.116 1009.866,677.162 	"/>
	<polygon fill="#00FF00" stroke="#800080" points="1150.566,619.966 1140,621 1129,620 1121,616 1112,613 1104,609 1098,603 
		1093,596 1089,588 1087,578 1084,569 1083,558 1084,547 1089,540 1096,534 1103,529 1115,529 1127,529 1139,529 1151,529 1163,529 
		1175,529 1184,532 1189,539 1190.66,546.397 1191.212,557.249 1190.844,569.755 1189.74,581.894 1187.35,592.193 1183.856,601.206 
		1179.257,607.459 1174.291,612.425 1169,616 1160,619 	"/>
	<polygon fill="#00FF00" stroke="#800080" points="1182.569,527.633 1171.349,526.896 1160.13,526.713 1146.887,527.264 
		1135.485,526.896 1123.346,526.344 1112,524 1103,521 1097,515 1092,508 1088.401,498.573 1086.194,488.089 1083.618,477.606 
		1080.491,468.961 1080.308,459.214 1081,451 1082,440 1084,430 1087,421 1091,413 1096.62,406.83 1104,402 1113,398 1121,394 
		1129,391 1139.053,386.361 1149.064,381.879 1159.031,379.89 1165.434,379.09 1172,379 1181.635,380.534 1191,384 1200,387 
		1207.633,391.74 1214,397 1220.632,403.095 1225.563,409.669 1230.045,417.588 1233.183,425.805 1235,436 1237,446 1238,457 
		1237,468 1234.802,479.077 1232,486 1227,493 1222,500 1216,507 1210,512 1202,516 1196.914,520.092 1190.845,523.034 	"/>
	<polygon fill="#00FF00" stroke="#800080" points="1060,954 1050.75,954.25 1040,953 1030.5,951 1023,946 1017,940 1011,934 
		1005,928 1001.25,919.5 998,911 998,899 999,888 1002,879 1007,872 1012,865 1018,859 1027,855 1038,854 1050,854 1058,858 
		1065,863 1071,869 1077,875 1082,882 1085,891 1090,898 1095,905 1098,914 1098,924 1095,933 1088.75,940.5 1083,945 1075,949 
		1067,952 	"/>
	<polygon fill="#00FF00" stroke="#800080" points="1066.073,1024.407 1058,1015 1054,1007 1053.029,997.905 1053.236,988.176 
		1056.134,979.892 1058.41,973.06 1061.931,965.813 1069,959 1076,954 1085,951 1094,948 1105,947 1116,948 1124,952 1131,957 
		1137,963 1143,969 1148,976 1152,984 1156,992 1158,1002 1159,1013 1154.48,1024 	"/>
	<path fill="#00FF00" stroke="#800080" d="M471,335"/>
	<path fill="#00FF00" stroke="#800080" d="M1192,204"/>
	<polygon fill="#00FF00" stroke="#800080" points="1239.779,1024 1227.953,1018.018 1220.043,1007.847 1214.957,998.241 
		1211.002,984.115 1210.438,971.683 1214.314,959.809 1220.043,948.515 1228.52,936.649 1237.561,925.913 1246.602,919.697 
		1256.773,917.436 1266.944,915.742 1279.947,916.33 1279.998,1024 	"/>
	<polygon fill="#00FF00" stroke="#800080" points="1279.941,680.108 1270.9,680.675 1259.032,685.76 1252.252,692.54 
		1244.906,702.712 1239.256,714.578 1237.561,727.01 1237.561,741.701 1242.08,754.697 1248.297,762.608 1256.207,771.084 
		1265.814,774.474 1280,777.715 	"/>
	<polygon fill="#00FF00" stroke="#800080" points="1280,156.094 1272.982,159.275 1267.368,165.878 1264.069,174.46 
		1262.418,184.364 1262.418,193.937 1263.077,203.18 1264.729,210.772 1267.698,218.035 1272.322,221.006 1276.613,223.647 
		1280,223.721 	"/>
	<polygon fill="#00FF00" stroke="#800080" points="1280,235.996 1275.291,236.521 1269.68,243.783 1262.748,247.084 
		1256.476,250.716 1252.185,254.016 1246.573,257.318 1240.961,262.269 1238.32,268.541 1236.998,277.784 1238.65,282.736 
		1242.281,288.678 1244.592,293.3 1242.612,298.251 1240.301,305.844 1240.631,312.446 1242.942,318.718 1246.573,322.349 
		1251.195,324.33 1254.164,327.301 1255.816,331.922 1261.098,333.243 1268.36,332.252 1271.99,328.951 1276.281,327.301 
		1279.965,326.756 	"/>
	<polygon fill="#00FF00" stroke="#800080" points="1280,329.351 1276.613,329.942 1273.312,331.262 1269.35,334.233 
		1266.049,336.544 1262.748,339.515 1260.728,342.925 1259.777,348.427 1260.107,355.36 1261.428,361.962 1263.077,367.904 
		1265.719,374.837 1270.01,380.779 1273.642,385.07 1280,388.126 	"/>
	<polygon fill="#00FF00" stroke="#800080" points="1152.481,216.237 1147.631,221.894 1141.57,229.573 1137.529,236.846 
		1135.91,246.95 1135.91,257.457 1138.74,269.177 1142.781,280.492 1148.844,290.595 1154.906,298.273 1165.009,305.548 
		1175.112,309.589 1184.002,312.822 1194.509,313.226 1201.782,311.205 1211.077,310.397 1220.778,307.568 1228.052,305.143 
		1234.518,301.506 1238.963,296.253 1240.578,290.191 1234.922,277.26 1234.114,268.368 1237.346,259.477 1242.196,255.032 
		1244.619,248.97 1239.771,240.888 1232.496,229.977 1226.435,225.531 1221.99,219.469 1212.695,214.62 1206.229,211.387 
		1200.976,208.962 1192.084,208.558 1181.173,209.366 1169.858,210.983 1160.967,212.195 	"/>
	<polygon fill="#00FF00" stroke="#800080" points="902.097,380.291 894.893,385.894 889.289,392.297 884.888,399.501 
		884.888,407.505 884.488,416.71 882.887,426.315 885.287,437.922 891.291,447.927 899.696,457.132 910.902,463.934 
		922.507,468.737 934.114,471.938 944.919,471.538 954.924,468.737 963.729,463.934 970.933,458.732 978.136,452.728 
		982.939,444.724 986.141,436.72 983.74,427.916 980.938,422.313 978.136,417.11 979.337,410.306 978.937,400.301 977.736,392.297 
		973.734,384.693 968.131,375.088 959.727,367.484 951.323,363.482 939.316,361.081 929.311,363.082 920.906,366.684 
		912.502,371.086 907.299,375.088 	"/>
	<polygon fill="#00FF00" stroke="#800080" points="1005.75,317.458 997.346,324.662 990.143,332.266 983.74,343.072 
		982.537,353.077 982.138,364.683 984.94,375.088 992.544,387.494 1000.948,395.899 1010.153,401.902 1020.558,405.904 
		1029.763,408.706 1039.768,410.306 1047.371,411.107 1055.777,411.107 1064.58,408.305 1070.184,401.102 1073.785,393.097 
		1076.587,384.693 1078.989,374.688 1081.39,365.483 1083.791,356.279 1085.292,346.198 1086.169,337.172 1084.539,328.397 
		1082.59,318.659 1076.587,311.055 1065.781,309.054 1051.775,309.454 1042.168,310.255 1031.364,312.256 1020.957,314.656 	"/>
	<polygon fill="#00FF00" stroke="#800080" points="1079.275,379.416 1077.646,385.433 1075.786,392.697 1073.509,397.843 
		1072.584,403.503 1073.785,407.505 1079.788,409.506 1084.99,408.305 1090.994,405.504 1098.264,401.75 1104.838,399.808 
		1109.469,397.417 1115.296,394.578 1120.974,391.889 1127.399,389.648 1133.375,387.556 1138.605,384.866 1145.03,381.729 
		1150.558,378.741 1155.428,375.088 1158.23,371.486 1161.017,365.891 1163.031,358.28 1163.433,351.876 1162.632,345.473 
		1161.031,339.469 1156.629,332.266 1149.824,325.863 1144.623,319.459 1142.222,315.857 1135.418,313.056 1129.414,311.455 
		1122.612,308.253 1113.807,303.451 1105.803,299.849 1096.598,298.248 1087.793,298.248 1079.788,299.049 1072.986,300.249 
		1070.184,303.052 1070.751,306.837 1077.52,309.97 1083.035,317.241 1085.668,327.018 1087.548,336.044 1086.796,344.067 
		1085.417,353.844 1083.787,361.115 1081.907,368.009 1080.529,373.9 	"/>
	<polygon fill="#00FF00" stroke="#800080" points="233.289,0.094 236.073,11.112 240.48,19.927 246.859,27.813 255.185,34.36 
		265.995,38.367 279.031,39.895 292.23,38.617 303.727,33.508 312.669,26.269 317.779,18.179 319.482,10.089 318.303,0 	"/>
	<polygon fill="#00FF00" stroke="#800080" points="0.555,196.591 10.774,195.739 21.419,193.61 32.49,190.204 42.283,186.371 
		51.225,180.41 57.613,172.32 62.296,163.378 66.554,156.139 71.238,148.475 75.071,139.533 77.625,131.017 77.199,120.798 
		75.496,110.153 72.515,100.359 67.406,93.12 61.87,87.585 55.483,82.475 49.096,77.366 43.987,73.533 36.322,70.979 29.084,68.424 
		19.716,68.424 12.052,70.979 6.09,72.682 0.555,71.83 	"/>
	<polygon fill="#00FF00" stroke="#800080" points="0.001,227.875 10.774,232.358 19.29,240.874 26.529,250.242 32.064,262.59 
		35.47,274.939 34.619,286.861 32.916,298.358 27.806,308.577 20.993,315.39 12.903,322.203 0.112,323.594 	"/>
	<polygon fill="#00FF00" stroke="#800080" points="0,432.879 10.132,434.038 17.809,438.729 22.927,445.553 27.619,455.364 
		30.604,464.32 30.178,473.703 28.045,482.66 23.78,489.911 17.383,494.602 9.705,499.295 0,501.388 	"/>
	<polygon fill="#00FF00" stroke="#800080" points="162.032,142.859 159.834,150.553 159.834,160.813 160.2,169.974 163.865,180.6 
		168.628,188.295 175.223,194.157 181.819,200.387 189.514,205.15 197.575,210.28 206.736,215.044 216.263,218.342 226.523,218.342 
		235.683,216.51 244.844,210.647 252.538,204.052 260.6,198.555 267.195,192.325 272.692,184.997 274.524,175.837 273.058,163.745 
		270.493,154.219 265.363,143.592 261.699,135.897 254.737,128.568 245.21,120.507 237.882,115.377 229.821,110.247 
		222.492,106.949 214.43,107.316 205.636,109.514 197.209,112.446 191.346,114.644 185.483,116.844 179.254,121.24 173.758,125.27 
		168.261,132.965 	"/>
	<polygon fill="#00FF00" stroke="#800080" points="130.886,87.529 125.757,93.026 120.993,99.255 118.062,106.583 117.696,115.01 
		120.627,121.973 125.39,124.171 129.054,126.37 129.421,130.4 132.352,134.431 136.016,137.729 139.681,140.66 143.711,143.592 
		148.475,143.592 154.338,141.393 160.567,136.63 165.33,130.4 168.994,125.27 173.758,120.507 179.254,115.743 183.285,113.178 
		189.514,110.614 194.278,108.415 199.407,105.85 204.171,98.888 207.469,92.293 207.469,85.331 205.636,78.735 202.705,73.239 
		198.308,68.109 192.446,65.91 183.651,66.277 171.926,69.574 163.865,71.773 155.437,74.704 146.276,78.368 139.314,82.033 	"/>
	<polygon fill="#00FF00" stroke="#800080" points="0,987.385 7.158,981.171 16.091,978.192 25.322,978.192 33.957,979.979 
		41.996,981.171 49.738,982.361 56.986,984.709 63.435,988.614 68.199,993.38 70.284,998.738 71.177,1004.395 69.986,1009.756 
		70.879,1015.712 72.106,1024.02 0.001,1024 	"/>
	<polygon fill="#00FF00" stroke="#800080" points="183,908.5 178.5,913.75 175.706,918.559 173.5,924.5 173.25,931.75 175,937 
		177,941.5 180.25,944.75 184.25,950.25 188.25,954.5 191.5,957.5 197,961 201.75,964 207.75,965 214,966 219.5,966.5 
		224.75,964.75 229.25,961.75 233.75,960 239.5,960.5 245,960 251,959.5 257.25,957.5 262,955 266.75,952.75 272,948.25 
		274.75,945.25 278.75,940.75 280.25,935.25 282.5,929.5 284.75,924.25 285.5,917 284,910.5 282,904.25 279.25,899.5 276.75,894.5 
		273.25,889.25 268.75,884.25 265.5,880.75 261,877.75 257,874.75 250.75,871.5 246,868.25 242,866.5 237.5,865.25 232,864.5 
		226.75,864.25 224,864.5 219,866.75 215.388,870.414 212.415,873.616 209.785,877.048 206.583,881.278 204.525,884.136 
		201.323,887.798 197.777,891.456 194.69,895.687 190.573,899.92 186.799,903.922 	"/>
	<polygon fill="#00FF00" stroke="#800080" points="122.5,844.5 120.5,850 119,855.5 118,862.25 118.25,869.5 118.25,877 118.75,884 
		120.25,890 123.5,895.5 127.5,900.25 131.25,904.75 135.75,908.75 140.5,910.25 145.25,913.25 149,916.25 154.75,918.75 
		160.953,918.559 165.985,917.53 170.75,915.25 175.75,912.5 179.75,908.25 184.25,904.5 188,900.25 192,896.5 195.719,892.715 
		199.25,888.25 202.5,884 205.75,880.25 209,875.5 212,871.75 215,868.25 217.5,864.75 218,862 216.75,857.5 215,854.25 211.75,851 
		209.5,846.75 207.75,844.25 206.25,842.5 204.5,839.25 204.75,835 206.25,832.5 207.75,828.25 207.25,825 203.25,822.5 
		199.5,820.75 195.25,820.25 191.75,819 186.75,817.75 182,816 176.25,815.25 172,814.25 168,812.5 162.5,810.5 155.991,810.022 
		150.513,811.22 145.5,814.25 141,818.5 136.5,822.75 132.25,827.75 129,832.25 126,837.75 	"/>
	<polygon fill="#00FF00" stroke="#800080" points="229.485,1024 231.621,1017.233 232.45,1009.771 229.548,1003.969 
		225.817,1001.066 220.843,996.508 217.537,989.219 216.903,979.279 220.392,973.041 225.817,969.977 232.45,966.661 
		239.497,965.004 248.202,964.59 255.663,964.175 262.71,963.76 270.172,965.419 277.805,969.974 283.436,976.609 289.24,984.071 
		294.214,991.947 297.53,999.408 300.017,1007.284 301.676,1015.16 300.961,1024 	"/>
	<polygon fill="#00FF00" stroke="#800080" points="869.552,273.511 872.21,277.601 875.687,281.486 878.958,284.758 
		883.865,285.985 888.773,285.985 893.476,285.371 898.383,283.94 903.494,281.486 907.993,279.032 912.287,276.374 
		917.195,273.511 921.693,270.853 925.782,268.4 929.054,265.537 932.735,261.652 936.824,258.789 941.118,257.154 945.207,255.313 
		949.297,252.86 953.182,249.997 953.591,245.907 951.955,241.818 949.297,238.751 946.843,234.661 944.185,229.959 
		942.345,226.891 939.073,224.234 936.006,221.984 932.325,220.144 929.054,218.099 925.578,216.054 921.284,214.214 
		917.604,213.192 913.514,212.578 909.016,213.805 905.131,214.419 900.837,216.464 896.951,217.486 893.476,219.735 
		889.591,221.575 886.319,223.415 883.047,227.505 879.366,231.39 876.913,235.479 874.255,240.387 871.801,244.885 
		869.961,250.406 868.53,255.109 867.712,260.425 867.507,266.151 867.916,270.24 	"/>
	<polygon fill="#00FF00" stroke="#800080" points="879.776,288.234 878.958,292.937 879.572,297.026 881.003,301.729 
		883.456,306.023 886.933,310.317 890.408,313.589 893.68,316.656 897.565,319.109 901.859,321.563 906.971,324.426 
		912.901,326.879 918.421,328.106 922.92,329.333 928.237,329.537 932.939,329.129 938.46,328.106 943.777,326.675 949.706,325.448 
		954.614,323.403 959.725,321.359 963.611,318.905 967.699,315.633 971.176,311.953 974.448,308.272 977.31,303.978 
		979.764,299.275 981.4,295.39 982.217,291.096 982.217,285.78 981.604,281.077 980.581,276.17 978.946,271.262 977.086,267.573 
		974.182,263.885 970.154,260.63 965.941,257.605 961.975,255.109 958.249,253.132 953.069,252.661 948.359,254.78 944.356,257.213 
		937.841,259.411 934.074,262.158 931.013,265.297 926.617,268.908 922.458,271.655 918.298,274.088 913.667,276.757 
		908.095,280.21 903.464,282.879 898.519,284.998 893.574,286.41 888.473,287.196 882.822,287.196 	"/>
</g>
</svg>
