<?xml version="1.0" encoding="utf-8"?>
<!-- Generator: Adobe Illustrator 16.0.5, SVG Export Plug-In . SVG Version: 6.00 Build 0)  -->
<!DOCTYPE svg PUBLIC "-//W3C//DTD SVG 1.1//EN" "http://www.w3.org/Graphics/SVG/1.1/DTD/svg11.dtd">
<svg version="1.1" id="Layer_1" xmlns="http://www.w3.org/2000/svg" xmlns:xlink="http://www.w3.org/1999/xlink" x="0px" y="0px"
	 width="1280px" height="1024px" viewBox="0 0 1280 1024" enable-background="new 0 0 1280 1024" xml:space="preserve">
<g id="Raw_image">
	
		<image overflow="visible" enable-background="new    " width="1280" height="1024" xlink:href="Neuroblastoma_14.jpg"  transform="matrix(1 0 0 1 0 2.441406e-004)">
	</image>
</g>
<g id="test">
</g>
<g id="test2">
</g>
<g id="Single_nuclei" opacity="0.5">
	<polygon fill="#00FF00" stroke="#800080" points="211.973,0 208.654,6.152 205.45,11.417 201,16 196,21 191,26 186,31 181,36 
		176,41 171,46 164,49 156.469,49.983 150,49 142.05,45.864 137.243,42.43 130.834,37.853 125.684,33.618 119.848,30.071 
		114.355,25.607 107.831,21.717 104.512,15.994 104.055,8.098 105.771,0 	"/>
	<polygon fill="#00FF00" stroke="#800080" points="450.225,5.092 463.834,5.333 474.667,8.166 485.334,15.333 490.141,24.831 
		492.334,34.042 493.504,41.791 493.212,49.394 491.018,58.898 487.51,65.916 483.563,71.18 479.614,75.859 475.228,79.952 
		470.257,83.9 461.923,87.117 453,88 444,87 434.873,84.485 429.025,81.707 423,78 419,72 415,66 414,57 413.088,47.201 
		412.795,35.797 415.281,26.293 419.96,19.421 427.124,12.841 435.166,8.309 	"/>
	<polygon fill="#00FF00" stroke="#800080" points="575.823,98.96 568,100 558,100 548,100 538,100 531,97 524,94 519,89 515,83 
		512.221,74.835 511.052,66.209 510,58 510,48 511,39 514,32 518.947,26 524.211,21.176 528,16 534,11 540,8 549,6 559,6 569,6 
		578,7 585,10 592,13 597,18 600.533,23.515 603.604,29.217 605.504,37.551 605.943,45.885 606.82,54.658 605,64 604,73 601,80 
		598,87 593,92 587,95 581.672,97.498 	"/>
	<polygon fill="#00FF00" stroke="#800080" points="1162,116 1152,116 1142,116 1133,115 1127,111 1121,107 1116,102 1111,97 
		1110,88 1106,82 1106,72 1106,62 1109,55 1111,47 1115,41 1119,35 1123,29 1130,26 1145.658,21.999 1160.313,21.436 
		1178.912,22.563 1188.777,25.099 1193.285,29.89 1196,37 1199,44 1200,53 1200,63 1200,73 1200,82 1196,89 1193,96 1188,101 
		1183,106 1178,111 1170,112 1163,115 	"/>
	<polygon fill="#00FF00" stroke="#800080" points="1280,116.993 1274.414,120.05 1267.834,121.834 1260.265,122.993 
		1252.568,122.654 1244.645,119.597 1238.191,113.824 1231.834,102.5 1226.5,93.167 1221.834,80.417 1218,71 1218,61 1222,54 
		1228,51 1236.38,49.301 1243.059,47.49 1250.983,45 1260,42 1268.641,39.793 1280,39.793 	"/>
	<polygon fill="#00FF00" stroke="#800080" points="746.967,176.989 743.663,173.985 739.308,170.681 734.802,166.776 
		729.996,161.82 725.341,157.315 722.037,151.758 720.084,145.451 719.184,136.74 720.385,130.583 723.088,122.475 725.942,117.067 
		728.795,111.061 732.85,105.955 736.905,100.699 742.161,95.743 748,91 754,87 760,84 767,81 776.252,78.773 785,78 795,78 804,79 
		812.295,81.326 819.354,84.329 826,87 833,90 838.126,94.241 844.133,99.798 848,105 851,112 852,121 850.891,128.633 848,137 
		845,144 841.43,149.057 837.074,152.361 831.367,156.566 824.91,159.419 817.852,161.822 809.442,164.525 801.332,166.628 
		791.571,167.679 783.01,172.034 775.05,175.489 765.589,178.642 759.131,179.994 752,180 	"/>
	<polygon fill="#00FF00" stroke="#800080" points="1214,224 1204,224 1194,224 1185,223 1178,220 1171,217 1166,212 1161,207 
		1158,200 1158,190 1158,180 1160,172 1163,164 1166,158 1171,153 1176,148 1182,143 1188,140 1197,138 1206,139 1213,142 
		1221.25,145.25 1227,148 1232,153 1235,160 1237.25,167.25 1240,175 1242.25,185.75 1242,195 1238,203 1235,210 1230,215 1225,219 
		1218,223 	"/>
	<polygon fill="#00FF00" stroke="#800080" points="214,220 204,220 194,220 184,220 178,216 169,215 164,210 159,205 154,200 
		150,194 150,184 151,175 155,168 158,162 163,157 168,152 175,149 182,146 189,142 199,142 208,143 214,147 221,150 226,155 
		231,160 235,166 239,172 240,181 239,190 235,196 232,202 228,209 223,214 218,219 	"/>
	<polygon fill="#00FF00" stroke="#800080" points="654.814,284.596 648.258,284.764 640.527,281.571 634.307,278.04 
		627.752,274.343 622,269 617,264 614.472,257.197 613.128,249.801 611.111,241.229 610.606,233.328 610.943,222.739 
		611.279,212.149 610.438,200.719 611.783,188.952 616.994,181.22 624,174 628.5,168.5 636,168 644,168 652,166 660,164 668,162 
		676,160 684,158 692,156 700,154 710,154 719,155 725,159 730,164 732.65,170.392 735.474,176.51 738.925,182.472 741.749,190.473 
		744.73,201.926 746.927,209.77 747.936,217.865 746.098,226.767 737.514,233.16 729.782,235.01 721.714,236.186 714.486,238.876 
		708.099,242.406 700.702,245.767 694.146,249.297 689.273,252.491 683.894,257.87 679.355,262.408 673.64,267.451 669.27,272.493 
		664.563,277.032 660.193,281.906 	"/>
	<polygon fill="#00FF00" stroke="#800080" points="863.961,274.247 858.157,273.306 852,270 847,265 839.959,259.97 
		836.194,257.147 831.488,254.48 822.412,253.172 813.446,251.656 811.249,248.521 814.543,243.814 817.838,240.517 819.407,235.97 
		820.819,228.91 821.447,219.654 821.485,211.51 819.721,199.886 813.132,189.846 810.935,183.881 816.166,179.49 822.712,175.392 
		826.609,172.952 837.627,167.443 846.313,165.324 855.424,164.053 862.416,164.477 871.526,165.324 877,166 886,167 892,171 
		898,175 901,182 906,187 908,195 908,205 911,212 912,221 911,230 908,237 905,244 902,251 897,256 892,261 886,264 880,269 
		874,272 869.61,273.149 	"/>
	<polygon fill="#00FF00" stroke="#800080" points="571.273,274.846 564,276 555.304,274.174 546.9,270.476 541.689,266.274 
		536.814,259.886 532.444,254.003 528.41,248.961 522.191,244.59 515.299,239.211 512.946,234.001 509.92,226.941 509.416,218.872 
		512.273,212.149 516.307,207.274 519.837,202.736 524.208,197.693 528.746,192.819 532,188 537,183 542,178 550.261,175.337 
		559,174 568,175 575.307,176.514 585,178 591.948,180.716 599.488,184.353 602.874,190.634 605.059,197.189 605.899,204.921 
		605.395,213.325 604.386,221.898 604.219,231.479 604.722,239.884 605.731,248.12 605.395,255.012 602.705,260.559 596.99,266.106 
		588.25,269.132 580,273 	"/>
	<polygon fill="#00FF00" stroke="#800080" points="410,260 400,260 390,260 380,260 370,260 363,257 358,252 353,247 350,240 
		346,234 346,224 348,216 351,209 355,203 359,197 364,192 370,187 376,184 383,181 391,178 401,178 411,178 419,180 426,183 
		431,188 432,197 435,204 436,213 435,222 432,229 431,238 426,243 423,250 418,255 413,259 	"/>
	<polygon fill="#00FF00" stroke="#800080" points="726,376 716,376 707,375 700,372 694,368 689,363 683,359 677,355 
		671.265,350.073 668.571,343.573 666.51,335.176 664.609,325.823 662.706,318.376 659.696,310.611 657.952,302.528 659,293 
		661.873,284.764 665.572,279.553 669.102,274.174 674.481,270.308 679.523,265.433 685.239,259.886 690.113,255.684 
		698.349,249.633 704.569,246.103 710.956,243.414 716.671,241.06 722.386,239.38 730.958,237.531 738.691,235.85 744.91,236.354 
		751.466,239.884 756.34,243.414 762.56,247.616 769.115,250.81 775.166,254.639 780.03,258.875 783.323,262.013 785.364,266.092 
		784.422,272.367 784,279 785.048,287.738 786.775,295.582 788.5,303.74 792.422,311.898 794.461,318.016 794.618,325.861 792,333 
		787,338 782,343 775,346 770,351 763,354 758,359 751,362 746,367 739,370 732,373 	"/>
	<polygon fill="#00FF00" stroke="#800080" points="482,328 472,328 462,328 455,325 447,323 441,319 436,314 431,309 427,303 
		423,297 420,290 418,282 418,272 419,263 423,257 428,252 433,247 440,243 446,239 455,238 463,237 471,234 480,235 486,239 
		493,242 500,245 505,250 508,257 511,264 512,273 512,283 510,291 508,298 504,305 500,310 496,317 491,322 486,327 	"/>
	<polygon fill="#00FF00" stroke="#800080" points="821.446,335.588 814.073,334.803 805.914,332.136 802.463,328.842 
		797.756,322.877 795.873,316.759 793.206,309.858 789.598,302.173 788.343,294.327 786.766,285.314 788.343,278.17 
		790.383,271.108 793.364,265.619 798.54,260.912 807.64,259.03 814.229,256.677 822,255 829.917,256.363 836.507,259.344 
		842.782,264.05 848.901,269.07 854.235,272.678 859,278 863.5,287 863.5,297.5 859,306 854,311 849.842,316.286 846,323 841,328 
		835,331 827,334 	"/>
	<polygon fill="#00FF00" stroke="#800080" points="621.364,394.863 616,396 606,396 598.168,395.702 589.091,394.023 
		582.703,391.163 577.661,386.795 573.795,381.246 569.425,375.867 565.054,369.986 559.339,364.943 554.128,360.74 
		549.926,355.194 545.387,347.966 542,340 540.849,329.812 542,320 544,312 547,305 551,299 555,293 560,288 565,283 572,279 
		578,275 584,272 593,270 603,270 613.296,271.485 620.86,275.183 626.743,281.402 632.794,285.436 639.854,289.135 
		646.913,291.992 652.124,296.194 653.806,301.069 655.99,307.622 658.344,313.172 660.698,321.742 663.218,328.468 
		664.563,337.376 665.74,345.109 667.084,353.177 666.076,360.405 664.227,367.801 661.705,373.684 659,378 654,383 649,388 
		641.703,390.491 634,392 627.583,393.687 	"/>
	<polygon fill="#00FF00" stroke="#800080" points="1066,360 1057,359 1050,356 1041,355 1035,351 1029,347 1024,342 1021,335 
		1018,328 1014,322 1014,312 1015,303 1019,296 1022,290 1027,285 1032,280 1039,277 1047,274 1056,275 1063,278 1071,280 1078,283 
		1085,286 1092,289 1099,292 1104,297 1107,304 1108,313 1108,323 1107,332 1104,338 1100,345 1095,350 1088,353 1082,356 1072,357 
			"/>
	<polygon fill="#00FF00" stroke="#800080" points="0,284 5,279 14,278 23,279 30,282 36,286 41,291 45.443,298.14 48,304 
		52.25,312.017 53.821,320.527 53.559,330.607 51,338 47.406,343.567 42.039,349.589 38,355 33.006,359.537 26,363 17.558,365.951 
		8.168,365.501 0,362.834 	"/>
	<polygon fill="#00FF00" stroke="#800080" points="250,400 240,400 232,398 225,395 220,390 215,385 211,379 207,373 206,364 
		206,354 207,344 210,338 213,331 216,324 221,319 226,314 233,310 240,307 249,306 259,306 268,307 274,311 281,314 286,319 
		291,324 292,333 295,340 295,348 292,355 291,364 288,370 284,377 281,384 276,389 270,392 263,395 255,398 	"/>
	<polygon fill="#00FF00" stroke="#800080" points="542,444 532,444 522,444 513,443 507,439 501,435 496,430 491,425 487,419 
		483,413 482,404 482,394 483,385 487,379 491,372 494,366 499,361 507,358 514,355 523,354 533,354 540,357 547,360 554,363 
		559,368 564,373 567,380 572,385 575,392 579,398 579,406 575,412 572,418 568,425 563,430 558,435 553,439 546,443 	"/>
	<polygon fill="#00FF00" stroke="#800080" points="-0.095,398.287 5.586,394.137 12.797,392.608 20,394 29,395 34,400 39,405 
		42,412 43.387,416.862 44.917,424.947 44.698,433.25 41.202,439.805 37.925,446.142 34.429,452.04 30.059,457.068 25.907,461.001 
		20,467 13,471 7.334,473.454 0,475 	"/>
	<polygon fill="#00FF00" stroke="#800080" points="898,480 889,479 882,476 875,473 867,471 861,467 856,462 851,457 850,448 
		847,441 846,432 848,424 851,417 856,412 861,407 866,402 871,397 878,394 885,390 895,390 903,392 910,395 915,400 919,406 
		923,412 926,419 928,427 928,437 928,447 927,456 923,462 918,467 913,472 907,475 901,479 	"/>
	<polygon fill="#00FF00" stroke="#800080" points="420.166,534.127 411.032,534.313 403,531 398.915,525.365 395.373,519.773 
		391.086,512.503 388,506 385,499 380,494 375,489 368,486 361,483 352,482 344,484 337,487 332,482 329,475 326,468 323,461 
		320,454 318,446 318,436 319,427 323,421 328,416 334,411 340,408 347,405 355,402 365,402 375,402 385,402 394,403 401,406 
		408,409 416,411 422,415 429,418 434,423 439,428 443,434 447,440 448,449 451,456 452,465 452,475 451.11,483.237 449,492 
		447,500 444,506 440,513 435,518 431,524 427,530 	"/>
	<polygon fill="#00FF00" stroke="#800080" points="214,504 204,504 195,503 188,500 180,498 175,493 170,488 165,483 162,476 
		157,471 154,464 154,454 155,445 159,439 163,433 167,427 171,421 178,418 185,414 192,411 201,410 211,410 219,412 224,417 
		229,422 234,427 239,432 242,439 244,447 244,457 244,467 243,476 240,482 236,489 231,494 226,499 219,502 	"/>
	<polygon fill="#00FF00" stroke="#800080" points="142.288,554.439 134.28,556.352 126.152,555.515 118.621,552.646 
		109.896,548.941 103.322,544.399 98.54,539.857 93.161,534.118 89.337,528.98 84.795,523.481 81.448,517.385 78.5,507 77.5,498.5 
		78,489 79,480 82,473 86,466 91,461 96,456 104,454 112,452 120,450 129,451 136,454 143,457 148,462 153,467 155.915,472.805 
		159.979,479.02 164,486 165.012,492.117 165.012,502.117 164.162,510.218 164,518 163,527 160.935,534.118 157.588,540.694 
		154,547 148,551 	"/>
	<polygon fill="#00FF00" stroke="#800080" points="-0.031,495.858 8.427,489.406 13.452,481.538 18.915,476.296 23.94,470.397 
		28.966,466.464 35.303,463.621 44,462 54,462 59.5,464.5 65.75,473 68.5,480.25 70.5,486.25 72,493 73.75,499.75 74.75,508.75 
		77.75,518 80.75,525 81.75,533.75 80.75,542 79.25,548.25 74.5,554 69.75,559.75 63.25,564 58.25,566 54.25,570 49,576 44,581 
		37,584 27,584 19,582 14,577 11,570 7,564 3,558 0,548.891 	"/>
	<polygon fill="#00FF00" stroke="#800080" points="679.948,543.383 671.808,543.944 663.948,543.803 656.791,543.523 
		647.669,541.839 641,539 636,534 631,529 626,524 622,518 618,512 614,506 612.304,495.948 616,488 621,483 626,478 631,473 
		638,470 645,466 652,463 661,462 671,462 679,464 686,467 691,472 696,477 701,482 705.208,487.808 709,494 710.962,502.263 
		712,511 711,520 708,526 703.243,531.031 698.331,535.384 693.56,538.891 686.823,541.558 	"/>
	<polygon fill="#00FF00" stroke="#800080" points="1000.399,548.18 984.067,544.551 974.087,537.293 967.131,528.823 955.335,507 
		949.285,491.926 950,482 955,477 960,472 967,469 974,466 981,462 991,462 999,464 1006,467 1011,472 1016,477 1021,482 1024,489 
		1027,496 1028,505 1028,515 1028,525 1025,532 1020,537 1015,542 1010,547 	"/>
	<polygon fill="#00FF00" stroke="#800080" points="1256.051,527.99 1253.415,537.335 1247.666,544.281 1240.72,545.239 1235,546 
		1227,544 1219,542 1212,539 1206,535 1200,531 1193,528 1186,525 1181,520 1176,515 1174,507 1174,497 1176,488 1179,482 1184,476 
		1191,473 1198,470 1208,470 1218,470 1227,471 1233,475 1239,479 1245.031,484.872 1250.781,491.821 1256.051,503.078 
		1257.729,516.015 	"/>
	<polygon fill="#00FF00" stroke="#800080" points="370.767,571.407 364.243,571.034 357.719,570.477 347,569 340,566 335,561 
		330,556 325,551 322,544 318,538 318,528 319,519 322,512 324,504 327,497 331.994,492.741 337.773,489.2 344.297,486.406 
		352.685,483.982 362,483 369,486 374.495,490.88 378.969,495.726 384.189,502.251 387.172,509.148 390.154,515.3 393.323,520.891 
		398.17,528.16 402.084,533.009 404,541 402.448,551.063 399.086,557.706 394.162,561.772 388.378,565.054 382,568 377.435,570.214 
			"/>
	<polygon fill="#00FF00" stroke="#800080" points="526,584 516,584 508,582 501,579 495,575 489,571 484,566 479,561 474,556 
		469,551 466,544 466,534 467,525 471,519 475,513 479,507 483,501 490.223,496.607 497,494 504,491 513,490 522,491 
		529.612,493.131 536,497 541.553,499.991 548,505 551.89,511.043 555,518 557,526 558.306,533.678 557.594,540.896 556,549 
		556,558 552,565 547,570 542,575 537,579 530,583 	"/>
	<polygon fill="#00FF00" stroke="#800080" points="695.525,631.657 688.929,629.835 683,627 677,623 672,618 667,613 
		664.089,603.592 664.23,593.066 666,584 668,576 671,568 674,562 678.263,556.997 683.596,553.069 689.209,550.12 696.366,547.736 
		705.489,545.91 712.646,545.632 719,548 724,553 728.645,558.543 732,565 736.083,571.875 738.749,579.451 740,587 739,596 
		736.784,604.433 733.136,610.747 729.206,617.202 725.417,621.412 718,624 711,627 703,630 	"/>
	<polygon fill="#00FF00" stroke="#800080" points="101.264,632.92 94.857,633.14 90,632 81,631 75,627 69,623 64,618 
		61.719,612.375 60.836,604.863 61.719,598.899 63.708,593.155 65.696,587.409 69.01,580.342 72.765,575.26 77.846,570.4 
		82.927,565.541 89.334,561.343 94.636,557.365 102.724,553.125 110.733,553.603 118.143,555.755 127.825,558.025 136.073,559.22 
		143.843,560.655 148.265,564.599 152.074,568.41 156,573 159,580 160,589 156.051,598.677 151.191,603.98 146.773,609.061 
		142.133,614.142 137.273,618.56 132.855,622.978 127.111,626.513 122.03,629.606 114,632 108.554,632.478 	"/>
	<polygon fill="#00FF00" stroke="#800080" points="660.549,718.259 650.549,718.259 640.549,718.259 631.549,717.259 
		626.549,712.259 619.549,709.259 614.549,704.259 611.549,697.259 606.549,692.259 604.549,684.259 604.549,674.259 
		604.549,664.259 607.549,657.259 612.549,652.259 615.549,645.259 620.549,640.259 625.549,635.259 630.549,630.259 
		636.549,625.259 642.549,622.259 651.549,620.259 660.549,621.259 667.549,624.259 674.549,627.259 677.549,634.259 
		681.549,640.259 685.549,646.259 688.549,653.259 690.549,661.259 692.549,669.259 694.549,677.259 693.549,686.259 
		690.549,692.259 686.549,699.259 683.549,706.259 677.549,709.259 671.549,713.259 664.549,717.259 	"/>
	<polygon fill="#00FF00" stroke="#800080" points="302,720 293,719 287,715 281,711 278,704 273,699 268,694 263,689 260,682 
		255,677 251,671 250,662 251,653 256,648 261,643 268,639 274,635 280,632 289,630 299,630 309,630 318,631 325,634 332,637 
		339,640 343,646 347,652 348,661 347,670 343,676 340,682 336,689 333,696 330,703 325,708 319,711 313,715 306,719 	"/>
	<polygon fill="#00FF00" stroke="#800080" points="1218,772 1208,772 1202,768 1193,767 1187,763 1181,759 1178,752 1174,746 
		1174,736 1170,730 1173,723 1175,715 1179,708 1182,702 1187,697 1194,694 1201,690 1211,690 1221,690 1230,691 1236,695 1242,699 
		1248,703 1254,707 1259,712 1260,721 1257,728 1255,736 1252,742 1248,749 1245,756 1240,761 1234,764 1227,767 1221,771 	"/>
	<polygon fill="#00FF00" stroke="#800080" points="352,812 343,811 337,807 332,802 327,797 322,792 318,786 318,776 314,770 
		315,761 318,754 319,744 322,738 327,732 330,726 335,721 340,716 346,711 352,708 361,706 371,706 381,706 388,709 396,711 
		403,714 412,715 418,719 421,726 424,733 427,740 428,749 431,756 432,765 432,775 431,784 431.353,791.705 428.184,799.101 
		423.959,803.324 415.861,805.262 405.298,806.319 395.263,807.903 385.581,807.903 374.666,807.903 365,807 358,810 	"/>
	<polygon fill="#00FF00" stroke="#800080" points="999.79,789.82 990.553,788.75 982.826,785.615 977.553,781.75 972.553,776.75 
		968.414,769.853 964.362,765.35 959.553,759.75 958.206,753.038 957.606,742.829 959.858,733.674 962.409,726.767 966.763,720.463 
		971.717,713.406 976.972,709.201 983.427,705.6 990.333,703.348 1002.643,703.198 1011.5,704.849 1019.007,707.7 1025.553,712.75 
		1030.553,717.75 1033.553,724.75 1037.172,731.271 1038.553,739.75 1038.553,749.75 1037.553,758.75 1036.271,765.5 
		1031.768,771.805 1026.663,777.059 1019.553,779.75 1013.152,784.416 1006.847,788.019 	"/>
	<polygon fill="#00FF00" stroke="#800080" points="0,728 3,722 8,716 16,714 23,711 32,710 42,710 50,712 57,715 62,720 67,725 
		71,731 73,739 76,746 77,755 80,762 80,772 78,779 73,784 66,788 58,787 51,784 41,784 31.502,788 22.502,786.168 17.305,780.439 
		9,776 0,769.168 	"/>
	<polygon fill="#00FF00" stroke="#800080" points="134,852 124,852 114,852 107,849 100,846 95,841 90,836 86,830 83,823 82,814 
		82,804 84,796 87,789 92,784 97,779 102,774 109,770 116,767 125,766 134,767 141,770 146,775 151,780 154,787 159,792 162,799 
		165,806 168,813 167,822 163,828 159,834 154,839 149,844 143,847 137,851 	"/>
	<polygon fill="#00FF00" stroke="#800080" points="415.86,907.368 408,908 398,908 388,908 381.355,905.609 373,903 367,899 
		361,895 355,891 349,887 344,882 340.865,877.09 338,868 335,861 334,852 335,843 338,836 341.603,828.199 348.698,821.401 
		355.498,819.924 361.706,818.149 369.096,815.193 379.147,813.716 390.085,812.827 402.833,810.544 413.22,809.488 421.67,810.544 
		431.177,813.713 437.514,818.992 440.932,826.427 443.888,834.703 444.776,842.686 444.48,850.075 443.593,856.579 443,864 
		441.739,871.104 439.098,879.378 437,887 434,895 430.12,899.8 424,905 	"/>
	<polygon fill="#00FF00" stroke="#800080" points="1276.499,860.966 1274,867 1269,872 1260.903,876.826 1252.371,879.094 
		1244.906,880.96 1237.708,883.491 1231.576,886.426 1224.378,890.559 1217,891 1211.448,886.56 1206.248,882.825 1201.183,878.295 
		1195.718,873.63 1190.119,869.763 1186.119,863.898 1183,856 1181.188,848.835 1181.854,842.17 1183,836 1187,829 1192,824 
		1199.583,819.108 1205.448,815.907 1209.98,812.177 1216,808 1224,806 1234,806 1242,808 1249,811 1254,816 1259,821 1264,826 
		1269,831 1274,836 1277,843 1277.832,849.901 1278.099,856.166 	"/>
	<polygon fill="#00FF00" stroke="#800080" points="1056.403,933.823 1049.009,934.809 1040.63,934.809 1030.938,934.645 
		1021.901,933.988 1010.564,934.973 1001.198,934.973 990.027,933.988 981.155,930.536 976,924 970,920 966,914 964,906 
		964.068,898.5 965.217,888.313 966.531,881.247 966,872 966,862 969,855 972,848 975,841 980,836 985,831 990,826 995,821 
		1003,818 1013,818 1023,818 1032.251,819.307 1040,821 1046.381,824.237 1054,827 1059,832 1064,837 1069,842 1074,847 1079,852 
		1084,857 1087,864 1091,870 1093.698,879.277 1092.548,888.313 1089.262,895.378 1087,904 1086.469,911.315 1082.691,918.544 
		1078.419,923.966 1071.847,928.073 1065.111,931.688 	"/>
	<polygon fill="#00FF00" stroke="#800080" points="0,824.168 2.835,820.502 14,822 22,824 29,827 35,831 41,835 44,842 48,848 
		51,855 52,864 52,874 52,884 50,891 47,898 42,903 37,908 32,913 25,916 15.835,918.168 6.168,921.502 0,921.502 	"/>
	<polygon fill="#00FF00" stroke="#800080" points="482.23,926.383 473.427,927.614 465.506,927.087 455.999,925.502 
		448.253,921.804 443.323,915.468 440,910 437.866,904.024 438.395,897.335 438.395,888.885 440.155,880.081 442.972,871.633 
		445.085,864.412 448.641,858.352 453.359,853.147 455.938,848.816 460.938,843.816 467.618,841.881 477.477,841.352 
		485.927,843.287 492.793,847.16 498.954,851.211 504.412,854.732 508.285,859.837 511.982,864.412 514.447,870.752 
		515.503,876.737 515.679,885.011 514.623,893.284 513.567,899.271 511,906 506,911 501,916 495,919 489,923 	"/>
	<polygon fill="#00FF00" stroke="#800080" points="1279.832,941.744 1275.033,948.545 1268.501,952.544 1261.969,955.741 
		1253.305,958.407 1243.84,957.875 1234.109,954.677 1223.855,949.654 1217.742,944.439 1213.785,938.323 1211,930 
		1210.648,923.218 1210.381,916.284 1211.314,909.353 1213.18,903.221 1215.58,897.091 1221.045,893.225 1227.177,891.092 
		1233.176,887.759 1240.108,884.426 1249.439,881.627 1259.438,878.694 1267.436,877.361 1280.232,881.094 	"/>
	<polygon fill="#00FF00" stroke="#800080" points="1158.758,1021.047 1151.385,1022.125 1141.314,1022.305 1132.323,1022.305 
		1121.532,1021.765 1115,1017 1108,1014 1103,1009 1100,1002 1096.357,995.69 1094,988 1094,978 1095.637,967.817 1099.054,959.365 
		1102.471,952.531 1105.707,945.517 1107,940 1110,934 1115,929 1120,924 1127,921 1135,918 1145,918 1155,918 1165,918 1172,921 
		1181,922 1188.07,923.037 1195.623,925.916 1202,931 1205.694,937.244 1208,945 1208,955 1207,964 1204,970 1200,977 1197,984 
		1192,989 1189,996 1184,1001 1179,1006 1174,1011 1169,1016 1163,1019 	"/>
	<polygon fill="#00FF00" stroke="#800080" points="805.032,1002.574 794.013,1003.396 786.067,1001.729 776.424,996.773 
		770.582,990.931 765.173,985.305 761.279,979.031 760.696,971.19 760.63,960.856 763,952 767,945 772,940 777,935 782,930 788,927 
		798,926 808,926 818,926 827,927 833,931 836,938 840,944 843.281,955.447 842.632,966.698 839.387,978.166 834.242,985.811 
		824.844,993.009 815.023,998.765 	"/>
	<polygon fill="#00FF00" stroke="#800080" points="647.371,1015.546 634.142,1016.27 622.894,1014.5 615.84,1012.646 
		610.584,1007.39 604.604,1001.952 601.704,995.068 599.167,989.812 595.644,982 595.644,972 597.644,964 600.644,957 605.644,952 
		610.644,947 615.644,942 622.644,938 629.644,935 638.644,934 648.645,934 657.7,936.353 662.956,940.34 668.031,943.601 
		673.645,949 676.645,956 677.645,965 677.645,975 674.916,985.824 671.112,994.886 664.395,1003.396 658.895,1009.25 	"/>
	<polygon fill="#00FF00" stroke="#800080" points="227.339,1024 222.645,1019.184 217.385,1014.247 213,1008 210,1001 210,991 
		211,982 214.5,974.834 219,969 224,964 229,959 236,955 242.667,952 250,950 260,950 267,953 272,958 277,963 280,970 
		283.667,976.666 285.834,981.5 289.5,987.5 292.834,994.834 296,1004 296,1014 291.592,1024 	"/>
	<polygon fill="#00FF00" stroke="#800080" points="708.203,1024 703,1018 701.129,1012.135 701.129,1003.48 701.994,995.691 
		704,988 707,982 712,976 717.357,972.757 722.766,970.158 727.526,967.994 735.315,967.78 742,968 749,971 754,976 
		758.466,979.245 761.711,984.871 764.308,989.633 768.635,994.824 771.881,1000.884 772.097,1008.024 770,1015 765.173,1018.843 
		758.683,1024 	"/>
	<polygon fill="#00FF00" stroke="#800080" points="795.549,1024 797.073,1018.154 800.46,1012.143 806.218,1007.148 
		813.245,1002.237 820.188,998.004 827.723,992.5 833.989,988.097 842.539,984.627 850.413,984.881 858,986 864,990 869,995 
		874,1000 879,1005 884.111,1014.683 886.482,1024 	"/>
	<polygon fill="#00FF00" stroke="#800080" points="534.166,1023.964 531,1018 530,1009 532,1000 535,994 540,988 547,985 554,982 
		564,982 575,982.502 591.194,987.819 600.073,996.517 607.5,1010.502 611.832,1023.964 	"/>
	<polygon fill="#00FF00" stroke="#800080" points="933.257,582.962 920.856,577.82 908.154,567.839 898.476,546.365 
		901.198,529.731 905.13,517.634 914.678,507.269 920.555,501.603 929.324,499.184 939.306,499.184 947.472,501.302 952.39,505.821 
		957.39,510.821 959.569,516.726 963.198,522.775 969.55,531.546 975.232,543.093 978.321,556.948 975.813,563.91 972.813,570.91 
		966.39,575.821 952.009,580.844 	"/>
	<polygon fill="#00FF00" stroke="#800080" points="1280,190.808 1267.686,178.408 1264.021,165.988 1266.559,152.481 
		1272.477,146.281 1280,141.167 	"/>
	<polygon fill="#00FF00" stroke="#800080" points="1202.867,0 1197.514,12.418 1191.313,19.181 1181.168,21.436 1170.459,19.181 
		1160.877,19.181 1141.714,17.341 1132.413,17.341 1118.041,12.136 1103.412,0 	"/>
	<polygon fill="#00FF00" stroke="#800080" points="1279.778,0 1279.778,15.236 1274.73,27.636 1261.486,32.427 1247.24,34.681 
		1231.33,31.018 1222.313,18.054 1214.703,0 	"/>
	<polygon fill="#00FF00" stroke="#800080" points="768.576,244.912 761.36,239.735 754.573,234.675 752.029,228.039 
		752.732,220.909 754.771,216.83 754.771,212.594 754.457,207.26 751.32,203.652 749.907,198.161 750.871,191.107 754.175,187.052 
		760.783,184.049 767.842,180.594 776.552,179.694 784.813,178.943 790.5,179.279 799.5,180.279 805.5,184.279 809.994,189.375 
		814.743,193.927 817.71,198.8 819.407,207.417 820.5,217.279 819.407,228.126 817.367,239.422 807.641,247.736 794.619,250.09 
		782.539,250.09 	"/>
	<polygon fill="#00FF00" stroke="#800080" points="0,930.168 12.168,936.502 18.502,950 18.502,966.502 9.502,979.834 
		7.835,982.502 0,989.834 	"/>
</g>
</svg>
