<?xml version="1.0" encoding="utf-8"?>
<!-- Generator: Adobe Illustrator 16.0.1, SVG Export Plug-In . SVG Version: 6.00 Build 0)  -->
<!DOCTYPE svg PUBLIC "-//W3C//DTD SVG 1.1//EN" "http://www.w3.org/Graphics/SVG/1.1/DTD/svg11.dtd">
<svg version="1.1" id="Layer_1" xmlns="http://www.w3.org/2000/svg" xmlns:xlink="http://www.w3.org/1999/xlink" x="0px" y="0px"
	 width="1280px" height="1024px" viewBox="0 0 1280 1024" enable-background="new 0 0 1280 1024" xml:space="preserve">
<g id="Raw_image">
	
		<image overflow="visible" enable-background="new    " width="1280" height="1024" xlink:href="Neuroblastoma_5.jpg"  transform="matrix(1 0 0 1 2.441406e-004 -2.441406e-004)">
	</image>
</g>
<g id="Not_annotated" opacity="0.5">
	<polygon fill="#0000FF" stroke="#800080" points="1171,1023 1183,1022 1195,1022 1207,1022 	"/>
</g>
<g id="Clumps" display="none" opacity="0.5">
	<polygon display="inline" fill="#FF0000" stroke="#800080" points="373,581 363,579 355,575 350,568 343,563 340,554 339,547 
		334,540 328,534 324,526 318,520 314,512 311,503 318,497 317,489 324,485 328,479 333,475 340,469 348,466 356,464 365,466 
		373,464 381,464 390,467 399,470 403,476 410,477 416,483 420,491 422,501 425,510 423,519 418,527 414,534 408,540 403,548 
		400,557 398,566 393,574 385,578 376,580 	"/>
	<polygon display="inline" fill="#FF0000" stroke="#800080" points="553,391 543,389 535,385 529,379 523,373 520,364 517,355 
		513,347 508,340 499,337 489,335 478,334 467,335 458,334 451,329 444,324 440,316 435,309 431,301 430,290 430,280 433,270 
		436,262 441,255 446,248 454,243 463,240 472,238 481,234 491,236 499,240 505,246 509,254 513,262 518,269 523,276 529,282 
		537,286 549,286 559,284 568,287 577,290 584,295 589,302 593,310 597,318 600,327 601,336 600,347 595,354 593,363 588,370 
		582,377 576,383 568,387 560,390 	"/>
	<polygon display="inline" fill="#FF0000" stroke="#800080" points="830,417 818,417 809,414 802,409 795,404 789,398 782,393 
		773,390 767,384 763,376 757,373 750,377 743,372 733,374 726,371 719,366 713,360 708,353 704,345 701,336 701,324 703,314 
		707,306 712,299 718,293 724,287 732,282 743,281 753,283 763,285 771,289 778,294 782,302 789,307 798,304 807,302 819,301 
		828,304 834,310 841,315 850,318 858,322 863,329 867,337 871,345 875,353 876,364 875,375 873,385 869,392 863,399 857,404 
		849,409 841,413 833,416 	"/>
	<polygon display="inline" fill="#FF0000" stroke="#800080" points="916,1023 915,1013 917,1004 921,995 924,987 928,979 934,972 
		941,968 950,964 959,961 970,962 981,963 991,965 996,959 1000,950 1005,943 1011,938 1019,933 1027,929 1036,926 1047,925 
		1057,927 1066,930 1073,935 1078,942 1083,949 1087,957 1091,965 1093,975 1091,985 1088,994 1083,1001 1077,1007 1070,1012 
		1065,1018 1057,1023 	"/>
	<polygon display="inline" fill="#FF0000" stroke="#800080" points="1186,584 1175,583 1166,580 1158,576 1151,571 1147,563 
		1138,560 1132,554 1126,548 1120,542 1108,542 1098,542 1092,536 1087,529 1080,524 1074,518 1071,509 1069,501 1063,495 1059,487 
		1059,477 1059,469 1057,459 1058,448 1063,440 1069,434 1075,429 1083,424 1094,425 1105,426 1113,430 1122,431 1130,435 1136,441 
		1144,445 1152,449 1158,455 1159,466 1157,473 1154,483 1156,488 1164,483 1174,481 1183,484 1189,490 1198,493 1205,498 1212,503 
		1217,510 1221,518 1224,527 1227,536 1227,546 1223,554 1219,562 1215,570 1209,575 1200,579 1191,582 	"/>
</g>
<g id="Single_nuclei" opacity="0.5">
	<polygon fill="#00FF00" stroke="#800080" points="176,0 177.93,5.355 177.93,10.51 177.93,16.271 177,21 174,30 169,37 163,42 
		156,47 148,52 140,55 130,57 119.104,57.359 110.765,55.539 103,52 96,47 90,41 84,35 80,27 77,18 76.348,12.329 76.348,5.961 
		77,0 	"/>
	<polygon fill="#00FF00" stroke="#800080" points="158,558 148,558 137,557 130,552 122,548 115,543 110,536 106,528 100,522 
		98,512 96,502 97,491 101,483 106,476 113,470 121,466 129,463 136,458 145,454 156,453 165,456 174,459 181,464 188,469 193,476 
		197,484 199,494 199,504 198,515 197,524 194,533 190,540 184,546 177,551 168,555 159,557 	"/>
	<polygon fill="#00FF00" stroke="#800080" points="202.002,819.472 194.6,819.2 188,817 181.71,811.331 174,807 170,799 167,790 
		165,780 164,769 163.726,759.196 165,750 168,741 173,734 179,727 185,721 191,715 198,710 208,708 219,709 229,711 236,716 
		243,721 249,727 253,735 254,743 253.28,751.289 252.092,758.512 249.786,768.313 247,775 243.924,782.274 239.063,788.349 
		234,795 230,804 225,810 218,816 210,819 	"/>
	<polygon fill="#00FF00" stroke="#800080" points="493.096,194.827 484,194 476,190 469,185 462,180 457,173 449,169 442,164 
		438,156 435.38,148.1 435,139 434,128 431,119 429,109 428,100 431,91 432,82 437,74 443,68 449.084,62.283 455,57 464.361,53.297 
		475,52 484,55 493,58 501,62 506,69 509,78 512,87 515,96 519.176,103.394 526,109 535,112 542,117 548,123 553,130 557,138 
		560,147 560,156 557,166 554,174 548,181 542,187 534.677,189.886 526,190 516,190 506,193 498.713,193.729 	"/>
	<polygon fill="#00FF00" stroke="#800080" points="491,448 480,447 468,447 459,444 454,437 447.763,434.102 442.845,430.413 
		439,428 434.375,421.124 432,411 429,402 429,390 432,381 434,371 440,364 448,360 458.692,357.192 468.801,355.007 
		477.953,352.821 488.608,352.821 498.034,354.733 505,359 512,364 516,372 520.438,380.279 524,388 526.175,396.262 525,405 
		522,414 518,421 514,430 509,437 503.498,442.572 497.937,446.274 	"/>
	<polygon fill="#00FF00" stroke="#800080" points="505,621 495,619 486,616 479,611 473,605 469,597 466,588 465,577 465,565 
		468,556 471,547 474,538 480,531 487,527 496,523 506,521 514,525 524,525 533,528 540,533 544,541 547,550 549,560 557,564 
		561,572 561,582 559,592 555,599 549,605 542,611 533,614 524,617 515,619 	"/>
	<polygon fill="#00FF00" stroke="#800080" points="536.232,944.3 526.301,943.244 519.962,939.863 514,933 509,926 506,917 504,907 
		502,897 502.424,888.728 504.537,883.234 507.706,881.333 509.397,879.009 509.185,874.359 507.073,869.711 505.593,862.738 
		503,858 503,848 507,839 512,833 519,827 526,823 534.964,819.844 546,820 556,822 564,826 570,832 576,838 580,846 583,855 
		586,864 589,873 591,883 594,892 595,903 595,906.686 593.705,911.76 592.078,916.091 590,919 584,925 577,930 568.983,933.946 
		560,937 552.925,940.708 545.318,943.455 	"/>
	<polygon fill="#00FF00" stroke="#800080" points="746,658 735,657 725,655 717,651 710,646 703,641 698,634 695,625 692,616 
		693,605 696,596 700,587 703,578 707,571 714,565 723,562 735,562 745,560 756,559 765,562 775,564 781,570 786,577 790,585 
		794,593 796,603 794,613 792,623 788,630 782,637 776,643 767,645 762,652 753,655 	"/>
	<polygon fill="#00FF00" stroke="#800080" points="1042,630.148 1035.706,628.807 1027,626 1018.023,622.913 1012,619 1006,613 
		1000,607 996,599 995.066,590.649 995,580 995,568 997,558 999,548 1005,541 1012,536 1019,532 1029,530 1039,528 
		1047.805,527.672 1057,531 1063,537 1070,540 1077.587,541.011 1079.759,548.147 1077,555 1081,561 1085.032,567.692 1089,577 
		1091,587 1089,597 1085,604 1082,614 1076.346,619.81 1069,624 1060,627 1050,629 	"/>
	<polygon fill="#00FF00" stroke="#800080" points="392,588 380,588 368,588 356,588 349,583 342,578 336,572 330,566 324,560 
		321,551 318,542 316,532 312,524 308,516 306,506 307,494 311,487 315,479 320,472 329,468 337,465 348,463 359,462 370,461 
		380,461 390,463 399,466 407,470 415,474 420,481 424,489 427,498 430,507 430,519 427,527 421,534 417,541 413,549 408,557 
		405,566 404,577 399,584 	"/>
	<polygon fill="#00FF00" stroke="#800080" points="563,385 551.107,386.353 541.037,384.171 532,380 524.087,373.934 
		521.906,365.375 520,356 516,348 509.655,338.692 507.976,330.636 510.661,322.077 514.689,314.19 519,305 522,296 
		526.175,286.667 533.15,281.297 541,280 552,281 562,283 570,287 577,292 584,297 589,304 593,312 597.258,322.748 
		597.929,335.503 596.922,345.74 593.901,355.641 589.706,364.704 584,371 579,378 572,382 	"/>
	<polygon fill="#00FF00" stroke="#800080" points="496.397,331.811 488.341,333.657 479.111,333.657 469.137,333.797 
		459.979,331.643 451,329 444,324 438,318 434,310 430,302 428,292 427,281 430,271 434,263 438,256 444,249 451,244 460,241 
		470,239 479,237 489,238 497,242 504,247 510,253 514,261 518,269 522,277 522.745,286.835 520.731,295.729 517.71,305.295 
		513.514,313.686 508.983,321.909 502.774,328.958 	"/>
	<polygon fill="#00FF00" stroke="#800080" points="754.032,372.784 746.623,372.784 735,371 725,369 718,364 712,358 706,352 
		703,343 701,333 700,322 701,313 706,306 710.953,299 717.09,293.462 725,288 731.977,283.504 742.136,281.693 752.496,283 
		763,286 771,290 778,295 783,302 785,312 786,322 783.861,333.837 780.197,340.899 775,348 768.852,355.115 764.102,361.955 
		760,369 	"/>
	<polygon fill="#00FF00" stroke="#800080" points="833.776,412.657 826.036,413.631 815.968,413.631 807.038,412 798.11,406.791 
		791.27,400.142 785,394 775.311,392.352 767.332,386.463 764.102,377.724 765,366 768.643,357.235 774.353,350.594 
		778.868,344.884 784.048,337.048 786,327.088 787.66,314.839 791,307 798,302 807,299 816,300 826,302 834.016,305.91 841,311 
		848,316 855,321 860.424,326.238 866,334 869,343 872.583,352.456 874,361 873.153,371.834 871,382 867,390 862,397 856,403 
		849,408 840,411 	"/>
	<polygon fill="#00FF00" stroke="#800080" points="1020.075,1024 1017.822,1020.964 1015.977,1016.66 1014.747,1012.152 1014,1008 
		1012.409,1004.818 1010,1000 1006,992 1002,984 998.368,976.572 995.962,971.37 994.952,966.324 995.496,962.831 996.739,956.852 
		998.291,951.573 1003.259,944.353 1009.004,938.53 1017,934 1024.764,930.223 1034.236,927.428 1045,926 1055.251,925.75 1063,928 
		1070.667,932.5 1076,939 1081.001,945.833 1085.251,953.5 1088.667,962.833 1090,973 1089,984 1086,993 1082,1001 
		1071.251,1011.415 1065.565,1017.889 1059.008,1024 	"/>
	<polygon fill="#00FF00" stroke="#800080" points="914.956,1024 918,1012 921,1003 924,994 927,985 932,977 937,970 944,965 
		952,961 961,958 972,959 980.323,961.54 987.905,966.662 994.256,972.195 999,980 1003,988 1006.756,995.965 1011,1004 1014,1013 
		1016.182,1024 	"/>
	<polygon fill="#00FF00" stroke="#800080" points="1181,583 1169,583 1160,580 1153,575 1146,570 1140,564 1135.514,557.484 
		1131.684,550.302 1131.445,540.01 1132,531 1134,522 1137,512 1141,504 1145,497 1150.116,490.458 1158.255,485.671 
		1167.113,482.798 1177,481.5 1186,483 1193,488 1200,493 1206,499 1211,506 1217,512 1221,520 1225,528 1225,538 1223,548 
		1220,557 1215.946,564.665 1211,571 1203,575 1195,579 1186,582 	"/>
	<polygon fill="#00FF00" stroke="#800080" points="1116.604,543.84 1108.274,544.455 1101,543 1092,540 1085,535 1078,530 
		1072.694,524.193 1067,517 1064,508 1061,499 1058,490 1055,481 1052,472 1051,461 1051,449 1053,440 1058,434 1064,427 1071,422 
		1081,420 1091,418 1101.748,418 1114,419 1124.017,422.417 1132.194,426.765 1137.761,431.288 1144.198,435.464 1150.636,441.031 
		1156.029,448.164 1159.857,455.645 1162.466,466.78 1162.466,477.218 1158.639,483.655 1151.157,488.353 1145.416,493.92 
		1140.545,502.097 1135.152,513.057 1132.368,521.93 1130.281,532.25 1126.801,538.805 1122.104,542.113 	"/>
</g>
</svg>
