<?xml version="1.0" encoding="utf-8"?>
<!-- Generator: Adobe Illustrator 16.0.5, SVG Export Plug-In . SVG Version: 6.00 Build 0)  -->
<!DOCTYPE svg PUBLIC "-//W3C//DTD SVG 1.1//EN" "http://www.w3.org/Graphics/SVG/1.1/DTD/svg11.dtd">
<svg version="1.1" id="Layer_1" xmlns="http://www.w3.org/2000/svg" xmlns:xlink="http://www.w3.org/1999/xlink" x="0px" y="0px"
	 width="1280px" height="1024px" viewBox="0 0 1280 1024" enable-background="new 0 0 1280 1024" xml:space="preserve">
<g id="Raw_image">
	
		<image overflow="visible" enable-background="new    " width="1280" height="1024" xlink:href="Neuroblastoma_17.jpg"  transform="matrix(1 0 0 1 0 -2.441406e-004)">
	</image>
</g>
<g id="Not_annotated" display="none" opacity="0.5">
	<polygon display="inline" fill="#0000FF" stroke="#800080" points="1279,188 1275,182 1278,174 	"/>
</g>
<g id="Clumps" display="none" opacity="0.5">
	<polygon display="inline" fill="#FF0000" stroke="#800080" points="144,294 133,293 122,292 114,288 109,281 106,272 108,262 
		107,251 110,242 115,235 121,229 128,224 137,220 148,219 159,220 168,223 173,230 176,239 177,250 176,261 180,269 183,278 
		182,287 176,292 166,292 158,288 150,292 	"/>
	<polygon display="inline" fill="#FF0000" stroke="#800080" points="1279,525 1273,531 1264,535 1257,540 1260,549 1265,556 
		1268,565 1271,574 1270,585 1270,595 1265,602 1259,607 1252,612 1244,616 1234,618 1223,619 1217,613 1210,608 1203,603 1198,596 
		1195,587 1192,578 1191,567 1192,556 1193,544 1197,537 1204,532 1213,529 1224,527 1235,528 1242,524 1239,515 1240,504 1243,495 
		1252,491 1262,491 1271,494 1279,498 	"/>
</g>
<g id="Single_nuclei" opacity="0.5">
	<polygon fill="#00FF00" stroke="#800080" points="469,816 458,815 453.392,805.277 446.97,804.321 442.05,799.402 441.777,790.93 
		438,787 433.989,788.06 432,791 431.393,796.669 429,801 423.877,802.545 417.728,800.495 414,795 409,788 404.054,784.467 
		402,783 400.102,779.315 400,773 403.381,770.844 405,766 403.791,761.552 400,759 397,750 398.325,740.099 399.828,735.727 
		401.468,731.354 403.791,729.031 406,727 413,721 420,716 430,714 437,709 446,706 457,707 467,709 477,711 483,717 491,721 
		496,728 499,737 504,744 504,754 506,764 505,774 501,783 497,791 494,800 488,806 481,811 473,814 	"/>
	<polygon fill="#00FF00" stroke="#800080" points="449.472,1019.036 441.261,1017.847 433.513,1013.487 428.269,1008.352 
		423.269,1001.352 418.513,994.756 415.226,987.058 414.037,975.715 416.513,966.431 419,958 425,951 432,947 442,944 453,943 
		463,945 471,949 478,954 482,962 486,970 487,981 487,993 483.568,1002.541 478.568,1009.541 472.216,1014.001 464.729,1017.189 
		456.169,1018.063 	"/>
	<polygon fill="#00FF00" stroke="#800080" points="537,347 527,345 518,342 510,338 504,332 497,327 493,319 494,308 493,297 
		493,287 496,278 497,267 500,257 503,249 506,239 511.831,233.5 520,231 530,229 539,228 543.164,230.166 549.164,230.166 556,231 
		563,236 569,242 573,250 579,256 582,265 586,273 587,284 588,295 585,303 583,314 578,321 572,327 566,332 559,337 552,343 
		544,346 	"/>
	<polygon fill="#00FF00" stroke="#800080" points="817,238 807,236 798,233 794,225 790,217 789,206 790,195 790,183 795,175 
		803,171 812,168 816,161 824,156 835,155 843,157 851,161 858,166 863,173 865,183 866,194 864,204 860,211 855,218 849,225 
		843,231 835,232 825,232 818,237 	"/>
	<polygon fill="#00FF00" stroke="#800080" points="873.093,1024 867,1016 863,1008 862,997 865,987 869,979 875,974 881,968 
		889,963 898,960 909,961 918,964 924,970 929,977 933,985 937,993 939,1003 940,1014 938.68,1024 	"/>
	<polygon fill="#00FF00" stroke="#800080" points="1016,438 1005,437 996,434 990,428 984,422 980,414 977,405 978,394 981,384 
		984,376 988,368 994,361 1004,359 1015,358 1026,357 1038.737,356.718 1048,359 1055.642,364.146 1059.74,372.086 1064,379 
		1064,389 1063,400 1058,407 1052.313,411.786 1045.396,416.397 1037.456,421.52 1031,428 1026,434 1017,437 	"/>
	<polygon fill="#00FF00" stroke="#800080" points="1128,134 1116,134 1106,134 1096,132 1089,127 1083,121 1080,112 1077,103 
		1075,93 1074,85 1079,79 1084,72 1092,67 1099,62 1108,59 1119,58 1130,59 1139,62 1146,67 1149,76 1151,86 1148,95 1145,104 
		1141,112 1139,122 1135,129 	"/>
	<polygon fill="#00FF00" stroke="#800080" points="1170,655 1158,655 1148,653 1139,650 1132,645 1126,639 1122,631 1119,622 
		1121,611 1125,603 1130,596 1135,589 1141,584 1150,581 1162,580 1171,583 1179,587 1187,591 1193,597 1197,605 1199,615 
		1200.024,626.356 1196.836,635.923 1192.709,643.801 1185.394,649.427 1177,653 	"/>
	<polygon fill="#00FF00" stroke="#800080" points="1279.857,462 1271,466 1259,466 1251,462 1248,453 1250,442 1254,435 1262,430 
		1280.857,430.373 	"/>
	<polygon fill="#00FF00" stroke="#800080" points="144,295 132.788,295.528 121,294 114,289 109,282 106,273 106,263 105,252 
		108,243 113,235 119,229 126,224 134,220 144,218 154,216 162,220 169,225 174,232 177,241 178,252 178.221,258.905 
		176.301,264.662 180.211,266.513 182.968,271.026 184.18,274.056 184.786,278.299 184.281,283.955 182.261,288.803 176.806,292.44 
		171.958,293.854 166.604,293.248 160.948,288.702 158.322,289.914 148,294 	"/>
	<polygon fill="#00FF00" stroke="#800080" points="1280,521.639 1276.401,529.863 1272.427,533.882 1267.175,536.32 
		1259.484,536.883 1255.358,536.133 1250.106,532.007 1245.979,529.192 1243,525 1241,515 1241,505 1244,496 1253,492 1265,492 
		1273,496 1280,502.612 	"/>
	<polygon fill="#00FF00" stroke="#800080" points="1229.479,618.713 1222.706,617.744 1213,613 1207,607 1202,600 1197,593 
		1193,585 1191,575 1190,564 1190,552 1194,543 1198,536 1204,529 1214,527 1224,526 1235,526 1243,530 1250,535 1256,541 1261,548 
		1264.361,552.263 1266.425,556.39 1268.488,559.766 1270.176,563.893 1271.677,567.644 1273,572 1273.553,580.963 
		1272.989,584.339 1271,594 1266.987,601.408 1261.36,607.41 1254,612 1244.479,616.414 1235.851,618.289 	"/>
</g>
</svg>
