<?xml version="1.0" encoding="utf-8"?>
<!-- Generator: Adobe Illustrator 16.0.1, SVG Export Plug-In . SVG Version: 6.00 Build 0)  -->
<!DOCTYPE svg PUBLIC "-//W3C//DTD SVG 1.1//EN" "http://www.w3.org/Graphics/SVG/1.1/DTD/svg11.dtd">
<svg version="1.1" id="Layer_1" xmlns="http://www.w3.org/2000/svg" xmlns:xlink="http://www.w3.org/1999/xlink" x="0px" y="0px"
	 width="1280px" height="1024px" viewBox="0 0 1280 1024" enable-background="new 0 0 1280 1024" xml:space="preserve">
<g id="Raw_image">
	
		<image overflow="visible" enable-background="new    " width="1280" height="1024" xlink:href="Neuroblastoma_8.jpg"  transform="matrix(1 0 0 1 2.441406e-004 -2.441406e-004)">
	</image>
</g>
<g id="Not_annotated" opacity="0.5">
	<polygon fill="#0000FF" stroke="#800080" points="441,927 433,923 429,915 430,904 436,897 443,900 446,909 447,919 442,926 	"/>
	<polygon fill="#0000FF" stroke="#800080" points="595,89 589,83 591,75 599,70 599,67 596,60 604,55 604,46 602,38 608,35 611,42 
		610,52 608,61 608,68 611,72 618,69 616,75 609,79 602,78 598,87 	"/>
	<polygon fill="#0000FF" stroke="#800080" points="609,93 601,89 607,84 	"/>
	<polygon fill="#0000FF" stroke="#800080" points="619,36 614,29 610,26 620,26 628,30 621,34 	"/>
	<polygon fill="#0000FF" stroke="#800080" points="765,918 763,910 767,909 766,917 	"/>
	<polygon fill="#0000FF" stroke="#800080" points="844,1022 842,1016 851,1014 856,1008 851,1003 845,1009 842,1006 840,996 
		845,990 850,986 850,993 849,997 859,998 866,997 866,1003 860,1009 856,1016 849,1019 	"/>
	<polygon fill="#0000FF" stroke="#800080" points="877,998 869,994 862,989 855,990 863,985 874,986 884,984 891,979 897,974 
		904,975 903,968 909,967 909,974 903,980 895,984 888,989 882,995 	"/>
	<polygon fill="#0000FF" stroke="#800080" points="915,966 909,960 912,951 919,945 928,944 929,952 921,957 917,964 	"/>
	<polygon fill="#0000FF" stroke="#800080" points="934,946 935,940 941,935 946,928 951,920 949,928 944,935 938,941 	"/>
	<polygon fill="#0000FF" stroke="#800080" points="1143,996 1145,991 1152,987 1155,991 1147,994 	"/>
</g>
<g id="Clumps" display="none" opacity="0.5">
	<polygon display="inline" fill="#FF0000" stroke="#800080" points="0,486 5,480 14,476 24,478 35,479 46,480 54,484 61,489 66,496 
		70,491 75,483 77,474 81,465 87,460 95,456 103,452 112,448 116,440 123,435 134,434 143,437 151,441 161,443 169,447 175,453 
		180,460 187,465 190,474 197,479 200,488 203,497 208,504 209,513 207,523 202,530 199,539 198,547 195,557 189,563 183,569 
		178,575 169,577 163,582 156,585 148,589 139,592 127,592 118,589 108,589 99,586 93,580 86,575 81,568 78,559 71,561 67,568 
		59,572 51,576 41,578 31,580 23,582 14,583 4,581 	"/>
	<polygon display="inline" fill="#FF0000" stroke="#800080" points="243,698 231,698 223,694 217,688 211,682 204,677 198,671 
		194,663 194,653 189,646 190,636 190,627 192,617 196,609 200,601 205,594 212,588 219,583 225,577 235,575 244,572 254,572 
		263,575 272,578 280,578 286,572 291,566 297,559 304,555 313,551 323,553 332,556 341,559 352,560 359,565 362,574 365,581 
		370,588 374,596 376,606 376,618 372,626 367,632 365,643 360,650 354,656 347,661 339,665 330,667 319,667 310,665 301,662 
		296,668 291,675 283,679 277,684 270,690 263,694 252,695 	"/>
	<polygon display="inline" fill="#FF0000" stroke="#800080" points="250,344 241,341 233,337 227,331 221,325 216,318 214,308 
		214,298 215,288 215,277 216,266 219,257 227,252 234,247 240,242 247,237 255,232 254,224 247,219 244,210 244,198 244,186 
		248,177 249,166 254,160 258,152 265,146 272,141 281,138 288,133 296,129 306,129 316,128 326,129 335,132 343,136 348,143 
		354,149 359,156 364,163 368,171 371,180 373,189 372,197 373,208 370,216 369,226 364,232 358,239 354,247 346,251 339,256 
		330,258 320,260 312,263 320,267 323,276 322,287 318,295 315,304 313,313 308,321 302,326 294,330 284,332 275,336 266,338 
		257,341 	"/>
	<polygon display="inline" fill="#FF0000" stroke="#800080" points="254,1023 250,1015 252,1005 255,996 259,988 258,979 254,971 
		248,965 243,958 240,949 239,938 240,927 244,918 248,910 253,904 259,898 269,895 279,893 288,890 299,891 309,893 318,896 
		324,902 331,907 340,910 344,918 347,925 352,932 354,942 357,951 356,962 354,972 348,978 352,986 358,992 360,1002 366,1008 
		369,1016 363,1022 	"/>
	<polygon display="inline" fill="#FF0000" stroke="#800080" points="531,484 521,482 511,480 506,473 498,469 490,465 485,458 
		480,451 477,442 473,434 465,436 455,436 446,435 438,440 429,442 420,446 414,451 405,452 396,449 388,445 380,441 371,438 
		365,432 362,423 358,415 355,406 353,396 349,388 349,376 352,367 355,357 360,351 366,344 373,339 383,337 393,337 402,340 
		411,337 418,332 425,327 434,324 444,322 453,321 462,319 466,310 470,303 477,298 485,293 495,291 504,288 514,286 526,286 
		534,286 539,280 545,274 553,269 558,263 558,253 560,243 562,233 565,224 570,217 577,211 582,204 590,200 599,197 608,195 
		610,187 607,178 604,169 606,158 606,147 609,138 615,131 618,123 625,117 635,115 642,111 637,104 635,96 631,88 629,78 630,67 
		631,56 633,46 635,36 640,28 647,24 654,19 662,15 674,14 684,12 695,13 703,17 709,23 716,28 719,37 722,46 727,53 731,61 734,70 
		732,79 729,89 725,97 720,104 713,109 705,112 695,114 687,119 693,125 699,131 703,139 705,147 712,149 719,143 725,138 732,132 
		741,131 749,130 760,128 768,132 776,136 784,140 792,144 797,151 801,159 807,165 804,174 804,182 814,182 823,180 832,178 
		842,180 848,186 856,190 864,194 871,199 873,204 879,209 882,218 884,227 878,234 879,241 889,239 900,239 910,240 919,243 
		926,248 933,253 941,257 946,264 948,272 953,279 958,286 962,294 963,305 959,313 957,323 953,331 949,339 945,346 939,352 
		932,357 924,361 916,363 906,364 896,365 888,363 879,362 873,356 863,354 856,349 850,345 846,354 840,360 840,370 835,376 
		826,375 817,378 806,380 795,380 784,379 776,375 771,368 763,366 756,361 755,352 750,345 744,351 735,354 724,355 716,353 
		705,352 699,346 693,340 686,335 680,329 676,321 672,313 667,306 660,312 660,320 663,329 663,341 662,351 657,359 653,367 
		648,373 639,377 631,381 624,386 618,391 609,392 600,394 594,399 585,403 586,414 584,424 583,433 582,442 576,447 569,453 
		564,460 558,466 551,470 544,475 538,481 	"/>
	<polygon display="inline" fill="#FF0000" stroke="#800080" points="436,260 426,258 417,255 412,248 405,243 401,235 397,227 
		396,216 392,208 390,198 391,188 391,178 394,169 400,164 408,160 417,157 425,152 428,144 426,134 423,125 424,114 430,107 
		434,100 438,92 444,86 450,80 456,73 463,69 470,63 478,60 489,58 498,56 507,58 517,60 527,62 536,65 540,73 547,78 548,89 
		551,98 553,108 551,117 552,125 557,119 565,120 566,128 560,134 553,140 550,149 544,154 538,160 533,168 525,171 517,176 
		508,178 498,176 489,179 493,186 496,195 497,206 499,216 497,226 493,234 487,239 480,245 474,251 465,253 456,256 447,259 	"/>
	<polygon display="inline" fill="#FF0000" stroke="#800080" points="739,1023 734,1016 731,1007 730,996 731,985 731,975 729,965 
		733,956 737,948 742,941 752,939 762,937 769,942 776,947 783,952 792,952 791,943 790,932 790,920 792,909 796,902 793,895 
		783,893 776,888 769,883 761,879 756,872 753,863 751,853 753,843 752,832 753,822 756,814 760,806 767,800 776,797 783,792 
		789,787 800,785 811,784 821,786 831,788 839,792 846,797 852,803 854,811 858,819 867,818 876,815 886,817 893,822 901,826 
		910,829 917,834 923,840 930,845 931,856 936,863 942,869 945,878 948,887 949,898 948,909 944,917 941,925 934,930 928,936 
		918,938 907,940 903,948 901,958 896,965 891,971 882,974 873,977 862,978 852,980 841,981 832,978 822,976 815,978 820,985 
		827,990 831,998 833,1008 831,1018 	"/>
</g>
<g id="Single_nuclei" opacity="0.5">
	<polygon fill="#00FF00" stroke="#800080" points="164.5,297.554 157,295 149,291 140,294 130,296 119,295 110,292 104,286 
		96.031,289.081 88.244,287.936 81,281 80.001,275.113 82.291,266.411 87,257 83,249 80,240 80,228 83,219 87,210 92,203 96,196 
		104,191 112,187 122,187 130,191 139.081,195.88 146,199 153,204 160.378,209.391 165.416,214.658 173.431,221.528 178,227 
		180,235 180.759,243.282 181,254 178,263 174,271 176,281 175,291 171.141,295.264 	"/>
	<polygon fill="#00FF00" stroke="#800080" points="320,520 309,519 299,517 292,512 286,506 281,499 278,490 275,481 275,469 
		275,459 279,450 283,443 287,435 294,429 303,426 311,423 321,422 329,426 336,431 343,436 351,440 358,445 365,450 363,458 
		360,467 359,477 354,485 350,492 345,499 339,506 334,512 327,517 	"/>
	<polygon fill="#00FF00" stroke="#800080" points="367,887 358,884 346,884 338,880 331,875 326,868 320,862 316,854 310,848 
		306,840 305,831 305,821 307,811 314,805 318,798 323,790 328,783 334,778 343,774 352,771 363,772 371,776 380,779 387,784 
		393,790 399,796 404,803 410,809 415,816 418,825 418,835 421,844 419,854 414,861 410,868 403,874 397,879 388,882 379,885 
		368,886 	"/>
	<polygon fill="#00FF00" stroke="#800080" points="435,807 426,804 419,799 412,794 405,789 401,781 399,771 398,760 399,749 
		402,740 401,729 403,719 407,710 412,704 418,698 426,693 434,689 444,691 454,693 461,698 468,703 477,706 484,711 487,720 
		491,728 488,737 490,747 492,757 492,767 490,776 487,786 482,792 471,792 464,797 456,801 447,803 438,806 	"/>
	<polygon fill="#00FF00" stroke="#800080" points="513,670 502,669 493,666 485,662 478,657 471,652 465,646 459,640 455,632 
		452,623 450,613 451,602 452,590 457,584 462,577 466,569 472,563 479,557 488,556 494,561 499,553 509,555 518,554 528,554 
		537,557 545,561 551,567 558,572 565,577 569,585 570,596 573,603 573,613 571,622 568,632 562,637 557,645 551,650 544,656 
		536,659 529,664 519,667 	"/>
	<polygon fill="#00FF00" stroke="#800080" points="577,1021 566,1020 555,1019 546,1016 541,1009 537,1001 531,995 527,987 522,980 
		519,971 520,960 523,951 523,941 525,931 531,924 537,918 545,914 555,912 567,912 578,913 587,916 596,919 601,926 607,932 
		613,938 617,946 621,954 627,960 627,972 628,983 625,991 619,998 614,1004 609,1012 603,1017 593,1019 582,1020 	"/>
	<polygon fill="#00FF00" stroke="#800080" points="1097,808 1086,807 1078,803 1069,802 1059,802 1051,802 1043,798 1038,791 
		1033,784 1028,777 1026,767 1018,763 1011,758 1010,749 1013,740 1017,732 1024,726 1027,718 1033,711 1041,707 1047,702 1055,697 
		1065,697 1074,700 1083,703 1094,704 1102,708 1106,716 1113,721 1119,727 1122,735 1122,744 1127,751 1131,759 1128,768 1125,776 
		1123,783 1124,791 1120,799 1112,803 1102,805 	"/>
	<polygon fill="#00FF00" stroke="#800080" points="1135,989 1124,988 1115,985 1109,979 1104,972 1096,968 1087,965 1080,960 
		1075,953 1071,945 1070,934 1069,923 1071,913 1076,906 1083,900 1089,895 1098,891 1108,889 1116,885 1126,885 1137,886 1146,889 
		1153,894 1159,900 1165,906 1171,912 1178,917 1183,924 1184,933 1180,941 1180,951 1180,963 1175,969 1167,973 1158,976 1149,979 
		1141,984 	"/>
	<polygon fill="#00FF00" stroke="#800080" points="336,666 324,666 312,666 302,664 295,659 291,651 289,641 287,631 285,621 
		283,611 281,601 278,592 276,582 278,573 283,566 288,559 293,553 300.712,548.471 310,546 321,546 331,548 340,551 349,554 
		356,559 362,565 367,572 371,580 373,590 376,599 376.685,609.046 375,617 371,626 367.957,634.455 364.621,642.67 
		360.259,650.111 353.327,657.043 347.938,661.405 342.549,664.485 	"/>
	<polygon fill="#00FF00" stroke="#800080" points="237,699 226,698 218,694 211,689 204,684 198,678 194,670 191,661 188,652 
		187.008,643.181 186,634 188,624 190,614 193,604 198,598 203,591 209,584 214,578 223,574 233,572 242,569 250.662,569.006 
		260,571 269,574 274,581 276,591 279,600 281,610 284,619 286,629 288,639 289.418,648.315 293,658 295.322,665.511 
		289.675,675.01 283,680 277,686 269,690 262,694 253,697 242,698 	"/>
	<polygon fill="#00FF00" stroke="#800080" points="322.694,258.111 314.28,255.617 306,253 298.54,249.541 288.882,245.022 
		279.844,241.594 272.209,238.166 262.86,234.115 256.628,230.687 251.797,225.389 247.123,217.444 243,208 242,197 
		241.825,187.371 242.916,178.645 245,170 250,162 254,154 258,147 264,141 272,137 280,132 288,128 299,127 311,127 321,128 
		330,130 338,134 346,138 352.25,143.5 359,149 363.25,157.5 366.25,165.5 370,175.75 372,184 373,195 372,206 372,217 368,226 
		363,232 357,238 351,245 345,251 340.145,253.904 333.601,257.177 	"/>
	<polygon fill="#00FF00" stroke="#800080" points="253.5,343.5 244.5,344.167 236.834,341.167 230,338 225,331 219,325 214,318 
		212,308 211,297 212,286 213,274 217.167,263.5 220.946,256.241 226.399,252.969 231.541,248.761 237.929,242.373 244.162,236.452 
		251.174,233.336 259,234 267.223,236.763 276,241 284,245 293,248 301,252 310,255 318,259 323,266 324,277 322,286 318,294 
		316.165,301.833 312.834,311.833 307.5,320.75 300.165,325.5 293,330 285,334 277,337 269.75,338.5 262.75,341.5 	"/>
	<polygon fill="#00FF00" stroke="#800080" points="265.406,982.672 260,981 254,975 248,969 242,963 238,955 237,946 238,934 
		240,925 243,916 247,907 253,901 260,897 268,892 278,890 289,889 300,890 311,891 319,895 326,900 333,905 339,911 344,918 
		348,926 352,934 356,942 357,951 356,962 354,972 348,977 339.484,979.907 328,981 316,981 305,982 293,982 282,983 
		272.316,982.672 	"/>
	<polygon fill="#00FF00" stroke="#800080" points="693.409,115.478 685.336,115.478 672.992,115.783 661.87,114.26 652.273,112.279 
		642.065,109.385 636.275,101.765 634,94 630,86 629,75 632.616,63.826 635.361,54.38 635.206,44.323 637.341,33.506 642,27 649,22 
		656,18 665,14 676,13 687,12 697,14 704,19 711,24 717,30 720.38,39.905 724.948,46.457 728,55 731.807,63.217 733.786,71.445 
		731,84 727,92 723,100 717,106 710.171,110.45 701,113 	"/>
	<polygon fill="#00FF00" stroke="#800080" points="522,482 512.5,480.25 505,475 498,470 490,466 483,461 480,452 477.75,441.75 
		480.75,430 483,423 487.25,415 490.5,406.25 494.25,398.25 498.639,388.739 502.032,382.177 506.783,376.069 514,370 523,366 
		532,363 540,363 547.63,363.449 555.98,369.522 563.762,376.355 570.215,382.049 575.814,387.458 582,393 587.2,400.08 590,409 
		589,418 586,427 583,436 579.25,443.75 574,451 569.5,456.75 562.5,462.25 555,467.5 547.25,470.5 539,478.25 530.25,483 	"/>
	<polygon fill="#00FF00" stroke="#800080" points="490,177 480,175 471,172 463,168 455,164 447,160 439,156 431,152 
		427.018,145.715 424.298,136.537 422.939,127.699 423,118 426,109 430,101 436,94 441,88 447,82 453,75 459,69 465,64 473,60 
		482,56 493,55 505,55 516,56 525,59 533.409,64.474 541.907,70.594 545,75 549,83 551,93 554,102 556,112 557,121 555,131 
		551.427,141.635 548,148 543,155 538,161 531,166 523.214,171.208 515,175 505,176 498.06,177.327 	"/>
	<polygon fill="#00FF00" stroke="#800080" points="432,259 422,257 414,253 407,248 401,242 398,233 396.765,226.275 
		396.425,217.437 393.026,209.619 387.927,201.461 388.267,194.323 390,177 394,168 399,162 405,156 413,152 421.919,151.493 
		430,152 438,156 446,160 455,163 463,167 471,171 479,175 487,179 493.981,185.485 498,192 500,202 501,213 501.799,222.876 
		498,230 493,236 487,243 480,247 471,250 462,253 454.891,257.887 442.654,259.927 	"/>
	<polygon fill="#00FF00" stroke="#800080" points="0,172 9,169 18,170 24,176 32,180 40,184 44,192 45,203 50,210 53,219 
		53.437,228.627 56,236 55,246 51,255 46,262 39,266 35,275 30.309,280.609 20.691,284.044 10,281 0.081,282.441 	"/>
	<polygon fill="#00FF00" stroke="#800080" points="44.645,0.015 47.783,9.876 54.507,17.048 59.437,22.875 67.953,26.461 
		75.573,26.461 82.745,31.391 89.02,35.427 97.088,38.115 107.845,39.908 116.81,39.908 125.326,35.874 134.291,33.184 
		141.463,26.909 146.842,19.289 152.669,12.566 154,0 	"/>
	<polygon fill="#00FF00" stroke="#800080" points="614.791,125.23 617.99,120.658 622.105,117.612 626.98,115.174 632.313,114.412 
		638.255,113.954 643.893,113.954 649.226,114.107 655.778,115.021 661.262,115.631 665.986,116.545 670.405,116.849 
		674.365,117.764 677.411,118.069 681.222,119.135 684.879,119.744 688.533,120.049 692.345,122.182 695.392,125.23 
		698.135,128.277 700.725,132.086 703.01,136.352 705.906,140.923 706.972,146.256 707.886,150.675 707.429,155.855 706.82,159.511 
		706.82,163.625 705.296,167.282 704.532,169.415 703.772,172.31 704.074,176.119 703.772,180.995 702.858,185.719 702.246,189.528 
		700.42,193.794 699.049,196.841 697.828,200.802 695.544,204.307 693.409,208.268 690.517,210.859 686.86,212.839 683.658,214.82 
		680.156,217.563 677.868,220.915 674.975,223.2 671.621,224.724 669.031,223.962 665.224,221.981 660.5,219.239 656.537,216.648 
		653.187,214.972 648.157,212.534 642.217,210.249 637.034,208.268 632.313,205.526 626.523,202.783 622.562,200.955 
		617.99,198.212 614.487,196.385 610.22,193.184 607.935,190.442 606.409,184.804 604.887,179.776 604.735,174.596 603.821,168.958 
		604.278,163.93 604.887,159.207 605.344,152.503 605.952,145.342 607.323,139.4 609.913,135.133 612.963,129.802 	"/>
	<polygon fill="#00FF00" stroke="#800080" points="762.758,128.187 753.22,128.187 743.682,129.246 734.144,129.953 726.37,134.899 
		719.658,140.552 713.232,146.29 709.063,152.915 707.65,160.686 705.296,167.282 704.074,176.119 703.764,184.001 702.702,191.773 
		701.291,198.132 701.291,205.903 701.644,213.322 705.883,219.327 712.24,225.686 716.481,229.219 722.133,229.925 
		729.198,228.865 733.788,228.865 738.383,231.338 742.62,234.164 747.568,235.577 753.926,234.517 759.225,229.925 
		763.818,225.686 768.763,221.447 772.649,217.207 775.826,215.795 779.361,213.322 783.6,210.142 788.899,205.55 793.49,200.958 
		797.73,196.012 801.969,188.947 804.089,183.648 805.502,176.23 805.502,171.284 806.516,167.383 805.149,163.865 799.85,157.507 
		798.347,152.083 795.076,147.033 789.283,143.171 781.127,138.431 774.413,133.839 768.407,130.306 	"/>
	<polygon fill="#00FF00" stroke="#800080" points="862.5,190.25 856.75,188 852.75,186 850,182.75 845.5,179 838.75,177.5 
		833.75,176.25 828.75,177.25 823.5,178.5 817.75,180.25 813.5,180.25 809.5,181 805.75,183.5 801.969,188.947 798.75,194 
		796.75,199.5 793.25,203.25 789,207 785.5,210.75 781,213.5 775.75,217.25 771.25,220.25 768,223.75 765,226.5 760.75,230 
		756.5,233.75 753.75,237.25 752.75,240.25 755.049,244.561 757.577,248.662 760.25,252.75 763,257 765.606,262.01 768.25,266.25 
		770.25,271.25 773.25,276.75 776.25,280.5 780.25,283.25 784.75,285 791,285 797.5,285.25 804.5,284.75 811.578,285.51 818,286.75 
		824.5,288 830,288.25 835.5,288.25 840.115,287.923 843.951,284.084 847,280.5 850.061,276.844 852.75,273.5 855.906,270.037 
		859.132,266.721 862.796,262.272 865.412,258.521 868.25,254 871,250.75 875.25,246.5 878.588,241.682 881.38,236.796 883,230.75 
		884.25,226.5 883.5,220.25 883.5,214.75 882.5,212 879.5,207.75 879.25,206 877,203 871.5,198.75 867,194.5 	"/>
	<polygon fill="#00FF00" stroke="#800080" points="947.081,262.193 943.495,256.455 938.477,252.869 932.74,250.719 923.416,244.98 
		916.242,242.112 907.28,239.243 899.031,238.167 890.068,237.808 882.535,239.243 878.593,243.546 875.007,247.849 
		871.421,252.152 867.835,256.096 865.323,259.682 862.796,262.272 859.132,266.721 856.36,271.516 853.133,275.46 850.817,280.042 
		848.827,284.783 847.395,292.314 847.009,298.814 847.754,305.223 849.906,313.829 850.948,321.261 851.698,327.814 
		852.392,336.094 854.229,343.183 855.643,347.537 858.868,351.84 864.608,355.067 871.78,357.219 876.8,361.881 884.328,364.749 
		891.861,366.183 899.747,366.542 907.995,365.825 916.603,365.108 923.416,363.315 931.662,360.088 939.195,354.35 945.288,349.33 
		949.235,342.517 954.255,335.345 955.69,324.587 958.916,317.057 960.709,312.036 965.013,309.526 966.088,304.148 963.22,296.976 
		959.634,289.087 956.406,281.198 952.821,275.819 949.235,269.365 	"/>
	<polygon fill="#00FF00" stroke="#800080" points="590.442,198.834 580.837,202.036 572.832,209.507 566.963,217.511 
		562.694,224.981 559.491,236.721 556.289,248.461 555.757,260.734 559.491,268.738 566.963,273.541 574.433,279.41 
		585.639,284.747 595.778,290.616 605.383,295.952 613.921,300.221 622.991,306.092 632.064,310.894 639.534,313.029 
		649.673,313.562 658.211,313.562 665.682,309.293 669.95,301.289 671.552,292.218 673.687,285.814 675.821,277.276 
		679.023,270.339 681.156,261.802 681.691,252.196 681.691,243.658 676.888,234.053 671.138,226.715 665.264,222.69 
		656.018,217.251 647.425,213.227 640.137,210.399 633.611,207.679 625.344,203.437 617.076,198.651 608.585,195.633 
		599.513,197.233 	"/>
	<polygon fill="#00FF00" stroke="#800080" points="699.832,237.255 691.296,244.725 686.492,252.73 681.156,261.802 
		679.023,270.339 675.821,279.41 673.153,290.083 669.95,301.289 671.018,312.495 675.286,322.1 681.691,332.239 690.762,339.709 
		697.164,345.046 703.569,351.983 714.24,355.718 724.38,356.251 734.519,355.184 743.057,351.449 751.061,342.377 755.864,331.171 
		760.666,321.032 764.935,308.226 769.203,296.486 771.338,284.213 770.271,275.141 767.036,266.147 762.323,257.62 
		758.611,251.802 754.197,244.979 749.992,240.99 741.454,236.721 733.45,232.986 723.846,231.918 714.775,234.587 706.771,237.255 
			"/>
	<polygon fill="#00FF00" stroke="#800080" points="846.193,356.025 850.685,345.677 851.31,333.813 850.128,323.837 
		848.947,315.698 847.765,308.216 845.532,301.258 841.512,295.174 836.797,290.459 830.176,288.452 820.646,286.948 
		812.619,286.045 804.493,285.242 794.16,284.941 784.129,284.74 778.646,285.379 772.777,289.648 769.041,295.517 767.44,303.522 
		764.772,310.992 760.503,320.064 757.301,328.068 754.633,335.539 750.898,341.408 749.297,349.413 751.432,358.484 
		758.367,365.955 764.772,369.69 771.709,373.959 779.42,379.147 788.783,382.497 798.39,383.031 807.994,381.964 817.884,380.659 
		827.204,376.627 834.676,373.959 841.078,365.955 	"/>
	<polygon fill="#00FF00" stroke="#800080" points="543.89,274.254 548.414,271.765 552.94,269.277 556.334,268.145 558.637,269.123 
		561.769,271.306 564.253,273.349 567.647,275.385 571.069,277.854 574.199,279.657 577.375,281.72 580.769,283.078 
		584.842,285.567 588.815,287.628 593.666,290.093 598.191,293.033 602.716,295.07 608.174,298.541 613.298,300.914 
		616.743,303.215 621.043,305.703 624.781,308.41 629.188,310.455 635.297,312.491 639.489,313.82 644.347,314.075 648.504,314.484 
		651.814,314.528 654.981,314.98 658.657,316.097 660.41,317.921 661.993,321.089 662.9,324.935 663.577,328.555 663.805,333.08 
		664.031,337.379 664.031,341.678 663.353,345.977 661.316,351.407 659.28,357.063 656.565,361.136 653.85,364.982 652.718,370.186 
		650.003,372.448 646.61,374.485 643.668,376.295 640.5,378.557 636.655,379.689 632.808,381.499 630.093,383.988 627.152,386.024 
		624.21,387.834 619.459,389.87 614.029,392.359 609.051,393.038 605.204,393.264 602.036,394.621 598.869,398.241 594.117,400.278 
		590.725,400.957 589.141,399.825 586.198,395.753 583.711,393.717 580.091,390.323 576.923,387.834 573.982,384.666 
		569.456,380.141 566.288,376.973 561.764,373.354 557.239,369.281 553.618,366.566 549.546,363.172 546.605,361.362 
		542.985,360.231 539.591,358.873 537.664,355.478 537.781,350.05 536.875,343.714 536.65,337.605 536.198,330.365 535.388,325.396 
		535.103,319.323 534.614,313.17 534.16,306.609 533.482,299.821 532.921,293.132 533.256,288.961 535.291,284.662 537.555,280.816 
		540.495,277.422 	"/>
	<polygon fill="#00FF00" stroke="#800080" points="507.75,369.75 503.75,371.25 500.25,372.25 497,373.5 492.75,373.5 
		489.25,372.75 486.5,369.5 483.25,366.25 480.75,362.25 478.282,358.828 476.25,353.75 473,346.25 470.5,340.5 468,334.75 466,330 
		464.5,324.5 463.25,319 464,312.75 467,309.5 469.75,306.75 472,302.5 476,299.5 480.25,296.25 485,293 492,292 498,290.25 
		504.5,288.25 509.25,286.5 515.25,286.25 521.5,285.75 526.5,287.75 530.25,290.75 531.25,296.25 532.5,302.25 532.75,307.75 
		533.25,313.75 533.75,319 534.25,324.5 534.75,328.25 535,332.25 535,335.75 535,339 535.5,342.25 535.75,345.25 532.5,349.25 
		531.75,353 529.5,357.25 526.25,360 521.75,361.5 518.25,363.5 513.75,365.75 510.75,368 	"/>
	<polygon fill="#00FF00" stroke="#800080" points="435,322.25 427.75,325.5 420.25,331 414.75,333.75 411,337.25 411.25,343.5 
		412.75,348.75 414.75,353.25 416,358.25 415.75,363 415.25,367 415.5,372 417,378 418.75,383.5 421.105,389.868 424.623,396.655 
		428.75,402.5 433.5,408.5 438.5,413.75 441,419.5 443.75,424 446,429.5 448.75,434 452.25,436 459,436.5 464.25,436.25 470,434.25 
		475,429.75 478,425 481.5,421.5 484.75,416.5 487.5,411 489.25,405.75 491.75,400.5 494.5,394.25 496.75,389.25 498.642,382.957 
		500.15,378.055 497,375.25 492.233,374.537 487.25,373.25 483,368.5 479.75,363.5 477.5,359.75 475.25,354.75 473.75,350.25 
		471.5,345.5 469.487,341.109 467.5,336.5 465.5,331.75 463.5,326.75 462.5,324.25 459,321.75 454.75,320.25 449.5,320 442,321 	"/>
	<polygon fill="#00FF00" stroke="#800080" points="365.25,435 369.25,438.75 375.5,442.25 381,444 387.25,446.75 393.25,449.25 
		400.25,451.5 406,452.75 412.25,452.5 415.75,448.75 420.75,446.25 426.75,444.25 431.75,443.25 437,442 440.75,439.25 
		444.5,434.75 444.5,429 441.5,422.75 439,417.5 437,414 432.75,410 429.25,405.25 425.75,400.5 422.739,395.9 420.5,391.5 
		417.75,384.25 416,379 414.75,374.25 414.25,368.25 414.75,362.25 414.5,357 413.25,352.25 411.75,348.25 409.5,343.5 407,341 
		402.5,340 396.75,338.25 391.75,337.25 386.25,336.75 380.5,336.25 374.25,339 368.5,341 364.25,343.5 360.75,348.25 357,352.25 
		353.75,358.75 352,365.25 349.25,371.75 348.25,378.25 348.5,387.25 349.75,396.5 352.75,405.5 355,412.75 357.75,418.5 
		360.25,424.25 362.5,429.25 	"/>
	<polygon fill="#00FF00" stroke="#800080" points="1184.959,0 1184.25,12.092 1185.181,23.724 1187.507,33.031 1191.23,42.337 
		1198.209,49.781 1206.118,53.504 1215.426,56.761 1227.059,58.157 1237.713,58.129 1245.671,55.831 1253.58,52.573 
		1262.422,49.781 1268.937,44.663 1273.59,36.753 1276.382,31.635 1277.313,23.724 1278.707,20.002 1279.639,9.765 1278.242,5.112 
		1277.144,-0.008 	"/>
	<polygon fill="#00FF00" stroke="#800080" points="895.825,820.169 887.233,814.699 878.248,812.746 870.437,815.091 
		864.576,818.605 858.719,825.245 854.813,833.84 852.469,843.215 850.125,854.15 851.297,866.65 853.641,874.852 859.11,881.885 
		864.187,890.868 870.437,898.679 875.515,905.32 880.984,912.351 887.233,917.429 892.7,924.461 900.122,932.663 906.764,937.35 
		915.746,940.475 924.341,938.133 932.544,931.883 936.84,928.366 942.698,923.289 945.823,916.648 950.12,910.009 951.684,900.242 
		952.073,890.477 948.948,879.93 946.215,869.775 942.309,861.181 936.06,852.197 932.544,847.12 927.466,842.043 921.216,837.354 
		913.013,831.495 904.811,825.635 	"/>
	<polygon fill="#00FF00" stroke="#800080" points="752.081,822.902 752.081,832.668 752.081,842.432 750.52,851.416 
		750.129,862.353 752.864,870.947 758.723,878.76 765.363,883.055 772.783,886.571 777.08,891.26 779.816,895.555 785.283,898.679 
		791.143,899.07 797.002,896.338 802.862,891.649 811.065,887.352 819.267,883.838 826.298,880.713 832.156,878.368 
		838.016,875.635 843.794,871.703 846.219,865.089 847.781,856.494 848.952,850.244 850.906,843.995 852.077,835.401 
		853.641,829.543 856.375,824.073 856.375,817.433 855.985,813.527 856.766,808.449 853.641,802.199 848.952,797.903 
		844.656,793.606 835.673,788.528 825.517,785.403 816.923,783.842 807.549,782.67 798.174,783.059 790.362,785.795 
		784.113,789.309 779.425,795.17 773.955,796.342 766.533,800.246 761.848,804.152 757.942,810.402 754.817,815.871 	"/>
	<polygon fill="#00FF00" stroke="#800080" points="792.315,920.554 791.143,931.1 792.315,941.258 796.612,949.849 800.127,954.537 
		805.596,960.007 810.282,965.084 817.314,970.162 826.689,974.067 836.453,977.192 846.219,979.536 857.547,978.756 
		868.873,977.584 879.812,974.067 888.405,969.771 895.045,961.959 901.686,955.318 904.42,945.163 902.858,937.35 897.78,931.1 
		892.7,924.461 886.842,919.773 880.593,914.304 873.951,906.101 869.057,899.227 864.344,893.571 860.762,888.481 858.122,882.637 
		854.813,879.93 849.344,878.76 842.313,878.368 834.5,880.713 829.423,882.665 823.173,885.79 816.142,889.305 808.721,892.43 
		803.643,898.289 799.346,902.976 795.44,910.009 	"/>
	<polygon fill="#00FF00" stroke="#800080" points="739.156,1024.002 732.943,1018.597 730.99,1010.785 729.427,1001.802 
		728.646,994.381 730.599,988.131 730.99,981.49 729.035,976.412 727.865,967.427 729.818,960.397 733.332,954.538 736.457,947.508 
		741.142,941.989 748.567,939.694 754.426,938.133 762.434,937.205 768.878,939.303 773.175,945.553 777.472,951.803 
		782.941,954.147 789.971,954.147 795.829,956.883 801.299,961.177 804.424,964.302 808.3,967.969 811.065,971.334 811.581,977.818 
		812.521,981.759 814.189,985.007 819.267,986.567 824.736,987.739 829.814,992.036 832.939,999.067 834.5,1004.927 
		834.111,1011.566 832.939,1017.035 829.041,1024.002 	"/>
	<polygon fill="#00FF00" stroke="#800080" points="254.349,1023.856 250.48,1019.157 249.097,1011.694 251.309,1004.231 
		254.073,997.32 257.943,991.239 263.471,987.646 268.999,985.158 276.186,984.605 281.99,984.329 290.038,983.23 296.364,983.223 
		303.826,983.5 310.85,982.497 317.45,982.039 324.326,981.947 330.195,981.763 336.244,980.938 341.655,980.846 345.842,981.565 
		350.539,982.118 354.409,985.158 356.62,988.753 359.109,992.345 359.938,996.216 359.938,1000.637 359.109,1003.677 
		364.085,1004.784 368.507,1009.482 368.507,1015.01 366.573,1019.711 364.913,1023.856 	"/>
	<polygon fill="#00FF00" stroke="#800080" points="0.436,858.331 6.928,855.086 15.486,856.265 22.568,858.627 29.945,860.692 
		35.552,862.759 43.519,864.823 50.306,866.594 57.388,868.954 61.815,874.266 65.061,880.169 65.356,886.069 62.995,891.383 
		60.635,893.447 61.225,896.988 64.176,901.414 65.651,907.021 65.061,913.219 63.586,918.529 61.52,925.316 57.684,933.579 
		53.258,938.302 48.831,942.136 43.224,945.384 39.093,948.63 36.437,951.58 31.421,953.35 25.814,957.481 18.437,959.253 
		11.059,961.317 5.453,960.727 0.436,961.908 	"/>
	<polygon fill="#00FF00" stroke="#800080" points="0.001,745.951 4.413,749.691 8.109,756.525 11.65,762.722 12.83,768.625 
		16.076,773.052 20.207,777.181 21.387,783.084 21.683,788.985 22.273,795.181 22.863,800.789 23.158,808.757 21.978,815.84 
		19.912,821.445 18.437,829.117 15.36,833.941 10.764,836.79 6.043,840.331 0.001,845.166 	"/>
	<polygon fill="#00FF00" stroke="#800080" points="-0.165,578.885 3.942,582.992 12.84,585.046 21.396,584.36 29.61,582.649 
		39.534,580.595 47.406,578.2 57.33,574.778 64.175,572.384 69.993,567.593 74.099,561.431 75.469,553.559 74.442,543.294 
		74.442,536.448 74.099,528.92 73.779,523.9 73.21,519.924 72.046,512.15 71.362,505.305 69.651,498.461 67.939,495.381 
		64.175,490.59 57.33,485.799 50.143,482.033 41.588,480.322 32.347,478.953 26.871,477.585 19,475.873 11.129,476.9 5.311,480.322 
		-0.103,482.841 	"/>
	<polygon fill="#00FF00" stroke="#800080" points="100.109,449.179 93.607,454.313 87.789,459.104 82.313,462.184 76.495,469.029 
		72.046,478.953 70.335,485.456 69.8,490.228 69.651,495.381 72.046,503.594 73.415,511.123 73.415,516.598 74.442,521.732 
		75.199,528.873 75.811,535.763 75.811,541.925 76.495,549.111 76.495,554.928 77.179,561.09 79.575,568.618 84.024,575.464 
		90.527,580.255 96.344,585.046 105.242,589.494 111.403,590.52 119.616,589.837 127.488,592.916 136.385,593.26 144.257,591.205 
		154.524,589.152 158.631,584.36 164.791,583.677 169.924,579.227 175.742,578.885 182.587,572.384 188.405,566.222 
		193.881,561.431 197.987,553.559 201.067,545.346 204.49,536.106 207.227,527.892 209.965,520.706 209.281,512.15 207.912,504.62 
		206.201,498.118 204.832,492.301 202.436,484.771 199.356,480.664 196.276,475.531 192.169,471.425 190.116,466.291 
		184.983,461.157 180.191,456.366 171.635,448.494 162.738,444.047 154.182,439.596 148.364,437.885 145.283,435.832 
		139.466,433.779 132.963,433.779 127.83,433.779 120.985,435.49 115.852,440.623 110.376,445.073 105.242,447.127 	"/>
</g>
</svg>
