<?xml version="1.0" encoding="utf-8"?>
<!-- Generator: Adobe Illustrator 16.0.1, SVG Export Plug-In . SVG Version: 6.00 Build 0)  -->
<!DOCTYPE svg PUBLIC "-//W3C//DTD SVG 1.1//EN" "http://www.w3.org/Graphics/SVG/1.1/DTD/svg11.dtd">
<svg version="1.1" id="Layer_1" xmlns="http://www.w3.org/2000/svg" xmlns:xlink="http://www.w3.org/1999/xlink" x="0px" y="0px"
	 width="1280px" height="1024px" viewBox="0 0 1280 1024" enable-background="new 0 0 1280 1024" xml:space="preserve">
<g id="Raw_image">
	
		<image overflow="visible" enable-background="new    " width="1280" height="1024" xlink:href="Neuroblastoma_11.jpg"  transform="matrix(1 0 0 1 2.441406e-004 -2.441406e-004)">
	</image>
</g>
<g id="Not_annotated" opacity="0.5">
	<polygon fill="#0000FF" stroke="#800080" points="276,435 264,435 255,432 259,426 252,425 259,421 267,420 268,412 277,415 
		284,419 282,411 289,407 298,410 306,412 313,411 318,413 323,411 323,418 316,423 307,427 299,430 290,433 281,434 	"/>
	<polygon fill="#0000FF" stroke="#800080" points="646,1022 639,1021 633,1015 630,1006 631,995 638,997 647,998 653,1004 660,1009 
		661,1015 651,1015 	"/>
	<polygon fill="#0000FF" stroke="#800080" points="703,1023 698,1016 702,1008 708,1004 716,1005 719,1014 716,1023 	"/>
	<polygon fill="#0000FF" stroke="#800080" points="739,277 732,272 728,264 720,264 721,258 729,258 734,265 739,272 	"/>
	<polygon fill="#0000FF" stroke="#800080" points="749,309 741,305 733,301 734,297 731,293 723,289 719,281 720,271 726,277 
		730,285 736,291 741,298 748,303 	"/>
	<polygon fill="#0000FF" stroke="#800080" points="777,297 769,293 760,290 752,286 749,277 745,269 738,264 742,259 747,266 
		751,274 755,282 762,287 771,290 779,294 	"/>
	<polygon fill="#0000FF" stroke="#800080" points="764,310 760,304 752,300 746,294 747,286 752,293 760,297 769,300 766,307 	"/>
	<polygon fill="#0000FF" stroke="#800080" points="760,327 755,320 756,310 762,316 761,326 	"/>
	<polygon fill="#0000FF" stroke="#800080" points="773,287 764,284 759,277 765,280 773,284 	"/>
	<polygon fill="#0000FF" stroke="#800080" points="803,317 794,314 784,314 776,316 772,312 780,307 789,304 794,298 801,294 
		797,302 802,309 	"/>
	<polygon fill="#0000FF" stroke="#800080" points="845,459 840,454 849,454 	"/>
	<polygon fill="#0000FF" stroke="#800080" points="1021,444 1013,440 1006,440 999,436 992,434 986,435 978,436 970,435 963,436 
		958,443 956,435 960,426 964,418 969,413 973,412 980,410 985,415 992,415 1001,411 1010,410 1015,417 1025,415 1030,419 1023,424 
		1019,426 1015,431 1018,436 1022,443 	"/>
	<polygon fill="#0000FF" stroke="#800080" points="1105,821 1099,815 1092,810 1085,805 1077,801 1077,793 1084,792 1078,786 
		1072,792 1067,785 1064,776 1062,768 1059,761 1051,757 1046,750 1044,742 1050,737 1054,732 1049,725 1057,726 1064,729 1071,731 
		1076,723 1084,727 1093,730 1099,736 1108,733 1110,736 1106,743 1114,747 1112,755 1113,762 1118,769 1118,776 1121,781 1127,782 
		1130,791 1126,798 1121,806 1129,807 1133,802 1134,812 1124,812 1115,815 1107,812 	"/>
	<polygon fill="#0000FF" stroke="#800080" points="1092,468 1088,464 1079,465 1074,458 1074,448 1075,437 1079,428 1082,420 
		1087,412 1093,406 1099,401 1105,395 1112,389 1119,385 1126,379 1136,377 1146,375 1151,382 1151,390 1160,391 1170,393 1169,403 
		1163,397 1155,396 1150,401 1149,408 1146,416 1142,425 1138,432 1132,439 1127,445 1122,452 1115,457 1104,459 1101,465 	"/>
	<polygon fill="#0000FF" stroke="#800080" points="1105,729 1098,724 1101,720 1108,719 1106,728 	"/>
	<polygon fill="#0000FF" stroke="#800080" points="1136,837 1131,830 1127,822 1132,824 1139,829 	"/>
	<polygon fill="#0000FF" stroke="#800080" points="1156,435 1151,428 1150,422 1158,420 1159,429 	"/>
	<polygon fill="#0000FF" stroke="#800080" points="1189,886 1183,880 1179,873 1180,863 1187,863 1191,871 1189,881 	"/>
	<polygon fill="#0000FF" stroke="#800080" points="1229,254 1219,252 1217,244 1211,249 1203,250 1194,247 1191,240 1183,236 
		1185,228 1188,224 1192,225 1189,216 1188,205 1192,197 1195,187 1199,180 1207,176 1216,172 1222,166 1231,165 1239,167 1248,168 
		1259,169 1263,176 1265,179 1269,187 1271,197 1272,206 1271,217 1271,225 1269,235 1268,242 1262,247 1253,251 1243,252 1237,246 
		1232,250 	"/>
	<polygon fill="#0000FF" stroke="#800080" points="1279,730 1274,727 1274,719 1274,711 	"/>
	<path fill="#0000FF" stroke="#800080" d="M1279,13l-4-6L1279,13z"/>
	<path fill="#0000FF" stroke="#800080" d="M1279,546l-3-6L1279,546z"/>
</g>
<g id="Clumps" display="none" opacity="0.5">
	<polygon display="inline" fill="#FF0000" stroke="#800080" points="0,61 7,56 15,53 25,52 32,50 41,46 48,51 42,57 50,61 59,64 
		68,63 63,57 71,58 77,64 76,71 84,69 89,76 93,84 94,95 94,107 92,117 86,122 81,129 74,128 69,130 73,138 68,144 59,147 49,149 
		40,153 29,153 18,154 9,151 10,145 8,138 4,130 13,126 21,126 22,133 29,131 36,125 42,131 51,128 59,124 56,116 53,107 48,100 
		44,92 46,87 53,83 51,75 44,78 35,77 32,85 38,91 43,98 42,105 34,104 29,97 19,97 10,96 3,91 4,81 7,73 2,66 	"/>
	<polygon display="inline" fill="#FF0000" stroke="#800080" points="43,289 34,286 27,281 23,273 29,266 27,259 18,256 10,254 
		7,245 13,238 19,244 24,251 30,248 26,240 35,236 36,245 39,252 46,247 47,238 55,234 65,235 75,232 80,226 75,219 68,224 59,221 
		61,214 71,214 70,206 66,198 61,191 54,186 51,177 44,172 46,165 53,160 62,157 73,156 83,158 86,167 90,173 98,169 105,174 
		109,182 112,191 115,200 118,209 120,219 118,229 115,238 112,247 109,255 103,261 98,268 94,276 88,282 79,286 70,286 65,279 
		63,271 70,265 73,257 78,249 73,243 66,243 62,250 67,256 63,264 56,269 52,277 53,285 44,288 	"/>
	<polygon display="inline" fill="#FF0000" stroke="#800080" points="156,92 146,90 136,88 129,83 121,79 113,75 118,68 114,60 
		107,57 113,51 117,43 118,34 109,35 102,39 99,32 103,25 110,20 114,12 123,8 133,6 142,5 150,9 157,12 168,13 174,19 183,20 
		188,27 194,33 197,42 200,51 201,62 200,73 195,79 189,85 180,88 169,90 159,91 	"/>
	<polygon display="inline" fill="#FF0000" stroke="#800080" points="212,417 202,415 193,412 187,406 182,399 174,397 168,391 
		173,384 174,375 176,365 179,356 179,344 173,339 165,342 156,345 146,347 136,345 129,340 124,333 119,326 116,317 115,306 
		118,296 127,297 132,304 132,314 136,322 142,328 150,328 158,324 160,317 155,310 146,307 137,304 134,295 140,288 150,288 
		156,294 157,303 162,310 163,302 163,290 158,283 157,274 152,269 142,267 131,266 125,260 119,267 113,270 113,262 119,256 
		125,249 133,245 136,237 145,235 150,242 159,244 157,236 155,228 150,221 145,221 138,223 129,220 129,210 130,201 135,194 
		140,187 142,177 135,172 133,181 132,192 125,192 121,185 125,178 120,171 121,162 125,154 129,145 134,139 141,133 148,129 
		159,127 169,127 179,129 188,131 194,136 195,147 201,153 210,156 211,165 207,173 208,184 208,193 203,201 198,207 192,213 
		188,221 182,228 172,229 174,232 182,234 183,242 176,248 182,253 188,247 193,241 195,251 191,259 196,266 193,275 193,286 
		185,286 180,279 174,284 174,292 167,297 172,304 180,300 186,294 194,290 201,287 203,278 205,268 207,259 214,254 220,249 
		224,241 232,242 240,243 245,236 252,230 259,226 269,227 278,225 285,219 288,211 279,208 273,202 268,195 265,186 262,181 
		255,182 258,173 250,173 244,175 238,169 233,162 225,162 219,156 214,149 211,140 209,130 210,120 215,114 223,109 231,105 
		240,102 249,99 258,96 268,96 279,97 289,99 298,102 304,108 311,113 317,119 321,127 323,135 328,142 324,150 323,159 327,167 
		329,177 336,182 338,192 335,200 338,206 349,205 356,201 351,194 355,185 361,180 363,171 373,169 382,168 390,172 390,179 
		382,184 383,193 393,193 392,202 392,212 392,222 387,228 379,232 372,238 365,243 360,250 355,256 346,260 337,262 327,264 
		317,264 313,269 310,278 315,285 326,286 334,290 338,298 342,306 345,315 346,326 348,336 348,348 346,358 343,366 338,374 
		333,380 327,386 320,391 311,394 300,395 298,387 291,391 281,390 271,388 265,393 260,399 252,404 244,407 236,411 227,415 
		217,416 	"/>
	<polygon display="inline" fill="#FF0000" stroke="#800080" points="166,834 155,833 146,830 138,826 131,821 125,815 121,807 
		117,799 114,790 112,780 115,771 119,762 121,753 126,745 129,737 134,730 140,724 149,720 155,726 162,731 173,730 181,734 
		188,738 184,732 178,726 174,718 172,708 170,698 164,692 161,683 162,674 160,664 165,656 171,650 178,645 183,639 192,635 
		200,631 210,629 220,631 230,633 238,637 243,644 250,649 254,657 256,667 259,674 262,683 261,693 257,702 253,709 248,716 
		242,723 236,729 229,733 221,737 212,741 203,739 203,746 210,751 215,758 218,767 218,779 217,789 213,798 209,806 205,813 
		199,820 194,826 186,830 177,833 	"/>
	<polygon display="inline" fill="#FF0000" stroke="#800080" points="381,804 372,801 365,796 358,791 351,786 348,779 345,770 
		344,761 342,751 345,742 344,733 348,724 353,717 359,712 366,706 373,701 381,698 391,695 402,696 412,698 419,694 414,687 
		409,680 405,672 403,662 401,652 401,642 401,632 403,622 411,617 417,611 424,607 433,605 443,605 452,604 462,602 471,605 
		480,608 487,613 492,620 500,624 505,631 508,640 511,649 510,660 507,669 503,676 497,682 492,690 487,696 479,701 470,703 
		458,703 448,705 438,703 430,699 427,705 434,710 439,717 444,724 447,733 448,744 448,754 443,760 438,768 435,777 428,781 
		418,783 410,787 403,792 396,797 389,802 	"/>
	<polygon display="inline" fill="#FF0000" stroke="#800080" points="502,316 493,313 483,311 473,311 468,304 459,301 460,293 
		460,284 459,275 451,271 442,274 431,275 419,275 410,272 402,268 395,263 389,257 387,249 384,240 389,233 398,231 406,228 
		405,221 408,212 414,205 412,198 403,201 404,195 410,189 414,182 422,177 430,174 439,176 448,175 457,178 464,183 472,187 
		472,196 468,205 470,215 476,221 476,231 473,240 469,248 461,249 460,240 458,234 451,238 451,246 456,253 449,257 445,264 
		451,262 460,259 462,269 470,269 478,271 485,268 479,263 475,256 479,249 485,242 489,234 494,228 500,222 494,216 496,208 
		493,201 488,206 489,197 497,192 496,186 497,183 503,177 506,168 500,162 505,160 514,159 511,157 506,152 504,146 513,144 
		520,149 525,155 531,158 526,164 518,169 514,177 511,185 503,190 503,200 501,208 509,205 515,198 521,194 526,201 523,209 
		517,216 513,223 504,227 501,234 499,243 503,250 507,243 512,236 521,233 527,238 520,243 513,247 511,254 515,262 513,271 
		507,278 508,285 518,285 525,281 529,273 532,264 529,257 535,256 539,264 545,266 541,274 536,281 532,289 528,296 524,304 
		515,307 506,309 	"/>
	<polygon display="inline" fill="#FF0000" stroke="#800080" points="874,837 866,833 857,830 849,826 843,820 837,814 831,808 
		827,800 827,792 820,795 812,799 804,803 795,804 784,803 776,799 769,794 763,788 759,780 756,771 754,761 748,759 741,764 
		732,767 721,768 711,766 702,763 694,759 687,754 681,748 677,740 675,730 675,720 673,710 668,703 662,697 654,700 646,701 
		636,699 626,697 620,691 617,682 613,674 611,664 609,654 607,644 601,638 592,637 585,632 580,625 573,620 567,614 562,607 
		560,597 559,586 560,575 563,566 568,558 572,551 565,546 557,542 551,536 545,530 541,522 541,510 537,502 533,494 535,484 
		537,474 539,463 544,456 550,450 557,445 564,440 571,435 580,434 590,436 599,439 607,443 616,446 621,453 627,459 631,467 
		635,475 645,477 652,482 659,485 669,483 679,481 688,478 698,479 709,479 717,483 723,489 730,494 737,499 741,507 741,517 
		749,519 759,518 771,517 782,518 791,520 802,518 812,520 822,518 831,515 841,513 852,514 860,518 867,523 874,528 881,533 
		888,538 893,545 899,551 900,562 898,572 895,580 890,588 885,595 880,602 874,608 866,612 857,614 858,622 863,629 869,635 
		875,641 878,650 878,662 875,671 872,679 867,686 861,693 855,699 850,705 842,706 844,716 851,719 859,716 870,716 879,719 
		886,724 891,731 898,736 905,741 912,746 917,753 922,760 926,768 928,778 926,787 923,797 919,805 915,812 908,817 901,823 
		894,827 886,831 878,835 	"/>
	<polygon display="inline" fill="#FF0000" stroke="#800080" points="594,360 584,358 573,357 563,357 555,353 553,343 546,338 
		539,333 536,324 536,314 537,303 539,293 543,285 552,283 556,280 553,271 558,263 566,260 576,257 585,254 594,255 605,256 
		614,259 620,265 624,273 627,282 630,291 633,300 631,310 630,320 626,328 620,335 617,342 613,350 607,355 598,358 	"/>
	<polygon display="inline" fill="#FF0000" stroke="#800080" points="584,178 575,175 572,166 567,159 563,151 563,143 569,137 
		573,129 578,121 587,118 594,113 605,112 616,111 623,112 630,107 638,103 636,98 633,91 642,93 649,98 649,106 650,113 658,117 
		664,123 666,133 669,142 667,152 663,159 655,161 652,154 653,145 649,137 643,137 642,143 645,147 636,150 627,147 628,139 
		630,132 622,130 612,131 606,137 600,142 592,146 591,156 591,166 588,175 	"/>
	<polygon display="inline" fill="#FF0000" stroke="#800080" points="652,278 643,275 637,269 629,265 630,258 631,248 632,240 
		625,244 623,250 617,249 613,241 607,235 606,224 609,215 613,207 617,199 621,191 625,183 629,175 625,167 629,160 637,164 
		636,172 639,178 647,182 655,179 665,176 673,180 679,186 686,191 692,197 701,197 710,199 712,209 710,219 711,228 707,236 
		705,245 699,252 695,259 689,265 683,271 674,274 664,276 653,277 	"/>
	<polygon display="inline" fill="#FF0000" stroke="#800080" points="744,1023 743,1016 750,1011 757,1006 749,1004 742,1009 
		733,1006 731,1000 737,994 737,986 731,991 725,996 715,998 706,997 698,1001 689,1002 678,1001 673,994 666,989 656,987 649,982 
		641,978 636,971 633,962 632,952 629,944 629,934 629,924 633,915 639,909 646,905 655,902 653,894 643,894 635,890 637,881 
		639,874 634,880 627,878 624,869 622,859 618,851 619,841 622,833 623,823 627,816 632,808 639,803 647,805 654,803 659,795 
		668,794 678,796 687,799 697,801 706,800 712,806 714,816 722,820 725,829 724,837 724,844 723,852 718,860 718,869 712,876 
		707,883 701,889 694,894 686,895 683,901 691,901 688,908 689,915 694,922 693,931 697,939 696,949 689,946 685,955 688,962 
		698,961 707,957 711,949 713,941 718,935 712,929 706,923 702,915 700,907 705,899 709,891 720,892 726,898 732,904 738,910 
		748,912 756,909 760,901 760,893 755,888 749,892 744,899 740,891 733,886 735,878 736,867 727,867 723,861 729,862 736,856 
		743,856 741,848 738,839 736,831 740,822 749,819 758,816 769,815 778,812 785,817 796,816 806,816 814,820 824,820 833,823 
		837,831 844,836 849,843 854,850 853,859 862,860 874,860 880,866 886,872 891,879 889,887 894,894 901,899 910,902 921,903 
		930,900 937,905 938,914 936,920 943,925 951,924 957,918 965,913 973,910 981,906 990,902 999,899 1009,897 1011,890 1008,881 
		999,878 989,876 979,874 974,867 965,864 959,858 954,851 949,844 945,836 940,829 938,819 937,808 940,799 945,791 950,784 
		956,779 963,773 971,769 979,765 989,763 999,761 1010,760 1021,761 1030,764 1038,768 1046,772 1052,778 1058,784 1063,791 
		1069,797 1074,804 1080,810 1086,816 1092,822 1098,828 1102,836 1105,845 1107,855 1107,867 1107,877 1105,887 1103,897 1099,905 
		1094,912 1088,917 1080,922 1072,925 1063,928 1053,929 1055,937 1059,945 1060,956 1061,967 1059,976 1056,986 1052,994 
		1047,1001 1040,1006 1033,1010 1024,1014 1016,1017 1006,1015 999,1010 991,1014 983,1018 972,1019 963,1016 956,1011 950,1005 
		947,996 941,990 940,981 934,980 929,987 920,989 910,991 900,989 894,983 885,980 880,973 874,967 874,959 870,951 864,945 
		860,937 854,931 845,928 840,921 836,913 832,905 835,895 839,888 837,882 830,885 824,880 823,887 827,895 826,904 829,913 
		826,920 819,924 811,920 805,914 805,906 806,898 806,895 799,901 796,907 794,914 797,923 801,931 797,938 787,938 780,936 
		774,941 765,938 761,932 769,927 776,925 773,916 767,918 758,917 751,920 746,928 754,932 754,940 754,946 757,955 753,963 
		748,970 743,977 745,983 753,980 760,974 768,976 769,985 771,993 778,998 784,992 791,995 789,1005 785,1013 779,1019 771,1016 
		765,1022 	"/>
	<polygon display="inline" fill="#FF0000" stroke="#800080" points="906,0 914,4 922,8 928,14 932,22 934,32 934,44 934,53 929,61 
		924,67 918,74 914,82 906,85 897,84 887,86 879,82 879,89 882,98 882,110 881,121 877,128 871,134 864,139 857,144 850,149 
		840,151 830,153 820,151 810,149 801,146 795,140 788,140 788,150 784,158 778,164 772,169 765,175 756,177 745,178 734,177 
		724,175 715,172 707,168 701,162 696,155 692,147 694,137 691,128 689,120 688,111 694,105 700,98 708,94 718,92 728,94 739,95 
		751,95 761,94 772,94 777,88 780,79 784,71 788,63 782,65 776,71 768,76 762,81 752,79 743,76 737,70 731,64 727,56 727,46 726,35 
		716,35 706,33 699,28 691,24 683,20 679,12 672,7 670,0 	"/>
	<polygon display="inline" fill="#FF0000" stroke="#800080" points="965,736 954,735 944,733 935,730 928,725 922,719 917,712 
		912,705 909,696 908,685 911,676 916,668 920,661 926,654 933,649 940,644 948,640 956,637 966,634 972,629 969,620 967,610 
		965,600 965,590 969,581 972,573 980,568 976,561 972,553 969,544 966,535 961,528 956,521 950,515 943,510 943,499 946,491 
		950,482 954,475 959,468 966,463 973,458 982,454 991,452 1002,452 1012,454 1021,457 1029,461 1035,467 1042,472 1047,479 
		1054,484 1057,493 1064,495 1070,489 1077,483 1084,479 1093,476 1105,475 1116,476 1127,477 1139,477 1148,480 1157,483 1165,487 
		1172,492 1177,499 1182,506 1189,511 1193,519 1195,529 1194,540 1192,549 1188,558 1184,565 1179,572 1174,579 1168,585 1160,590 
		1153,594 1145,598 1135,600 1124,601 1114,599 1105,596 1096,593 1089,588 1082,583 1075,578 1072,588 1074,597 1071,606 1068,616 
		1064,623 1058,629 1052,636 1047,642 1041,648 1034,653 1026,657 1016,659 1014,666 1013,677 1011,687 1014,694 1012,703 1007,710 
		1001,716 993,721 987,727 980,731 971,734 	"/>
	<polygon display="inline" fill="#FF0000" stroke="#800080" points="1001,394 991,392 983,388 973,386 968,379 961,374 954,369 
		949,362 945,354 944,345 944,335 943,325 945,316 944,307 949,300 956,295 962,288 970,284 978,282 985,277 995,279 1004,282 
		1013,283 1023,285 1032,288 1035,297 1035,307 1045,307 1054,308 1058,316 1059,325 1061,335 1059,345 1057,355 1053,363 1048,370 
		1042,375 1036,381 1029,387 1021,390 1012,393 	"/>
	<polygon display="inline" fill="#FF0000" stroke="#800080" points="1050,1023 1054,1017 1062,1012 1069,1008 1077,1003 1077,994 
		1073,986 1071,976 1072,965 1076,956 1079,948 1084,940 1090,934 1097,929 1105,925 1113,922 1122,918 1132,916 1143,915 1153,913 
		1162,910 1170,906 1176,901 1184,897 1194,894 1206,894 1215,893 1219,886 1217,876 1214,867 1208,861 1204,853 1200,845 1198,835 
		1199,826 1203,818 1210,813 1219,809 1231,809 1242,808 1251,805 1259,801 1268,799 1277,797 	"/>
</g>
<g id="Single_nuclei" opacity="0.5">
	<polygon fill="#00FF00" stroke="#800080" points="0,628 6,622 15,620 25,617 32,612 41,609 52,610 62,612 69,617 77,621 83,627 
		88,634 92,642 95,651 97,661 98,672 96,681 90,687 82,692 74,696 65,699 59,704 49,706 41,702 33,706 24,709 14,707 7,702 
		0.198,694.781 	"/>
	<polygon fill="#00FF00" stroke="#800080" points="81,565 71,563 59,563 51,559 42,556 35,551 30,544 26,536 25,525 25,515 25,503 
		29,495 34,488 37,478 43,473 48,466 55,460 64,457 73,454 83,454 92,457 100,461 106,467 112,473 116,481 121,488 123,496 128,503 
		128,512 127,524 125,533 119,540 112,545 108,553 102,559 94,562 84,564 	"/>
	<polygon fill="#00FF00" stroke="#800080" points="211,622 201,620 191,620 182,617 174,613 168,607 164,599 161,590 157,582 
		159,571 163,564 162,555 165,548 168,539 174,532 182,529 190,525 198,521 206,516 216,516 225,517 234,518 243,521 249,527 
		254,534 259,541 263,549 267,557 268,568 269,577 266,585 261,592 254,598 249,604 242,610 234,613 223,614 217,620 	"/>
	<polygon fill="#00FF00" stroke="#800080" points="336,897 326,895 316,893 309,888 303,882 297,876 291,870 289,860 284,853 
		282,843 281,832 281,822 287,816 293,809 300,804 308,800 319,799 330,798 341,797 351,799 360,802 367,807 375,811 380,818 
		382,828 383,839 383,850 380,860 376,867 372,875 366,882 360,887 353,893 344,895 	"/>
	<polygon fill="#00FF00" stroke="#800080" points="519,450 507,450 496,449 488,445 480,441 472,437 466,431 460,425 455,418 
		451,410 448,401 449,390 454,383 459,376 463,368 468,361 475,355 484,353 490,347 500,346 510,344 521,345 527,351 532,358 
		539,363 541,371 549,373 555,379 558,388 561,397 562,408 561,417 558,426 554,433 547,439 541,445 532,448 522,449 	"/>
	<polygon fill="#00FF00" stroke="#800080" points="549,788 538,787 526,787 516,785 508,781 502,775 502,765 500,755 494,749 
		492,739 493,730 498,723 502,715 506,707 509,698 514,691 520,684 529,683 539,684 551,683 561,683 570,686 575,693 580,700 
		585,707 590,714 594,722 595,733 593,743 591,752 587,761 582,767 576,773 569,778 562,783 554,787 	"/>
	<polygon fill="#00FF00" stroke="#800080" points="830,450 818,450 810,446 800,446 791,443 784,438 778,432 778,422 777,411 
		773,403 768,396 765,387 760,380 759,371 763,363 769,356 775,350 782,345 790,342 802,341 812,343 822,345 831,348 838,353 
		845,358 852,363 856,371 859,380 862,389 862,401 860,411 859,421 855,430 849,436 843,442 837,447 	"/>
	<polygon fill="#00FF00" stroke="#800080" points="823,276 811,276 802,273 795,268 788,263 782,257 779,248 775,240 770,233 
		767,224 767,216 766,205 769,196 775,189 779,181 784,174 791,170 802,168 812,167 824,166 833,166 842,168 849,173 855,179 
		859,187 861,197 863,207 865,217 867,227 869,237 866,246 861,253 856,259 849,264 842,269 834,273 824,275 	"/>
	<polygon fill="#00FF00" stroke="#800080" points="1194,792 1184,790 1174,788 1166,784 1160,778 1154,772 1149,765 1146,756 
		1145,745 1147,735 1151,726 1156,720 1162,714 1169,708 1176,704 1186,701 1197,700 1207,702 1217,704 1226,707 1234,711 1241,716 
		1247,722 1253,728 1257,736 1257,746 1254,755 1250,762 1245,770 1241,778 1234,783 1226,786 1216,788 1206,790 1197,791 	"/>
	<polygon fill="#00FF00" stroke="#800080" points="0,52 9,49 18,46 27,43 37,43 48,44 58,46 66,50 74,54 82,58 87,65 91,73 96,80 
		96,92 97,103 96,113 92,121 88,129 82,135 74,140 67,145 60,149 52,153 42,155 32,157 22,159 11,158 2,155 	"/>
	<polygon fill="#00FF00" stroke="#800080" points="37.75,293.5 31,293 24,288 17,283 11,277 7,269 3,261 1,251 2,240 9,234 14,228 
		20,222 20,210 22,200 25,191 28,182 32,174 37,167 42,160 50,155 61,154 71,153 81,154 89,158 97,162 104,167 111,172 114,181 
		117,190 119,200 120,211 124,219 123,230 120,238 116,246 112,255 108,263 104,271 98,277 92,282 85,287 77,291 66,292 55,293 
		43,293 	"/>
	<polygon fill="#00FF00" stroke="#800080" points="159,97 148,96 139,93 129,91 120,88 114,82 108,76 103,69 100,60 98,50 95,41 
		96,30 98,20 103,13 109,7 118,3 127,1 139,0 150,1 159,4 167,8 175,12 183,16 189,22 195,28 200,35 203,44 205,54 205,64 203,73 
		198,80 192,86 185,92 176,94 165,96 	"/>
	<polygon fill="#00FF00" stroke="#800080" points="156,228 144,228 133,227 127,221 123,213 121,203 118,194 117,183 116,172 
		118,162 120,151 125,145 131,138 136,132 145,128 155,126 166,125 174,127 183,130 191,134 199,138 206,143 212,149 215,158 
		218,167 215,176 212,185 209,193 204,200 199,207 193,214 188,221 183,227 173,227 161,227 	"/>
	<polygon fill="#00FF00" stroke="#800080" points="216,420 205,419 194,418 187,413 181,407 174,402 168,396 161,391 157,383 
		157,371 159.25,360.5 162,352 168,346 175,340 181,335 188,329 195,324 202,319 209,314 221,314 232,315 244.961,318.188 249,322 
		252,331 254,341 257,350 259,360 262,369 264,379 264,388 260,397 255,403 247,407 238,411 230,414 221,418 	"/>
	<polygon fill="#00FF00" stroke="#800080" points="245.64,315.696 239,315 228,314 218,312 211,307 206,300 202,292 198,284 
		197,274 198,264 199,253 204,245 212,241.5 220,237 230,235 238,231 245,226 253,223 262,220 272,221 280.558,224.833 
		287.156,229.631 294.354,234.729 299.752,240.127 305.448,246.725 309.648,253.923 311.448,262.919 312,271 309,280 303,285 
		296,290 289,295 282,300 275,306 267,309 258,313 252.212,314.562 	"/>
	<polygon fill="#00FF00" stroke="#800080" points="298.666,394.782 291,394 281,392 271,390 265,384 263,374 260,365 258,355 
		255,346 253,336 251,326 253.118,317.962 260,314 268,311 275.78,306.631 282.804,301.646 289.376,295.981 297.76,290.089 
		305.239,286.463 313,283 325,283 334.018,286.69 340,292 344,300 346.481,307.537 350,318 350,330 350,342 349,353 347,362 
		342,370 338,378 331.298,382.998 324,387 315,391 306,394 	"/>
	<polygon fill="#00FF00" stroke="#800080" points="177,832 165,832 154,831 145,828 137,824 130,819 125,812 121,804 117,796 
		114,787 114,776 118,769 120,759 124,750 129,743 132,735 138,728 144,723 152,724 158,730 168,732 177,733 184,738 191,743 
		199,745 206,750 212,756 216,764 217,775 216,786 213,795 208,802 205,810 200,817 194,824 187,828 178,831 	"/>
	<polygon fill="#00FF00" stroke="#800080" points="214,740 203,739 194,736 186,732 179,727 175,719 172,710 171,699 165,693 
		161,685 163,675 160,666 164,657 170,651 177,646 182,639 190,636 198,632 208,629 218,631 228,633 236,637 242,643 249,648 
		254,655 256,665 258,673 262,681 261,692 258,701 253,708 248,715 243,722 237,728 230,732 222,736 	"/>
	<polygon fill="#00FF00" stroke="#800080" points="450,704 439,703 432,698 422,696 417,689 412,682 407,675 405,665 402,656 
		402,644 402,634 404,624 411,618 417,613 425,608 434,607 444,606 454,605 463,604 472,607 481,610 487,616 492,623 500,627 
		505,634 508,643 510,653 508,663 504,671 499,678 494,685 489,692 483,697 475,701 464,702 453,703 	"/>
	<polygon fill="#00FF00" stroke="#800080" points="385,803 374,802 366,798 360,792 352,788 347,781 345,773 345,763 342,754 
		344,744 345,735 346,726 352,719 358,713 364,708 371,702 379,698 388,695 399,696 409,698 419,700 427,704 433,710 438,717 
		444,723 447,732 448,743 448,753 443,760 438,767 435,776 428,781 418,783 410,787 404,792 396,797 389,802 	"/>
	<polygon fill="#00FF00" stroke="#800080" points="801,805 790,804 780,802 773,797 766,792 761,785 757,777 755,767 757,757 
		760,748 763,738 765,729 767,719 767,707 766,696 772,689 784,689 794,691 805,692 815,694 824,697 833,700 841,704 844,713 
		845,723 842,733 841,744 840,755 838,765 835,774 831,782 826,789 820,795 813,799 805,803 	"/>
	<polygon fill="#00FF00" stroke="#800080" points="845,699 835.643,699.228 825.308,696.166 816.887,693.297 805.978,691 
		796.026,689.469 785.307,687.745 773.632,687.553 768.848,686.405 767.317,683.344 765.166,677.334 763.87,670.712 765,662 
		770,655 776,650 781,643 787,636 792,630 799,624 806,619 815,616 827,616 838,617 848,619 857,622 863,628 869,634 874,641 
		877,650 878,661 875,670 871,678 865,684 860,690 853,695 	"/>
	<polygon fill="#00FF00" stroke="#800080" points="875,836 866,833 857,830 849,826 843,820 837,814 831,808 829,798 832,789 
		835,780 838,771 841,762 842,751 844,741 845,730 849,722 856,717 867,715 876,718 884,722 890,728 895,735 902,740 910,744 
		916,750 920,758 925,765 928,774 927,784 924,793 920,802 916,810 910,816 903,821 897,826 889,830 881,834 	"/>
	<polygon fill="#00FF00" stroke="#800080" points="569.613,547.836 562.149,545.538 552,540 548,532 544,524 542,514 539,505 
		536,496 534,486 533,477 535,467 536,456 541,449 549,444 556,440 564,435 573,434 584,435 594,437 603,440 610,445 618,449 
		625,454 631,460 638,465 644,471 647,480 648,491 646,501 643,510 640,519 637,528 633.155,538.839 626.073,541.517 614,540 
		601.767,541.135 592.963,543.051 585.307,545.729 578.225,546.686 	"/>
	<polygon fill="#00FF00" stroke="#800080" points="672,580 664,576 659,569 653,563 648,556 642,550 638,542 636.983,537.498 
		638,526 641,516 644,507 647,498 650,489 655,482 664,479 673,476 684,475 696,475 708,475 716,479 725,482 733,486 736,495 
		739,504 741,512 738,521 735,530 731,538 728,546 724,554 719,562 715,569 710,576 699.375,579.221 688.276,580.178 
		679.089,580.37 	"/>
	<polygon fill="#00FF00" stroke="#800080" points="786.296,618.388 777.293,619.605 768,617 759,614 751,610 743,606 736,601 
		729,596 721,592 716,585 716,573 720,565 724,557 728,549 732,541 736,533 742.011,526.652 749.311,522.515 757,518 768,516 
		779,515 789,514 800,512 809,515 814,522 813,531 812,542 810,552 808,562 808,572 809,583 810,594 808,603 801,609 795,614 	"/>
	<polygon fill="#00FF00" stroke="#800080" points="847.374,614.496 839,614 829,612 820,609 813.551,604.032 810,595 810,583 
		809.656,570.452 809.9,559.989 812,549 813,538 815.497,524.219 821.337,518.866 829,517 839,515 851,515 859,519 867,523 874,528 
		881,533 888,538 892.634,543.199 898,552 899.691,559.746 899.934,570.209 898.231,577.509 894,585 888,592 883,599 877,604 
		868,608 860,611 854.674,613.035 	"/>
	<polygon fill="#00FF00" stroke="#800080" points="594.685,636.066 585.881,633.578 579,631 572,626 567,619 564,610 560,602 
		557,593 558,584 560,573 562,564 567,556 573.058,553.193 581.096,548.6 592,545 602,543 613,542 623.394,543.241 630.666,544.965 
		638,549 645,554 651,560 656,567 662,573 666,581 668,591 666,601 661,607 653,611 645,615 636,619 628,622 623.777,626.687 
		614.781,632.048 608.082,635.302 601.767,636.64 	"/>
	<polygon fill="#00FF00" stroke="#800080" points="623.394,696.736 618.609,693.099 614.399,686.018 611.909,678.553 
		609.614,669.177 609.422,658.266 608.465,648.507 609.805,640.277 614,634 622,630 629.71,623.052 637.747,619.032 645,617 
		653,612 661,608 669,606 679,608 689,610 695,616 701,622 707,628 712.965,639.32 713.922,651.186 710.668,658.267 704.16,662.861 
		696.314,668.411 690.573,674.153 684.639,679.704 678.898,686.785 672.58,692.909 663,695 653,697 642,698 630,698 	"/>
	<polygon fill="#00FF00" stroke="#800080" points="735.163,767.364 726.935,767.938 715,767 705,765 695.164,761.43 687.51,754.925 
		680.811,747.459 678.132,737.125 678.705,725.64 679.854,717.411 676.218,710.713 672.773,703.056 672.964,696.928 
		677.106,690.871 683.108,684.679 687.319,678.938 692.867,673.77 699.568,667.645 707.413,662.287 716.219,661.138 
		725.597,662.287 734,665 741,670 748,675 754,681 759.278,690.043 762.149,698.271 764.254,708.032 765.211,719.134 
		762.723,731.384 760,741 757.747,751.095 753,758 746,763 739,767 	"/>
	<polygon fill="#00FF00" stroke="#800080" points="577,363 567,361 557,359 550,354 544,348 538,342 534,334 533,323 531,313 
		533,303 535,293 538,284 542.613,277.755 548.238,269.131 553,262 560,257 567,253 577,250 588,249 599,250 608,253 615,258 
		621,264 626,271 631,278 633,288 633,300 633,312 631,321 627,329 622,337 617,344 611,350 605,355 596.981,359.119 587,362 	"/>
	<polygon fill="#00FF00" stroke="#800080" points="982,1019 971,1018 962,1015 955,1010 950,1003 945,996 941,988 940,979 941,967 
		942,957 943,946 945,936 948,927 954,920 961,915 969,911 977,908 985,904 994,901 1005,901 1013,905 1021,909 1028,914 1035,919 
		1041,925 1048,930 1054,936 1059,943 1060,954 1061,965 1059,975 1056,984 1053,993 1048,1000 1042,1005 1034,1009 1026,1013 
		1017,1016 1007,1016 1001,1010 993,1014 984,1018 	"/>
	<polygon fill="#00FF00" stroke="#800080" points="1012,885 1002,883 993,880 983,878 974,875 966,871 960,865 954,859 948,853 
		945,844 942,835 938,827 935,818 933,810 934,799 937,790 944,784 951,779 957,774 964,768 970,763 977,758 986,756 996,758 
		1007,759 1017,761 1027,763 1037,765 1044,770 1048,778 1053,785 1057,793 1061,801 1061,808 1053,812 1044,815 1038,821 1031,827 
		1025,833 1022,842 1020,851 1017,861 1015,871 1013,881 	"/>
	<polygon fill="#00FF00" stroke="#800080" points="1073,931 1062,930 1051,929 1043,925 1036,920 1029,915 1023,909 1017,903 
		1013,895 1012,886 1014,876 1016,866 1018,856 1021,846 1023,837 1028,830 1034,824 1041,818 1048,813 1059,812 1070,811 1079,814 
		1088,817 1097,820 1101,828 1105,836 1107,846 1108,857 1109,868 1111,878 1108,887 1105,896 1102,905 1097,912 1091,917 1084,922 
		1077,928 	"/>
	<polygon fill="#00FF00" stroke="#800080" points="648,896 638,894 629,891 624,884 622,874 620,864 620,852 621,841 621,829 
		624,820 629,813 635,806 640,800 647,794 658,793 669,792 680,791 690,791 697,796 704,801 711,806 718,811 721,820 723,830 
		724,841 721,850 718,859 716,868 713,878 707,883 700,888 690,891 681.959,893.228 670.261,894.963 658.128,896.261 	"/>
	<polygon fill="#00FF00" stroke="#800080" points="912.856,0 919.041,3.362 924.313,8.634 930,14.333 933.834,20.833 
		936.834,31.167 936.834,43.833 934,53 930.166,62.167 926.166,69.833 920.166,76.167 914,82 906,85 898.166,87.5 887,86 879,82 
		871,78 864,73 858.166,66.5 853,60 847.166,53.167 842.166,44.5 839.05,36.469 838.769,25.995 839.613,14.96 842.354,6.314 
		846.853,0 	"/>
	<polygon fill="#00FF00" stroke="#800080" points="831,153 821,151 811,149 802,146 796,140 789,135 786,126 783,117 780,108 
		776,100 775,93 778,84 782,75 787.834,69.5 794,63 801,58 809,54 817,51 827,48 835.5,49.833 842.834,52.167 849,58 854,65 860,71 
		866,77 873,82 879,88 882,97 882,109 881,120 877,128 871,134 864,139 858,144 850,149 841,151 	"/>
	<polygon fill="#00FF00" stroke="#800080" points="732,179 721,178 714,173 706,169 700,163 695,156 691,148 690,139 692,128 
		693,118 697,109 702,102 707,95 713,90 720,84 728,80 740,80 749,81 758,84 767,87 773,93 777,101 780,110 784,118 787,127 
		790,136 790,146 788,155 785,165 777,168 769,172 761,176 750,177 739,178 	"/>
	<polygon fill="#00FF00" stroke="#800080" points="827,0 831.5,7.833 834,17 834,29 829.834,37.167 825,43 818,48 810,53 803,57 
		796,62 788,67 780,70 772,74 764,78 757.166,78.833 746,78 737,75 731.834,69.833 727,61 724,52 723.678,43.255 727,35 732,28 
		738,22 744,16 750,10 756,4 757.967,0 	"/>
	<polygon fill="#00FF00" stroke="#800080" points="964,735 953,734 943,732 934,729 928,723 922,717 917,710 912,703 909,694 
		910,683 914,674 918,667 923,660 929,654 936,648 943,644 952,640 960,637 970,636 977.554,638.097 984.611,642.721 
		990.938,647.101 997.994,652.455 1006.997,658.538 1011,665 1012,674 1010,684 1012,692 1011,701 1007,708 1001,714 993,719 
		988,725 980,729 971,733 	"/>
	<polygon fill="#00FF00" stroke="#800080" points="993,564 982,563 975,558 971,550 968,541 964,533 959,526 954,519 947,514 
		943,506 944,497 948,488 951,480 956,472 962,466 968,461 976,456 985,453 995,451 1006,452 1015,455 1024,458 1031,463 1038,468 
		1044,474 1049,481 1055,487 1056,498 1056,510 1054,520 1053,531 1050,540 1045,546 1036,549 1026,551 1018,555 1009,559 1000,562 
			"/>
	<polygon fill="#00FF00" stroke="#800080" points="1023,659 1012,658 1004.077,654.158 997.021,649.778 989.721,643.938 
		981.934,638.828 977,633 971.714,626.418 969,617 966,608 965,597 966,587 970,579 975,573 984,569 993,566 1002,563 1011,560 
		1019,557 1029,554 1038,551 1048,551 1056,555 1061,562 1065,570 1069,578 1072,587 1074,597 1071,606 1068,615 1064,623 1058,629 
		1052,635 1047,642 1041,647 1034,653 1027,657 	"/>
	<polygon fill="#00FF00" stroke="#800080" points="1132,601 1120,601 1111,598 1102,595 1093,592 1087,586 1080,581 1075,574 
		1070,567 1065,560 1061,552 1058,543 1058,533 1060,522 1061,512 1063,502 1066,493 1072,487 1079,482 1087,477 1097,475 1109,475 
		1120,476 1131,477 1142,478 1151,481 1160,484 1168,488 1173,495 1179,501 1184,508 1190,514 1192,524 1194,534 1193,545 1190,554 
		1186,562 1181,569 1176,576 1171,582 1164,587 1157,592 1149,596 1140,599 	"/>
	<polygon fill="#00FF00" stroke="#800080" points="1004,391 992.832,390.166 983,388 974,385 967,380 960,375 954,369 947,364 
		943,356 941,346 939.166,334.5 939,326 941,316 943,306 947.166,296.833 952,290 959,285 966,281 975,277 986,276 996,275 
		1006,276 1015,279 1023,283 1031,287 1037,293 1044,298 1051,303 1056.166,309.166 1060,318 1061,329 1063,339 1061.5,348.5 
		1058,356 1053,363 1048,369 1042,375 1036.832,382.166 1029.166,387.166 1019.166,389.5 1010.832,391.833 	"/>
	<polygon fill="#00FF00" stroke="#800080" points="1160,1021 1148,1021 1136,1021 1125,1020 1115,1018 1106,1015 1097,1012 
		1090,1007 1083,1002 1078,995 1073.166,987.168 1071,978 1069.834,969.168 1072,961 1076,952 1080,944 1085,937 1093,933 1101,929 
		1108,925 1117,921 1127,919 1137,917 1147,915 1154.5,918.834 1153.5,937.5 1154.834,949.5 1157.834,957.834 1162.166,968.168 
		1165.166,975.834 1168.5,982.168 1172.834,989.168 1175,995 1180.166,1003.5 1178.166,1013.168 1170.166,1018.5 	"/>
	<polygon fill="#00FF00" stroke="#800080" points="667.587,0 669.254,6.616 671.242,11.923 674.561,17.451 678.761,21.652 
		684.51,25.632 689.817,29.833 695.785,32.928 703.082,35.803 710.157,37.572 717.013,38.235 722.098,36.908 725.636,34.918 
		728.732,31.159 730.722,28.064 733.596,25.19 736.692,21.21 740.008,18.556 742.882,15.24 745.093,13.029 747.968,9.933 
		749.957,8.164 752.831,5.732 755.043,3.079 756.432,0.06 	"/>
	<polygon fill="#00FF00" stroke="#800080" points="1062.079,63.705 1059.539,74.289 1060.811,86.989 1063.351,99.689 
		1068.007,111.966 1077.321,120.432 1086.211,127.629 1095.101,133.132 1107.801,136.095 1121.771,136.095 1136.163,134.402 
		1149.286,127.205 1161.565,117.469 1169.608,104.769 1176.804,93.762 1181.884,82.332 1185.695,68.785 1185.695,57.779 
		1182.731,47.618 1178.496,37.459 1175.533,26.875 1167.49,20.525 1159.448,17.985 1148.018,20.102 1138.703,24.335 
		1133.623,23.489 1128.12,20.948 1122.616,22.219 1117.536,27.299 1112.457,34.072 1103.99,39.152 1094.254,42.115 1082.823,43.808 
		1075.203,45.925 1068.854,50.158 1065.467,55.239 	"/>
	<polygon fill="#00FF00" stroke="#800080" points="1132.194,166.202 1126.67,159.132 1120.076,152.182 1110.764,145.832 
		1104.837,141.599 1098.488,137.789 1092.137,134.825 1083.246,135.249 1075.203,140.329 1069.699,147.526 1062.927,150.066 
		1057.424,154.299 1053.615,161.495 1047.688,167.422 1042.608,176.312 1042.184,183.51 1048.111,186.896 1049.804,192.399 
		1049.381,198.749 1049.804,206.792 1053.615,210.602 1060.387,213.566 1062.504,216.952 1062.079,222.879 1065.467,227.959 
		1073.511,230.075 1082.823,231.345 1091.714,233.462 1101.028,233.885 1112.033,230.922 1119.655,226.689 1126.851,220.339 
		1131.507,213.989 1137.434,206.792 1139.551,197.055 1137.434,185.202 1135.74,174.619 	"/>
	<polygon fill="#00FF00" stroke="#800080" points="1279.828,31.381 1270.553,29.225 1263.166,29.225 1253.198,31.81 
		1243.966,34.395 1236.211,37.349 1228.087,41.042 1221.072,45.473 1214.793,50.273 1210.733,58.028 1208.148,66.152 
		1208.148,74.275 1210.363,82.399 1217.01,86.461 1224.026,90.523 1232.47,94.412 1240.274,96.802 1246.551,99.755 
		1252.459,101.232 1257.614,103.023 1263.469,103.885 1268.635,104.056 1274.319,105.606 1280,106.295 	"/>
	<polygon fill="#00FF00" stroke="#800080" points="1280,107.501 1277.245,107.156 1274.49,106.639 1271.219,105.951 
		1268.291,105.434 1265.534,105.09 1263.296,106.469 1262.091,108.879 1260.713,111.462 1259.162,114.389 1258.475,117.317 
		1258.647,120.934 1258.647,124.206 1260.367,126.272 1262.5,129.25 1264.75,133 1265.25,136.25 1265.5,140.75 1266.75,144.75 
		1269,147.75 1272,151.25 1275.5,154.25 1280,155.899 	"/>
	<polygon fill="#00FF00" stroke="#800080" points="655.474,100.027 647.975,92.528 638.976,87.654 628.852,86.904 621.728,87.279 
		612.729,90.278 602.606,94.403 595.856,98.152 589.482,103.027 581.608,107.901 575.609,116.525 569.235,124.774 565.485,133.023 
		561.736,142.397 560.611,152.895 563.986,156.27 566.61,162.269 570.36,168.643 573.359,174.268 577.109,178.767 582.733,181.392 
		587.982,185.141 592.107,189.266 598.856,191.89 605.23,190.765 611.604,187.766 617.604,185.141 623.978,181.767 630.727,178.017 
		637.476,174.268 644.975,171.268 651.725,171.643 657.724,170.518 664.473,166.769 668.597,160.769 672.347,155.895 
		673.847,147.271 672.347,138.647 670.847,130.398 668.597,123.274 665.598,116.9 660.348,107.901 	"/>
	<polygon fill="#00FF00" stroke="#800080" points="604.48,212.513 603.356,219.637 602.981,228.261 603.73,236.885 606.73,247.01 
		612.354,253.383 619.478,259.382 624.728,265.006 629.977,271.756 634.477,278.13 640.476,282.629 649.1,283.379 657.724,282.254 
		666.723,279.255 675.347,277.005 683.221,273.255 689.595,268.381 695.219,263.882 700.468,256.383 706.468,248.51 
		712.467,242.135 716.591,234.635 717.341,226.761 716.966,219.637 716.591,212.138 716.216,206.138 714.342,200.889 
		710.592,199.014 705.343,197.14 700.093,195.64 694.844,192.64 693.344,189.266 690.72,184.391 685.845,180.267 677.596,177.267 
		669.722,175.017 662.223,173.893 654.724,173.893 646.85,174.268 641.226,175.767 635.226,177.267 629.977,180.642 
		625.103,184.391 617.979,188.891 611.23,194.89 607.855,202.014 	"/>
	<polygon fill="#00FF00" stroke="#800080" points="384.216,232.484 380.726,240.161 381.074,250.98 386.31,260.403 392.592,266.685 
		400.968,271.92 409.343,275.76 418.766,279.249 427.84,279.597 437.612,279.249 445.638,280.645 452.967,280.993 459.248,278.552 
		463.088,270.524 466.927,261.45 470.765,253.423 476,245.745 479.49,239.464 481.933,231.088 482.281,222.712 479.839,216.43 
		478.002,205.725 475.651,197.204 468.892,188.095 461.547,181.043 455.082,176.929 446.854,173.697 435.168,171.76 428.537,171.41 
		421.558,172.806 415.693,175.814 410.39,180.135 406.201,185.021 403.409,192.001 401.664,197.934 398.872,204.564 397.128,209.45 
		394.337,217.477 390.149,225.504 387.705,229.692 	"/>
	<polygon fill="#00FF00" stroke="#800080" points="219.143,109.988 212.861,112.78 208.324,116.969 205.881,122.901 
		205.183,131.625 206.579,139.652 210.767,145.585 213.908,150.82 218.096,156.753 223.331,160.592 228.566,166.524 
		234.847,170.363 242.176,174.552 249.156,179.786 255.089,186.417 260.324,192.001 260.673,197.236 265.21,202.47 269.398,206.309 
		278.471,209.101 284.404,210.846 292.78,212.591 300.109,213.638 306.391,214.336 311.974,214.336 318.256,213.987 
		322.095,211.893 330.82,208.054 335.357,202.82 339.545,197.585 340.242,189.907 337.8,182.927 335.008,176.296 334.31,169.665 
		333.263,163.733 332.565,156.404 333.612,149.075 333.612,140.699 333.263,134.766 329.773,129.182 325.236,123.249 
		320.698,117.317 314.416,112.431 309.531,108.941 304.646,104.753 298.713,100.565 291.733,96.726 286.498,95.33 277.773,95.679 
		271.491,93.236 264.511,93.585 257.183,97.773 251.25,98.471 243.223,100.914 235.197,104.404 227.519,106.498 	"/>
	<polygon fill="#00FF00" stroke="#800080" points="344.219,187.726 341.899,192.714 340.203,199.07 336.815,204.154 
		333.849,208.391 328.764,211.357 324.528,213.899 319.02,216.017 310.121,216.441 300.801,216.441 293.174,215.17 286.819,213.899 
		280.464,212.628 276.65,214.746 274.955,218.135 278.345,220.677 283.853,223.22 288.09,225.762 291.903,229.575 297.411,233.388 
		302.072,237.625 305.461,242.71 308.427,248.219 310.969,253.302 312.24,258.386 313.088,263.047 316.054,266.437 322.408,267.708 
		330.459,266.437 338.086,266.437 344.441,264.742 352.068,263.471 357.998,260.505 362.659,254.997 366.897,249.489 
		370.285,246.099 373.252,242.286 376.642,238.473 380.454,233.388 384.268,230.423 388.971,224.911 391.471,219.406 
		394.927,211.389 397.825,202.459 400.561,196.74 402.487,190.595 402.492,185.472 401.64,181.698 398.674,177.461 395.707,172.377 
		391.895,169.411 387.657,166.869 382.573,164.75 377.066,164.326 371.134,164.75 366.05,167.716 360.117,174.072 356.304,177.885 
		351.22,180.851 346.56,184.24 	"/>
	<polygon fill="#00FF00" stroke="#800080" points="114,257.75 111.25,266.5 111,275 111.75,280 107,281.5 103,286.25 103.25,294.75 
		104.75,299.25 108.25,302.5 110.5,306.75 111.75,314 113,320.25 115,326.75 118.75,332.75 122.75,337.25 127.75,343 134.5,346.75 
		141.25,349.25 148.75,349.5 155.5,348.25 161.25,346.25 167.25,342.5 171.75,339.75 176,336 180,333.5 183.75,329.5 188.25,327 
		192.75,322.5 196.75,319.5 201.75,315.5 204.25,310.75 206,306.5 204.75,301.25 202.5,295.5 198.5,288.75 196.5,283.5 195.25,276 
		195,269 196,263.25 197,256.5 199,251.75 201.5,246.25 202.75,242 201.25,238.5 197.75,235.5 189.75,233.25 182,232 175.75,231 
		169,230.5 160,229.5 154,229.5 147.5,229.5 142.5,231.5 135.5,235 131,239.25 125.75,244.75 121.25,249.25 118,253.25 	"/>
	<polygon fill="#00FF00" stroke="#800080" points="651.196,901.463 642.096,903.629 634.73,906.227 627.798,912.295 624.33,923.559 
		624.33,934.391 624.765,943.926 625.198,953.89 628.231,964.289 632.564,973.388 639.93,981.621 651.629,989.421 662.028,992.453 
		669.394,997.219 679.36,999.385 691.491,1000.685 699.291,998.953 706.224,998.519 714.455,998.953 721.389,997.653 
		729.621,994.186 736.988,986.387 743.054,982.054 750.42,973.388 755.618,966.456 759.519,957.356 759.951,947.824 
		755.618,936.558 751.72,929.192 748.253,921.826 742.188,914.461 734.822,905.361 728.323,899.296 718.788,893.228 
		709.257,891.496 696.692,894.095 688.892,895.395 678.06,897.561 665.061,899.296 	"/>
	<polygon fill="#00FF00" stroke="#800080" points="745.221,819.569 736.555,823.469 730.055,827.802 727.454,836.034 
		726.156,843.834 725.288,850.766 723.556,859.431 723.121,869.831 721.823,877.197 724.422,882.396 728.755,889.762 
		732.655,897.561 738.721,903.629 742.619,910.129 747.821,914.893 750.42,921.826 753.886,928.76 758.219,935.691 762.986,941.324 
		770.783,942.191 779.449,940.891 788.984,938.293 796.781,936.125 802.414,930.927 807.182,926.594 814.981,928.326 
		821.481,927.459 828.846,926.594 834.911,923.559 836.212,915.327 835.779,906.227 838.379,897.995 840.545,888.029 
		844.012,878.497 847.91,871.998 852.678,865.498 856.576,859 856.576,852.932 851.811,846.866 847.478,841.668 842.712,836.034 
		834.479,827.802 827.546,822.17 818.014,817.837 805.015,815.67 793.317,815.236 781.616,814.369 769.485,814.369 757.785,816.969 
			"/>
	<polygon fill="#00FF00" stroke="#800080" points="936.113,903.882 930.065,899.596 920.703,897.561 910.739,897.995 
		900.773,895.395 896.441,888.896 897.307,881.964 893.406,872.43 888.206,864.633 881.707,859.865 873.907,857.699 
		865.676,857.699 858.311,860.732 852.678,867.231 848.345,873.73 844.878,880.663 842.712,886.729 839.679,895.829 
		838.379,903.194 836.646,911.427 837.078,918.36 839.244,925.726 844.878,929.192 850.076,934.825 855.71,935.691 858.742,942.191 
		859.611,948.69 862.21,956.49 866.11,966.022 870.875,972.955 878.24,978.589 884.308,982.922 891.24,987.255 899.039,991.588 
		905.106,994.186 911.606,995.052 919.405,992.886 925.036,992.453 930.238,989.853 935.003,986.82 937.603,983.787 938.47,975.554 
		938.903,963.856 940.202,955.623 941.07,947.39 941.503,938.724 942.803,932.659 942.664,926.562 942.368,920.961 941.154,914.215 
		939.641,907.409 	"/>
	<polygon fill="#00FF00" stroke="#800080" points="1176.834,901.5 1170.834,905.168 1165.5,909.168 1158.834,914.168 
		1156.834,920.834 1155.5,929.834 1155.5,938.5 1156.5,947.5 1159.166,955.5 1161.5,962.5 1164.5,970.5 1168.166,977.168 
		1172.5,984.834 1176.834,991.834 1182.834,996.5 1190.834,1000.834 1199.834,1001.168 1209.166,998.168 1217.5,993.5 
		1224.834,987.834 1231.5,980.168 1236.166,973.5 1240.834,966.834 1244.166,956.5 1245.166,947.168 1243.834,935.5 
		1241.166,924.168 1236.834,913.834 1234.834,909.168 1227.166,906.5 1216.166,906.168 1209.166,907.5 1204.166,904.834 
		1199.5,901.834 1193.5,899.5 1184.166,899.168 	"/>
	<polygon fill="#00FF00" stroke="#800080" points="0,48.87 12.478,45.481 24.553,41.244 34.51,37.007 43.592,30.111 50.019,21.931 
		52.94,13.751 52.94,4.987 49.923,0 0,0 	"/>
	<polygon fill="#00FF00" stroke="#800080" points="325.624,1.124 319.617,8.418 318.33,16.999 321.762,26.009 327.34,33.731 
		333.346,43.17 338.495,51.322 343.643,59.045 350.079,66.767 356.086,75.348 361.234,82.213 368.528,87.361 375.821,89.506 
		385.26,87.79 393.412,82.213 399.418,77.064 405.854,71.487 409.286,63.764 411.431,55.612 412.719,48.319 413.148,39.309 
		412.289,28.583 409.715,18.286 404.567,9.705 400.705,4.128 398.56,0.266 	"/>
	<polygon fill="#00FF00" stroke="#800080" points="268.991,46.602 262.126,51.751 257.836,56.899 256.549,63.764 258.265,71.487 
		262.985,79.209 273.281,83.928 283.578,85.645 294.733,89.935 302.027,92.51 310.178,98.945 315.327,105.381 322.192,113.103 
		329.914,119.539 338.924,123.829 349.221,122.971 355.227,116.965 360.376,110.958 364.237,102.806 365.095,95.512 361.941,86.75 
		356.127,79.225 349.514,70.332 343.243,62.009 337.885,55.738 333.21,47.643 328.422,39.776 323.861,32.594 317.901,27.725 
		310.178,25.58 300.74,28.154 291.301,34.16 283.578,39.309 275.856,42.312 	"/>
	<polygon fill="#00FF00" stroke="#800080" points="416.834,141.162 417.171,129.99 421.167,119.496 427.31,112.246 433.393,106.67 
		444.546,102.107 457.219,100.587 467.865,100.587 480.539,101.6 490.171,108.191 499.803,118.837 505.379,127.455 512.476,135.059 
		520.588,142.156 528.698,149.253 531.834,154.829 531.834,161.829 527.167,167.496 523.167,171.829 519.167,176.496 
		514.834,180.829 510.5,185.162 505.167,188.496 500.167,191.162 492.5,193.162 483.834,193.829 474.994,192.018 464.78,180.686 
		451.532,171.908 441.477,166.002 429.507,157.863 421.226,148.746 	"/>
	<polygon fill="#00FF00" stroke="#800080" points="496.167,225.162 488.834,233.829 482.5,240.496 477.834,246.162 473.834,253.162 
		470.5,259.162 467.167,266.829 464.167,273.496 460.834,279.829 457.167,285.829 457.5,294.496 460.834,301.829 466.834,308.496 
		473.834,312.829 482.834,315.162 491.834,315.829 499.5,315.829 506.167,313.496 514.5,312.496 520.5,310.829 526.5,308.162 
		529.834,303.829 533.167,294.829 535.5,286.496 538.834,280.496 543.167,274.829 546.5,267.829 550.5,262.496 556.167,256.162 
		562.167,252.829 567.167,246.829 568.834,240.829 565.167,236.496 554.167,233.496 538.834,229.496 530.5,224.829 523.5,220.162 
		515.167,217.496 506.5,219.829 	"/>
	<polygon fill="#00FF00" stroke="#800080" points="415.4,1024.086 417.615,1016.626 421.894,1009.624 426.95,1003.789 
		433.453,999.251 439.787,996.398 447.956,993.287 455.736,991.73 462.045,991.187 469.742,992.561 477.44,995.677 484.13,998.518 
		490.086,1001.817 496.19,1005.734 500.469,1010.791 503.58,1017.404 504.29,1023.994 	"/>
</g>
</svg>
