<?xml version="1.0" encoding="utf-8"?>
<!-- Generator: Adobe Illustrator 16.0.5, SVG Export Plug-In . SVG Version: 6.00 Build 0)  -->
<!DOCTYPE svg PUBLIC "-//W3C//DTD SVG 1.1//EN" "http://www.w3.org/Graphics/SVG/1.1/DTD/svg11.dtd">
<svg version="1.1" id="Layer_1" xmlns="http://www.w3.org/2000/svg" xmlns:xlink="http://www.w3.org/1999/xlink" x="0px" y="0px"
	 width="1280px" height="1024px" viewBox="0 0 1280 1024" enable-background="new 0 0 1280 1024" xml:space="preserve">
<g id="Raw_image">
	
		<image overflow="visible" enable-background="new    " width="1280" height="1024" xlink:href="Neuroblastoma_16.jpg"  transform="matrix(1 0 0 1 0 -2.441406e-004)">
	</image>
</g>
<g id="Not_annotated" display="none" opacity="0.5">
</g>
<g id="Clumps" display="none" opacity="0.5">
</g>
<g id="Single_nuclei" opacity="0.5">
	<polygon fill="#00FF00" stroke="#800080" points="104,796 95,793 86,790 80,784 73,779 67,773 59,769 54,762 51,753 47,745 43,737 
		41,727 41,717 44,708 49,700 55,695 64,691 74,689 85,690 94,687 104,685 112,689 121,692 130,695 138,699 144,705 149,712 
		149,722 146,731 142,739 139,747 140,757 139,768 137,777 132,785 125,790 116,793 107,795 	"/>
	<polygon fill="#00FF00" stroke="#800080" points="152,373 142,371 133,368 125,364 119,358 116,349 116,337 116,327 118,317 
		123,310 129,303 137,299 147,297 158,298 169,299 177,303 183,309 187,317 189,327 191,337 189,346 184,353 178,359 171,365 
		164,369 155,372 	"/>
	<polygon fill="#00FF00" stroke="#800080" points="179,145 169,145 158,144 151,139 144,134 140,126 137,117 137,107 139,97 144,89 
		150,84 160,81 171,80 180,83 187,88 193,94 196,103 198,113 199,122 196,130 190,137 184,142 	"/>
	<polygon fill="#00FF00" stroke="#800080" points="204,979 189.243,977.281 183.843,972.92 184.674,966.897 187.581,960.46 
		187.789,952.36 184.33,937.185 184.674,926.817 185.712,915.81 188.204,908.334 189.035,903.973 191.112,895.666 192.15,890.474 
		195.265,883.414 200,878 208,874 213.54,870.538 223,869 231,873 239,877 245,883 249,891 252,900 250,910 246.975,919.549 
		240.953,925.778 237.215,929.931 234.93,937.408 234.515,950.076 231,960 226,968 220,974 213,978 	"/>
	<polygon fill="#00FF00" stroke="#800080" points="359,820 350,817 339,816 328,815 320,811 312,807 306,801 300,795 298,785 
		300,775 304,767 310,760 316,755 324,750 334,748 343,745 353,745 364,746 372,750 373,759 381,763 388,768 388,778 385,787 
		381,795 376,802 371,809 365,815 	"/>
	<polygon fill="#00FF00" stroke="#800080" points="404,248 392,248 381,247 373,243 367,237 361,231 356,224 352,216 350,206 
		348,196 351,186 355,178 360,171 365,165 373,160 382,157 393,156 404,157 414,159 423,162 430,167 435,174 440,181 444,189 
		447,198 446,209 443,218 439,226 434,232 427,238 419,242 411,246 	"/>
	<polygon fill="#00FF00" stroke="#800080" points="448,599 436,599 426,597 417,594 410,589 402,585 397,578 391,572 387,564 
		388,552 389,542 392,532 395,524 400,517 406,511 412,505 418,499 424,493 431,487 438,483 447,479 457,477 469,477 479,479 
		487,483 495,487 502,492 507,499 511,507 513,517 516,526 516,536 515,546 511,555 507,563 503,571 499,578 492,583 484,587 
		475,590 466,593 458,597 	"/>
	<polygon fill="#00FF00" stroke="#800080" points="469,700 459,698 452,693 446,687 442,679 443,668 437,662 430,657 424,651 
		422,641 428,634 433,627 432,617 438,610 445,605 453,601 465,601 477,601 487,599 497,601 503,607 507,615 508,624 511,631 
		518,632 524,638 525,649 519,655 515,661 514,672 510,680 505,687 499,692 490,696 481,698 470,699 	"/>
	<polygon fill="#00FF00" stroke="#800080" points="585,510 577,508 565,508 555,506 547,502 540,497 536,489 533,480 534,469 
		536,459 540,450 545,443 551,437 560,434 570,434 578,438 586,442 593,447 600,452 605,459 612,464 614,474 613,485 609,493 
		604,499 597,504 589,509 	"/>
	<polygon fill="#00FF00" stroke="#800080" points="940,448 929,447 919,445 911,441 907,433 905,423 902,414 896.959,405.548 
		893.019,396.152 891.199,383.422 892.412,372.814 897.262,363.418 906.64,351.962 916.963,344.626 925.449,340.383 
		932.147,339.661 939,342 946,347 951,354 957,360 963,366 970,371 978,375 983,382 984,393 982,403 984,413 982,423 979,431 
		974,438 968,445 959,447 950.863,446.217 944.432,446.776 	"/>
	<polygon fill="#00FF00" stroke="#800080" points="899.413,412.383 886.407,408.509 879.407,403.509 874.407,396.509 
		871.407,387.509 872.407,378.509 873.407,367.509 876.407,358.509 880.407,349.509 885.407,343.509 894.407,339.509 
		904.407,337.509 912.416,338.261 923.74,339.403 911.507,346.747 904.726,352.545 898.171,362.205 893.624,369.177 890.745,377.43 
		890.466,386.099 892.423,395.047 894.101,400.639 896.896,407.35 	"/>
	<polygon fill="#00FF00" stroke="#800080" points="998,228 987,227 978,224 971,219 963,215 957,209 953,201 950,192 951,181 
		954,171 957,163 962,156 969,151 975,144 983,140 993,139 992.12,136.104 992.816,132.799 992.294,128.623 994.034,126.188 
		996.817,126.536 999.079,124.97 1001.34,123.927 1003.602,124.448 1006.211,124.97 1008.124,124.796 1011.43,125.318 
		1013.865,125.318 1016.822,126.885 1019.084,128.797 1019.779,131.581 1018.91,134.886 1017.17,138.887 1020.997,142.018 
		1026.271,143.469 1030.565,146.715 1035,152 1038,161 1042,169 1043,180 1042,191 1040,200 1035,208 1029,213 1022,218 
		1014.909,220.647 1008.82,219.256 1005.167,221.169 1004.298,225.518 	"/>
	<polygon fill="#00FF00" stroke="#800080" points="1174,752 1162,752 1153,749 1145,745 1139,739 1135,731 1133,721 1133,711 
		1136,702 1140,694 1146,687 1154,683 1165,682 1175,680 1184,681 1194,683 1201,688 1204,697 1206,706 1202,715 1198,723 1196,732 
		1191,739 1185,746 1178,750 	"/>
	<polygon fill="#00FF00" stroke="#800080" points="1280,311.811 1271.494,309.321 1263,306 1257,300 1253,292 1249,284 1247,274 
		1247,264 1251,255 1256,249 1263,243 1280,236.39 	"/>
	<polygon fill="#00FF00" stroke="#800080" points="186.543,962.744 181.767,962.744 175.536,959.422 169.099,948 168.268,933.463 
		170.137,926.401 176.367,918.718 179.274,915.602 185.089,912.695 186.335,913.733 183.843,921.833 183.843,929.931 
		184.466,939.485 185.712,944.677 187.166,951.53 187.789,957.76 	"/>
	<polygon points="254.659,918.926 257.774,926.818 261.512,930.763 261.720,937.617 263.589,941.562 264.835,945.092 263.797,950.076 261.720,953.814 259.228,954.022 259.020,957.344 255.697,962.328 250.921,964.404 246.560,963.574 244.483,964.820 240.330,965.443 235.761,963.989 232.230,961.082 232.022,959.836 233.476,953.814 234.515,950.076 235.346,943.222 234.930,937.408 237.007,931.386 239.084,928.064 245.106,922.872 246.975,919.550 250.090,914.774 254.659,918.926"/>
</g>
</svg>
