<?xml version="1.0" encoding="utf-8"?>
<!-- Generator: Adobe Illustrator 16.0.1, SVG Export Plug-In . SVG Version: 6.00 Build 0)  -->
<!DOCTYPE svg PUBLIC "-//W3C//DTD SVG 1.1//EN" "http://www.w3.org/Graphics/SVG/1.1/DTD/svg11.dtd">
<svg version="1.1" id="Layer_1" xmlns="http://www.w3.org/2000/svg" xmlns:xlink="http://www.w3.org/1999/xlink" x="0px" y="0px"
	 width="1280px" height="1024px" viewBox="0 0 1280 1024" enable-background="new 0 0 1280 1024" xml:space="preserve">
<g id="Raw_image">
	
		<image overflow="visible" enable-background="new    " width="1280" height="1024" xlink:href="Neuroblastoma_3.jpg"  transform="matrix(1 0 0 1 2.441406e-004 -2.441406e-004)">
	</image>
</g>
<g id="Not_annotated" display="none" opacity="0.5">
	<polygon display="inline" fill="#0000FF" stroke="#800080" points="0,908 8,910 9,916 2,913 	"/>
	<polygon display="inline" fill="#0000FF" stroke="#800080" points="0,959 2,952 10,952 12,946 3,943 3,935 3,928 5,920 12,924 
		13,929 20,924 17,915 23,912 26,919 29,926 32,935 39,935 48,933 50,924 58,921 65,922 73,924 78,922 77,919 69,915 63,909 55,905 
		60,901 67,898 70,907 75,912 84,911 92,913 100,912 107,912 115,915 108,921 113,927 119,922 127,918 127,911 133,912 140,917 
		145,911 141,903 135,897 135,887 140,885 148,887 146,895 154,897 160,900 158,892 166,887 170,892 169,900 176,905 179,913 
		179,903 184,896 192,899 199,902 206,907 200,910 193,907 186,902 187,908 185,916 185,921 191,922 189,930 192,933 203,932 
		210,928 217,930 225,932 220,936 212,939 206,942 199,945 191,950 196,957 196,967 200,975 207,975 211,972 218,967 222,960 
		225,952 224,944 230,938 235,944 243,948 249,954 256,957 261,960 258,954 254,949 262,947 265,954 268,958 271,948 282,949 
		282,944 278,936 270,940 264,938 267,933 268,929 275,927 269,921 264,914 268,913 273,918 281,922 282,931 290,935 296,938 
		291,931 290,922 295,918 302,923 305,929 301,938 310,939 315,932 322,932 323,926 332,925 327,932 331,934 339,930 349,928 
		346,920 349,914 357,910 365,913 359,919 355,928 361,934 362,943 368,938 363,931 368,924 372,919 379,915 379,920 374,927 
		380,933 386,932 392,925 392,933 398,932 398,925 392,920 398,915 405,920 410,927 412,920 418,914 415,905 421,908 428,913 
		434,919 442,921 450,919 453,911 459,912 460,921 461,928 470,929 479,926 480,931 472,934 461,933 452,930 446,931 452,937 
		456,945 450,942 449,948 457,952 461,945 467,938 474,943 480,938 487,938 493,941 490,947 497,952 504,951 511,952 516,946 
		517,937 524,937 534,939 542,938 538,935 536,929 542,924 541,915 541,910 551,908 556,903 559,910 564,903 567,912 568,923 
		570,933 573,942 577,950 581,958 583,968 589,974 588,984 588,995 584,1002 575,1005 564,1005 555,1003 547,999 542,992 535,987 
		529,982 520,980 511,981 503,985 494,982 488,976 480,972 472,968 463,965 455,961 446,958 438,954 432,948 422,948 413,945 
		401,946 390,946 381,947 371,949 361,951 351,953 342,956 334,961 327,965 320,971 313,975 305,979 297,983 288,986 279,990 
		273,996 266,1000 255,1001 246,1005 236,1004 226,1002 217,999 210,994 200,992 192,988 184,984 179,977 169,978 162,982 153,979 
		146,974 145,963 143,953 141,945 149,941 144,935 135,937 125,935 115,933 105,931 94,930 87,936 77,937 68,940 62,947 55,951 
		47,949 42,956 36,962 28,966 26,975 26,987 27,998 30,1007 32,1017 	"/>
	<polygon display="inline" fill="#0000FF" stroke="#800080" points="16,904 8,900 13,896 17,903 	"/>
	<polygon display="inline" fill="#0000FF" stroke="#800080" points="42,909 32,907 38,902 44,907 	"/>
	<polygon display="inline" fill="#0000FF" stroke="#800080" points="45,923 38,920 46,916 46,922 	"/>
	<polygon display="inline" fill="#0000FF" stroke="#800080" points="55,1023 51,1015 50,1006 46,998 43,993 48,988 45,982 53,986 
		62,989 68,995 76,995 82,990 83,981 80,976 75,983 68,988 62,982 54,978 62,977 70,980 65,973 71,968 80,971 90,971 97,967 90,964 
		80,964 72,962 69,958 79,960 89,960 98,961 105,966 112,971 117,965 110,960 102,956 101,947 107,942 112,948 116,955 117,948 
		121,956 122,965 125,972 131,975 122,974 117,981 110,986 107,992 116,993 126,995 130,1000 124,1007 117,1011 119,1018 128,1018 
		135,1022 	"/>
	<polygon display="inline" fill="#0000FF" stroke="#800080" points="89,903 90,897 96,891 99,895 92,901 	"/>
	<polygon display="inline" fill="#0000FF" stroke="#800080" points="122,909 117,904 124,906 	"/>
	<polygon display="inline" fill="#0000FF" stroke="#800080" points="179,1021 173,1015 170,1009 172,1002 174,997 181,1002 
		181,1009 179,1018 	"/>
	<polygon display="inline" fill="#0000FF" stroke="#800080" points="205,970 204,962 209,958 205,954 209,948 208,947 215,947 
		218,954 215,963 208,967 	"/>
	<polygon display="inline" fill="#0000FF" stroke="#800080" points="232,926 227,921 236,921 	"/>
	<polygon display="inline" fill="#0000FF" stroke="#800080" points="288,141 280,137 283,129 289,123 293,130 299,133 294,139 	"/>
	<polygon display="inline" fill="#0000FF" stroke="#800080" points="280,1023 287,1019 291,1012 295,1003 305,1001 310,1007 
		305,1014 300,1022 	"/>
	<polygon display="inline" fill="#0000FF" stroke="#800080" points="294,697 287,692 293,687 298,694 	"/>
	<polygon display="inline" fill="#0000FF" stroke="#800080" points="314,7 306,3 314,2 	"/>
	<polygon display="inline" fill="#0000FF" stroke="#800080" points="335,22 325,20 327,12 332,5 337,3 333,11 337,19 	"/>
	<polygon display="inline" fill="#0000FF" stroke="#800080" points="377,895 372,889 379,890 	"/>
	<polygon display="inline" fill="#0000FF" stroke="#800080" points="389,912 385,904 389,901 390,910 	"/>
	<polygon display="inline" fill="#0000FF" stroke="#800080" points="442,308 430,308 429,301 438,297 445,296 444,306 	"/>
	<polygon display="inline" fill="#0000FF" stroke="#800080" points="436,909 437,902 442,907 	"/>
	<polygon display="inline" fill="#0000FF" stroke="#800080" points="494,0 493,9 487,15 484,24 480,32 471,34 463,30 456,25 449,20 
		452,11 458,4 	"/>
	<polygon display="inline" fill="#0000FF" stroke="#800080" points="472,911 465,906 474,904 	"/>
	<polygon display="inline" fill="#0000FF" stroke="#800080" points="494,205 486,201 486,194 492,200 	"/>
	<polygon display="inline" fill="#0000FF" stroke="#800080" points="501,945 500,937 507,932 514,934 505,937 	"/>
	<polygon display="inline" fill="#0000FF" stroke="#800080" points="521,929 519,924 527,920 535,916 538,921 530,924 522,928 	"/>
	<polygon display="inline" fill="#0000FF" stroke="#800080" points="547,898 539,894 542,890 548,892 554,895 	"/>
	<polygon display="inline" fill="#0000FF" stroke="#800080" points="559,877 558,870 562,863 563,869 560,876 	"/>
	<polygon display="inline" fill="#0000FF" stroke="#800080" points="572,833 566,827 560,821 568,820 576,824 573,831 	"/>
	<polygon display="inline" fill="#0000FF" stroke="#800080" points="568,894 564,888 570,881 569,890 	"/>
	<polygon display="inline" fill="#0000FF" stroke="#800080" points="580,706 571,703 575,696 580,689 588,693 597,694 593,700 
		586,704 	"/>
	<polygon display="inline" fill="#0000FF" stroke="#800080" points="599,1023 606,1020 612,1022 	"/>
	<polygon display="inline" fill="#0000FF" stroke="#800080" points="608,1003 605,997 611,999 	"/>
	<polygon display="inline" fill="#0000FF" stroke="#800080" points="612,648 606,642 608,635 612,641 	"/>
	<polygon display="inline" fill="#0000FF" stroke="#800080" points="610,975 606,970 616,970 611,974 	"/>
	<polygon display="inline" fill="#0000FF" stroke="#800080" points="613,764 607,758 607,749 611,755 	"/>
	<polygon display="inline" fill="#0000FF" stroke="#800080" points="619,648 618,642 621,634 621,624 617,625 611,628 609,624 
		617,619 624,622 633,625 637,629 629,628 626,636 625,644 	"/>
	<polygon display="inline" fill="#0000FF" stroke="#800080" points="616,824 610,818 620,815 621,821 	"/>
	<polygon display="inline" fill="#0000FF" stroke="#800080" points="617,845 613,840 620,836 627,830 630,826 626,818 630,810 
		629,801 634,807 638,814 632,821 637,828 632,835 626,841 618,844 	"/>
	<polygon display="inline" fill="#0000FF" stroke="#800080" points="615,993 615,988 624,987 632,985 627,992 618,992 	"/>
	<polygon display="inline" fill="#0000FF" stroke="#800080" points="646,978 638,974 648,971 649,975 	"/>
	<polygon display="inline" fill="#0000FF" stroke="#800080" points="642,997 639,990 644,994 	"/>
	<polygon display="inline" fill="#0000FF" stroke="#800080" points="651,1023 656,1019 665,1020 	"/>
	<polygon display="inline" fill="#0000FF" stroke="#800080" points="672,975 671,966 675,969 	"/>
	<polygon display="inline" fill="#0000FF" stroke="#800080" points="680,1023 676,1015 683,1017 	"/>
	<polygon display="inline" fill="#0000FF" stroke="#800080" points="688,959 678,957 688,956 	"/>
	<polygon display="inline" fill="#0000FF" stroke="#800080" points="695,1023 689,1017 696,1015 698,1023 	"/>
	<polygon display="inline" fill="#0000FF" stroke="#800080" points="715,956 705,954 701,948 710,948 716,954 	"/>
	<polygon display="inline" fill="#0000FF" stroke="#800080" points="718,1022 711,1017 702,1014 704,1008 713,1008 720,1011 
		722,1006 719,1002 714,1002 716,992 722,985 728,991 730,1001 728,1009 728,1016 718,1017 	"/>
	<polygon display="inline" fill="#0000FF" stroke="#800080" points="722,971 719,965 724,958 727,963 723,970 	"/>
	<polygon display="inline" fill="#0000FF" stroke="#800080" points="757,630 758,625 764,619 773,615 773,618 765,623 759,629 	"/>
	<polygon display="inline" fill="#0000FF" stroke="#800080" points="762,639 762,634 767,627 774,622 773,627 769,634 	"/>
	<polygon display="inline" fill="#0000FF" stroke="#800080" points="782,663 773,660 770,655 760,657 765,653 773,649 780,646 
		781,657 	"/>
	<polygon display="inline" fill="#0000FF" stroke="#800080" points="779,711 771,707 766,701 770,696 761,697 759,689 768,687 
		774,693 784,693 785,684 790,677 798,681 805,682 798,687 793,693 786,699 782,707 	"/>
	<polygon display="inline" fill="#0000FF" stroke="#800080" points="774,676 767,671 760,666 767,662 772,669 775,675 	"/>
	<polygon display="inline" fill="#0000FF" stroke="#800080" points="802,645 791,644 783,640 774,641 777,632 778,625 783,626 
		787,633 793,636 795,628 803,631 807,632 814,626 817,618 822,610 825,601 834,598 837,600 830,606 825,613 821,621 818,629 
		813,637 807,643 	"/>
	<polygon display="inline" fill="#0000FF" stroke="#800080" points="790,742 781,739 784,733 793,736 	"/>
	<polygon display="inline" fill="#0000FF" stroke="#800080" points="795,734 792,727 795,720 787,722 788,716 795,715 801,721 
		797,729 	"/>
	<polygon display="inline" fill="#0000FF" stroke="#800080" points="800,668 793,663 793,656 800,661 809,664 803,667 	"/>
	<polygon display="inline" fill="#0000FF" stroke="#800080" points="799,622 795,614 800,606 808,603 809,595 818,598 816,606 
		810,612 804,618 	"/>
	<polygon display="inline" fill="#0000FF" stroke="#800080" points="831,712 821,712 819,705 823,697 826,706 832,711 	"/>
	<polygon display="inline" fill="#0000FF" stroke="#800080" points="822,660 819,653 825,646 828,649 824,657 	"/>
	<polygon display="inline" fill="#0000FF" stroke="#800080" points="825,597 827,592 835,589 834,592 826,596 	"/>
	<polygon display="inline" fill="#0000FF" stroke="#800080" points="888,273 879,270 869,268 859,268 850,265 842,261 835,256 
		828,251 826,246 830,243 826,238 834,235 841,239 847,245 852,247 848,241 846,233 853,227 859,221 866,224 870,223 875,217 
		876,226 878,227 881,218 879,209 885,203 892,199 897,199 905,199 905,208 903,219 899,226 893,233 885,237 891,239 895,247 
		898,256 893,263 891,271 	"/>
	<polygon display="inline" fill="#0000FF" stroke="#800080" points="838,702 834,694 828,698 831,690 840,691 839,700 	"/>
	<polygon display="inline" fill="#0000FF" stroke="#800080" points="850,634 841,633 837,626 841,619 848,613 854,607 861,610 
		855,614 857,622 854,630 	"/>
	<polygon display="inline" fill="#0000FF" stroke="#800080" points="844,605 844,598 850,600 	"/>
	<polygon display="inline" fill="#0000FF" stroke="#800080" points="852,219 848,213 847,205 851,212 857,212 867,210 872,213 
		862,213 857,218 	"/>
	<polygon display="inline" fill="#0000FF" stroke="#800080" points="852,200 853,194 860,190 864,182 871,184 867,191 858,195 	"/>
	<polygon display="inline" fill="#0000FF" stroke="#800080" points="875,207 864,206 870,202 873,195 879,192 879,201 	"/>
	<polygon display="inline" fill="#0000FF" stroke="#800080" points="923,1023 919,1015 912,1010 901,1009 892,1008 882,1006 
		877,999 878,988 880,978 887,972 886,978 892,983 899,978 907,978 914,976 917,970 919,963 911,968 902,969 901,964 910,961 
		919,959 928,958 934,952 942,947 947,941 952,933 952,938 951,946 954,951 952,956 952,964 952,973 960,969 967,970 975,972 
		972,966 974,960 981,955 987,952 985,960 991,961 997,954 1006,955 1011,948 1017,947 1024,941 1031,943 1037,939 1030,934 
		1038,933 1043,931 1050,929 1057,926 1061,921 1065,916 1068,908 1071,901 1076,905 1079,901 1082,894 1084,887 1093,886 1100,889 
		1101,881 1104,873 1108,865 1116,869 1114,878 1109,886 1105,893 1099,897 1090,900 1087,906 1093,903 1094,909 1088,915 1082,920 
		1075,915 1067,917 1071,922 1074,927 1068,932 1059,934 1051,938 1048,946 1042,952 1035,958 1029,963 1022,969 1015,969 1010,977 
		1005,979 1000,987 991,987 984,992 978,998 969,1001 964,1004 954,1007 948,1013 940,1016 933,1022 	"/>
	<polygon display="inline" fill="#0000FF" stroke="#800080" points="926,116 917,113 920,105 926,111 	"/>
	<polygon display="inline" fill="#0000FF" stroke="#800080" points="964,960 960,954 968,951 976,951 968,955 	"/>
	<polygon display="inline" fill="#0000FF" stroke="#800080" points="988,946 986,940 994,935 998,941 991,945 	"/>
	<polygon display="inline" fill="#0000FF" stroke="#800080" points="988,1023 989,1016 995,1013 1004,1016 1002,1011 1005,1005 
		1015,1003 1023,999 1031,995 1027,988 1035,987 1034,983 1034,976 1042,980 1047,976 1048,968 1055,969 1059,962 1062,952 
		1071,949 1074,941 1080,934 1088,938 1089,942 1083,948 1077,954 1067,956 1068,963 1062,970 1056,976 1050,981 1044,987 1037,993 
		1031,999 1025,1005 1020,1011 1013,1017 	"/>
	<polygon display="inline" fill="#0000FF" stroke="#800080" points="1000,702 995,695 993,687 999,690 1001,698 	"/>
	<polygon display="inline" fill="#0000FF" stroke="#800080" points="1003,898 998,891 1000,884 1003,876 1007,867 1011,860 
		1016,852 1020,845 1024,837 1029,830 1033,823 1040,818 1047,816 1053,809 1059,807 1062,814 1067,807 1072,804 1074,811 1078,814 
		1084,809 1090,802 1096,805 1101,797 1102,789 1104,780 1110,782 1115,785 1120,778 1121,770 1126,763 1136,760 1137,753 1146,752 
		1153,747 1155,755 1147,758 1141,763 1135,769 1129,775 1123,780 1117,787 1113,795 1109,802 1105,811 1101,819 1098,827 1096,838 
		1092,846 1089,854 1085,863 1081,870 1071,873 1063,873 1060,882 1053,887 1045,890 1035,889 1026,891 1016,891 1005,891 	"/>
	<polygon display="inline" fill="#0000FF" stroke="#800080" points="1018,940 1010,936 1010,926 1019,925 1025,923 1030,926 
		1024,931 1020,938 	"/>
	<polygon display="inline" fill="#0000FF" stroke="#800080" points="1034,1019 1033,1012 1039,1005 1039,1012 	"/>
	<polygon display="inline" fill="#0000FF" stroke="#800080" points="1042,775 1034,771 1038,766 1044,770 	"/>
	<polygon display="inline" fill="#0000FF" stroke="#800080" points="1044,925 1038,921 1047,918 1054,922 1047,922 	"/>
	<polygon display="inline" fill="#0000FF" stroke="#800080" points="1059,800 1053,794 1060,794 1064,798 	"/>
	<polygon display="inline" fill="#0000FF" stroke="#800080" points="1110,922 1110,915 1112,906 1112,900 1118,897 1122,896 
		1116,890 1120,887 1129,886 1130,895 1126,903 1121,909 1116,916 	"/>
	<polygon display="inline" fill="#0000FF" stroke="#800080" points="1167,747 1157,746 1151,741 1161,738 1169,735 1170,727 
		1176,731 1182,730 1176,724 1183,721 1187,714 1186,706 1191,702 1198,707 1199,716 1195,723 1189,730 1183,735 1176,741 1169,746 
			"/>
	<polygon display="inline" fill="#0000FF" stroke="#800080" points="1193,751 1190,743 1197,742 1203,736 1207,738 1203,745 
		1195,750 	"/>
	<polygon display="inline" fill="#0000FF" stroke="#800080" points="1203,705 1195,701 1191,693 1200,691 1206,697 	"/>
	<polygon display="inline" fill="#0000FF" stroke="#800080" points="1208,688 1200,684 1199,679 1202,670 1207,662 1213,668 
		1208,672 1205,676 1209,682 	"/>
	<polygon display="inline" fill="#0000FF" stroke="#800080" points="1206,647 1204,641 1212,640 1210,645 	"/>
	<polygon display="inline" fill="#0000FF" stroke="#800080" points="1214,633 1210,627 1214,621 1212,614 1217,607 1225,603 
		1230,596 1231,603 1225,609 1221,616 1216,624 	"/>
	<polygon display="inline" fill="#0000FF" stroke="#800080" points="1266,783 1258,779 1255,770 1248,765 1243,758 1241,748 
		1242,738 1237,732 1231,726 1227,720 1235,723 1241,726 1241,720 1243,713 1245,706 1237,708 1230,711 1229,705 1237,703 1248,702 
		1250,710 1256,714 1259,722 1253,723 1251,729 1253,737 1256,746 1259,755 1266,760 1266,770 1264,778 1271,779 	"/>
	<polygon display="inline" fill="#0000FF" stroke="#800080" points="1234,628 1233,619 1240,617 1235,624 	"/>
	<polygon display="inline" fill="#0000FF" stroke="#800080" points="1279,688 1277,695 1268,697 1260,693 1257,686 1249,686 
		1244,681 1244,672 1239,666 1245,662 1243,654 1242,646 1249,641 1254,648 1258,656 1262,658 1267,659 1262,665 1265,671 1269,675 
		1275,681 	"/>
	<polygon display="inline" fill="#0000FF" stroke="#800080" points="1279,624 1272,630 1265,634 1258,640 1255,636 1249,630 
		1255,623 1260,617 1252,615 1249,613 1255,611 1264,614 1271,619 1271,616 1269,608 1264,603 1269,601 1273,609 1277,617 	"/>
	<polygon display="inline" fill="#0000FF" stroke="#800080" points="1266,577 1257,574 1263,571 1268,565 1273,564 1269,573 	"/>
	<polygon display="inline" fill="#0000FF" stroke="#800080" points="1279,576 1277,585 1273,586 1274,577 1277,567 	"/>
</g>
<g id="Clumps" display="none" opacity="0.5">
	<polygon display="inline" fill="#FF0000" stroke="#800080" points="0,221 7,224 15,226 24,229 32,233 33,242 39,248 44,255 49,262 
		51,272 54,281 56,291 53,300 50,309 47,317 41,323 33,327 24,330 18,336 10,338 3,333 3,323 	"/>
	<polygon display="inline" fill="#FF0000" stroke="#800080" points="240,483 230,481 220,479 212,475 207,468 202,461 199,455 
		195,463 189,469 182,473 172,475 161,476 150,475 143,470 139,462 131,458 123,454 119,446 116,437 112,429 110,421 110,426 
		103,429 94,431 85,430 75,428 69,428 69,420 77,423 83,422 77,416 79,408 80,397 83,388 88,380 94,374 105,373 114,376 116,384 
		117,391 126,390 134,386 142,382 149,378 158,374 167,371 171,364 171,354 173,345 177,337 184,332 190,326 197,321 204,317 
		212,312 222,310 232,308 241,311 249,315 254,322 260,328 266,334 271,341 273,351 271,361 267,368 266,380 269,389 265,397 
		263,407 269,413 272,422 274,432 273,441 272,452 268,460 264,467 258,473 251,479 243,482 	"/>
	<polygon display="inline" fill="#FF0000" stroke="#800080" points="148,334 138,332 136,324 131,321 133,311 130,302 125,299 
		118,302 114,294 116,286 112,278 117,278 122,274 126,269 131,262 131,255 126,254 127,245 124,239 133,236 139,230 146,225 
		155,222 160,215 167,212 173,218 182,221 179,227 169,229 160,233 153,238 151,242 159,244 167,248 176,245 180,238 184,230 
		190,224 199,222 209,220 217,222 224,227 230,233 235,240 231,247 225,254 219,259 216,268 224,271 229,278 231,288 226,294 
		218,298 207,300 202,296 203,285 195,286 196,295 193,304 183,305 185,298 190,291 188,286 188,276 181,276 174,280 165,282 
		162,291 159,300 163,308 166,315 162,323 157,329 149,333 	"/>
	<polygon display="inline" fill="#FF0000" stroke="#800080" points="431,0 434,9 437,18 443,19 445,12 445,22 442,31 440,40 436,49 
		433,58 429,65 424,72 421,82 424,91 422,101 416,106 408,110 402,116 395,121 387,125 377,128 369,131 360,128 352,130 346,124 
		341,117 330,119 320,120 313,115 305,111 301,103 292,100 286,94 282,86 280,76 282,66 285,57 286,46 291,38 297,33 308,33 317,36 
		327,38 337,36 346,36 349,27 353,18 355,8 359,1 	"/>
	<polygon display="inline" fill="#FF0000" stroke="#800080" points="354,598 342,598 337,591 328,588 322,582 316,576 308,572 
		304,566 302,556 306,548 308,538 308,528 312,520 318,514 325,509 333,510 341,514 348,516 354,510 354,501 362,499 372,499 
		380,503 388,507 393,514 400,519 400,529 403,538 405,548 403,557 399,565 394,573 389,579 384,586 377,591 367,594 358,596 	"/>
	<polygon display="inline" fill="#FF0000" stroke="#800080" points="340,1023 343,1016 349,1009 358,1006 368,1004 376,1001 
		384,996 396,996 404,996 410,1002 420,1002 429,1003 440,1004 448,1004 454,1010 460,1016 465,1022 	"/>
	<polygon display="inline" fill="#FF0000" stroke="#800080" points="514,622 504,620 498,614 494,606 488,600 483,593 480,586 
		479,575 481,564 485,557 493,552 500,548 507,542 514,538 521,533 532,531 542,533 549,532 553,540 560,545 567,550 571,558 
		574,567 576,577 572,585 568,592 562,599 556,604 550,611 545,618 537,621 527,619 517,620 	"/>
	<polygon display="inline" fill="#FF0000" stroke="#800080" points="536,226 526,224 522,216 513,213 516,206 521,199 518,192 
		512,186 502,184 494,180 488,174 488,164 491,155 489,145 490,133 494,126 501,120 511,118 521,116 530,113 541,114 551,116 
		560,119 564,127 567,136 573,142 578,149 585,148 588,140 593,133 600,127 609,124 619,122 629,124 638,127 646,131 652,137 
		659,142 663,150 663,160 661,166 661,176 662,184 658,192 652,199 645,203 637,207 628,210 617,209 607,209 598,206 592,200 
		590,190 584,184 579,190 576,198 573,208 568,215 562,220 553,223 541,224 	"/>
	<polygon display="inline" fill="#FF0000" stroke="#800080" points="704,470 693,470 684,468 675,465 667,461 660,456 655,449 
		649,443 647,434 649,425 654,418 655,409 645,412 640,419 633,423 625,427 616,430 608,434 597,435 586,434 576,432 568,428 
		562,422 555,417 547,415 542,408 537,401 535,391 536,380 535,371 538,362 543,355 553,352 563,350 573,352 581,348 589,344 
		598,341 606,338 613,333 622,330 631,329 631,319 633,309 635,299 639,290 644,284 650,277 657,272 664,267 672,263 682,261 
		692,261 702,263 713,264 720,260 727,254 737,254 748,255 757,258 762,265 769,270 776,275 782,281 784,291 787,300 789,310 
		787,320 786,330 781,338 775,343 766,346 755,345 746,346 739,347 738,355 736,365 733,374 730,382 722,387 717,394 725,398 
		733,395 741,390 742,382 748,376 756,373 763,378 766,387 770,395 768,404 763,412 759,419 755,427 751,435 744,440 738,447 
		733,453 727,460 720,464 711,467 	"/>
	<polygon display="inline" fill="#FF0000" stroke="#800080" points="632,951 622,949 616,943 610,937 607,930 602,923 598,915 
		597,904 597,894 602,886 609,881 617,877 626,874 635,873 643,877 652,874 657,868 662,861 667,854 676,850 684,850 690,853 
		694,845 692,835 691,824 687,816 681,810 676,803 672,795 670,785 665,778 658,773 652,767 648,759 645,750 647,740 648,729 
		648,719 640,717 630,715 626,707 627,697 631,690 635,682 634,672 639,665 645,659 648,651 656,646 665,643 673,639 683,637 
		692,640 703,641 713,643 719,649 727,653 734,658 741,663 742,674 746,682 747,691 741,697 737,694 729,696 720,699 720,706 
		727,711 734,715 741,717 742,727 738,734 746,738 753,743 758,750 764,756 764,764 769,771 777,775 785,779 793,776 798,769 
		804,762 811,758 820,754 831,753 842,754 852,756 859,761 865,767 871,773 876,780 883,785 891,781 890,773 882,769 877,762 
		872,755 869,746 871,738 873,730 863,728 857,722 855,712 857,702 860,693 862,683 867,676 871,667 873,658 877,650 883,644 
		890,638 897,633 906,630 918,630 928,632 939,633 944,640 951,645 956,652 962,658 966,666 962,673 952,673 944,677 940,684 
		948,688 954,692 957,701 963,707 968,714 972,722 973,731 982,734 989,739 995,745 1001,751 1005,759 1010,766 1012,776 1013,787 
		1012,797 1009,806 1004,814 1000,821 993,827 987,832 978,835 968,835 961,841 956,847 950,853 944,859 939,866 936,876 935,883 
		936,892 935,903 934,914 930,922 924,927 916,931 907,934 896,935 888,931 880,929 876,931 867,928 866,923 857,920 850,915 
		843,910 838,903 833,896 827,890 823,882 820,873 815,866 809,860 801,856 796,849 787,851 781,857 775,862 766,865 756,867 
		748,869 738,871 727,870 719,866 713,869 717,877 721,885 723,895 725,904 722,914 717,920 709,924 700,921 690,921 682,925 
		672,925 662,928 659,937 655,944 646,947 636,949 	"/>
	<polygon display="inline" fill="#FF0000" stroke="#800080" points="924,600 913,599 903,597 894,594 889,587 883,581 878,574 
		875,565 872,556 871,545 873,534 875,525 879,517 885,510 891,504 899,500 909,498 918,495 922,488 926,480 927,471 920,466 
		913,461 908,454 904,446 899,439 889,439 880,436 878,428 879,419 875,411 869,405 871,397 875,389 880,381 884,374 892,369 
		898,363 905,358 914,355 924,353 935,354 942,359 946,367 954,369 964,369 973,372 977,380 980,389 983,398 985,408 986,419 
		987,430 983,438 980,447 975,453 972,461 981,461 990,459 999,462 1004,469 1009,476 1009,486 1008,497 1006,506 1002,515 996,521 
		987,523 979,525 973,530 977,538 978,549 975,558 971,566 966,573 961,579 955,586 948,591 940,595 932,598 	"/>
	<polygon display="inline" fill="#FF0000" stroke="#800080" points="984,0 992,4 996,12 999,21 1003,29 1010,34 1015,41 1014,52 
		1010,60 1005,67 999,73 990,75 984,82 987,87 996,85 1004,80 1014,82 1019,78 1027,73 1036,76 1043,81 1048,88 1054,94 1059,101 
		1063,109 1064,120 1063,131 1060,139 1054,145 1047,150 1041,156 1034,161 1025,165 1015,166 1003,166 993,164 984,161 980,153 
		978,143 973,136 967,130 961,124 955,118 948,117 940,113 933,108 926,103 922,95 925,86 928,77 925,68 925,58 925,48 923,40 
		927,32 922,25 924,14 929,7 938,4 947,5 957,3 	"/>
	<polygon display="inline" fill="#FF0000" stroke="#800080" points="1139,317 1129,317 1117,317 1108,314 1098,312 1090,308 
		1082,304 1078,296 1074,288 1070,280 1068,270 1069,259 1070,250 1074,242 1081,236 1086,230 1094,225 1103,223 1110,218 1117,212 
		1121,205 1118,196 1123,188 1131,186 1134,178 1135,167 1133,157 1127,151 1118,148 1115,139 1111,131 1106,124 1102,116 1105,107 
		1108,97 1108,88 1109,79 1117,75 1124,69 1128,61 1133,55 1141,50 1149,46 1160,45 1168,49 1177,52 1184,57 1191,62 1198,67 
		1203,74 1205,84 1203,94 1203,104 1201,114 1198,123 1197,134 1202,141 1209,146 1215,152 1220,159 1226,165 1231,172 1234,181 
		1234,189 1230,197 1226,205 1223,214 1219,222 1214,229 1207,233 1198,236 1190,240 1180,243 1176,251 1176,262 1174,272 1171,282 
		1168,291 1164,299 1159,306 1151,310 1144,314 	"/>
	<polygon display="inline" fill="#FF0000" stroke="#800080" points="1096,1023 1099,1015 1103,1008 1108,1000 1113,993 1120,988 
		1127,983 1134,978 1139,972 1143,964 1148,956 1153,950 1159,944 1166,938 1174,934 1182,930 1191,927 1200,924 1211,923 1222,922 
		1231,919 1234,911 1238,903 1235,894 1223,894 1214,895 1204,897 1196,895 1190,889 1182,885 1176,879 1170,873 1164,867 1160,859 
		1156,851 1153,842 1153,832 1155,822 1158,813 1163,806 1169,800 1177,795 1186,792 1195,789 1203,786 1214,784 1224,786 1232,790 
		1239,795 1246,800 1253,805 1259,811 1264,818 1269,825 1272,834 1273,843 1273,852 1275,861 	"/>
	<polygon display="inline" fill="#FF0000" stroke="#800080" points="1279,403 1273,399 1267,393 1262,386 1260,378 1263,369 
		1262,358 1253,357 1245,353 1237,349 1228,346 1218,346 1209,347 1202,342 1196,336 1190,330 1187,321 1185,311 1187,301 1191,292 
		1195,285 1199,277 1203,268 1209,262 1218,259 1228,257 1234,251 1243,248 1254,249 1261,254 1270,257 1276,263 	"/>
	<polygon display="inline" fill="#FF0000" stroke="#800080" points="1216,460 1207,457 1197,455 1188,456 1180,452 1175,445 
		1169,441 1170,432 1168,422 1168,412 1171,405 1176,398 1182,392 1189,386 1199,388 1209,390 1215,391 1221,396 1223,391 1230,393 
		1235,400 1240,407 1244,415 1244,425 1242,435 1238,443 1235,451 1228,457 1219,459 	"/>
	<polygon display="inline" fill="#FF0000" stroke="#800080" points="923,168 913,168 905,164 899,158 893,152 890,143 892,133 
		893,126 899,119 907,118 916,118 924,122 934,124 943,121 949,127 957,129 961,137 970,140 969,146 961,151 954,156 951,160 
		942,162 936,167 926,167 	"/>
</g>
<g id="Single_nuclei" opacity="0.5">
	<polygon fill="#00FF00" stroke="#800080" points="101.998,686 93.13,685.065 82.395,683.666 75.16,683.899 66.759,684.599 
		58.358,682.732 50.424,677.597 46,673 40.856,666.396 37.589,659.162 36,651 35.021,640.961 36,631 40,623 46,616 52.057,610.855 
		58.825,604.788 64,598 71,593 80,590 92,590 101,591 111,593 118,598 125,603 130,610 133.269,616.456 137,627 138,636 
		138.636,645.86 138,656 135,664 129,671 123,677 115,681 108,685 	"/>
	<polygon fill="#00FF00" stroke="#800080" points="436,183 425,182 416,179 408,175 402,169 399,160 398,151 399,140 402,131 
		407,124 413,117 421,113 428,108 436,105 444,100 454,100 462,104 465.732,108.965 469.817,114.535 475,125 477,133 479,143 
		477.988,153.158 475.016,160.215 471,167 467,174 460,180 450,181 440,181 	"/>
	<polygon fill="#00FF00" stroke="#800080" points="468,507 456,507 446,505 439,500 432,495 425,490 420,483 416,475 413,466 
		414,455 418,447 423,439 427,432 427,420 430,411 435.076,405.491 442,399 450,394 459,391 470,390 480,392 487,397 494,402 
		500,408 505,415 508.211,421.743 513,431 514,442 514,453 512,464 509,473 506,482 502,490 496,496 489,501 481,504 471,506 	"/>
	<polygon fill="#00FF00" stroke="#800080" points="793.76,1018.388 784,1018 775,1015 768,1010 763,1003 758.132,996.159 
		755.391,987.023 756.61,976.671 757.218,967.841 759,960 762,952 766,944 773,938 780,934 788.582,933.733 798,935 806,939 
		813,944 823,946 831,950 839,954 844.919,958.399 849.182,964.795 852,975 850.4,982.456 847.05,990.982 842,998 836.088,1004.382 
		828.78,1009.255 821.471,1012.3 811,1015 803,1017 	"/>
	<polygon fill="#00FF00" stroke="#800080" points="871,117 861,115 851,113 846,106 841,99 836,92 832.932,84.546 831.58,76.667 
		832,67 835,59 838.559,49.655 843,42 848,35 853,29 860.169,22.642 868,19 879,20 889,22 897,26 902,33 904.74,38.175 
		907.666,43.577 909,46 911.491,52.806 912.843,64.512 912,73 908,80 905,90 905.414,96.701 902,104 895.284,109.532 887,113 
		878.853,116.285 	"/>
	<polygon fill="#00FF00" stroke="#800080" points="323.866,117.507 315.697,117.135 307,115 299,111 292,106 285,101 282,92 279,83 
		279,72 280,62 282,51 286,43 292,37 298,31 307,28 316,29 326,31 335,34 344,37 352,41 357,48 361,56 362,67 360,77 358,87 354,95 
		350,103 345,110 340.207,113.422 333.523,116.764 	"/>
	<polygon fill="#00FF00" stroke="#800080" points="381,0 392,1 403,2 414,3 424,5 430,11 436,17 440,25 442,35 440,45 436,53 
		431,59 423,63 414,66 404,69 395,71 386,74 375,75 368.061,71.827 362,64 361,53 356,46 351,39 350.977,28.748 352,23 354,14 
		358.032,6.466 367,2 377,0 	"/>
	<polygon fill="#00FF00" stroke="#800080" points="354,603 343,602 333,600 326,595 318,591 310,587 303,582 299,574 296,565 
		296,553 296,541 297,529 300,521 304,513 309,505 317,501 325,497 333,493 344,492 356,492 368,492 377,495 385,499 392,504 
		399,509 403,517 407,525 409,535 409,547 407,556 403,565 400,574 395,581 390,587 385,594 376,598 367,600 357,602 	"/>
	<polygon fill="#00FF00" stroke="#800080" points="537.743,613.856 529,618 517,619 509.434,617.4 501.04,612.325 496,607 490,601 
		486,593 483.281,584.61 483.085,574.266 484.061,565.288 487.965,558.652 495,553 502,548 509,543 516,538 522.901,535.231 
		531.293,534.451 540.075,535.817 548.274,538.939 556,544 563,549 568,556 572,564 573.256,573.291 572,582 568,589 562,596 
		556,602 550.421,606.08 544.76,610.375 	"/>
	<polygon fill="#00FF00" stroke="#800080" points="626,209 615,208 605,208 597,204 592,197 589,188 584.199,181.011 582,171 
		581,160 584,151 588,143 593,136 599,129 608,126 617,125 626,124 635,127 643,131 650,136 657,141 661,149 661,159 659,167 
		661,177 659,186 655,194 649,200 640,204 632,207 	"/>
	<polygon fill="#00FF00" stroke="#800080" points="537.406,226.691 527.752,224.463 522.181,219.263 517,213 517,203 514,194 
		509,187 502,182 493,179 486,174 483,166 483,155 484,144 487,134 491,127 499.527,121.963 508.069,117.507 518.096,113.793 
		525,112 537,112 548.177,114.164 556.347,116.392 563,122 569,128 571.573,133.104 574.916,141.646 578.259,149.816 
		579.743,163.557 580.115,175.07 579.743,186.211 578.63,195.866 575.287,204.037 571.573,210.721 565.26,215.921 558.947,220.006 
		552.634,224.463 545.577,226.32 	"/>
	<polygon fill="#00FF00" stroke="#800080" points="988.345,0 993.5,5.5 999.225,14 1003.225,22 1008.225,29 1012.75,36.25 
		1015,43.5 1016.25,53.25 1013.25,63.25 1008.225,68 1002.225,74 995.225,80 989.225,85 979.698,86.797 970.02,87.472 961.225,87 
		952.225,84 943.225,81 936.225,76 929.225,71 924.099,64.062 920.948,57.083 918.021,45.153 916.225,36 917.225,25 920.496,15.664 
		925.9,6.66 931.752,1.933 942.178,0 	"/>
	<polygon fill="#00FF00" stroke="#800080" points="1136.832,315.164 1128,316 1117,315 1107,313 1097,311 1089,307 1083,301 
		1078,294 1074,286 1071,277 1070,268 1069,257 1072,248 1077,241 1082.832,233.998 1089,229 1098,225 1106.666,221.498 1113,217 
		1118.439,212.266 1127,214 1134.352,218.925 1141.688,223.552 1148.573,228.631 1155.57,233.597 1163.47,238.337 1170.468,242.061 
		1175.321,248.607 1176.166,259.831 1174.666,269.831 1171.5,279.498 1168,288 1164,296 1157.666,303.498 1152,308 1144,312 	"/>
	<polygon fill="#00FF00" stroke="#800080" points="1183.5,242.5 1174.5,241 1165.84,238.111 1158.279,233.823 1151,229 1144,224 
		1136.61,219.377 1129.613,214.41 1122,210 1119,201 1122,191 1132,189 1136.507,184.66 1138.067,177.642 1137,172.25 
		1135.75,165.25 1137,159 1145,155 1154.216,152.313 1164.163,149.847 1173.207,146.887 1182.17,144.01 1191.543,141.378 
		1200.34,139.652 1208.809,141.625 1215,148 1220,155 1225,162 1230,169 1233,178 1236,187 1237,196 1235,205 1231,214.5 
		1225.5,220 1220.75,226.25 1214.75,231.75 1207.75,237 1201,241.25 1192.75,242.5 	"/>
	<polygon fill="#00FF00" stroke="#800080" points="1138.348,154.615 1132,154 1123,151 1113.114,147.231 1107,143 1102,136 
		1100,128 1100,116 1101,105 1102,94 1105,85 1108,75 1113,68 1119,62 1125,57 1131,51 1138.457,47.808 1150,45 1159.12,45.469 
		1168,47 1176,51 1184,55 1191,60 1197,66 1202,73 1206,81 1209,90 1208,101 1208,113 1206,123 1204,133 1198,138 1189,141 
		1179,144 1170,147 1161,150 1152,152 1143.61,154.04 	"/>
	<polygon fill="#00FF00" stroke="#800080" points="1280,344.686 1274.429,350.872 1266.555,355.653 1259.908,359.179 1252,357 
		1246,351 1238.995,346.091 1230.279,344.404 1218.187,346.372 1208.625,343.842 1200.189,341.311 1194.282,336.249 
		1190.627,328.937 1187.253,318.813 1186.408,307.283 1186.972,295.191 1189.782,285.63 1192,279 1196,271 1202,265 1209,260 
		1217,255 1223.811,251.322 1230.841,248.228 1241.809,246.26 1253.338,245.979 1262,248 1270,252 1280,261.446 	"/>
	<polygon fill="#00FF00" stroke="#800080" points="200.752,457.953 203.716,463.951 209.493,468.284 215.271,471.462 
		223.07,474.927 228.559,476.372 235.491,476.95 241.269,476.661 246.469,475.795 252.534,474.061 259.468,471.174 265.245,467.418 
		270.156,464.24 273.622,459.329 276.8,453.552 277.377,446.907 276.51,442.286 276.8,438.531 277.246,433.954 276.8,430.153 
		276.227,425.157 275.066,421.776 274.199,418.887 271.311,413.977 268.711,411.666 264.214,409.205 259.921,407.94 
		255.362,407.725 250.802,408.852 247.531,410.086 242.811,411.373 238.332,411.864 233.96,412.124 230.178,412.395 
		225.392,412.218 221.846,412.218 218.737,413.399 215.848,414.554 212.96,416.288 211.227,418.31 209.782,423.22 208.338,428.132 
		206.894,433.331 205.449,436.219 202.849,440.552 201.405,444.308 200.25,451.53 	"/>
	<polygon fill="#00FF00" stroke="#800080" points="547,417.5 554,423 561.5,427.5 570.5,431 579.5,434.5 590,434.5 599.5,435 
		611.5,434 621.5,431 631.5,428 638.5,423 644,418.5 648.5,413 653,407.5 655.503,403.581 658.304,398.153 658.5,394 
		657.431,390.405 655.685,386.804 652.739,381.893 650.991,377.856 649.683,372.617 648,366.5 647.5,363.5 645.5,357.5 644,353.5 
		642.5,348 641,343.5 639.5,338.5 636.5,333.5 633.5,331 627,329.5 623,329.5 616,333 609.5,336 603,338 599,339.5 593,341.5 
		587,344.5 581,345 575.5,347.5 568.5,350 563,350.5 556.5,350.5 551,351 547.5,351.5 543,355 539,361.5 538,369.5 538,379 539,390 
		540,399.5 542,408 	"/>
	<polygon fill="#00FF00" stroke="#800080" points="645,424.5 648,434 654,444 660.5,452.5 668,460.5 679.5,466 692,469 703,469 
		711,467.5 721,464 728,458.5 734.5,453.5 743,447 748.5,441.5 753.5,437 759.5,429.5 764,424.5 766.5,417 769.5,409.5 771.5,404 
		769.5,398.5 766,393 760.5,387 756,384.5 750,384 742.5,384 735.217,384.776 729.742,388.705 723.007,392.775 715.008,396.564 
		706.447,398.388 698.166,398.108 691.009,398.529 683.852,398.529 676.975,398.108 669.957,397.266 664,398.5 659.152,403.301 
		653.959,410.879 649,417.5 	"/>
	<polygon fill="#00FF00" stroke="#800080" points="898.3,499.661 903.93,496.613 909.354,495.45 915.552,497 919.814,500.874 
		925.237,503.973 931.823,505.523 937.507,505.765 943.183,506.943 948.481,510.173 953.517,514.82 958.553,519.082 
		961.653,521.406 967.075,526.442 972.113,531.866 975.212,535.74 978.698,542.715 979.473,549.686 978.311,555.498 
		976.373,561.308 973.275,567.894 969.013,573.706 964.752,579.516 959.847,585.096 954.68,588.427 949.256,591.914 
		944.607,594.625 937.245,597.338 928.336,597.724 921.75,598.112 914.777,597.338 907.804,596.176 901.218,593.464 
		895.406,591.138 890.758,587.652 886.11,583.39 879.752,577.79 875.535,572.45 873.324,565.959 872.55,559.372 872.55,552.786 
		872.55,544.263 873.324,538.064 876.424,529.543 879.91,521.795 883.01,514.82 888.822,507.847 893.47,503.198 	"/>
	<polygon fill="#00FF00" stroke="#800080" points="974.823,459.034 968.239,460.585 958.166,463.683 952.823,465.175 
		947.146,466.46 939.571,467.557 933.76,467.945 929.111,469.107 923.691,471.599 920.199,476.469 918.651,483.441 918.651,490.802 
		920.976,495.063 923.3,500.099 927.174,502.036 933.371,503.973 940.72,504.158 946.503,506.407 951.43,510.8 956.143,514.761 
		962.039,519.469 968.239,523.344 975.212,525.28 982.185,526.83 988.595,526.65 994.057,523.865 998.125,520.973 1001.554,516.475 
		1003.909,511.335 1006.266,504.265 1008.516,496.233 1009.265,490.556 1009.051,486.381 1007.122,480.275 1004.873,475.027 
		1001.233,469.779 998.069,466.395 991.095,461.359 983.735,458.26 	"/>
	<polygon fill="#00FF00" stroke="#800080" points="927.849,405.046 924.073,410.997 919.037,419.52 915.552,426.493 
		912.066,431.529 908.577,438.89 906.254,443.927 904.318,450.511 906.642,456.323 910.903,461.746 917.489,465.233 924.85,466.395 
		931.048,465.62 938.021,465.233 946.544,464.459 954.291,462.521 962.039,460.585 970.175,457.485 976.761,454.773 
		981.797,450.899 985.283,445.863 987.221,439.664 987.995,433.079 989.157,426.105 988.771,419.132 989.157,410.609 
		987.995,405.186 987.546,399.774 986.447,392.789 984.897,386.203 983.347,380.392 979.086,374.581 974.296,370.566 
		967.851,367.608 963.59,365.671 958.553,366.446 953.517,369.157 948.935,373.273 945.382,378.068 942.67,382.717 940.733,386.978 
		938.248,391.225 935.697,395.501 932.122,399.916 	"/>
	<polygon fill="#00FF00" stroke="#800080" points="885.332,372.257 880.297,377.68 875.701,385.384 872.549,394.339 
		871.856,402.623 872.16,410.609 873.422,418.296 875.648,424.943 878.746,432.304 883.396,438.503 889.594,442.764 896.18,443.151 
		902.379,441.601 907.802,435.403 911.676,428.043 916.712,420.682 920.974,413.321 925.622,406.348 930.841,399.346 
		935.685,393.077 938.392,387.379 942.281,380.005 946.656,373.558 950.074,367.717 948.866,361.797 941.506,357.148 
		932.596,355.986 923.298,356.76 913.226,359.085 903.911,362.16 896.18,364.896 890.757,368.77 	"/>
	<polygon fill="#00FF00" stroke="#800080" points="1280,348.483 1276.441,351.292 1273.307,353.993 1270.281,356.478 
		1267.527,359.481 1264.448,362.853 1261.638,366.526 1259.806,370.556 1259.806,377.024 1261.492,381.524 1263.462,386.304 
		1264.867,389.398 1267.68,393.335 1271.47,396.779 1275.273,400.084 1280,402.289 	"/>
	<polygon fill="#00FF00" stroke="#800080" points="1280.107,863.316 1274.632,867.88 1270.071,873.353 1265.052,878.828 
		1259.119,884.76 1252.278,892.971 1246.347,897.077 1239.959,902.552 1235.397,908.939 1234.029,916.695 1234.941,923.538 
		1238.134,931.295 1243.153,938.137 1247.259,945.893 1252.278,952.737 1255.927,957.756 1259.576,964.142 1264.596,968.248 
		1271.439,970.986 1277.368,970.986 1280.564,970.073 	"/>
	<polygon fill="#00FF00" stroke="#800080" points="1102.179,1023.908 1105.828,1014.783 1109.935,1006.115 1114.952,999.271 
		1120.428,994.254 1126.816,990.147 1135.94,987.866 1145.977,987.866 1154.189,988.778 1162.858,990.603 1169.699,992.428 
		1176.543,996.534 1182.475,1002.467 1189.319,1007.94 1192.968,1014.327 1198.443,1023.908 	"/>
	<polygon fill="#00FF00" stroke="#800080" points="856.538,700.367 854.858,710.459 855.279,721.391 858.222,729.802 
		865.789,732.324 871.677,731.903 878.405,730.221 884.712,728.539 891.44,726.857 897.746,724.336 905.737,721.811 
		913.305,718.448 918.772,716.345 925.498,712.981 932.227,710.459 937.694,708.356 944,705.834 950.308,703.73 955.354,702.469 
		959.559,699.526 959.138,693.639 955.354,691.116 951.57,688.174 948.204,683.128 948.204,679.344 949.888,676.399 
		954.092,674.719 960.821,673.035 964.184,671.353 964.184,666.728 962.923,660.842 959.98,655.375 956.195,650.329 
		949.467,644.863 944,640.237 940.216,636.875 936.432,634.35 930.966,632.248 923.818,630.145 916.247,630.566 907.839,630.145 
		900.691,632.67 893.541,637.716 887.656,643.601 882.19,651.171 877.985,658.739 872.939,668.41 867.472,680.183 862.847,688.174 	
		"/>
	<polygon fill="#00FF00" stroke="#800080" points="986.47,739.052 980.582,736.528 975.536,735.687 969.23,736.528 962.923,739.052 
		958.718,742.416 953.672,744.938 948.204,748.722 942.319,752.927 939.375,756.293 934.75,759.235 930.966,763.019 
		925.498,768.065 922.136,772.27 919.193,777.315 918.351,784.465 920.873,790.771 924.657,794.976 928.023,800.863 
		932.227,805.488 935.591,810.534 940.216,816.422 944.682,820.788 950.308,825.252 956.615,829.878 964.184,831.558 
		971.331,833.24 978.902,833.24 986.049,831.137 991.516,828.615 997.823,823.99 1003.288,818.103 1008.335,812.217 
		1011.279,805.488 1013.381,796.237 1015.063,787.407 1014.222,779.84 1012.96,771.849 1009.597,764.701 1004.971,757.973 
		1000.346,751.666 995.721,747.041 991.936,743.258 	"/>
	<polygon fill="#00FF00" stroke="#800080" points="876.303,734.427 872.518,738.212 869.155,744.517 869.573,752.508 
		872.518,758.393 877.144,764.281 881.349,768.065 887.656,771.849 894.383,774.794 901.951,775.215 907.839,775.215 
		913.305,773.952 918.351,770.169 922.977,765.964 927.182,762.178 931.386,757.973 936.012,755.03 939.796,752.088 
		944.842,748.722 949.888,745.359 955.354,741.574 962.08,736.949 967.127,734.846 973.435,732.744 978.06,730.641 977.64,724.336 
		974.697,719.289 970.911,715.506 966.706,710.88 962.923,707.094 958.297,705.834 953.25,705.413 947.365,707.094 941.899,709.197 
		936.012,711.301 928.443,714.243 920.032,718.027 911.202,720.97 903.634,724.756 896.066,728.119 889.758,729.802 882.61,731.903 
			"/>
	<polygon fill="#00FF00" stroke="#800080" points="888.075,828.615 892.7,832.82 900.007,837.377 907.07,841.975 913.119,846.873 
		918.403,851.83 923.002,856.758 928.257,861.684 934.17,863.491 939.754,862.343 944.189,859.55 948.623,855.279 952.566,850.023 
		954.934,845.013 957.035,838.707 956.195,833.24 952.238,828.837 947.474,825.057 942.382,820.623 938.934,817.01 935.977,812.904 
		932.528,808.635 929.9,804.527 927.272,800.914 924.152,796.643 921.688,792.702 918.732,788.595 915.827,784.465 912.464,781.52 
		906.156,780.679 900.691,782.782 895.407,785.475 889.758,788.67 886.815,793.295 884.712,799.601 883.031,805.909 882.61,811.797 
		883.031,819.785 	"/>
	<polygon fill="#00FF00" stroke="#800080" points="867.025,846.307 872.166,843.168 878.084,840.737 882.524,839.043 
		887.529,837.591 892.166,837.834 897.166,838.834 901.414,840.415 905.209,842.757 908.681,845.259 912.475,848.245 
		915.621,851.393 919.74,855.592 923.615,859.142 926.521,862.452 930.166,866.502 932.832,872.168 933.832,877.834 934.5,883.502 
		934.832,889.168 935.166,895.168 935.832,900.502 936.166,906.168 936.832,912.502 934.5,918.834 930.5,924.168 925.166,927.502 
		920.5,930.502 915.5,932.834 910.166,934.502 905.832,934.502 900.5,934.834 894.5,933.168 890.5,930.834 886.166,928.502 
		881.832,927.168 875.166,924.834 869.832,922.834 865.166,919.502 860.832,916.834 856.5,913.502 851.832,910.502 847.832,906.834 
		843.166,902.168 837.5,897.834 832.5,892.168 828.832,886.502 824.5,879.834 822.166,875.168 822.166,870.502 826.259,864.795 
		834.573,860.353 841.919,856.156 847.974,853.573 854.351,852.039 861.94,849.296 	"/>
	<polygon fill="#00FF00" stroke="#800080" points="803.75,855.75 806.832,860.168 810.5,862.834 816.166,864.834 822.5,864.168 
		828.166,861.834 833.5,859.168 839.832,854.834 844.166,851.502 849.166,850.168 855.166,849.834 861.5,847.502 866.701,844.935 
		871.832,841.502 876.5,838.502 879.166,834.502 880.5,829.168 879.5,823.834 877.166,817.502 874.832,811.834 874.832,806.168 
		874.832,799.502 876.166,793.168 876.832,785.834 875.832,779.502 872.166,773.834 868.166,769.502 862.832,764.502 
		859.166,760.502 853.166,756.502 848.5,754.502 842.5,753.168 837.832,752.502 831.832,753.502 825.5,754.502 819.832,756.168 
		814.832,757.502 809.166,760.502 804.5,764.834 800.5,770.502 796.832,777.168 795.166,785.168 794.166,792.834 794.5,801.834 
		795.5,809.834 796.5,817.502 797.5,825.502 798.5,834.502 799.5,841.834 800.5,848.834 	"/>
	<polygon fill="#00FF00" stroke="#800080" points="712.633,800.444 706.602,805.135 701.573,809.492 696.548,813.848 
		693.531,820.885 692.192,825.912 691.857,832.279 693.866,839.316 696.213,845.348 699.229,850.712 703.25,856.407 
		706.937,860.428 711.963,865.12 715.985,868.806 721.346,870.817 728.048,871.822 734.414,871.487 740.781,870.481 
		745.474,869.811 750.5,868.471 755.528,866.797 760.889,866.462 766.586,865.455 771.613,863.109 775.969,860.094 779.321,857.413 
		783.006,854.061 787.363,850.712 790.379,847.024 793.73,842.334 795.406,839.316 796.074,834.625 796.074,829.598 795.74,824.907 
		795.071,819.211 794.065,813.513 794.065,808.822 793.06,802.119 792.39,796.759 792.39,791.396 790.043,786.704 786.023,784.358 
		781.329,781.677 776.304,779.332 771.278,777.321 765.244,776.651 759.549,777.321 754.858,778.327 749.159,780.339 
		742.457,782.683 736.426,785.364 731.065,788.716 726.372,792.401 720.676,795.754 	"/>
	<polygon fill="#00FF00" stroke="#800080" points="762.9,749.844 759.213,745.821 754.858,742.469 747.82,741.131 740.113,740.459 
		732.07,742.469 725.031,744.815 717.659,748.838 711.963,751.182 707.272,754.869 700.57,758.555 694.871,763.582 689.846,767.268 
		685.155,771.961 680.463,775.981 676.107,779.668 672.42,783.018 671.078,788.046 672.085,793.071 673.761,799.103 
		676.777,803.796 680.798,808.151 685.823,810.832 692.192,812.509 697.553,811.169 703.25,806.14 709.281,801.114 715.315,797.427 
		722.687,792.401 728.719,787.375 735.086,783.688 740.781,782.012 748.824,778.327 754.858,775.31 758.543,773.635 
		761.895,770.954 765.244,765.259 765.244,757.216 	"/>
	<polygon fill="#00FF00" stroke="#800080" points="683.814,715.326 676.107,715.996 669.405,716.332 664.377,716.668 
		658.346,718.008 653.319,721.023 649.968,724.709 646.615,729.4 645.277,735.097 644.606,740.796 644.606,746.156 645.277,751.182 
		646.281,756.881 649.633,763.247 652.649,768.273 657.005,772.631 662.031,776.651 668.064,778.662 673.761,776.651 
		679.121,772.966 684.485,768.273 689.511,763.247 693.866,759.56 699.229,756.211 705.261,752.523 710.957,749.173 716.32,746.491 
		720.676,744.145 724.698,742.805 729.054,740.459 733.744,739.119 738.437,738.113 742.793,736.438 746.48,734.427 
		748.824,730.406 747.15,726.051 745.139,721.358 741.116,717.338 735.086,712.98 731.065,709.966 725.366,708.289 720.341,707.619 
		713.304,708.289 705.931,709.966 698.894,711.304 692.862,713.315 688.505,714.656 	"/>
	<polygon fill="#00FF00" stroke="#800080" points="649.968,654.002 644.271,658.357 639.578,663.05 635.558,668.746 
		632.206,675.113 629.862,681.48 627.18,687.847 625.505,694.885 624.163,702.258 624.835,708.959 628.186,714.991 633.213,718.343 
		639.914,719.012 647.956,717.003 653.99,715.661 660.357,714.321 667.059,714.321 673.426,713.65 679.456,712.98 685.155,712.31 
		691.187,711.304 697.218,709.295 703.25,708.289 711.963,706.613 719.335,704.937 726.707,702.593 733.074,700.246 740.448,697.9 
		747.15,695.219 750.164,690.193 749.494,684.831 748.49,678.8 745.809,672.767 742.457,667.74 739.442,663.385 734.75,658.022 
		730.73,654.002 725.366,650.315 722.687,647.3 717.323,644.283 710.286,642.607 700.57,642.607 689.846,644.283 681.803,645.623 
		673.426,646.965 666.724,647.969 660.692,650.315 655.663,651.99 	"/>
	<polygon fill="#00FF00" stroke="#800080" points="186.672,384.801 183.206,382.779 178.295,379.601 173.673,376.424 
		171.073,371.513 169.34,366.024 169.34,358.802 169.918,351.869 171.651,346.669 174.54,340.892 178.295,335.981 182.05,332.515 
		186.961,329.337 191.005,327.026 194.76,323.849 199.382,321.249 202.848,318.649 207.47,315.183 213.536,311.428 220.469,309.984 
		226.535,309.695 232.89,309.406 238.956,310.561 245.022,311.717 249.355,313.45 252.533,315.761 255.999,318.361 259.177,320.383 
		262.066,322.983 264.088,326.738 265.532,330.204 267.265,334.826 268.131,338.87 268.998,344.647 269.865,349.269 
		270.443,354.757 269.865,359.668 270.154,364.001 269.576,369.778 268.132,374.111 266.977,378.733 267.759,382.258 
		268.468,387.221 267.936,391.653 266.518,395.198 264.391,398.566 262.795,401.402 259.25,403.883 254.845,405.885 
		249.068,407.907 243.868,409.929 237.513,410.218 233.469,410.796 228.847,411.085 223.358,410.218 218.159,409.063 
		213.826,407.33 210.071,405.597 205.738,401.553 201.694,398.087 198.626,394.844 194.761,391.154 191.583,388.265 
		188.694,386.243 	"/>
	<polygon fill="#00FF00" stroke="#800080" points="169.053,374.691 162.993,374.461 156.054,376.425 149.699,379.025 
		145.077,380.758 138.722,383.935 131.789,387.402 126.012,391.446 121.101,395.779 117.346,401.556 115.035,409.067 
		113.013,417.155 112.146,424.666 112.146,431.021 114.168,436.799 118.212,443.731 122.545,449.509 127.744,454.42 133.81,459.041 
		138.143,463.663 142.765,470.885 149.987,474.063 156.342,474.063 164.141,474.641 169.341,473.774 174.541,473.485 
		179.163,472.041 184.363,470.308 189.274,465.975 191.585,463.664 194.193,460.082 196.496,454.998 198.518,449.51 
		199.674,444.888 200.829,439.688 203.14,435.644 205.162,431.022 206.895,425.822 208.339,420.045 208.628,414.846 
		209.083,410.448 207.311,406.725 204.652,403.357 201.284,399.457 195.789,394.494 192.164,390.581 187.812,386.517 
		181.253,382.972 175.758,379.604 172.035,376.591 	"/>
	<polygon fill="#00FF00" stroke="#800080" points="976.025,128.498 976.265,135.953 977.706,143.648 979.391,149.9 981.315,154.229 
		983.72,159.039 987.808,161.444 993.82,164.33 1003.44,165.773 1011.615,166.494 1017.387,166.254 1024.842,165.052 
		1031.574,162.887 1038.55,160.001 1044.08,155.913 1049.852,152.306 1054.18,147.977 1058.99,143.167 1062.116,138.117 
		1065.483,132.826 1066.926,127.295 1067.406,121.043 1065.964,115.512 1064.28,109.981 1061.394,104.69 1058.268,98.197 
		1053.939,94.349 1047.927,89.78 1041.674,86.894 1034.699,85.932 1025.802,84.729 1020.271,83.767 1013.537,83.046 
		1008.007,82.565 1002.717,83.286 996.946,84.008 992.136,86.413 988.047,88.337 985.883,90.983 982.996,94.35 981.073,98.438 
		979.389,103.488 977.465,109.26 976.742,115.752 975.541,122.245 	"/>
	<polygon fill="#00FF00" stroke="#800080" points="1175.175,798.989 1167.418,804.465 1161.031,811.307 1155.101,818.151 
		1151.45,827.276 1151.906,836.856 1153.276,847.349 1158.295,858.299 1163.314,866.968 1171.07,875.179 1180.194,882.479 
		1190.687,888.41 1201.18,891.603 1210.305,892.972 1221.709,893.885 1232.658,893.885 1243.152,890.691 1251.821,886.586 
		1259.576,879.742 1265.508,872.898 1270.527,863.773 1273.72,854.649 1274.176,845.068 1272.352,835.031 1269.614,827.732 
		1265.965,820.432 1261.859,814.045 1255.472,805.377 1249.084,799.901 1239.959,793.514 1230.836,790.32 1223.535,786.216 
		1212.13,784.846 1203.006,788.04 1192.513,793.515 1183.845,795.34 	"/>
	<polygon fill="#00FF00" stroke="#800080" points="1154.645,949.088 1151.451,955.475 1147.803,962.318 1145.522,970.987 
		1145.978,977.83 1148.715,984.219 1154.19,986.043 1160.577,987.411 1168.334,989.692 1173.809,992.885 1178.371,995.622 
		1183.39,999.728 1187.952,1003.834 1192.972,1008.852 1197.077,1012.502 1203.465,1013.87 1208.94,1011.59 1213.503,1006.57 
		1219.89,1002.008 1223.539,995.62 1229.471,992.884 1232.207,990.146 1236.771,986.953 1242.701,982.847 1245.895,978.284 
		1250.913,974.179 1254.564,970.986 1256.388,966.424 1254.564,960.948 1250.457,955.929 1245.895,948.63 1243.157,943.61 
		1238.596,939.962 1234.946,934.486 1229.927,929.924 1223.084,927.186 1213.503,925.361 1204.378,926.273 1195.709,928.554 
		1187.041,930.38 1179.741,933.116 1172.442,936.765 1163.774,941.328 1158.755,944.521 	"/>
	<polygon fill="#00FF00" stroke="#800080" points="733.284,341.695 742.089,344.568 750.962,346.786 759.835,346.786 
		768.155,346.786 775.364,343.459 781.464,337.358 785.901,330.149 788.673,321.83 790.337,312.957 788.673,304.638 786.455,296.32 
		783.682,290.22 780.169,285.215 776.473,280.792 772.591,277.465 769.263,273.583 763.718,268.592 758.172,264.155 
		751.517,259.719 743.753,255.837 735.435,254.173 727.221,254.617 721.571,257.5 714.851,263.08 709.426,270.458 706.171,279.355 
		703.567,289.12 704.001,295.197 705.52,299.971 708.775,304.962 712.247,309.736 716.37,314.944 719.352,319.612 722.68,327.376 
		727.67,336.803 	"/>
	<polygon fill="#00FF00" stroke="#800080" points="0,324.53 8.735,328.286 20.687,328.799 34.177,325.042 43.569,315.992 
		50.57,304.21 53.5,288.5 52.5,276.5 48.5,265.5 41.5,253.5 34.5,244.5 26.5,238.5 18.5,234.5 8.5,229.5 0,229.419 	"/>
	<polygon fill="#00FF00" stroke="#800080" points="648.66,354.378 649.99,362.359 651.764,372.114 655.312,380.096 659.745,385.417 
		667.283,388.964 674.823,391.625 682.361,393.842 690.785,393.842 696.993,393.842 704.088,393.398 712.07,392.511 
		719.164,389.851 724.928,387.191 729.363,383.643 732.023,379.209 732.91,373.001 731.136,365.463 730.249,358.812 
		732.023,353.047 732.91,347.283 729.806,342.405 724.041,337.084 720.494,329.103 718.721,324.225 716.503,319.791 713.4,315.8 
		710.295,312.253 704.975,309.149 700.097,308.705 691.672,310.479 682.361,314.469 676.153,318.904 669.945,325.112 
		663.737,329.99 657.085,334.424 650.434,339.745 647.33,346.396 	"/>
	<polygon fill="#00FF00" stroke="#800080" points="638.018,293.629 635.358,299.837 634.471,307.819 633.584,315.357 
		634.028,323.338 637.132,330.433 641.566,335.31 646.444,337.971 651.321,336.198 657.336,332.001 663.293,327.329 
		668.629,323.828 673.935,318.904 679.031,315.061 687.238,310.479 695.673,307.78 701.617,305.997 703.401,303.471 
		702.806,298.716 702.414,292.029 702.509,288.612 703.103,284.005 704.088,279.883 705.926,275.386 705.862,268.354 
		703.645,264.807 696.106,263.033 687.238,262.59 676.153,265.694 665.51,270.571 655.755,275.449 648.66,280.77 642.009,286.091 	
		"/>
	<polygon fill="#00FF00" stroke="#800080" points="112.929,261.605 111.311,275.358 112.12,288.302 116.974,300.437 
		123.446,312.572 134.772,320.662 150.143,326.325 166.323,325.516 180.075,321.471 192.211,314.999 204.345,309.336 
		214.053,303.673 224.571,298.819 231.851,290.729 235.896,278.594 237.514,264.841 235.896,255.133 231.851,246.234 
		225.38,235.717 218.907,227.627 210.818,220.346 199.491,211.448 184.12,209.02 170.367,205.784 159.042,206.594 142.862,212.257 
		132.345,221.964 125.064,234.099 119.401,245.425 	"/>
	<polygon fill="#00FF00" stroke="#800080" points="667.606,860.961 660.594,867.972 654.751,874.983 651.245,881.995 
		651.905,895.051 653.583,904.198 657.088,912.962 663.516,919.389 672.844,921.972 681.628,923.479 692.146,922.31 
		701.494,923.479 711.427,922.31 719.023,917.636 724.281,910.625 723.697,899.523 721.36,888.422 716.101,877.905 709.09,870.309 
		699.156,865.051 687.471,859.792 676.954,858.039 	"/>
	<polygon fill="#00FF00" stroke="#800080" points="611.178,889.528 603.124,895.051 599.903,900.573 597.491,907.703 
		600.997,919.389 608.593,929.322 616.189,938.671 626.706,945.097 637.223,947.434 648.908,946.266 655.336,942.176 
		658.841,935.165 660.01,926.984 655.126,913.688 652.825,906.326 649.834,896.201 648.453,886.537 647.763,881.475 
		642.471,877.794 632.347,878.254 619.922,882.855 	"/>
</g>
</svg>
