<?xml version="1.0" encoding="utf-8"?>
<!-- Generator: Adobe Illustrator 16.0.1, SVG Export Plug-In . SVG Version: 6.00 Build 0)  -->
<!DOCTYPE svg PUBLIC "-//W3C//DTD SVG 1.1//EN" "http://www.w3.org/Graphics/SVG/1.1/DTD/svg11.dtd">
<svg version="1.1" id="Layer_1" xmlns="http://www.w3.org/2000/svg" xmlns:xlink="http://www.w3.org/1999/xlink" x="0px" y="0px"
	 width="1280px" height="1024px" viewBox="0 0 1280 1024" enable-background="new 0 0 1280 1024" xml:space="preserve">
<g id="Raw_image">
	
		<image overflow="visible" enable-background="new    " width="1280" height="1024" xlink:href="Neuroblastoma_4.jpg"  transform="matrix(1 0 0 1 2.441406e-004 -2.441406e-004)">
	</image>
</g>
<g id="Not_annotated" opacity="0.5">
	<polygon fill="#0000FF" stroke="#800080" points="914,368 907,363 910,353 919,352 924,359 919,365 	"/>
	<polygon fill="#0000FF" stroke="#800080" points="1051,1023 1050,1014 1040,1014 1038,1008 1045,1004 1045,999 1046,987 1053,984 
		1058,991 1064,987 1072,983 1078,977 1082,969 1090,966 1099,964 1104,971 1098,974 1095,977 1089,973 1083,978 1081,985 1074,991 
		1066,994 1062,1003 1057,1005 1054,996 1050,999 1053,1008 1059,1012 1059,1022 	"/>
	<polygon fill="#0000FF" stroke="#800080" points="1056,736 1050,730 1052,725 1056,733 	"/>
	<polygon fill="#0000FF" stroke="#800080" points="1071,980 1064,975 1072,976 	"/>
	<polygon fill="#0000FF" stroke="#800080" points="1068,1017 1067,1010 1069,1001 1073,1009 1069,1016 	"/>
	<polygon fill="#0000FF" stroke="#800080" points="1089,798 1081,794 1081,787 1087,790 1089,782 1093,786 1091,795 	"/>
	<polygon fill="#0000FF" stroke="#800080" points="1083,1022 1078,1015 1082,1007 1086,999 1091,991 1101,989 1106,982 1116,984 
		1124,984 1128,992 1131,984 1138,986 1147,985 1140,981 1146,974 1142,971 1134,971 1142,967 1149,962 1152,953 1158,950 1165,951 
		1173,948 1179,947 1175,954 1178,960 1173,965 1166,970 1162,977 1155,982 1149,988 1142,993 1135,998 1126,1001 1117,1000 
		1114,996 1111,1005 1107,1013 1100,1017 1096,1011 1099,1007 1106,1006 1109,997 1105,993 1099,998 1093,999 1088,1006 1086,1014 	
		"/>
	<polygon fill="#0000FF" stroke="#800080" points="1102,805 1096,799 1095,792 1100,798 	"/>
	<polygon fill="#0000FF" stroke="#800080" points="1120,968 1114,962 1107,957 1108,949 1106,942 1113,940 1114,951 1121,951 
		1118,942 1122,939 1132,939 1127,933 1118,932 1123,926 1130,929 1136,927 1133,919 1127,913 1123,907 1133,906 1133,901 1124,898 
		1121,891 1129,894 1134,890 1128,886 1120,886 1121,878 1117,871 1109,867 1102,864 1097,857 1096,848 1101,841 1101,831 1098,822 
		1095,813 1097,812 1101,820 1104,829 1106,839 1102,845 1099,852 1106,853 1105,860 1114,863 1121,868 1126,875 1133,880 1138,887 
		1143,894 1148,901 1150,907 1151,917 1149,928 1143,934 1143,942 1138,949 1134,948 1126,944 1128,951 1134,957 1136,962 1129,959 
		1122,963 	"/>
	<polygon fill="#0000FF" stroke="#800080" points="1115,830 1109,824 1111,819 1116,826 	"/>
	<polygon fill="#0000FF" stroke="#800080" points="1122,921 1116,916 1123,917 	"/>
	<polygon fill="#0000FF" stroke="#800080" points="1185,945 1179,939 1174,941 1166,940 1158,938 1162,930 1168,933 1175,928 
		1184,925 1183,919 1177,921 1170,926 1172,920 1168,914 1175,908 1175,899 1173,892 1167,892 1159,891 1162,887 1164,882 1154,881 
		1148,882 1143,879 1139,875 1140,868 1132,866 1126,860 1119,857 1121,848 1125,846 1128,855 1135,860 1144,863 1152,867 1160,871 
		1168,875 1176,879 1183,884 1188,891 1188,896 1190,899 1196,904 1196,911 1203,910 1201,917 1193,916 1196,923 1194,933 1190,941 
			"/>
	<polygon fill="#0000FF" stroke="#800080" points="1149,856 1141,852 1132,851 1138,844 1146,848 1155,849 1154,842 1162,846 
		1157,852 	"/>
	<polygon fill="#0000FF" stroke="#800080" points="1156,1023 1150,1017 1142,1013 1147,1007 1154,1002 1157,994 1157,989 1161,997 
		1171,997 1177,1000 1175,992 1169,986 1176,986 1182,987 1191,983 1189,991 1188,997 1182,1000 1178,1007 1172,1009 1165,1013 
		1164,1019 1159,1012 1156,1016 1159,1023 	"/>
	<polygon fill="#0000FF" stroke="#800080" points="1173,833 1164,830 1162,825 1169,830 	"/>
	<polygon fill="#0000FF" stroke="#800080" points="1171,869 1168,862 1161,857 1169,858 1177,860 1185,862 1181,865 1173,868 	"/>
	<polygon fill="#0000FF" stroke="#800080" points="1185,982 1175,980 1178,976 1185,971 1191,977 	"/>
	<polygon fill="#0000FF" stroke="#800080" points="1200,701 1193,696 1186,691 1182,683 1184,682 1191,687 1197,693 	"/>
	<polygon fill="#0000FF" stroke="#800080" points="1207,1017 1199,1013 1192,1016 1186,1011 1189,1002 1195,1006 1202,1009 
		1208,1015 	"/>
	<polygon fill="#0000FF" stroke="#800080" points="1208,861 1200,857 1195,850 1189,845 1200,844 1203,853 1211,855 	"/>
	<polygon fill="#0000FF" stroke="#800080" points="1217,883 1208,880 1199,879 1193,873 1196,865 1205,868 1212,873 1219,878 	"/>
	<polygon fill="#0000FF" stroke="#800080" points="1199,834 1194,828 1203,829 1204,831 	"/>
	<polygon fill="#0000FF" stroke="#800080" points="1200,987 1197,982 1201,973 1201,964 1206,956 1213,957 1218,962 1223,955 
		1220,947 1216,939 1214,931 1219,929 1223,937 1226,946 1232,949 1240,945 1243,938 1239,932 1240,924 1247,922 1243,914 1240,911 
		1235,916 1230,909 1227,900 1225,894 1221,888 1228,882 1237,885 1243,891 1248,898 1248,906 1252,914 1252,924 1252,932 1249,940 
		1243,947 1238,954 1230,958 1226,966 1220,969 1210,969 1206,977 1201,985 	"/>
	<polygon fill="#0000FF" stroke="#800080" points="1279,964 1271,966 1264,971 1263,981 1264,987 1257,991 1262,995 1253,992 
		1246,996 1239,1000 1231,1000 1220,1001 1211,1000 1213,1007 1205,1004 1204,995 1214,992 1221,995 1218,989 1227,985 1231,993 
		1237,992 1238,983 1245,977 1246,971 1244,962 1249,965 1253,968 1260,966 1268,962 1269,956 1262,961 1261,954 1257,953 1257,949 
		1263,944 1262,936 1266,944 1274,948 1274,939 	"/>
	<polygon fill="#0000FF" stroke="#800080" points="1221,713 1216,706 1210,700 1208,690 1208,682 1216,683 1217,692 1221,698 
		1222,709 	"/>
	<polygon fill="#0000FF" stroke="#800080" points="1216,828 1210,824 1218,822 1215,815 1224,812 1221,805 1226,797 1232,799 
		1235,806 1227,806 1228,815 1229,818 1235,812 1242,813 1236,818 1230,824 1221,825 	"/>
	<polygon fill="#0000FF" stroke="#800080" points="1213,1023 1212,1016 1216,1017 	"/>
	<polygon fill="#0000FF" stroke="#800080" points="1229,855 1221,851 1213,847 1222,845 1229,850 	"/>
	<polygon fill="#0000FF" stroke="#800080" points="1232,869 1222,868 1216,865 1220,858 1228,862 1233,868 	"/>
	<polygon fill="#0000FF" stroke="#800080" points="1240,740 1233,735 1228,728 1226,719 1232,723 1236,731 1241,738 	"/>
	<polygon fill="#0000FF" stroke="#800080" points="1228,1023 1230,1015 1233,1006 1242,1008 1236,1014 1241,1019 1247,1019 
		1254,1020 1247,1023 	"/>
	<polygon fill="#0000FF" stroke="#800080" points="1232,944 1229,937 1235,932 1236,941 	"/>
	<polygon fill="#0000FF" stroke="#800080" points="1279,648 1273,652 1264,651 1255,654 1248,659 1241,654 1242,645 1243,636 
		1247,628 1252,621 1259,615 1267,617 1269,625 1272,623 1271,612 1278,612 1278,622 1278,632 	"/>
	<polygon fill="#0000FF" stroke="#800080" points="1248,773 1245,770 1241,764 1247,757 1251,765 	"/>
	<polygon fill="#0000FF" stroke="#800080" points="1256,700 1248,696 1250,687 1254,691 1262,693 1266,697 1257,699 	"/>
	<polygon fill="#0000FF" stroke="#800080" points="1258,718 1253,711 1256,709 1259,717 	"/>
	<polygon fill="#0000FF" stroke="#800080" points="1265,754 1259,748 1267,744 1268,737 1273,743 1268,749 	"/>
	<polygon fill="#0000FF" stroke="#800080" points="1279,928 1270,931 1271,925 1270,919 1262,923 1261,915 1268,913 1266,905 
		1272,900 1270,893 1262,889 1271,887 1278,892 1278,900 	"/>
	<polygon fill="#0000FF" stroke="#800080" points="1268,710 1265,703 1273,706 	"/>
	<polygon fill="#0000FF" stroke="#800080" points="1279,1010 1272,1015 1266,1013 1272,1007 1272,997 1278,996 1279,1003 	"/>
	<polygon fill="#0000FF" stroke="#800080" points="1279,596 1278,608 1271,604 1272,594 1273,584 1272,573 1271,562 1270,553 
		1268,545 1268,535 1270,527 1271,517 1274,511 	"/>
	<polygon fill="#0000FF" stroke="#800080" points="1271,979 1270,972 1275,976 	"/>
	<polygon fill="#0000FF" stroke="#800080" points="1279,498 1276,507 1271,500 1277,493 	"/>
	<polygon fill="#0000FF" stroke="#800080" points="1279,851 1273,858 1263,859 1258,852 1253,845 1251,835 1253,825 1259,818 
		1261,811 1261,802 1270,803 1274,811 1275,818 	"/>
</g>
<g id="Clumps" display="none" opacity="0.5">
	<polygon display="inline" fill="#FF0000" stroke="#800080" points="0,80 8,78 17,77 26,76 36,76 44,78 52,82 58,88 64,94 70,100 
		74,108 79,115 82,124 86,132 88,141 85,151 83,160 79,168 73,174 66,180 57,180 53,183 58,190 61,199 62,210 63,221 60,230 55,237 
		50,244 45,250 37,254 29,258 22,264 12,265 1,264 	"/>
	<polygon display="inline" fill="#FF0000" stroke="#800080" points="0,676 4,669 6,659 13,653 20,648 28,644 38,642 43,636 53,633 
		64,634 73,635 79,641 87,643 93,637 96,629 104,624 109,617 117,613 124,608 132,604 139,599 145,603 154,602 162,598 171,601 
		179,605 187,609 192,616 197,623 204,628 206,638 205,649 204,660 200,668 195,674 192,682 186,687 181,694 173,699 167,705 
		160,710 153,714 142,715 131,716 122,713 115,708 113,715 114,725 109,733 104,740 97,745 93,752 87,758 80,763 71,766 62,769 
		52,769 42,767 33,764 24,761 17,756 12,749 9,740 3,734 2,725 0,715 0,707 2,697 1,690 	"/>
	<polygon display="inline" fill="#FF0000" stroke="#800080" points="526,0 533,3 537,11 539,20 543,27 545,37 544,48 545,59 540,66 
		533,70 527,77 521,83 512,82 516,90 524,94 525,103 529,111 537,113 540,122 543,129 547,137 553,143 555,150 549,157 543,163 
		540,172 535,179 531,186 525,192 519,198 512,203 502,205 494,209 483,208 481,215 484,224 487,233 487,244 483,253 480,262 
		474,267 466,272 470,280 472,290 468,298 473,305 481,307 488,312 493,319 496,328 501,335 505,343 506,354 508,364 508,375 
		503,383 498,390 495,399 489,405 482,409 473,412 463,414 454,417 443,416 433,416 423,414 415,410 407,406 400,401 397,394 
		393,386 387,385 382,391 375,397 367,400 358,403 348,405 339,406 329,404 320,401 314,395 304,393 300,385 295,378 290,371 
		285,364 282,370 276,376 272,383 266,390 260,395 252,399 241,400 232,397 226,391 217,390 209,386 204,379 199,372 198,363 
		194,355 188,349 189,338 189,328 192,318 197,312 202,305 208,299 216,295 225,291 236,290 244,294 253,297 261,301 270,304 
		276,310 280,318 286,323 293,317 298,311 304,305 312,300 323,299 333,297 344,296 351,292 355,284 360,277 353,272 343,270 
		334,267 326,263 318,259 310,255 304,249 300,241 296,233 294,223 293,212 293,202 288,195 282,201 274,205 264,207 253,206 
		244,203 237,198 230,193 225,186 219,180 216,171 211,164 218,159 219,148 221,138 223,128 227,120 233,114 239,108 246,102 
		251,96 252,85 254,75 258,67 263,60 264,51 260,43 261,34 263,24 267,16 270,7 275,0 	"/>
	<polygon display="inline" fill="#FF0000" stroke="#800080" points="948,0 954,6 956,16 960,24 961,35 959,45 955,52 953,61 948,67 
		941,73 936,78 942,84 950,84 953,89 960,88 964,96 965,105 963,113 961,123 962,132 964,142 961,150 956,158 954,168 950,175 
		945,182 938,187 928,189 920,191 911,194 901,197 895,203 903,207 909,213 915,219 920,226 921,235 925,243 931,242 935,234 
		939,226 945,219 951,214 958,208 968,206 976,202 985,199 993,199 999,205 996,212 1005,215 1011,221 1017,227 1021,235 1027,241 
		1032,248 1035,257 1034,268 1037,277 1035,286 1030,294 1025,300 1020,307 1012,311 1006,317 997,320 986,319 976,321 967,318 
		958,315 950,311 943,306 939,298 933,292 930,283 923,285 925,295 924,305 919,313 915,320 910,328 904,333 897,338 888,342 
		878,341 868,339 859,336 848,335 840,331 835,324 834,315 829,308 826,317 818,322 812,328 811,338 805,345 798,349 788,347 
		780,343 770,341 761,338 753,334 747,328 750,319 743,322 738,315 734,307 731,298 726,291 723,282 725,272 728,263 732,254 
		735,246 740,239 747,234 754,229 762,225 765,218 759,212 756,203 756,193 758,185 755,176 762,171 761,161 768,157 772,148 
		777,141 784,136 794,134 803,131 811,133 820,136 829,134 827,124 823,116 822,107 824,96 829,89 830,81 823,76 818,69 816,59 
		812,51 812,41 811,30 812,19 813,9 817,3 	"/>
	<polygon display="inline" fill="#FF0000" stroke="#800080" points="1181,824 1172,821 1164,817 1157,812 1151,806 1145,800 
		1141,792 1136,785 1132,777 1129,768 1125,760 1122,751 1118,743 1116,733 1110,727 1100,725 1093,720 1087,714 1081,708 1076,701 
		1071,694 1067,686 1065,676 1063,666 1058,659 1050,655 1042,651 1035,646 1028,641 1019,638 1016,629 1014,619 1012,609 1008,601 
		1007,590 1007,578 1009,568 1013,560 1019,553 1026,549 1034,544 1044,542 1056,542 1067,543 1077,545 1084,550 1091,555 1097,561 
		1104,559 1110,553 1118,549 1130,548 1138,552 1148,554 1154,560 1159,567 1166,572 1173,577 1180,582 1185,589 1189,597 1193,605 
		1197,613 1199,623 1204,630 1206,640 1206,649 1200,656 1194,661 1186,665 1178,669 1177,681 1174,690 1172,700 1176,706 1186,708 
		1196,710 1205,713 1211,719 1216,726 1220,734 1224,742 1227,751 1232,758 1235,767 1237,775 1242,782 1247,789 1248,783 1253,781 
		1257,789 1251,794 1245,795 1237,796 1239,788 1234,781 1229,788 1222,793 1217,800 1211,807 1207,815 1200,819 1190,821 	"/>
	<polygon display="inline" fill="#FF0000" stroke="#800080" points="252,574 242,572 239,563 234,556 229,549 228,541 232,533 
		230,524 234,515 238,507 243,501 249,494 256,489 263,484 272,483 281,480 289,484 300,484 308,487 316,491 320,499 325,506 
		328,515 326,525 324,535 322,545 317,552 312,558 305,564 299,569 288,570 276,570 266,572 255,573 	"/>
</g>
<g id="Single_nuclei" opacity="0.5">
	<polygon fill="#00FF00" stroke="#800080" points="259.874,772.943 249.406,772.943 240.784,769.864 234,767 226.928,761.858 
		220,757 214,751 209,744 199.832,742.152 193,736 195,726 200,719 201,708 203,698 207,690 211,682 217,675 223,669 230,664 
		240,662 250,660 260,660 266.956,661.173 275.885,663.943 284,668 290,672 296,678 300.518,684.573 306,692 309,701 311,711 
		311,721 310,731 306,740 302,748 297,755 290,760 284,765 277,770 269.419,772.019 	"/>
	<polygon fill="#00FF00" stroke="#800080" points="285.563,1024 281,1018 278.531,1007.599 278.901,995.199 281,984 
		282.232,973.731 285.933,964.662 290.745,957.074 298.702,953.187 307.956,948.007 316.656,945.599 327,945 328.5,940.233 333,939 
		336.457,939.122 342.195,942.454 347.007,948.007 353,951 361,955 367.365,960.406 373,967 377.913,973.731 383.652,981.505 
		387.168,988.168 387.723,996.679 388.648,1007.969 387,1016 384.022,1024 	"/>
	<polygon fill="#00FF00" stroke="#800080" points="61.317,181.788 53,181 43,179 34,176 25,173 16,170 7,167 0,164.944 0,150 0,138 
		0,126 0,114 0,102 0,90 0,78.5 9,74 19,72 30,71 39,72 48,75 56,79 61,86 67,92 71,100 75,108 79,116 83,124 87,132 89,142 87,152 
		85,161 82,170 76.101,176.492 68.157,180.243 	"/>
	<polygon fill="#00FF00" stroke="#800080" points="130,716 121,713 113,709 110,700 106,692 102,684 98,676 95,667 91,659 87,651 
		83,643 86,635 91,629 97,623 103,616 108,610 114,604 123,601 133,598 142,595 152,595 163,596 174,597 182,601 188,607 194,613 
		200,619 203.835,626.07 205.374,635.307 207.53,646.7 206.914,655.937 204.142,664.558 198,674 193,681 187,688 181,694 175,700 
		168.117,704.895 161.959,709.821 152.721,714.748 145.024,716.288 137.018,716.903 	"/>
	<polygon fill="#00FF00" stroke="#800080" points="0,672 3,664 7,656 12.314,649.163 18,643 26,638 33,634 43,631 55,631 
		65.891,631.922 74.82,635.924 82,640 86,648 90,656 93,665 97,673 101,681 105,689 109,697 112,706 114,716 113,726 109,734 
		104,742 100.069,748.927 94,755 86,760 78,764 70,768 62,771 52.959,773.252 39,770 31,766 24,761 17,756 12.622,751.082 
		8.927,744.925 3,734 1,724 0,713 	"/>
	<polygon fill="#00FF00" stroke="#800080" points="251,208 242,205 235.53,199.433 230,193 224.838,187.831 218.923,180.78 
		215.49,173.262 212,163 212,151 212,139 215,130 218,121 224,114 231,109 237,104 243.947,101.387 253.501,100.705 263,101 
		273,103 281,107 286,114 291,121 297,127 299.907,135.282 301.273,147.567 300.59,163.263 299.907,173.045 297.633,182.144 
		293.311,188.969 288.989,195.566 282.619,200.115 275.567,204.893 269.88,207.85 261.918,208.76 	"/>
	<polygon fill="#00FF00" stroke="#800080" points="531,0 536,7 541,14 544,23 545,34 547.207,45.82 547.506,56.526 541.26,64.258 
		536.203,70.95 527.877,77.047 522.213,81.416 513.322,83.032 496.58,79.51 484,78 473,77 462.895,75.857 452.634,73.924 
		442.82,72.139 436.723,69.463 430.478,62.92 426.76,55.931 424.381,48.942 423.192,41.061 423.785,31.098 424.084,22.919 
		425.867,13.254 428.694,3.737 429.416,-0.083 	"/>
	<polygon fill="#00FF00" stroke="#800080" points="493.318,208.515 485.032,208.919 476.546,206.697 467.452,204.474 
		458.361,201.443 450.682,197.805 441.79,193.967 433.709,190.531 425.424,185.48 417.927,182.157 410.269,176.386 404.489,169.651 
		401.295,163.397 398,152 398,140 399,129 401,119 404,109 407,100 411,93 416,86 422.448,81.21 428.462,77.179 437.021,74.667 
		447.272,74.927 457.243,76.155 468.247,77.493 481.185,78.831 492.549,80.243 503,82 512,85 520.503,89.5 526.918,94.816 
		532.416,101.873 536.907,109.572 540,117 543,126 545.247,135.772 549.694,141.025 553.937,144.056 555.352,149.916 
		553.129,156.382 545.449,159.615 541,166 538,175 534,183 529,190 522.414,195.179 515.545,200.635 506.654,205.282 499,207 	"/>
	<polygon fill="#00FF00" stroke="#800080" points="980,321 970,319 961,316 953,312 945,308 940,301 935,294 931,286 930,275 
		930,263 930,251 932,240 936,232 940,225 946,218 952,213 960,208 969,206 978,202 986,198 994,200 999,207 998.587,213.258 
		1005.679,214.715 1012,222 1018,228 1024.611,235.105 1029.109,241.209 1033,249 1035,259 1035,269 1037.461,278.156 1034,287 
		1029,295 1024,302 1019,308 1011,312 1003.406,317.673 995,320 987.662,320.885 	"/>
	<polygon fill="#00FF00" stroke="#800080" points="882.928,344.017 875,344 865,342 855,340 845,338 838,333 833,326 831.525,319.6 
		831.525,308.998 832.809,298.074 831.846,285.866 832.166,273.658 832.809,260.486 835.379,250.205 838.912,244.422 843,237 
		849,231 855,226 861,220 868,214 874,208 880,203 890,200 901,201 907,207 913,213 918,220 922,228 927,235 930,244 930,256 
		930,268 930,280 925.656,290.685 924.051,298.074 921,307 917,315 913,323 909,330 903,336 895,340 889.354,343.696 	"/>
	<polygon fill="#00FF00" stroke="#800080" points="883,195 877.647,192.427 870.735,185.515 865.741,178.795 859.406,172.842 
		853.452,165.354 848,158 842,152 837,145 831,139 826,132 822,124 820,114 821,103 824.924,93.659 831.007,88.252 840,85 850,83 
		861,82 872,81 883,80 895,80 906,79 917,78 928.341,79.127 938,81 948,83 957,86 960.224,88.302 964,91 967.544,98.39 
		967.882,104.474 964,115 964,127 964.841,138.947 962.475,148.409 959,158 956,166 952,175 946.196,180.906 940.627,184.939 
		930.834,188.203 919.506,190.891 910.482,193.579 899.92,197.228 889.936,196.652 	"/>
	<polygon fill="#00FF00" stroke="#800080" points="949,0 954,7 958,15 960.808,22.99 962,31 960.527,40.151 958.557,48.45 
		955.604,58.156 950.538,65.611 943,71 935,76 925,77 914,78 903,79 892,80 881,81 870,82 858,82 847,83 836,84 828.563,81.125 
		821.563,76.125 816.813,66.284 813,59 810.716,48.309 811,37 809.871,25.24 810,14 810.294,5.828 813.811,0 	"/>
	<polygon fill="#00FF00" stroke="#800080" points="1180.957,822.857 1172,821 1164,817 1157,812 1151,806 1145,800 1141,792 
		1136,785 1132,777 1129,768 1126,759 1122,751 1118,743 1119,735 1123.235,729.122 1131.444,724.092 1140.446,718.796 
		1149.448,715.352 1158.45,711.645 1167.453,708.998 1175,707 1186,708 1196,710 1205,713 1211,719 1216,726 1220,734 1224,742 
		1227,751 1232,758 1235,767 1236.063,774.618 1234,781 1229,788 1222,793 1217,800 1211,807 1205.849,812.796 1200,819 
		1190.49,822.594 	"/>
	<polygon fill="#00FF00" stroke="#800080" points="1057.036,659.481 1052,658 1043,655 1035,651 1029,645 1020.762,642.27 
		1014.406,634.856 1013,625 1011,615 1008,606 1005,597 1004.345,589.312 1004,580 1006,570 1010.964,561.245 1014,554 1021,548 
		1027,542 1035,538 1047,538 1058,539 1068,541 1077,544 1085,548 1090,555 1095,562 1097.55,569.983 1099,580 1098,591 1096,601 
		1094,610 1091,620 1089,629 1084,637 1079,643 1073,650 1067,656 1063.128,658.158 	"/>
	<polygon fill="#00FF00" stroke="#800080" points="1110,726 1098,726 1090,722 1083,717 1078,710 1074,702 1069,695 1067,685 
		1066.039,675.635 1065.776,666.896 1067,658 1072,652 1078,645 1083,639 1088,632 1096,627 1106,629 1116,631 1125,634 1134,637 
		1142.033,641.742 1149.719,647.631 1156.312,653.16 1162.905,659.54 1170.986,665.069 1174.176,669.748 1175.24,677.191 1174,687 
		1172,696 1167.719,703.968 1160.834,708.998 1152,712 1144,716 1135,720 1127,723 1117,725 	"/>
	<polygon fill="#00FF00" stroke="#800080" points="1175.877,664.219 1168.647,660.177 1162.266,655.925 1155.886,651.246 
		1149.931,646.141 1143.338,641.463 1135.682,636.359 1126,633 1116,631 1107,628 1097,626 1093.314,620.557 1094.903,610.76 
		1099.934,603.082 1102.846,593.551 1104.964,582.428 1106.024,573.955 1102.052,566.011 1105.229,557.01 1114,548 1123,547 
		1134,548 1144,550 1150,556 1156,562 1162,568 1169,573 1177,577 1183,583 1187.577,593.019 1190,600 1194,608 1198,616 
		1202.671,625.324 1206.378,634.327 1207,643 1204,650 1199.484,656.35 1192,661 1186.298,664.219 	"/>
	<polyline fill="#00FF00" stroke="#800080" points="-0.072,167.008 4.69,167.802 10.166,169.469 14.611,170.896 18.182,172.087 
		22.547,173.674 26.451,175.168 30.644,176.492 34.837,177.816 38.579,178.754 42.56,180.022 46.532,181.126 50.945,182.45 
		54.034,183.774 56.903,185.76 59.11,188.629 59.772,191.719 59.772,195.248 61.096,198.338 63.302,201.868 64.627,206.282 
		64.627,210.254 64.406,215.109 64.185,219.081 64.185,223.052 64.185,226.804 63.082,230.997 60.875,234.748 57.786,237.396 
		55.8,240.927 53.814,245.119 51.828,248.65 48.518,252.402 43.443,253.946 39.029,254.608 35.278,255.05 31.968,257.035 
		29.761,260.126 27.334,263.436 24.686,265.643 20.934,266.526 16.962,267.187 12.99,266.746 8.356,265.864 3.943,265.201 
		-0.131,263.205 -0.072,167.122 	"/>
	<polygon fill="#00FF00" stroke="#800080" points="262.114,1.161 258.615,6.569 257.343,13.248 259.887,18.973 259.887,23.427 
		257.025,31.06 256.706,37.739 258.297,45.373 261.159,52.052 266.567,56.187 272.61,59.05 279.289,61.594 285.651,62.866 
		291.694,62.866 298.055,62.548 305.689,62.548 313.323,60.004 320.638,59.05 327.317,58.095 333.361,55.233 339.404,53.324 
		345.447,50.78 350.218,47.281 354.989,46.009 360.077,43.146 361.668,38.057 363.576,32.014 364.531,25.97 364.531,21.199 
		362.622,15.156 361.987,10.703 360.714,5.296 359.442,0.207 	"/>
	<polygon fill="#00FF00" stroke="#800080" points="250.981,64.138 254.798,60.322 258.933,56.187 261.478,54.915 264.976,56.823 
		270.065,58.731 274.2,60.958 279.289,61.594 284.378,63.821 290.422,64.138 295.51,63.821 301.554,63.502 305.689,64.138 
		308.552,62.548 315.866,60.64 322.546,60.004 326.681,59.367 331.451,56.505 336.859,55.233 340.676,53.642 345.129,51.734 
		347.674,51.734 353.399,54.279 358.488,57.777 362.941,63.184 366.12,69.227 368.03,75.271 368.03,79.724 370.256,82.905 
		373.118,87.357 374.709,94.037 373.118,98.49 370.256,101.989 364.213,103.579 360.077,105.487 353.399,108.031 347.99,110.258 
		341.948,111.531 337.177,113.121 330.497,114.393 324.136,116.619 316.821,120.118 310.778,122.344 305.052,123.299 
		299.326,122.344 295.131,120.723 291.263,118.904 287.877,115.347 286.287,111.531 284.06,107.714 280.561,104.533 
		276.109,102.943 270.065,100.716 264.976,99.762 259.887,98.49 255.752,97.219 250.981,94.037 249.073,89.266 247.165,83.859 
		247.165,77.497 248.119,71.454 	"/>
	<polygon fill="#00FF00" stroke="#800080" points="304.436,127.075 307.364,124.148 311.488,123.084 315.231,122.027 
		319.684,120.436 323.196,118.427 327.188,116.831 331.312,115.635 335.171,114.835 338.763,113.371 341.948,112.802 
		346.214,111.376 350.737,110.045 354.989,108.986 359.123,107.395 363.259,106.123 368.03,106.123 373.118,106.441 
		378.526,107.395 383.297,110.258 387.432,113.121 390.613,117.256 394.111,120.754 396.338,125.207 396.656,130.296 
		397.291,133.795 396.656,140.792 396.638,149.56 396.638,153.419 398.235,160.47 398.501,165.792 395.573,170.05 392.514,173.376 
		387.192,176.037 381.338,174.972 372.29,174.307 365.905,172.844 359.916,172.046 354.462,171.38 348.74,170.981 342.222,170.715 
		336.501,170.981 331.451,171.645 327.317,173.871 322.546,175.143 317.456,175.78 313.323,175.78 309.187,174.825 306.324,172.599 
		303.505,169.385 302.308,163.797 302.19,158.286 302.19,153.515 302.19,148.108 302.508,142.701 302.508,136.657 303.144,130.932 	
		"/>
	<polygon fill="#00FF00" stroke="#800080" points="315.5,178.25 309.5,179.75 304.5,181.5 300.75,184.5 297.5,189.75 294.5,194.5 
		291.75,200.5 291.75,206.75 291.75,212.5 292,219.5 293,228 295,235.25 298,241.75 302.25,248.5 307,254.75 313.25,258.5 
		320.25,260.25 325.576,261.292 330.664,264.441 337.205,267.106 343.262,269.529 349.561,271.224 355.376,271.951 360.948,273.405 
		366.034,273.405 371.849,271.468 377.421,269.529 383.478,267.348 387.596,262.745 390.503,259.596 392.441,252.328 
		393.409,244.576 394.864,240.215 395.591,235.612 395.832,231.01 396.318,226.891 396.802,222.288 397.044,217.2 397.285,212.113 
		397.285,207.268 396.56,204.118 395.348,198.789 393.895,193.944 392.441,189.825 390.744,184.738 386.627,180.377 
		382.992,177.228 377.421,176.016 374.272,176.016 369.91,174.805 364.823,173.594 359.916,172.046 354.891,172.867 
		350.773,172.625 345.685,172.625 340.355,172.14 334.54,172.383 331.15,172.867 328.727,174.805 325.093,176.26 320.975,177.228 	
		"/>
	<polygon fill="#00FF00" stroke="#800080" points="394.137,249.421 393.895,252.086 393.168,254.993 392.683,256.689 
		392.198,260.08 393.409,262.503 397.285,264.199 401.647,265.41 406.008,264.927 411.338,264.683 415.941,264.683 420.059,264.683 
		424.904,264.683 430.234,264.927 435.564,265.168 441.863,266.137 447.434,267.106 453.975,268.559 459.063,269.044 
		463.424,270.013 468.026,269.771 472.145,270.013 476.021,268.559 479.655,264.927 482.804,259.838 484.741,254.751 
		486.68,249.421 487.892,243.849 487.892,238.519 487.65,232.22 486.68,227.375 485.469,222.046 483.773,217.443 482.076,214.778 
		479.411,212.355 474.81,209.933 468.994,207.994 464.877,205.814 460.274,203.876 456.64,202.18 452.036,200.485 446.223,197.82 
		440.165,195.155 436.531,193.459 431.929,191.279 428.296,189.098 424.177,186.677 419.331,184.98 415.941,182.8 412.064,180.377 
		408.914,177.712 405.281,177.228 400.678,177.712 397.771,181.588 395.832,186.918 395.348,192.248 396.51,200.02 398.052,205.674 
		398.196,211.03 398.052,215.183 397.795,220.451 397.153,227.776 396.767,232.53 396.51,238.441 395.096,242.296 394.197,245.894 	
		"/>
	<polygon fill="#00FF00" stroke="#800080" points="219.395,289.353 211.089,292.122 204.168,296.621 200.015,302.504 195.17,309.08 
		190.324,313.233 184.441,317.732 182.711,325.345 183.403,333.305 185.479,339.535 185.479,346.111 187.21,352.686 191.017,360.3 
		193.785,364.453 196.9,369.644 199.323,377.258 203.822,382.795 210.051,387.986 214.55,390.755 219.395,392.139 223.894,392.485 
		229.431,396.638 236.353,400.099 243.967,401.829 250.888,401.137 258.156,398.715 265.77,393.87 269.231,386.948 275.115,383.833 
		277.883,377.95 283.074,376.566 285.843,373.105 285.843,365.145 285.497,357.185 285.497,350.956 285.497,343.342 
		285.151,336.074 284.804,329.153 284.804,320.501 280.305,313.233 276.499,308.042 269.231,302.158 260.233,296.968 
		252.965,293.852 241.545,290.738 233.931,289.699 226.317,289.353 	"/>
	<polygon fill="#00FF00" stroke="#800080" points="306.261,302.504 301.071,304.927 296.225,310.464 291.726,316.347 
		288.265,320.501 286.881,325.692 286.189,331.229 286.189,337.459 286.189,341.958 286.535,348.187 286.535,354.762 
		286.189,361.338 286.881,367.914 288.612,375.181 292.764,380.027 298.302,385.564 301.762,392.139 307.646,394.562 
		313.875,397.33 318.028,401.137 324.949,404.598 332.564,406.675 340.177,407.367 348.483,406.675 355.405,406.328 361.635,405.29 
		368.556,402.868 375.823,400.791 379.283,396.984 384.13,393.87 388.281,389.025 391.052,382.103 391.742,375.181 392.781,369.298 
		393.128,361.684 393.128,356.493 391.742,350.61 390.359,346.457 387.937,342.996 385.514,338.497 383.438,335.382 
		380.669,331.229 376.17,326.73 373.746,322.577 369.94,317.732 366.48,313.579 362.673,310.118 358.174,305.273 354.021,301.12 
		351.252,297.659 346.406,295.929 340.524,297.313 337.755,295.237 332.218,294.545 327.719,295.583 323.219,298.351 
		318.373,298.698 313.183,300.082 	"/>
	<polygon fill="#00FF00" stroke="#800080" points="374.294,273.558 369.141,276.557 362.956,279.649 357.482,282.432 
		352.983,287.969 351.944,294.198 355.059,299.736 358.174,305.273 363.019,308.734 366.48,313.579 369.94,317.732 373.746,322.577 
		378.245,327.422 381.706,331.229 385.168,333.998 389.321,336.074 394.858,336.766 400.395,337.113 404.895,337.459 
		410.778,335.728 416.315,334.344 422.172,331.37 428.428,328.806 434.259,325.28 439.503,321.539 443.656,318.078 448.501,314.271 
		454.384,311.503 459.229,308.042 463.035,305.273 467.534,301.12 471.688,294.89 473.073,290.391 472.726,284.162 471.342,279.663 
		465.805,275.164 459.921,272.049 452.654,269.973 444.348,267.896 436.734,266.858 431.197,266.512 424.275,266.512 
		417.698,266.166 411.47,266.512 404.549,266.858 396.406,267.094 390.128,267.375 384.132,268.969 378.604,270.935 	"/>
	<polygon fill="#00FF00" stroke="#800080" points="395.551,352.34 395.203,347.149 396.241,342.65 400.05,339.189 404.895,338.843 
		411.47,337.113 416.66,336.074 421.507,333.305 426.006,331.229 430.85,328.806 434.633,325.935 438.464,323.961 441.925,321.539 
		445.732,318.078 450.576,314.617 455.768,312.541 460.267,309.426 464.42,305.965 468.573,301.812 473.073,301.812 478.263,302.85 
		482.762,307.003 487.608,310.81 491.069,316.347 494.875,321.539 497.298,327.422 501.797,332.614 505.949,337.804 
		508.719,344.726 509.065,351.648 511.141,357.877 512.179,365.145 511.141,370.682 509.757,377.258 508.719,382.449 
		503.873,384.179 501.105,387.986 500.759,393.524 499.72,398.369 496.951,402.176 492.107,408.059 483.454,411.866 
		475.149,416.019 465.113,418.441 453.692,419.48 441.925,419.48 431.889,418.095 419.43,415.673 410.432,410.827 402.818,408.405 
		396.935,403.906 394.512,394.216 392.781,385.91 393.474,378.988 395.551,372.067 395.896,363.76 395.551,357.531 	"/>
	<polygon fill="#00FF00" stroke="#800080" points="0.468,303.116 6.96,301.073 15.814,298.73 24.407,299.511 33.001,300.813 
		38.469,301.334 44.198,304.719 48.104,308.886 53.573,312.531 58.26,320.083 60.864,326.073 63.989,333.364 67.895,339.614 
		70.239,347.165 70.239,353.935 71.223,361.478 71.801,368.258 70.759,373.726 68.936,379.195 67.374,382.58 69.718,387.267 
		69.718,394.298 67.374,400.027 62.166,403.152 61.645,407.058 57.479,411.224 53.052,413.307 49.406,412.526 44.198,414.349 
		36.907,415.39 30.918,416.693 25.709,416.693 20.241,417.995 15.033,419.557 7.741,419.297 0.468,418.74 	"/>
	<polygon fill="#00FF00" stroke="#800080" points="-0.036,424.639 5.137,428.931 10.345,434.922 13.991,440.65 17.116,444.816 
		20.501,450.546 21.803,456.274 19.981,463.305 17.897,469.815 16.074,477.106 13.47,484.919 9.565,490.907 4.877,496.377 
		0,500.817 	"/>
	<polygon fill="#00FF00" stroke="#800080" points="269.202,482.793 257.898,489.181 252.491,495.08 248.068,499.011 
		242.661,501.962 236.272,505.401 230.374,509.334 226.442,516.215 225.95,526.045 229.882,534.399 229.882,542.756 228.899,551.11 
		231.357,562.906 236.763,570.77 244.135,576.177 252.491,577.651 261.338,576.177 266.253,572.245 274.117,573.719 
		286.405,573.719 297.709,573.227 306.556,568.312 312.453,560.449 319.335,554.059 325.233,542.756 329.164,528.993 
		330.148,517.197 329.656,507.859 323.758,499.011 319.335,492.622 311.471,485.741 303.607,482.302 291.811,480.336 
		280.507,480.826 	"/>
	<polygon fill="#00FF00" stroke="#800080" points="766.625,341.447 776.265,345.302 785.904,347.551 794.256,351.406 801.323,349.8 
		807.75,345.302 812.246,341.125 813.531,334.057 815.139,328.274 819.637,324.419 823.814,322.17 827.669,318.957 829.276,313.495 
		830.882,305.464 831.202,298.395 830.882,289.721 830.24,283.296 830.882,276.227 831.525,268.196 831.525,260.485 
		830.882,255.023 827.027,250.204 821.565,246.028 813.854,242.173 805.823,237.996 795.22,232.534 783.012,227.073 
		776.586,225.145 768.554,223.86 758.916,224.823 751.204,227.715 743.817,232.855 738.032,238.96 733.534,246.349 730.965,254.702 
		728.073,264.341 722.933,271.408 722.291,276.87 723.254,285.866 726.146,294.862 730.323,297.753 733.214,301.929 
		733.857,307.713 733.857,312.21 736.106,318.315 740.604,322.17 744.78,327.632 751.527,331.808 757.631,336.306 	"/>
	<polygon fill="#00FF00" stroke="#800080" points="760.2,159.283 757.631,166.352 754.418,173.741 753.133,184.022 752.49,192.696 
		753.776,202.656 756.666,210.688 762.449,218.719 770.482,220.969 777.87,222.896 784.94,226.43 793.935,229.643 801.003,232.534 
		806.785,235.747 812.246,237.675 818.031,240.566 824.778,241.209 829.918,240.887 835.379,240.245 841.161,237.353 
		846.303,231.571 850.48,227.715 854.656,224.181 859.796,219.362 864.294,214.864 868.791,210.045 872.648,205.868 
		876.182,202.977 878.109,198.802 876.823,194.302 874.574,191.09 870.72,187.235 867.507,184.022 864.294,179.845 860.439,175.669 
		856.262,171.171 852.406,167.316 849.837,164.103 846.156,160.361 843.41,156.714 838.283,150.953 835.379,146.112 
		831.525,141.935 826.704,138.079 822.538,135.4 817.709,132.939 813.854,131.333 810.321,129.405 805.823,127.799 799.397,127.799 
		792.327,129.084 786.546,131.654 779.799,133.26 774.657,138.722 770.482,144.505 765.342,150.93 	"/>
</g>
</svg>
