<?xml version="1.0" encoding="utf-8"?>
<!-- Generator: Adobe Illustrator 16.0.1, SVG Export Plug-In . SVG Version: 6.00 Build 0)  -->
<!DOCTYPE svg PUBLIC "-//W3C//DTD SVG 1.1//EN" "http://www.w3.org/Graphics/SVG/1.1/DTD/svg11.dtd">
<svg version="1.1" id="Layer_1" xmlns="http://www.w3.org/2000/svg" xmlns:xlink="http://www.w3.org/1999/xlink" x="0px" y="0px"
	 width="1280px" height="1024px" viewBox="0 0 1280 1024" enable-background="new 0 0 1280 1024" xml:space="preserve">
<g id="Raw_image">
	
		<image overflow="visible" enable-background="new    " width="1280" height="1024" xlink:href="Neuroblastoma_6.jpg"  transform="matrix(1 0 0 1 2.441406e-004 -2.441406e-004)">
	</image>
</g>
<g id="Not_annotated" opacity="0.5">
	<polygon fill="#0000FF" stroke="#800080" points="102,870 92,868 89,862 96,859 102,865 	"/>
	<polygon fill="#0000FF" stroke="#800080" points="110,308 101,305 106,297 113,292 120,295 112,298 110,307 	"/>
	<polygon fill="#0000FF" stroke="#800080" points="123,323 115,322 108,320 110,317 114,310 118,303 116,311 125,310 131,312 
		136,306 140,306 138,314 130,318 123,320 	"/>
	<polygon fill="#0000FF" stroke="#800080" points="115,879 107,875 107,867 110,858 116,855 120,863 120,872 	"/>
	<polygon fill="#0000FF" stroke="#800080" points="144,357 134,355 126,351 117,348 115,341 124,342 130,348 134,341 133,332 
		137,327 143,330 139,339 143,345 145,355 	"/>
	<polygon fill="#0000FF" stroke="#800080" points="125,852 121,846 117,841 124,838 130,844 126,851 	"/>
	<polygon fill="#0000FF" stroke="#800080" points="127,295 122,288 130,287 	"/>
	<polygon fill="#0000FF" stroke="#800080" points="129,104 125,97 129,90 137,89 133,96 	"/>
	<polygon fill="#0000FF" stroke="#800080" points="141,834 142,827 146,830 	"/>
	<polygon fill="#0000FF" stroke="#800080" points="230,463 219,462 212,457 205,452 202,446 209,444 216,446 220,453 223,457 
		225,448 219,444 227,441 234,446 235,455 231,462 	"/>
	<polygon fill="#0000FF" stroke="#800080" points="243,915 232,914 220,914 213,909 215,900 222,901 228,899 236,900 241,893 
		243,882 246,886 250,890 253,880 255,871 260,864 263,857 268,851 269,860 268,871 261,875 263,881 270,877 273,886 266,891 
		261,897 254,903 249,909 	"/>
	<polygon fill="#0000FF" stroke="#800080" points="236,439 227,436 219,432 213,426 218,422 221,426 227,419 236,420 243,425 
		242,433 	"/>
	<polygon fill="#0000FF" stroke="#800080" points="280,887 278,881 280,876 286,870 292,874 289,882 281,886 	"/>
	<polygon fill="#0000FF" stroke="#800080" points="298,873 296,867 293,858 287,854 285,845 289,837 297,834 305,829 315,827 
		323,831 330,828 333,820 326,824 320,825 326,820 320,815 321,807 328,812 331,804 336,799 342,792 348,798 352,806 354,816 
		354,825 352,836 349,845 351,853 348,861 339,862 331,866 322,869 313,866 304,869 	"/>
	<polygon fill="#0000FF" stroke="#800080" points="371,739 359,739 350,736 344,730 336,726 330,720 332,712 344,711 351,712 
		355,720 362,724 373,724 384,723 392,725 390,732 382,736 372,738 	"/>
	<polygon fill="#0000FF" stroke="#800080" points="418,1017 416,1009 422,1003 422,999 424,994 430,988 433,990 433,999 426,1004 
		422,1011 	"/>
	<polygon fill="#0000FF" stroke="#800080" points="431,1022 422,1021 423,1015 429,1010 432,1017 	"/>
	<polygon fill="#0000FF" stroke="#800080" points="474,1023 472,1015 466,1022 461,1016 454,1021 450,1016 457,1013 466,1012 
		473,1008 466,1003 462,997 454,999 447,1003 444,999 450,993 443,992 438,993 442,984 451,981 456,988 465,985 472,984 481,987 
		487,993 484,1002 484,1012 483,1022 	"/>
	<polygon fill="#0000FF" stroke="#800080" points="488,116 477,115 469,111 466,102 458,100 453,93 457,84 464,79 457,77 460,71 
		465,65 470,57 476,51 486,51 492,57 493,66 489,73 482,78 474,74 474,81 482,85 491,82 500,83 507,88 513,94 516,103 512,111 
		503,113 492,115 	"/>
	<polygon fill="#0000FF" stroke="#800080" points="873,105 862,104 854,101 847,97 842,90 835,85 828,80 818,78 818,71 827,72 
		835,76 845,78 854,81 860,87 867,90 874,92 881,96 876,102 	"/>
	<polygon fill="#0000FF" stroke="#800080" points="900,1015 888,1015 880,1011 873,1006 871,996 866,989 869,980 877,983 876,992 
		882,994 889,993 893,986 896,978 903,983 908,988 904,996 899,1002 904,1004 911,999 911,992 913,984 922,980 930,978 939,977 
		943,983 949,979 946,973 954,970 960,970 963,979 968,986 967,994 960,999 949,1000 941,1004 932,1007 923,1010 915,1012 906,1013 
			"/>
	<polygon fill="#0000FF" stroke="#800080" points="1279,906 1273,902 1276,895 1278,886 	"/>
</g>
<g id="Clumps" display="none" opacity="0.5">
	<polygon display="inline" fill="#FF0000" stroke="#800080" points="0,253 10,253 16,259 28,259 37,261 44,263 47,272 48,283 
		50,293 48,303 46,313 43,322 41,332 36,339 32,347 29,355 23,362 17,367 11,374 4,378 	"/>
	<polygon display="inline" fill="#FF0000" stroke="#800080" points="140,1023 145,1018 150,1011 156,1004 165,1005 176,1004 
		183,999 189,993 195,988 204,985 214,982 225,981 236,980 245,983 251,980 250,971 252,961 254,951 257,941 261,934 267,927 
		274,922 280,917 286,911 292,904 300,901 308,896 314,890 323,887 331,891 339,895 343,903 349,909 356,914 360,922 363,931 
		365,941 367,951 366,961 363,971 360,979 356,988 364,992 373,995 379,1001 385,1007 390,1014 389,1023 	"/>
	<polygon display="inline" fill="#FF0000" stroke="#800080" points="176,915 167,912 161,906 155,900 149,894 142,889 147,882 
		150,873 154,864 158,857 160,847 164,839 168,830 171,822 177,815 182,809 189,803 196,799 205,796 211,789 217,784 224,779 
		232,774 242,774 251,771 260,768 268,764 276,760 284,757 290,751 292,741 291,730 295,721 294,713 286,718 281,712 275,706 
		277,698 285,701 291,707 300,704 306,710 306,719 305,729 308,738 312,746 319,744 321,734 329,733 336,738 343,743 340,749 
		331,752 325,759 318,764 313,770 307,777 302,784 298,791 293,798 288,806 283,812 277,819 272,825 266,832 262,840 257,846 
		248,849 240,853 235,861 229,866 223,873 216,877 210,883 204,889 197,895 192,901 186,908 180,913 	"/>
	<polygon display="inline" fill="#FF0000" stroke="#800080" points="484,680 472,680 462,678 455,673 448,668 441,663 435,657 
		431,649 428,640 424,632 421,623 418,614 414,606 413,595 412,584 417,577 421,569 421,560 425,553 431,547 439,542 445,537 
		451,530 455,523 457,515 460,506 463,497 469,490 473,483 476,474 478,464 480,454 485,446 491,441 499,437 506,431 512,426 
		523,424 533,424 540,420 548,415 557,412 568,411 577,414 585,418 594,418 603,418 608,425 614,431 622,433 627,440 634,445 
		639,452 642,461 647,468 651,476 652,487 654,497 654,508 654,518 651,528 648,536 644,544 638,551 633,558 628,564 622,571 
		616,577 611,583 603,588 593,590 585,594 575,593 564,594 552,594 548,599 547,610 546,621 543,630 538,637 534,645 527,649 
		519,654 514,660 508,667 501,672 493,675 485,679 	"/>
	<polygon display="inline" fill="#FF0000" stroke="#800080" points="554,1023 555,1015 562,1011 556,1008 548,1007 546,999 545,990 
		538,987 529,986 520,983 516,975 512,967 505,972 497,976 490,971 485,964 478,959 469,956 463,950 457,944 453,936 450,927 
		453,918 456,909 464,904 470,899 475,891 480,884 487,880 492,872 499,867 505,862 507,852 508,843 516,838 525,835 531,829 
		541,829 550,832 557,837 563,843 569,849 573,857 577,865 580,874 583,883 585,893 586,904 585,914 581,923 576,929 569,934 
		561,938 551,940 544,946 549,951 558,948 567,945 576,942 582,938 588,944 594,950 601,950 608,946 616,950 622,956 627,963 
		630,972 631,982 631,993 632,1004 629,1013 624,1019 	"/>
	<polygon display="inline" fill="#FF0000" stroke="#800080" points="844,969 834,967 827,962 821,956 826,949 824,941 821,932 
		813,928 805,928 798,923 795,914 795,904 792,895 791,884 792,873 791,862 795,854 800,846 806,840 814,836 825,835 837,835 
		847,837 858,838 869,839 878,842 885,847 891,853 897,859 905,856 911,850 911,840 909,830 902,825 892,823 882,821 872,819 
		863,816 856,811 850,805 845,798 840,791 836,783 831,776 828,767 826,757 824,747 823,738 825,728 827,718 832,711 838,705 
		845,699 852,694 860,690 868,686 879,685 889,687 897,691 905,695 913,699 925,699 935,701 944,704 951,709 956,716 961,723 
		968,728 975,723 982,718 986,711 987,700 987,690 992,682 997,676 1002,668 1008,663 1016,658 1024,654 1034,652 1044,654 
		1053,657 1062,660 1071,663 1076,670 1080,678 1085,685 1089,693 1093,701 1092,712 1091,723 1087,731 1084,740 1080,748 1078,758 
		1076,768 1073,777 1072,784 1080,788 1090,790 1097,795 1097,786 1103,779 1111,776 1116,768 1122,772 1121,781 1117,788 1112,795 
		1106,802 1101,809 1105,817 1108,826 1111,835 1116,842 1118,852 1117,863 1115,873 1112,882 1110,891 1106,900 1101,906 1094,912 
		1085,915 1078,920 1072,925 1064,929 1054,931 1045,930 1035,932 1026,929 1020,923 1011,926 1003,930 998,938 991,942 981,940 
		971,941 963,942 953,945 945,948 937,952 928,955 918,957 908,959 901,964 891,964 885,958 881,950 876,943 869,949 863,954 
		857,961 850,966 	"/>
	<polygon display="inline" fill="#FF0000" stroke="#800080" points="1134,1023 1137,1016 1144,1010 1151,1006 1161,1003 1168,999 
		1178,996 1186,1000 1194,1004 1202,1008 1211,1008 1219,1004 1228,1000 1238,998 1248,997 1257,995 1265,999 1273,1003 	"/>
	<polygon display="inline" fill="#FF0000" stroke="#800080" points="936,505 925,504 916,503 906,501 896,499 887,496 881,490 
		875,484 873,474 869,466 865,458 863,448 865,438 867,428 870,418 875,411 880,404 886,399 894,402 901,405 911,407 918,403 
		912,397 904,401 896,397 898,389 904,383 911,377 919,373 928,370 940,370 946,376 950,384 958,384 965,381 974,382 984,384 
		993,387 1001,391 1005,399 1011,405 1016,412 1017,423 1018,434 1016,444 1012,451 1006,458 999,462 993,468 987,475 982,481 
		977,488 969,492 960,495 951,498 944,503 	"/>
	<polygon display="inline" fill="#FF0000" stroke="#800080" points="661,299 650,298 639,297 630,294 622,290 615,285 609,279 
		602,274 595,277 584,278 576,274 566,272 557,269 551,263 545,257 541,249 535,243 529,237 529,227 527,217 529,207 533,199 
		537,191 543,184 548,178 555,172 562,167 569,162 578,160 589,160 599,162 609,164 618,167 627,170 632,177 637,184 638,195 
		641,202 649,200 658,199 668,201 673,208 681,212 685,220 689,228 696,233 698,243 697,254 699,264 696,272 691,280 686,286 
		679,292 672,296 662,298 	"/>
	<polygon display="inline" fill="#FF0000" stroke="#800080" points="515,370 504,369 495,366 488,361 481,356 478,347 475,338 
		473,328 473,318 480,312 488,316 486,309 481,302 475,298 481,291 488,296 496,292 502,294 500,303 494,310 499,317 506,318 
		510,311 513,302 510,295 505,288 507,277 514,272 524,274 531,271 538,276 544,282 548,290 552,298 554,308 554,320 553,331 
		552,341 548,349 542,356 536,361 529,366 520,369 	"/>
	<polygon display="inline" fill="#FF0000" stroke="#800080" points="1011,214 1001,212 991,210 980,209 971,206 962,203 953,200 
		944,197 936,193 929,188 923,182 918,175 911,170 904,165 896,161 889,156 882,151 877,144 875,134 873,124 873,112 878,105 
		887,102 892,108 896,116 901,120 907,113 914,118 923,117 930,112 941,111 952,110 961,108 969,104 980,102 990,104 998,108 
		1005,113 1013,115 1021,119 1030,122 1037,127 1042,134 1048,140 1054,146 1060,152 1064,160 1068,168 1072,176 1074,184 1069,190 
		1064,197 1058,203 1050,208 1041,210 1030,211 1018,211 	"/>
</g>
<g id="Single_nuclei" opacity="0.5">
	<polygon fill="#00FF00" stroke="#800080" points="109.748,553.587 101.381,552.391 94.927,548.805 90,544 80,542 71,539 65,533 
		60,526 57.393,517.727 55,507 51.178,499.797 49.265,489.996 47,479 45,469 44,460 43,449 45,441 48.07,431.186 52,424 56,416 
		62.175,408.236 68,403 76,400 85,398 93.492,394.848 102.337,392.219 113.095,391.502 122.419,392.936 130,397 139,400 149,402 
		156.605,406.323 162,413 166,421 167,432 168,443 170,453 173,462 176,471 178,481 180,491 184,499 188,507 191.986,513.184 
		193,522 189,529 180.272,531.353 170,530 160,529 151.823,529.68 142,531 136.523,538.048 132,545 125,550 118.115,553.108 	"/>
	<polygon fill="#00FF00" stroke="#800080" points="184,700 173,699 163,697 156,692 148,688 142,682 138,674 135,665 134,655 
		135,647 132,640 134,630 138,621 142,613 146,605 152,600 161,599 167,592 175,588 186,587 198,587 206,591 215,594 222,599 
		228,605 231,614 235,622 238,631 239,642 237,652 234,661 230,669 224,675 219,681 213,688 207,693 199,697 189,699 	"/>
	<polygon fill="#00FF00" stroke="#800080" points="258,0 256,7 252,16 247,23 240,28 233,32 226,38 223,46 219,55 214,61 208,68 
		203.092,75.826 198.439,81.46 191.336,84.888 181.539,86.113 172.477,85.378 164.64,81.46 158.272,74.602 155.823,69.704 
		154,64.315 152.884,59.417 150.562,56.544 147,54 142.353,47.416 140.148,38.599 139.955,33.222 139.658,27.333 138.679,21.455 
		138.189,14.597 138.189,7.984 138.19,0 	"/>
	<polygon fill="#00FF00" stroke="#800080" points="194.228,383.807 188,383 180,379 178,373 173,366 165,364 162,355 164,345 
		164,335 166,325 165,315 164,305 165,294 166.342,286.203 166,276 167,267 171,260 178,254 185,249 192,244 199,240 
		206.299,235.216 215.04,232.51 223.573,231.677 232,232 241,235 247,241 254,246 257.911,252.905 263,261 268,268 273,275 
		274.768,283.705 276,294 277.681,305.141 279.346,312.841 279.138,322.622 277,331 273,339 268,346 262,352 256,358 249,363 
		243,369 235.227,373.61 228,377 218,380 209,382 201.304,383.807 	"/>
	<polygon fill="#00FF00" stroke="#800080" points="328,691 316,691 308,687 299,684 293,678 288,671 280,667 275,660 271,652 
		267,644 265,634 270,626 271,618 266,611 267,599 271,591 275,584 276,573 281,565 289,562 299,559 306,555 318,554 328,556 
		338,558 349,559 357,563 363,569 369,575 375,581 379,589 383,597 384,608 384,620 383,631 384,642 382,651 375,657 369,663 
		363,668 359,676 353,683 347,688 337,690 	"/>
	<polygon fill="#00FF00" stroke="#800080" points="780,676 769,675 759,673 750,670 743,665 737,659 730,654 722,650 713,647 
		707,641 704,632 706,622 707,611 709,600 709,591 710,580 715,573 720,566 726,560 734,556 739,549 744,542 751,537 763,536 
		772,533 779,528 788,529 795,534 805,536 814,539 820,545 822,555 824,565 826,575 830,583 834,591 835,602 834,613 828,619 
		825,628 823,638 820,647 816,655 811,661 804,667 795,669 787,673 	"/>
	<polygon fill="#00FF00" stroke="#800080" points="1083,430 1071,430 1060,429 1049,428 1041,424 1035,418 1031,410 1027,402 
		1025.315,392.686 1021.348,386.17 1015.678,378.237 1014,371 1014.545,363.787 1012,357 1010,347 1011,337 1012,327 1014,317 
		1017,308 1023,301 1028,295 1034,289 1043,285 1055,285 1065,283 1074,284 1083,287 1089,293 1095,299 1101,305 1106,312 1110,320 
		1115,327 1120,334 1122,344 1122,354 1120,364 1119,375 1117.112,385.604 1114,394 1111.161,403.171 1107,410 1102.661,416.204 
		1096,423 1089,428 	"/>
	<polygon fill="#00FF00" stroke="#800080" points="1146,644 1137,642 1129,640 1121,636 1113,632 1107,626 1101,620 1097,612 
		1095,602 1095,590 1096,579 1099,570 1104,563 1109,556 1114,548 1121,543 1128,538 1138,536 1148,534 1160,534 1169,537 1178,540 
		1185,543 1189.7,545.349 1194.74,547.412 1198.25,549.75 1201.414,553.095 1204,560 1207,571 1207,581 1206.75,591.5 1206,602 
		1203,611 1198.75,618.25 1193.5,625 1188,631 1181,636 1172,640 1164,643 1153.5,644 	"/>
	<polygon fill="#00FF00" stroke="#800080" points="1192.762,222.409 1183.412,221.276 1175,220 1166,217 1157,214 1150,209 
		1145,202 1141,194 1140.345,185.575 1140.911,180.192 1140.345,175.375 1139.212,170.559 1136.946,162.908 1134.678,156.959 
		1133.545,150.158 1133.262,141.092 1134.112,134.009 1136.095,127.208 1138,121 1143,113 1150,108 1157,103 1165,99 1172,94 
		1181,91 1190,88 1201,87 1211,89 1221,91 1228,96 1233,103 1238,110 1243,117 1247,125 1253,131 1259,137 1262,146 1261,157 
		1259,167 1258,178 1256.229,186.426 1253.679,193.509 1249,200 1244,207 1237.245,213.625 1231,218 1223,222 1213,224 1202,223 	
		"/>
	<polygon fill="#00FF00" stroke="#800080" points="1280,682.833 1268.563,681.218 1260.541,677.997 1254.5,674.5 1247.75,668.5 
		1245,664.75 1241.75,661.75 1238.5,657 1235.5,653 1230.75,647.5 1228,641.25 1226.25,632.75 1227.5,626.5 1232,622 1237,615 
		1240,605 1243,597 1245,587 1249,578 1253,570 1257,562 1263,556 1270,551 1280,544.667 	"/>
	<polygon fill="#00FF00" stroke="#800080" points="0,256 6.175,253.204 13,254 23,256 33.149,257.251 40.821,261.921 
		44.991,269.094 48,279 49.803,287.868 50,299 49,309 47,320 44,329 41,337 36.151,345.485 31.481,353.324 26.31,359.829 
		20.639,366.168 15.302,370.504 7.629,374.174 0,376.843 	"/>
	<polygon fill="#00FF00" stroke="#800080" points="287.667,1005.687 280.679,1003.5 273,999.667 266,995 259,990 254.019,983.385 
		251.376,978.254 250.288,971.88 251.376,964.573 251.966,958.084 253.212,951.76 255.885,944.985 259.305,939.078 263.969,932.704 
		269.41,927.107 277,921 283.09,916.381 289.153,908.607 294,903 301,898 308,893 318,890 328,888 337,891 344,896 347,905 352,912 
		358,918 363.463,925.087 366,934 367,945 366,956 363.754,965.06 361,975 357.47,983.548 350.894,991.219 345.779,993.265 
		338.472,994.581 328.316,998.161 317.428,1001.742 304.13,1005.176 295.667,1006.5 	"/>
	<polygon fill="#00FF00" stroke="#800080" points="390.233,1018.907 390.233,1024 292,1024 292,1020.278 294.103,1017 297,1013 
		303.253,1007.514 311.875,1004.445 320.95,1002 329.411,999.038 340.372,995.166 351.625,993.265 360.093,993.265 370.398,995.986 
		378.527,1000.558 384.55,1006.654 387.834,1012.507 	"/>
	<polygon fill="#00FF00" stroke="#800080" points="146,1024 147.855,1019.572 149.503,1016 154.449,1011.094 159.63,1006.384 
		167.951,1003.461 176.162,1003.862 180.825,1000.731 186.948,992.724 194.72,988 204.376,984.481 216.151,982.597 228,981 236,981 
		245,984 252,989 258,995 264,1001 268,1009 273,1014.155 278,1018.159 280.679,1024 	"/>
	<polygon fill="#00FF00" stroke="#800080" points="558,595 547,594 540,589 532,585 525,580 518,575 510,571 503,566 496,561 
		488,557 482,551 475,546 469,540 462,535 456,529 457,518 459,508 461,498 466,491 471,483 472,473 475,464 480,456 484,449 
		489,441 496,437 503,432 511,427 518,422 527,420 537,418 546,415 555,411 564,410 574,412 583,415 593,417 602,420 609,425 
		616,430 623,435 629,441 635,447 641,453 645,461 648,470 651,479 654,488 656,498 654,508 652,518 650,528 647,536 642,543 
		637,550 632,557 626,564 620,570 614,576 608,582 602,588 594,591 583,592 572,593 561,594 	"/>
	<polygon fill="#00FF00" stroke="#800080" points="478,679 469,676 460,673 451,670 444,665 437,660 431,654 426,647 423,638 
		420,629 417,620 414,611 414,599 414,587 415,576 418,567 421,558 427,551 432,545 439,539 448,537 458,534 465,537 471,543 
		477,549 484,554 491,559 499,563 506,568 513,573 521,577 528,582 535,587 543,591 547,599 548,610 546,620 545,631 540,637 
		533,643 527,649 521,654 514,660 508,665 501,671 494,675 484,677 	"/>
	<polygon fill="#00FF00" stroke="#800080" points="495.676,974 491,970 486,963 479,958 470,955 464,949 458,943 454,935 452,925 
		454,915 460,908 467,904 473,897 477,890 483,884 490,879 492.493,875.816 495.278,871.639 498.267,868.867 502,867 
		505.819,863.884 507.807,858.513 508.802,852.149 510.593,846.681 513.575,842.602 522,838 529,833 538.236,831.466 546,832 
		554,836 560,842 566,848 571,855 575,863 578,872 581,881 583,891 585,901 584,912 581,920 576.522,925.076 571.792,930.437 
		566.226,935.286 559.716,936.876 553.05,937.24 548.379,935.282 544.202,935.879 542.413,938.464 542.413,942.441 539.426,945.619 
		535.651,948.408 525.707,949.999 517.354,954.573 510.79,961.932 506.813,971.876 501.841,974 	"/>
	<polygon fill="#00FF00" stroke="#800080" points="554.545,1024 553.948,1018.617 549.573,1014.043 545.992,1008.872 544,1004.098 
		545.197,996.541 543.208,989.58 538,986 531.872,986.994 523.917,985.602 517.354,981 516.16,974 518.5,966.112 526.303,958.156 
		535.452,953.781 543.01,954.775 550.169,953.781 556.334,951.394 559.716,946.024 564.091,941.649 571.975,937.805 
		578.012,936.876 584.178,936.876 589.671,939.487 592.818,941.725 596.906,944.633 603.469,946.423 610.828,947.019 
		619.439,949.88 625.546,955.174 631,966 633,976 635,986 634.893,994 634,1004 631,1014 625.546,1024 	"/>
	<polygon fill="#00FF00" stroke="#800080" points="520,371 508,371 498,369 491,364 484,359 479,352 474,345 472,335 472,323 
		471,312 473,301 474,291 477,282 481,273 484,265 489.5,260.166 495.5,255.5 503.5,252.833 514.5,251.833 521.834,254.5 
		531.167,260.166 539,267 544,274 549,281 552,290 555,299 556,310 557,321 554,330 552,339 547,347 543,354 537,361 531,366 
		522,370 	"/>
	<polygon fill="#00FF00" stroke="#800080" points="586.263,275.246 577,274 565.255,271.329 556.531,268.658 549.588,264.03 
		545.137,258.51 540,251 533,246 528,239 527,228 527,216 529.826,204.566 533,197 538,190 543,183 548,177 554.039,171.986 
		561.694,165.933 569.172,161.66 578.073,159.167 586.441,157.921 597,159 606.203,161.482 615,165 623,169 631,173 636,180 
		637.537,189.074 637,199 635,209 632,217 629.945,223.093 625.836,232.133 622.549,240.624 618.44,249.389 614.331,257.059 
		608.339,265.629 602.286,270.792 594.609,273.494 	"/>
	<polygon fill="#00FF00" stroke="#800080" points="646.26,295.005 637.537,293.937 628,291 619,288 613.68,284.323 609.052,277.38 
		607.805,270.614 610.298,264.561 614.392,259.042 618.665,251.921 622.404,243.909 626.143,234.473 629.525,227.352 
		633.442,217.916 636.29,210.973 639.317,205.276 645.193,201.537 654.272,200.469 662.818,201.893 669.761,204.92 677.773,211.329 
		685.072,218.628 690.057,225.927 694.152,234.473 696.823,244.265 697.357,255.481 696.288,265.451 693,274 688,281 681,287 
		674.212,290.91 665,294 656.586,295.005 	"/>
	<polygon fill="#00FF00" stroke="#800080" points="899.931,823.122 892,822 881,821 871,819 864.06,815.194 856.85,808.705 851,803 
		846,796 841,789 836,782 832,774 830.887,768.545 829.374,762.157 826.955,755.948 825.305,747.416 824.277,738.574 
		824.277,729.823 826.902,719.321 832.515,711.365 840,705 847,700 853,695 860,690 868.907,686.941 880,685 890,687 897,692 
		904,697 913,700 922.29,700.068 930,700 938,701 946,705 953,710 957,718 961,726 965,734 967,744 965.754,756.951 
		963.129,764.536 958.557,770.571 954.993,776.114 951.766,782.819 947.823,789.275 939.5,798.957 932.499,805.958 926.082,811.792 
		920.539,815.876 915.201,819.074 908.042,822.294 	"/>
	<polygon fill="#00FF00" stroke="#800080" points="840.654,957.586 832.868,955.726 828.461,952.578 824,948 819,941 814,934 
		808,928 802,922 796,916 793,907 792,896 790,886 789,875 791,867 795,858 798,850 803,842 810,838 818,833 829,834 840,835 
		852,835 862,837 871,840 880,843 887.028,848.509 892.47,856.129 896.824,864.402 900.09,873.547 900.09,884.868 900.09,895.318 
		898.567,907.075 894,917 890.511,924.71 885.285,931.242 878.754,938.209 871,942 865,948 858,953 852.628,955.844 
		846.967,956.932 	"/>
	<polygon fill="#00FF00" stroke="#800080" points="941.732,504.32 934,505 922,505 911,504 902,501 894,497 886,493 879,488 
		874,481 869,474 865,466 862.681,458.136 862,447 863,435 866,426 870,418 874,411 878,403 883,396 888,389 893,382 
		900.081,377.103 908,372 917,369 926,368 938,368 948,370 957,373 965,377 974,380 984,382 990.182,385.32 997.548,389.57 
		1004.914,394.953 1009.732,401.186 1013.415,408.836 1017.098,419.603 1018,432 1016.248,441.987 1012.281,449.353 
		1006.615,455.303 1000.381,461.536 993.865,468.337 989.331,475.136 985,482 978.848,487.036 971,493 963,497 955,500 
		949.381,502.903 	"/>
	<polygon fill="#00FF00" stroke="#800080" points="1137.167,1024 1140.5,1017.833 1145.5,1013.5 1150.5,1009.167 1158.511,1006.525 
		1164.5,1003.5 1168.833,999.833 1171.774,998.106 1175.348,997.3 1179.731,997.3 1184.46,998.887 1186.655,1000.883 
		1189.167,1003.167 1193.915,1006.295 1198.297,1008.832 1202.68,1011.443 1205.102,1013.559 1207.639,1015.52 1209.599,1017.827 
		1210.291,1020.825 1210.291,1024 	"/>
	<polygon fill="#00FF00" stroke="#800080" points="1211.444,1024 1280,1024 1280,1013.5 1275.448,1008.37 1269.105,1004.449 
		1263.454,1001.451 1258.053,998.887 1249.833,999.167 1242.5,1000.833 1235.167,1002.167 1228.833,1004.5 1223.5,1006.833 
		1218.94,1009.754 1215.019,1014.482 1211.906,1018.634 	"/>
</g>
</svg>
