<?xml version="1.0" encoding="utf-8"?>
<!-- Generator: Adobe Illustrator 16.0.1, SVG Export Plug-In . SVG Version: 6.00 Build 0)  -->
<!DOCTYPE svg PUBLIC "-//W3C//DTD SVG 1.1//EN" "http://www.w3.org/Graphics/SVG/1.1/DTD/svg11.dtd">
<svg version="1.1" id="Layer_1" xmlns="http://www.w3.org/2000/svg" xmlns:xlink="http://www.w3.org/1999/xlink" x="0px" y="0px"
	 width="1280px" height="1024px" viewBox="0 0 1280 1024" enable-background="new 0 0 1280 1024" xml:space="preserve">
<g id="Raw_image">
	
		<image overflow="visible" enable-background="new    " width="1280" height="1024" xlink:href="Neuroblastoma_12.jpg"  transform="matrix(1 0 0 1 2.441406e-004 -2.441406e-004)">
	</image>
</g>
<g id="Not_annotated" opacity="0.5">
	<polygon fill="#0000FF" stroke="#800080" points="583,814 573,812 571,802 572,793 576,785 585,783 592,788 594,798 591,806 
		585,813 	"/>
	<polygon fill="#0000FF" stroke="#800080" points="598,975 589,972 588,961 591,952 597,946 605,941 613,937 617,930 626,926 
		636,924 647,925 656,928 663,933 666,942 664,951 658,957 650,961 641,964 633,960 624,957 617,952 610,954 608,963 604,971 	"/>
	<polygon fill="#0000FF" stroke="#800080" points="726,696 722,690 731,686 729,694 	"/>
	<polygon fill="#0000FF" stroke="#800080" points="742,504 735,499 738,492 747,490 746,499 	"/>
	<polygon fill="#0000FF" stroke="#800080" points="823,912 817,907 821,900 830,900 835,907 828,909 	"/>
	<polygon fill="#0000FF" stroke="#800080" points="825,953 818,948 822,939 826,945 	"/>
	<polygon fill="#0000FF" stroke="#800080" points="834,949 828,943 833,939 835,948 	"/>
</g>
<g id="Clumps" display="none" opacity="0.5">
	<polygon display="inline" fill="#FF0000" stroke="#800080" points="373,993 361,993 350,992 343,987 339,979 334,972 330,964 
		325,957 323,947 328,940 332,932 332,922 337,915 348,915 356,914 359,905 355,897 343,897 337,903 332,911 325,911 325,903 
		332,897 339,892 343,885 350,880 356,874 363,869 372,865 377,859 382,852 389,852 396,857 402,863 408,869 411,878 415,886 
		418,895 421,904 426,911 428,921 428,933 427,943 426,953 425,964 420,971 414,976 407,981 399,986 390,988 381,989 	"/>
	<polygon display="inline" fill="#FF0000" stroke="#800080" points="518,916 507,915 498,915 488,914 480,910 473,905 466,900 
		460,894 455,887 453,877 451,867 451,855 451,843 454,834 458,826 462,818 469,812 477,808 484,804 492,800 501,797 511,795 
		521,796 530,799 536,805 543,810 549,816 553,824 557,832 559,842 559,854 557,864 554,873 550,881 549,888 549,895 539,895 
		538,901 533,908 526,912 	"/>
	<polygon display="inline" fill="#FF0000" stroke="#800080" points="612,442 601,441 591,439 583,435 575,431 570,424 566,416 
		564,406 565,395 567,385 571,377 577,371 584,366 593,362 603,360 608,354 604,346 601,337 599,327 600,316 604,308 611,303 
		618,298 625,292 632,287 640,283 650,283 659,286 667,290 673,296 679,302 685,308 689,316 689,328 688,338 685,347 680,354 
		673,359 664,363 656,367 647,370 643,376 647,384 651,392 652,403 650,413 646,420 641,428 635,434 627,437 618,440 	"/>
	<polygon display="inline" fill="#FF0000" stroke="#800080" points="715,306 707,302 707,293 707,286 696,285 690,279 681,276 
		671,274 665,268 656,265 647,269 639,268 643,260 639,252 631,248 625,242 621,234 617,226 614,217 619,210 629,209 637,205 
		644,200 653,197 661,193 670,190 680,188 689,185 696,180 694,179 685,178 691,173 701,171 711,171 719,175 730,174 738,178 
		741,187 746,194 753,199 760,204 766,210 772,216 777,223 782,230 782,240 779,249 776,258 776,268 771,274 762,278 756,284 
		753,293 747,298 737,298 726,297 719,303 	"/>
	<polygon display="inline" fill="#FF0000" stroke="#800080" points="736,974 726,972 716,970 709,965 702,960 697,953 691,947 
		686,942 683,949 677,943 679,934 684,930 683,919 686,910 689,901 695,895 702,889 711,886 718,882 723,875 729,869 726,860 
		722,852 719,843 720,832 717,823 713,815 717,807 723,800 731,798 739,795 746,789 753,792 762,795 771,798 781,800 789,799 
		794,792 799,785 806,779 813,774 820,770 829,766 839,764 850,763 861,764 871,766 879,770 889,772 896,777 902,783 908,789 
		914,795 918,803 922,811 927,818 931,826 936,833 943,838 952,835 958,841 963,848 968,855 972,863 971,874 969,884 969,896 
		970,905 966,912 959,917 950,916 944,923 937,928 928,930 918,932 909,933 908,926 917,922 927,920 936,917 934,910 937,902 
		946,899 951,893 946,886 936,886 926,888 918,893 908,894 899,897 889,899 879,901 868,902 857,903 848,900 839,897 831,893 
		822,890 813,887 806,888 802,897 796,902 789,907 785,916 784,927 781,936 778,944 773,951 767,958 760,962 752,967 745,971 	"/>
	<polygon display="inline" fill="#FF0000" stroke="#800080" points="747,663 740,658 744,650 748,642 753,635 757,627 761,619 
		763,609 768,602 775,597 780,589 786,583 788,574 784,566 778,560 771,555 765,549 760,542 757,533 756,522 757,511 758,500 
		760,489 764,482 770,476 776,470 784,465 793,462 801,458 807,453 811,445 812,434 813,425 817,417 814,408 811,399 807,391 
		803,383 798,376 795,367 793,357 795,347 798,337 799,327 803,318 805,309 810,301 819,300 826,305 830,313 831,324 836,331 
		844,333 851,329 857,322 864,318 873,316 874,327 870,334 863,339 861,350 863,360 866,369 869,378 873,386 879,392 885,398 
		891,404 897,402 905,400 915,401 925,398 934,399 941,403 948,407 953,414 961,418 965,426 964,435 969,442 976,447 979,456 
		975,464 973,474 970,483 966,491 962,498 956,504 946,506 937,509 926,508 917,505 908,502 903,495 902,486 907,479 916,481 
		925,484 932,489 939,490 946,486 955,482 958,474 958,464 949,461 939,464 933,469 925,474 916,472 908,470 902,476 893,473 
		887,467 878,468 868,466 859,463 851,459 844,454 845,445 852,439 858,436 853,429 846,424 836,422 829,428 829,438 831,448 
		832,459 834,469 836,479 839,488 842,497 844,507 845,518 843,528 840,537 836,545 832,552 826,559 820,565 814,571 811,580 
		808,588 802,595 803,604 796,606 789,610 788,621 784,628 777,634 771,639 765,646 760,653 754,658 	"/>
	<polygon display="inline" fill="#FF0000" stroke="#800080" points="1108,976 1096,976 1086,974 1077,971 1071,965 1066,958 
		1062,950 1058,942 1055,933 1052,924 1048,916 1048,904 1052,895 1049,887 1040,885 1033,885 1026,880 1020,874 1014,868 1008,862 
		1007,851 1002,844 995,839 986,836 983,827 981,817 977,809 978,799 980,790 984,781 989,774 993,767 997,759 1001,751 1004,742 
		1009,735 1015,728 1022,723 1030,721 1038,722 1044,715 1053,712 1063,712 1074,711 1082,707 1091,708 1100,711 1107,716 1110,725 
		1116,731 1119,740 1123,748 1124,759 1128,767 1131,776 1135,784 1138,793 1136,803 1132,811 1126,817 1122,825 1120,835 1121,846 
		1119,855 1113,862 1107,868 1102,874 1101,882 1110,885 1119,888 1125,894 1130,901 1134,909 1137,918 1139,928 1140,939 1138,948 
		1134,957 1129,964 1123,969 1115,973 	"/>
	<polygon display="inline" fill="#FF0000" stroke="#800080" points="1061,670 1050,669 1041,666 1033,662 1025,658 1017,654 
		1012,647 1007,640 1004,631 1002,621 1004,611 1006,601 1010,593 1017,587 1025,584 1034,580 1044,582 1055,581 1064,578 1070,573 
		1064,567 1071,561 1080,564 1090,566 1100,564 1111,563 1121,565 1126,572 1128,582 1125,591 1119,596 1114,604 1105,607 1105,615 
		1112,610 1117,615 1112,621 1104,617 1100,626 1101,637 1097,645 1094,654 1089,660 1082,665 1073,668 1062,669 	"/>
</g>
<g id="Single_nuclei" opacity="0.5">
	<polygon fill="#00FF00" stroke="#800080" points="441,573 430,572 423,567 415,563 409,557 403,551 401,541 400,530 403,521 
		407,513 411,504 416,498 424,493 432,490 443,488 455,488 467,488 474,493 479,500 483,508 487,516 485,526 484,536 480,545 
		476,552 471,559 464,565 456,568 447,571 	"/>
	<polygon fill="#00FF00" stroke="#800080" points="485,642 474,641 465,638 459,632 453,626 449,618 448,607 450,596 453,588 
		459,581 464,575 470,569 477,564 485,560 494,556 504,555 514,556 522,560 529,565 534,572 536,582 537,593 536,604 533,612 
		527,619 521,624 513,629 503,630 496,635 488,640 	"/>
	<polygon fill="#00FF00" stroke="#800080" points="541,495 529,495 520,492 513,487 507,481 502,474 498,466 493,459 489,451 
		487,441 488,430 490,419 493,411 498,404 506,399 515,396 525,396 534,399 542,403 548,409 553,416 558,423 562,431 565,440 
		565,452 565,464 562,473 557,480 552,487 546,492 	"/>
	<polygon fill="#00FF00" stroke="#800080" points="536,147 526,145 517,142 510,137 502,133 495,128 491,120 489,110 494,103 
		498,94 503,87 510,82 519,80 527,75 537,73 547,75 556,78 563,83 568,90 572,98 574,108 572,118 569,126 566,136 561,143 553,144 
		542,146 	"/>
	<polygon fill="#00FF00" stroke="#800080" points="637,565 625,565 617,561 610,556 604,550 598,544 591,539 586,532 580,526 
		575,519 573,509 572,498 573,487 577,479 582,471 589,466 597,462 607,460 618,461 627,464 635,468 642,473 648,479 650,489 
		653,498 655,508 658,517 660,527 659,538 656,547 652,555 647,561 638,564 	"/>
	<polygon fill="#00FF00" stroke="#800080" points="875.567,0.286 878.151,3.157 882,6 890,10 898,14 904,20 907,29 909,37 916,42 
		924,46 928,54 928,66 927,77 923,85 919,93 913,98 905,103 896,105 884,105 874.131,105.646 864.945,107.943 855,110 
		844.849,108.804 838.246,103.637 829.633,99.33 821.021,95.024 816,89 811,82 809,72 806,63 805,52 805,40 803,30 807,21 812,15 
		817.002,0.286 	"/>
	<polygon fill="#00FF00" stroke="#800080" points="1279.843,1014.175 1270,1016 1260,1016 1252,1012 1244,1008 1239,1001 1234,994 
		1230,986 1226,978 1224,968 1222,958 1220,948 1218,938 1219,927 1222,918 1227,911 1233,904 1241,900 1251,898 1262,899 1269,904 
		1280,914.607 	"/>
	<polygon fill="#00FF00" stroke="#800080" points="371,993 360,992 349,991 341,987 336,980 330,974 325,967 322,958 320,948 
		318,938 317,927 319,918 321,909 324,900 331,894 337,889 344,884 350,878 357,872 363,866 369,861 376,855 383,850 393,850 
		399,856 404,863 409,870 413,878 416,887 420,895 424,903 427,912 428,923 429,934 429,946 429,955 424,962 418,969 413,976 
		408,983 399,986 390,988 380,990 	"/>
	<polygon fill="#00FF00" stroke="#800080" points="501,917 491,915 482,912 474,908 467,903 461,897 455,891 450,884 449,873 
		449,861 448,850 448,840 451,831 456,823 461,817 467,810 472,804 479,798 486,793 495,790 503,788 513,790 522,793 530,797 
		537,802 543,808 547,816 552,823 557,830 557,842 558,853 558,865 557,874 553,882 549,890 545,898 541,906 532,908 523,911 
		513,913 504,916 	"/>
	<polygon fill="#00FF00" stroke="#800080" points="645,371 636,368 629,363 621,359 613,355 606,350 602,342 599,333 599,321 
		602,312 608,305 615,300 622,295 628,290 636,285 645,282 655,284 663,288 670,293 676,299 682,305 687,312 689,322 688,333 
		686,343 682,351 676,357 668,361 660,365 652,368 	"/>
	<polygon fill="#00FF00" stroke="#800080" points="612,442 601,441 591,439 583,435 575,431 570,424 566,416 564,406 565,395 
		567,385 571,377 577,371 584,366 593,362 603,360 612,359 621,362 629,366 637,370 643,376 647,384 651,392 652,403 650,413 
		646,420 641,428 635,434 627,437 618,440 	"/>
	<polygon fill="#00FF00" stroke="#800080" points="710.844,301.054 704,301 695,298 686,295 677,292 670,287 663,282 656,277 
		648,273 641,268 635,262 631,254 627,246 622,239 618,231 614,223 615,214 618,205 624,198 630,192 638,188 646,185 655,181 
		664,178 672,174 680.345,171.238 691,169 701,167 713,167 724,168 733,171 739,177 744,184 750,190 756,196 762,202 768,208 
		774,214 777.055,221.548 780.444,233.018 779.922,243.445 777,255 773.406,265.342 770,272 765,279 760,285 754,292 747,296 
		737,298 727,300 717,302 	"/>
	<polygon fill="#00FF00" stroke="#800080" points="820,567 808,567 796,567 788,563 780,559 773,554 768,547 763,540 758,533 
		755,526 758,517 760,507 763,497 766,489 770,481 774,473 782,468 790,464 798,462 809,463 818,466 825,471 832,476 836,484 
		840,492 842,502 843,513 844,524 844,535 838,542 833,549 828,556 823,563 	"/>
	<polygon fill="#00FF00" stroke="#800080" points="1108,976 1096,976 1086,974 1077,971 1071,965 1066,958 1062,950 1058,942 
		1055,933 1052,924 1048,916 1048,904 1053,896 1060,891 1068,888 1077,885 1087,883 1099,882 1108,885 1117,888 1124,893 1130,899 
		1133,908 1136,917 1139,926 1140,937 1138,947 1135,955 1130,963 1124,968 1116,973 	"/>
	<polygon fill="#00FF00" stroke="#800080" points="1061,674 1051,672 1041,670 1032,667 1024,663 1018,657 1012,651 1006,645 
		1004,635 1002,625 1000,615 1001,604 1005,596 1011,590 1017,584 1025,579 1035,577 1045,577 1055,579 1066,580 1076,582 1083,587 
		1089,593 1094,600 1097,609 1099,619 1101,629 1100,638 1097,647 1093,655 1088,662 1082,667 1073,670 1064,673 	"/>
	<polygon fill="#00FF00" stroke="#800080" points="1280.081,411.508 1271.923,408.788 1263.312,409.241 1256.061,411.054 
		1248.356,416.493 1241.557,422.385 1234.759,430.543 1230.68,442.781 1229.774,454.564 1230.68,464.535 1232.492,476.319 
		1234.759,487.197 1240.198,495.355 1248.809,500.794 1257.873,503.966 1268.297,503.513 1274.643,503.06 1280,500.666 	"/>
	<polygon fill="#00FF00" stroke="#800080" points="1280.092,542.949 1267.391,541.584 1257.42,544.303 1250.621,548.836 
		1243.823,554.727 1237.931,562.432 1234.306,570.591 1231.586,581.014 1228.413,592.799 1227.96,603.222 1228.413,614.553 
		1229.32,626.791 1236.118,638.575 1242.01,644.013 1247.903,650.811 1250.621,658.516 1256.967,666.675 1263.312,671.66 
		1269.657,675.286 1275.096,678.459 1280,678.641 	"/>
	<polygon fill="#00FF00" stroke="#800080" points="891.602,1023.557 896.874,1013.824 904.174,1004.902 913.096,996.385 
		922.829,989.086 932.156,984.219 939.456,980.569 950.001,978.136 960.545,977.325 968.656,979.353 976.767,980.569 
		984.067,983.003 986.906,989.086 986.906,995.17 984.878,1003.28 982.039,1008.958 982.445,1014.23 985.283,1023.557 	"/>
	<polygon fill="#00FF00" stroke="#800080" points="990.556,768.873 983.256,780.634 977.172,793.206 975.145,808.211 
		977.578,819.161 980.417,828.488 982.039,837.41 986.095,841.466 993.395,845.927 999.883,846.738 1004.344,850.794 
		1004.75,859.309 1007.994,867.015 1012.861,871.882 1018.944,878.371 1025.838,884.049 1031.921,887.698 1040.032,888.915 
		1047.738,889.32 1054.632,887.293 1061.121,886.076 1069.637,883.237 1077.405,882.095 1085.025,879.809 1091.121,877.777 
		1096.809,876.343 1103.313,874.221 1109.786,871.071 1116.276,864.987 1122.764,859.309 1123.981,849.982 1123.575,840.249 
		1123.17,833.76 1123.17,826.054 1126.009,820.377 1131.281,817.133 1135.741,813.888 1139.392,806.994 1139.392,798.884 
		1140.202,793.206 1137.364,785.906 1135.336,776.983 1132.497,769.683 1130.064,763.6 1127.225,759.139 1127.631,751.84 
		1124.386,746.567 1123.17,740.484 1120.331,733.996 1115.869,729.94 1113.437,726.29 1110.598,719.802 1107.354,714.529 
		1099.648,710.473 1091.943,708.446 1086.67,705.202 1078.56,707.635 1071.26,709.663 1063.149,710.068 1057.471,710.068 
		1052.198,710.068 1046.927,712.502 1042.06,715.341 1036.382,717.773 1028.272,718.179 1021.377,722.64 1016.511,727.507 
		1009.616,733.996 1003.939,742.918 999.073,752.651 994.205,761.167 	"/>
	<polygon fill="#00FF00" stroke="#800080" points="802,841.5 809,855 815,867 818,875.5 825.5,880.5 840,880.5 856,868.5 866,861.5 
		875,852 885,845.5 899.5,843 912,845 925.5,846 933.5,843 936,835.5 930,820.5 924,808.5 919,797.5 911,788.5 900.5,778 888.5,771 
		876.5,765.5 863,761.5 849,761 833,763.5 822,768.5 812.5,774 806,779.5 799.5,791 794.5,803 794,815 795.5,827.5 	"/>
	<polygon fill="#00FF00" stroke="#800080" points="692,894.5 686.5,903.5 682,913 678.5,923 676,933 677,942.5 681.5,949.5 689,953 
		695,958.5 700.5,965.5 709.5,971.5 718,975 728.5,976.5 739,976.5 749,975 757,969 765,963.5 771.5,958.5 777,951.5 781.5,943.5 
		783,934.5 786.5,929.5 787,921 784.5,913.5 778.5,909 768,906.5 756.198,902.029 749.014,899.417 744.5,897 737.5,893.5 
		728.5,890.5 720,888.5 712,886 704,887 697.5,890.5 	"/>
	<polygon fill="#00FF00" stroke="#800080" points="722.724,857.779 726.317,864.473 727,869 730.399,876.23 732.359,880.966 
		735.297,886.027 737,890 742.5,893.5 747,896.5 753,899.5 759,901.5 765.669,904.152 772.69,905.948 779.5,907 787,906 794,904.5 
		800,900 804.5,893.5 805,884 803,875.5 801,864.5 800,857 798,848.5 796,843 793,837.5 791,831 789.5,823.5 789.5,816 787,809 
		781,804 771.5,799.5 760,796.5 755.5,792.5 747.707,790.668 741.5,792 737.5,794 730.5,796 723,802 717.5,807 715.866,817.284 
		717.5,824.5 719.785,831.816 720.112,838.184 720.602,844.552 721.5,851 	"/>
</g>
</svg>
