<?xml version="1.0" encoding="utf-8"?>
<!-- Generator: Adobe Illustrator 16.0.1, SVG Export Plug-In . SVG Version: 6.00 Build 0)  -->
<!DOCTYPE svg PUBLIC "-//W3C//DTD SVG 1.1//EN" "http://www.w3.org/Graphics/SVG/1.1/DTD/svg11.dtd">
<svg version="1.1" id="Layer_1" xmlns="http://www.w3.org/2000/svg" xmlns:xlink="http://www.w3.org/1999/xlink" x="0px" y="0px"
	 width="1280px" height="1024px" viewBox="0 0 1280 1024" enable-background="new 0 0 1280 1024" xml:space="preserve">
<g id="Raw_image">
	
		<image overflow="visible" enable-background="new    " width="1280" height="1024" xlink:href="Neuroblastoma_0.jpg"  transform="matrix(1 0 0 1 2.441406e-004 -2.441406e-004)">
	</image>
</g>
<g id="Not_annotated" opacity="0.5">
	<polygon fill="#0000FF" stroke="#800080" points="425,66 415,64 412,55 411,44 412,34 419,29 428,26 435,31 437,39 430,44 428,51 
		429,61 	"/>
	<polygon fill="#0000FF" stroke="#800080" points="452,769 449,763 457,765 	"/>
	<polygon fill="#0000FF" stroke="#800080" points="965,688 965,680 970,682 	"/>
	<polygon fill="#0000FF" stroke="#800080" points="978,688 974,681 980,675 989,676 988,682 981,687 	"/>
	<polygon fill="#0000FF" stroke="#800080" points="977,661 976,654 980,646 984,649 980,657 	"/>
	<polygon fill="#0000FF" stroke="#800080" points="996,654 989,649 996,643 1004,639 1013,636 1020,638 1012,642 1004,647 997,652 	
		"/>
	<polygon fill="#0000FF" stroke="#800080" points="1148,419 1140,415 1140,407 1149,409 1150,417 	"/>
	<polygon fill="#0000FF" stroke="#800080" points="1168,471 1165,466 1172,460 1180,456 1182,462 1175,466 	"/>
</g>
<g id="Clumps" display="none" opacity="0.5">
	<polygon display="inline" fill="#FF0000" stroke="#800080" points="311,353 301,351 292,348 283,349 278,342 272,336 264,332 
		259,325 262,318 268,312 276,315 278,325 284,331 292,335 294,328 293,319 294,308 297,298 306,295 316,295 325,298 335,300 
		345,302 351,308 356,315 357,325 353,334 346,339 340,344 331,347 321,350 312,352 	"/>
	<polygon display="inline" fill="#FF0000" stroke="#800080" points="700,496 695,489 695,479 695,469 696,460 695,451 695,443 
		692,434 687,427 680,422 675,415 669,409 664,402 660,394 658,384 652,378 644,374 638,368 636,358 637,347 638,336 640,326 
		642,316 644,306 642,296 643,285 652,283 658,289 660,298 662,307 670,311 673,305 669,297 665,289 663,279 661,269 661,259 
		662,248 666,240 672,234 680,229 689,226 696,231 701,238 702,246 702,257 705,266 708,275 711,284 715,292 721,298 725,306 
		729,314 732,323 734,332 735,342 734,352 729,360 725,367 721,376 717,383 715,392 714,403 714,415 713,426 710,434 709,443 
		705,452 703,462 706,471 704,481 703,490 	"/>
	<polygon display="inline" fill="#FF0000" stroke="#800080" points="710,600 707,595 705,587 697,583 691,577 691,567 687,559 
		685,549 686,538 688,528 692,520 696,512 701,504 708,500 717,496 726,493 733,498 740,503 744,511 749,518 750,529 746,537 
		744,547 740,555 736,562 731,569 726,576 720,582 713,588 712,597 	"/>
	<polygon display="inline" fill="#FF0000" stroke="#800080" points="739,205 732,202 728,194 731,184 730,176 727,167 726,158 
		727,146 730,138 727,129 730,120 736,113 740,106 746,99 751,93 755,85 761,78 767,72 774,67 782,63 789,68 797,68 804,73 808,81 
		812,89 814,98 814,109 818,117 822,125 819,134 818,143 817,154 816,163 812,171 811,181 805,188 800,195 792,199 787,196 792,190 
		785,187 776,188 769,194 767,203 759,199 756,190 749,190 745,198 740,204 	"/>
	<polygon display="inline" fill="#FF0000" stroke="#800080" points="1279,851 1273,857 1269,865 1262,871 1257,877 1250,882 
		1247,891 1244,900 1237,905 1228,906 1219,909 1209,909 1199,908 1202,915 1208,921 1214,927 1216,937 1217,948 1213,956 1209,963 
		1205,971 1199,978 1191,981 1184,986 1177,992 1169,996 1160,998 1150,1000 1140,1000 1129,999 1119,997 1111,993 1105,987 
		1097,983 1091,977 1084,972 1078,966 1071,961 1067,953 1066,942 1065,931 1066,920 1070,911 1071,901 1073,891 1077,882 1082,876 
		1089,870 1097,867 1104,862 1112,858 1124,857 1134,859 1140,865 1148,869 1156,873 1161,880 1168,885 1174,880 1171,871 1166,864 
		1162,865 1158,860 1158,852 1154,845 1149,839 1145,831 1142,822 1141,813 1144,804 1144,795 1144,788 1148,783 1152,776 1153,765 
		1154,755 1155,747 1150,740 1144,734 1138,728 1131,731 1123,727 1122,720 1115,715 1111,723 1109,730 1103,736 1099,744 1094,750 
		1087,755 1078,758 1067,759 1057,759 1045,759 1036,758 1031,764 1034,773 1034,782 1038,789 1046,793 1054,797 1058,805 1057,814 
		1061,822 1063,832 1068,839 1066,849 1060,855 1053,859 1045,863 1037,868 1030,872 1020,874 1010,876 1001,873 993,869 987,863 
		987,853 984,844 983,833 978,826 976,816 976,804 971,797 962,800 954,798 948,792 949,781 941,777 935,771 934,762 939,755 
		946,750 951,743 954,734 959,727 966,721 973,717 983,714 990,710 994,702 996,692 999,682 1002,674 1006,666 1011,658 1017,653 
		1022,645 1029,640 1040,639 1050,639 1058,636 1065,630 1072,625 1076,618 1080,610 1085,603 1084,594 1074,593 1066,592 1057,593 
		1047,591 1037,589 1029,585 1021,589 1013,587 1007,581 998,578 998,570 990,574 980,577 970,578 960,578 952,574 944,570 940,562 
		934,556 929,549 925,541 921,533 918,524 917,513 912,506 903,503 896,498 893,489 894,478 897,469 901,460 902,450 901,439 
		893,439 893,429 897,420 903,415 909,408 917,405 928,403 938,401 948,403 957,404 967,406 972,413 976,421 980,429 985,436 
		986,447 985,456 979,461 974,468 975,476 986,477 995,480 1004,483 1011,488 1020,491 1028,495 1029,502 1038,505 1050,505 
		1061,504 1072,505 1081,508 1088,513 1097,516 1104,512 1111,506 1118,502 1124,495 1125,485 1125,475 1124,467 1130,464 1135,466 
		1142,464 1144,454 1144,444 1141,435 1145,427 1151,430 1150,439 1157,444 1156,453 1158,462 1149,466 1144,472 1140,480 1142,489 
		1138,497 1140,505 1148,502 1150,494 1156,499 1159,506 1167,510 1178,509 1184,504 1184,496 1187,489 1193,490 1196,499 1199,508 
		1200,519 1200,529 1205,536 1212,541 1219,546 1226,551 1231,558 1236,565 1242,571 1248,577 1251,586 1251,596 1252,607 1246,613 
		1241,619 1234,624 1232,629 1237,636 1240,645 1243,654 1244,665 1241,674 1238,683 1233,689 1226,695 1231,702 1240,705 1245,699 
		1250,691 1256,686 1265,682 1273,678 	"/>
</g>
<g id="Single_nuclei" opacity="0.5">
	<polygon fill="#00FF00" stroke="#800080" points="417,488 406,487 397,484 389,480 379,478 372,473 366,469 356,467 349,462 
		343,456 338,449 338,439 332,433 326,427 330,418 326,411 327,401 332,394 337,388 340,379 340,367 342,357 348,351 354,345 
		360,339 367,333 374,328 383,329 392,332 400,336 407,341 414,346 420,352 424,360 425,371 428,380 433,387 433,397 434,408 
		438,416 440,426 439,437 441,447 439,457 435,464 430,471 424,477 420,486 	"/>
	<polygon fill="#00FF00" stroke="#800080" points="449,945 438,944 429,941 424,934 417,931 411,925 404,920 396,916 391,909 
		387,901 377,899 370,894 364,888 360,880 359,871 360,860 363,851 368,843 372,836 376,827 382,821 384,812 386,802 388,792 
		391,783 399,779 406,773 414,769 419,763 428,761 433,768 440,771 450,773 459,771 468,773 475,778 483,782 493,782 504,781 
		512,785 518,791 522,799 522,809 524,819 524,829 521,838 518,847 513,853 505,858 499,864 498,873 495,882 489,888 486,896 
		479,901 473,907 470,917 467,926 461,931 453,933 452,942 	"/>
	<polygon fill="#00FF00" stroke="#800080" points="512.11,369.944 505.256,369.03 497,368 490.633,362.404 486.291,355.092 482,351 
		476,345 471,338 466,331 462.073,323.333 461.158,312.594 466.185,304.369 475.324,299.799 485.834,295.687 502.514,292.717 
		516,298 521,305 525.362,311.223 529,321 533,329 536,338 538.157,346.638 538,356 533,363 526,368 517,370 	"/>
	<polygon fill="#00FF00" stroke="#800080" points="507,0 514,5 519,12 518,23 515,32 513,41 507,48 502,55 497,62 492,68 486,75 
		480,81 471,83 460,82 453,77 448,70 448,60 444,52 441,43 443,35 447,27 453.011,15.537 458.1,7.834 465.803,0 	"/>
	<polygon fill="#00FF00" stroke="#800080" points="512,503 504,499 494,497 487,492 479,488 474,481 470,473 465,466 465,456 
		469,448 474,440 477,432 482,425 489,420 498,417 510,416 519,419 528,422 534,428 539,435 543,443 544,454 545,463 543,473 
		542,482 537,489 531,494 523,498 514,502 	"/>
	<polygon fill="#00FF00" stroke="#800080" points="691,907 681,905 675,899 670,892 666,884 662,876 659,867 658,856 656,846 
		651,839 647,831 647,820 649,811 652,802 658,795 663,789 668,782 672,774 677,766 687,766 696,769 702,775 709,776 713,784 
		716,793 717,804 718,814 716,825 714,820 713,830 714,841 717,850 717,862 720,871 717,880 712,887 708,895 703,902 696,906 	"/>
	<polygon fill="#00FF00" stroke="#800080" points="866,421 855,420 845,418 834,417 826,413 822,405 813,404 808,397 801,392 
		796,385 790,379 785,372 783,362 789,355 789,346 786,339 790,331 792,321 795,312 802,307 808,301 815,295 824,292 836,292 
		847,291 855,295 862,300 868,306 877,309 880,318 884,326 889,333 897,337 904,342 912,346 918,352 923,359 925,369 927,378 
		922,385 916,392 910,398 903,402 896,408 889,412 881,416 872,419 	"/>
	<polygon fill="#00FF00" stroke="#800080" points="869,677 857,677 848,674 840,670 837,661 831,655 826,648 822,641 822,630 
		820,620 821,611 825,602 829,594 835,588 842,583 848,577 856,573 864,569 874,569 882,573 889,578 889,585 889,596 892,605 
		894,615 894,623 898,631 905,636 909,644 908,655 904,662 896,666 888,670 880,674 870,676 	"/>
	<polygon fill="#00FF00" stroke="#800080" points="937,236 927,234 918,233 908,233 900,229 891,232 882,235 873,232 867,226 
		862,219 857,212 855,204 856,195 854,185 852,175 851,166 859,161 865,156 869,148 873,140 879,133 890,132 899,129 907,126 
		915,125 926,124 931,131 937,137 937,147 930,152 926,159 926,170 935,171 941,169 944,161 952,156 961,155 969,159 975,165 
		979,173 981,183 984,192 987,201 985,211 981,218 975,225 968,230 958,231 947,233 938,235 	"/>
	<polygon fill="#00FF00" stroke="#800080" points="307,353 296,352 286,350 277,347 270,342 264,336 258,330 253,323 259,316 
		264,310 272,305 280,301 289,298 298,295 308,293 317,294 327,296 337,298 346,301 353,306 357,314 356,323 353,331 346,337 
		340,342 333,347 324,350 313,352 	"/>
	<polygon fill="#00FF00" stroke="#800080" points="711,587 702,584 694,580 690,572 690,562 685,555 685,543 687,533 690,524 
		694,516 698,508 704,502 712,498 721,494 729,496 736,501 740,509 748,513 750,523 747,532 744,541 742,550 737,558 732,565 
		728,572 722,579 715,584 	"/>
	<polygon fill="#00FF00" stroke="#800080" points="786,208 774,208 762,208 750,208 739,207 732.635,202.91 726,196 724,186 
		722,176 720,166 720,156 722,146 723,135 725,125 729,116 734,110 739,103 744,96 750,89 755,83 761,77 767,71 774,65 781,61 
		791,62 799,66 805,72 810,79 813,88 816,97 818,107 820,117 821,128 821,138 819,148 818,158 815,168 812,177 809,186 805,194 
		798,199 791,204 	"/>
	<polygon fill="#00FF00" stroke="#800080" points="966,578 957,575 948,572 943,565 938,558 932,552 929,543 924,536 920,528 
		918,518 918,509 930,509 940,507 949,505 956,500 962,493 965,485 970,477 979,478 990,479 999,482 1007,486 1015,490 1023,494 
		1022,498 1014,503 1010,511 1007,520 1005,530 1005,542 1003,551 1001,562 997,569 989,573 979,576 969,577 	"/>
	<polygon fill="#00FF00" stroke="#800080" points="1064,759 1053,758 1044.089,756.384 1033.948,754.933 1027.791,750.225 
		1021.998,744.43 1017.653,740.087 1010,733 1004.253,727.772 998,721 994.475,715.096 993.75,707.132 994.837,696.989 998,688 
		1001,680 1004,671 1009,664 1015,657 1020,651 1025,644 1034,640 1046.832,638.498 1058.166,636.165 1070.832,635.832 
		1082.832,642.498 1087.832,652.165 1093.5,662.498 1099.166,675.165 1103.5,684.165 1105.5,692.165 1105.832,699.832 
		1105.832,706.498 1108.166,711.165 1108,718 1107,725 1104,733 1099,741 1095,748 1087,753 1079,757 1069,758 	"/>
	<polygon fill="#00FF00" stroke="#800080" points="931,509 919,509 910,506 902,502 896,496 893,487 894,476 898,468 901,459 
		902,448 900,438 895,433 896,422 902,416 908,409 916,405 927,404 936,402 946,403 956,405 964,407 970,413 975,420 980,427 
		984,435 986,445 985,454 980,460 974,467 970,475 966,483 963,491 958,498 951,504 943,507 932,508 	"/>
	<polygon fill="#00FF00" stroke="#800080" points="1072,594 1063,593 1053,593 1044,590 1034,588 1026,587 1018,588 1010,584 
		1004,578 1000,570 1001,559 1003,549 1006,540 1008,530 1009,518 1011,509 1015,501 1024,497 1026,501 1035,504 1046,505 1057,504 
		1068,505 1078,507 1085,512 1094,515 1099,522 1101,532 1101,544 1099.674,555.607 1099,566 1097,576 1093,584 1088,590 1080,592 	
		"/>
	<polygon fill="#00FF00" stroke="#800080" points="1107.071,591.353 1100.078,584.787 1097.961,578.854 1099.923,565.944 
		1100.923,554.944 1100.923,542.944 1100.923,530.944 1101.923,519.944 1108.978,511.911 1116.923,509.944 1127.923,508.944 
		1138.923,507.944 1148.923,507.944 1158.923,509.944 1167.923,512.944 1175.923,516.944 1180.923,523.944 1185.923,530.944 
		1187.923,538.944 1182.923,545.944 1178.923,553.944 1173.923,560.944 1168.525,568.106 1163.864,574.885 1158.923,581.944 
		1153.923,587.944 1147.923,593.944 1137.923,595.944 1126.923,596.944 1114.923,596.944 	"/>
	<polygon fill="#00FF00" stroke="#800080" points="1214.281,614.077 1208,612 1198,610 1188,608 1179,605 1169,603 1159,601 
		1159,590 1160.262,582.302 1166.194,573.614 1171.49,566.412 1176.998,558.361 1182.293,551.159 1186.531,544.17 1193,540 
		1204,539 1213,542 1222,545 1226,553 1231,560 1235,568 1239,576 1239,586 1237,596 1234,605 1227,609 1220.215,613.229 	"/>
	<polygon fill="#00FF00" stroke="#800080" points="1135,705 1123,705 1115,701 1111.832,693.165 1110.832,687.498 1107.832,682.165 
		1105.166,674.832 1101.5,668.165 1098.5,662.498 1093.5,655.498 1087.832,645.165 1083,635 1086,626 1091,619 1096,611 
		1103.832,607.498 1111,602 1122,601 1134,601 1145,602 1156,603 1166,605 1176,607 1186,609 1196,611 1205,614 1215,616 1222,621 
		1226,629 1231,636 1236.5,644.165 1239.5,652.832 1240.832,662.832 1239,673 1232.832,680.165 1226,684 1218,689 1209,691 
		1199,694 1189,695 1178,697 1168,698 1157,699 1147,702 1138,704 	"/>
	<polygon fill="#00FF00" stroke="#800080" points="1153,1000 1141,1000 1132,997 1121,996 1112,993 1105,988 1098,983 1091,978 
		1085,972 1078,967 1072,961 1067,954 1066,943 1065,932 1066,921 1069,912 1071,902 1073,892 1076,883 1082,876 1088,871 1097,867 
		1104,862 1113,859 1124,858 1133,861 1140,866 1148,870 1155,875 1161,881 1168,886 1175,891 1181,897 1187,903 1193,909 1200,914 
		1206,920 1213.75,927.5 1217.25,938.75 1215.5,950.5 1212.25,961.75 1207,969.25 1200,975.5 1193,980 1185,985 1179,990 1171,995 
		1163,998 	"/>
	<polygon fill="#00FF00" stroke="#800080" points="1224,909 1216.075,909.425 1206.574,907.899 1197.059,900.202 1191,894 1185,888 
		1179,882 1173,876 1169.109,868.795 1167,858 1165,848 1164,837 1168,829 1172,821 1176,813 1180,805 1186,798 1193,793 1200,789 
		1208,784 1219,783 1229,785 1236,790 1242,796 1249,801 1255,807 1262,812 1268,818 1271,827 1276.301,835.944 1277.74,846.317 
		1273.707,854.676 1266,859 1261,866 1256,873 1253,882 1250,891 1244.316,899.051 1238,903 1229,907 	"/>
	<polygon fill="#00FF00" stroke="#800080" points="1218,769 1210,765 1202,761 1194,757 1186,753 1178,749 1170,745 1162,741 
		1154,737 1145,734 1137,730 1128,727 1121,722 1122,711 1130,706 1139,704 1149,701 1159,699 1169,697 1180,696 1191,695 1202,694 
		1213,695 1224,696 1233,699 1238,706 1243,713 1246,720 1245,731 1243,741 1241,751 1237,759 1229,763 1222,767 	"/>
	<polygon fill="#00FF00" stroke="#800080" points="810.948,1024.002 805.912,1015.164 797.037,1010.904 790.649,1008.064 
		781.064,1002.739 772.899,998.125 766.864,993.864 758.698,988.893 752.662,979.664 748.049,969.013 745.564,956.944 
		746.274,947.359 748.759,937.421 754.084,926.414 760.474,918.959 767.929,911.506 776.094,908.308 782.129,902.273 
		786.389,893.756 791.714,888.074 800.589,887.364 807.334,889.138 816.564,893.398 820.823,900.143 826.149,901.209 
		835.024,901.921 843.189,904.76 850.287,910.084 855.259,917.893 859.162,925.348 859.162,933.513 865.198,940.969 
		870.879,949.489 874.782,955.881 877.979,963.688 880.819,970.433 882.594,977.178 882.594,983.926 880.819,991.381 
		877.622,997.414 874.073,1003.094 871.234,1007.709 867.684,1012.678 863.78,1017.296 861.82,1024.002 	"/>
	<polygon fill="#00FF00" stroke="#800080" points="944.861,744.795 940.515,751.311 936.169,758.554 933.272,767.608 
		936.169,774.851 941.963,779.559 945.585,785.353 948.482,791.51 950.655,797.669 956.812,801.65 965.141,802.736 973.108,802.375 
		979.627,800.927 986.146,799.477 993.388,795.855 1002.078,791.51 1007.15,788.253 1012.58,785.353 1020.549,784.631 
		1027.791,786.44 1032.773,785.85 1036.523,782.457 1037.237,776.386 1035.033,768.694 1031.88,760.584 1028.517,753.846 
		1023.084,748.414 1018.015,743.344 1013.307,738.274 1009.323,735.379 1003.529,730.306 998.096,725.237 994.113,718.356 
		990.129,714.372 983.973,715.459 976.005,717.994 970.365,719.871 965.276,722.728 959.706,726.685 954.277,732.118 
		949.204,737.552 	"/>
	<polygon fill="#00FF00" stroke="#800080" points="977.746,806.108 974.344,813.226 974.963,821.273 977.44,827.466 
		981.154,831.799 981.463,838.915 982.698,846.344 984.865,853.771 986.106,862.13 989.51,868.63 998.795,874.51 1006.531,876.365 
		1015.198,875.746 1022.625,873.888 1026.031,870.796 1033.769,870.177 1038.102,868.318 1043.672,865.844 1049.553,863.056 
		1055.123,860.271 1061.314,857.177 1065.954,853.771 1068.74,849.748 1069.671,844.177 1068.433,837.677 1065.338,832.725 
		1064.719,826.844 1062.552,819.726 1059.767,814.774 1059.457,810.441 1059.767,804.87 1058.838,798.989 1052.338,794.038 
		1047.697,791.254 1040.575,789.395 1033.459,789.705 1029.125,787.847 1022.625,786.302 1017.674,786.302 1012.722,786.921 
		1007.461,790.635 1002.819,793.421 998.176,796.204 992.295,798.371 985.487,802.087 	"/>
	<polygon fill="#00FF00" stroke="#800080" points="1280,759.805 1271.166,758.164 1264.5,756.83 1257.832,755.497 1252.832,749.164 
		1251.832,737.164 1250.832,728.497 1248.166,721.497 1246.832,712.164 1246.5,704.497 1248.832,695.83 1252.832,689.497 
		1258.832,685.497 1264.5,682.83 1272.5,679.83 1280,678.023 	"/>
	<polygon fill="#00FF00" stroke="#800080" points="1280,1012.3 1271.907,1007.051 1264.076,998.538 1258.631,988.665 
		1255.568,980.834 1252.844,970.28 1254.546,958.705 1257.948,951.896 1262.717,946.449 1269.526,941.344 1275.992,938.618 
		1280.226,936.664 	"/>
	<polygon fill="#00FF00" stroke="#800080" points="590.008,0 594.796,10.993 600.489,19.532 608.214,27.258 616.346,31.73 
		626.105,32.544 635.05,27.664 643.182,20.752 650.906,16.28 659.037,10.587 666.618,0 	"/>
	<polygon fill="#00FF00" stroke="#800080" points="1108.809,264.687 1099.928,259.077 1093.383,253.001 1087.775,248.326 
		1081.698,245.054 1077.023,239.912 1075.619,231.966 1077.023,223.552 1083.1,218.41 1088.709,214.67 1094.319,210.931 
		1100.863,208.594 1108.342,208.594 1115.821,208.126 1123.767,209.996 1130.779,215.605 1139.659,222.15 1148.073,226.824 
		1154.617,231.498 1163.967,233.836 1170.979,238.043 1177.99,241.315 1185.002,246.456 1189.677,253.469 1189.677,262.349 
		1183.132,268.894 1176.12,273.101 1170.043,277.308 1157.423,279.177 1145.27,277.308 1132.649,273.101 1119.093,269.361 	"/>
	<polygon fill="#00FF00" stroke="#800080" points="1012.048,182.885 1010.179,190.364 1009.242,199.712 1009.711,209.061 
		1012.516,215.605 1015.321,221.682 1019.528,230.096 1023.735,236.64 1029.812,243.652 1036.823,252.066 1044.77,260.012 
		1051.314,266.089 1058.793,266.556 1066.272,266.556 1074.686,267.024 1079.361,263.752 1081.698,259.545 1076.088,251.131 
		1071.412,242.717 1072.349,232.901 1075.154,224.019 1079.826,217.943 1086.371,213.736 1092.448,209.996 1098.526,206.257 
		1105.536,204.854 1111.147,203.919 1114.418,200.647 1112.08,192.233 1106.004,184.754 1101.329,178.21 1096.656,173.535 
		1090.578,169.796 1082.164,168.861 1072.349,167.927 1064.403,165.589 1056.923,163.252 1049.91,160.914 1038.693,162.784 
		1030.279,166.991 1024.201,170.731 1017.656,175.873 	"/>
</g>
</svg>
