<?xml version="1.0" encoding="utf-8"?>
<!-- Generator: Adobe Illustrator 16.0.1, SVG Export Plug-In . SVG Version: 6.00 Build 0)  -->
<!DOCTYPE svg PUBLIC "-//W3C//DTD SVG 1.1//EN" "http://www.w3.org/Graphics/SVG/1.1/DTD/svg11.dtd">
<svg version="1.1" id="Layer_1" xmlns="http://www.w3.org/2000/svg" xmlns:xlink="http://www.w3.org/1999/xlink" x="0px" y="0px"
	 width="1280px" height="1024px" viewBox="0 0 1280 1024" enable-background="new 0 0 1280 1024" xml:space="preserve">
<g id="Raw_image">
	
		<image overflow="visible" enable-background="new    " width="1280" height="1024" xlink:href="Neuroblastoma_1.jpg"  transform="matrix(1 0 0 1 2.441406e-004 -2.441406e-004)">
	</image>
</g>
<g id="Not_annotated" display="none" opacity="0.5">
	<polygon display="inline" fill="#0000FF" stroke="#800080" points="690,0 686,5 677,8 668,11 656,11 648,7 639,4 	"/>
	<polygon display="inline" fill="#0000FF" stroke="#800080" points="732,232 727,225 721,219 730,218 740,217 745,212 753,212 
		750,219 747,227 739,231 	"/>
	<polygon display="inline" fill="#0000FF" stroke="#800080" points="748,201 740,197 735,190 728,185 733,183 741,187 748,192 
		750,199 	"/>
</g>
<g id="Clumps" display="none" opacity="0.5">
	<polygon display="inline" fill="#FF0000" stroke="#800080" points="690,275 683,270 675,270 669,264 667,255 667,246 661,241 
		664,247 657,252 652,259 644,255 642,246 649,242 649,232 646,227 638,227 636,220 646,218 656,220 663,216 670,212 671,208 
		664,203 663,194 665,184 671,177 680,174 688,171 678,169 667,168 656,167 648,163 640,159 633,154 624,151 619,144 617,134 
		612,127 605,122 596,119 589,114 581,110 575,104 570,97 566,89 564,79 565,67 566,57 570,49 576,42 584,38 595,37 606,38 616,36 
		624,32 633,29 642,32 649,37 658,40 667,37 676,34 685,31 696,30 706,32 714,36 721,41 728,46 735,51 741,57 748,62 752,70 754,80 
		758,88 761,97 763,107 764,118 761,127 757,135 751,140 744,145 736,150 728,154 720,158 713,162 704,165 700,170 709,171 717,175 
		724,180 718,186 710,187 702,183 698,179 693,182 687,187 683,195 679,202 682,208 678,213 677,221 682,219 687,212 686,203 
		694,202 702,204 711,201 715,194 722,194 727,201 730,210 725,214 719,211 714,218 717,227 712,233 701,234 691,234 687,242 
		685,251 691,256 699,256 706,250 712,245 719,240 719,233 726,230 728,236 725,245 720,252 716,260 712,268 703,268 694,270 	"/>
	<polygon display="inline" fill="#FF0000" stroke="#800080" points="740,958 729,957 719,955 712,950 702,948 691,947 683,943 
		676,938 671,931 667,923 664,914 668,906 673,899 676,890 679,880 682,872 687,865 695,860 702,856 695,851 686,850 676,852 
		666,850 657,847 651,841 648,832 648,822 650,812 656,805 659,797 656,788 654,778 654,768 660,761 666,756 674,751 683,748 
		693,746 704,745 715,746 723,750 730,755 740,757 749,760 756,765 757,774 753,782 757,790 760,799 758,809 754,817 758,825 
		766,821 774,817 782,813 792,811 803,812 812,815 821,818 826,825 829,834 833,842 839,843 842,834 846,826 851,819 856,812 
		862,806 870,801 880,801 889,804 897,801 908,801 917,804 924,809 931,814 936,821 941,828 944,837 947,846 949,856 948,866 
		945,875 940,882 934,889 928,894 921,899 911,902 902,904 891,905 881,903 871,901 863,897 857,891 851,885 846,878 843,869 
		839,861 833,868 832,877 827,883 821,889 814,895 806,898 795,899 784,898 776,894 773,902 776,911 777,922 773,930 768,937 
		762,943 756,948 749,953 741,957 	"/>
</g>
<g id="Single_nuclei" opacity="0.5">
	<polygon fill="#00FF00" stroke="#800080" points="100,246 89,245 80,242 73,237 67,231 63,223 61,213 56,206 53,197 48,190 49,178 
		51,169 52,160 55,151 59,142 66,137 75,134 83,130 94,129 102,127 109,132 118,133 125,138 128,147 135,152 143,156 151,160 
		155,168 160,175 164,183 168,191 167,202 165,212 163,222 158,229 151,233 143,237 136,242 127,243 117,241 107,241 	"/>
	<polygon fill="#00FF00" stroke="#800080" points="123,464 112,463 102,461 93,458 86,453 80,447 76,439 71,432 66,425 63,416 
		62,405 65,396 71,389 74,381 75,370 79,362 84,355 88,346 94,340 103,337 114,336 124,338 132,342 139,347 149,345 158,346 
		166,350 171,357 170,368 165,374 166,380 174,384 179,391 182,400 182,410 180,420 177,429 174,437 169,444 162,449 155,455 
		147,458 136,459 127,462 	"/>
	<polygon fill="#00FF00" stroke="#800080" points="84.311,1024 82,1014 83,1003 87,995 91,987 97,980 104,975 111,970 118,965 
		126,962 137,960 146.674,960.909 156,963 162.885,966.534 169.998,970.175 175.292,975.135 178.766,979.271 183.398,985.557 
		187,994 187.202,1003.756 186,1013 182.571,1024 	"/>
	<polygon fill="#00FF00" stroke="#800080" points="261,675 250,674 242,670 236,664 228,660 219,657 211,655 203,651 196,646 
		192.792,638.051 194,628 194,618 191,609 191,599 193,589 197,581 203,574 211,570 218,565 225,560 235,558 245,560 250,567 
		252,577 251.566,583.731 252.959,589.023 258.251,592.09 262.987,588.469 267.442,579.552 275.241,577.048 282.762,580.945 
		287,588 292,595 298,601 303,608 306,617 306,627 307,637 303,646 300,655 295,661 287,665 279,669 269,671 	"/>
	<polygon fill="#00FF00" stroke="#800080" points="461,606 450,605 440,603 430,603 419,602 411,598 404,593 400,585 399,574 
		400,563 402,553 407,545 413,540 421,536 429,531 438,528 447,525 456.576,523.564 467,523 477,525 485,529 491,535 495,543 
		498.361,550.304 500,562 499,573 496,582 492,589 486,596 480,601 472,605 	"/>
	<polygon fill="#00FF00" stroke="#800080" points="1012,464 1001,463 989,463 979,461 971,457 964,452 960,444 958,434 958,424 
		961,415 965,406 970,399 974,392 980,385 987,380 995,377 1006,375 1016,377 1026,379 1034,383 1042,387 1049,392 1054,399 
		1059,406 1062,415 1062,426 1059,436 1054,443 1048,448 1041,453 1033,457 1024,460 1015,463 	"/>
	<polygon fill="#00FF00" stroke="#800080" points="1222,626 1210,626 1201,623 1192,622 1185,617 1179,611 1174,604 1171,595 
		1167,587 1166,576 1164,566 1165,555 1167,545 1172,537 1177,531 1185,527 1194,523 1203,521 1211,516 1220,513 1231,514 1241,516 
		1249,520 1257,524 1265,528 1269,536 1272,545 1275,554 1275,566 1274,577 1272,586 1268,594 1265,603 1259,610 1252,614 1244,618 
		1236,622 1227,625 	"/>
	<polygon fill="#00FF00" stroke="#800080" points="611,118 601,116 593,112 584,109 578,103 571,98 567,90 566,79 564,73 566,63 
		568,52 572,45 579,40 588,36 600,36 611,35 620,33 628,28 637,27 645,31 652,36 658,42 663,49 666,58 667,69 666,80 663,89 659,97 
		653,102 646,108 638,112 629,114 619,116 	"/>
	<polygon fill="#00FF00" stroke="#800080" points="698,166 686,166 674,166 662,166 654,162 646,158 638,154 631,149 624,144 
		617,139 614,130 612,120 621,116 630,114 640,111 647,107 655,103 660,96 665,88 667,79 667,67 665,57 662,48 659,39 666,33 
		675,30 684,28 695,28 705,30 713,34 719,40 726,45 732,51 739,56 746,61 752,67 756,75 759,84 762,93 765,102 764,113 763,124 
		760,133 754,138 748,144 740,149 732,153 724,157 716,160 708,164 	"/>
	<polygon fill="#00FF00" stroke="#800080" points="734.767,958.14 727.492,957.137 719.217,953.628 712,948 702.161,945.6 691,945 
		683,941 676,936 671.565,929.05 667,921 666,912 671,904 675,897 678,888 681,879 685,870 692.271,864.715 698.953,861.741 
		708.611,858.027 718,855 727.18,854.313 736.021,854.558 743.52,856.913 751,862 757,868 761,876 765,884 767.62,891.177 771,898 
		774.143,907.729 776,917 774,926 769,933 763,940 757,946 750,951 743.043,955.885 	"/>
	<polygon fill="#00FF00" stroke="#800080" points="896,904 885,903 875,901 866.689,897.697 860,892 854,886 849,879 845,871 
		842,862 841,851 842,839 845,831 850,823 855,816 860,809 867,805 875.718,802.141 884,805 894,803 904,801 913,804 920,809 
		927,814 933.402,819.948 938,827 942,835 944.688,843.774 947,854 947,865 944,874 939,881 933,888 927,893 920,898 910,901 
		901,903 	"/>
	<polygon fill="#00FF00" stroke="#800080" points="797,898 786,897 778,893 771.742,888.851 766,881 762,873 757,866 
		751.447,857.712 751.004,850.419 753.877,845.113 755.645,836.935 758.004,830.177 764.317,823.861 770,820 778,816 787,813 
		798,812 807.397,814.205 816,818 823,823 827.448,830.177 830,840 831.533,846.886 832.65,856.913 833,865 830.05,874.368 826,882 
		820,888 814,893 805,897 	"/>
	<polygon fill="#00FF00" stroke="#800080" points="679.396,850.928 690.002,847.321 697.281,851.687 705.651,854.235 
		714.747,854.235 724.211,852.779 732.946,850.232 739.86,846.957 747.139,840.406 751.506,832.763 753.323,823.666 
		754.781,816.023 758.057,810.564 760.24,804.379 759.875,798.554 758.42,791.639 755.424,786.764 753.435,783.01 754.098,779.253 
		756.308,775.494 757.634,771.297 756.971,767.538 753.877,764.443 748.573,762.012 739.475,757.135 729.966,754.109 
		718.728,749.355 708.355,747.626 697.116,746.761 679.827,749.787 671.183,752.813 664.699,757.567 656.488,767.509 
		656.055,774.425 656.488,782.636 659.08,789.552 663.403,795.171 663.403,802.087 658.649,807.273 654.958,811.832 651.301,816.35 
		649.14,823.698 650.436,832.343 653.03,839.69 660.81,845.742 668.157,849.632 	"/>
	<polygon fill="#00FF00" stroke="#800080" points="662.006,188.256 659.541,197.762 662.71,205.86 666.232,211.493 672.569,215.719 
		681.723,218.183 690.526,219.24 700.671,221.397 708.834,224.169 716.228,226.986 724.325,230.154 732.911,233.304 740.17,234.027 
		747.211,232.619 752.845,230.506 758.126,224.521 761.999,219.592 765.168,214.31 767.633,207.972 767.633,200.579 
		765.872,194.594 762.703,190.016 754.957,186.143 744.043,181.918 733.832,180.51 724.678,178.397 716.228,175.933 
		709.186,172.412 700.736,171.003 691.23,172.06 679.611,175.58 670.105,179.805 	"/>
	<polygon fill="#00FF00" stroke="#800080" points="617.291,223.113 612.714,232.267 612.714,244.942 617.291,256.913 
		622.573,266.067 629.614,273.461 635.952,280.503 644.754,286.84 653.908,291.417 665.175,293.53 675.738,293.53 686.3,291.065 
		694.046,287.545 703.553,284.376 711.651,278.39 718.34,272.405 722.917,265.363 726.086,258.321 729.654,250.042 731.001,242.067 
		728.867,234.99 718.757,229.373 706.624,225.104 693.257,221.734 677.53,218.813 664.498,217.24 650.57,217.465 636.656,219.24 
		624.685,220.648 	"/>
</g>
</svg>
