<?xml version="1.0" encoding="utf-8"?>
<!-- Generator: Adobe Illustrator 16.0.1, SVG Export Plug-In . SVG Version: 6.00 Build 0)  -->
<!DOCTYPE svg PUBLIC "-//W3C//DTD SVG 1.1//EN" "http://www.w3.org/Graphics/SVG/1.1/DTD/svg11.dtd">
<svg version="1.1" id="Layer_1" xmlns="http://www.w3.org/2000/svg" xmlns:xlink="http://www.w3.org/1999/xlink" x="0px" y="0px"
	 width="1280px" height="1024px" viewBox="0 0 1280 1024" enable-background="new 0 0 1280 1024" xml:space="preserve">
<g id="Raw_image">
	
		<image overflow="visible" enable-background="new    " width="1280" height="1024" xlink:href="normal_29.jpg"  transform="matrix(1 0 0 1 2.441406e-004 -2.441406e-004)">
	</image>
</g>
<g id="Not_annotated" opacity="0.5">
	<polygon fill="#0000FF" stroke="#800080" points="0,476 3,483 5,492 6,501 4,511 	"/>
	<polygon fill="#0000FF" stroke="#800080" points="0,956 8,958 15,963 22,968 28,974 35,979 41,985 46,992 52,998 58,1004 63,1011 
		69,1016 78,1013 85,1015 91,1021 	"/>
	<polygon fill="#0000FF" stroke="#800080" points="95,0 89,3 78,4 68,2 	"/>
	<polygon fill="#0000FF" stroke="#800080" points="961,939 957,932 963,932 	"/>
</g>
<g id="Clumps" display="none" opacity="0.5">
	<polygon display="inline" fill="#FF0000" stroke="#800080" points="324,256 313,255 304,252 297,247 290,242 283,237 277,231 
		272,224 267,217 259,218 253,223 245,227 235,229 225,227 216,224 207,221 199,217 192,212 185,207 179,201 174,194 170,186 
		166,178 163,169 160,160 158,150 158,140 157,129 163,122 171,118 178,114 187,110 192,104 193,93 192,82 192,70 193,58 195,49 
		199,40 204,34 210,27 216,21 221,14 229,10 237,6 246,5 254,4 266,3 277,4 287,6 294,11 300,17 305,24 310,31 313,40 318,47 
		323,54 327,62 327,72 323,80 321,89 316,97 312,105 307,111 302,119 296,125 290,130 283,135 275,139 267,144 261,149 260,159 
		264,167 272,169 276,162 280,154 284,146 292,141 302,139 313,140 325,140 335,142 342,147 348,153 353,160 353,170 356,179 
		361,186 366,193 369,202 370,213 369,224 366,233 361,240 355,245 348,250 339,253 329,255 	"/>
	<polygon display="inline" fill="#FF0000" stroke="#800080" points="490,966 479,965 469,963 461,959 455,953 449,947 441,943 
		433,939 429,931 427,921 426,910 421,903 413,899 406,894 400,888 395,881 389,875 387,865 387,855 391,847 397,841 404,836 
		412,832 419,826 425,821 432,816 440,811 449,809 461,808 471,808 481,810 492,811 503,812 508,819 513,826 513,836 509,844 
		505,852 501,859 500,869 508,873 516,877 522,883 526,891 531,898 534,907 536,917 535,928 532,937 529,946 524,953 518,959 
		510,962 500,965 	"/>
	<polygon display="inline" fill="#FF0000" stroke="#800080" points="716,137 705,136 698,131 705,126 698,121 689,118 692,126 
		688,129 684,121 677,116 672,109 674,99 680,93 679,86 675,82 682,76 688,71 692,62 696,54 698,45 698,35 704,29 713,25 723,25 
		733,24 740,28 743,37 747,45 750,54 753,63 756,72 758,82 760,92 764,100 761,108 758,117 752,124 745,128 735,131 727,128 
		721,134 	"/>
</g>
<g id="Single_nuclei" opacity="0.5">
	<polygon fill="#00FF00" stroke="#800080" points="1277.167,41.167 1272.167,46.5 1263.801,50.13 1255.195,51.581 1245.966,51.581 
		1237.463,49.611 1229,45 1220,42 1210.399,42.664 1201,41 1192.667,37.479 1184,34 1176,30 1169,25 1164,18 1161,9 1160.004,0 
		1198.889,0 1280,0 1280,37 	"/>
	<polygon fill="#00FF00" stroke="#800080" points="110,491 99,490 91,486 83,482 77,476 71,470 67,462 63.825,453.193 62,443 
		62,431 59.64,423.919 59.55,418.69 59.915,413.265 62.403,408.636 65.982,405.572 73,401 80,397 90,395 96.711,388.679 104,384 
		113.064,382.03 124,382 133.551,383.108 142,386 148,392 151,401 153,411 155,421 155,431 154,442 151.521,451.216 148.825,460.74 
		145,469 141.637,476 135,482 127,486 118,489 	"/>
	<polygon fill="#00FF00" stroke="#800080" points="149,926 138,925 129,922 120,919 112,915 107,908 102,901 99,892 97,882 97,872 
		99,862 102,853 106,845 111,838 117,831 123,826 130,821 139,817 149,815 159,815 169,817 178,820 187,823 194,828 200,834 
		204,842 207,851 210,860 210,872 208,882 205,891 202,900 197,906 190,911 183,916 175,921 167,924 156,925 	"/>
	<polygon fill="#00FF00" stroke="#800080" points="267,776 256,775 247,772 236,771 227,768 220,763 212,759 205,754 199,748 
		193,742 190,733 188,723 188,713 191,703 195,695 198,687 204,681 211,676 219,671 229,669 240,668 250,670 260,672 270,674 
		279,677 286,682 294,686 300,692 305,699 308,708 309,719 308,730 305,739 301,747 297,754 292,762 287,768 280,773 270,775 	"/>
	<polygon fill="#00FF00" stroke="#800080" points="415,749 403,749 394,746 385,743 376,740 368,736 361,731 353,727 344,724 
		336,720 328,716 323,709 319,701 317,691 320,681 322,672 326,663 330,656 334,648 340,641 346,636 353,631 362,627 373,626 
		384,625 395,626 405,628 413,632 421,636 428,641 434,647 440,653 443,662 446,671 449,680 452,689 452,701 450,710 446,719 
		442,727 438,734 432,740 425,745 416,748 	"/>
	<polygon fill="#00FF00" stroke="#800080" points="432,127 421,126 411,124 403,120 396,115 389,110 384,103 380,95 377,86 377,76 
		379,66 384,58 390,52 396,46 402,40 409,35 416,30 422,24 430,20 441,19 452,20 461,23 469,27 476,32 482,38 486,46 488,56 488,68 
		486,77 483,87 479,95 474,101 468,108 462,114 456,119 448,123 439,126 	"/>
	<polygon fill="#00FF00" stroke="#800080" points="482,278 471,277 461,275 453,271 447,265 441,259 436,252 432,244 431,233 
		433,223 436,214 441,206 446,200 453,194 459,189 469,186 479,184 489,184 499,186 509,188 517,192 525,196 531,202 537,208 
		541,216 544,225 544,237 540,245 537,253 532,261 526,266 519,271 510,275 500,277 489,277 	"/>
	<polygon fill="#00FF00" stroke="#800080" points="588.862,961.252 580.039,961.277 571.016,962.725 563.919,961.237 
		557.633,957.048 553,951 552,940 551,929 550.333,919.5 549.116,908.991 545.669,900.88 544,890 544,878 546,868 552,861 562,859 
		574,859 584,861 591,866 598,871 605,876 612,881 619,886 626,891 633,896 639,902 644,909 649,917.101 649,928 645,935 640,942 
		633,948 626,953 618,956 609,959 599,961 	"/>
	<polygon fill="#00FF00" stroke="#800080" points="699.885,440.829 691.634,439.877 683,437 677,431 671,425 666,418 661,411 
		657,403 657,393 661,384 665,377 672,371 678,365 685,360 691,355 699,350 709,348 720,347 732,347 741,350 749,354 757,358 
		764,363 771,368 776,375 780,383 781.913,391.961 780,401 775,408 770,415 762,418 752,420 743.199,420.679 740.344,424.804 
		738.915,429.406 734.632,433.689 728,437 718,439 707,440 	"/>
	<polygon fill="#00FF00" stroke="#800080" points="759.596,988 750,988 740.739,984.625 734,980 729,973 725,965 723,955 721,945 
		722,934 726,926 732,919 738.913,914.466 745.402,908.382 750.877,901.082 756.352,894.39 762.03,886.482 766.49,880.804 772,876 
		781.293,873.302 791,872 800,875 807,880 813,886 818,893 821,902 824,911 824,923 823,933 819,942 815,949 810,957 804,963 
		798,969 791,974 784,978 777,983 768,987 	"/>
	<polygon fill="#00FF00" stroke="#800080" points="824,494 812,494 801,493 793,489 786,484 781,477 777,469 775,459 778,450 
		780,440 784,432 790,426 796,420 801,412 806,406 812,399 815,391 821,384 827,379 836,375 845,372 856,373 866,375 873,380 
		878,387 883,394 891,398 898,403 903,410 906.939,417.509 909,428 909,440 905,448 900,454 894,460 887,466 880,470 871,474 
		862,477 855,481 847,485 839.665,488.59 831.997,491.295 	"/>
	<polygon fill="#00FF00" stroke="#800080" points="909,0 910,10 906,19 902,26 898,35 895,44 891,51 884,56 876,60 865,62 854,62 
		844,60 835,57 828,52 821,47 815,41 808.133,31 802.208,21.478 802.208,12.115 802.637,0 	"/>
	<polygon fill="#00FF00" stroke="#800080" points="903.531,207 895,207 886.174,206.198 876,202 868,198 861,193 855,187 850,180 
		846,172 844,162 842,152 841,141 842,130 845,120 848,111 851,103 856,96 861,89 866,82 872,75 880,71 891,70 902,71 911,74 
		919,78 926,83 933,88 939,94 944,101 949,108 952,117 954,127 957,136 958,147 958,159 955,168 952,176 947,184 942,191 936,197 
		929,201 920,204 910,206 	"/>
	<polygon fill="#00FF00" stroke="#800080" points="907.064,973.824 898,973 888,971 877,970 869,966 862,961 857,954 853,946 
		849,938 846,929 847,918 849,908 854,900 860,895 868,891 876,887 884.361,884.772 894.834,883.407 905.307,884.09 
		913.731,885.683 921,889 928,894 935,899 941,905 946,912 950,920 953,929 953,939 949,947 945,955 940,961 933,966 924,970 
		915,972 	"/>
	<polygon fill="#00FF00" stroke="#800080" points="1065,447 1053,447 1043,445 1034,442 1024,440 1014,438 1007,433 1001,427 
		996,420 990,414 986,406 984,396 981,387 984,378 986,368 991,361 999,356 1009,356 1019,354 1029,354 1040,355 1050,357 1060,359 
		1070,361 1078,365 1086,369 1093,374 1099,380 1103,388 1108,395 1108,407 1107,418 1105,428 1098,433 1092,438 1084,442 1075,443 
		1066,446 	"/>
	<polygon fill="#00FF00" stroke="#800080" points="1097,354 1087,352 1077,350 1069,346 1061,342 1054,337 1047,332 1043,324 
		1040,315 1038,305 1039,294 1043,285 1047,277 1052,271 1060,266 1068,262 1079,261 1089,263 1098,266 1107,269 1115,273 1123,277 
		1130,282 1136,288 1141,295 1144,304 1147,313 1148,324 1145,333 1140,340 1134,345 1126,350 1118,353 1106,353 	"/>
	<polygon fill="#00FF00" stroke="#800080" points="1170,959 1159,958 1150,955 1142,951 1133,948 1125,944 1117,940 1109,936 
		1101.567,932 1096,925 1092,917 1089.955,908.5 1091,900 1096,892 1099,884 1103,875 1107,868 1114,862 1123,859 1134,858 
		1145,859 1156,860 1164,864 1172,868 1179,873 1187,877 1194,882 1198,890 1201,899 1201,911 1205,919 1206,930 1204,940 1198,946 
		1191,950 1182,953 1175,958 	"/>
	<polygon fill="#00FF00" stroke="#800080" points="282.293,3.281 288.21,5.701 294.395,9.735 301,17 306,24 310.398,30.847 
		315.104,38.916 319,47 323,55 325.862,62.986 326,72 323,81 319,89 315,96 310,104 305,111 300,117 295,124 289,131 282,135 
		274,139 266,143 255.829,143.027 245.496,143.36 236.667,140.5 229.5,136 221.667,131.166 214.834,124.666 209.167,119.833 
		203.667,114.5 198,108 195.5,99.666 192,89 191,78 191,66 193,58 196,49 199,40 204,33 210,26 215,20 220.974,14.98 228.907,9.87 
		234.69,6.777 240.09,4.371 245.448,2.877 250.692,1.398 257.147,0.726 264.408,0.726 271.401,1.398 277.049,2.339 	"/>
	<polygon fill="#00FF00" stroke="#800080" points="243.604,225.619 233.818,226.707 223,223 213.438,219.99 206.259,216.053 
		198.616,212.116 191,208.179 183,203 177,197 172,190 168.5,182 165,175 161.25,166.75 158.75,156.5 156,146 155,137 157,127 
		160,118 167,113 174.5,110 183,109.333 191.993,111.147 198.074,113.205 204.249,116.573 210.273,122.5 217.816,128.924 
		223.803,133.883 233.066,139.216 243.029,145.648 248.403,150.109 253.37,156.091 257.933,162.884 261.84,169.736 265,178 
		265.546,186.873 264,197 261,206 257,213 251.882,220.222 	"/>
	<polygon fill="#00FF00" stroke="#800080" points="308.389,252.876 301.674,249.865 294,245 287.083,241.528 280,235 
		276.198,227.633 273.188,218.138 272,208 273,197 274,187 275,176 277,166 280.599,155.609 284.767,147.503 290.325,143.335 
		297.737,138.934 308,136 320,136 330,138 338.033,141.945 343.36,147.503 349.613,154.914 352.855,161.862 355,173 356.56,181.779 
		360.96,188.958 366.982,196.137 369.992,205.632 369.992,216.517 369,225 367,235 362,242 356,248 348,251 337,252 327,254.729 
		317.653,254.729 	"/>
	<polygon fill="#00FF00" stroke="#800080" points="423.5,899.5 416,898 408,894 402,888 397,881 391,875 388,866 388,856 392,848 
		398,842 405,837 413,833 420,827 426,822 433,817 441,812 450,810 462,809 472,809 482,811 493.5,810.75 501.75,813.25 
		508.25,819.25 513,828 511,838 507,845 503,853 498,861 494.5,866.75 489.25,872 483,876.5 473.807,881.22 463.5,884.5 
		451.605,889.177 443.135,892.899 436.205,896.107 430.5,898.5 	"/>
	<polygon fill="#00FF00" stroke="#800080" points="486.616,964.783 478,964 468.289,960.788 461,957 455,951 449,945 440,942 
		433,937 429,929 428,918 428.75,912.25 430.5,906 434.537,898.032 445.702,893.284 456.611,888.407 465.979,885.327 
		475.989,881.734 485.75,880 494.25,880 503,880 510.25,880 516.25,882 522,887 527,894 531,902 534,911 535,922 533,931 530,941 
		526,948 520,955 513,960 505,963 495.368,964.783 	"/>
	<polygon fill="#00FF00" stroke="#800080" points="720,131 711.406,129.442 704,123 696,119 686,119 679,114 675,106 677,97 
		679.741,89.527 684.265,81.278 686,74 690,66 694,58 697,50 699,40 704,33 712,28 721,27 731,29 737,35 743,41 747,49 751,57 
		754,66 756,76 758,86 758,98 756.377,107.355 753,116 747,122 739,126 729,128 	"/>
</g>
</svg>
