<?xml version="1.0" encoding="utf-8"?>
<!-- Generator: Adobe Illustrator 16.0.1, SVG Export Plug-In . SVG Version: 6.00 Build 0)  -->
<!DOCTYPE svg PUBLIC "-//W3C//DTD SVG 1.1//EN" "http://www.w3.org/Graphics/SVG/1.1/DTD/svg11.dtd">
<svg version="1.1" id="Layer_1" xmlns="http://www.w3.org/2000/svg" xmlns:xlink="http://www.w3.org/1999/xlink" x="0px" y="0px"
	 width="1280px" height="1024px" viewBox="0 0 1280 1024" enable-background="new 0 0 1280 1024" xml:space="preserve">
<g id="Raw_image">
	
		<image overflow="visible" enable-background="new    " width="1280" height="1024" xlink:href="normal_5.jpg"  transform="matrix(1 0 0 1 2.441406e-004 -2.441406e-004)">
	</image>
</g>
<g id="Not_annotated" opacity="0.5">
	<path fill="#0000FF" stroke="#800080" d="M0,1011l5,5L0,1011z"/>
	<polygon fill="#0000FF" stroke="#800080" points="1279,82 1275,76 1274,65 1274,53 1275,42 	"/>
</g>
<g id="Clumps" opacity="0.5">
	<polygon fill="#FF0000" stroke="#800080" points="210,1023 210,1013 213,1004 217,996 222,988 227,981 226,973 216,971 206,969 
		196,967 188,963 181,958 174,953 168,947 162,941 157,934 154,925 152,915 154,905 157,896 161,888 166,881 173,875 180,870 
		188,866 197,863 208,862 220,862 231,863 239,867 246,872 252,878 257,885 261,893 263,903 265,913 265,925 263,935 262,946 
		265,953 275,953 287,953 297,955 305,959 313,963 319,969 325,975 330,982 334,990 338,998 341,1007 342,1018 	"/>
	<polygon fill="#FF0000" stroke="#800080" points="601,587 592,584 584,580 577,575 573,567 569,559 569,547 568,536 564,528 
		557,523 546,522 536,520 530,514 525,507 521,499 519,489 523,480 526,472 530,463 536,457 545,454 553,450 563,448 572,451 
		580,455 587,460 593,466 595,476 599,484 608,487 616,491 626,493 635,492 643,496 649,502 653,510 654,521 653,532 652,542 
		648,551 644,558 637,564 630,568 624,575 619,581 612,586 	"/>
</g>
<g id="Single_nuclei" opacity="0.5">
	<path fill="#00FF00" stroke="#800080" d="M0,1"/>
	<polygon fill="#00FF00" stroke="#800080" points="0,350 9,349 17,353 23,359 28,366 33,373 37,381 39,391 39,403 37,413 34,421 
		30,429 25,437 20,443 15,451 10,457 1.019,463 	"/>
	<polygon fill="#00FF00" stroke="#800080" points="79,888 67,888 59,884 52,879 45,874 38,869 31,864 24,859 17,854 11,848 6,841 
		3,832 3,821 6,812 11,805 18,801 27,797 35,793 43,789 52,786 62,784 73,783 84,784 94,786 105,787 114,790 123,793 130,798 
		136,804 141,811 142,822 141,833 140,843 136,851 131,859 126,865 120,872 113,876 107,882 99,886 88,887 	"/>
	<polygon fill="#00FF00" stroke="#800080" points="38,1023 39,1014 43,1005 48,998 55,993 62,989 70,984 78,980 87,977 98,976 
		108,976 119,977 128,980 134,986 138,994 143,1001 147,1009 150,1023 	"/>
	<polygon fill="#00FF00" stroke="#800080" points="215,797 203,797 193,795 184,792 177,787 171,781 165,775 160,768 155,761 
		150,754 147,745 142,738 139,729 136,720 134,710 134,698 135,687 138,678 143,670 148,663 154,657 161,653 170,649 179,646 
		189,644 200,645 209,648 217,652 225,656 233,660 239,666 245,672 251,678 256,685 260,693 264,701 266,711 268,721 269,732 
		268,743 265,752 262,761 258,768 253,776 247,782 241,787 232,791 224,794 	"/>
	<polygon fill="#00FF00" stroke="#800080" points="210,608 200,606 193,601 186,596 180,590 175,583 171,575 168,566 170,556 
		171,545 173,535 177,526 182,520 189,515 197,511 208,509 219,510 227,514 237,516 249,516 259,514 266,510 274,505 284,503 
		293,500 303,498 314,497 321,502 326,509 327,520 331,528 338,533 342,541 346,549 347,559 344,569 340,576 334,583 327,587 
		317,589 309,593 297,593 286,592 275,591 265,589 255,592 249,597 242,603 233,605 222,606 211,607 	"/>
	<polygon fill="#00FF00" stroke="#800080" points="450,807 440,807 431,804 425,798 418.399,795.424 408,795 397,796 387,796 
		380,791 371.838,788.274 364,791 355,790 350,783 349,774 357,769 362,762 360,753 352,749 344,745 338,739 341,730 341,720 
		345,712 352,706 363,705 373,705 383,705 394,706 401,704 408,698 413,692 418,685 425,679 436,680 443,685 448.9,691.276 449,701 
		452,710 458,716 463,723 465,733 466,744 465,755 467,765 472.515,771.733 474,780 474,791 469,798 462,803 453,806 	"/>
	<polygon fill="#00FF00" stroke="#800080" points="426,974 415,973 404,972 396,968 388,964 380,960 373,955 366,950 361,943 
		357,935 354,926 352,916 349,907 347,897 348,886 353,878 359,872 367,868 376,865 384,861 394,859 405,858 413,854 417,847 
		426,843 436,843 446,845 453,850 460,855 465,862 468,871 470,881 472,891 473,902 472,913 470,923 467,932 464,941 459,948 
		454,955 450,962 443,968 435,971 	"/>
	<polygon fill="#00FF00" stroke="#800080" points="507,181 495,181 484,180 473,179 463,177 455,173 447,169 439,165 430,162 
		424,156 421,147 418,138 417,127 419,117 422,108 427,100 431,93 437,87 444,81 453,78 463,76 474,75 484,75 496,75 506,77 514,81 
		521,86 527,92 532,99 538,105 543,112 548,119 552,127 556,135 558,145 556,155 551,161 543,166 536,171 528,175 520,178 510,180 	
		"/>
	<polygon fill="#00FF00" stroke="#800080" points="607,1018 596,1017 585,1016 573,1016 565,1014 555,1012 546,1009 538,1005 
		532,999 525,994 519,988 512,983 508,975 505,966 502,957 499,948 498,937 496,927 495,916 495,904 496,893 496,884 501,878 
		509,873 515,868 521,861 528,856 535,851 544,848 555,847 566,846 577,847 587,847 595,851 604,854 615,855 623,859 629,865 
		636,870 642,876 648,882 652,890 657,897 662,904 667,911 669,921 673,929 676,938 677,949 677,961 675,971 672,980 667,987 
		663,994 656,1000 649,1005 643,1010 634,1013 623,1014 614,1017 	"/>
	<polygon fill="#00FF00" stroke="#800080" points="679,0 686,5 691,12 693,22 695,32 694,43 692,53 689,61 683,67 678,75 674,82 
		667,87 658,91 652,96 643,100 634,102 622,102 610,102 600,100 593,95 587,89 581,83 577,75 574,66 575,55 577,45 582,37 586,30 
		591,23 595,15 602,9 611.834,0 	"/>
	<polygon fill="#00FF00" stroke="#800080" points="733,601 721,601 710,600 700,598 691,595 684,590 678,584 673,577 669,569 
		666,560 666,548 668,538 670,528 673,519 677,511 683,504 691,500 700,498 711,498 721,496 730,493 739,496 748,499 755,504 
		761,510 766,517 768,527 771,536 774,545 774,557 774,569 771,578 767,586 761,591 751,593 743,597 734,600 	"/>
	<polygon fill="#00FF00" stroke="#800080" points="753,877 741,877 730,876 720,874 711,871 703,867 696,862 690,856 684,850 
		679,843 675,835 674,824 674,812 678,803 682,796 688,789 695,785 702,779 708,773 714,767 721,762 728,758 737,754 748,753 
		759,752 770,753 779,756 787,760 794,765 802,769 809,774 816,779 822,785 826,793 829,802 831,812 831,824 829,834 825,842 
		820,848 813,854 807,859 799,864 791,867 782,871 774,874 763,875 	"/>
	<polygon fill="#00FF00" stroke="#800080" points="840,188 829,187 820,184 812,180 804,176 798,170 789,167 780,164 773,159 
		767,153 761,147 757,139 755,129 754,118 753,107 755,97 759,88 763,80 768,73 773,66 781,62 789,59 798,55 809,54 819,52 830,51 
		840,53 848,57 856,61 863,66 871,70 878,75 883,82 888,89 892,97 897,104 900,113 901,124 901,136 899,146 895,154 890,161 
		886,169 880,175 873,179 864,182 853,184 845,187 	"/>
	<polygon fill="#00FF00" stroke="#800080" points="898,583 886,583 876,581 866,579 857,576 850,571 844,565 837,560 831,554 
		826,547 823,538 820,529 818,519 818,507 820,496 822,487 826,478 830,471 835,464 841,458 848,452 855,447 863,443 873,441 
		884,440 895,439 906,438 917,439 925,443 932,448 937,455 943,461 948,468 952,476 955,485 956,496 956,506 956,517 955,528 
		952,537 948,545 943,553 938,559 932,565 925,570 918,576 910,579 901,582 	"/>
	<polygon fill="#00FF00" stroke="#800080" points="976,955 965,954 954,953 944,951 934,949 925,946 917,942 911,936 906,929 
		901,922 897,914 893,906 891,896 890,885 890,873 893,864 897,856 902,848 907,841 912,835 918,829 925,823 932,819 940,814 
		947,809 956,806 965,803 975,801 985,801 995,803 1004,806 1011,811 1018,816 1024,822 1030,828 1035,835 1039,843 1043,851 
		1045,861 1046,872 1047,883 1045,893 1043,903 1039,911 1035,918 1030,926 1025,932 1018,937 1012,943 1005,948 996,951 986,954 	
		"/>
	<polygon fill="#00FF00" stroke="#800080" points="1049,721 1037,721 1028,718 1019,715 1011,711 1005,705 1000,698 994,692 
		989,685 985,677 983,667 982,656 984,646 986,636 989,627 992,618 995,608 998,600 1003,592 1006,584 1010,576 1015,568 1020,562 
		1026,555 1035,552 1046,551 1056,549 1067,548 1076,551 1084,555 1094,557 1101,562 1108,567 1115,572 1121,578 1125,586 1130,593 
		1134,601 1134,613 1134,625 1133,636 1131,646 1128,654 1123,661 1117,668 1114,677 1111,686 1107,693 1101,700 1095,705 1087,709 
		1078,713 1071,717 1061,719 1050,720 	"/>
	<polygon fill="#00FF00" stroke="#800080" points="1131,225 1119,225 1108,224 1099,221 1091,217 1082,214 1073,211 1064,208 
		1057,203 1050,198 1045,191 1038,186 1034,178 1031,169 1031,157 1032,146 1036,137 1039,129 1042,120 1048,114 1053,107 1058,99 
		1064,93 1071,89 1079,85 1091,84 1101,86 1111,88 1120,91 1128,95 1135,100 1141,106 1148,111 1154,117 1159,124 1164,131 
		1167,140 1171,148 1174,157 1175,168 1174,179 1172,188 1168,197 1165,205 1160,212 1153,218 1145,221 1136,224 	"/>
	<polygon fill="#00FF00" stroke="#800080" points="1180,896 1168,896 1160,892 1151,889 1142,886 1134,882 1128,876 1122,870 
		1116,864 1111,857 1106,850 1103,841 1099,833 1096,824 1095,813 1096,802 1098,792 1101,782 1105,774 1110,767 1114,760 1121,754 
		1129,750 1138,747 1148,746 1160,745 1170,747 1179,750 1188,753 1196,757 1204,761 1210,767 1217,772 1223,778 1229,784 1234,791 
		1238,799 1242,807 1244,817 1246,827 1245,838 1244,849 1241,858 1235,864 1229,870 1224,876 1218,883 1210,886 1201,889 1192,892 
		1182,895 	"/>
	<polygon fill="#00FF00" stroke="#800080" points="1279,320 1274,328 1270,335 1264,341 1256,345 1245,347 1235,346 1225,344 
		1217,340 1211,334 1204,329 1199,322 1194,315 1189,308 1186,299 1184,289 1183,278 1182,267 1182,257 1184,247 1188,239 1195,233 
		1202,229 1210,225 1219,221 1229,219 1240,220 1250,222 1257,227 1265,231 1270,238 1274,246 1275,257 1276,268 1278,278 	"/>
	<polygon fill="#00FF00" stroke="#800080" points="1279,748 1270,751 1260,749 1251,746 1241,744 1233,740 1226,735 1220,729 
		1215,722 1211,714 1208,705 1205,696 1205,684 1208,674 1212,666 1217,659 1223,653 1231,649 1240,646 1250,644 1260,644 1271,645 
		1279,649 	"/>
	<polygon fill="#00FF00" stroke="#800080" points="260.992,1023.931 250.095,1024 238.926,1024 226.45,1024 213.855,1024 
		213.974,1015.62 216.825,1005.047 219.558,997.678 223,990 227,983 234,977 240,971 246,966 253.897,961.797 261.383,958.23 
		269.225,955.853 279.681,954.903 290.85,955.14 300,957 308,961 315,966 321.149,972.012 326,979 330,987 334,995 338,1003 
		341.045,1024 	"/>
	<polygon fill="#00FF00" stroke="#800080" points="217.063,971.062 208,970 199,967 190,964 183,959 177,953 171,947 165,941 
		159,935 157,925 154,916 155,906 158,898 162,889 165,881 173,876 180,871 187,867 197,864 206,862 217,862 227,864 238,865 
		245,870 251,876 256,883 260,891 263,900 265,910 266,921 265,932 262,941 258,949 252,955 246,960 239,965 231,969 
		224.073,970.23 	"/>
	<polygon fill="#00FF00" stroke="#800080" points="547,523 538,520 531,515 525,509 520,502 518,494 519,483 520,472 525,464 
		531,459 539,454 548,451 557,448 568,447 577,450 585,454 591,460 596,467 597,478 595,487 590,495 585,501 578,507 572,512 
		565,517 558,522 	"/>
	<polygon fill="#00FF00" stroke="#800080" points="598,587 589,584 582,579 575,574 571,566 567,558 564,549 563,538 562,527 
		565,519 572,514 578,509 586,504 591,498 595,490 603,485 613,487 622,490 633,491 642,494 648,500 653,507 655,517 654,528 
		652,538 650,547 646,556 639,561 632,565 626,571 622,579 614,583 605,586 	"/>
	<polygon fill="#00FF00" points="0,0 0,59.697 14.601,63.812 27.975,65.355 43.15,63.298 57.296,58.411 69.127,53.01 77.101,45.036 
		85.588,34.491 90.218,24.203 90.218,13.401 87.646,4.398 85.074,1 84.045,0 	"/>
</g>
</svg>
