<?xml version="1.0" encoding="utf-8"?>
<!-- Generator: Adobe Illustrator 16.0.5, SVG Export Plug-In . SVG Version: 6.00 Build 0)  -->
<!DOCTYPE svg PUBLIC "-//W3C//DTD SVG 1.1//EN" "http://www.w3.org/Graphics/SVG/1.1/DTD/svg11.dtd">
<svg version="1.1" id="Layer_1" xmlns="http://www.w3.org/2000/svg" xmlns:xlink="http://www.w3.org/1999/xlink" x="0px" y="0px"
	 width="1280px" height="1024px" viewBox="0 0 1280 1024" enable-background="new 0 0 1280 1024" xml:space="preserve">
<g id="Raw_image">
	
		<image overflow="visible" enable-background="new    " width="1280" height="1024" xlink:href="normal_14.jpg"  transform="matrix(1 0 0 1 2.441406e-004 -0.0017)">
	</image>
</g>
<g id="Not_annotated">
</g>
<g id="Clumps" display="none" opacity="0.5">
	<polygon display="inline" fill="#FF0000" stroke="#800080" points="152,0 159,5 165,11 171,17 176,24 181,31 185,39 188,48 191,57 
		191,69 189,79 186,88 182,96 177,103 172,110 167,117 162,124 157,130 152,137 145,142 137,146 129,150 119,152 109,150 101,146 
		92,143 84,139 76,135 69,130 63,124 57,118 52,111 48,103 45,94 43,84 43,74 41,64 42,53 44,42 49,35 57,31 65,29 70,23 75,15 
		80,8 86,2 	"/>
	<polygon display="inline" fill="#FF0000" stroke="#800080" points="713,370 702,369 691,368 681,366 673,362 666,357 662,349 
		660,339 665,331 668,323 671,314 667,306 660,301 654,295 650,287 649,276 652,267 657,259 664,254 671,250 677,243 685,239 
		693,235 703,235 714,236 724,238 734,240 744,242 752,246 758,252 763,259 765,269 764,279 764,290 764,302 761,310 755,316 
		749,322 740,325 732,330 729,339 728,350 725,359 719,365 	"/>
	<polygon display="inline" fill="#FF0000" stroke="#800080" points="1187,0 1193,6 1199,12 1202,21 1203,32 1201,41 1193,46 
		1189,53 1186,63 1184,73 1181,81 1171,83 1161,85 1157,93 1151,99 1143,103 1134,106 1123,105 1115,101 1106,98 1097,99 1090,104 
		1080,106 1069,105 1058,104 1051,99 1045,93 1041,85 1037,77 1035,67 1037,57 1039,47 1042,38 1045,29 1049,20 1054,14 1063,10 
		1073,8 1081,4 1090,7 1100,9 1108,7 1114,2 	"/>
</g>
<g id="Single_nuclei" opacity="0.5">
	<polygon fill="#00FF00" stroke="#800080" points="1280,502.713 1275.455,501.354 1271.74,498 1268.932,491.023 1268.115,482.143 
		1268.75,471.178 1270.019,461.573 1273.916,455.409 1280,451.241 	"/>
	<polygon fill="#00FF00" stroke="#800080" points="0,799 4,805 6,815 8.821,823.906 10.415,833.207 12,845 12,856 10,867 6,873.864 
		0,880.241 	"/>
	<polygon fill="#00FF00" stroke="#800080" points="0,237 9,236 18,239 26,243 33,248 37,256 41,264 43,274 45,284 47,294 48,305 
		49,316 49,328 46,337 41,344 36,350 29,356 22,360 12,362 1,361 	"/>
	<polygon fill="#00FF00" stroke="#800080" points="0,664 8,660 18,658 30,658 40,660 50,662 61,662 72,660 82,662 91,665 98,670 
		104,676 109,683 112,692 113,703 111,713 108,722 104,729 99,736 93,743 87,748 80,754 72,758 64,762 55,765 45,766 33,766 23,764 
		13,762 0,758.531 	"/>
	<polygon fill="#00FF00" stroke="#800080" points="207,358 197,356 189,352 184,345 178,339 173,332 170,323 165,316 164,305 
		163,295 165,286 169,278 173,270 180,264 187,259 195,255 205,254 214,250 222,247 230,243 239,241 250,240 259,243 268,246 
		277,249 283,255 290,260 297,265 301,273 302,283 300,294 297,302 292,310 287,317 281,322 275,328 266,331 256,333 250,339 
		244,346 237,350 229,355 219,357 210,357 	"/>
	<polygon fill="#00FF00" stroke="#800080" points="411,172 399,172 388,171 380,167 372,163 365,158 359,152 355,144 352,135 
		349,126 348,115 347,104 349,94 352,85 357,77 362,71 368,65 375,60 383,55 392,52 402,51 413,51 421,55 428,60 435,65 440,72 
		444,80 448,88 451,97 452,108 452,120 451,131 449,140 444,148 439,155 433,161 427,166 418,170 	"/>
	<polygon fill="#00FF00" stroke="#800080" points="481,943 471,941 462,940 453,939 443,937 434,934 426,930 418,926 411,923 
		404,918 397,913 392,906 388,898 382,892 376,886 375,875 373,865 371,855 371,843 373,833 374,822 377,813 381,804 385,797 
		390,789 396,784 403,778 409,773 416,767 425,764 433,760 442,757 451,758 461,760 470,763 478,767 486,771 492,777 496,785 
		500,793 503,802 503,813 504,823 508,831 511,840 514,849 516,859 517,870 519,880 520,891 522,901 521,911 516,918 511,926 
		506,933 499,937 490,940 	"/>
	<polygon fill="#00FF00" stroke="#800080" points="515,406 503,406 494,403 485,400 476,397 469,392 461,388 454,383 448,377 
		442,371 436,365 432,357 428,349 426,339 425,328 424,317 425,306 427,296 429,286 433,277 439,271 445,265 450,259 457,253 
		463,248 472,244 482,242 492,242 501,245 509,249 515,255 522,260 527,267 533,273 537,281 541,289 545,297 548,306 551,315 
		556,322 559,331 561,341 561,353 561,365 558,373 553,381 549,389 543,394 536,399 527,402 518,405 	"/>
	<polygon fill="#00FF00" stroke="#800080" points="599,204 589,202 580,199 572,195 564,191 557,186 551,180 548,171 549,160 
		551,150 555,141 559,133 565,127 572,122 580,118 589,115 598,112 607,110 617,107 629,107 638,110 647,113 656,116 666,114 
		676,116 683,121 690,126 696,132 700,140 703,149 700,158 694,164 689,171 682,176 672,178 664,182 655,184 643,185 636,190 
		628,194 619,197 611,201 602,203 	"/>
	<polygon fill="#00FF00" stroke="#800080" points="626,767 615,766 606,763 599,758 594,751 591,742 587,734 581,728 575,722 
		570,715 566,707 564,697 565,686 569,678 575,672 581,666 587,660 594,654 601,650 610,646 619,643 631,643 641,641 651,639 
		661,641 670,644 677,649 682,656 685,665 684,676 684,686 688,694 691,703 691,714 687,723 683,731 679,739 675,746 669,752 
		660,755 649,756 643,762 634,765 	"/>
	<polygon fill="#00FF00" stroke="#800080" points="811,207 799,207 789,205 782,200 775,195 769,189 762,184 756,178 751,171 
		748,162 745,153 746,142 748,132 753,125 759,119 767,114 775,110 784,107 794,105 804,103 815,104 823,108 832,111 839,116 
		844,123 848,131 853,138 857,146 858,157 857,168 855,177 851,185 845,191 838,196 829,200 821,203 812,206 	"/>
	<polygon fill="#00FF00" stroke="#800080" points="823.236,1016.799 810.057,1010.536 800.502,1003.948 792.596,996.698 
		790.948,986.156 791.607,978.25 793.584,969.063 797.534,960.131 800.83,953.538 805.445,949.258 812.031,943.655 819.942,938.385 
		827.519,934.43 834.438,931.467 843.33,928.5 853.875,926.852 862.772,924.219 875.291,922.24 886.162,923.887 894,927 902,931 
		907.25,936.406 911.531,941.019 916.146,948.927 918.781,958.152 920.1,969 919.112,976.931 914.825,984.51 904.77,995.924 
		896.047,1005.265 876.155,1016.814 863.102,1020.753 848.935,1020.753 837.404,1019.432 	"/>
	<polygon fill="#00FF00" stroke="#800080" points="881,601 870,600 862,596 854,592 847,587 841,581 836,574 832,566 830,556 
		828,546 829,535 829,525 830,514 832,504 836,495 841,489 849,484 857,480 868,481 877,484 883,490 889,496 896,501 904,505 
		911,510 915,518 920,525 925,532 931,538 936,545 940,553 940,564 936,573 931,580 923,584 917,590 911,595 903,599 892,600 
		882,600 	"/>
	<polygon fill="#00FF00" stroke="#800080" points="966,136 954,136 942,136 933,133 924,130 917,125 912,118 906,112 900,106 
		896,98 893,89 890,80 892,70 894,60 896,49 900,42 904,34 914,31 923,28 932,25 941,26 951,24 961,26 967,32 973,38 979,44 987,48 
		993,54 996,63 999,72 1001,82 1005,90 1003,100 1000,108 995,116 989,121 981,126 974,131 967,135 	"/>
	<polygon fill="#00FF00" stroke="#800080" points="991,346 979,346 968,345 958,343 951,338 944,333 938,327 933,320 929,312 
		926,303 922,295 919,286 916,277 915,266 915,254 916,242 918,233 923,225 928,219 936,214 943,210 951,205 959,202 968,198 
		976,194 985,191 996,190 1005,193 1013,197 1021,201 1027,207 1031,215 1034,224 1038,232 1040,242 1043,251 1043,263 1043,273 
		1041,283 1039,293 1037,302 1033,311 1029,318 1023,325 1017,331 1010,335 1003,340 995,345 	"/>
	<polygon fill="#00FF00" stroke="#800080" points="1016,767 1004,767 994,765 988,759 983,752 978,745 975,736 972,727 970,717 
		969,706 969,694 973,685 977,677 983,671 989,665 995,659 1003,655 1010,651 1021,649 1031,651 1040,654 1047,659 1053,665 
		1058,672 1062,680 1064,690 1066,700 1067,711 1064,720 1061,729 1055,735 1049,740 1043,746 1037,753 1032,760 1025,764 	"/>
	<polygon fill="#00FF00" stroke="#800080" points="1011,1023 1013,1014 1018,1007 1023,1001 1030,995 1037,991 1046,987 1055,985 
		1065,983 1077,982 1088,983 1097,986 1104.272,990.769 1112.179,995.713 1118.769,1000.323 1125.358,1006.912 1130.629,1015.808 
		1133.265,1023 	"/>
	<polygon fill="#00FF00" stroke="#800080" points="1178,969 1166,969 1156,967 1146,965 1135,964 1127,960 1118,957 1112,951 
		1106,945 1101,938 1096,931 1093,922 1091,912 1092,901 1097,893 1102,887 1107,880 1113,873 1120,869 1129,865 1139,863 1149,863 
		1159,865 1168,868 1177,871 1183,877 1189,883 1194,890 1200,896 1206,902 1211,909 1216,916 1217,927 1218,937 1214,946 1208,952 
		1202,958 1195,962 1187,966 	"/>
	<polygon fill="#00FF00" stroke="#800080" points="1218,820 1206,820 1195,819 1185,817 1175,815 1165,813 1155,811 1146,808 
		1139,803 1132,798 1128,790 1124,782 1122,772 1121,761 1124,752 1128,744 1133,737 1139,730 1147,726 1154,722 1161,717 1170,713 
		1181,712 1191,710 1201,708 1210,709 1221,710 1230,713 1239,716 1247,720 1254,725 1260,731 1265,738 1268,747 1270,757 1267,766 
		1264,775 1261,784 1258,792 1253,800 1248,806 1240,811 1233,815 1224,818 	"/>
	<polygon fill="#00FF00" stroke="#800080" points="1181.035,1024 1180.707,1014.82 1182.685,1006.256 1184.99,999.806 
		1189.934,992.745 1195.5,987.145 1203.113,982 1209.041,978.578 1218,977.26 1227.49,975.613 1239,978 1247.261,982 
		1255.168,985.497 1260.769,990.769 1268.347,999.806 1274.607,1011.525 1277.572,1024 	"/>
	<polygon fill="#00FF00" stroke="#800080" points="1279,268 1269,270 1260,267 1252,263 1246,257 1240,251 1236,243 1231,236 
		1226,229 1220,223 1215,216 1210,209 1205,202 1200,195 1197,186 1197,176 1200,167 1204,159 1210,153 1216,146 1222,140 1230,136 
		1239,134 1247,129 1256,126 1267,125 1277,127 	"/>
	<polygon fill="#00FF00" stroke="#800080" points="155,0 161,6 166,13 171,20 175,28 179,36 183,44 187,52 188.65,60.396 
		188.397,69.754 186.373,79.365 183.591,87.206 179.544,94.794 176.004,100.358 169.427,104.656 165.634,110.222 158.552,115.786 
		147.677,114.521 136.925,107.994 128.201,100.611 119.855,94.541 112.267,89.356 107.209,82.4 99.115,75.572 92.539,67.731 
		86.722,61.155 82.676,54.073 78.123,42.692 73.823,31.816 71.8,25.24 75.341,17.147 80.399,8.042 86.975,0 	"/>
	<polygon fill="#00FF00" stroke="#800080" points="114.797,149.425 110,149 100,147 91,144 83,140 76,135 70,129 64,123 
		59.66,115.786 54.601,109.463 49.543,102.381 44.738,95.805 40.691,87.965 39.679,76.583 39.679,65.202 40.185,55.338 
		41.448,48.509 44.485,43.198 48.025,39.909 53.59,36.622 60.672,34.851 67.753,33.334 74.076,34.345 76.352,40.668 79.92,47.183 
		82.676,54.073 86.722,61.155 96.597,72.568 107.209,82.4 122.384,97.828 128.454,102.381 133.766,106.681 136.925,107.994 
		144.416,112.542 147.677,114.521 151.723,115.786 155.264,118.568 155.517,124.638 153.999,131.467 150.711,136.273 
		147.424,138.549 144.388,141.078 136.801,144.365 127.696,147.906 120.614,149.172 	"/>
	<polygon fill="#00FF00" stroke="#800080" points="763,280 762,269 760,259 755,252 748.088,247.043 741,242 732,239 723,236 
		713.512,234.749 703,234.749 693.918,237.054 684,239 676,244 668,248 662,254 656,260 653,269 652,279 652,290 657,297 663,303 
		670.099,305.439 676.244,310.818 675.478,320.037 670.865,326.185 665.105,335.022 665.105,343.858 668.562,349.237 
		672.787,354.998 679.701,358.842 687.772,362.683 695.453,364.989 703,366.525 709.865,366.429 713.897,364.22 720.812,359.993 
		725.035,353.463 726.573,346 727.727,336.558 728.879,328.106 733.873,322.344 743.094,321.574 748.858,319.27 755,316 760,309 
		763,300 764,291 	"/>
	<polygon fill="#00FF00" stroke="#800080" points="1078,108 1068,106 1059,103 1051,99 1046,92 1041,85 1038,76 1036,66 1035,55 
		1037,47 1039,37 1043,28 1048,22 1053,15 1060,9 1069,6 1078,3 1086,5 1095,8 1102,13 1107,20 1111,28 1111,40 1112,51 1112,63 
		1110,73 1108,83 1104,91 1100,98 1093,104 1084,106 	"/>
	<polygon fill="#00FF00" stroke="#800080" points="1130,108 1123,108 1113,106 1107,101.5 1105,92 1107,82 1109,72 1110,61 1110,49 
		1110,37 1109,26 1105,18 1104,10 1110,4 1119.5,0 1130.5,0 1144,0 1157.5,0 1170.5,0 1180,2 1188,6 1192,10.5 1197,19 1197,30 
		1197,39 1193.5,48.5 1188.5,55.5 1184.5,66 1185,75 1182,83 1175,88 1168,94 1162,99 1154,103 1145,106 1136,109 	"/>
</g>
</svg>
