<?xml version="1.0" encoding="utf-8"?>
<!-- Generator: Adobe Illustrator 16.0.5, SVG Export Plug-In . SVG Version: 6.00 Build 0)  -->
<!DOCTYPE svg PUBLIC "-//W3C//DTD SVG 1.1//EN" "http://www.w3.org/Graphics/SVG/1.1/DTD/svg11.dtd">
<svg version="1.1" id="Layer_1" xmlns="http://www.w3.org/2000/svg" xmlns:xlink="http://www.w3.org/1999/xlink" x="0px" y="0px"
	 width="1280px" height="1024px" viewBox="0 0 1280 1024" enable-background="new 0 0 1280 1024" xml:space="preserve">
<g id="Raw_image">
	
		<image overflow="visible" enable-background="new    " width="1280" height="1024" xlink:href="normal_9.jpg"  transform="matrix(1 0 0 1 -0.6667 -0.0017)">
	</image>
</g>
<g id="Not_annotated">
</g>
<g id="Clumps" display="none" opacity="0.5">
	<polygon display="inline" fill="#FF0000" stroke="#800080" points="530,796 518,796 507,795 498,792 489,789 481,785 472,782 
		463,779 455,775 448,770 441,765 435,759 428,754 423,747 418,740 414,732 412,722 413,711 416,701 420,693 425,686 433,682 
		442,679 449,675 457,671 467,668 475,665 484,662 494,660 491,655 482,652 476,646 468,642 460,638 455,631 450,624 445,617 
		440,610 437,601 434,592 428,587 420,591 410,593 400,594 390,596 380,594 372,590 365,585 361,577 357,569 351,563 347,555 
		343,547 341,537 341,525 343,515 342,504 335,510 330,516 324,522 319,529 314,536 309,544 304,550 298,556 291,561 282,565 
		273,568 264,570 253,571 243,569 235,565 226,562 216,560 208,556 203,549 198,542 194,534 193,523 194,514 193,503 194,494 
		196,484 197,472 201,465 207,458 210,450 214,442 218,434 223,427 226,418 231,410 237,404 244,399 249,393 254,386 260,380 
		265,373 270,365 276,359 283,355 294,353 304,355 313,358 322,361 330,365 338,369 346,373 354,377 361,382 368,387 371,396 
		374,405 377,414 385,410 391,404 397,398 404,393 411,389 421,386 432,387 441,384 452,385 461,388 469,392 478,395 484,401 
		489,408 497,412 507,414 514,419 520,425 524,433 527,442 531,450 535,458 534,469 538,477 547,474 553,469 564,467 573,464 
		583,466 590,471 595,478 601,484 609,488 614,495 620,501 623,510 627,518 631,526 632,537 635,544 644,542 655,542 665,544 
		675,544 684,547 693,550 701,554 709,558 716,563 722,569 730,573 736,579 740,587 745,594 750,601 751,612 756,617 758,627 
		759,637 757,648 758,657 760,667 761,678 760,689 757,697 754,706 750,715 747,724 744,732 739,739 732,745 725,749 718,754 
		709,757 700,760 690,762 680,762 669,763 660,760 649,761 639,759 633,753 625,749 618,744 613,737 604,735 602,743 601,754 
		598,763 594,771 589,778 583,783 576,788 567,791 557,793 546,794 535,795 	"/>
	<polygon display="inline" fill="#FF0000" stroke="#800080" points="874,0 881,5 889,9 894,16 903,17 906,26 910,34 916,40 919,49 
		921,57 926,64 928,74 923,81 918,87 922,94 930,98 934,106 936,116 936,125 931,133 923,137 922,146 929,148 937,151 937,163 
		937,174 932,181 928,190 926,199 922,207 916,213 911,220 904,226 897,230 889,234 877,234 867,234 855,235 844,235 835,232 
		825,234 815,232 804,231 794,229 786,225 780,219 775,212 770,205 765,198 760,191 755,184 754,173 752,163 749,154 742,155 
		731,156 719,156 707,156 698,154 698,162 698,174 696,184 691,191 688,199 684,207 679,215 675,223 670,229 663,235 656,239 
		647,242 636,241 626,242 618,245 607,246 596,245 587,242 579,238 568,239 558,237 550,233 543,228 535,224 529,218 523,212 
		519,204 514,197 507,192 503,184 500,175 497,166 497,154 495,144 492,135 491,124 490,113 495,106 500,98 505,92 509,84 513,76 
		517,68 522,61 528,54 537,51 544,47 553,43 563,41 574,40 583,43 591,47 600,47 602,37 600,27 601,18 606,11 613,6 620,0 	"/>
	<polygon display="inline" fill="#FF0000" stroke="#800080" points="942,1023 942,1015 945,1006 947,996 949,986 952,977 957,969 
		961,962 966,955 972,949 978,942 984,936 989,929 996,924 1003,919 1009,914 1018,910 1026,906 1036,908 1046,910 1055,913 
		1063,917 1072,920 1081,923 1090,926 1098,930 1105,935 1112,940 1117,947 1122,954 1127,961 1130,970 1134,978 1139,985 1146,981 
		1151,974 1155,966 1160,959 1165,952 1167,942 1165,932 1161,924 1157,916 1155,906 1153,896 1153,884 1155,874 1158,865 1161,855 
		1164,847 1170,840 1176,834 1183,829 1191,825 1199,821 1210,820 1217,816 1224,810 1232,806 1241,803 1249,799 1259,797 1270,796 
			"/>
</g>
<g id="Single_nuclei" opacity="0.5">
	<polygon fill="#00FF00" stroke="#800080" points="562.275,1024 567.668,1016.742 572,1012 581,1008 589,1005 599,1002 608,999 
		619.021,999.391 628.635,1002.204 636.608,1004.551 645.988,1004.08 654.759,1001.696 665.448,1003.143 678,1007 686,1011 
		695.698,1017.681 701.795,1024 	"/>
	<polygon fill="#00FF00" stroke="#800080" points="0,828 8,830 15,835 22,840 28,846 32,854 34.688,862.517 36,872 36.758,880.312 
		37.121,890.219 36,900 34,910 29.448,919.414 23.271,927.464 22.253,938.169 18.966,947.918 13.571,957.385 8,967.166 0,972.666 	
		"/>
	<polygon fill="#00FF00" stroke="#800080" points="164.514,0 162.696,6.588 158.893,13.036 155.752,18.491 150,25 143,30 134,34 
		126,37 118,41 108,43 97,44 86,44 76.72,43.128 68,41 60,37 54,31 48,25 43.156,18.327 39.353,9.564 37.535,0 	"/>
	<polygon fill="#00FF00" stroke="#800080" points="0,126 5,120 13,115 21,112 29,107 35,102 43,97 50,92 58,88 69,87 80,86 90,86 
		98,83 105,77 111,72 118,66 123,59 131,57 140,60 147,65 156,68 164,72 169,79 174,86 180,92 185,99 190,106 193,115 197,123 
		196,133 193,143 194,154 194,165 191,175 189,185 187,195 183,203 180,211 177,221 172,228 166,234 161,240 153,244 145,248 
		136,251 129,257 122,261 113,265 104,267 93,268 83,270 72,269 62,267 50,267 40,269 30,271 20,269 11,266 4,261 0,253 	"/>
	<polygon fill="#00FF00" stroke="#800080" points="0,350 10,348 21,347 32,346 42,348 53,349 64,350 74,352 84,354 94,356 102,360 
		111,363 120,366 128,370 134.937,375.194 141,381 145,389 148,398 150,408 151,419 154,428 154,440 151,449 148,457 
		142.766,464.673 136.335,469.704 128.226,472.502 118.719,476.695 110.051,481.448 101.662,486.201 96.629,491.515 92.155,499.904 
		86.563,506.615 80.132,509.41 71.743,509.97 60,511 48,511 38,509 22.25,505.776 11.066,501.86 0,501.76 	"/>
	<polygon fill="#00FF00" stroke="#800080" points="0,545 8,541 15,536 25,534 36,535 45,538 55,540 63,544 71,548 78,553 86,557 
		93,562 100,567 107,572 113,578 119,584 124,591 127,600 129,610 129,622 129,634 130,645 129,656 127,666 124,675 120,683 
		115,690 107,693 98,696 88,698 76,699 67,701 56,702 45,703 34,704 22,704 11,705 0,700.955 	"/>
	<polygon fill="#00FF00" stroke="#800080" points="211,884 199,884 187,884 178,881 169,878 160,875 153,870 146,865 139,860 
		133,854 128,847 124,839 121,830 118,821 116,811 115,800 111,792 111,780 113,769 116,761 121,754 128,748 135,743 141,738 
		147,732 154,727 162,723 171,720 181,717 190,714 202,714 212,712 223,711 235,711 245,713 253,717 262,720 270,724 275,731 
		282,736 286,744 292,750 296,758 300,766 303,775 304,786 303,797 301,807 298,816 294,824 289,831 284,837 277,843 273,850 
		267,857 262,863 255,868 248,873 239,876 231,880 221,882 	"/>
	<polygon fill="#00FF00" stroke="#800080" points="414,0 418,8 423,15 429,21 434,28 440,34 446,40 451,47 454,56 457,65 460,74 
		463,83 462,93 459,103 460,114 458,123 453,131 448,137 442,143 436,149 428,154 423,160 417,167 411,173 404,178 399,185 393,190 
		385,194 377,198 367,201 357,200 345,200 335,198 323,198 312,197 302,195 295,190 290,183 286,175 280,169 271,170 263,166 
		257,160 251,154 246,147 245,136 242,127 239,118 235,110 232,101 230,91 229,80 226,71 225,61 227,52 230,43 234,35 237,26 
		240,16 244,8 250,3 260,0 	"/>
	<polygon fill="#00FF00" stroke="#800080" points="349.365,1024 342,1017 336,1011 332,1003 327,996 324,987 321,978 321,966 
		320,955 316,947 312,939 309,930 307,920 305,910 303,900 301,890 301,878 303,868 306,858 308,849 311,840 316,832 320,825 
		325,818 332,812 339,807 346,803 355,799 365,797 375,795 387,795 398,796 408,798 417,801 425,805 433,809 440,814 447,819 
		455,823 462,828 468,834 473,841 476,850 479,859 483,867 486,876 490,884 491,895 494,904 495,915 496,926 497,936 497,947 
		496,958 495,968 492,978 489,987 484,994 479,1000 473,1006 467,1013 461,1018 452.496,1024 	"/>
	<polygon fill="#00FF00" stroke="#800080" points="763,1008 751,1008 741,1006 731,1004 723,1001 714,999 706,996 697.34,995.869 
		688.195,994.931 678,993 668,991 659,988 650.677,984.614 643.875,981.096 635,976 629,970 623,964 616,959 609,954 603,948 
		598,941 594,933 590,925 587,916 586,905 589,896 592,887 591,876 593,866 596,857 600,849 605,842 611,835 616,829 623,823 
		630,818 638,814 648,812 657,810 666,806 674,803 682.101,799.134 693,797 704,796 715,795 726,796 736,797 747,797 
		757.606,799.134 767,801 778.006,803.589 786,806 794,810 800.752,814.844 807,821 814,826 820,832 827,837 832.877,842.746 
		839,849 843.898,855.644 849,863 852,872 854,882 857,891 858,902 858,913 856,924 853.512,934.903 852,944 849,952 845,960 
		840,968 835,974 828,979 821,985 815,991 809,996 801,1000 792,1003 782,1005 772,1007 	"/>
	<polygon fill="#00FF00" stroke="#800080" points="795,517 784,516 776,512 772,504 767,497 761,491 754,486 749,479 744,472 
		739,465 736,456 736,444 738,434 739,423 736,414 737,403 738,392 739,381 742,372 745,362 750,356 755,349 761,342 767,336 
		774,331 781,326 787,320 795,316 805,314 813,310 823,310 830,306 839,302 849,301 860,299 870,297 881,296 891,298 901,298 
		908,301 914,307 921,312 931,312 940,315 948,317 954,323 962,327 971,330 978,335 984,341 991,346 998,351 1003,358 1007,366 
		1011,374 1011,384 1011,393 1009,404 1010,413 1014,421 1014,431 1011,440 1007,447 1001,453 995,459 987,463 979,468 971,471 
		962,475 956,480 948,485 939,487 929,487 920,490 912,494 904,499 898,505 890,508 881,509 870,508 862,504 851,503 841,505 
		831,507 821,509 812,512 803,515 	"/>
	<polygon fill="#00FF00" stroke="#800080" points="386.683,594.338 380,593 372,589 366,583 361,576 357,568 351,562 347,554 
		344,545 342,535 343,524 344,513 346,503 348.954,495.427 353.5,488.5 358.459,478.743 363.309,469.045 366.024,460 
		369.322,449.451 373.007,438.591 376.305,428.31 379.406,419.969 382.318,414.732 386,411 392,405 398,399 405,394 413,389 
		423,387 433.912,387 443.031,387.187 453.115,388.351 462.234,391.067 470,394 478.528,398.05 485,403 490,410 499,413 508,416 
		515,421 520,428 523,437 527,445 531,453 534,462 532.073,473.393 530.688,481.312 526.161,488.099 521.638,494.322 
		515.416,499.411 508.909,506.483 504.12,512 497.031,517 488.946,525.129 483,530 477,536 471,542 465.987,548.242 460,556 
		455,563 449,569 443,575 437.195,580.864 430,585 422,589 412,591 402,593 393.5,594.338 	"/>
	<polygon fill="#00FF00" stroke="#800080" points="482.242,652.459 479.485,648 472.781,642.996 463.717,639.646 458,634 451,629 
		446,622 441,615 436,608 433,601 435,591 439,582 444,576 450,569 455,563 461,556 466,550 472,543 477,537 483.031,531.635 
		489.679,526.28 496.184,519.775 501.275,515.532 507.78,510.158 515.5,502 521.921,496.584 528.5,487.5 534,480 540.5,473.5 
		547.5,469 557,467.5 564.5,468 570.849,467.736 576.786,468.302 583.573,469.998 590.646,473.11 597.714,477.09 603.066,481.966 
		608.978,487.484 613.315,492.805 618.832,498.916 624.352,506.602 627.506,514.486 629.916,521.827 630.654,529.202 631.146,537 
		629.916,543.461 628.442,550.836 625,557.472 620.408,564.156 616,572 611.147,579.136 607,587 603,596 599,603 594,611 590,618 
		585,626 578.428,631.761 570.74,634.719 564.631,635.903 559.507,637.282 553.988,638.268 549.652,639.647 544.328,640.83 
		538.614,642.406 532.073,643.392 526,643.984 521.467,644.772 514.369,646.151 509.731,649.348 500.439,653.342 493.479,654.823 
		486.974,653.84 	"/>
	<polygon fill="#00FF00" stroke="#800080" points="680,760 669,759 659.27,758.605 648.594,760 640,756.261 631.145,750.794 
		622.291,747.147 614.481,742.72 605.106,736.732 600.94,729.963 598.926,718.883 597.94,709.815 596.364,701.341 593.802,691.485 
		590.845,683.6 588.927,673.905 587.1,661.328 586,650 585.72,641.617 586.509,635.902 588.48,626.637 593.406,617.571 
		597.152,609.885 602.077,601.802 605.42,595.178 610.42,588.178 614,579 618,572 623,564 627,557 632.709,550.539 640,545.852 
		647.813,543.25 658.489,543.769 669.426,544.553 679.061,546.113 687.394,549.24 694.684,552.102 702.237,556.529 710.049,561.161 
		717.6,564.862 724.369,569.552 729.838,574.76 736,580.486 740.516,586.216 744.159,592.207 748.588,598.195 750.932,605.226 
		753.533,612.258 755.879,621.37 758.742,632.828 760.045,642.466 761.867,654.823 762.908,663.299 763.17,673.715 763.43,685.171 
		761.608,695.324 760,703 756,711 752,719 749,727 744.422,734.128 737.91,741.157 732,746 724,750 716,754 708,758 698.071,760 
		691.037,760 	"/>
	<polygon fill="#00FF00" stroke="#800080" points="532.073,793.976 522.649,793.976 512.597,792.795 503.89,792.007 
		493.871,789.443 485.002,785.895 475.543,783.334 465.27,778.656 457.198,775.011 450.166,770.586 443.916,766.678 435.926,760 
		428.828,752.587 423.704,745.885 419.173,737.803 414.442,730.51 412.274,719.672 412.274,711.195 414.048,701.342 416.61,695.032 
		421.341,689.514 426.66,684.192 433,679.658 440.065,675.323 447.554,671.184 455.24,667.046 463.125,665.073 472.389,664.483 
		481.259,664.284 489.734,663.694 497,660.146 500.771,656.992 503.728,654.823 508.261,652.853 512.597,653.642 518.661,653.209 
		521.467,650.489 524.817,647.336 529.35,645.168 536.248,644.379 542.359,642.802 548.469,642.012 554.382,639.844 
		560.295,640.043 565.615,640.436 570.347,641.816 575.075,645.168 579.412,649.305 582.173,653.641 585.721,664.089 
		588.086,676.899 590.449,686.95 593.013,693.455 595.181,703.113 596.953,713.166 598.428,723.228 599.479,733.084 599.78,741.412 
		599.518,749.826 597.941,757.119 595.045,764.717 590.254,771.902 584.341,778.405 577.836,783.925 568.375,787.67 
		558.521,790.231 549.453,791.611 539.403,792.795 	"/>
	<polygon fill="#00FF00" stroke="#800080" points="613,245 601,245 592,242 583,239 573,237 563,237 555,233 547,229 539,225 
		532,220 526,214 522,206 517,199 511,193 505,187 503,177 499,169 498,158 497,147 494,138 492,128 491,117 495,108 500,101 
		505,94 510,87 513,79 517,71 522,64 528.75,57.75 536,53 543,49 552,45 561,43 572,41 581,44 589,48 595.65,51.5 603,58 609,64 
		614,71 620,77 626,83 631,90 635.5,97 643,105.25 645.75,108.5 653,117 660.25,122.5 666.375,126.375 672,133 679,138 685,144 
		690,151 695,158 697,168 696,179 692,187 688,195 684,203 680,211 676,218 671,226 665,231 658,237 650,240 640,240 629,239 
		621,243 	"/>
	<polygon fill="#00FF00" stroke="#800080" points="750.313,0 755.769,11.712 758.578,23.947 761.721,34.528 762.052,44.118 
		762.547,53.542 762.547,62.167 762.5,74.833 762.547,84.833 762.547,95.904 761.785,105.018 761.338,114.281 759.696,124.889 
		756.166,134.167 750.832,143 742.5,152.167 732.832,155 723,155 711.5,153 702.5,150.25 697,147.75 689.75,143 681,139 674,134 
		668,128 662,122 655,117 649,111 644,104 638,98 633,91 627,85 621,79 616,72 610,66 605,59 602,52.5 599.028,45.937 
		596.383,38.662 595.65,33.046 596.5,26.75 598.697,21.797 602,16 606.75,10.25 612.255,4.437 618.041,0 	"/>
	<polygon fill="#00FF00" stroke="#800080" points="867,234 855,234 843,234 832,233 822,231 812,229 802,227 792,225 
		783.056,222.297 775.922,216.748 770,211 765.616,204.86 759.871,196.537 757,188 755,178 754.125,168.598 753.5,158.5 
		754.765,149.094 756.558,139.98 759.696,130.119 762.547,118.315 764.625,104.719 765.523,92.019 766.27,81.112 766.569,68.711 
		767.017,59.148 768.81,50.333 770.004,43.011 773.89,31.507 777.476,24.335 781.957,17.163 788.084,8.497 795.256,0 887.5,0 895,7 
		900,14 906,20 911,27 915,35 920,42 924,50 928,58 933,65 937,73 940,82 941,93 941,105 941,117 942,128 942,140 942.168,150.765 
		941.377,162.258 940,172 937,180 933,189 928.894,196.736 925,204 918,210 912,215 905,221 899,226 890.45,230.817 882,233 
		873.61,234 	"/>
	<polygon fill="#00FF00" stroke="#800080" points="219.573,428.5 214.71,434.793 210.134,443.371 204.698,451.095 200.981,458.244 
		197.835,464.823 195.833,473.976 194.116,482.557 194.116,491.709 192.401,500.005 192.401,509.728 190.971,520.597 
		190.971,529.465 194.403,537 198.979,546.34 203.842,554 211.278,558.925 217.856,562.355 226.723,562.355 233.301,559.494 
		241.882,562.355 248.174,566.645 256.755,569.219 266.765,569.219 276.776,567.789 285.07,565.217 293.365,560.353 299.085,554 
		305.75,549.25 312.24,541.762 315.96,535.757 320.25,529.25 324.824,524.029 329.75,518.25 334.265,512 339.412,504.295 
		345.42,497.144 350.568,490 354.858,483.7 357.432,477.98 360.577,471.974 363.439,463.679 365.155,457.101 368.587,447.948 
		371.16,441.656 372.591,434.22 375.449,427.07 377.168,419.918 377.168,413.341 377.168,404.188 374.88,397.323 369.731,391.318 
		365.441,386.168 360.293,381.307 355.43,376.445 349.273,372.112 340.557,368.436 333.5,365.75 326.25,363 318,359.75 
		310.812,358.139 303.948,356.424 295.653,354.421 289.361,354.421 282,355.5 275.06,359.856 269.667,365.5 265.5,372.5 
		261.667,378 257.167,383.832 250,390.666 245,396.832 239.5,402 233.667,408.332 229.011,414.485 225.007,421.063 	"/>
	<polygon fill="#00FF00" stroke="#800080" points="941.5,1024 943.817,1011.5 948.771,1005.423 948.771,995.965 951.5,982.497 
		957.834,971.164 962.732,961.735 970.838,951.378 979.396,942.369 986.152,935.614 992.906,927.959 1001.912,921.201 
		1009.571,915.347 1020.379,911.744 1031.188,909.044 1044.248,911.296 1054.156,917.149 1063.162,921.201 1072.621,923.453 
		1084.781,925.705 1094.691,928.407 1102.797,934.263 1110.002,939.219 1114.957,946.875 1120.362,953.63 1123.514,964.438 
		1126.215,972.094 1129.366,978.849 1132.972,987.857 1135.224,999 1137.475,1008 1137.475,1014.88 1139.277,1024 	"/>
	<polygon fill="#00FF00" stroke="#800080" points="1279.332,801.404 1269.884,798.253 1260.875,798.253 1251.418,799.827 
		1243.312,804.106 1236.557,808.159 1226.198,810.411 1218.99,815.816 1214.489,821.672 1207.281,821.672 1197.823,821.672 
		1188.365,826.176 1177.558,831.13 1170.803,837.885 1164.047,845.99 1159.991,856.801 1159.991,865.356 1155.941,872.562 
		1153.239,882.02 1153.239,892.38 1154.834,904.164 1157.74,914.447 1162.696,924.355 1168.221,934.008 1172.82,942.691 
		1175.828,948.274 1180.586,953.346 1187.504,954.98 1196.114,955.524 1205.604,956.173 1214.231,957.467 1225.447,957.897 
		1232.994,958.545 1242.81,957.467 1252.192,958.006 1260.172,959.3 1268.584,959.3 1274.193,959.3 1279.332,959.3 	"/>
	<polygon fill="#00FF00" stroke="#800080" points="0,975.489 6.424,977.439 12.273,981.988 16.167,988.832 18.561,996.286 
		20.072,1004.086 20.072,1010.26 18.561,1015.783 14.873,1019.683 11.948,1022.608 10.036,1024 0,1024 	"/>
	<polygon fill="#00FF00" stroke="#800080" points="1140.666,1024.000 1138.562,1010.003 1139.277,1005.871 1140.964,997.314 1145.134,990.558 1150.003,985.833 1152.790,980.197 1155.941,972.093 1160.895,966.520 1166.000,960.000 1174.500,957.000 1184.250,956.170 1192.444,956.170 1201.425,956.778 1210.346,957.785 1221.242,958.579 1231.160,959.297 1241.057,958.579 1250.515,959.029 1259.973,960.383 1266.729,960.383 1271.683,960.383 1279.329,960.383 1279.329,1024.000 1140.666,1024.000"/>
</g>
</svg>
