<?xml version="1.0" encoding="utf-8"?>
<!-- Generator: Adobe Illustrator 16.0.5, SVG Export Plug-In . SVG Version: 6.00 Build 0)  -->
<!DOCTYPE svg PUBLIC "-//W3C//DTD SVG 1.1//EN" "http://www.w3.org/Graphics/SVG/1.1/DTD/svg11.dtd">
<svg version="1.1" id="Layer_1" xmlns="http://www.w3.org/2000/svg" xmlns:xlink="http://www.w3.org/1999/xlink" x="0px" y="0px"
	 width="1280px" height="1024px" viewBox="0 0 1280 1024" enable-background="new 0 0 1280 1024" xml:space="preserve">
<g id="Raw_image">
	
		<image overflow="visible" enable-background="new    " width="1280" height="1024" xlink:href="normal_3.jpg"  transform="matrix(1 0 0 1 2.441406e-004 -0.0017)">
	</image>
</g>
<g id="Not_annotated">
</g>
<g id="Clumps" display="none" opacity="0.5">
	<polygon display="inline" fill="#FF0000" stroke="#800080" points="0,326 7,329 13,335 18,329 20,319 19,308 15,300 19,291 26,287 
		34,283 41,277 51,275 61,274 72,272 83,273 92,276 99,281 108,284 117,287 128,288 136,292 144,296 151,301 157,307 162,314 
		170,318 178,322 185,327 190,334 192,344 191,354 186,361 181,369 183,379 183,391 181,401 173,404 164,407 152,407 143,410 
		132,411 121,410 112,407 102,405 95,400 87,396 79,392 71,388 64,383 57,378 51,372 44,367 37,362 29,360 26,370 24,380 22,390 
		19,399 17,408 13,417 8,424 0,425 	"/>
	<polygon display="inline" fill="#FF0000" stroke="#800080" points="0,607 4,613 7,622 13,628 24,629 33,626 42,623 53,624 64,625 
		74,627 83,630 90,635 97,640 104,645 112,649 117,656 124,661 130,667 135,674 140,681 145,688 150,695 152,705 153,716 156,725 
		159,734 163,742 168,749 171,758 174,767 176,777 176,789 176,801 174,811 170,819 166,826 161,834 158,841 168,843 174,838 
		182,834 192,831 201,828 211,826 222,827 233,828 243,826 251,830 260,833 267,838 273,844 278,851 283,858 289,864 295,870 
		297,880 298,891 299,902 297,912 297,924 298,935 295,943 289,949 280,952 271,956 265,961 257,966 250,971 243,975 234,979 
		226,982 215,983 204,982 194,984 184,986 173,987 162,986 151,985 140,984 130,982 121,979 114,974 108,968 102,962 98,954 92,948 
		86,942 81,935 78,926 76,916 75,905 67,903 56,904 46,904 35,905 28,910 20,914 10,916 0,916 	"/>
	<polygon display="inline" fill="#FF0000" stroke="#800080" points="232,774 220,774 211,771 203,767 197,761 191,755 186,748 
		183,739 179,731 175,723 172,714 169,705 170,694 170,682 171,671 172,660 175,650 177,641 179,630 180,620 182,610 185,601 
		190,593 190,586 184,592 177,597 170,602 164,609 158,615 150,619 139,619 128,618 119,615 112,610 105,605 97,601 92,594 86,588 
		81,581 79,571 77,561 77,549 74,540 70,532 72,521 73,511 72,500 76,491 80,484 85,476 91,470 98,465 104,459 107,450 111,442 
		117,436 125,432 134,433 142,437 150,434 159,430 167,426 178,425 189,426 195,432 200,439 204,447 211,452 216,459 219,468 
		222,477 224,487 222,497 221,508 219,518 217,528 215,537 212,546 208,554 210,561 217,557 226,553 235,552 242,557 252,557 
		259,562 265,568 271,574 276,581 281,588 286,595 290,603 295,610 298,619 298,629 293,636 295,646 296,657 295,668 291,676 
		286,682 278,686 274,695 273,706 270,714 266,722 262,731 261,742 261,752 257,760 251,765 243,769 235,773 	"/>
	<polygon display="inline" fill="#FF0000" stroke="#800080" points="759,0 761,10 760,20 756,29 751,36 746,43 740,48 733,54 
		727,59 719,64 726,67 736,69 748,69 757,72 764,77 770,83 774,91 776,101 780,109 784,117 787,126 791,134 794,143 797,152 
		800,161 804,169 807,178 808,189 808,201 810,211 812,221 814,231 815,242 812,250 807,257 801,263 797,270 808,269 820,269 
		830,269 839,272 848,275 856,279 863,284 871,288 877,294 882,301 884,311 881,320 881,330 884,339 887,348 894,353 897,362 
		900,371 901,382 900,393 899,404 896,413 892,421 890,431 886,439 882,446 875,451 867,455 858,459 849,461 838,462 827,464 
		816,464 806,462 796,460 788,456 780,452 773,447 765,443 758,438 752,432 746,426 741,419 736,412 730,406 724,400 720,392 
		718,382 717,371 714,362 712,352 710,342 709,331 712,321 715,313 721,306 726,300 732,293 737,287 736,280 727,277 719,273 
		710,270 705,278 704,289 701,298 697,305 692,313 686,318 676,318 667,321 658,325 650,328 641,331 630,330 626,333 634,337 
		641,342 647,348 653,354 659,360 663,368 668,375 673,382 677,390 680,399 683,408 685,418 686,428 684,439 686,449 688,459 
		689,470 691,480 692,491 689,500 686,509 683,518 679,526 675,534 670,541 665,548 658,553 650,557 653,562 660,567 668,571 
		674,577 679,584 684,591 688,599 689,610 691,620 693,630 693,642 693,654 690,663 687,671 683,680 679,688 675,696 670,702 
		662,707 655,712 649,717 641,721 632,724 621,725 610,726 600,728 589,730 579,731 568,730 558,728 549,725 541,721 532,718 
		525,713 519,707 514,700 509,693 504,686 499,679 496,670 493,661 492,650 494,640 498,631 502,623 506,616 510,607 514,599 
		518,591 523,584 529,578 535,573 542,567 548,562 555,556 563,552 571,548 580,546 577,539 570,534 564,528 557,523 551,517 
		546,510 541,503 537,495 533,487 530,478 528,468 525,459 522,450 521,439 520,428 521,417 524,408 525,399 519,403 513,410 
		507,416 500,421 492,425 484,428 475,431 466,435 472,441 479,446 486,451 492,457 497,464 500,473 502,483 505,492 503,502 
		503,514 501,524 497,532 491,538 486,544 480,550 473,555 465,559 457,563 447,565 438,568 430,573 435,580 441,586 446,593 
		450,601 451,612 454,621 458,629 461,638 464,647 467,656 471,664 474,673 474,685 474,695 469,702 463,708 457,714 450,719 
		444,724 437,730 430,734 420,736 410,738 399,737 389,735 380,732 373,727 368,720 362,714 358,706 353,699 346,694 341,687 
		337,679 333,671 330,662 327,653 324,644 323,633 325,622 328,614 334,608 341,602 347,597 352,590 358,583 358,576 349,573 
		341,569 334,564 327,559 320,554 314,548 314,536 312,526 312,515 313,505 315,495 320,488 325,481 327,473 317,474 308,476 
		296,476 285,475 277,471 269,467 260,464 253,459 246,454 240,448 234,442 230,434 226,426 221,419 220,408 220,398 221,387 
		220,377 222,368 220,358 220,346 221,335 224,326 227,317 231,308 235,301 239,292 243,285 249,278 253,271 259,265 266,260 
		277,258 286,255 294,251 301,246 311,244 320,247 329,250 337,254 344,259 344,250 342,240 336,234 331,227 328,218 329,207 
		332,198 337,191 342,184 348,177 356,174 363,169 368,161 374,156 384,153 394,151 404,151 413,154 419,160 422,169 430,173 
		437,178 443,184 446,193 448,203 451,212 454,221 451,230 449,240 446,249 442,256 435,262 427,266 420,270 411,273 403,278 
		395,282 386,284 375,285 365,283 357,282 361,290 365,298 368,307 371,316 372,327 373,338 374,349 375,360 377,370 379,380 
		381,390 381,400 378,409 376,418 371,426 366,433 361,440 357,447 363,449 373,446 382,444 391,441 401,438 411,436 422,435 
		432,433 442,432 435,427 427,423 419,419 412,414 406,408 401,401 395,395 390,388 387,379 384,370 381,361 379,351 379,339 
		382,329 387,322 393,316 400,311 408,307 415,302 423,299 429,293 436,287 443,283 450,277 457,273 465,269 472,264 480,260 
		489,257 498,254 507,250 517,248 524,253 529,260 534,267 540,273 544,281 549,288 553,296 555,306 558,315 558,327 555,336 
		553,346 557,349 564,343 572,339 579,334 586,330 596,327 607,328 608,324 600,320 593,315 588,308 582,302 576,296 572,288 
		567,281 563,273 557,267 553,259 549,251 547,241 545,231 545,219 548,209 551,200 554,192 559,184 564,178 569,171 573,163 
		578,156 584,150 590,144 596,138 605,134 616,133 626,133 633,138 639,144 648,147 654,153 659,160 660,154 659,143 658,132 
		660,122 663,112 666,104 671,96 675,89 681,82 688,77 689,71 678,70 668,68 657,67 647,69 637,67 626,66 615,65 607,61 601,55 
		596,48 589,43 583,37 577,31 571,25 565,19 560,12 556,4 	"/>
</g>
<g id="Single_nuclei" opacity="0.5">
	<polygon fill="#00FF00" stroke="#800080" points="0,5 7.057,8.097 13,14 18,21 23,28 27,36 32,43 37,50 40,59 42,69 43,80 41,89 
		37,97 32,105 23.809,112.75 15.55,117.281 7.076,120.427 0,123 	"/>
	<polygon fill="#00FF00" stroke="#800080" points="0,449 9,450 20,451 30,453 38,457 42,465 47,472 52,479 56,487 56,499 53,508 
		49,516 46,524 41,531 34,537 27,541 20.053,546.246 8.902,552.854 0,556.571 	"/>
	<polygon fill="#00FF00" stroke="#800080" points="69,249 58,248 50,244 42,240 34,236 28,230 21,225 15,219 10,212 7,203 5,193 
		8,183 10,174 14,166 21,161 27,155 35,150 43,146 48,140 50,130 53,121 58,113 63,107 69,100 75,95 83,90 88,83 98,81 108,79 
		117,82 126,85 132,91 139,96 147,100 153,106 157,114 157,126 153,133 152,143 150,153 146,161 143,169 138,176 132,182 126,189 
		124,199 122,209 119,218 115,225 108,231 101,235 93,240 87,245 77,247 	"/>
	<polygon fill="#00FF00" stroke="#800080" points="250.868,0 247.103,9.072 242.919,17.857 240,26.643 236,35 231,42 227,50 224,59 
		219,65 210,69 201,71 193,75 184,79 173,79 162,80 151,81 143,77 135,73 127,69 119,65 111,61 105,55 100,48 94,42 90,34 88,24 
		86,14 84.82,0 	"/>
	<polygon fill="#00FF00" stroke="#800080" points="206,300 195,299 185,297 176,294 167,291 159,287 152,282 147,275 143,267 
		141,257 139,247 138,236 137,225 136,214 136,202 140,194 145,187 149,179 153,170 157,163 161,154 168,150 176,146 186,143 
		196,141 206,141 213,146 220,151 227,156 233,162 238,169 243,176 245,186 243,196 243,208 243,220 241,230 237,238 236,249 
		236,261 237,272 234,281 228,287 222,292 214,297 	"/>
	<polygon fill="#00FF00" stroke="#800080" points="424,0 423,8 418,15 413,22 408,29 404,37 400,46 397,55 395,64 391,72 386,80 
		383,88 377,95 373,103 368,110 363,117 357,123 350,128 342,131 334,136 327,140 317,142 307,140 298,137 291,132 284,127 277,122 
		267,120 259,116 254,109 250,101 249,90 243,84 240,75 242,65 241,54 241,42 243,32 247,24 250.868,17.439 256.306,8.653 
		265.092,0 	"/>
	<polygon fill="#00FF00" stroke="#800080" points="582,1004 571,1003 563,999 555,995 545,993 537,989 527,987 516,988 506,988 
		496,991 488,994 478,992 468,994 457,993 446,992 437,989 430,984 422,980 417,973 414,964 412,954 412,944 415,935 420,927 
		425,921 429,912 432,903 435,895 439,887 443,879 448,872 455,866 461,860 467,855 473,848 477,841 482,833 487,826 492,820 
		498,814 505,808 512,804 519,798 526,793 534,789 544,787 555,786 566,785 577,784 588,785 598,785 607,788 614,793 621,798 
		627,804 634,809 642,813 650,817 658,821 663,828 670,833 675,840 678,849 680,859 682,869 682,879 681,889 677,898 676,909 
		674,919 671,928 670,939 669,950 664,957 656,961 651,967 644,972 635,976 628,980 621,986 614,990 603,992 596,996 589,1001 	"/>
	<polygon fill="#00FF00" stroke="#800080" points="498,0 508,2 517,5 526,8 537,9 545,13 552,18 558,24 563,31 569,37 575,43 
		580,50 583,59 585,69 587,79 589,89 586,98 584,108 581,116 578,126 576,136 574,146 570,154 566,161 561,169 556,176 549,181 
		543,186 535,190 526,193 515,194 504,193 494,191 486,187 478,183 471,178 465,172 459,166 453,160 446,155 441,148 437,140 
		434,131 431,122 429,112 423,106 419,98 417,88 417,76 418,65 420,55 422,45 425,36 431,29 437,23 443,17 450,13 458,9 466,4 
		476,2 	"/>
	<polygon fill="#00FF00" stroke="#800080" points="781,627 770,626 762,622 755,617 747,613 740,608 733,603 727,597 722,590 
		718,582 714,574 710,566 707,557 708,546 712,537 715,528 719,520 721,511 724,502 729,494 736,489 745,487 754,483 763,480 
		774,481 782,485 790,489 800,491 810,493 818,497 826,501 834,505 841,510 847,516 852,523 856,531 860,539 864,547 866,557 
		866,569 863,577 857,584 856,595 854,605 849,611 842,616 832,619 823,622 814,625 804,626 794,626 782,626 	"/>
	<polygon fill="#00FF00" stroke="#800080" points="902.879,1024 901,1014 899,1004 898,993 898,983 901.666,973.834 
		906.166,966.666 911.166,960.166 918,954 925.666,949.834 937,949 946,947 955,943 964,942 975,941 986,940 997,941 1007,943 
		1014,948 1021,953 1029,957 1036,962 1042,968 1048,974 1055,979 1061,985 1066.834,992.166 1071,999 1076,1006 1080,1014 
		1081,1024 	"/>
	<polygon fill="#00FF00" stroke="#800080" points="140.32,412.464 132.773,412.464 122,410 112,408 104.627,405.429 95,401 87,397 
		79,393 71,389 64,384 57,379 49.962,373.557 43.351,368.86 37,363 31,357 26.999,351.638 23.868,344.506 19.693,336.329 
		15.097,327.356 13,317 14,306 16.221,295.112 20.377,287.745 26,283 34,279 43,276 52,273 62,271 72,269 82.525,270.744 89,274 
		98,277 107,280 117,282 126.35,284.911 134,289 142,293 149,298 155.819,302.668 163,308 170,313 177,318 183,324 189,330 192,339 
		194,349 192,356 185,362 182,370 183,380 183,389 180,399 174,404 166,408 156,410 146,412 	"/>
	<polygon fill="#00FF00" stroke="#800080" points="179,986.546 173,986 162,985 150.044,985.102 141.677,984.265 133.309,983.428 
		122.014,980.081 114,973 108,967 103,960 97,954 92,947 86,941 80,935 74,929 71,920 71,908 73,900 81,896 87,890 94,884 100,878 
		106,873 114,868 121,863 128,859 136,854 143,850 151,845 158,841 166,836 176,834 186,832 195,830 205,827 215,825 227,825 
		238,826 247,829 254,834 262,838 270,842 276,848 282,854 287,861 293,867 297,875 300,884 300,894 298,904 297,915 299,925 
		300,936 296,942 290,948 284,953 275,956 266,959 258,964 252,969 245,974 238,979 225.766,982.174 214.889,982.174 
		206.522,984.265 196.481,986.546 188.115,986.546 	"/>
	<polygon fill="#00FF00" stroke="#800080" points="0,632 10,630 20,628 29,626 39,624 50,624 60,626 70,628 80,630 89,633 96,638 
		103,643 109,649 116,654 123,659 128,666 134,672 139,679 144,686 150,692 154,700 157,709 159,719 162,728 165,737 167,747 
		170,756 173,765 176,774 178,784 179,792 176,802 174,812 172,822 168,830 164,837 156,842 149,846 141,851 134,855 127,860 
		119,865 112,869 105,874 98,880 92,886 86,891 79,897 71,900 62,904 51,904 41.689,905.773 32.904,908.544 25.373,911.89 
		16.169,915.655 6.966,917.746 0,917.746 0,897 0,885 0,873 0,861 0,849 0,837 0,825 0,813 0,801 0,789 0,777 0,765 0,753 0,741 
		0,729 0,717 	"/>
	<polygon fill="#00FF00" stroke="#800080" points="149,618 137,618 127,616 118,613 111,608 104,603 96,599 91,592 86,585 82,577 
		79,568 78,557 75.914,547.107 72.891,538.228 71,528 72.891,519 72.891,507 75,495 79,488 84,481 89,474 96,468 102,463 106,455 
		110,446 115,440 122,434 132,434 140,438 149,436 157,431 165,428 176,426 187,427 194,432 198,440 203,447 209,453 214,460 
		218,468 221,477 222,488 222,498.748 220,510 219,518.961 217.022,530.106 214.378,539.362 211.544,547.485 207.388,555.228 
		203.611,563.161 200.21,570.906 195.299,579.406 190.198,586.396 183.965,593.952 176.22,598.864 169.609,604.344 164.886,609.442 
		158.652,614.354 	"/>
	<polygon fill="#00FF00" stroke="#800080" points="223,776 214,773 206,769 198.573,763.791 193.553,758.352 188.531,750.404 
		185.5,742.036 182,733 177,726 173,718 168,711 166,701 166,689 167,679 169,670 171,660 173,650 176,641 178,631 179,620.398 
		180.754,610.764 184.908,602.264 190,595 193.788,589.041 199.077,580.162 204.933,571.285 209.656,562.784 213.622,557.684 
		222,553.341 228.923,551.073 239.313,552.586 247.813,555.039 255,557 262,562 268,568 274,574 280,580 286,586 291,593 294,602 
		297,611 300,620 298,629 296,638 298,648 296,658 294,667 289,675 285,682 280,690 276,698 273,707 270,716 267,725 264,734 
		262,744 261,754 255,760 248,766 241,770 232,773 	"/>
	<polygon fill="#00FF00" stroke="#800080" points="406.5,738.25 398.5,738.25 388.5,735.75 380,731 374,725 368,719 362,713 
		358,705 354,697 347,692 341,686 337,678 334,669 331,660 328,651 325,642 324,631 326,621 331,613 336.25,605.75 342.25,600.5 
		348.75,594.5 352.752,588.412 360,583 368.75,578.75 379.5,574.5 390.75,572.5 405.25,572.5 417.25,574.5 430,577.75 437.75,581.5 
		444.25,589 450.25,598.25 450.75,608.75 452.5,618.5 457.25,625.5 461.25,635.25 464.25,645.25 467.25,653.5 469.5,661.25 474,670 
		475.5,682.25 474,691 470,699 464,705 458,711 451,717 444,722 438,727 431,732 423.75,735.75 416,737 	"/>
	<polygon fill="#00FF00" stroke="#800080" points="383,284 371,284 363,280 357,274 353,266 348,259 345,250 343,240 337,234 
		332,227 330,217 330,207 333,198 339,191 344,184 350,178 358,174 365,169 369,162 376,156 385,152 395.199,149.64 406.496,149.64 
		415.281,155.497 421.975,164 423,171 431,175 437.453,178.507 443.312,186.874 445,197 448,206 451,215 452,224 449,233 447,243 
		444,251 438,258 431,262 423,267 416,271 407,274 399,278 390,281 	"/>
	<polygon fill="#00FF00" stroke="#800080" points="582,730 571,729 561,727 551,725 543,721 535,717 528,712 521,707 516,700 
		511,693 506,686 501,679 497,671 494,662 493,651 495,641 499,632 503,624 507,617 511,608 515,600 519,592 524,585 530,579 
		536,574 543,568 549,563 556,557 564,553 572,549 580.75,547.5 589.5,549 599.25,551.75 613.25,554.75 623.5,557.25 631.5,558.25 
		642.75,561 652,563 660.25,566.25 668.25,571.5 675.5,579 680.5,585 685.25,592.25 688.25,599.75 690.5,610.75 692,620.5 
		694,631.25 694,643.25 692,658.5 689,667.5 686.5,673.75 683.25,681.25 678.75,689.25 673,696 667,702 660,706 653,712 647,717 
		639,721 629,723 618,724 608,726 597,727 587,729 	"/>
	<polygon fill="#00FF00" stroke="#800080" points="826,463 815,462 804,461 795,458 787,454 779,450 772,445 764,441 757,436 
		751,430 746,423 741,416 735,410 729,404 724,397 720,389 719,378 717,368 714,359 712,349 711,338 711,328 714,319 719,311 
		724,305 729,298 735,291 741.25,285.25 749,282.5 761,281 772,279.25 782.5,276.5 791,275 800,272 810,270 821,271 831,271 
		840,274 849,277 857,281 864,286 871,291 878,296 882,304 883,314 879,323 881,333 883,343 888,350 894,356 897,365 899,375 
		900,386 899,397 897,407 894,415 890,424 888,434 883,441 878,448 871,452 862,455 854,459 843,460 832,462 	"/>
	<polygon fill="#00FF00" stroke="#800080" points="745.152,280.525 734.75,279.25 725,277.5 717,274.5 708.75,270 702.25,262 
		697.75,254.5 693.75,247 689,238.25 684.75,232.5 679.25,223.5 675.75,215.75 671.75,208 668.5,196.5 667.25,186.75 666,177.25 
		665.25,168.25 662,159 661,148 659,138 659,127.448 660.547,117.219 663.308,106.99 666,97 671,90 678,84 685,79 692,75 
		701.463,71.76 711.531,69.81 721.272,68.998 731.338,68.998 743.191,68.998 752.609,70.947 760,74 767.059,79.875 772.74,86.531 
		776.638,94.326 780,102 784,110 788,118 792,126 796,134 799,143 801.25,152 802.75,158.75 805.5,167.25 807.25,177.5 809.5,189.5 
		810.5,199.5 811.5,209.75 814.75,220.75 816.5,231.25 817.25,242.75 816,251.25 812,258 807,264 800.25,268.25 792.5,271.75 
		782,275 772,277 762.75,279 754,280.525 	"/>
	<polygon fill="#00FF00" stroke="#800080" points="295.794,478.912 286.538,477.214 278.604,474.758 270.292,471.735 262,468 
		255,463 248,458 242.524,453.789 236.857,448.121 230.623,440.566 226,432 223,423 220.801,413.931 219,403 219,391 219,379 
		220,368 220,356 220,344 222,333.08 224.767,321.746 227.223,312.68 230.245,304.557 233,297 237,289 241,281 246.302,274.145 
		251.969,268.1 258.958,264.323 266.514,260.167 275.204,257.333 282.571,254.5 290.316,250.155 298.25,246.377 309.773,243.166 
		321,244 330,247 336.974,251.666 343,258 347,266 352,273 356,281 361,288 366,295 371,302 372,313 373,324 373,336 375,346 
		377,356 380,365 383,374 385,384 383,394 381,403 378,413 374,421 370,428 365,436 360,443 355,449 349,456 343,461 336,467 
		330,472 322,476 312,478 303.35,479.291 	"/>
	<polygon fill="#00FF00" stroke="#800080" points="368.5,574.5 361.75,575.75 353.5,575.75 343,572.5 335.5,567 328,560.75 
		322.5,555 317.25,548 313.75,539.5 311,531 309,523 311,513 313,503 315,493 319.218,483.638 324,477 330,472 337,466 343,461 
		350,456 357,451 364,446 372.75,442.625 382,439 392,437 403,436 413,435 425,434 435.75,434.75 447,435.5 457.25,437 467.5,439 
		475.75,442 482.5,447.25 488,451 495,456 499,464 501.75,472.25 504,483 505.5,494.25 505.5,506.25 504,519 500.75,529.25 497,536 
		491,542 484.25,547.5 477.75,552.25 470.5,557.25 463.25,561.5 456.5,564.5 447.25,567.25 437.5,569.5 427.25,572.5 
		416.461,570.89 406.5,570 395.75,570.5 384.25,571 375.75,572.5 	"/>
	<polygon fill="#00FF00" stroke="#800080" points="488.75,427 481,430.25 469.5,433 459,433 447.75,431.75 436.5,428.75 426.5,425 
		418,419 412,413 406,407 400,401 394,395 389.5,388 386.25,381.5 383,370 381,360 379,350 379.75,340.75 381.25,332 385,324.5 
		391,318 398,312.75 405,308 412.75,303.75 420,299.75 427,294.75 432,289.75 437.5,285.75 447,279.5 453.75,274 459.25,270 
		467.75,265.75 476,261.25 483.5,257.5 493.75,254.5 501,251 509.75,249 518.75,249.25 525,251 532,256 537,263 542,270 547,277 
		551,285 554,294 557,303 559,313 562,322 559,330 555,339 551,347 548,356 544,364 541,373 537,381 534,389 529,397 523,402 
		517,408 510,414 504,419 495.25,424.75 	"/>
	<polygon fill="#00FF00" stroke="#800080" points="632.75,557.25 623.5,556 611.5,553.5 600,550 590.75,546 582.75,543 574,538 
		568.5,534 562.75,529 555.75,522.75 548.75,515.5 545,508.5 539.75,501 535.75,492.75 532,484 528.75,477.25 527.25,470 525,461 
		523.75,452.25 521.5,442 520,431.5 520,421 524,408 528.5,400.5 534,391 538,383 541,375 545,367 549,359 553,351 558.5,345.25 
		563.5,339 567.75,335 573,330.5 581.75,328 591.5,328 602.25,328.5 609.25,330.5 622,332.5 631.25,335 639,337.5 646,341 654,345 
		659,352 664,359 669,366 673,374 677,382 679,389.25 682.25,396.75 686.5,409 687.5,421 685.363,429.239 685,442 687.5,454.25 
		690.75,464.5 692,477 692,490.25 690,500.75 687,510 684.75,518 681.25,525.5 677,533.5 671.75,544 663.75,551.25 654.5,556 
		646.5,557.25 640,557.25 	"/>
	<polygon fill="#00FF00" stroke="#800080" points="647,330.5 637.25,330.5 626.25,329.5 614.5,326.5 605,322.5 598,319 
		590.75,313.75 585,308 580,301 575,294 571,286 566,279 561,272 554.75,266 550.5,256.25 547,247.5 545,237.5 545,227.75 
		545,216.75 549,205.75 552.25,196.75 557,190 562,183 567,176 570.5,168.25 575.75,161.5 581.5,153.25 587.25,147.25 593,142 
		600.25,135.75 609.5,132 620,132 629,135 638,138 647,141 654,146 659,153 660.5,165 661.5,177.75 662.75,188 666.25,198.25 
		668.75,207 673,215 677.75,223.5 682.75,231.25 686.75,238.25 691,245 693.75,251.5 698,259.25 702.75,267.25 705.5,276.75 
		705,284 704.25,292 702,300.25 700.25,305.75 694.75,312.5 688.25,317.25 679.75,321 671,324 661,326 653.75,329 	"/>
	<polygon fill="#00FF00" stroke="#800080" points="553.5,0 556.166,8.5 561.166,16.166 565.834,21.5 569.5,26.833 573.834,32.833 
		578.834,38.5 584.834,45.166 590.569,51.463 595.834,56.166 602.422,60.719 610.699,64.939 618.33,67.537 626.939,70.135 
		635.865,72.083 645.5,72.833 653.404,73.382 662.83,74.5 670.449,75.168 677.596,74.844 684.83,74.166 690.83,73.166 
		699.353,70.947 706.334,68.998 713.641,67.05 719.166,64.5 724.83,62.833 730.83,59.166 737.5,53.5 742.379,49.19 747.5,44.166 
		752.5,39.833 756.018,34.74 758.615,29.868 759.752,24.835 760.074,18.99 761.051,12.657 761.535,6.324 761.535,0 	"/>
	<polygon fill="#00FF00" stroke="#800080" points="0,323.631 5.08,326.24 8.559,329.719 11.865,333.025 14.822,336.678 
		17.779,339.809 20.215,343.287 22.476,347.289 24.216,352.159 25.955,357.901 26.999,364.337 26.999,370.426 26.999,376.514 
		26.999,383.299 25.781,389.735 25.085,395.302 22.823,400.173 21.606,404.696 18.997,409.392 15.518,414.959 13,418.612 
		9.603,422.093 5.602,424.353 2.123,426 0,426 	"/>
	<polygon fill="#00FF00" stroke="#800080" points="1232,0 1225,7.5 1219.5,17 1216,27.5 1216,37.584 1218.5,46.5 1224,56.5 
		1227,62.5 1234,68.998 1241.5,72.5 1250,75.168 1258.5,77.5 1267.5,77.5 1274,77.5 1280,77.5 1280,0 	"/>
</g>
</svg>
