<?xml version="1.0" encoding="utf-8"?>
<!-- Generator: Adobe Illustrator 16.0.1, SVG Export Plug-In . SVG Version: 6.00 Build 0)  -->
<!DOCTYPE svg PUBLIC "-//W3C//DTD SVG 1.1//EN" "http://www.w3.org/Graphics/SVG/1.1/DTD/svg11.dtd">
<svg version="1.1" id="Layer_1" xmlns="http://www.w3.org/2000/svg" xmlns:xlink="http://www.w3.org/1999/xlink" x="0px" y="0px"
	 width="1280px" height="1024px" viewBox="0 0 1280 1024" enable-background="new 0 0 1280 1024" xml:space="preserve">
<g id="Raw_image">
	
		<image overflow="visible" enable-background="new    " width="1280" height="1024" xlink:href="normal_0.jpg"  transform="matrix(1 0 0 1 2.441406e-004 -2.441406e-004)">
	</image>
</g>
<g id="Not_annotated" opacity="0.5">
	<polygon fill="#0000FF" stroke="#800080" points="330,0 324,4 314,3 303,4 291,4 280,3 	"/>
</g>
<g id="Clumps" display="none" opacity="0.5">
	<polygon display="inline" fill="#FF0000" stroke="#800080" points="0,123 5,116 9,109 13,100 15,90 20,84 27,78 35,74 44,71 55,70 
		64,73 73,73 84,71 87,65 82,58 76,52 72,44 75,34 80,27 88,24 94,18 98,9 102,2 	"/>
	<polygon display="inline" fill="#FF0000" stroke="#800080" points="339,948 329,946 321,948 309,948 299,946 290,943 283,938 
		279,930 276,921 278,911 276,901 278,891 279,880 279,870 272,865 268,857 271,847 275,840 275,830 272,821 270,811 271,800 
		274,791 279,783 286,778 295,777 304,775 314,773 324,770 336,770 346,770 354,766 362,762 366,755 361,748 358,739 356,729 
		355,718 357,708 358,697 361,688 366,681 372,674 375,666 376,655 378,645 384,638 391,634 397,627 404,622 413,619 417,612 
		424,607 432,603 439,597 446,592 457,591 466,594 473,599 480,604 487,609 495,605 506,604 515,607 522,612 529,617 533,625 
		538,632 543,639 544,650 544,662 544,673 541,683 537,691 532,698 526,704 522,712 522,722 519,730 511,734 503,738 491,739 
		484,743 473,744 463,742 455,742 450,750 448,760 442,766 436,772 439,779 444,786 446,796 448,806 450,816 456,822 462,828 
		463,839 460,848 456,856 450,862 446,870 445,880 445,891 443,901 436,905 427,908 419,912 410,915 400,917 391,921 383,924 
		376,930 370,935 359,936 353,942 346,947 	"/>
	<polygon display="inline" fill="#FF0000" stroke="#800080" points="828,0 826,8 822,15 815,21 808,25 802,32 798,40 791,44 782,47 
		777,55 783,61 790,66 789,77 792,86 801,89 807,95 811,103 819,107 822,116 819,125 818,136 816,145 812,153 806,160 801,167 
		799,177 801,187 807,193 816,192 819,184 819,174 819,163 821,154 822,143 826,135 832,129 837,122 842,115 849,109 857,105 
		867,103 877,101 888,100 898,102 907,105 916,108 926,110 934,114 941,119 946,126 952,132 956,140 961,147 965,155 967,165 
		971,173 973,183 972,194 973,205 973,217 972,228 973,239 975,249 977,259 979,269 981,279 981,291 980,301 977,310 972,318 
		967,325 962,332 956,338 950,343 942,348 934,351 926,356 918,359 908,361 898,363 887,362 876,363 866,361 856,359 849,354 
		842,349 835,344 829,338 821,334 817,326 815,316 806,315 796,315 785,316 775,314 765,312 757,308 747,306 738,303 729,300 
		719,298 713,292 709,284 701,280 693,276 685,279 688,288 692,296 696,304 700,312 703,321 703,333 703,345 701,355 699,364 
		695,373 691,381 688,390 684,398 679,405 674,412 670,419 664,426 658,432 652,437 645,443 639,448 631,453 621,455 611,456 
		601,458 591,456 579,456 568,455 558,453 549,450 543,444 535,440 528,435 522,429 516,423 512,415 509,406 504,399 500,391 
		498,381 496,371 494,361 491,352 491,342 489,332 490,321 492,311 492,301 493,290 494,279 493,268 495,259 498,251 500,241 
		504,232 505,222 509,214 512,205 518,198 524,192 532,188 542,186 554,186 566,186 575,189 586,190 596,192 605,195 615,197 
		623,201 629,207 636,212 643,217 648,224 654,230 662,234 662,225 663,214 668,206 677,203 683,197 689,192 694,184 697,175 
		692,169 684,165 680,157 682,147 681,136 679,126 671,122 660,121 655,114 655,104 659,96 663,88 659,80 654,73 653,63 656,54 
		661,47 666,41 673,35 676,27 671,20 665,14 659,8 	"/>
	<polygon display="inline" fill="#FF0000" stroke="#800080" points="721,935 709,935 700,932 693,927 683,925 674,922 667,917 
		659,913 652,908 647,901 641,895 635,889 631,881 628,872 627,861 627,849 625,839 625,827 624,816 622,806 624,796 628,788 
		631,779 635,770 638,762 643,755 649,748 654,742 660,736 665,728 670,722 675,715 674,708 663,707 652,706 642,704 634,700 
		626,696 618,692 609,689 602,684 595,679 590,672 584,666 580,658 577,649 574,640 570,632 567,623 565,613 565,601 564,590 
		562,580 562,568 564,558 568,549 573,543 582,539 587,533 591,525 594,516 598,508 603,501 609,495 617,490 625,486 632,481 
		640,477 650,475 660,475 667,471 675,466 686,467 697,468 708,469 718,471 725,476 731,482 740,485 746,491 752,497 760,501 
		766,507 770,515 774,523 779,530 782,539 785,548 788,557 791,566 792,577 793,588 790,597 786,605 786,616 782,624 777,631 
		772,639 768,647 764,655 759,661 753,668 748,674 753,680 762,683 771,686 781,688 789,692 798,695 808,697 815,702 820,709 
		824,717 826,727 829,736 830,747 832,757 835,766 839,774 840,785 845,792 849,800 849,810 849,822 848,833 846,843 844,853 
		840,860 836,868 832,876 827,883 821,889 814,895 809,901 802,906 793,909 783,911 775,916 769,921 760,924 751,927 742,930 
		733,933 722,934 	"/>
	<polygon display="inline" fill="#FF0000" stroke="#800080" points="1279,914 1273,921 1267,926 1258,929 1250,933 1239,934 
		1227,934 1217,932 1208,929 1196,929 1186,927 1178,923 1171,918 1165,912 1160,905 1155,898 1150,891 1146,883 1142,875 1141,864 
		1139,854 1141,844 1143,834 1145,824 1147,814 1151,806 1157,799 1163,793 1168,787 1172,779 1177,772 1184,766 1192,762 1200,758 
		1203,750 1208,743 1214,737 1221,732 1229,727 1235,722 1229,716 1221,712 1216,705 1211,698 1206,691 1200,685 1194,679 1188,673 
		1183,666 1179,658 1179,646 1178,635 1176,625 1173,616 1171,606 1170,595 1172,584 1173,574 1174,563 1177,554 1180,545 1183,536 
		1187,528 1189,518 1194,510 1197,502 1200,493 1205,485 1209,478 1213,470 1218,463 1225,457 1233,453 1240,448 1249,445 1257,441 
		1267,439 1277,437 	"/>
</g>
<g id="Single_nuclei" opacity="0.5">
	<polygon fill="#00FF00" stroke="#800080" points="0,722 7,725 14,730 19,737 24,744 29,751 32,760 34,770 38,778 41,787 41,797 
		36,804 32,812 30,822 28,831 24,839 19,847 17,857 8.456,867.097 0,872.954 	"/>
	<polygon fill="#00FF00" stroke="#800080" points="309.523,1024 317,1018 324.965,1014.046 333,1011 340.979,1006.992 351,1004 
		360,1001 371,1000 383,1000 392,1003 401,1006 411,1008 422,1009 430,1013 439.921,1018.24 444,1024 	"/>
	<polygon fill="#00FF00" stroke="#800080" points="0,295.653 9,297 17,301 27,301 37,301 48.747,299.582 56,302 64,306 71,311 
		78,316 85,321 93,325 101,329 109,333 114,340 117,349 120,358 125,365 129,373 132,382 129,391 124,398 123,408 119,417 115,424 
		109,431 103,437 96,442 90,447 84,454 78,459 69,462 58,463 49,466 39,466 29,466 18,467 6.65,462.694 0,457.305 	"/>
	<polygon fill="#00FF00" stroke="#800080" points="0,948 5,941 9,933 15,927 23,923 29,918 34,910 40,904 47,899 55,895 62,891 
		68,884 75,880 84,876 93,874 101,870 107,864 113,858 122,855 134,854 143,857 151,861 158,866 166,870 172,876 175,885 180,892 
		186,898 188,908 190,918 190,930 192,940 193,951 191,961 189,971 188,981 187,993 184,1002 184.294,1014.598 179.251,1024 
		0.001,1024 	"/>
	<polygon fill="#00FF00" stroke="#800080" points="315,541 304,540 295,537 288,532 282,526 274,522 264,520 256,516 250,510 
		245,503 241,495 238,486 236,476 238,466 234,458 234,448 236,438 239,429 244,421 249,414 254,408 258,399 262,392 266,383 
		273,378 282,375 292,374 303,372 309,366 318,365 329,364 338,365 348,365 357,368 363,374 370,379 378,383 386,387 392,393 
		396,401 397,412 399,422 403,430 410,435 414,443 417,452 421,460 419,470 414,477 407,481 402,488 402,499 399,508 393,513 
		383,513 379,522 376,531 369,536 360,538 349,537 338,536 329,537 320,540 	"/>
	<polygon fill="#00FF00" stroke="#800080" points="425,338 413,338 402,337 392,335 383,332 373,330 363,329 353,330 345,326 
		340,319 335,312 330,305 326,297 321,290 317,282 312,275 310,265 309,254 308,243 310,233 315,225 321,220 326,213 329,204 
		334,196 336,187 342,180 349,175 354,169 358,161 363,154 370,148 376,142 382,136 393,135 402,133 408,127 415,122 424,122 
		433,125 440,130 451,129 460,132 470,133 480,132 489,135 496,140 501,147 505,155 505,167 501,175 497.449,179.261 
		499.754,188.193 503.341,195.365 504,208 502,217 498,225 495.19,235.469 493,244 488,252 489,263 488,273 484,282 482,292 
		478,300 475,308 470,315 464,321 456,325 450,332 442,335 432,337 	"/>
	<polygon fill="#00FF00" stroke="#800080" points="520,0 520,8 518,18 517,28 512,35 504,40 496,44 490,49 485,56 478,62 467,62 
		458,64 452,69 442,71 431,70 423,66 416,61 407,58 401,52 396,45 391,38 384.935,28.869 376.5,24.25 369.079,18.229 
		365.074,10.368 363,0 	"/>
	<polygon fill="#00FF00" stroke="#800080" points="1014.387,820 1006,819 995,818 983.91,817.126 977,814 970,809 963,804 957,798 
		951,792 948,783 945,774 944,763 938,757 931,752 926,745 923,736 922,725 919,716 916,707 916,695 917,683 917,672 918,661 
		920,651 923,642 927,633 931,626 936,618 940,611 944,602 949,595 954,588 960,582 966,577 973,571 978,564 984,558 992,554 
		1001,551 1010,548 1017,543 1025,539 1035,537 1044,535 1054,532 1065,533 1071.184,540.072 1071.53,551.501 1078.11,553.232 
		1088.499,550.116 1098.695,553.049 1108,560 1115,565 1122,570 1127,577 1132,584 1136,592 1142,598 1150,602 1156,608 1158,618 
		1158,630 1161,639 1166,646 1169,655 1169,665 1166,674 1162,681 1157,688 1152,696 1147,703 1144,711 1139,718 1136,728 1134,738 
		1136,748 1138,758 1138,768 1135,776 1130,783 1124,789 1117,794 1107,796 1097,799 1090,804 1083,808 1074,812 1067,816 1056,817 
		1044,817 1034,817 1023,818 	"/>
	<polygon fill="#00FF00" stroke="#800080" points="0,112 5,106 10,99 14,91 19,83 25,78 32,72 42,70 52,68 62,68 73,69 84,70 91,75 
		99,79 107,83 114,88 122,92 129,97 137,101 145,105 151,111 157,117 163,123 170,128 176,134 182,140 189,145 196,150 202,156 
		209,161 212,170 215,179 217,189 217,201 217,213 217,225 215,235 212,243 208,252 203,258 196,264 189,269 182,274 176,279 
		168,283 160,287 152,291 144,295 134,297 123,298 111,299 103,296 95,292 88,287 80,283 73,278 65,274 57,270 49,266 41,262 
		34,257 28,251 21,246 15,240 9,234 6,225 3,216 1,206 0,195 0,183 0,171 	"/>
	<polygon fill="#00FF00" stroke="#800080" points="239.25,119 230,119 220,118 209,117 199,115 189,113 179,111 167,111 155,111 
		147,107 139,103 132,98 124,94 117,89 109,85 102,80 94,76 88,70 82,64 78,56 74,48 73,39 76,29 81,23 87,16 90,7 95,0 107,0 
		119,0 131,0 143,0 155,0 167,0 179,0 191,0 203,0 215,0 227,0 239,0 251,0 258,5 262,13 266,21 269,30 272,39 274,49 274,61 
		275,72 273.75,81.5 270.208,91.081 266,99 260,104 253,110 247,116 	"/>
	<polygon fill="#00FF00" stroke="#800080" points="423,774 410.484,771.483 405,768 395.921,766.885 386.34,765.735 376.762,763 
		368.328,758.837 361,752 357,744 355,734 353,724 355,714 356.448,703.653 358.365,693.689 363,686 367,678 371,670 374,661 
		377,651 380,643 386,637 393,631 399,625 406,620 413,615 419,610 426,605 433,599 439,593 448,591 460,590 470.267,595.582 
		477.549,603.63 483.657,607.412 490.579,608.612 499.01,605.163 508,604 517,607 525,611 532,616 537,623 542,630 543,641 
		546,650.768 546,662 546,672 544.231,679.126 540.782,687.174 535.417,695.605 528.902,701.737 522,708 522,720 519.704,728.562 
		512.423,736.61 501.692,738.91 492,737 485.214,744 476.782,745.807 466.435,745.041 457,740 451.489,742.741 451.136,753.037 
		446.124,762.67 438.843,768.419 432,773 	"/>
	<polygon fill="#00FF00" stroke="#800080" points="336,950 324,950 313,949 303,947 294,944 287,939 280,934 276,926 275,915 
		275,905 276,894 276,882 275,873 269,867 267,857 269,847 272,837 272,828 269,819 269,807 269,795 275,788 280,782 287,776 
		296,773 305,770 315,768 325,766 336,765 346,763 353,763.819 358.365,761.136 366.796,761.136 376.762,765.315 386.723,767.651 
		398.604,772.25 405.118,774 413.55,774 427,774 437.31,776.848 442.292,782.98 446,791 449,800 449,812 455,818 461,824 463,834 
		461,844 459,853 454,861 450,868 449,880 448,891 446,901 440,906 431,909 421,911 411,913 401,916 394,921 387,925 380,930 
		373,935 365,940 357,943 348,946 339,949 	"/>
	<polygon fill="#00FF00" stroke="#800080" points="563.25,456 557,454 550,449 543,444 535,440 528,435 521,430 515,424 511,416 
		508,407 505,398 502,389 499,380 496,371 493,362 490,353 489,344 489,332 490,321 491,310 491,298 492,287 493,276 495,266 
		497,256 499,246 502,236 504,226 506,217 509,208 512,198 515,189 523,186 533,183 545,183 556,184 567,185 578,186 588,188 
		597,191 607,193 617,195 626,198 632,204 638,210 645,215 651,221 657,227 660,233 663,239.5 666,248.5 669.25,255 674.5,265.75 
		680.75,274 687.25,281.75 690.5,289.5 695,297 698,306 701,315 702,324 702,333.75 702,345.5 700.5,355.75 698.25,366 693,375 
		690,384 686,392 682.75,399.25 677.25,405.75 671.75,413 667.5,419.5 662.5,426 655.25,433 650.5,437.5 642,444 636,450 627.5,455 
		618,457 607,456 595,456 584,457 572,457 	"/>
	<polygon fill="#00FF00" stroke="#800080" points="888.75,364.5 881,363.25 872.5,361 862.5,357.25 853.5,353 846.25,348.25 
		838.25,343.75 832.75,336.75 826.25,332.5 820,326.25 817.804,320 817,312 821,304 825,295 828,287 828,277 826,267 825,256 
		823,246 821,236 820,225 819,214 819,202 816,193 814,183 815,172 815,160 816,148 818,139 822,131 826,123 831,115 835,108 
		843,103 851,100 861,97 872,98 882,100 893,101 901,105 910,108 919,111 928,114 935,119 942,124 948,130 955,135 959,143 962,152 
		966,160 968,170 969,181 969,193 970,204 972,214 974,224 976,234 979,243 979,255 979,267 980,278 980,290 978,300 975,309 
		970,315 965,322 960,329 954,335 947,340 939,345 932,349 925,354 916,357 907,360 898,363 	"/>
	<polygon fill="#00FF00" stroke="#800080" points="809.5,313.25 801.5,315.75 791,317 780,316 770,314 761,311 753,307 744,304 
		735.25,303.5 727.25,299.5 718,295.25 710.5,291.5 703,285 696,280 689,274.75 682.5,269.25 677.25,263 671,255.5 667.5,247.25 
		664.25,238 663,229 660,220 662,211 667,204 673,198 680,193 686,188 692,182 697.75,176 706.25,173.75 719.5,174.828 
		730.667,175.662 742.5,176.828 753.667,177.328 765.667,177.828 776,177 787,176 797,177.5 803.25,183 807.5,188.5 812.25,194.5 
		815.25,201.75 819,212 820,223 821,234 822,245 824,255 826,265 828,275 827.5,285 825,294 821,302 816.25,308.75 	"/>
	<polygon fill="#00FF00" stroke="#800080" points="770,176 758.5,176 747.75,176 734.5,174.828 723,173 711.75,172.5 700.5,171.25 
		691.25,168.75 682.75,161.75 682.059,148.162 682.167,137.5 678.5,128.833 671.247,123.296 662.5,122 657.167,115.5 
		657.167,105.167 660,94 660,82 657,73 654.834,64.167 656,56 659,47 664,40 671,36.75 677.75,35.5 687,34.25 697,34 707.167,34 
		716.5,35.5 727.5,35.5 739.417,35.5 748.167,38.167 757.167,42.833 766.834,48.5 776.25,54.25 784.5,56.75 789.75,62 794,69 
		796,79 801,86 808,91 811,100 819.5,105.332 823,111.499 823,120 821,130 818,139 816,148 811,155 805,162 800,169 793.25,173.75 
		781,174.828 	"/>
	<polygon fill="#00FF00" stroke="#800080" points="669,709 659,707 649,705 639,703 630,700 620,698 611,695 604,690 598,684 
		591,679 584,674 579,667 576,658 573,649 570,640 568,630 565,621 562,612 559,603 561,593 562,582 563,571 564,560 565,549 
		571,543 580,539 587,535 591,527 596,520 600,512 605,504 609,497 615,491 621,484 627,478 632,472 642,470 652,468 662,466 
		672,464 683,464 694,465 704,467 713,470 722,473 730,477 738,481 746,485 753,490 761,494 766,501 770,509 774,517 778,525 
		782,533 785,542 787,552 790,561 793,570 795,580 792,589 790,599 788,608 785,618 783,627 778,634 773,642 768,649 764,656 
		759,664 754,671 748,676 741,681 734,687 726,691 718,695 710,698 701,701 691,704 682,706 672,708 	"/>
	<polygon fill="#00FF00" stroke="#800080" points="728,938 718,936 708,934 698,932 690,928 683,923 675,919 667,915 661,909 
		654,904 648,898 641,893 635,887 629,881 628,870 627,859 626,848 625,837 624,826 624,814 625,803 626,792 630,783 633,775 
		637,766 641,758 646,752 651,745 657,738 662,732 668,725 673,718 678,712 686,708 695,704 703,701 712,697 721,694 728,690 
		736,686 744,681 752,677 760,679 768,683 777,686 787,688 797,690 807,692 813,698 818,705 824,711 827,720 829,730 830,741 
		833,750 836,759 838,769 841,778 844,787 847,796 850,805 850,815 849,826 848,837 847,847 843,856 838,863 834,870 829,877 
		824,885 818,890 811,895 804,901 798,906 791,911 784,916 775,919 766,923 758,926 749,929 741,933 732,936 	"/>
	<polygon fill="#00FF00" stroke="#800080" points="1280,734.356 1272.741,734.356 1262.559,731.326 1252.656,726.733 1243,724 
		1235,720 1227,716 1221,710 1215,704 1209,698 1203,692 1197,686 1192,679 1187,672 1184,663 1181,654 1179.928,646.391 
		1178.889,639.119 1177.504,630.115 1175.079,620.071 1173.695,612.106 1172.656,601.024 1172,589 1174,578 1175,568 1177,558 
		1179,548 1182,539 1185,530 1189,521 1192,512 1195,503 1198,495 1202,486 1207,479 1212,472 1217,465 1222,458 1230.145,452.453 
		1236.378,449.682 1244.69,445.527 1253,442 1264,440 1274,438 1280,438 	"/>
	<polygon fill="#00FF00" stroke="#800080" points="1239,937 1228,936 1218,934 1208,932 1198,930 1188,928 1179,925 1172,920 
		1167,913 1163,905 1158,898 1153,891 1149,883 1144,876 1142,867 1143,857 1144,846 1145,835 1147,825 1148,814 1153,807 1158,799 
		1162,792 1167,785 1172,777 1178,771 1184,766 1190,760 1196,754 1202,748 1209,742 1215,737 1222,731 1229,726 1236,725 
		1244.69,725 1254.733,728.811 1264.43,731.927 1275.166,737.82 1280,745.088 1280,913.399 1276.898,915.824 1272.049,922.057 
		1267,926 1261,931 1251,933 1245.071,934.976 	"/>
	<polygon fill="#00FF00" stroke="#800080" points="657.167,0 660,6.5 663.5,14.833 668.167,19.833 672.5,25.167 679.834,29.167 
		685.5,32.5 693.834,33.192 701.651,33.192 709.466,33.087 714.219,34 720.24,34.777 727.528,34.777 734.287,34.565 742.526,35.094 
		749.18,37.417 757.524,41.536 764.917,46.078 771.888,49.833 779.5,50.999 786.833,49.332 794.167,44.833 799.5,40.5 801.167,35.5 
		804.5,30.833 809.5,27.833 814,24.917 819.5,20.167 824,15.833 826.5,8.5 826.5,3.833 826.5,0 	"/>
</g>
</svg>
