<?xml version="1.0" encoding="utf-8"?>
<!-- Generator: Adobe Illustrator 16.0.5, SVG Export Plug-In . SVG Version: 6.00 Build 0)  -->
<!DOCTYPE svg PUBLIC "-//W3C//DTD SVG 1.1//EN" "http://www.w3.org/Graphics/SVG/1.1/DTD/svg11.dtd">
<svg version="1.1" id="Layer_1" xmlns="http://www.w3.org/2000/svg" xmlns:xlink="http://www.w3.org/1999/xlink" x="0px" y="0px"
	 width="1280px" height="1024px" viewBox="0 0 1280 1024" enable-background="new 0 0 1280 1024" xml:space="preserve">
<g id="Raw_image">
	
		<image overflow="visible" enable-background="new    " width="1280" height="1024" xlink:href="normal_33.jpg"  transform="matrix(1 0 0 1 0 -2.441406e-004)">
	</image>
</g>
<g id="Not_annotated" display="none" opacity="0.5">
	<polygon display="inline" fill="#0000FF" stroke="#800080" points="509,471 497,471 489,467 485,459 488,450 494,444 500,438 
		509,440 516,445 520,453 519,463 512,469 	"/>
	<polygon display="inline" fill="#0000FF" stroke="#800080" points="723,0 716,2 705,1 	"/>
</g>
<g id="Clumps" display="none" opacity="0.5">
	<polygon display="inline" fill="#FF0000" stroke="#800080" points="653,0 655,10 655,22 652,31 647,38 642,45 638,53 635,61 
		635,72 631,79 624,84 615,87 610,95 604,100 598,106 590,110 584,116 578,122 571,127 560,128 549,129 540,126 532,122 528,127 
		528,137 525,146 525,156 526,167 524,177 522,186 519,196 515,204 512,212 508,220 503,228 498,235 494,242 489,250 485,257 
		480,264 474,270 467,275 458,278 453,284 461,286 467,292 473,298 479,304 484,311 487,320 491,328 495,336 499,344 499,354 
		508,353 514,348 520,341 529,340 535,334 535,323 541,316 550,313 560,311 569,314 573,322 582,319 591,322 596,329 604,333 
		612,337 620,341 625,337 625,327 624,316 628,307 633,300 640,296 647,291 652,284 657,277 663,271 670,265 678,261 686,257 
		695,254 704,251 713,248 722,251 731,254 741,256 748,261 754,267 761,272 768,277 773,284 776,293 780,301 781,311 777,320 
		777,332 774,341 772,350 771,362 771,374 777,380 786,377 796,378 807,376 816,379 823,384 830,389 835,396 840,403 842,413 
		844,423 843,434 839,442 836,451 831,458 826,465 821,472 816,478 811,485 805,491 798,496 791,501 784,506 777,512 772,518 
		767,525 761,532 753,536 744,538 736,542 724,542 715,539 707,543 699,547 690,550 678,550 669,547 664,540 658,534 653,527 
		650,518 646,510 644,500 645,491 648,482 642,477 637,484 630,489 624,495 618,501 609,503 599,501 590,498 582,494 575,489 
		569,483 563,477 563,467 562,458 552,456 544,452 537,447 533,439 526,434 520,428 516,420 507,419 502,412 495,412 491,420 
		489,429 484,437 480,444 476,452 472,461 466,466 460,472 454,479 449,486 442,490 433,493 421,493 410,494 401,491 390,490 
		381,487 372,484 365,479 361,471 358,462 349,461 341,457 337,449 332,442 326,436 326,426 322,419 318,415 322,408 319,399 
		319,387 320,376 322,366 321,357 315,351 320,343 323,334 325,325 325,315 330,308 337,302 341,294 347,288 353,283 348,276 
		340,272 334,266 328,260 323,253 318,246 315,237 311,229 308,220 307,209 308,197 309,187 307,177 314,171 314,164 306,160 
		304,150 306,140 310,132 315,125 320,118 323,108 328,102 333,95 340,90 346,84 351,76 357,71 364,65 373,62 382,59 391,58 401,59 
		409,55 417,51 428,49 439,50 450,49 460,49 469,52 474,59 484,59 485,49 485,39 488,30 492,22 498,16 501,6 	"/>
	<polygon display="inline" fill="#FF0000" stroke="#800080" points="1040,0 1045,7 1050,14 1059,15 1065,21 1069,29 1073,37 
		1074,48 1075,59 1074,69 1070,77 1065,83 1074,86 1082,83 1089,78 1098,78 1105,83 1113,87 1122,88 1131,91 1138,96 1146,100 
		1157,101 1162,108 1165,117 1164,128 1164,138 1168,146 1174,152 1168,158 1163,165 1155,169 1150,176 1148,186 1147,195 1144,203 
		1136,208 1127,210 1122,214 1118,222 1109,224 1102,219 1095,214 1087,210 1078,212 1069,214 1060,211 1057,202 1053,194 1047,188 
		1039,184 1034,177 1030,169 1023,164 1017,158 1013,150 1010,141 1005,146 998,152 990,155 980,157 969,158 959,156 951,152 
		944,147 939,140 932,135 924,133 913,132 904,129 898,123 893,116 886,111 877,110 873,119 879,119 885,121 887,131 892,138 
		894,148 891,157 890,168 890,178 890,190 889,201 886,210 882,218 877,225 872,231 867,239 862,246 857,253 850,257 841,260 
		832,263 822,265 811,266 801,266 791,266 781,266 772,263 762,261 754,257 746,253 740,247 733,242 726,237 721,230 718,221 
		713,214 710,205 704,199 697,194 694,185 689,178 684,171 679,164 674,157 671,148 668,139 664,131 663,120 664,109 663,98 666,88 
		668,79 672,70 678,64 683,58 690,52 697,47 704,43 713,40 721,35 729,31 739,33 750,34 758,38 769,37 774,44 780,39 788,36 798,38 
		807,41 813,47 821,51 828,56 837,59 845,63 853,67 859,73 866,78 865,87 870,94 877,90 879,80 879,68 881,57 884,49 886,39 889,30 
		892,21 896,12 900,5 	"/>
	<polygon display="inline" fill="#FF0000" stroke="#800080" points="859,925 848,924 838,922 829,919 823,913 816,908 806,906 
		798,902 789,899 782,894 775,889 771,881 765,875 757,871 751,865 746,858 741,851 737,843 732,836 729,827 729,817 729,805 
		729,795 731,785 734,775 736,766 740,758 746,751 749,743 753,734 760,729 767,724 772,718 780,713 789,711 801,710 809,707 
		805,699 800,692 794,686 788,680 784,672 781,663 778,654 773,647 772,636 777,628 780,620 781,609 784,600 788,592 795,587 
		801,581 809,577 816,571 823,566 830,562 837,557 845,553 855,550 864,547 874,545 885,544 894,542 889,535 882,530 877,523 
		874,514 873,503 873,491 873,481 875,471 879,463 885,456 891,450 896,444 902,438 906,430 912,423 918,417 925,412 933,408 
		941,404 949,400 958,397 966,394 975,390 983,386 994,385 1004,386 1015,384 1025,386 1032,391 1041,394 1050,397 1057,402 
		1063,408 1068,415 1073,422 1077,430 1082,437 1085,446 1091,452 1093,461 1095,470 1097,480 1096,490 1094,501 1091,510 1086,516 
		1079,522 1073,527 1066,533 1059,538 1053,543 1047,549 1040,555 1032,558 1022,560 1012,562 1000,562 990,564 979,565 968,564 
		957,563 947,561 938,564 940,573 947,578 955,582 962,587 966,595 969,604 970,615 969,626 967,635 963,644 959,652 954,659 
		950,667 946,675 940,681 934,686 927,691 920,696 913,701 905,706 897,709 891,714 897,720 902,727 906,735 908,745 918,747 
		925,752 931,758 935,766 943,770 950,775 954,783 956,793 954,803 951,811 951,822 949,832 945,840 940,846 936,855 931,861 
		926,868 922,876 919,885 915,894 910,900 903,905 896,910 888,915 879,917 871,921 862,924 	"/>
	<polygon display="inline" fill="#FF0000" stroke="#800080" points="1279,795 1275,804 1269,810 1263,816 1257,822 1249,826 
		1242,830 1234,834 1226,838 1217,842 1206,842 1199,837 1190,834 1182,835 1184,845 1186,855 1184,865 1183,875 1183,886 1181,896 
		1181,906 1176,913 1170,919 1165,925 1160,932 1154,939 1147,944 1136,944 1126,947 1121,954 1114,958 1107,963 1100,969 1093,974 
		1084,976 1075,978 1065,979 1055,977 1047,973 1037,971 1028,968 1020,964 1012,960 1007,953 1002,946 998,938 994,930 990,922 
		988,912 988,900 990,890 993,881 996,872 1000,864 997,855 996,845 998,836 1001,827 1004,817 1009,810 1015,804 1020,797 
		1025,791 1031,784 1037,778 1044,773 1041,767 1030,766 1022,764 1012,764 1003,761 995,757 985,755 979,749 972,744 966,738 
		962,730 958,722 955,713 951,705 951,695 955,687 958,678 961,669 965,660 970,653 975,647 981,640 985,633 991,627 998,622 
		1005,617 1014,613 1023,610 1032,607 1042,605 1053,604 1063,606 1072,609 1081,612 1092,613 1102,615 1103,607 1101,597 1099,587 
		1097,577 1095,567 1096,556 1095,545 1093,535 1095,525 1100,518 1104,510 1110,504 1118,500 1126,495 1133,491 1142,487 1152,486 
		1163,484 1173,482 1184,481 1196,481 1207,480 1219,480 1230,481 1240,483 1250,485 1260,487 1269,490 1277,494 	"/>
	<polygon display="inline" fill="#FF0000" stroke="#800080" points="1279,368 1271,366 1263,362 1255,358 1247,354 1240,349 
		1231,346 1223,342 1215,338 1208,333 1201,328 1195,322 1190,315 1184,309 1178,303 1178,310 1181,319 1185,327 1187,337 1189,347 
		1188,358 1188,368 1185,377 1181,385 1175,390 1168,395 1160,400 1153,404 1143,406 1132,407 1121,408 1111,408 1099,408 1088,407 
		1078,405 1068,403 1062,397 1053,394 1047,388 1038,385 1029,382 1020,379 1011,376 1004,371 997,366 990,361 984,355 979,348 
		975,340 975,330 975,319 976,309 979,300 983,292 988,285 993,278 997,270 1002,262 1008,256 1018,254 1026,250 1037,249 1046,246 
		1057,245 1067,247 1078,248 1089,249 1098,250 1110,250 1121,251 1129,255 1136,260 1142,266 1148,272 1153,279 1160,284 1167,289 
		1164,283 1160,275 1156,267 1153,258 1152,247 1152,235 1153,224 1155,214 1157,203 1160,195 1164,187 1169,180 1175,174 1182,168 
		1189,163 1188,155 1183,148 1178,141 1176,131 1175,120 1172,111 1171,100 1172,89 1175,80 1179,72 1184,64 1188,56 1192,49 
		1198,42 1205,38 1213,33 1219,28 1227,23 1233,18 1240,12 1249,9 1261,9 1272,8 	"/>
	<polygon display="inline" fill="#FF0000" stroke="#800080" points="1117,0 1113,5 1104,8 1094,6 1085,9 1075,11 1065,9 1057,5 
		1051,0 	"/>
</g>
<g id="Single_nuclei" opacity="0.5">
	<polygon fill="#00FF00" stroke="#800080" points="585,835 574,834 563,833 551,833 544,828 538,822 533,815 530,806 523,801 
		515,797 509,791 505,783 505,773 499,767 494,760 492,750 489,741 489,731 494,723 497,715 499,705 502,696 505,687 508,678 
		512,669 512,660 516,651 524,648 530,642 536,635 540,627 546,622 556,619 566,619 574,616 582,611 593,611 603,612 612,615 
		621,618 628,623 638,625 643,632 646,641 654,645 661,650 664,659 667,668 669,678 671,688 674,697 674,709 672,719 668,726 
		662,733 663,742 663,752 661,762 657,770 653,778 649,786 644,793 638,799 633,806 629,813 622,819 615,824 607,828 599,831 
		590,834 	"/>
	<polygon fill="#00FF00" stroke="#800080" points="591.659,1024 594,1014 599.736,1006.132 605,1001 611,994 616,987 621,980 
		626,974 631,967 639,962 646,958 654,953 662,949 670,945 679,943 690,941 701,942 710,945 720,947 730,949 741,950 751,952 
		760,955 768,959 776,963 784,967 790,973 796,979 802,985 807,992 813,998 818,1005 824,1011 831.568,1024 	"/>
	<polygon fill="#00FF00" stroke="#800080" points="1093.096,1024 1099.426,1007.875 1111.869,995.216 1125.621,983.862 
		1147.015,973.602 1169.718,967.053 1197.005,961.38 1221.018,962.906 1236.299,967.709 1246.776,972.729 1254.854,976.879 
		1261.402,982.334 1266.424,986.7 1273.675,995.113 1280,1005.425 1280,1024 	"/>
	<polygon fill="#00FF00" stroke="#800080" points="1280,967.054 1269.43,961.117 1259.947,955.539 1245.056,939.944 
		1241.056,931.944 1239.447,921.094 1240.883,906.366 1243.91,894.041 1250.925,881.479 1254,873 1258,865 1268.17,846.115 
		1273.846,840.439 1280,835.855 	"/>
	<polygon fill="#00FF00" stroke="#800080" points="450,280 438,280 426,280 414,280 402,280 390,280 378,280 366,280 354,280 
		348,274 340,270 334,264 328,258 324,250 318,244 315,235 312,226 308,218 306.025,209.393 305.079,196.07 305.792,187.317 
		306.792,177.317 306.738,171.787 306.203,165.371 304.956,157.172 305,147 308,138 313,130 318,123 321,115 325,107 331,100 
		337,94 343,89 349,82 354,75 360,70 368,65 377,62 386,59 397,60 407,58 414,53 423,51 434,51 446,51 457,50 466,53 472,59 482,61 
		487,68 493,74 499,80 503,88 509.463,95.26 513,102 519,108 522,117 526,125 527,134 525,143 523,154 525,164 524,174 521,184 
		518,193 515,201 511,210 507,218 503,226 498,233 493,240 489,248 485,255 480,262 474,268 467,273 459,277 	"/>
	<polygon fill="#00FF00" stroke="#800080" points="416,493 406,491 396,489 385,488 376,485 368,481 363,474 361,464 354,459 
		345,458 339,452 336,443 330,437 327,428 324,419 321,414 322,405 320,395 321,383 322,373 324,363 320,355 318,347 322,339 
		326,330 325,320 329,311 335,305 340,299 345,291 352,287 359,281 371,281 383,281 395,281 407,281 419,281 431,281 443,281 
		452,284 459,287 466,292 472,298 477,305 482,312 486,320 490,328 494,336 498,344 498,356 496,366 496,378 496,390 496,402 
		494,412 490,420 487,429 483,436 478,444 474,452 471,460 464,466 458,472 453,479 448,485 440,490 431,492 419,492 	"/>
	<polygon fill="#00FF00" stroke="#800080" points="689,549 677,549 670,544 664,538 658,532 653,525 650,516 646,508 645,497 
		648,487 648,478 653,470 660.916,447.318 667.841,430.143 679.476,421.832 721.582,417.954 744,406 752.608,400.502 758,396 
		763,388 768,382 775.748,379.506 787,378 797,379 808,377 816,381 823,386 830,391 835,398 840,405 842,415 843,426 841,436 
		837,444 834,452 829,459 824,466 818,473 813,480 808,486 801,492 795,497 788,502 781,507 774,513 769,519 764,527 758,532 
		749,535 740,539 731,541 721,539 711,539 703,543 695,547 	"/>
	<polygon fill="#00FF00" stroke="#800080" points="652,0 653,11 653,21 649,28 644,36 640,44 638,54 635,63 631,70 625,76 619,83 
		613,89 607,94 600,99 593,105 586,110 579,115 574,121 568,128 560,129 549.739,129.434 535.398,126.383 529.601,120.585 
		524.414,114.178 520.752,107.465 517,100 511,94 506,87 501,80 496,73 491,66 485,60 481,52 480,41 481.697,29.965 484.138,21.422 
		488.715,15.624 493,10 500,5 508,0 520,0 	"/>
	<polygon fill="#00FF00" stroke="#800080" points="699,420 687,420 675,420 666,417 662,409 658,401 653,394 649,386 645,378 
		641.586,369.207 637.586,361.207 633.245,352.965 629.001,345.304 626,337 626,325 626,313 631,306 636,299 641,291 646,284 
		651,278 658,272 664,267 671,261 677,255 683,250 694,248 704,246 714,244 723,245 732,248 739,253 747,257 756,260 764,264 
		769,271 774,278 776,288 779,297 780.465,310.58 778.486,321.839 778.183,330.664 774.074,339.793 770,348 769,359 
		770.575,374.942 767,381 763,388 757,395 752,401 744,405 736,410 728,414 720,418 709,419 	"/>
	<polygon fill="#00FF00" stroke="#800080" points="613.9,501.264 606.892,501.67 595.975,499.782 586.541,498.03 578.454,492.773 
		571.041,486.709 564.167,479.026 563.897,468.38 558,460 552.576,456.385 544.085,453.283 535.864,446.546 533,437 525,433 
		517,429 510,424 502,420 499,411 497,401 496.09,391.914 495.536,378.895 496.09,370.03 499.691,358.118 505.509,350.362 513,346 
		519,340 525,335 530,327 534,320 539,312 547,308 558,307 567,308 575,312 584,315 592,319 600,323 607,328 614,333 622,337 
		626.62,345.097 631,352 635,360 639.457,368.079 644,375 648,383 652,391 656,399 661,406 665,414 665,424 663,434 661,444 
		658,453 655,461 651,469 647,477 640,483 634,488 626,492 619.965,497.221 	"/>
	<polygon fill="#00FF00" stroke="#800080" points="1033,0 1042,3 1047,10 1053,16 1064.502,18.812 1073.778,42.116 1074.166,70.072 
		1069.05,77.896 1058.666,85.27 1050.54,91.44 1042.563,96.706 1031.469,106.599 1013.82,123.342 1007.485,140.085 995.72,152.755 
		972.868,157.054 958.614,155.244 947,145 939,141 924,134 915,131 906,128 899,123 894,116 887,111 880,106 877,97 878,89 879,79 
		879,67 882,58 885,49 888,40 890,30 893,20 896,12 901,4 908,0 	"/>
	<polygon fill="#00FF00" stroke="#800080" points="1111.831,222.179 1104.158,219.373 1094,213 1085,210 1077,213 1068.506,212.559 
		1061.534,209.232 1056,201 1052,193 1046,187 1040,181 1034,175 1029,168 1022,163 1017,156 1014,147 1011.332,134.881 
		1014.273,123.342 1023.097,115.876 1029.432,109.088 1037.577,103.205 1045.044,98.906 1050.926,95.286 1058.666,90.687 
		1068.447,86.775 1073.714,85.872 1082.149,81.26 1091.199,76.734 1097.345,77.081 1101.623,79.299 1105.743,82.151 
		1107.962,85.796 1113.35,89.757 1120.163,89.916 1127.927,88.648 1135.375,91.342 1138.86,96.254 1146.149,100.849 1156.607,101.8 
		1164.372,109.247 1165.481,116.536 1164,124 1163,135 1166,144 1167.699,155.198 1163.263,164.072 1153.121,169.302 
		1147.259,176.59 1146.308,188.474 1145.516,199.883 1138.86,205.428 1128.72,207.964 1122.698,212.242 1118.831,220.179 	"/>
	<polygon fill="#00FF00" stroke="#800080" points="819,265 807,265 795,265 783,265 771,265 762,262 754.903,258.846 
		747.144,255.499 738.775,251.086 730,246 724,240 719,233 714,226 710,218 705,211 700,204 696,196 691,189 686,182 682,174 
		677,167 673,159 670,150 668,140 666,130 664,120 662,110 660,100 662,91 666,84 670,76 675,69 679,61 684,53 691,49 699,45 
		707,41 715,37 723,33 732,31 744,31 755,32 766,33 776,35 786,37 795,40 805,42 815,44 824,47 832,51 840,55 848,59 855,64 863,68 
		869,74 871,84 874,93 876,103 879,112 881,122 884,131 888,139 889,150 889,162 889,174 889,186 887,196 884,205 881,214 878,223 
		875,232 872,240 865,245 857,250 849,253 840,257 832,260 823,263 	"/>
	<polygon fill="#00FF00" stroke="#800080" points="984,564 973,563 961,563 951,561 940,560 932.804,558.101 925.672,553.857 
		914,550 905.468,548.426 898.336,543.5 892,536 886,530 879,525 876,516 874,506 874,494 874,482 876,472 880,464 886,457 892,451 
		897,445 903,439 907,431 913,424 919,418 926,413 934,409 942,405 950,401 959,398 967,395 976,391 984,387 994,387 1005,387 
		1016,385 1025,388 1033,392 1041,396 1050,399 1057,404 1063,410 1068,417 1073,424 1077,432 1082,439 1085,448 1090,455 1092,465 
		1095,474 1095,486 1094,497 1091,506 1087,513 1081,519 1074,524 1067,530 1061,535 1054,540 1048,546 1042,552 1034,556 1024,558 
		1014,560 1003,561 992,562 	"/>
	<polygon fill="#00FF00" stroke="#800080" points="893.412,708.536 886.451,707.347 879,702 869,700 857,700 846,699 835,698 
		823,698 811.065,699.707 805,698 800,691 795,684 789,678 784,671 781,662 778,653 774,645 774,635 779,627 782,619 783,607 
		786,598 791,591 798,586 804,581 812,577 819,571 826,566 833,562 840,557 848,553 858,550 867,547 878,546 889,545 898,548 
		904.448,549.952 914.466,551.48 925.672,554.536 933.482,560.308 938.406,569.647 943.67,576.438 949,581 958,584 963,591 966,600 
		969,609 968,620 967,630 963,639 960,648 955,655 951,662 946,670 942,677 936,683 929,688 922,693 914,698 907,703 899,707 	"/>
	<polygon fill="#00FF00" stroke="#800080" points="866.399,923 854.399,923 842.399,923 831.399,922 822.399,919 813.399,916 
		804.399,913 795.399,910 788.399,905 782.399,899 776.399,893 770.399,887 764.399,881 758.399,875 752.399,869 746.896,860.688 
		740.956,853.185 737.361,845.056 732.984,838.022 730.015,828.177 729.399,820 728.399,809 729.399,798 730.399,787 731.399,776 
		731.399,764 733.399,753 738.399,747 744.399,740 749.399,734 755.399,727 760.399,721 766.399,714 776.399,712 785.399,709 
		795.399,707 804.399,704 812.399,700 820.399,698 832.399,698 843.399,699 854.399,700 865.399,701 876.399,702 883.399,707 
		889.399,713 895.399,719 901.399,725 907.399,731 913.399,737 917.399,745 922.399,752 928.399,758 934.399,764 940.399,770 
		948.518,776.62 953.015,785.775 952.399,794 952.399,803 949.399,813 948.041,820.04 949.04,829.436 942.843,838.834 
		936.445,844.831 932.399,855 927.399,862 922.399,870 920.399,879 917.399,889 913.399,897 906.797,901.853 899.594,906.096 
		891.601,911.523 883.706,914.88 875.399,918 869.101,921.885 	"/>
	<polygon fill="#00FF00" stroke="#800080" points="1057,768 1047,766 1036,765 1026,763 1016,761 1006,759 998,755 990,751 982,747 
		974,743 968,737 962,731 959,722 956,713 951.688,702.742 952.01,692.784 958.434,682.506 962,670 965,662 971,655 976,648 
		981,642 986,635 992,628 998,623 1005,617 1013,613 1022,610 1032,608 1042,606 1052,607 1063,607 1073,609 1082,612 1092,614 
		1101,617 1109,621 1116,626 1124,630 1128,638 1133,645 1139.072,655.765 1140.604,662.549 1139.291,667.8 1136.666,673.051 
		1134.696,679.613 1134.478,690.334 1132.946,699.522 1130.978,710.024 1127.258,718.994 1122.188,725.187 1116.313,731.094 
		1111.406,739.406 1105.406,745.406 1101.879,750.937 1092,755 1083,759 1074,762 1065,765 	"/>
	<polygon fill="#00FF00" stroke="#800080" points="1279,506 1280,592.719 1278.201,607.306 1273.217,610.155 1267.994,616.327 
		1260.712,621.611 1254.712,627.611 1248.137,634.035 1241.137,639.035 1231.525,642.799 1223.525,646.799 1214.288,650.035 
		1204.288,653.035 1194.643,653.595 1183.576,653.56 1172.051,651.661 1163.051,648.661 1154.05,645.425 1146.05,641.425 
		1138.146,637.454 1131,632 1123,628 1116,623 1110.515,616.571 1106.422,610.54 1101,602 1099,592 1098,581 1097,570 1096,559 
		1095,548 1096,538 1097,528 1099.745,517.926 1105,511 1112,506 1119,502 1127,497 1134,493 1143,489 1153,487 1163,485 1173,483 
		1183,481 1193,479 1203,477 1213,479 1224,480 1234,482 1245,483 1256,484 1265,487 1274.424,492.51 	"/>
	<polygon fill="#00FF00" stroke="#800080" points="1215.866,838.673 1207.771,838.453 1197.926,835.172 1186,830 1180,824 1178,814 
		1176,804 1172.984,794.26 1170.358,784.413 1166.201,776.757 1161,771 1154.606,765.38 1152.854,759.034 1151.979,738.687 
		1152,727 1153,717 1154,706 1158.769,698.165 1162,690 1168,684 1174,677 1180,671 1185,665 1192,659 1201,656 1210,653 1219,650 
		1228,647 1240,647 1252,647 1261,650 1267,656 1272,663 1280,672.469 1280,775.01 1275,786 1270,792 1264,799 1258,805 1253,811 
		1247,818 1241,823 1235,829 1228,834 	"/>
	<polygon fill="#00FF00" stroke="#800080" points="1065,974 1055,972 1046,969 1036,967 1027,964 1019.563,960.313 
		1011.958,954.632 1006.488,947.631 1002.771,939.755 998.831,930.345 994.236,924.002 991.83,913.936 991.83,901.684 995,892 
		997,882 998,871 999,860 998,849 998,837 1002,829 1007,821 1012,814 1016,807 1021,800 1026,792 1030,785 1037,779 1044,775 
		1052,770 1060,766 1069,763 1078,760 1087,757 1096,755 1107.567,749.405 1116.975,748.969 1125,751 1134,754 1141,759 1148,764 
		1158.106,769.756 1164.889,776.099 1168.171,781.788 1171.233,788.57 1173.422,796.446 1177,807 1179,817 1181,827 1182,838 
		1182,850 1183,861 1184,872 1181,881 1178.997,890.617 1177.938,898.971 1176.174,909.327 1170.824,916.941 1162.522,923.918 
		1156.575,930.128 1151.581,937.684 1144.542,941.722 1136.885,942.816 1128,947 1119,951 1113,954 1107,958 1098.532,964.125 
		1091.032,968.625 1080.876,972.135 1072.5,972.5 	"/>
	<polygon fill="#00FF00" stroke="#800080" points="1128,407 1116,407 1104,407 1093,406 1083,404 1072,403 1065,398 1056,395 
		1050,389 1043,384 1033,382 1024,379 1015,376 1008,371 1000,367 993,362 987,356 982,349 977,342 976,331 976,319 977,308 
		981,300 985,292 990,285 995,277 999,270 1004,262 1011,257 1020,254 1029,251 1039,250 1048,247 1060,246 1070,248 1081,249 
		1091,251 1103,251 1115,251 1124,254 1132,258 1138,264 1145,269 1150,276 1156,282 1163,287 1168,294 1173,301 1176,310 1180,318 
		1183,327 1186,336 1188,346 1187,357 1186,368 1184,378 1179,385 1173,390 1165,395 1158,399 1150,404 1140,405 1129,406 	"/>
	<polygon fill="#00FF00" stroke="#800080" points="1280,182.607 1260,175 1249,174 1239,172 1229,170 1219,168 1210,165 1200,163 
		1192,159 1186,153 1180,147 1174,141 1172,131 1171,120 1170,109 1169,98 1170.8,87.632 1174,81 1179,74 1184,67 1189,60 1195,53 
		1200,46 1205,40 1211,34 1217,28 1223,22 1229,15 1244.938,8.08 1264.692,3.751 1280,0 	"/>
	<polygon fill="#00FF00" stroke="#800080" points="1273,362 1265,358 1257,354 1248,351 1240,347 1232,343 1223,340 1215,336 
		1209,330 1202,325 1195,320 1189,314 1182,309 1175,304 1170,297 1165,290 1160,283 1155,276 1151,268 1149,259 1150,248 1150,237 
		1151,226 1152,215 1155,206 1159,197 1163,189 1166,181 1170,173 1176,166 1186,165 1197,163 1207,165 1217,167 1227,169 1237,171 
		1247,173 1257,175 1269.292,177.74 1280,183.151 1280,363.901 	"/>
</g>
</svg>
