<?xml version="1.0" encoding="utf-8"?>
<!-- Generator: Adobe Illustrator 16.0.1, SVG Export Plug-In . SVG Version: 6.00 Build 0)  -->
<!DOCTYPE svg PUBLIC "-//W3C//DTD SVG 1.1//EN" "http://www.w3.org/Graphics/SVG/1.1/DTD/svg11.dtd">
<svg version="1.1" id="Layer_1" xmlns="http://www.w3.org/2000/svg" xmlns:xlink="http://www.w3.org/1999/xlink" x="0px" y="0px"
	 width="1280px" height="1024px" viewBox="0 0 1280 1024" enable-background="new 0 0 1280 1024" xml:space="preserve">
<g id="Raw_image">
	
		<image overflow="visible" enable-background="new    " width="1280" height="1024" xlink:href="normal_6.jpg"  transform="matrix(1 0 0 1 2.441406e-004 -2.441406e-004)">
	</image>
</g>
<g id="Not_annotated" opacity="0.5">
	<polygon fill="#0000FF" stroke="#800080" points="0,259 6,253 10,261 16,255 15,261 7,266 	"/>
	<polygon fill="#0000FF" stroke="#800080" points="0,290 0,285 1,276 7,271 13,265 23,263 26,268 30,276 36,275 32,267 30,257 
		34,251 30,245 31,236 31,228 27,220 30,214 37,217 45,221 40,227 37,236 39,243 49,241 56,246 66,248 73,253 74,245 64,243 61,238 
		70,240 78,238 87,239 87,234 85,227 93,229 101,227 110,228 116,234 117,228 111,223 121,223 127,228 126,221 117,218 118,213 
		127,215 128,208 133,201 140,206 139,213 132,214 134,222 132,232 128,239 125,248 123,259 117,265 118,273 115,282 108,287 
		100,291 94,285 91,291 97,296 93,303 87,306 80,311 71,311 63,310 56,305 51,312 42,315 33,318 25,322 19,328 10,332 4,338 	"/>
	<polygon fill="#0000FF" stroke="#800080" points="0,378 5,383 11,389 9,382 18,380 27,383 33,389 34,383 28,377 23,370 22,364 
		31,367 36,374 42,371 43,365 48,372 51,366 55,363 58,372 66,376 67,370 66,362 73,361 79,359 75,367 81,373 88,377 93,371 
		100,367 103,360 97,354 95,344 97,337 104,337 102,329 108,326 115,326 120,326 116,334 122,338 125,329 129,335 132,342 131,349 
		125,352 121,344 114,339 109,337 104,343 105,351 114,350 119,353 116,362 112,367 103,371 104,374 112,375 121,377 121,370 
		123,360 131,355 140,354 135,360 137,367 143,362 145,352 141,344 141,337 135,332 134,323 133,314 134,304 137,311 141,319 
		144,328 146,338 147,345 152,352 152,362 153,371 156,380 160,388 165,395 175,397 166,399 157,400 150,395 144,401 148,408 
		139,410 130,409 123,414 124,422 118,421 113,414 108,407 103,400 96,397 89,403 89,412 86,421 77,425 70,429 61,428 51,430 
		41,428 32,431 24,429 17,432 10,437 0,435 	"/>
	<polygon fill="#0000FF" stroke="#800080" points="0,492 2,487 3,481 11,485 20,486 28,490 34,494 40,500 45,502 42,493 40,485 
		48,486 52,494 56,502 63,507 71,503 78,501 83,503 89,506 94,499 97,490 104,494 108,502 115,500 112,493 119,495 129,497 135,503 
		140,497 142,487 141,482 134,487 126,483 125,476 132,474 138,471 144,472 150,478 158,474 165,475 175,474 177,464 184,458 
		181,467 188,469 194,463 201,459 200,468 200,478 194,484 195,491 204,490 213,491 216,498 221,494 217,486 207,485 204,482 
		213,481 221,480 221,472 230,470 228,465 222,459 214,463 206,467 207,458 216,458 222,453 215,452 219,443 226,441 222,436 
		215,432 209,426 213,420 221,421 226,422 231,429 233,439 240,444 233,446 233,455 237,458 244,452 247,461 250,466 253,458 
		250,449 245,442 239,436 235,428 233,421 239,423 245,429 251,423 260,420 258,413 250,416 243,418 236,413 229,414 222,413 
		214,414 207,414 204,407 211,402 218,400 219,407 227,403 225,396 216,393 209,396 212,390 218,386 226,390 234,394 235,401 
		237,393 248,394 257,397 264,402 265,411 270,417 272,426 270,433 266,434 274,438 279,445 279,453 284,458 288,466 290,476 
		288,485 286,494 282,502 275,507 268,509 262,515 256,521 253,530 247,536 238,539 227,538 216,537 215,526 207,522 201,528 
		195,523 189,528 182,534 175,538 166,542 158,543 151,538 143,538 133,536 123,536 114,539 104,542 98,547 90,551 80,551 70,551 
		59,550 52,545 44,547 39,549 35,554 26,558 21,562 11,560 6,553 	"/>
	<polygon fill="#0000FF" stroke="#800080" points="0,616 4,609 2,602 9,597 16,592 17,598 9,602 10,608 16,613 23,609 32,609 
		39,607 43,615 39,623 45,620 51,619 59,621 62,613 56,611 47,612 43,604 52,602 61,603 67,598 75,595 81,601 88,597 82,591 82,581 
		92,578 97,574 104,576 104,584 101,591 108,590 116,587 123,583 131,587 133,580 135,577 140,584 141,592 131,594 124,589 121,594 
		114,596 106,597 99,599 93,604 84,608 77,612 68,615 64,623 56,627 50,634 43,639 36,643 34,649 26,651 17,654 20,645 15,640 
		5,643 5,653 0,659 0,649 	"/>
	<polygon fill="#0000FF" stroke="#800080" points="0,713 2,719 11,720 17,714 21,718 29,720 36,717 37,726 29,724 28,731 37,731 
		42,737 37,744 43,746 42,755 35,760 44,759 46,767 42,774 34,778 25,777 19,775 16,766 8,762 	"/>
	<polygon fill="#0000FF" stroke="#800080" points="0,877 6,871 3,864 11,862 18,857 22,853 25,862 23,868 18,868 12,868 13,874 
		18,881 25,881 33,884 41,888 46,895 57,896 56,892 48,888 43,881 47,876 53,882 58,880 51,875 58,875 65,880 70,875 75,877 78,868 
		79,858 84,861 83,870 81,880 88,882 99,880 105,884 99,890 92,890 84,890 77,887 76,893 85,894 87,902 81,897 73,902 73,910 
		81,907 90,907 92,902 98,895 104,890 111,887 116,880 122,877 121,888 117,895 117,902 121,910 116,917 120,920 127,915 126,904 
		125,895 131,900 141,902 148,902 142,896 137,889 131,883 129,876 135,880 141,886 150,885 158,887 153,881 156,875 161,869 
		155,863 161,856 166,855 175,856 174,865 169,871 165,876 170,883 176,889 172,897 174,902 179,907 181,914 184,923 189,930 
		193,938 196,947 201,952 208,957 209,965 201,970 199,980 192,984 184,988 183,979 186,969 183,967 173,969 178,973 178,980 
		171,984 167,985 166,976 160,973 154,976 152,966 150,956 160,953 165,947 159,941 159,931 150,931 149,940 147,950 145,959 
		139,955 141,952 142,944 133,943 127,950 123,957 114,958 119,953 121,945 115,949 111,956 104,961 94,960 89,958 83,961 76,958 
		66,960 56,962 49,957 44,950 41,941 34,936 28,930 20,933 16,940 12,932 9,923 16,917 17,911 9,907 2,902 7,898 14,903 16,896 
		10,891 3,889 	"/>
	<polygon fill="#0000FF" stroke="#800080" points="0,940 2,932 7,937 11,945 14,954 20,960 18,965 20,972 28,974 38,976 41,985 
		37,992 40,1000 47,1005 49,1015 45,1022 	"/>
	<polygon fill="#0000FF" stroke="#800080" points="0,988 8,988 12,996 17,1003 22,1008 15,1010 7,1008 10,1001 3,996 	"/>
	<polygon fill="#0000FF" stroke="#800080" points="4,187 2,181 9,182 	"/>
	<polygon fill="#0000FF" stroke="#800080" points="10,853 5,846 12,840 19,839 14,846 	"/>
	<polygon fill="#0000FF" stroke="#800080" points="15,200 12,194 18,197 	"/>
	<polygon fill="#0000FF" stroke="#800080" points="19,189 18,182 28,181 30,185 21,186 	"/>
	<polygon fill="#0000FF" stroke="#800080" points="26,239 18,235 21,227 27,233 	"/>
	<polygon fill="#0000FF" stroke="#800080" points="31,833 20,832 20,825 27,830 32,831 	"/>
	<polygon fill="#0000FF" stroke="#800080" points="26,1022 19,1017 23,1014 27,1021 	"/>
	<polygon fill="#0000FF" stroke="#800080" points="33,713 27,707 23,700 31,696 38,691 38,698 40,703 35,710 	"/>
	<polygon fill="#0000FF" stroke="#800080" points="66,867 57,866 48,865 43,863 37,866 37,858 29,854 36,850 43,853 50,854 57,857 
		64,862 	"/>
	<polygon fill="#0000FF" stroke="#800080" points="42,961 34,958 32,954 39,955 	"/>
	<polygon fill="#0000FF" stroke="#800080" points="36,593 35,586 41,581 38,590 	"/>
	<polygon fill="#0000FF" stroke="#800080" points="74,197 67,192 57,191 48,189 40,185 40,180 52,180 55,187 56,180 65,177 73,176 
		81,172 88,167 96,162 102,156 107,163 100,167 95,175 102,180 96,183 92,188 89,194 84,187 84,182 85,178 77,181 69,185 77,189 
		77,196 	"/>
	<polygon fill="#0000FF" stroke="#800080" points="48,842 39,839 42,832 48,835 	"/>
	<polygon fill="#0000FF" stroke="#800080" points="47,598 43,590 48,588 48,597 	"/>
	<polygon fill="#0000FF" stroke="#800080" points="57,822 50,817 57,817 	"/>
	<polygon fill="#0000FF" stroke="#800080" points="58,1023 56,1016 65,1017 	"/>
	<polygon fill="#0000FF" stroke="#800080" points="62,233 58,227 65,222 58,217 64,218 72,220 73,228 64,232 	"/>
	<polygon fill="#0000FF" stroke="#800080" points="69,1007 63,1001 67,994 72,1001 	"/>
	<polygon fill="#0000FF" stroke="#800080" points="72,591 65,586 72,586 	"/>
	<polygon fill="#0000FF" stroke="#800080" points="70,499 67,493 75,495 	"/>
	<polygon fill="#0000FF" stroke="#800080" points="74,350 68,346 76,342 85,338 83,346 76,348 	"/>
	<polygon fill="#0000FF" stroke="#800080" points="79,855 72,850 74,845 76,840 68,838 73,832 81,836 86,843 84,851 	"/>
	<polygon fill="#0000FF" stroke="#800080" points="74,476 73,469 82,465 91,463 99,466 96,472 88,470 81,471 	"/>
	<polygon fill="#0000FF" stroke="#800080" points="89,498 82,493 76,489 82,483 89,487 90,496 	"/>
	<polygon fill="#0000FF" stroke="#800080" points="87,360 81,354 86,354 	"/>
	<polygon fill="#0000FF" stroke="#800080" points="90,836 87,831 92,823 95,828 91,835 	"/>
	<polygon fill="#0000FF" stroke="#800080" points="92,153 93,148 100,142 106,137 112,130 114,136 108,141 102,147 94,152 	"/>
	<polygon fill="#0000FF" stroke="#800080" points="100,210 92,206 97,202 101,209 	"/>
	<polygon fill="#0000FF" stroke="#800080" points="94,845 94,838 103,837 101,840 	"/>
	<polygon fill="#0000FF" stroke="#800080" points="101,813 95,807 97,800 103,805 	"/>
	<polygon fill="#0000FF" stroke="#800080" points="107,866 108,860 102,855 98,854 106,850 107,843 113,848 117,852 122,850 
		127,852 132,858 128,865 121,860 114,855 114,864 	"/>
	<polygon fill="#0000FF" stroke="#800080" points="117,990 106,990 100,986 99,980 106,975 112,980 117,987 	"/>
	<polygon fill="#0000FF" stroke="#800080" points="114,187 110,181 103,178 109,171 114,178 115,186 	"/>
	<polygon fill="#0000FF" stroke="#800080" points="104,1023 108,1017 119,1017 	"/>
	<polygon fill="#0000FF" stroke="#800080" points="112,473 107,468 117,465 116,471 	"/>
	<polygon fill="#0000FF" stroke="#800080" points="111,822 106,815 111,807 112,812 113,820 	"/>
	<polygon fill="#0000FF" stroke="#800080" points="115,158 108,153 114,146 120,140 125,135 124,144 128,148 127,154 118,151 
		116,157 	"/>
	<polygon fill="#0000FF" stroke="#800080" points="118,486 111,481 115,478 120,484 	"/>
	<polygon fill="#0000FF" stroke="#800080" points="120,840 111,837 117,836 124,833 	"/>
	<polygon fill="#0000FF" stroke="#800080" points="116,577 113,569 120,570 	"/>
	<polygon fill="#0000FF" stroke="#800080" points="126,984 118,982 117,976 125,980 	"/>
	<polygon fill="#0000FF" stroke="#800080" points="122,208 117,201 117,192 126,191 126,201 	"/>
	<polygon fill="#0000FF" stroke="#800080" points="129,187 123,181 127,175 135,170 143,172 151,168 157,174 152,180 143,179 
		134,176 129,182 	"/>
	<polygon fill="#0000FF" stroke="#800080" points="177,175 168,174 162,170 158,162 150,158 150,149 153,152 158,155 165,160 
		171,166 175,159 174,148 171,148 167,149 160,144 163,134 171,131 176,136 178,136 178,126 173,119 164,116 164,123 160,130 
		150,129 145,135 145,144 140,142 139,131 135,132 134,140 129,133 129,124 137,122 143,117 149,111 158,107 165,110 173,114 
		180,119 185,126 193,128 201,132 199,137 195,144 198,151 204,150 199,143 208,140 213,143 215,152 221,153 216,146 223,146 
		232,149 231,155 222,158 213,161 204,164 194,167 186,170 178,174 	"/>
	<polygon fill="#0000FF" stroke="#800080" points="143,861 136,856 131,849 128,840 133,834 132,843 136,851 145,854 144,860 	"/>
	<polygon fill="#0000FF" stroke="#800080" points="143,826 135,822 131,814 138,812 145,813 143,823 	"/>
	<polygon fill="#0000FF" stroke="#800080" points="141,199 137,191 142,183 149,188 150,196 142,198 	"/>
	<polygon fill="#0000FF" stroke="#800080" points="143,1002 140,999 142,991 148,994 144,1001 	"/>
	<polygon fill="#0000FF" stroke="#800080" points="146,848 142,841 148,843 	"/>
	<polygon fill="#0000FF" stroke="#800080" points="147,879 142,872 147,872 148,878 	"/>
	<polygon fill="#0000FF" stroke="#800080" points="148,1023 145,1014 151,1009 159,1008 166,1002 167,1011 169,1017 163,1022 	"/>
	<polygon fill="#0000FF" stroke="#800080" points="172,597 162,595 152,593 147,588 149,579 156,574 157,583 160,590 171,591 	"/>
	<polygon fill="#0000FF" stroke="#800080" points="167,850 159,848 156,842 161,841 166,841 174,838 172,845 	"/>
	<polygon fill="#0000FF" stroke="#800080" points="165,832 159,826 157,818 161,813 164,822 166,831 	"/>
	<polygon fill="#0000FF" stroke="#800080" points="164,367 159,360 165,353 168,359 	"/>
	<polygon fill="#0000FF" stroke="#800080" points="176,831 171,824 173,818 178,818 178,828 	"/>
	<polygon fill="#0000FF" stroke="#800080" points="279,643 272,638 265,633 262,635 256,636 249,631 248,620 244,626 234,626 
		233,617 232,610 225,616 216,618 210,612 204,606 196,606 192,602 185,599 180,594 185,594 192,592 194,584 187,587 178,588 
		170,586 177,584 184,582 193,580 201,578 206,585 211,592 213,599 210,605 219,604 227,600 235,600 241,594 244,600 244,609 
		246,612 250,604 254,611 263,612 259,605 252,600 254,595 258,591 264,597 265,606 273,609 281,608 282,602 273,599 280,594 
		284,585 292,588 295,596 290,602 294,605 296,613 293,621 295,630 296,639 292,632 286,626 281,624 280,633 280,642 	"/>
	<polygon fill="#0000FF" stroke="#800080" points="194,455 194,448 198,441 201,445 202,453 	"/>
	<polygon fill="#0000FF" stroke="#800080" points="203,1023 204,1014 210,1017 220,1017 225,1011 233,1006 235,1014 229,1018 	"/>
	<polygon fill="#0000FF" stroke="#800080" points="236,655 229,650 221,652 216,645 215,641 225,643 233,647 237,654 	"/>
	<polygon fill="#0000FF" stroke="#800080" points="229,999 222,994 222,987 228,993 	"/>
	<polygon fill="#0000FF" stroke="#800080" points="226,574 223,568 229,571 	"/>
	<polygon fill="#0000FF" stroke="#800080" points="326,759 315,758 306,755 298,751 288,751 289,744 281,744 279,750 270,749 
		260,747 255,740 252,731 250,723 245,716 243,706 240,697 240,689 235,682 233,672 228,665 230,660 238,660 240,670 242,679 
		247,680 253,681 251,691 248,698 255,703 250,709 257,713 256,719 262,720 266,728 271,735 276,728 283,723 289,729 292,723 
		299,727 305,732 303,741 309,735 315,730 320,723 320,715 315,714 305,716 301,708 298,701 296,695 305,697 309,705 319,707 
		325,713 332,712 334,719 334,728 341,724 342,716 344,707 338,706 335,710 336,702 334,697 325,696 327,691 336,694 343,692 
		338,687 337,681 345,685 352,689 353,680 358,680 365,683 363,690 358,697 350,694 348,700 356,700 354,709 350,718 346,725 
		342,734 339,743 336,751 330,757 	"/>
	<polygon fill="#0000FF" stroke="#800080" points="240,775 232,771 228,763 233,757 234,766 241,771 	"/>
	<polygon fill="#0000FF" stroke="#800080" points="242,748 232,748 234,740 239,735 240,741 	"/>
	<polygon fill="#0000FF" stroke="#800080" points="240,996 232,992 239,986 244,979 243,988 	"/>
	<polygon fill="#0000FF" stroke="#800080" points="245,142 238,137 244,134 	"/>
	<polygon fill="#0000FF" stroke="#800080" points="247,585 247,578 252,581 	"/>
	<polygon fill="#0000FF" stroke="#800080" points="262,771 252,769 260,764 	"/>
	<polygon fill="#0000FF" stroke="#800080" points="266,576 259,571 254,565 263,564 270,569 268,574 	"/>
	<polygon fill="#0000FF" stroke="#800080" points="261,694 258,687 264,688 	"/>
	<polygon fill="#0000FF" stroke="#800080" points="268,706 262,700 269,702 	"/>
	<polygon fill="#0000FF" stroke="#800080" points="269,591 268,585 273,579 278,585 271,590 	"/>
	<polygon fill="#0000FF" stroke="#800080" points="274,133 267,130 276,128 	"/>
	<polygon fill="#0000FF" stroke="#800080" points="275,546 268,541 275,537 277,544 	"/>
	<polygon fill="#0000FF" stroke="#800080" points="278,720 272,715 281,712 288,707 295,712 295,717 285,715 	"/>
	<polygon fill="#0000FF" stroke="#800080" points="292,583 285,578 283,573 278,567 281,563 288,567 285,560 290,558 295,565 
		294,576 	"/>
	<polygon fill="#0000FF" stroke="#800080" points="291,553 286,547 290,539 294,545 292,552 	"/>
	<polygon fill="#0000FF" stroke="#800080" points="304,773 295,772 291,767 298,766 304,772 	"/>
	<polygon fill="#0000FF" stroke="#800080" points="306,521 306,514 312,515 	"/>
	<polygon fill="#0000FF" stroke="#800080" points="312,508 313,504 319,498 318,489 319,483 314,476 309,471 317,474 322,481 
		326,489 325,498 319,504 	"/>
	<polygon fill="#0000FF" stroke="#800080" points="341,789 332,786 327,779 334,775 339,782 	"/>
	<polygon fill="#0000FF" stroke="#800080" points="348,682 343,675 343,665 350,663 354,670 349,676 	"/>
	<polygon fill="#0000FF" stroke="#800080" points="359,893 355,887 358,879 361,886 	"/>
	<polygon fill="#0000FF" stroke="#800080" points="359,664 358,656 367,659 360,663 	"/>
	<polygon fill="#0000FF" stroke="#800080" points="372,678 365,673 368,670 374,663 378,669 373,676 	"/>
	<polygon fill="#0000FF" stroke="#800080" points="373,0 372,6 364,6 	"/>
	<polygon fill="#0000FF" stroke="#800080" points="379,52 373,46 370,37 368,27 368,16 373,17 373,27 378,23 385,17 388,25 383,33 
		386,40 392,37 397,31 405,29 410,36 403,41 398,48 388,49 381,47 	"/>
	<polygon fill="#0000FF" stroke="#800080" points="381,899 372,896 374,885 380,884 372,880 374,870 371,861 368,852 372,843 
		377,850 374,857 379,864 388,867 395,871 394,865 387,861 382,854 388,851 395,856 402,861 407,868 404,874 401,884 394,886 
		393,877 384,876 386,883 393,888 388,895 	"/>
	<polygon fill="#0000FF" stroke="#800080" points="383,13 379,7 386,5 384,12 	"/>
	<polygon fill="#0000FF" stroke="#800080" points="402,26 394,22 393,14 402,17 	"/>
	<polygon fill="#0000FF" stroke="#800080" points="406,0 408,9 403,4 	"/>
	<polygon fill="#0000FF" stroke="#800080" points="490,51 479,50 470,47 466,40 461,34 455,38 447,42 448,37 445,30 435,29 427,30 
		422,23 415,24 419,15 425,21 434,22 440,26 450,24 457,23 464,24 467,18 462,16 469,13 473,19 467,25 467,33 473,38 475,31 481,37 
		490,38 493,47 	"/>
	<polygon fill="#0000FF" stroke="#800080" points="432,43 424,39 430,36 438,36 437,42 	"/>
	<polygon fill="#0000FF" stroke="#800080" points="453,277 447,271 447,264 454,269 461,270 455,276 	"/>
	<polygon fill="#0000FF" stroke="#800080" points="468,264 460,260 462,255 471,254 469,263 	"/>
	<polygon fill="#0000FF" stroke="#800080" points="478,873 472,869 478,868 	"/>
	<polygon fill="#0000FF" stroke="#800080" points="487,9 486,3 494,1 490,7 	"/>
	<polygon fill="#0000FF" stroke="#800080" points="497,40 491,34 494,28 489,26 495,21 499,29 498,39 	"/>
	<polygon fill="#0000FF" stroke="#800080" points="540,797 534,791 541,789 	"/>
	<polygon fill="#0000FF" stroke="#800080" points="549,798 548,793 554,795 	"/>
	<polygon fill="#0000FF" stroke="#800080" points="673,115 666,110 667,102 673,108 681,108 676,114 	"/>
	<polygon fill="#0000FF" stroke="#800080" points="689,88 683,82 677,86 682,78 691,75 693,83 	"/>
	<polygon fill="#0000FF" stroke="#800080" points="700,113 697,106 696,98 701,105 	"/>
	<polygon fill="#0000FF" stroke="#800080" points="706,794 703,787 709,781 716,785 712,792 	"/>
	<polygon fill="#0000FF" stroke="#800080" points="777,728 768,725 773,717 779,723 	"/>
	<polygon fill="#0000FF" stroke="#800080" points="780,760 775,754 779,747 781,737 791,734 799,738 804,745 797,747 794,741 
		789,748 785,756 	"/>
	<polygon fill="#0000FF" stroke="#800080" points="798,295 790,291 782,287 785,283 793,285 798,282 799,291 	"/>
	<polygon fill="#0000FF" stroke="#800080" points="816,294 807,291 805,284 812,287 	"/>
	<polygon fill="#0000FF" stroke="#800080" points="815,316 813,309 821,305 821,311 	"/>
	<polygon fill="#0000FF" stroke="#800080" points="857,770 847,768 846,761 845,755 849,750 842,753 834,758 829,765 825,760 
		831,754 838,748 845,743 854,740 862,744 870,748 879,751 875,757 865,756 859,750 853,757 854,766 	"/>
	<polygon fill="#0000FF" stroke="#800080" points="846,359 840,353 835,346 837,338 828,335 829,327 833,319 836,310 841,313 
		843,323 839,329 845,335 848,344 848,351 842,346 843,355 	"/>
	<polygon fill="#0000FF" stroke="#800080" points="860,780 852,776 858,776 	"/>
	<polygon fill="#0000FF" stroke="#800080" points="881,733 875,728 883,726 891,728 883,732 	"/>
	<polygon fill="#0000FF" stroke="#800080" points="887,771 878,768 883,762 888,769 	"/>
	<polygon fill="#0000FF" stroke="#800080" points="892,789 883,788 879,781 888,778 895,774 900,767 905,760 904,754 895,754 
		888,750 896,746 892,739 891,732 896,724 904,720 914,722 920,728 914,734 913,743 916,752 913,761 918,768 916,778 909,782 
		901,784 893,788 	"/>
	<polygon fill="#0000FF" stroke="#800080" points="904,553 899,546 902,538 901,532 903,524 911,523 911,533 910,542 905,549 	"/>
	<polygon fill="#0000FF" stroke="#800080" points="944,562 933,561 926,556 922,548 927,542 930,538 929,532 937,528 947,526 
		955,528 947,531 943,536 949,542 952,548 948,551 955,552 961,558 952,560 	"/>
	<polygon fill="#0000FF" stroke="#800080" points="989,180 977,180 966,179 957,176 953,169 960,165 968,164 961,168 960,173 
		971,171 979,167 984,161 993,161 997,169 993,176 	"/>
	<polygon fill="#0000FF" stroke="#800080" points="960,941 953,936 957,930 962,934 	"/>
	<polygon fill="#0000FF" stroke="#800080" points="970,558 967,552 971,545 982,543 984,546 975,550 984,551 982,556 971,557 	"/>
	<polygon fill="#0000FF" stroke="#800080" points="984,539 974,537 981,533 988,536 	"/>
	<polygon fill="#0000FF" stroke="#800080" points="1015,550 1013,542 1017,547 	"/>
	<polygon fill="#0000FF" stroke="#800080" points="1029,523 1023,517 1030,513 1031,521 	"/>
	<polygon fill="#0000FF" stroke="#800080" points="1053,0 1055,8 1045,7 1037,9 1042,3 	"/>
	<polygon fill="#0000FF" stroke="#800080" points="1074,0 1071,6 1065,2 	"/>
	<polygon fill="#0000FF" stroke="#800080" points="1279,617 1272,616 1272,606 1272,594 1274,584 1277,586 1278,593 	"/>
</g>
<g id="Clumps" display="none" opacity="0.5">
	<polygon display="inline" fill="#FF0000" stroke="#800080" points="536,715 524,715 515,712 506,709 498,705 490,701 483,696 
		477,690 473,682 468,675 464,667 461,658 458,649 458,637 461,627 465,619 469,612 473,604 479,597 486,592 493,588 502,584 
		510,580 512,573 505,568 499,562 495,554 485,555 476,557 470,560 481,561 473,564 463,564 459,558 453,563 457,571 458,582 
		461,591 461,601 457,609 453,617 448,624 441,629 432,631 422,631 416,625 407,627 398,629 388,631 378,631 370,627 361,625 
		353,622 347,616 339,612 334,605 330,597 327,588 325,578 323,568 325,558 328,549 331,539 336,532 342,526 347,520 354,514 
		363,511 374,510 384,511 390,505 387,496 386,485 390,476 393,467 387,462 377,462 368,463 358,461 350,457 342,453 335,448 
		329,442 323,436 318,429 313,422 308,415 305,406 302,397 300,387 298,377 299,368 300,357 304,348 307,340 311,332 315,324 
		320,317 326,310 333,305 340,300 348,297 357,293 368,292 378,290 388,288 400,288 410,290 418,294 427,297 434,302 440,308 
		445,315 450,322 456,328 461,335 466,342 475,343 481,337 487,332 497,329 509,329 518,329 514,321 508,315 503,308 500,299 
		497,290 497,278 498,267 501,257 503,248 507,240 513,233 521,229 528,225 536,221 546,218 555,215 566,216 576,216 587,215 
		596,218 604,222 612,226 619,231 626,236 634,240 639,247 647,251 653,257 660,262 664,270 666,280 667,291 666,302 663,311 
		658,318 653,324 647,330 640,336 634,341 626,345 618,350 610,353 600,355 588,355 578,353 570,358 579,361 588,364 598,366 
		607,369 615,373 622,378 629,383 635,389 640,396 645,403 651,409 656,416 660,424 664,432 667,441 670,450 672,460 673,471 
		672,482 669,491 664,498 671,501 680,498 691,497 703,497 715,497 724,500 731,505 738,510 745,515 749,510 748,499 747,488 
		743,480 741,470 741,458 744,449 740,443 730,445 721,442 712,439 703,436 695,432 688,427 682,421 677,414 672,407 668,399 
		665,390 663,380 662,369 662,357 666,348 670,341 675,334 681,327 687,321 694,316 701,311 709,307 718,304 728,304 739,305 
		749,307 760,308 768,312 776,316 782,322 788,328 793,335 798,342 803,349 806,358 809,367 809,379 809,389 807,399 802,406 
		797,413 808,414 819,415 829,417 836,422 844,426 850,432 856,438 861,445 866,452 870,460 871,471 871,483 871,493 870,504 
		869,515 870,526 871,535 868,543 862,549 856,555 848,559 838,562 829,565 818,565 808,563 799,560 791,556 782,553 774,549 
		767,546 768,554 765,562 758,568 756,577 753,586 748,594 744,602 738,608 730,612 724,618 717,622 707,624 697,626 687,624 
		677,622 670,617 669,608 668,597 663,590 662,579 659,570 654,563 650,555 646,547 644,537 647,527 641,527 636,534 629,539 
		623,545 630,550 629,561 628,571 624,580 620,588 615,594 609,601 602,605 593,609 584,607 575,604 574,612 579,619 584,626 
		588,634 592,642 594,652 593,662 587,669 584,677 581,686 575,692 568,698 561,703 555,708 547,712 537,714 	"/>
	<polygon display="inline" fill="#FF0000" stroke="#800080" points="446,849 438,845 430,841 422,837 414,833 409,826 403,820 
		398,813 394,805 388,799 383,792 377,786 371,780 370,769 374,761 377,752 381,743 384,734 388,726 390,717 394,709 402,705 
		411,704 415,696 422,696 427,703 434,708 443,711 451,715 460,718 468,722 474,728 479,735 485,741 489,749 492,758 493,769 
		497,777 498,788 497,799 499,809 498,818 494,825 486,829 475,831 465,832 458,837 451,842 	"/>
	<polygon display="inline" fill="#FF0000" stroke="#800080" points="683,0 684,9 681,18 678,26 674,35 669,42 664,48 658,54 651,59 
		643,64 635,67 625,69 615,69 606,66 604,73 611,78 617,84 622,91 626,99 630,107 632,117 633,128 633,139 630,149 625,156 621,163 
		615,169 608,175 602,180 594,184 585,187 574,188 564,186 556,182 548,178 543,171 537,165 531,159 526,152 522,144 518,136 
		515,127 511,119 509,109 509,97 510,88 513,79 517,70 524,66 532,62 542,60 553,60 563,58 568,54 561,49 555,43 550,36 544,30 
		541,21 537,13 535,3 	"/>
	<polygon display="inline" fill="#FF0000" stroke="#800080" points="658,1023 653,1016 650,1007 648,997 647,986 649,976 653,968 
		657,960 657,952 647,954 637,956 627,958 617,958 606,957 598,953 588,955 583,948 577,942 570,937 565,930 560,923 554,917 
		549,910 543,904 542,893 540,883 541,872 543,862 547,854 551,846 557,839 563,833 569,827 577,823 587,821 597,819 607,821 
		617,823 626,826 634,830 640,836 642,846 646,852 656,854 663,859 668,866 672,874 677,881 681,889 684,898 684,910 681,919 
		677,927 674,936 682,936 690,933 699,930 711,929 721,931 730,934 738,938 745,943 751,949 758,954 764,960 769,967 769,977 
		771,987 772,998 771,1009 769,1019 	"/>
	<polygon display="inline" fill="#FF0000" stroke="#800080" points="849,0 858,3 864,9 869,16 874,23 877,32 881,40 882,51 883,62 
		882,73 880,83 877,92 874,100 869,108 862,112 855,117 848,122 852,127 863,128 869,126 878,125 885,130 891,136 897,142 903,148 
		908,155 913,162 916,171 917,182 916,193 915,204 912,213 908,221 902,226 895,231 889,238 883,244 876,248 866,251 858,250 
		851,256 842,256 834,254 826,252 820,246 813,241 806,236 800,230 795,223 793,213 790,204 789,195 792,186 790,178 793,169 
		797,161 804,155 810,150 816,143 823,139 825,131 814,132 803,133 792,132 784,128 775,125 768,120 760,116 753,111 746,106 
		741,99 736,92 732,84 729,75 728,64 725,55 723,45 724,34 727,24 730,16 735,9 741,3 	"/>
	<polygon display="inline" fill="#FF0000" stroke="#800080" points="777,1023 776,1013 777,1003 780,994 784,986 789,979 793,971 
		798,964 804,957 812,953 821,950 833,950 843,948 849,943 855,936 864,934 873,935 879,934 879,944 885,950 895,952 904,955 
		909,962 913,970 914,981 909,988 901,992 910,993 919,996 928,997 938,999 944,1005 949,1012 955,1018 	"/>
	<polygon display="inline" fill="#FF0000" stroke="#800080" points="1279,778 1275,787 1270,793 1261,796 1251,798 1242,801 
		1233,798 1225,794 1216,791 1208,787 1201,782 1192,779 1185,774 1180,767 1175,760 1171,752 1168,743 1165,734 1163,724 1163,712 
		1165,702 1169,693 1174,686 1179,680 1185,674 1190,667 1179,668 1170,671 1159,670 1149,668 1141,664 1134,659 1127,654 1127,661 
		1133,667 1138,674 1142,682 1144,692 1146,702 1145,713 1143,723 1142,733 1138,742 1134,750 1128,756 1121,761 1113,764 1105,768 
		1097,772 1089,776 1080,779 1069,780 1059,782 1047,782 1037,780 1029,776 1023,770 1017,764 1010,761 1001,762 994,757 986,753 
		978,749 971,744 965,738 959,732 956,723 952,715 946,709 940,703 938,693 937,684 937,672 938,661 940,650 942,640 947,633 
		952,627 956,618 961,612 967,606 974,600 981,596 988,590 999,589 1009,591 1020,590 1029,593 1037,597 1046,600 1055,603 
		1063,607 1072,610 1079,615 1087,619 1090,617 1085,610 1081,602 1078,593 1074,585 1070,577 1068,567 1066,557 1069,547 1072,539 
		1076,530 1082,524 1088,519 1095,513 1103,509 1112,506 1123,505 1134,506 1143,509 1154,510 1162,514 1172,516 1181,519 1189,523 
		1197,527 1204,532 1212,536 1218,542 1225,547 1231,553 1236,560 1241,567 1244,576 1246,586 1246,596 1245,607 1243,617 1241,627 
		1237,635 1232,641 1226,647 1217,650 1213,657 1224,656 1236,656 1245,657 1253,661 1260,666 1270,668 1275,675 	"/>
	<polygon display="inline" fill="#FF0000" stroke="#800080" points="1178,1023 1173,1016 1169,1008 1165,1000 1162,991 1160,981 
		1157,972 1154,963 1151,954 1148,945 1149,934 1152,925 1155,916 1153,908 1143,911 1135,908 1128,903 1121,898 1115,892 1110,885 
		1106,877 1103,868 1101,858 1102,847 1104,836 1107,827 1110,819 1115,812 1121,805 1127,799 1134,794 1142,790 1150,786 1159,783 
		1169,781 1180,782 1188,786 1196,790 1202,796 1207,803 1212,810 1215,819 1217,829 1219,839 1218,850 1216,859 1213,869 1208,876 
		1203,882 1195,887 1189,893 1183,899 1191,898 1200,894 1212,894 1222,896 1232,898 1242,900 1250,904 1260,906 1268,910 1273,917 
		1276,926 1276,936 1277,947 1275,957 1272,965 1268,974 1264,981 1260,989 1256,998 1252,1006 1249,1015 1243,1020 	"/>
	<polygon display="inline" fill="#FF0000" stroke="#800080" points="805,938 794,938 783,938 773,936 764,933 756,929 747,926 
		739,922 732,917 725,912 719,906 715,898 711,890 708,881 704,873 702,863 701,852 701,840 703,830 701,820 705,811 714,808 
		719,802 724,794 730,788 739,785 747,781 756,780 766,781 776,782 787,783 793,788 792,794 800,791 807,787 818,788 827,791 
		836,794 844,798 852,802 859,807 866,812 872,818 878,824 884,830 890,836 896,842 898,852 902,860 901,871 899,881 897,890 
		893,898 888,905 881,911 875,916 867,920 858,923 850,927 840,930 831,933 822,935 811,937 	"/>
	<polygon display="inline" fill="#FF0000" stroke="#800080" points="842,718 835,715 826,714 818,710 809,707 803,701 794,698 
		787,693 780,688 774,682 768,676 764,668 760,660 759,649 760,638 762,628 766,620 769,611 773,602 778,595 782,588 789,582 
		796,578 805,574 814,572 824,569 835,568 846,569 857,570 867,572 876,575 884,579 891,584 898,589 904,595 910,601 915,608 
		921,614 924,623 927,632 927,644 926,655 926,667 925,678 922,687 917,693 911,699 904,704 896,708 886,710 878,706 869,704 
		874,711 867,711 860,711 852,714 843,717 	"/>
</g>
<g id="Single_nuclei" opacity="0.5">
	<polygon fill="#00FF00" stroke="#800080" points="1262.956,1018.297 1263.818,1011.195 1266,1005 1270,997 1273.184,992.544 
		1280,988.975 1280,1024 1262.522,1024 	"/>
	<polygon fill="#00FF00" stroke="#800080" points="1280,905.096 1275,900 1271,892 1267,884 1263,876 1260,867 1259,856 1260,845 
		1263,836 1267,827 1272,820 1280,813.996 	"/>
	<polygon fill="#00FF00" stroke="#800080" points="154,785 143,784 134,783 124,781 116,777 109,772 101,768 93,764 88,757 84,749 
		77,744 72,737 69,728 67,718 65,708 64,697 65,687 66,677 70,668 75,661 82,656 89,651 96,646 103,641 112,638 121,635 132,636 
		141,637 150,640 158,644 166,648 171,655 177,661 181,669 182,680 185,689 190,696 194,704 196,714 198,724 199,735 200,746 
		197,755 192,761 186,767 180,773 172,777 164,781 155,784 	"/>
	<polygon fill="#00FF00" stroke="#800080" points="320,0 323,9 324,20 323,31 322,41 319,51 315,58 310,65 304,71 297,77 290,81 
		283,86 274,90 266,93 256,95 245,96 234,97 224,95 214,93 205,90 199,84 193,78 187,72 181,66 175,60 170,53 166,45 161,38 
		154.323,32 147.734,26 143.5,20 133.733,7.102 131.77,0 	"/>
	<polygon fill="#00FF00" stroke="#800080" points="246,356 235,355 225,353 218,348 209,345 201,341 195,335 188,330 182,324 
		176,318 172,310 168,302 164,294 161,285 159,275 157,265 158,254 161,245 163,234 166,225 170,217 175,210 182,205 189,200 
		198,197 206,193 217,193 228,193 239,194 247,198 256,201 265,204 274,207 280,213 287,218 289,228 300,229 309,232 317,236 
		325,240 330,247 334,255 337,264 338,275 336,285 333,293 328,300 323,307 317,313 310,318 305,325 299,331 293,337 286,342 
		278,346 270,351 261,353 251,355 	"/>
	<polygon fill="#00FF00" stroke="#800080" points="274,933 262,933 254,932 247,930 238,929 232,923 226,919 221,912 215,906 
		211,898 206,891 204,881 202,871 201,860 203,850 210,844 217,840 222,832 227,825 232,819 240,814 249,811 259,809 270,808 
		280,810 289,813 299,815 306,820 311,827 317,833 321,841 322,852 323,863 326,872 327,883 325,893 322,901 317,909 312,915 
		303,918 296,923 289,928 280,931 	"/>
	<polygon fill="#00FF00" stroke="#800080" points="267,1024 267,1014 270,1005 274,997 279.27,989.864 285,984 293,979 301,976 
		310,972 321,971 332,972 342,974 351,977 358,982 365,987 370.711,993 377.627,999 382,1006 386,1014 387,1024 	"/>
	<polygon fill="#00FF00" stroke="#800080" points="387,239 377,237 367,235 358,232 351,227 344,222 339,215 334,208 329,201 
		326,192 324,182 323,171 324,160 326,150 329,140 332,132 337,125 342,117 347,110 353,104 360,100 367,94 374,89 382,85 390,81 
		399,78 408,75 416,71 426,69 437,68 446,71 454,75 462,79 470,83 477,88 482,95 487,102 492,109 494,119 495,130 494,141 493,151 
		491,161 488,171 485,179 480,187 476,194 471,201 464,207 458,212 451,218 444,223 437,227 428,230 419,233 409,235 399,237 
		389,238 	"/>
	<polygon fill="#00FF00" stroke="#800080" points="410.479,1024 405,1017 401,1009 398,1000 397,989 397,977 399,966 401,957 
		403,947 408,940 412,932 417,925 424,919 431,914 438,909 448,907 459,906 469,908 479,910 489,910 500,909 510,911 516,917 
		520,925 531,926 541,928 548,933 554,939 559,946 566,951 571,958 576,965 581,972 585,980 589,988 592,997 592,1009 595.689,1024 
			"/>
	<polygon fill="#00FF00" stroke="#800080" points="659,791 648,790 638,788 629,785 622,780 614,776 608,770 604,762 598,756 
		594,748 591,739 590,728 591,716 593,707 597,698 601,691 606,683 612,677 618,672 625,666 631,661 639,656 648,653 658,651 
		667,649 678,647 690,647 701,648 710,651 717,656 723,662 730,667 735,674 740,681 743,690 746,699 746,709 744,719 741,728 
		738,736 734,744 729,751 723,757 716,763 710,768 703,774 696,779 689,783 680,787 671,789 660,790 	"/>
	<polygon fill="#00FF00" stroke="#800080" points="730,263 721,260 712,261 701,260 690,259 680,259 671,256 666,249 658,245 
		654,237 650,229 647,220 643,212 641,202 641,192 639,184 643,175 647,168 653,161 657,153 665,149 674,146 683,143 692,140 
		702,138 712,138 721,141 728,146 735,151 743,155 750,160 756,166 761,173 766,180 769,189 770,198 771,207 768,216 769,227 
		764,234 760,241 752,246 746,252 741,259 733,262 	"/>
	<polygon fill="#00FF00" stroke="#800080" points="992,349 981,348 972,345 961,344 952,341 941,340 930,339 918,339 908,337 
		900,333 893,328 887,322 882,315 878,307 874,299 874,287 877,278 879,268 881,258 887,251 893,245 900,240 906,234 913,229 
		920,225 928,221 937,217 947,215 955,212 964,208 976,208 987,209 996,212 1003,217 1009,223 1015,229 1023,233 1029,239 1033,247 
		1035,257 1038,266 1040,276 1039,285 1037,294 1034,304 1031,313 1026,320 1021,326 1015,333 1009,339 1003,344 995,348 	"/>
	<polygon fill="#00FF00" stroke="#800080" points="955,499 943,499 932,498 924,494 917,489 910,484 904,478 899,471 895,463 
		891,455 888,446 886,436 889,427 890,416 891,405 889,396 894,389 898,381 902,373 907,367 915,362 923,358 932,355 942,353 
		951,351 962,351 972,353 980,357 988,361 994,367 999,374 1004,381 1006,391 1009,400 1011,410 1013,420 1013,432 1011,442 
		1008,451 1004,459 1000,467 995,473 988,479 983,486 976,490 969,495 960,498 	"/>
	<polygon fill="#00FF00" stroke="#800080" points="955.5,119.629 948.104,119.232 938,119 929,116 920,113 912,109 906,103 900,97 
		895,90 891,82 890,71 889,60 891,50 895,42 900,34 905,27 911,21 916,15 922,9 931,6 938.99,4.5 948.5,3 958.801,2 972,2 981,5 
		990,8 998,12 1006,16 1012,22 1017,29 1020,38 1022,48 1022,60 1021,71 1018,80 1014,88 1010,95 1004,102 997,106 989,111 982,115 
		972,117 964.348,118.044 	"/>
	<polygon fill="#00FF00" stroke="#800080" points="1018,908 1006,908 996,906 987,903 978,900 968,902 958,902 948,902 937,901 
		930,896 924,890 921,881 919,871 917,861 916,850 918,839 921,831 926,824 932,818 939,813 947,808 954,803 961,798 971,796 
		982,795 993,796 1003,798 1013,800 1021,804 1029,808 1039,810 1047,814 1052,821 1056,829 1060,837 1063,846 1064,857 1061,866 
		1058,874 1053,881 1048,888 1042,895 1035,900 1027,904 1019,907 	"/>
	<polygon fill="#00FF00" stroke="#800080" points="977.899,1024 977,1014 979,1004 983,995 987,987 992,980 998,975 1005,970 
		1013,965 1021,961 1031,959 1040,956 1052,956 1062,956 1072,958 1080.602,959.705 1088.41,964.321 1095.867,968.227 
		1104.395,974.619 1110,980 1116,986 1121,993 1124.767,1001.55 1128,1010 1130.673,1024 	"/>
	<polygon fill="#00FF00" stroke="#800080" points="1062,469 1051,468 1042,465 1036,459 1029,454 1024,447 1020,439 1017,430 
		1015,420 1016,409 1017,398 1019,387 1020,377 1024,369 1030,362 1035,355 1041,349 1048,344 1056,340 1064,336 1073,333 1083,333 
		1094,334 1103,337 1111,341 1117,347 1122,354 1127,361 1130,370 1133,379 1135,389 1135,400 1133,410 1129,419 1125,427 1120,434 
		1115,440 1109,446 1103,452 1096,458 1089,463 1081,466 1071,468 	"/>
	<polygon fill="#00FF00" stroke="#800080" points="1114,319 1103,318 1094,315 1086,311 1078,307 1071,302 1066,295 1062,287 
		1059,278 1054,271 1049,264 1046,255 1042,247 1039,238 1038,227 1040,217 1042,207 1046,198 1049,190 1055,183 1061,177 1067,172 
		1076,168 1085,165 1096,164 1107,165 1118,166 1127,169 1134,174 1140,180 1147,185 1154,190 1159,197 1163,205 1167,213 1171,221 
		1171,231 1173,241 1174,252 1172,262 1168,270 1164,277 1159,285 1156,293 1150,300 1144,305 1136,309 1128,313 1120,317 	"/>
	<polygon fill="#00FF00" stroke="#800080" points="1111,156 1099,156 1088,155 1076,155 1069,150 1062,145 1055,140 1050,133 
		1047,124 1044,115 1043,104 1042,93 1043,82 1046,73 1050,64 1055,57 1059,50 1066,44 1073,40 1081,35 1091,33 1101,31 1112,32 
		1122,34 1132,36 1141,39 1150,42 1158,46 1165,51 1170,58 1174,66 1177,75 1180,84 1180,96 1178,106 1177,117 1174,125 1169,133 
		1163,138 1155,142 1147,146 1138,149 1129,153 1119,154 	"/>
	<polygon fill="#00FF00" stroke="#800080" points="1280,317.044 1278,327 1274,334 1267,340 1259,343 1249,345 1237.637,346.406 
		1228.723,349 1219.252,347.52 1210,346 1203,341 1196,336 1187,333 1178,330 1172,324 1166,318 1163,309 1163,297 1166,288 
		1170,280 1173,270 1177,263 1182,256 1188,249 1194,244 1201,238 1207,232 1216,229 1227.484,229.147 1235,232 1243.093,235.36 
		1252.034,238.24 1262,241 1270,245 1280,251.879 	"/>
	<polygon fill="#00FF00" stroke="#800080" points="1280,0 1280,73.766 1266.646,78.82 1254.76,81.5 1240,82 1228,82 1218,80 
		1211,75 1207,67 1205,57 1200,50 1194,44 1190,36 1185,29 1182,20 1180,10 1180,0 	"/>
	<polygon fill="#00FF00" stroke="#800080" points="1280,203.887 1274,212 1268,217 1261,222 1251,224 1241,222 1231,220 1222,217 
		1215.933,212.339 1207.613,208 1199,204 1194,197 1190,189 1187,180 1183,172 1181,162 1182,152 1184,143 1185.822,133.892 
		1187.803,127.156 1193,120 1198.104,113 1204.839,105.5 1210,101 1219,97 1226,93 1235,90 1244,88 1254,86 1264,84 1273,87 
		1277.917,90.029 1280,93.5 	"/>
	<polygon fill="#00FF00" stroke="#800080" points="1280,527.237 1269.765,531.177 1260.218,530.722 1250,529 1241,526 1233,522 
		1225,518 1218,513 1211,508 1205,502 1201,494 1198,485 1195,476 1193,466 1191,456 1192,445 1194,434 1197,426 1202,419 1208,412 
		1213,406 1220,401 1227,395 1234,390 1241,385 1249.98,378.714 1259.082,373.994 1267.713,370.764 1280,367.707 	"/>
	<polygon fill="#00FF00" stroke="#800080" points="535,714 523,714 515,710 505,708 498,703 490,699 483,694 475.737,687 
		471.094,680.761 468,673 465,664 462,655 459,646 459,634 463,626 467,618 471,610 476,602 482,597 489,592 497,587 505,584 
		514,582 521.852,581.5 532.685,585.5 542.589,587.601 550.636,591 558.369,595.648 565.182,600.91 571,609 576,616 581,623 
		584,632 589,639 592.427,647 594.585,656 590.5,664 584.681,670.5 580.967,682 576,689 569,695 563,700 556,705 549,710 540,713 	
		"/>
	<polygon fill="#00FF00" stroke="#800080" points="599,354 587,354 577.386,354 567.93,354 558.761,351 549.305,347.377 
		540.991,342.219 531.823,336.202 525.522,332.764 519,328 512.055,322.162 506.897,316 502.312,306.689 499.447,297.519 498,289 
		498,277 499,266 502,257 505,247 509,240 515,234 523,229 530,225 539,221 548,219 557.615,217.574 567.93,216.428 
		578.531,216.428 590.448,217.287 598,220 606,224 613,229 620,234 628,238 634,244 641,249 649,253 655,259 660,266 663,275 
		665,285 665,295 664,305 660,314 655,320 649,327 643,332 636,337 629,342 621,347 613,350 604,353 	"/>
	<polygon fill="#00FF00" stroke="#800080" points="704,624 692,624 681,623 674,618 669,611 669,601 661.056,592.084 
		661.343,583.201 659.051,573.176 656.758,565.721 652,558 646.73,547.674 644.724,540 647,531 651,522 655.323,515.29 660.484,510 
		668,504 677,500 687,498 699,498 711,498 721,500 728.967,503.829 738.422,507.553 743.865,513.285 750,519 755.324,529.049 
		757.616,535.061 762.779,541.652 766.503,551.681 763.402,561 758,566 755,576 752,585 748,592 743,600 738,606 730,610 724,616 
		716,621 707,623 	"/>
	<polygon fill="#00FF00" stroke="#800080" points="735,444 725.528,444 716.645,440.79 707.476,438.497 698.307,435.635 
		689.71,428.469 685,422 680,415 675,408 670,401 667,392 664,383 664,371 663,360 666,351 670,343 675,336 681,329 687,323 
		694,318 700,313 709,309 717,305 728.394,303.823 738.709,305 749.025,306.975 760,310 768,314 776,318 782,324 788,330 793,337 
		798,344 803,351 806,359 808,370 808.625,382.049 808,394 804,401 799,409.27 794,416 788,422 781,427 772.807,431.052 
		763.638,434.199 755.324,438.497 748.448,441.363 742,444 	"/>
	<polygon fill="#00FF00" stroke="#800080" points="828,564 816,564 807,561 798,558 789.14,555.979 781.115,552.827 
		772.235,546.809 765,540 759,534.202 755.902,527.325 752,520 750,510 749,499 748,488 745,479 742,470 742,458 745,449 
		751.031,444 758.194,438.784 767.65,434.486 776.241,431.052 784,427 790,422 796.877,416.147 808,415 819,416 828,419 836,423 
		843,428 849,434 855,440 861,446 865,454 869,462 870,473 870,485 870,497 868,507 868,519 870,529 868,539 864,546 857,551 
		851,557 841,559 832,562 	"/>
	<polygon fill="#00FF00" stroke="#800080" points="627.336,538.517 618,540 606,540 595,539 583,539 573,537 565,533 557,529 
		548,526 540,522 532,518 526,512 522,504 519,495 515,487 513,477 509.781,467.724 508.326,458.269 506.897,447.094 
		506.897,435.635 509.781,423.597 511.482,415 515.49,404.685 518.76,396.146 522.944,387.78 529.243,381.762 533.828,374.5 
		540.709,368.868 547.869,366.002 555.323,363.71 565.638,361.418 575.73,360.765 584.65,360.765 594.585,362.277 602.315,363.424 
		609.765,366.289 617,370 624,375 631,380 637.848,387.523 644.724,396.124 649.634,402.814 655.05,409.504 658.235,415 
		661.42,420.971 666,429 669,438 672,447 674,457 673,468 671,478 670,489 666.783,498 663,505.261 657.045,510 651.713,516.403 
		646.253,524.247 641,531 635.6,535.633 	"/>
	<polygon fill="#00FF00" stroke="#800080" points="383.196,465.037 376.073,465.037 367.72,463.49 357.434,461.837 347.293,458.537 
		338,452.347 330.576,444 326,438.424 319,432 315,424 310,417 306,409 302,401 298,393 298,383 298,371 299,360 299,348 302,339 
		307,332 313,325 318,318 323,311 329.342,307.191 333.365,304 339.865,298.835 345.127,295.12 352.865,292.645 364.316,290.478 
		376.073,288.621 387.219,286.764 399.599,287.073 407.027,289.24 415,289 424,292 431.478,296.049 438.906,300.692 446,306 
		452,312 457,319 458.714,325.142 463.662,331.642 467.995,341.546 471,350.212 471,360 472.948,372.186 472.948,383.019 
		472.328,391.685 471,400.661 470,408 468.615,416.445 465.5,423.564 461,430.992 456.857,437 447,444 439.525,449.257 
		433.025,453.276 421.883,459 409,463.49 398.671,463.49 391.862,465.037 	"/>
	<polygon fill="#00FF00" stroke="#800080" points="429.617,631.552 419.717,631.552 414.451,624 404,628 394.028,629.693 
		384.12,629.693 373.601,628 364.935,626.598 355.65,621.956 347.603,616.5 340.175,610.5 332.743,602.457 329.652,595.029 
		325.009,585 322,576 322,566 323,555 326,546 331,538 335,530 339.865,524.467 346.365,519.201 354.102,514 363.697,510 375,510 
		385.476,510 396,513 404.551,515.801 412.285,521 421.883,526.938 430.549,534.367 436.43,541.5 440.763,546 447.882,553 
		451.905,559.746 454.381,566.554 456.548,572.745 457.781,579 461.19,589.767 461.19,600.291 461.19,607.409 455,618.86 
		447.202,623.235 438.906,630.312 	"/>
	<polygon fill="#00FF00" stroke="#800080" points="443,843 434,840 426,836 417,833 410,828 405,821 399,815 395,807 390,800 
		384,794 379,787 373,781 370,772 373,763 377,754 380,745 383,736 387,728 390,720 393,711 400,705 409,705 414,698 421,698 
		428,703 435,708 444,711 452,715 461,718 468,723 474,729 480,735 485,742 489,750 492,759 493,770 497,778 497,790 497,802 
		497,814 493,822 486,826 477,827 467,829 458,833 452,838 444,842 	"/>
	<polygon fill="#00FF00" stroke="#800080" points="583,187 572,186 563,183 554,180 547,175 542,168 535,163 530,156 526,148 
		521,141 518,132 515,123 512,114 510,104 510,92 514,83 516,74 523,68 531,64 540,61 552,61 562,59 572,61 581,64 591,66 601,68 
		606,75 612,81 618,87 623,94 627,102 629,112 631,122 632,133 631,144 627,151 622,159 617,165 611,171 604,176 597,181 589,185 	
		"/>
	<polygon fill="#00FF00" stroke="#800080" points="684,0 683,11 680,20 677,29 673,36 668,44 663,51 657,57 651,62 642,66 633,68 
		622,69 610,69 599,68 590,65 581,62 573,58 566,53 560,47 555,40 549,34 544,27 540,19 536,11 536,0 548,0 560,0 572,0 584,0 
		596,0 	"/>
	<polygon fill="#00FF00" stroke="#800080" points="656.041,1024 652.136,1018.312 650.005,1009.437 649,1000 648,989 650,979 
		653,970 654.976,961.866 660,953 666,947 673,941 681,938 690,934 699,931 710,930 720,932 729,935 737,939 744,944 750,950 
		757,955 763,961 767,969 771,979.261 772.84,990.976 772.84,1003.051 770.355,1014.408 768.225,1024 	"/>
	<polygon fill="#00FF00" stroke="#800080" points="637,958 625,958 614,957 602,957 591,956 585,950 578,945 572,939 567,932 
		562,925 554.862,918.554 551,912 543,908 540,899 540,887 540,877 541,866 543,856 547,848 551,840 557,833 564,829 572,824 
		580,820 590,820 601,821 612,822 621,825 627.281,827.675 635.805,831.576 642,840 645.391,847.907 652.136,851.5 660.656,856.427 
		668,862 673,869 678,876 680.532,883.052 683,895 683,907 681,917 678,926 675,935 671,942 664,948 657,953 649.651,956 
		642.906,958 	"/>
	<polygon fill="#00FF00" stroke="#800080" points="792,940 783,937 773,935 763,933 754,930 746,926 738,922 730,918 724,912 
		717,907 713,899 709,891 704,884 702,874 700,864 700,852 701,841 701,829 703,819 707,810 711,802 717,796 723,790 729,784 
		738,781 747,778 758,777 769,778 780,779 790,781 800,783 810,785 820,787 829,790 837,794 845,798 853,802 860,807 867,812 
		873,818 879,824 885,830 891,836 897,842 900,851 900,863 899,874 897,883 894,893 890,900 885,908 880,914 872,919 864,923 
		856,926 846,929 837,931 827,934 817,935 807,937 797,939 	"/>
	<polygon fill="#00FF00" stroke="#800080" points="848.262,253.147 836.931,254.449 829,253 823,247 817,241 809,237 802,232 
		798,224 795,215 792,206 790,197 790.5,189.812 790,180 793,171 797,163 804,157 810,152 816,145 823,140 830.033,135.476 
		838.358,131.911 845.489,129 855.394,127.156 866.883,125.177 878.77,127 884,131 890,137 896,143 902,149 907,156 912,163 
		915,172 916,183 915,194 913,204 911,214 906,221 899,226 893,232 887,238 881,244 874,248 866.091,247.6 857.375,250.77 	"/>
	<polygon fill="#00FF00" stroke="#800080" points="856,0 861,7 867,13 872,20 877,27 880,36 882,46 884,56 885,67 883,77 880,86 
		877.096,95.681 872.795,103.005 867,108 859,113 852,117 844,122 837,126 828,129 817.795,131.703 804.5,131.703 792,129 783,126 
		775,122 767,118 760,113 753,108 747,102 741,96 735,90 731,82 727,74 726,63 724,53 725,42 727,31 728,21 732,13 736,5 741.723,0 
			"/>
	<polygon fill="#00FF00" stroke="#800080" points="838.875,713.534 833,713 823,711 814,708 806,704 798,700 791,695 783,691 
		777,685 771,679 765,673 762,664 760,654 759,643 761,633 764,624 768,615 771,606 775,599 780,592 785,585 792,580 801,576 
		810,573 819,570 829,568 841,568 852,569 862,571 871,574 880,577 887,582 895,586 901,592 907,598 912,605 918,611 922,619 
		925,628 927,638 926,649 926,661 926,673 924,682 919,690 913,696 907,701 899,705 890,708 879,707 871.365,702.345 
		864.147,702.345 858.568,705.955 852,708.909 845,713 	"/>
	<polygon fill="#00FF00" stroke="#800080" points="1162.464,670.886 1154,669 1142.837,665.738 1135,660.912 1127.715,655.996 
		1121.602,649.65 1116,644 1109,639 1103,633 1097,627 1092,620 1088,612 1083,605 1080,596 1076,588 1072,580 1068,572 1064,564 
		1065,555 1067,545 1070,535 1075,528 1080,521 1086.209,515.48 1092.323,510.337 1101,506 1111,504 1121,502 1132,503 1142,505 
		1151,508 1161,510 1170,513 1179,516 1188,519 1196,523 1203,528 1209,534 1216,539 1223,544 1230,549 1236,555 1240.65,562 
		1244,571 1246.115,582.084 1248.049,595.596 1245.797,607.179 1243.223,617 1241.615,625.197 1237,636 1231,641 1224,646 1217,651 
		1210,656 1203,661 1194,664 1183.377,669.599 1173.404,670.886 	"/>
	<polygon fill="#00FF00" stroke="#800080" points="1048,781 1038,779 1030,775 1021,772 1013,768 1004,765 996,761 989,756 982,751 
		976,745 969,740 963,734 956,729 951.437,722.5 946,715 942,707 938,699 935,690 934,681 935,670 937,660 938,649 942,641 946,632 
		950,624 954,617 960,610 965,604 971,597 978,592 987,589 997,587 1006,588 1017,589 1027,591 1037,593 1047,595 1055,599 
		1063,603 1071,607 1079,611 1086,616 1092,622 1098,628 1104,634 1110,640 1116,646 1122,652 1128,658 1133,665 1138,672 1140,682 
		1142,692 1144,702 1145,713 1142,722 1139,731 1136,740 1133,749 1128,755 1120,759 1112,764 1105,768 1095,771 1086,773 1076,775 
		1066,777 1057.76,780 	"/>
	<polygon fill="#00FF00" stroke="#800080" points="1144,909 1134,907 1128,901 1121,896 1115,890 1110,883 1106,875 1103,866 
		1102,855 1103,844 1105,834 1109,825 1113,817 1118,810 1124,804 1130,799 1137,794 1145,790 1153,786 1163,783 1174,782 1183,785 
		1191,789 1199,793 1204.889,798.133 1210.571,805.59 1214.832,814.819 1217,824.761 1218.739,833.639 1218.739,847.489 
		1216.608,858.5 1212,866 1208,874 1203,880 1198.852,885.135 1190.325,892.944 1183,897 1176,901 1167.242,903.242 1159.5,904.75 
		1151.186,907.057 	"/>
	<polygon fill="#00FF00" stroke="#800080" points="1240.672,1024 1178.827,1024 1174.383,1017.494 1171.073,1012.338 
		1167.002,1004.298 1164,996 1162,986 1159.166,976.209 1156,968 1153,959 1151,949 1149.942,939.544 1152,930 1153.275,920.287 
		1157,911 1164,907 1175,906 1183,902 1192,899 1200,896 1212,895 1222,897 1231,900 1241,902 1250,905 1260,907 1268,911 1273,918 
		1275,928 1275,938 1275,948 1273,958 1269,966 1266,975 1261,982 1258,991 1255.318,1000.547 1251.767,1008.355 1247,1015 
		1244.005,1019.716 	"/>
	<polygon fill="#00FF00" stroke="#800080" points="957.5,1024 955.339,1019.44 953,1014.829 950.114,1012.063 946.733,1006.841 
		942.43,1004.072 936.59,1001.305 931.058,999.465 926.14,997.927 921.837,995.773 916,993.314 911.076,993.314 907.391,994.547 
		902.162,997.617 898.17,1000.385 894.965,1002.51 891.737,1006.01 888.642,1009.3 883.523,1014.149 880.19,1017.75 
		878.265,1019.957 876.347,1024 	"/>
	<polygon fill="#00FF00" stroke="#800080" points="474.939,342.701 470.577,349 471,356 472.948,364.31 472.948,372.186 
		472.948,378.291 472.948,386 472.948,393.121 471,400.661 470,408 470,415 470,420.661 472.948,425 476.281,427.44 
		478.752,431.256 482.566,433.371 485.108,435.636 488.073,441 493.156,444 499.937,441 503.75,441 506.897,435.635 
		506.897,429.982 509.781,423.597 511.8,416.847 513.531,409.729 516.199,402.83 518.76,396.146 522.209,389.25 526.793,384.105 
		530.339,380.032 532.947,375.901 538.11,370.996 543.146,367.893 549.069,365.634 554.071,364.095 556.712,360.765 555.017,356 
		551.201,354 543.154,349 537.646,345.243 531.287,341.854 526.793,337.617 520.698,334.5 515.921,332.669 509.781,329.567 
		504.174,329.567 498,329.567 490.192,329.567 	"/>
	<polygon fill="#00FF00" stroke="#800080" points="388.453,474.000 385.474,483.922 385.474,489.500 385.474,500.322 388.146,502.801 391.593,508.004 395.883,510.004 399.597,512.003 404.240,514.003 408.573,516.107 412.906,518.892 415.692,520.996 420.338,523.844 424.359,526.010 427.454,528.796 431.787,532.510 435.191,536.996 439.214,541.496 443.235,544.267 445.092,547.363 448.806,550.462 453.758,554.483 458.993,555.721 467.991,557.994 474.181,556.645 478.514,555.407 485.323,554.478 489.969,551.074 496.469,544.574 499.564,539.994 502.043,533.742 505.443,527.242 507.000,522.600 508.543,518.886 509.777,513.990 509.777,507.990 509.777,504.026 509.777,500.005 507.000,495.366 506.564,488.313 505.754,481.749 503.897,477.415 502.044,471.000 500.806,468.443 499.878,465.037 498.021,458.539 491.831,452.972 490.597,449.568 487.811,446.163 486.264,444.007 483.165,439.358 479.760,437.000 474.189,437.000 469.546,435.640 465.828,435.640 459.000,439.660 454.690,444.000 450.679,445.853 446.334,450.496 441.382,453.282 435.501,455.003 429.930,458.854 423.117,461.021 417.236,463.497 411.669,466.283 403.618,466.902 399.285,466.283 394.642,469.380 388.453,474.000"/>
	<polygon fill="#00FF00" stroke="#800080" points="1280.000,677.535 1273.391,669.000 1267.078,667.562 1260.421,665.809 1252.007,658.447 1240.786,655.994 1229.922,655.994 1217.000,657.748 1208.887,661.258 1196.967,666.342 1188.199,672.122 1183.295,677.385 1177.686,684.000 1170.674,692.104 1168.220,699.465 1165.767,709.632 1165.767,721.200 1165.767,730.315 1167.168,737.677 1168.566,743.636 1170.319,748.194 1172.072,756.608 1176.634,765.021 1183.295,772.734 1189.605,778.694 1199.421,782.002 1206.783,784.653 1212.000,790.966 1220.806,794.999 1231.325,799.728 1244.005,799.791 1254.112,799.791 1261.472,796.571 1270.587,791.312 1275.000,789.000 1280.000,782.000 1280.000,677.535"/>
	<polygon fill="#00FF00" stroke="#800080" points="0.000,135.000 7.481,141.000 18.000,142.000 30.000,138.000 35.409,136.451 48.269,130.500 57.999,125.783 66.784,118.880 74.938,112.609 80.904,107.000 87.497,99.114 94.396,90.643 99.729,81.540 105.063,75.579 111.652,67.999 114.000,60.522 115.000,49.541 115.000,41.070 115.000,32.000 112.275,24.126 109.000,16.000 104.749,11.267 99.729,6.000 94.396,3.000 92.000,1.000 0.000,1.000 0.000,135.000"/>
	<polygon fill="#00FF00" stroke="#800080" points="777.684,1024.000 776.148,1016.981 776.917,1009.912 776.917,1004.382 777.688,998.539 781.376,992.393 783.835,988.705 786.604,985.017 790.599,980.099 793.673,978.562 793.673,973.337 794.079,967.190 794.079,964.731 797.975,959.502 801.663,954.278 808.117,952.130 815.494,950.593 821.949,950.593 829.325,950.593 834.243,951.822 839.776,952.744 845.922,950.596 849.303,950.596 847.767,946.908 847.148,941.000 849.299,937.685 853.295,933.997 860.672,932.464 864.975,932.464 870.507,932.464 873.578,935.507 877.266,937.382 880.032,941.007 881.569,945.370 881.569,948.753 884.338,950.902 889.868,950.594 897.555,952.131 902.162,956.003 904.932,962.274 906.161,967.192 906.161,972.110 907.390,977.006 907.390,980.719 905.545,984.714 902.472,986.250 898.170,990.000 896.941,993.314 896.941,997.309 896.326,1000.997 893.560,1004.071 888.642,1009.299 885.261,1012.066 882.187,1015.754 879.114,1018.824 877.270,1021.283 876.347,1024.000 777.684,1024.000 777.684,1024.000"/>
	<polygon fill="#00FF00" stroke="#800080" points="521.545,574.000 531.287,576.000 538.066,579.000 547.811,583.000 555.014,587.000 561.792,591.000 569.419,596.916 575.773,599.461 584.247,601.576 590.444,601.576 597.805,601.576 605.431,598.186 610.515,594.373 615.176,587.647 618.566,583.001 621.108,578.001 622.803,568.001 622.803,564.001 622.803,561.001 622.803,553.001 620.261,546.001 615.177,543.001 608.398,540.001 600.348,540.001 590.444,540.001 581.707,540.001 573.000,537.000 565.000,533.000 557.000,529.000 548.000,526.000 540.608,523.000 534.676,521.000 529.592,517.500 524.931,514.000 521.118,512.000 518.152,512.000 513.352,514.000 509.777,521.000 506.893,529.552 504.596,537.000 502.901,544.000 501.206,550.500 501.206,558.000 499.514,564.000 504.175,570.000 509.779,574.000 521.545,574.000"/>
</g>
</svg>
