<?xml version="1.0" encoding="utf-8"?>
<!-- Generator: Adobe Illustrator 16.0.5, SVG Export Plug-In . SVG Version: 6.00 Build 0)  -->
<!DOCTYPE svg PUBLIC "-//W3C//DTD SVG 1.1//EN" "http://www.w3.org/Graphics/SVG/1.1/DTD/svg11.dtd">
<svg version="1.1" id="Layer_1" xmlns="http://www.w3.org/2000/svg" xmlns:xlink="http://www.w3.org/1999/xlink" x="0px" y="0px"
	 width="1360px" height="1024px" viewBox="0 0 1360 1024" enable-background="new 0 0 1360 1024" xml:space="preserve">
<g id="Raw_image">
	
		<image overflow="visible" enable-background="new    " width="1360" height="1024" xlink:href="normal_35.jpg"  transform="matrix(1 0 0 1 0 -2.441406e-004)">
	</image>
</g>
<g id="Not_annotated" display="none" opacity="0.5">
</g>
<g id="Clumps" display="none" opacity="0.5">
	<polygon display="inline" fill="#FF0000" stroke="#800080" points="61,232 51,232 46,227 39,224 33,220 28,215 23,210 20,203 
		18,195 18,185 20,176 22,169 26,163 31,157 36,153 42,148 49,145 56,142 65,141 73,143 81,145 87,149 93,153 98,158 103,163 
		104,172 103,181 105,189 104,196 101,202 96,208 92,213 87,218 81,223 75,227 69,230 	"/>
	<polygon display="inline" fill="#FF0000" stroke="#800080" points="80,114 72,112 65,109 58,106 51,103 46,98 41,93 37,87 34,80 
		32,72 32,62 35,54 38,48 43,43 49,38 55,34 61,30 69,29 78,29 85,32 90,37 95,42 98,49 101,56 104,63 105,72 109,76 108,85 106,93 
		102,98 97,104 92,108 85,112 	"/>
	<polygon display="inline" fill="#FF0000" stroke="#800080" points="151,190 144,187 137,184 129,182 122,179 116,175 111,170 
		106,165 105,156 107,148 110,141 114,134 118,128 123,123 129,119 136,117 146,116 153,119 159,123 164,128 168,134 171,141 
		174,148 177,151 176,160 174,167 170,174 166,179 161,184 155,188 	"/>
	<polygon display="inline" fill="#FF0000" stroke="#800080" points="146,398 140,394 133,391 134,384 138,378 143,373 148,367 
		151,361 152,351 157,346 161,341 164,334 167,327 168,318 167,309 165,301 160,296 152,294 144,292 138,288 133,283 128,278 
		125,271 124,262 124,252 126,243 128,236 132,229 136,223 141,218 147,215 155,212 164,213 172,215 178,219 183,224 188,229 
		191,236 193,244 195,252 200,257 209,256 216,253 224,255 230,259 234,265 236,273 236,281 240,287 246,291 249,298 249,305 
		244,310 241,316 246,321 252,319 255,314 261,318 265,324 266,333 264,341 261,348 258,355 255,362 251,368 246,372 241,377 
		234,380 227,383 219,386 212,388 204,390 195,391 185,391 177,393 168,395 160,396 150,397 	"/>
	<polygon display="inline" fill="#FF0000" stroke="#800080" points="246,502 238,500 232,496 226,492 220,488 215,483 210,478 
		205,473 200,468 201,458 204,452 210,447 217,445 225,442 232,439 241,438 249,440 256,443 264,445 270,444 272,436 274,428 
		277,420 280,413 283,407 287,400 291,395 295,389 301,385 308,382 318,381 328,381 336,383 342,387 348,391 352,397 357,402 
		360,409 360,419 359,428 362,433 362,441 360,448 356,455 351,459 345,464 339,468 332,470 324,472 315,473 306,472 300,468 
		293,465 286,462 278,461 276,469 280,475 277,482 273,487 268,493 263,498 256,500 247,501 	"/>
	<polygon display="inline" fill="#FF0000" stroke="#800080" points="711,0 717,4 722,9 726,15 729,22 730,31 731,40 736,42 731,47 
		727,53 723,59 726,61 725,65 719,70 713,73 706,76 697,77 688,76 689,74 698,73 707,72 714,70 710,68 702,68 692,68 684,66 677,63 
		672,58 668,52 664,46 661,39 659,31 659,22 661,14 664,8 669,2 	"/>
</g>
<g id="Single_nuclei" opacity="0.3">
	<path fill="#00FF00" stroke="#800080" d="M0,1"/>
	<polygon fill="#00FF00" stroke="#800080" points="19,1023 21,1017 27,1013 36,1011 43,1008 51,1006 61,1006 70,1007 78,1009 
		86.686,1016.645 90.314,1023.448 	"/>
	<polygon fill="#00FF00" stroke="#800080" points="60,603 50,603 45,598 40,593 35,588 33,580 32,571 33,562 36,554 39,548 44,542 
		49,538 56,534 64,532 74,532 81,535 86,540 91,545 95,551 95,559 96,568 94,576 91,582 87,588 81,593 74,595 68,599 61,602 	"/>
	<polygon fill="#00FF00" stroke="#800080" points="105.763,458.454 102,457 97,452 92,447 86.79,441.642 82,437 78,431 74,425 
		72,417 73,409 76,403 81,398 87,393 93,389 100,386 110,386 117.772,388.564 124.497,392.647 128,398 132,404 136,410 138,418 
		139.147,426.271 138.187,433.718 136.025,439.481 133.143,445.245 129.06,450.288 124.257,454.371 118.733,456.052 
		112.728,457.734 	"/>
	<polygon fill="#00FF00" stroke="#800080" points="148,540 138,540 129,539 123,535 120,528 117,521 114,514 113,505 114,496 
		116,488 120,482 125,476 131,473 139,470 148,471 156,473 162,477 167,482 171,488 173,496 174.212,503.606 173.252,512.012 
		172,519 168,525 164,530 158,535 152,538 	"/>
	<polygon fill="#00FF00" stroke="#800080" points="172.25,985.75 166,986 159,983 154,978 148,974 143,969 139,963 138,954 140,946 
		142,938 145,931 149,924 153,919 159,914 167,912 175,914 182,917 188,921 192.5,925.75 196,931.75 199,940.5 200,949 198,957 
		196,964 192,971 188,977 184,982 177,985 	"/>
	<polygon fill="#00FF00" stroke="#800080" points="186.96,827.219 180,828 173,825 167,823 161,819 156,814 152,808 150,800 
		149,791 151,783 154,775 158,769 162,764 168,760 175,756 182,753 189,750 196.793,748.775 205,750 212,753 218,757 223,762 
		226,769 231,774 235,780 235,790 234,799 231,806 227,812 222,817 216,821 209,824 202,826 193,827 	"/>
	<polygon fill="#00FF00" stroke="#800080" points="214.168,727.068 199.383,735.742 188,736 182,732 176,728 172,722 169,715 
		167,707 166,698 167,689 169,681 172,674 176,667 180,662 186,657 193,654 202,653 209,656 215,660 219,666 223,672 
		226.254,684.068 228.756,691.386 228.165,702.032 226.982,707.946 221.66,717.605 	"/>
	<polygon fill="#00FF00" stroke="#800080" points="168.773,1022.541 168,1016 172,1010 179,1006 186,1004 195,1002 203,1004 
		211,1006 217,1010 222,1015 225.008,1022.541 	"/>
	<polygon fill="#00FF00" stroke="#800080" points="230,106 220,106 213,103 207,99 202,94 197,89 193,83 190,76 189,67 189,59 
		191,51 195,45 201,40 207,37 215,34 224,35 232,37 238,41 243,46 247,52 251,58 255,64 257,72 256,81 254,88 250,94 245,99 
		238,103 231,105 	"/>
	<polygon fill="#00FF00" stroke="#800080" points="230,625 220,625 213,622 207.703,620.524 202.662,619.804 198,619 
		195.64,614.943 195.281,610.442 192,605 190,597 190,587 192,579 198,574 203,570 210,567 218,564 228,564 236,566 242,570 
		247,575 250.194,580.194 254,588 258,594 258,604 256,611 251,616 244,620 237,623 	"/>
	<polygon fill="#00FF00" stroke="#800080" points="283,933 274,932 267,929 261,925 257,919 253,913 249.255,905.578 247,899 
		246,890 246,881 246,872 249,865 253,858 258,853 264,850 272,847 281,846 290,847 297,850 303,854 307,860 311,866 314,873 
		317,880 317.959,888.369 318,897 316,905 313,912 310,918 305,923 299,927 292,931 288.166,931.903 	"/>
	<polygon fill="#00FF00" stroke="#800080" points="314,578 306,576 298,574 290,572 284,568 278,564 273,559 270,552 267,545 
		266,536 267,527 269,519 273,513 278,508 285,504 292,501 300,499 309,498 318,499 325,502 331,506 336,511 340,517 343,524 
		346,531 348,539 350,546 347,554 343,560 339,565 334,570 327,574 319,576 	"/>
	<polygon fill="#00FF00" stroke="#800080" points="319,683 309,683 301,681 295,677 290,672 287,665 284,658 281,651 280,642 
		282,634 286,628 291,622 297,618 303,615 311,612 319,612 328,613 335,616 340,621 345,626 349,632 351,640 351,650 349,657 
		345,664 341,670 336,674 330,678 323,681 	"/>
	<polygon fill="#00FF00" stroke="#800080" points="311,1023 313,1017 318,1012 326,1009 335,1010 342,1013 347,1018 350,1023 	"/>
	<polygon fill="#00FF00" stroke="#800080" points="408,431 400,431 393,428 385,426 378,423 373,418 368,413 365,406 365,398 
		367,390 370,383 374,377 379,372 385,367 391,364 399,361 407,361 415,363 421,367 426,372 430,378 435,383 437,391 437,400 
		434,407 430,414 426,419 421,424 415,428 	"/>
	<polygon fill="#00FF00" stroke="#800080" points="414,765 405,764 398,761 393,756 389,750 385,744 381,738 378,731 378,723 
		381,715 384,709 390,705 397,701 405,699 414,700 422,702 428,706 434,710 437,717 441,723 443,731 443,740 440,748 437,755 
		432,759 425,762 417,764 	"/>
	<polygon fill="#00FF00" stroke="#800080" points="410,637 402,635 397,630 395,622 390,617 385,612 382,605 380,597 379,588 
		381,579 384,573 390,568 396,564 402,560 409,558 418,556 428,556 435,559 441,563 444,570 448,576 448,586 446,594 444,601 
		441,608 437,614 432,620 428,625 422,630 416,633 	"/>
	<polygon fill="#00FF00" stroke="#800080" points="436,326 426,326 418,324 412,320 404,318 398,314 393,309 389,303 387,295 
		387,285 389,277 392,269 395,263 400,258 406,253 412,249 418,245 425,242 434,241 444,241 453,242 460,245 465,250 470,255 
		474,261 478,267 481,274 480,283 478,291 475,298 472,304 466,309 461,313 455,317 448,321 442,324 	"/>
	<polygon fill="#00FF00" stroke="#800080" points="429.997,1022.994 423,1019 416,1016 411,1011 407,1005 405,997 406,988 407,979 
		411,973 417,968 424,965 432,963 441,964 448,967 455,970 462,973 469,976 476,979 481,984 485,990 487,998 487,1008 484,1014 
		474.442,1022.994 	"/>
	<polygon fill="#00FF00" stroke="#800080" points="469,551 460,550 452,548 444,546 440,540 436,534 433,527 431,519 432,510 
		436,504 440,498 446,493 453,491 462,489 472,489 481,490 487,494 492,499 497,504 501,510 501,520 499,527 495,534 490,539 
		485,543 479,547 472,550 	"/>
	<polygon fill="#00FF00" stroke="#800080" points="485,720 476,719 470,715 465,710 461,704 458,697 455,690 453,682 453,673 
		454,665 458,658 464,654 470,650 478,648 486,650 491,655 496,660 501,665 506,670 510,676 512,684 512,694 510,702 506,708 
		501,713 495,717 488,719 	"/>
	<polygon fill="#00FF00" stroke="#800080" points="498,444 489,443 481,441 475,437 470,432 466,426 465,417 467,409 470,402 
		475,396 480,391 487,388 494,385 503,384 511,386 518,389 524,393 529,398 534,403 537,410 537,418 534,425 529,430 523,433 
		517,437 510,441 503,443 	"/>
	<polygon fill="#00FF00" stroke="#800080" points="561,874 552,873 543,872 535,870 528,867 523,862 518,857 513,852 510,845 
		507,838 504,831 504,821 507,813 512,808 519,805 528,804 537,803 545,805 550,810 553,817 559,821 568,822 574,826 579,831 
		581,839 580,848 579,856 576,863 571,869 565,872 	"/>
	<polygon fill="#00FF00" stroke="#800080" points="576,374 566,374 557,373 550,370 543,367 537,363 532,358 528,352 525,345 
		523,337 524,327 527,321 532,315 537,311 543,307 551,304 561,304 569,306 577,308 583,312 588,317 593,322 597,328 600,335 
		603,342 601,350 598,357 593,362 588,366 582,371 	"/>
	<polygon fill="#00FF00" stroke="#800080" points="610,778 600,778 592,776 587,771 582,766 576,762 570,758 566,752 562,746 
		559,739 559,729 562,721 566,716 572,711 579,708 586,706 595,704 605,704 613,706 619,710 625,714 631,718 635,724 639,730 
		643,736 644,745 642,753 639,760 635,766 630,770 624,774 616,776 	"/>
	<polygon fill="#00FF00" stroke="#800080" points="617,566 608,565 602,561 596,557 592,551 589,544 586,537 581,532 577,526 
		574,519 575,510 577,501 581,496 587,491 594,488 600,484 607,481 614,478 624,478 631,481 637,485 642,490 646,496 650,502 
		654,508 655,516 654,525 651,533 648,540 645,547 641,553 636,557 630,561 623,564 	"/>
	<polygon fill="#00FF00" stroke="#800080" points="633,438 623,438 614,437 606,435 599,432 594,427 590,421 587,414 586,405 
		588,397 592,391 598,386 604,383 611,379 618,376 625,373 634,374 639,379 644,384 647,391 649,399 651,407 652,414 650,422 
		647,428 642,433 635,437 	"/>
	<polygon fill="#00FF00" stroke="#800080" points="677,713 668,712 661,711 656,706 651,701 648,694 645,687 646,677 648,669 
		651,663 656,658 661,652 668,649 676,647 684,645 693,646 700,649 705,654 706,663 708,670 704,676 704,679 706,687 706,697 
		704,705 698,708 690,710 682,712 	"/>
	<polygon fill="#00FF00" stroke="#800080" points="777,625 768,624 759,623 751,621 744,618 738,614 733,609 729,603 726,596 
		724,588 725,579 728,571 730,563 734,557 739,552 746,549 755,548 764,549 771,552 778,555 785,558 791,562 796,567 800,573 
		804,579 806,587 807,596 804,602 800,609 796,614 790,618 783,622 	"/>
	<polygon fill="#00FF00" stroke="#800080" points="767,164 757,164 750,161 745,156 741,150 738,143 734,137 733,128 734,119 
		736,110 738,103 742,97 747,92 754,88 762,86 771,87 778,90 784,94 791,97 798,100 805,103 810,108 812,116 812,122 812,132 
		811,141 808,148 804,153 798,158 791,161 782,161 773,162 	"/>
	<polygon fill="#00FF00" stroke="#800080" points="845,100 836,99 831,94 826,89 821,84 818,77 815,70 815,60 816,51 818,43 822,37 
		828,32 835,29 843,27 851,27 859,29 866,32 871,37 877,41 881,47 885,53 889,59 890,68 888,76 885,82 880,88 875,92 868,96 861,98 
		852,99 	"/>
	<polygon fill="#00FF00" stroke="#800080" points="895,246 887,244 879,242 871,240 865,236 859,232 854,227 849,222 846,215 
		843,208 842,199 841,190 843,181 846,174 850,168 854,163 860,158 866,154 873,152 882,150 891,151 899,153 906,156 911,161 
		916,166 919,173 922,180 924,188 924,195 922,202 925,209 923,217 921,225 918,231 913,237 908,241 902,245 	"/>
	<polygon fill="#00FF00" stroke="#800080" points="898,575 889,574 881,572 875,568 869,564 865,558 860,553 856,547 852,541 
		849,534 846,527 847,517 849,510 854,505 860,500 866,496 873,493 882,492 892,492 899,495 904,500 908,506 912,512 914,520 
		917,527 920,534 924,540 923,549 920,556 917,563 912,568 907,572 899,574 	"/>
	<polygon fill="#00FF00" stroke="#800080" points="1054.884,513.03 1050.662,524.929 1044.521,532.99 1029.935,535.677 
		1008.824,534.141 997.693,530.686 983.491,525.697 967.754,517.636 959.31,507.273 954.703,494.606 951.171,474.415 
		952.171,464.415 954.171,457.415 959.171,452.415 965.171,447.415 971.171,443.415 978.171,440.415 987.171,439.415 
		997.171,439.415 1006.905,441.637 1013.046,445.86 1015.35,452.001 1016.501,460.061 1021.474,467.031 1025.329,472.344 
		1029.167,474.263 1036.46,477.718 1042.602,480.405 1049.895,488.849 1054.884,500.748 	"/>
	<polygon fill="#00FF00" stroke="#800080" points="886,1017 877,1016 870,1013 863,1010 859,1004 855,998 853,990 852,981 855,974 
		858,966 860,959 865,954 872,950 881,949 891,949 898,952 904,956 908,962 911,969 913,977 913,987 912,995 909,1002 904,1008 
		899,1012 892,1015 	"/>
	<polygon fill="#00FF00" stroke="#800080" points="910,896 901,895 896,890 892,884 884,882 876.984,880.816 872,880 866,876 
		863,869 863,859 865,851 869,844 873,838 878,834 885,831 894,829 903,830 910,833 916,837 921,842 926,847 930,853 931,862 
		930,871 929,879 926,886 921,891 914,895 	"/>
	<polygon fill="#00FF00" stroke="#800080" points="946,0 942,3 935,6 928,9 920,8 911,8 903,6 896,3 	"/>
	<polygon fill="#00FF00" stroke="#800080" points="952,128 943,127 935,125 929,121 924,116 921,109 919,101 921,93 924,86 928,80 
		933,75 939,70 945,66 954,65 964,65 971,68 976,73 981,78 986,83 989,90 990,99 989,106 987,113 982,119 976,122 969,125 961,127 	
		"/>
	<polygon fill="#00FF00" stroke="#800080" points="1007.237,748.842 1002,748 995,745 988,742 982,738 976.753,731.957 973,727 
		970,720 967,713 966,704 968,695 971,689 976,683 982,679 989,676 997,674 1007,674 1016,675 1023,678 1030,681 1036,685 1041,690 
		1044,697 1047,704 1047,714 1045,722 1042,729 1038,734 1033,739 1027,743 1020,746 1014.74,747.316 	"/>
	<polygon fill="#00FF00" stroke="#800080" points="1017,910 1007,910 999,908 993,904 988,899 985,892 983,884 984,875 987,868 
		991,862 995,855 999,850 1005,845 1011,841 1018,839 1028,838 1037,837 1045,839 1052,842 1057,847 1062,852 1065,859 1065,869 
		1063,876 1059,882 1054,887 1048,891 1042,896 1037,900 1031,904 1024,907 	"/>
	<polygon fill="#00FF00" stroke="#800080" points="1064,0 1063,6 1058,11 1051,14 1042,15 1033,16 1025,18 1017,16 1012,11 1008,5 	
		"/>
	<polygon fill="#00FF00" stroke="#800080" points="1097,244 1088,243 1082,239 1077,234 1074,227 1071,220 1069,212 1069,202 
		1071,194 1073,186 1078,180 1084,177 1092,174 1099,172 1107,169 1115,171 1121,175 1126,180 1129,187 1132,194 1134,202 1135,211 
		1133,218 1129,225 1125,230 1120,235 1114,239 1106,241 1098,243 	"/>
	<polygon fill="#00FF00" stroke="#800080" points="1101,98 1092,97 1087,92 1080,89 1077,82 1073,76 1071,68 1071,58 1073,49 
		1076,43 1081,37 1086,32 1091,28 1097,23 1104,20 1112,18 1122,18 1129,21 1133,27 1136,34 1139,41 1139,51 1137,58 1133,65 
		1129,71 1126,77 1122,84 1118,89 1112,94 1105,97 	"/>
	<polygon fill="#00FF00" stroke="#800080" points="1118,388 1110,386 1105,381 1100,376 1095,371 1091,365 1087,359 1085,351 
		1086,342 1089,335 1093,329 1098,324 1104,320 1112,317 1122,317 1130,319 1137,322 1142,327 1147,332 1150,339 1152,347 1152,356 
		1149,364 1146,371 1142,377 1137,381 1131,385 1123,387 	"/>
	<polygon fill="#00FF00" stroke="#800080" points="1121,847 1111,847 1104,844 1099,839 1095,833 1092,826 1091,817 1092,808 
		1094,800 1097,793 1102,787 1108,783 1115,780 1123,780 1131,782 1137,786 1142,791 1144,799 1146,807 1146,817 1145,826 1141,832 
		1136,837 1131,841 1125,845 	"/>
	<polygon fill="#00FF00" stroke="#800080" points="1187,966 1177,966 1167,966 1158,965 1149,964 1143,960 1137,956 1131,952 
		1126,947 1123,940 1123,930 1124,921 1127,914 1131,908 1135,902 1140,897 1147,893 1156,892 1166,892 1176,892 1185,891 1194,892 
		1200,896 1205,901 1207,909 1207,919 1209,927 1210,936 1209,945 1207,953 1204,959 1198,963 1190,965 	"/>
	<polygon fill="#00FF00" stroke="#800080" points="1201,330 1191,330 1184,327 1178,323 1174,317 1170,311 1167,304 1164,297 
		1161,290 1161,280 1163,272 1166,265 1170,258 1175,254 1182,250 1190,248 1199,249 1208,248 1215,251 1220,256 1224,262 1227,269 
		1227,277 1230,284 1229,293 1226,300 1222,306 1218,311 1214,318 1211,325 1205,328 	"/>
	<polygon fill="#00FF00" stroke="#800080" points="1209,215 1199,215 1192,212 1187,207 1181,203 1177,197 1174,190 1172,182 
		1171,173 1172,164 1174,155 1176,148 1180,142 1185,137 1191,132 1198,129 1207,128 1216,129 1223,132 1229,136 1233,142 1235,150 
		1237,158 1238,167 1238,177 1236,185 1234,192 1230,199 1226,205 1221,209 1215,213 	"/>
	<polygon fill="#00FF00" stroke="#800080" points="1227,821 1218,820 1210,818 1203,815 1197,811 1193,805 1189,799 1185,793 
		1183,785 1184,776 1187,769 1193,764 1201,762 1207,759 1215,756 1223,758 1229,762 1235,766 1240,771 1244,777 1246,785 1245,794 
		1244,802 1241,809 1237,815 1231,819 	"/>
	<polygon fill="#00FF00" stroke="#800080" points="1312,162 1303,161 1298,156 1292,152 1286,148 1281,143 1276,138 1272,132 
		1268,126 1265,119 1263,111 1262,102 1264,94 1266,86 1271,81 1276,76 1282,72 1289,69 1298,67 1307,68 1314,71 1320,75 1325,80 
		1331,84 1335,90 1339,96 1342,103 1343,112 1344,121 1343,130 1342,138 1339,145 1334,151 1329,155 1323,159 1315,161 	"/>
	<polygon fill="#00FF00" stroke="#800080" points="1315,881 1305,881 1298,878 1289,877 1282,874 1275,871 1270,866 1266,860 
		1262,854 1262,844 1264,836 1268,830 1274,825 1280,821 1288,819 1296,817 1306,817 1315,818 1324,819 1332,821 1338,825 1344,829 
		1347,836 1349,844 1350,853 1349,861 1345,867 1339,872 1332,874 1325,877 1318,880 	"/>
	<polygon fill="#00FF00" stroke="#800080" points="1357.2,714.219 1356,724 1355,734 1354,743 1352,751 1348,756 1341,757 1332,758 
		1325,762 1319,765 1310,764 1304,760 1300,754 1297,747 1299,739 1298,730 1297,721 1298,712 1302,706 1309,702 1316,699 1322,695 
		1327,691 1335,688 1343,688 1349,692 1354,697 1356,705 	"/>
	<polygon fill="#00FF00" stroke="#800080" points="60,225 50,225 42,223 35.505,220.052 28.226,214.832 23.831,209.476 22,203 
		19.024,194.644 18.612,186.404 20,177 24,171 29.737,164.567 34.955,158.661 40.312,155.091 46,152 52,149 60,146 67,145 75,147 
		83,149 90,152 96,156 99,163 101.015,170.747 100.328,181.871 97.856,189.425 94,196 90,202 86,207 81,213 76.981,217.991 
		71.9,221.562 65.445,223.897 	"/>
	<polygon fill="#00FF00" stroke="#800080" points="75,110 66,109 58,107 51,104 46,99 41,94 37,88 34,81 32,73 31,66 32,57 34,48 
		40,44 45,40 51,35 59,33 67,31 76,30 84,32 89,37 94,42 98,48 102,54 105,61 106,70 104,78 103,86 100,94 96,99 89,103 83,106 
		76,109 	"/>
	<polygon fill="#00FF00" stroke="#800080" points="148,183 139,182 130,181 124,177 119,172 115,166 112,159 111,151 113,144 
		115,136 119,130 123,124 130,120 138,118 148,118 154,122 161,125 165,131 168,138 171,145 172,154 170,160 167,167 164,173 
		160,179 152,182 	"/>
	<polygon fill="#00FF00" stroke="#800080" points="159,291 149,291 142,288 136,284 131,279 127,273 125,265 124,256 126,248 
		128,240 130,232 134,225 138,219 144,215 152.517,212.91 161,212 168,213 175,216 182,219 186,225 189,232 193,238 192,246 
		190,255 189,264 186,271 182,277 178,282 170,284 163,287 	"/>
	<polygon fill="#00FF00" stroke="#800080" points="246,502 238,500 232,496 226,492 220,488 215,483 210,478 205,473 200,468 
		201,458 204,452 210,447 218,446 225,442 232,439 241,438 249,440 256,443 263,446 268,451 271,458 274,465 274,475 273,483 
		271,490 266,495 261,499 253,501 	"/>
	<polygon fill="#00FF00" stroke="#800080" points="322,472 313,471 305,471 299,467 291,465 284,462 280,456 276,450 273,443 
		272,436 274,428 277,420 280,413 283,407 287,400 291,395 295,389 301,385 308,382 318,381 328,381 336,383 342,387 348,391 
		352,397 357,402 360,409 360,419 359,428 362,433 362,441 360,448 356,455 351,459 345,464 339,468 332,470 323,471 	"/>
	<polygon fill="#00FF00" stroke="#800080" points="691,0 701,0 710,1 717,4 722,9 726,15 729,22 730,31 730,40 727,47 724,55 
		719,60 713,64 706,66 698,68 690,66 683,63 677,59 672,54 668,48 664,42 662,34 661,25 661,15 664,7 670,4 678,1 	"/>
	<polygon fill="#00FF00" stroke="#800080" points="294.96,0.526 299.417,11.872 303.064,22.408 307.927,34.971 313.6,45.912 
		319.679,55.233 328.999,60.906 341.156,59.69 350.882,56.448 359.797,53.612 366.686,47.533 370.333,40.239 370.739,31.324 
		365.47,22.408 358.177,15.52 351.693,11.062 346.425,6.199 342.778,0.526 	"/>
	<polygon fill="#00FF00" stroke="#800080" points="310.764,96.972 308.738,109.129 309.953,120.071 313.6,131.823 320.084,143.169 
		327.784,151.679 338.725,158.163 350.072,158.973 361.823,156.542 371.144,150.868 376.817,144.385 381.275,137.901 
		384.112,128.986 385.733,120.881 385.327,111.966 382.896,101.024 378.438,91.704 373.17,84.005 366.686,78.737 358.582,73.469 
		350.882,71.442 339.13,71.847 328.189,73.874 319.679,79.952 314.816,88.462 	"/>
	<polygon fill="#00FF00" stroke="#800080" points="559.805,604.075 553.87,612.75 554.783,625.987 557.523,636.486 565.283,645.616 
		576.239,650.637 587.651,650.181 596.324,644.703 606.367,637.856 611.389,629.638 613.672,617.77 615.041,610.467 613.672,602.25 
		608.65,596.771 602.716,590.382 597.238,583.533 591.49,578.276 586.036,575.26 582.207,576.421 580.931,581.525 576.29,589.881 
		568.516,597.538 	"/>
	<polygon fill="#00FF00" stroke="#800080" points="508.677,584.446 504.569,594.032 505.938,604.988 510.047,612.75 
		516.894,617.313 526.024,617.77 535.611,611.837 542.002,608.64 551.132,605.444 560.718,600.881 567.565,596.771 573.956,591.75 
		578.521,584.902 580.347,577.598 579.891,568.469 574.413,561.621 567.109,558.427 559.805,554.317 552.045,552.035 
		542.458,552.947 535.154,555.686 526.937,561.165 520.09,567.555 513.242,575.316 	"/>
	<polygon fill="#00FF00" stroke="#800080" points="962.838,605.391 957.796,614.035 958.876,624.12 964.999,632.763 
		975.445,638.526 985.529,639.969 994.173,637.446 1000.656,632.045 1002.456,626.281 998.854,618.357 996.334,612.955 
		994.533,605.753 992.372,600.349 981.567,598.908 971.122,600.709 	"/>
	<polygon fill="#00FF00" stroke="#800080" points="999.215,588.465 995.614,593.145 994.533,599.268 995.974,606.832 
		998.135,614.395 1001.016,619.078 1003.898,625.2 1006.059,630.243 1013.621,632.045 1021.906,632.404 1030.19,629.162 
		1034.511,624.12 1038.833,617.997 1040.994,611.514 1041.715,605.031 1040.634,599.63 1036.672,592.786 1030.909,588.103 
		1024.427,584.503 1014.702,583.061 1006.779,584.503 	"/>
	<polygon fill="#00FF00" stroke="#800080" points="949.584,1024.08 952.538,1020.66 957.201,1018.175 961.865,1017.24 
		966.684,1017.396 971.502,1018.484 975.389,1020.194 978.342,1022.216 979.741,1023.926 	"/>
	<polygon fill="#00FF00" stroke="#800080" points="71.5,798.504 63.5,801.504 57.167,807.504 55.5,816.838 57.167,828.171 
		59.834,838.504 63.167,846.838 68.5,853.504 74.5,857.504 80.167,862.171 84.5,866.838 92.834,866.838 98.834,865.838 
		105.834,862.838 110.5,857.838 115.167,852.504 117.834,844.838 118.834,838.504 118.5,829.171 116.5,819.504 111.5,810.504 
		104.5,804.838 96.834,799.838 86.5,796.838 79.167,796.504 	"/>
	<polygon fill="#00FF00" stroke="#800080" points="43.834,807.171 49.834,806.838 54.371,807.863 55.218,811.84 54.238,817.5 
		56.306,827.953 57.83,834.923 59.355,840.365 61.315,845.156 63.275,848.75 67.167,854.171 73.727,858.221 78.409,862.577 
		78.844,869.328 74.167,875.838 69.5,881.171 62.5,883.838 54.5,883.838 46.167,881.838 38.834,878.504 32.167,873.504 
		26.834,869.171 22.167,861.838 20.5,851.504 20.834,840.838 22.5,832.504 25.493,824.904 29.5,818.171 34.834,811.838 
		39.5,808.504 	"/>
</g>
</svg>
