<?xml version="1.0" encoding="utf-8"?>
<!-- Generator: Adobe Illustrator 16.0.1, SVG Export Plug-In . SVG Version: 6.00 Build 0)  -->
<!DOCTYPE svg PUBLIC "-//W3C//DTD SVG 1.1//EN" "http://www.w3.org/Graphics/SVG/1.1/DTD/svg11.dtd">
<svg version="1.1" id="Layer_1" xmlns="http://www.w3.org/2000/svg" xmlns:xlink="http://www.w3.org/1999/xlink" x="0px" y="0px"
	 width="1280px" height="1024px" viewBox="0 0 1280 1024" enable-background="new 0 0 1280 1024" xml:space="preserve">
<g id="Raw_image">
	
		<image overflow="visible" enable-background="new    " width="1280" height="1024" xlink:href="normal_21.jpg"  transform="matrix(1 0 0 1 2.441406e-004 0.9998)">
	</image>
</g>
<g id="Not_annotated" opacity="0.5">
	<path fill="#0000FF" stroke="#800080" d="M0,1"/>
	<polygon fill="#0000FF" stroke="#800080" points="0,964 3,971 4,982 3,993 0,999 	"/>
	<polygon fill="#0000FF" stroke="#800080" points="225,0 220,5 210,7 201,9 191,11 180,12 169,11 158,10 149,7 139,5 133,0 	"/>
	<polygon fill="#0000FF" stroke="#800080" points="211,321 207,314 214,315 	"/>
	<polygon fill="#0000FF" stroke="#800080" points="1279,497 1273,493 1270,484 1267,475 1268,463 1270,454 1272,444 1275,435 	"/>
</g>
<g id="Clumps" display="none" opacity="0.5">
	<polygon display="inline" fill="#FF0000" stroke="#800080" points="103,1023 100,1014 98,1004 99,993 101,983 103,973 108,965 
		113,959 119,952 126,947 130,940 125,933 117,929 109,925 103,919 99,911 95,903 94,892 94,880 97,870 101,863 107,856 114,852 
		123,848 132,846 142,843 153,842 163,842 175,842 185,844 193,848 201,852 207,858 211,866 213,876 212,887 210,897 206,905 
		202,913 197,920 191,925 184,931 182,939 187,946 192,953 195,962 195,974 196,985 195,996 194,1007 191,1016 	"/>
	<polygon display="inline" fill="#FF0000" stroke="#800080" points="540,812 529,811 520,808 510,806 503,801 497,795 493,787 
		490,778 487,769 487,757 492,749 499,745 507,741 514,735 521,730 527,724 531,717 524,712 518,706 512,700 506,694 500,690 
		499,701 497,711 493,720 489,728 488,739 483,746 476,750 465,751 455,751 444,750 437,745 429,741 422,736 413,733 407,727 
		402,720 398,712 395,703 391,695 393,685 397,677 399,667 404,659 412,656 420,653 428,649 438,647 446,644 453,639 462,639 
		471,642 477,648 484,653 490,659 495,655 496,644 499,635 502,626 505,617 508,608 515,602 522,597 531,594 539,590 550,589 
		562,589 572,591 580,595 588,599 595,604 603,608 607,616 610,625 613,634 616,643 617,654 616,665 611,672 605,678 599,683 
		594,691 590,699 586,706 580,712 581,720 587,726 596,729 604,733 609,740 611,750 609,760 608,771 607,782 603,789 596,794 
		587,797 577,800 568,802 560,806 551,809 541,811 	"/>
	<polygon display="inline" fill="#FF0000" stroke="#800080" points="727,735 719,731 725,724 726,718 717,722 709,723 704,716 
		707,706 712,700 711,691 708,682 708,671 710,662 715,654 718,645 721,637 728,632 735,626 742,622 750,617 758,613 769,612 
		780,613 789,616 796,621 802,627 806,635 808,645 807,656 804,665 801,674 799,684 793,689 787,696 782,703 777,710 772,716 
		767,723 756,722 747,723 738,726 732,732 	"/>
	<polygon display="inline" fill="#FF0000" stroke="#800080" points="981,179 970,178 960,176 951,173 944,168 938,162 933,155 
		929,147 924,140 924,128 925,117 926,106 929,96 932,88 935,79 940,72 945,65 951,58 957,52 964,47 972,43 983,42 994,41 1004,43 
		1014,45 1023,48 1029,54 1036,59 1041,66 1047,72 1051,80 1053,90 1053,100 1056,109 1056,120 1053,130 1049,138 1045,145 
		1040,152 1034,158 1027,163 1019,167 1010,171 1002,175 993,177 982,178 	"/>
</g>
<g id="Single_nuclei" opacity="0.5">
	<polygon fill="#00FF00" stroke="#800080" points="587.323,0 584,7 578,14 572,19 564,23 554,25 544,27 534,27.594 523,28 513,26 
		504,23 492.836,16.427 486.893,8.524 484,0 	"/>
	<polygon fill="#00FF00" stroke="#800080" points="0,78 6,72 13,67 21,64 31,61 41,59 51,57 59,54 69.626,53.46 80,54 89,57 96,62 
		102,68 110,72 114,80 114,89 111,99 110,110 107,119 102,126 98,133 92,140 84.416,142.774 74,143 64,146 56,150 49,155 42,159 
		34.743,165.041 25.493,166.754 17.272,168.809 9.392,172.92 0,176.689 	"/>
	<polygon fill="#00FF00" stroke="#800080" points="0,600 9,601 16,606 24,610 30,616 34,624 36,634 36,646 35,657 33,667 32,678 
		32,688 27,695 20,700 11,702 1,700 	"/>
	<polygon fill="#00FF00" stroke="#800080" points="86,607 74,607 63,606 55,602 47,598 40,593 33,588 27,582 22,575 17,568 13,560 
		11,550 9,540 9,530 13,521 18,514 25,509 33,506 43,503 53,501 64,500 74,498 84,496 95,495 107,495 117,497 125,501 131,507 
		137,513 142,520 146,528 149,537 149,549 147,559 143,567 139,575 134,582 129,588 123,594 115,599 107,602 98,605 87,606 	"/>
	<polygon fill="#00FF00" stroke="#800080" points="93,819 82,818 72,816 63,813 55,809 48,804 41,799 36,792 33,783 32,772 33,761 
		36,752 41,745 47,739 55,734 66,733 77,732 88,731 97,728 106,726 118,725 127,728 137,730 145,734 150,741 156,747 160,755 
		161,766 159,775 155,783 150,790 145,798 140,804 133,810 125,813 115,815 104,816 94,818 	"/>
	<polygon fill="#00FF00" stroke="#800080" points="176,722 166,720 156,718 149,713 142,708 137,701 133,693 130,684 128,674 
		128,664 130,654 133,644 137,636 141,629 147,622 152,616 158,609 164,603 171,598 177,593 185,588 193,584 204,583 215,582 
		227,582 237,584 245,588 252,593 257,600 262,607 266,615 267,626 267,637 264,647 260,655 256,663 252,671 248,678 244,686 
		238,693 232,699 226,704 218,709 210,712 201,716 193,719 183,721 	"/>
	<polygon fill="#00FF00" stroke="#800080" points="251.823,405 243,405 232,404 221,403 213.506,400.846 203.273,397.515 197,393 
		192,386 191.611,374.667 190,366 190,356 193.039,348 198.512,340.158 204.224,335.399 209.222,328.021 214.22,320.643 
		223.264,315.407 233.022,312.789 240.483,311.302 246.349,303.983 251.347,296.367 258.249,294.702 264,297 271.1,302.793 
		275.622,308.981 279.43,316.597 281,324 287.046,331.828 290.616,341.11 290.616,354.2 288.95,365.148 286.808,374.429 
		283,382.759 279,391 274,398 268.959,402.275 260.391,405 	"/>
	<polygon fill="#00FF00" stroke="#800080" points="328,859 317,858 306,857 296,855 288,851 280,847 272,843 266,837 262,829 
		257,822 253,814 250,805 248,795 247,784 246,773 248,763 251,754 255,746 260,739 267,733 274,729 283,725 292,722 302,720 
		313,719 324,720 334,722 343,725 352,728 359,733 367,737 374,742 380,748 384,756 386,766 386,778 387,789 386,800 384,809 
		381,819 377,826 371,833 366,840 360,846 352,850 344,854 336,857 	"/>
	<polygon fill="#00FF00" stroke="#800080" points="255,1025 252,1015 252,1005 254,994 257,985 262,978 268,972 276,968 287,967 
		298,966 309,965 319,963 330.25,963.25 340,964 350,966 357,971 363,977 369,983 373,991 376,1000 378.945,1010.771 378.5,1025 	
		"/>
	<polygon fill="#00FF00" stroke="#800080" points="425.687,975.699 418,975 407,974 398,971 388,969 380,965 373,960 368,953 
		363,946 357,940 351,934 348,925 347,914 347,902 350,893 354,885 359,878 368,874 375,869 382,864 388,859 398,856 408,854 
		418,854 427.75,853 435.75,855.75 442,860 449,865 455.576,871.169 465,873 472,878 475,887 473,896 467,903 461.75,909 457,916 
		455,926 454,936 453,947 448,954 444.5,959.5 439,968 433,974 	"/>
	<polygon fill="#00FF00" stroke="#800080" points="460,526 447.957,527.659 436,526 427,523 420,518 415,511 411,503 408,494 
		407.006,483.992 409,474 412,465 412.436,455.711 412,446 415,436 420,430 426,424 433.478,419.51 442,415 451,412 458,408 
		462,400 469,395 480,393 489,396 498,399 505,404 508,413 510,423 514,431 518,439 519.906,448.47 521,458 520,468 516,477 
		511,484 507,491 502,499 495.924,505.486 489.589,510.238 483,515 475,520 468.547,524.039 	"/>
	<polygon fill="#00FF00" stroke="#800080" points="407.557,1025 411,1015 416,1008 423,1004 432,1000 443,999 453,1001 462,1004 
		470,1008 476,1014 478.432,1025 	"/>
	<polygon fill="#00FF00" stroke="#800080" points="560,209 548,209 537,208 530,203 522,199 515,194 511,186 506,179 503,170 
		502,159 501,148 503,137 505,128 509,120 514,113 519,106 524,99 528,91 532,82 536,75 542,68 550,64 560,64 567,69 573,75 579,81 
		584,88 589,95 593,103 597,111 601,119 603,129 605,139 606,149 604,160 602,169 598,177 594,185 588,192 582,198 576,203 568,207 
			"/>
	<polygon fill="#00FF00" stroke="#800080" points="575,998 564,997 556,995 551,988 543,984 537,978 532,971 529,962 527,952 
		528,941 525,932 523,922 523,910 527,902 535,897 539,892.75 544,889 550,884 556,878 563,874 572,870 582,869 592,868 601,871 
		609,875 618,878 626,882 633,887 641,891 646,898 647,909 647,919 645.25,927.5 646,938 644,947 637,952 630,957 622,962 616,967 
		611,974 604,979 595,982 590,989 583,994 	"/>
	<polygon fill="#00FF00" stroke="#800080" points="683,617 672,616 663,613 656,608 649,603 644,596 639,589 635,581 630,574 
		627,565 625,555 623,545 625,535 628,526 631,517 636,509 642,503 647,497 652,490 659,485 669,482 678,479 688,478 698,477 
		708,477 717,480 723,486 730,491 735,498 740,505 744,513 747,522 749,532 751,542 749,552 745,560 741,568 736,574 729,580 
		723,586 718,592 713,600 707,605 700,610 692,614 	"/>
	<polygon fill="#00FF00" stroke="#800080" points="627,1025 628,1013 631,1004 635,997 640,990 647,984 654,979 661,975 670,971 
		681,970 692,969 703,970 712,973 721,976 730,979 738,983 745,988 750,995 755,1002 764.114,1009.015 771.699,1017.145 
		776.49,1025 	"/>
	<polygon fill="#00FF00" stroke="#800080" points="719,859 707,859 697,857 691,851 684,846 676,842 669,837 662,832 658,824 
		655,815 654,804 657,795 661,786 666,780 672,773 678,767 685,762 693,758 702,755 711,752 720,749 730,747 740,749 750,751 
		758,755 765,760 772,765 777,772 781,780 783,790 784,801 783,812 780,820 775,827 770,834 764,841 758,846 749,850 741,854 
		732,857 722,858 	"/>
	<polygon fill="#00FF00" stroke="#800080" points="804,438 793,437 783,435 771,435 763,431 754,428 745,425 736,422 725,421 
		715,419 709,413 703,407 698,400 694,392 692,382 691,371 693,360 697,352 702,346 708,339 713,333 722,329 733,328 743,326 
		750,321 759,318 770,317 779,320 786,325 795,328 803,332 813,334 820,339 826,345 832,351 836,359 839,368 840,379 838,389 
		836,398 833,408 829,416 825,424 820,430 813,435 	"/>
	<polygon fill="#00FF00" stroke="#800080" points="842,243 830,243 820,241 812,237 806,231 800,225 794,219 789,212 785,204 
		782,195 782,185 783,174 784,163 789,156 794,149 800,143 806,137 814,132 823,129 832,126 844,126 853,129 862,132 870,136 
		876,142 881,149 887,155 891,163 894,172 896,182 895,193 893,203 890,212 885,219 880,225 873,230 865,235 858,239 848,242 	"/>
	<polygon fill="#00FF00" stroke="#800080" points="855,846 844,845 834,843 826,839 819,834 812,829 807,822 802,815 798,807 
		796,797 797,786 800,777 804,769 809,762 814,755 821,750 828,744 837,741 849,741 860,740 871,739 882,738 892,740 901,743 
		907,749 913,755 917,763 920,772 917,781 915,790 912,800 909,809 906,817 901,825 897,832 889,836 880,839 870,842 861,844 	"/>
	<polygon fill="#00FF00" stroke="#800080" points="887,639 875,639 865,637 856,634 849,629 841,625 835,619 830,612 825,605 
		821,597 817,589 814,580 813,569 815,559 818,550 823,542 829,536 836,532 845,528 857,528 867,530 877,532 886,535 894,539 
		901,544 909,548 916,553 922,559 928,565 933,572 937,580 939,590 938,600 936,610 931,617 925,623 917,627 909,631 900,634 
		891,638 	"/>
	<polygon fill="#00FF00" stroke="#800080" points="886.49,1003.928 879,1002 870,999 861,996 852,993 845,988 838,983 833,976 
		828,969 825,960 824,949 825,938 827,928 831,919 836,912 841.233,906.923 849.343,901.892 856.967,897.839 866.375,894.756 
		877,893 886.978,892.16 898,892 909.201,894.268 917,897 924,902 930,908 935,915 940,922 944,930 946.026,939.041 946,949 
		944,960 940,968 934,973 927,978 920,984 913,989 906,994 900,1000 894.602,1002.794 	"/>
	<polygon fill="#00FF00" stroke="#800080" points="906,425 894,425 887,420 882,413 878,405 872,399 867,392 864,383 863,372 
		865,362 869,353 868,343 864,335 861,326 860,315 860,303 862,293 867,285 871,278 876,271 883,266 891,261 899,257 910,256 
		920,254 929,257 936,262 942,268 948,274 953,281 959,287 962,296 965,305 968,314 969,325 971,335 972,346 970,356 966,364 
		964,374 961,383 959,393 956,401 950,408 944,413 935,416 925,418 915,420 907,424 	"/>
	<polygon fill="#00FF00" stroke="#800080" points="1023,763 1011,763 1001,761 992,758 983,755 974,752 965,749 957,745 950,740 
		944,734 939,727 936,718 934.797,708.522 937,698 940,690 945,683 951,677 958,672 966,667 974,663 984,661 994,659 1006,659 
		1016,661 1024,665 1032,669 1039,674 1046,679 1052,685 1056,693 1061,700 1065,708 1067,718 1067,730 1065,739 1060,746 1054,752 
		1046,757 1038,760 1028,762 	"/>
	<polygon fill="#00FF00" stroke="#800080" points="1038,638 1027,637 1018,634 1009,631 1001,627 995,621 988,616 983,609 978,602 
		974,594 972,584 971,573 973,563 976,554 981,546 987,540 993,535 1001,531 1010,528 1020,525 1031,524 1043,524 1053,526 
		1062,529 1071,532 1078,537 1084,543 1091,548 1095,556 1099,564 1100,575 1099,586 1098,597 1094,605 1090,612 1084,619 1078,625 
		1071,629 1062,632 1053,636 1043,637 	"/>
	<polygon fill="#00FF00" stroke="#800080" points="1106,504 1094,504 1084,502 1075,499 1067,495 1060,490 1052,486 1045,481 
		1039,475 1033,469 1029,461 1027,451 1025,441 1024,430 1026,419 1028,409 1031,401 1035,393 1040,385 1045,378 1051,372 1059,368 
		1068,366 1079,364 1089,366 1098,369 1105,374 1111,380 1116,387 1120,395 1122,405 1124,415 1126,425 1129,434 1132,443 1135,452 
		1136,463 1135,474 1132,482 1127,490 1122,496 1114,501 	"/>
	<polygon fill="#00FF00" stroke="#800080" points="1118.74,1024 1115,1014 1114,1003 1116,993 1120,985 1125,978 1130,970 1136,964 
		1142,959 1150,954 1158,951 1169,949 1179,949 1190,950 1200,952 1208.106,954.654 1217,959 1224,964 1231.782,971.049 
		1239.07,980.722 1243.281,991.882 1245.104,1001.783 1245.104,1012.714 1244,1024 	"/>
	<polygon fill="#00FF00" stroke="#800080" points="1280,632.394 1271,637 1261,639 1254,645 1248,650 1239,653 1230,656 1221,659 
		1209,659 1198,658 1190,654 1184,648 1178,642 1173,635 1168,628 1164,620 1161,611 1160,600 1161,588 1162,578 1165,569 1169,561 
		1173,553 1179,547 1185,541 1192,535 1199,530 1207,526 1215,522 1224,519 1233,516 1245,516 1257,516 1267,518 1280,521.635 	"/>
	<polygon fill="#00FF00" stroke="#800080" points="1279,336.769 1279,353.078 1275.755,368.399 1269.575,379.024 1264.635,386.684 
		1258,393 1251,398 1243,402 1232,403 1222,401 1213,398 1206,393 1200,387 1195,380 1190,373 1187.291,365.186 1186.698,353.665 
		1188,343 1191,334 1194,325 1197,315 1202,308 1209,303 1216,299 1225,295 1235,293 1246,292 1255,295 1262,300 1267,307 1272,314 
		1277.153,324.392 	"/>
	<polygon fill="#00FF00" stroke="#800080" points="1280,165.972 1271.652,167.159 1259,166 1250,163 1242,159 1234,155 1227,150 
		1220.088,144.177 1214,139 1208,133 1202.261,125.514 1199,118 1196,109 1196,97 1199,87 1202,79 1205.882,71.196 1211,64 1216,56 
		1222,50 1227.61,44.455 1234.852,39.998 1243,35 1250,30 1258.625,23.912 1270.228,20.779 1280,19.819 	"/>
	<polygon fill="#00FF00" stroke="#800080" points="1280,914.604 1271,919 1260,920 1248,920 1237,919 1228,916 1221,911 1215,905 
		1209,899 1204,892 1200,884 1197,875 1196,864 1198,854 1202,846 1208,839 1213,833 1221,828 1228,824 1238,821 1249,820 1259,822 
		1268,825 1280,830.407 	"/>
	<polygon fill="#00FF00" stroke="#800080" points="136.309,935.291 124.82,932.521 115.939,928.056 108.395,921.838 103,916 
		98,908.206 95,899.869 94.368,888.885 96,877 99,868 104,861 111,855 119,851 128,848 137,845 146.906,843.361 158,842 169,843 
		180,844 189,847 197,851 204,856 208,864 211,873 211,883 210,894 209.122,901.662 205.613,909.557 200.349,916.576 
		194.209,923.594 187.191,928.565 179.295,932.366 169.353,934.998 156.486,936.754 145,936.754 	"/>
	<polygon fill="#00FF00" stroke="#800080" points="188,1025 103.625,1025 101.241,1018.279 99.174,1011.867 98,1006 99,995 101,985 
		104,976 108,968 114,961 119,955 126.074,948.742 134.847,944.648 145,942.601 156.779,941 166,941 175,942 183,946 187,954 
		190.407,964.533 192,976 193.331,987.051 193.331,997.869 193.331,1006.934 191.284,1016.586 	"/>
	<polygon fill="#00FF00" stroke="#800080" points="463,751 452.78,752.17 441.938,750.742 433.948,745.321 427.387,740.47 
		419.684,739.615 411.409,734.764 405.703,726 401,717 397,709 393,699.673 393,689 397,680 399,671 403.706,661.441 
		411.409,656.02 419.684,652 428,651 437,648 446,645 453,641 461,640 470,643 476,649 483,654 489,660 494,667 498,679.986 
		498,689.401 498,699 496,709 493.293,719 491.28,725.889 489.868,736.761 485.59,745.036 479.028,749.03 471.038,751 	"/>
	<polygon fill="#00FF00" stroke="#800080" points="537.515,812.653 527.53,811.227 518.97,808.944 510,804 503,799 497,793 494,784 
		490,776 488,766 489,755 495,748 503,744 510,740 517,735 524,729 530.668,723.9 538.656,722 549,720.215 562.052,720.215 
		572.608,720.215 583.735,722 590.012,726 598.285,731.628 602.28,736.191 606.275,742.469 609.984,751 609.984,759.872 
		608.557,771.569 605.726,784.699 601.116,791.718 595.433,794.966 586.018,798.388 577.173,801.241 568.614,803 561.767,805.806 
		553.492,809.229 545.219,811 	"/>
	<polygon fill="#00FF00" stroke="#800080" points="573.75,715.364 563.764,717.646 550.069,719 537.515,717.646 529.24,715.364 
		521.253,709.373 514.119,703.095 510,696 505,689 502,680 499.283,670.285 498,660 498,650.314 499,640 501,631 504,622 507,613 
		512,606 519,601 527,596 536,593 545,590 557,590 567,592 576,595 585,598 592.009,602.097 598.571,608.09 603.706,614.65 608,623 
		612,631 614,641 616,651 616,660.014 612.266,670.571 606.56,677.134 599,681 594,688 591.724,698.246 587.158,705.949 
		581.168,712.225 	"/>
	<polygon fill="#00FF00" stroke="#800080" points="752.175,725.058 746,723 739.867,726 735.939,730.76 728.254,733.49 
		721.899,734.587 715.544,731.956 711.16,727.794 708.312,721.877 706,714.206 708.312,706.974 713.155,700.623 714.465,693.787 
		709,688 706,679 708,668 710,659 714,650 717,642 723,635 728,629 734,623 740,617 750,614 759,612 770,611 781,611 789,615 
		797,619 802,626 806,634 809.335,644.519 809.335,654.5 808,664.68 804.734,672.789 800.57,681.773 796,690.1 791.147,697.552 
		786.545,704.127 781,710 775,716 769,722 760,725 	"/>
	<polygon fill="#00FF00" stroke="#800080" points="980,178 969,177 959,175 951,171 944,166 938,160 934,152 929,145 925,137 
		925,125 926,114 929,104 931,95 934,86 938,77 943,71 948,63 954,57 961,52 968,47 977,44 987,42 998,43 1008,45 1018,47 1025,52 
		1031,58 1038,63 1043,70 1048,77 1051,86 1051,96 1054,105 1055,116 1053,125 1050,134 1045,142 1041,149 1035,156 1029,161 
		1021,165 1012,168 1004,172 996,176 984,176 	"/>
	<polygon fill="#00FF00" stroke="#800080" points="671.111,24.996 667.618,33.289 669.801,41.582 675.475,50.749 681.15,57.733 
		688.133,64.717 695.117,70.827 702.537,76.502 711.268,80.866 719.997,84.795 729.163,88.287 739.64,90.906 748.369,92.652 
		758.408,93.088 766.701,94.398 775.432,96.144 783.725,97.453 792.454,97.453 799.002,93.961 804.677,87.414 807.732,79.993 
		807.295,73.01 803.804,64.717 798.129,58.169 793.764,49.876 787.654,42.892 781.542,36.781 774.995,30.234 768.011,23.686 
		761.028,18.012 755.789,15.393 749.242,13.211 742.258,12.774 729.6,13.647 717.378,14.956 706.903,16.702 695.99,18.885 
		685.515,21.504 677.657,22.813 	"/>
	<polygon fill="#00FF00" stroke="#800080" points="660.5,1 662.5,6 664.268,10.975 666.271,15.982 668.345,20.56 672.351,22.563 
		676.356,22.348 682.15,21.061 686.799,20.131 691.305,19.201 695.597,18.128 699.459,17.341 703.679,16.626 707.685,15.625 
		711.547,14.981 716.268,14.122 721.346,13.407 725.709,13.05 731.861,12.62 736.224,12.334 739.729,12.048 743.25,11.75 
		748.669,11.905 752.675,10.904 756.323,8.543 759.255,6.255 762,3.5 764,1 	"/>
</g>
</svg>
