<?xml version="1.0" encoding="utf-8"?>
<!-- Generator: Adobe Illustrator 16.0.1, SVG Export Plug-In . SVG Version: 6.00 Build 0)  -->
<!DOCTYPE svg PUBLIC "-//W3C//DTD SVG 1.1//EN" "http://www.w3.org/Graphics/SVG/1.1/DTD/svg11.dtd">
<svg version="1.1" id="Layer_1" xmlns="http://www.w3.org/2000/svg" xmlns:xlink="http://www.w3.org/1999/xlink" x="0px" y="0px"
	 width="1280px" height="1024px" viewBox="0 0 1280 1024" enable-background="new 0 0 1280 1024" xml:space="preserve">
<g id="Raw_image">
	
		<image overflow="visible" enable-background="new    " width="1280" height="1024" xlink:href="normal_25.jpg"  transform="matrix(1 0 0 1 2.441406e-004 -2.441406e-004)">
	</image>
</g>
<g id="Not_annotated" opacity="0.5">
	<polygon fill="#0000FF" stroke="#800080" points="1017,537 1007,535 1005,527 1013,522 1022,525 1021,534 	"/>
	<polygon fill="#0000FF" stroke="#800080" points="1210,1023 1217,1020 1228,1018 1239,1017 1249,1017 1260,1016 1271,1017 
		1278,1022 	"/>
</g>
<g id="Clumps" display="none" opacity="0.5">
	<polygon display="inline" fill="#FF0000" stroke="#800080" points="0,14 7,16 14,20 21,25 31,27 38,32 44,38 49,45 55,51 62,56 
		68,62 76,66 82,72 85,80 87,89 94,85 102,88 105,97 110,104 115,111 119,119 124,126 129,133 135,139 138,148 142,156 144,166 
		146,176 145,187 143,197 139,205 134,211 129,218 123,224 116,230 111,237 104,242 95,244 86,247 78,251 68,253 58,251 46,251 
		35,250 25,248 16,245 6,243 1,236 	"/>
	<polygon display="inline" fill="#FF0000" stroke="#800080" points="727,0 728,9 727,20 723,27 717,34 712,41 706,46 696,48 685,49 
		675,51 666,54 655,53 644,52 634,50 624,48 616,44 611,37 604,41 603,48 608,55 615,60 624,63 628,71 632,79 632,89 627,95 
		631,102 634,111 634,121 631,130 628,139 624,146 617,151 608,154 603,160 599,167 593,173 587,180 578,182 570,180 565,186 
		565,196 560,203 553,208 545,211 534,212 526,208 520,202 513,207 502,208 492,211 483,211 473,209 464,206 459,199 461,190 
		461,179 458,170 453,163 447,157 439,153 431,149 425,143 417,141 410,142 410,151 414,159 419,166 426,171 431,178 439,182 
		444,189 446,199 448,207 448,217 452,225 454,235 456,245 456,257 458,267 456,277 453,286 450,295 451,306 450,316 447,322 
		456,325 466,327 474,331 481,336 489,340 496,345 503,350 509,356 514,363 520,369 525,376 529,384 532,393 535,402 537,412 
		539,422 547,422 550,414 554,406 563,402 574,403 586,403 595,401 602,396 609,390 617,387 628,386 639,386 649,388 657,392 
		665,396 675,398 685,400 693,404 700,409 705,416 711,422 714,431 716,441 718,451 718,463 717,474 713,482 707,487 700,493 
		693,498 686,502 678,506 670,510 662,514 653,518 644,520 636,524 628,529 621,534 615,539 608,544 597,543 589,539 581,535 
		573,531 562,530 554,526 547,521 541,515 536,508 531,501 528,492 525,483 520,491 515,498 509,504 504,511 499,518 494,524 
		487,530 481,535 474,541 469,548 464,554 457,560 450,564 441,567 429,567 418,566 412,560 404,556 396,552 387,549 377,547 
		368,544 362,538 356,532 350,526 345,519 340,512 336,504 332,496 328,488 327,477 328,465 328,454 327,443 326,432 325,421 
		328,411 330,402 332,392 337,384 342,378 346,370 350,362 347,355 339,351 333,345 326,340 319,335 308,334 301,329 297,321 
		290,316 280,314 274,308 271,299 267,291 263,283 263,272 261,263 257,255 253,247 245,243 238,238 234,230 235,219 235,209 
		234,200 232,190 229,181 232,172 237,165 245,161 242,152 239,145 244,138 251,133 259,128 269,126 278,123 283,116 288,109 
		294,104 300,98 309,94 317,94 320,88 325,81 336,79 344,83 353,86 363,88 370,93 373,85 374,76 378,67 383,60 390,55 397,51 
		404,45 412,41 420,43 431,44 437,50 445,54 455,54 461,48 463,39 457,34 455,41 446,43 437,41 426,40 424,33 430,27 438,24 447,20 
		457,18 466,16 474,11 483,8 493,8 503,10 513,12 522,9 529,14 539,14 550,15 558,19 567,20 568,12 560,8 554,2 	"/>
	<polygon display="inline" fill="#FF0000" stroke="#800080" points="693,1023 685,1019 677,1015 669,1015 659,1017 652,1012 
		643,1009 632,1010 624,1006 620,998 615,991 609,985 610,974 611,963 613,952 617,944 614,936 609,929 603,923 596,918 591,911 
		587,903 589,892 592,884 598,878 605,873 614,869 624,867 634,865 642,862 650,857 659,854 668,851 679,852 690,851 697,851 
		689,847 681,843 673,839 668,832 660,828 651,827 645,821 636,818 627,815 620,810 612,806 607,799 602,792 597,785 597,775 
		598,764 596,754 595,743 596,732 598,722 600,712 596,704 586,702 579,697 573,691 566,686 559,681 553,675 547,669 540,664 
		537,655 536,644 539,634 541,625 544,616 548,607 553,600 560,596 568,591 575,586 583,582 591,579 599,575 605,569 611,563 
		619,558 627,555 637,552 647,550 659,550 668,553 677,556 687,558 696,561 704,565 709,572 716,570 721,563 726,556 732,549 
		734,540 740,533 747,528 755,524 765,522 776,523 786,525 797,526 807,528 818,529 828,531 837,530 844,533 853,536 861,540 
		868,545 875,550 883,554 889,560 895,566 899,574 905,580 907,590 909,600 910,611 908,621 904,629 902,639 898,647 893,653 
		887,660 882,666 876,672 872,681 866,687 861,693 854,698 846,702 840,708 832,712 821,713 811,711 804,716 794,718 784,718 
		777,713 772,706 768,698 762,692 752,693 752,701 758,707 766,711 772,717 776,725 782,731 789,736 791,746 795,754 801,759 
		804,750 809,742 815,736 821,731 829,726 837,722 845,719 854,715 865,714 876,713 887,714 896,717 905,720 914,723 924,725 
		932,729 940,733 949,736 951,729 948,720 945,711 942,702 940,692 938,682 936,672 936,660 933,651 936,642 941,634 940,624 
		942,614 947,607 950,598 953,589 957,581 962,574 971,570 979,566 989,564 1000,565 1010,563 1020,565 1029,568 1037,572 1046,575 
		1054,579 1061,584 1066,591 1070,599 1075,606 1078,615 1082,623 1084,633 1082,643 1083,652 1085,662 1086,673 1086,685 1085,694 
		1082,703 1081,712 1078,720 1071,725 1065,731 1059,738 1052,742 1043,745 1032,744 1024,740 1019,748 1014,754 1008,761 1001,766 
		991,767 981,767 973,763 965,766 970,773 975,780 978,789 980,799 984,807 988,815 990,825 992,835 991,846 988,855 984,862 
		979,869 974,877 974,887 970,895 965,901 959,907 951,911 940,912 929,911 919,914 911,918 903,921 897,927 888,930 876,930 
		866,930 855,932 849,938 841,941 830,940 822,936 815,931 807,927 802,920 796,914 785,913 780,921 783,930 784,941 780,949 
		780,959 780,969 775,976 769,981 763,988 755,992 750,999 755,1006 766,1005 776,1003 787,1002 798,1001 808,1003 819,1004 
		831,1004 843,1004 852,1006 861,1004 867,1010 876,1013 885,1016 894,1019 	"/>
	<polygon display="inline" fill="#FF0000" stroke="#800080" points="877,0 881,8 883,18 888,25 892,33 896,41 897,52 894,59 899,66 
		907,63 915,58 920,51 927,46 936,43 945,46 953,50 961,54 971,56 977,62 983,68 988,75 989,86 990,97 991,108 991,118 989,128 
		987,138 986,148 981,156 977,164 975,173 971,182 969,192 964,199 964,209 960,216 954,222 948,228 940,232 930,234 920,236 
		910,234 900,234 890,232 883,227 875,223 866,220 860,214 854,208 850,200 849,189 848,178 846,168 846,158 849,149 851,139 
		854,130 858,122 856,116 849,121 840,122 828,122 817,121 809,117 803,111 798,104 793,97 788,90 783,83 778,76 774,68 770,60 
		765,53 762,44 759,35 761,25 762,14 765,4 	"/>
	<polygon display="inline" fill="#FF0000" stroke="#800080" points="971,560 960,559 951,558 940,559 934,553 926,549 918,553 
		908,553 899,552 890,553 882,551 875,546 868,541 861,536 855,530 848,525 840,521 834,515 831,506 829,496 829,484 830,473 
		833,464 839,457 844,451 851,445 859,442 868,438 877,435 886,432 894,428 890,421 882,417 878,409 873,402 868,395 865,386 
		863,376 863,366 864,355 865,344 868,335 872,327 876,319 881,312 888,306 893,300 899,293 905,288 913,283 922,280 932,278 
		943,279 953,281 961,285 968,290 974,296 979,303 984,306 992,310 997,317 1000,325 995,333 1000,340 1004,333 1013,329 1020,334 
		1025,341 1032,346 1040,350 1047,355 1052,362 1057,369 1061,377 1065,385 1066,396 1063,405 1064,416 1062,426 1057,432 1051,438 
		1043,443 1036,447 1027,451 1018,453 1008,455 998,453 991,448 982,450 988,456 994,462 997,471 1001,479 1005,487 1004,498 
		1001,507 998,516 1000,524 999,533 996,542 993,550 987,557 978,559 	"/>
	<polygon display="inline" fill="#FF0000" stroke="#800080" points="1279,177 1275,185 1270,193 1263,198 1256,203 1249,207 
		1242,212 1233,215 1221,215 1211,217 1200,216 1194,210 1187,205 1178,202 1170,198 1162,194 1155,189 1152,180 1149,171 1146,162 
		1144,152 1140,144 1140,134 1142,124 1135,122 1128,126 1119,129 1109,131 1100,133 1105,140 1111,146 1117,152 1123,158 1130,163 
		1134,171 1138,179 1144,185 1144,195 1141,204 1140,213 1134,218 1128,224 1118,224 1113,230 1122,231 1131,234 1139,238 1149,240 
		1158,243 1167,246 1173,252 1178,259 1183,266 1188,273 1194,279 1199,286 1206,291 1211,298 1214,307 1218,315 1221,324 1224,333 
		1223,342 1220,351 1214,357 1209,363 1203,370 1197,376 1187,377 1178,378 1181,384 1190,386 1200,383 1207,388 1205,398 1200,404 
		1199,416 1199,426 1206,431 1210,439 1211,450 1210,461 1210,471 1213,480 1214,491 1214,503 1211,512 1207,520 1203,527 1198,535 
		1194,542 1189,549 1183,556 1176,561 1169,565 1162,570 1157,577 1149,579 1142,574 1136,568 1130,562 1121,559 1112,558 1105,553 
		1099,547 1095,539 1091,531 1085,525 1081,517 1078,508 1077,497 1073,489 1069,481 1066,472 1066,460 1067,449 1069,439 1073,430 
		1077,423 1076,412 1077,400 1082,393 1089,388 1094,382 1093,375 1082,374 1072,372 1065,367 1060,360 1053,355 1047,349 1042,342 
		1035,337 1032,328 1028,320 1027,309 1030,299 1031,289 1031,279 1022,278 1011,277 1002,274 995,269 989,263 982,258 975,253 
		972,244 971,233 970,222 971,211 974,201 973,191 977,183 981,175 985,167 991,161 996,154 1002,147 1008,141 1014,135 1019,129 
		1025,123 1033,118 1035,111 1033,101 1035,91 1037,81 1034,72 1037,63 1043,57 1050,51 1054,44 1058,36 1065,30 1071,25 1077,19 
		1082,12 1090,7 1097,2 	"/>
</g>
<g id="Single_nuclei" opacity="0.5">
	<polygon fill="#00FF00" stroke="#800080" points="248,1020 237,1019 227,1019 215,1019 203,1019 193,1017 183,1015 175,1011 
		169,1005 162,1000 155,995 148,990 143,983 137,977 132,970 129,961 125,953 121,945 122,936 114,932 112,922 109,913 106,904 
		108,894 109,883 106,874 108,864 112,856 115,846 119,839 126,833 132,827 136,820 143,814 151,810 157,805 163,799 169,792 
		174,786 182,781 190,777 198,781 204,776 213,772 223,770 233,768 243,770 251,774 262,775 272,777 281,780 290,783 298,787 
		304,793 312,797 320,801 326,807 332,813 337,820 341,828 346,835 350,843 353,852 354,863 355,874 355,886 354,897 353,908 
		350,917 346,924 341,931 334,937 328,943 323,950 319,957 315,966 311,973 305,980 300,986 294,993 287,997 279,1002 273,1007 
		266,1012 257,1015 249,1019 	"/>
	<polygon fill="#00FF00" stroke="#800080" points="479,862 468,861 456,861 448,857 438,855 432,849 423,846 416,841 409,836 
		402,831 395,826 388,821 382,815 376,809 370,803 365,796 359,790 354,783 350,775 346,767 341,760 337,752 334,743 329,736 
		327,726 328,715 330,705 329,694 331,684 335,675 338,667 343,660 348,653 353,646 359,639 365,634 372,628 379,623 386,618 
		395,615 404,613 416,612 427,613 437,615 446,618 454,622 462,626 470,630 477,635 483,641 490,646 497,651 503,657 510,662 
		514,670 520,676 525,683 530,690 535,697 539,705 543,713 547,721 551,729 555,737 560,744 562,754 564,764 564,774 562,784 
		559,793 558,804 556,814 552,822 547,828 540,833 532,837 525,842 518,847 510,852 502,855 493,858 484,861 	"/>
	<polygon fill="#00FF00" stroke="#800080" points="771,397 759,397 749,395 741,391 731,392 722,394 710,394 699,393 691,389 
		685,383 679,377 675,369 672,360 671,349 671,337 674,328 678,320 683,313 688,306 693,299 698,291 704,286 711,281 718,276 
		725,270 732,266 741,263 749,259 757,255 766,251 776,249 787,250 798,249 806,245 815,242 826,243 835,246 843,250 850,255 
		857,260 862,267 866,275 870,283 872,293 873,304 870,313 867,322 863,330 860,338 856,346 851,354 846,360 840,367 833,372 
		826,377 818,380 810,385 801,388 792,391 783,393 774,396 	"/>
	<polygon fill="#00FF00" stroke="#800080" points="1106,1012 1095,1011 1085,1009 1075,1011 1064,1012 1055,1009 1045,1007 
		1038,1002 1032,996 1024,992 1019,985 1015,977 1012,968 1011,957 1013,947 1017,938 1021,931 1027,924 1031,917 1035,908 
		1041,903 1047,896 1050,888 1053,879 1058,872 1066,867 1074,864 1084,861 1095,862 1103,858 1110,854 1119,850 1128,847 1139,846 
		1147,842 1157,840 1168,841 1177,844 1185,848 1193,852 1199,858 1205,864 1209,872 1211,882 1213,892 1213,904 1212,915 1209,924 
		1205,932 1200,938 1193,944 1188,950 1183,958 1178,965 1173,972 1167,978 1161,983 1156,991 1148,994 1140,998 1132,1002 
		1124,1006 1115,1010 	"/>
	<polygon fill="#00FF00" stroke="#800080" points="1280,728.215 1275,738 1268,744 1261,749 1256,755 1250,762 1242,766 1235,770 
		1226,773 1216,773 1205,772 1194.718,769.03 1187,766 1179.253,762.642 1172,757 1166.479,751.213 1161.1,747.514 
		1152.158,745.083 1139.817,746.754 1130,743 1125,736 1119,730 1114,723 1109,716 1104,709 1101,700 1097,692 1094.111,680.387 
		1093.179,670.76 1091.315,658.958 1091.315,648.088 1094,641 1098.031,631.336 1102,624 1107,617 1113,611 1120,606 1127,602 
		1135,597 1142,592 1148,586 1154.983,581.938 1160.334,577.316 1166.867,572.649 1175,567 1182,563 1188.918,557.599 
		1196.502,553.983 1205.952,553.399 1216,554 1226,556 1234,560 1240,566 1249,569 1258,572 1267,575 1280,580.385 	"/>
	<polygon fill="#00FF00" stroke="#800080" points="0,6 10,8 17,13 24,18 31,23 37,29 44,34 50,40 56,46 62,52 69,57 76,62 
		80.356,67.636 87.891,73.287 94.295,78.836 101,85 106,92 111,99 116,106 120,114 125,121 129,129 134,136 138,144 143,151 
		146,160 146,172 144.778,182.916 144,192 140,200 137,209 133,217 127,222 121,228 114,234 108,239 102,245 95,251 87,255 78,257 
		68.301,257.133 57.301,256.126 46.073,254.872 32.135,254.495 21.209,254.495 11.037,253.365 0,250.728 0,243 0,231 0,219 0,207 	
		"/>
	<polygon fill="#00FF00" stroke="#800080" points="441,566 429,566 419,564 412,559 405,554 396,551 387,548 377,546 368,543 
		362,537 356,531 351,524 346,517 341,510 337,502 332,495 329,486 328,475 329,464 329,452 328,441 327,430 326,419 329,410 
		331,400 334,391 339,384 344,377 348,369 352.5,361.5 359.167,356.5 365.5,352.833 374.5,349 383.834,345.166 395.167,340.5 
		403.834,337.166 411.5,335.5 420.834,331.5 430.5,329.5 440.167,328.833 450.5,327.166 457.669,328.907 466.991,329.663 474,332 
		481,337 488,342 496,346 502,352 508,358 514,364 519,371 524,378 528,386 532,394 536.183,403.692 537.408,413.9 537.408,425.948 
		535.979,435.341 533.937,445.142 531.487,456.782 529.649,469.238 525.973,476.386 522,483 517.601,489.864 512.905,496.806 
		507,504 502,511 497,518 491,525 485,530 478,535 472,542 467,548 461,555 455,560 447,564 	"/>
	<polygon fill="#00FF00" stroke="#800080" points="615.834,538.111 604.834,543.5 595.167,541.34 584.374,535.602 576.615,532.54 
		567,529 558,526 550,522 542,518 535,512 531,505 528,496 527.8,486.475 529.644,476.794 531.027,467.573 532.871,456.508 
		535,446.583 537.943,434.839 539.787,427.462 541.17,422.39 542.553,415.936 545.781,409.943 549.93,407.176 556.845,402.566 
		570.677,401.183 578.514,401.644 590.04,400.721 599.261,397 609.865,388.274 620.93,384.124 632.917,383.202 642.138,380.897 
		649,380 659,382 668,385 676,389 683,394 690,399 697,404 703,410 706.833,415.833 710.167,422.5 712.5,432.833 715.833,442.833 
		717.167,451 717.167,460.67 716.5,468.5 715.167,476.5 712.833,484.166 708.147,491.588 703,496 697,501 690,506 682,510 673,514 
		665,517 657,521 648,525 640,528 631,532 623,535 	"/>
	<polygon fill="#00FF00" stroke="#800080" points="337,349 328,346 321,341 313,337 306,332 298,328 292,322 285,317 278,312 
		271.737,304.601 267.969,297.443 264.955,293.676 260.434,285.011 256,274 254,264 252,254 246.495,245.831 241.975,239.803 
		237.077,232.268 234.44,225.11 233,213 230,204 227,195 228.035,186.307 228.412,175.759 228.789,165.587 231.05,155.791 232,149 
		237.167,141.836 242.5,135.503 250.167,128.169 258.167,123.836 265.167,119.503 271.834,115.169 281.5,110.503 288.5,106 
		294.5,101.169 299.167,95.503 306.167,90.836 313.5,87.169 320.167,82.503 327.834,79.169 334.5,78.836 342.5,80.169 
		350.167,82.836 356,85 364,89 369.167,93.836 377,100 383,106 389,112 395,118 404.901,127.456 408.167,134.169 408.834,141.169 
		408.834,151.836 413,158 419,164 426,169 432,175 438,181 443.167,187.836 447,196 449,206 451,216 453,226 454,237 455.834,247.5 
		454,259 454,269.833 451,282 450,293 449,304 449.167,310.833 444.5,318.166 440.834,322.833 433.5,327.166 423.5,328.833 
		414.834,332.5 406.167,334.833 394.834,338.5 383.834,343.166 371.167,348.5 358.5,352.5 351.167,355.166 343.834,352.833 	"/>
	<polygon fill="#00FF00" stroke="#800080" points="521,208.5 511,210 496.501,208.939 484.456,207.601 472.411,205.519 
		463.638,202.843 459.772,197.638 460.367,191.988 461.854,182.619 459.921,173.697 454.419,165.221 447.281,158.084 
		440.143,151.397 432.411,146.639 423.043,140.988 415.167,136.836 410.5,132.5 405.42,126.525 398.507,119.872 391.072,112.735 
		385.867,106.935 380.217,101.433 375.834,94.503 371.5,89.836 368.618,81.954 369.808,75.114 373.834,69.169 375,64 381,58 387,52 
		394,46 400,40 406,35 413,29 420,24 429,21 437,18 446,14 455,11 463.071,11.077 472.252,9.004 480.84,7.524 492.686,6.043 
		503.809,4.266 515.49,4.266 526.744,3.674 539.775,5.45 548.66,5.747 556,8 565,11 574,14 582,18 591,21 599,25 604.385,31.954 
		603.407,41.039 598.515,43.135 597.956,45.651 599.913,48.586 605.224,51.241 611.513,56.412 618.78,60.186 626.327,67.034 
		630.939,74.72 635,85 636,96 637,107 636.5,118.5 635,125 630.991,132.203 625.956,140.2 620.922,147.9 613.814,150.862 606,156 
		601,162 596,169 590,176 585,183 580,189 574,196 567,201 558,203 548,205 538,208 529,210 	"/>
	<polygon fill="#00FF00" stroke="#800080" points="800,717 788,717 776.865,708.254 771.25,699.75 766.25,691.25 758.75,688.25 
		752,689.497 746,690.75 736.75,688.25 732.75,685.25 731.5,678 731.5,671.498 728.984,660.219 728.167,647.831 729.167,637.164 
		728.167,626.164 725.833,615.164 724.167,604.498 722.833,595.498 720.167,585.831 717.167,576.831 720,569 723,562 729,555 
		733,548 736,539 743,533 750,528 758,525 769,523 779,525 790,526 800,528 811,529 821,531 831,533 839,533 849,535 857,539 
		864,544 871,549 879,553 887,557 891,565 896,572 901,579 905,587 907,597 908,608 908,618 903,625 902,635 898,644 893,651 
		887,657 882,664 876,670 872,678 867,684 861,691 855,696 846,699 841,706 833,710 823,712 813,710 804,714 	"/>
	<polygon fill="#00FF00" stroke="#800080" points="992,771 984,767 975,764 968,759 962,753 956,747 950,741 946,733 943,724 
		940,715 938,705 936,695 935,684 933,674 931,664 933,653 935,644 937,634 940,625 942,615 945,605 947,596 949,586 952,576 
		954,567 963,564 973,561 983,559 993,557 1003,555 1012,556 1021,559 1030,562 1038,566 1047,569 1056,572 1060,580 1065,587 
		1069,595 1074,602 1078,610 1082,618 1086,626 1088,636 1088.52,645.603 1089.762,655.542 1089.451,668.275 1088.989,677.305 
		1087.899,687.53 1087.278,697.158 1087,707 1085,717 1080.135,722.625 1074,729 1065,733 1057,737 1049,741 1041,744 1033,748 
		1025,753 1018,757 1010,761 1002,765 994,770 	"/>
	<polygon fill="#00FF00" stroke="#800080" points="607.25,703.75 597,701 587,699 580,694 573,689 567,683 559,679 552,674 545,669 
		538.601,663.477 536.417,655.179 536,646 537.408,634.216 539.911,624.388 542.969,616.308 544.716,609.976 548.646,603.861 
		553.45,597.966 560.439,593.597 567.427,590.322 577.69,586.828 585.115,583.116 592.103,577.875 600.838,572.197 605.86,566.956 
		614.814,563.025 622.484,557.785 630.417,552.544 641,548 653,548 664,549 674.5,553.164 684.167,556 692.833,560.164 
		698.5,564.164 704.167,568.498 709.5,573.164 713.5,578.831 717.167,584.498 720,593.164 721.833,603.164 723.5,613 724.5,621 
		725.833,631.831 725.833,640.498 725.5,649.498 723.833,657.831 720,664 714.833,669.498 704,678.5 697.75,684.25 690.75,692.25 
		680,697.75 671.25,701.5 664.75,700.25 658.5,698.5 649.75,702.25 642.25,706 633.797,708.143 622.75,708 614.25,706.75 	"/>
	<polygon fill="#00FF00" stroke="#800080" points="722.475,844.737 711.557,846.484 700.419,846.484 691.248,846.484 
		680.329,841.898 673,837.25 668,831 660,827 652,823 645,818 636.5,816.5 628.5,812.5 620,807.5 611.25,803 606,796 601,789.75 
		597.75,781.25 596,771 595,762 595,750 595,738 597.25,729 600,721 602,714.75 607.25,709 613.25,707 628.25,709 640,710.25 
		649,711.75 659.5,712 666.5,709 674.467,700.708 689.5,694.497 702.5,692.497 713.167,689.497 723.167,689.497 731.5,689.497 
		740.5,690.75 747.5,693.75 752,698.75 754,705.5 759.75,711.5 773.5,719.498 778.167,725.831 785.5,731.831 789.167,737 794,742 
		796.75,751.75 799.25,763.25 799.25,771.75 795,781.75 789,791.75 784.489,803.67 781,810.75 778.25,819.75 773.25,826 768,831 
		756.979,836.22 749.554,838.405 740.819,840.589 732.376,840.524 	"/>
	<polygon fill="#00FF00" stroke="#800080" points="686.007,1017.703 680.111,1013 672,1013 661,1012 650,1011 641,1008 633,1004 
		625,1000 617.437,995.646 612.197,987.13 611.323,975.338 613.07,958.304 616.127,949.788 618.748,942.363 618.311,935.834 
		611.105,928.824 605.209,921.618 596.473,915.066 592.389,906.693 589.901,897.889 590.666,890.042 593.537,882.195 
		596.982,876.07 605,871 614,868 623,865 632,862 640,860.759 648.25,857.75 656.504,855.592 666.456,853.103 676.218,851.381 
		685.787,851.572 696.25,852.75 702.604,849.328 710.902,848 721.602,846.484 735.36,846.484 746,850 754.25,855.25 760,860 
		766.937,866.501 769.808,873.582 770.478,884.083 773.233,892.026 777,899.885 781.303,909.654 782.153,918.787 783.427,926 
		784.277,936.202 783.639,944.697 783,955 780.344,964.201 775.322,971.407 768,975 762,981 757.633,987.785 752.174,993.463 
		747.152,1003.726 739.29,1009.404 730.118,1013.335 722.257,1017.266 710.465,1020.542 697.125,1019.668 	"/>
	<polygon fill="#00FF00" stroke="#800080" points="819.167,935.834 811.971,930.5 809.125,926 804.665,917.937 794.539,912.86 
		785.319,908.773 779.262,902.131 775.354,893.925 771.722,882.195 771.722,871.669 775.781,862.718 777,854.25 778.5,844.75 
		777.217,832.556 777,824 782.153,812.59 786,805 791,792.75 795,784 799.25,776 802.75,767.123 803.25,761 806.75,752.5 
		811.25,745.5 817,737 823.75,731.5 829.5,726.75 837.75,722.75 843.955,719.566 851.573,716.678 859.672,714.893 868.592,712.557 
		877.087,712.133 887,713 897,715 907,717 915.104,719.778 924,724 931,729 938,734 944,740 951,745 958,750 965,755 970,762 
		974,770 978,778 982,786 986,794 991,801 995,809 996,818 994,827 991,837 988,846 986,856 983,865 980,874 976,881 970,888 
		965,894 959,901 953,907 943,908 932,909 924,913 916,917 907,920 897,923 888,925 879,928 870,931 860,933 850,935 
		841.834,933.834 833.834,932.834 825.834,935.501 	"/>
	<polygon fill="#00FF00" stroke="#800080" points="942.459,232.243 934,233 922,233 910,233 899,232 889.579,229.792 881,226 
		873,222 865,218 858,213 852,207 848,199 845,190 844,179 842,169 843,159 845,150 848.665,140.79 853.108,132.794 
		858.142,123.613 862.881,116.505 869.1,110 874.727,104.659 879.762,99.032 884.796,92.517 889.831,84.224 894.57,78.005 
		900.197,70.009 904.638,64.503 909.191,58.374 915.494,53.121 921.448,49.269 929.327,46.117 939,45 949,47 958,50 966,54 
		973.803,58.024 981,63 986.06,68.705 990,78 992,88 992,98 991,109 989,119 987,129 986,140 983,149 981,159 978,168 976,177 
		973,186 970,195 966,204 962.246,211.581 957,219 952,226 948.522,230.174 	"/>
	<polygon fill="#00FF00" stroke="#800080" points="839.666,123.479 829,124 819,122 810,119 802,115 795,110 790,103 785,96 781,88 
		776,81 772,73 767,66 763,58 761.187,50.341 759.953,45 758.927,32.672 759.543,24.865 760.981,14.387 763.035,5.759 763.652,0 
		878,0 883,7 887,15 892,22 895,31 897,41 898,52 898,63.452 895.883,72.382 892.031,79.036 887.303,85.69 883.45,92.869 
		877.147,100.223 869.1,107.837 864.89,111.079 856,118 848,122 	"/>
	<polygon fill="#00FF00" stroke="#800080" points="1022,451 1010,451 998,451 987,450 978,447 969,444 959,442 950,439 941,436 
		931,434 922,431 912,429 903,426 893,424 884,421 877,416 869,412 866,403 862,395 861,384 860,373 860,361 861,350 865,342 
		869,333 873,326 878,319 884,312 889,306 894,299 900,293 906,286 913,282 921,278 930,276 939,279 948,282 957,285 964,290 
		971,295 979,299 985,305 991,311 997,317 1003,323 1011,327 1018,332 1025,337 1032,342 1040,346 1047,351 1054,356 1060,362 
		1063,371 1066,380 1069,389 1069,401 1068,412 1067,423 1061,429 1055,434 1048,440 1042,445 1035,450 1023,450 	"/>
	<polygon fill="#00FF00" stroke="#800080" points="966,561 956,559 946,557 938,553 929,550 919,550 907,550 895,550 884,549 
		876,545 868,541 860,537 853,532 845,528 837,524 830,519 829,508 828,497 827,486 827,474 828,464 832,457 837,450 845,445 
		852,441 860,436 868,432 876,428 885,426 895,425 905,427 915,429 924,432 934,434 943,437 952,440 962,442 971,445 981,447 
		987,453 992,460 996,468 1001,475 1003,485 1005,495 1004,506 1003,516 1001,527 997,534 992,542 988,549 982,555 973,558 	"/>
	<polygon fill="#00FF00" stroke="#800080" points="1280,177.149 1275,185 1269,191 1262,196 1255,201 1249,206 1241,210 1231,212 
		1222,215 1212,218 1203,216 1195,212 1187,208 1179,204 1170,201 1161,198 1154,193 1148.155,188.545 1143,180 1142,169 1141,158 
		1141,146 1143.656,133.964 1148.454,126.467 1151.412,121.755 1157,116 1162,109 1168,102 1173,95 1178,89 1184,82 1189,76 
		1194,69 1199,62 1205,55 1210,49 1216,43 1222,37 1228,30 1235,25 1244,22 1255.517,20.604 1267.197,20.959 1280,24.802 	"/>
	<polygon fill="#00FF00" stroke="#800080" points="1232,0 1232.125,8.008 1230.325,17.905 1226.427,25.702 1221.629,31.7 
		1215.031,39.797 1210.5,46 1206.034,51.793 1200.667,58.333 1195.167,65.833 1189.834,73.166 1186,79 1180,86 1173.501,92.166 
		1169.001,98.5 1163.667,105.166 1158.834,112 1151.834,117.666 1144,121 1134,123 1119.167,125.664 1106.501,129.167 
		1097.834,127.831 1091.834,122.5 1082.834,119.302 1071.834,119.302 1059.001,115.998 1046.167,113.664 1038.501,109.998 
		1034.834,105.164 1032.167,96.998 1031,88 1032,77 1034,67 1039,59 1043,51 1048,44 1054,38 1060,32 1066,26 1072,20 1078,14 
		1084,8 1090,2 1100,0 	"/>
	<polygon fill="#00FF00" stroke="#800080" points="1030.162,276.187 1020.162,274.187 1012,272 1002,270 992,268 985,263 979,257 
		974,250 972,240 970,230 969,220 971,211 973,201 976,191 978,182 982,174 986,166 991,158 995,151 999,143 1004,136 1011,130 
		1017,124 1023.334,119.302 1030.167,116.164 1037.001,114.664 1045.167,115.498 1055,116.831 1063.667,118.498 1074.834,121.331 
		1085.167,123.998 1094.501,127.831 1101.667,131.331 1108,135 1114,141 1120,147 1126,153 1130,161 1133,170 1136,179 1139,188 
		1141,198 1138,206 1134,214 1126,219 1118,223 1110,226 1100.167,229.785 1091.142,234.403 1083.796,238.391 1075.191,242.799 
		1067.214,247.416 1060.498,251.824 1053.572,256.861 1049.164,262.319 1041.608,267.986 1037.62,273.233 	"/>
	<polygon fill="#00FF00" stroke="#800080" points="1181,377 1170,376 1159,375 1148.122,375.385 1135.042,375.112 1125.328,374.567 
		1114.877,375.657 1104.794,374.84 1094.167,375.385 1082.722,372.932 1072.912,370.48 1065.281,365.03 1057,357 1050,352 1044,346 
		1038,340 1031,335 1027,327 1025.656,318.779 1026.495,309.334 1028.175,301.568 1030.274,292.333 1033.422,282.887 
		1038.669,274.492 1044.126,266.936 1049.164,262.319 1055,257.281 1063.647,251.194 1071.622,246.157 1079.808,242.379 
		1087.364,238.601 1094.29,235.242 1103.106,233 1113.6,231.885 1123.045,231.045 1131.651,233 1140,233 1149,236 1157,240 
		1165,244 1173,248 1179,254 1184,261 1190,267 1196,273 1201,280 1207,286 1213,292 1216,301 1219,310 1222,319 1225,328 1224,337 
		1221,345 1217,354 1212.433,360.942 1206,367 1199,371 1191,376 	"/>
	<polygon fill="#00FF00" stroke="#800080" points="1153.101,579.301 1146.333,577.551 1138.984,571.134 1131,566 1123,562 1116,557 
		1109,552 1102,547 1097,540 1092,533 1087,526 1082,519 1076,513 1075,502 1074,491 1073,480 1072,469 1071,458 1070,447 1071,436 
		1073,426 1074,415 1079.18,404.813 1082.449,398.545 1083.812,391.733 1087.9,384.92 1095.802,381.105 1103.159,377 1113.242,377 
		1125.328,377 1135.587,377 1145.943,377 1158.478,377 1169.377,378.38 1180.55,378.38 1191.45,379.47 1199.898,383.012 
		1203.168,387.1 1202.077,394.185 1198.808,399.635 1197.718,406.992 1196,416 1201,423 1206,430 1209,439 1211,449 1213,459 
		1215,469 1215,479 1213,489 1211,498 1208,508 1206,518 1202,526 1198,534 1194,542 1190,550 1186,558 1180,563 1173,568 
		1165.117,572.649 1159.167,576.616 	"/>
	<polygon fill="#00FF00" stroke="#800080" points="731,0 730.512,12.244 727.5,23 722.201,32.374 715,40.5 705.151,46.769 
		696.206,50.403 683.5,53 673.847,53.897 662.806,54.456 651.486,54.036 640,53 630.5,50 619.5,45 613.5,40.5 608.5,35.5 
		606.484,29.719 600.614,24.407 592.228,20.494 584.821,17.42 575.876,13.087 566.094,9.453 560.084,5.54 557,0 	"/>
</g>
</svg>
