<?xml version="1.0" encoding="utf-8"?>
<!-- Generator: Adobe Illustrator 16.0.1, SVG Export Plug-In . SVG Version: 6.00 Build 0)  -->
<!DOCTYPE svg PUBLIC "-//W3C//DTD SVG 1.1//EN" "http://www.w3.org/Graphics/SVG/1.1/DTD/svg11.dtd">
<svg version="1.1" id="Layer_1" xmlns="http://www.w3.org/2000/svg" xmlns:xlink="http://www.w3.org/1999/xlink" x="0px" y="0px"
	 width="1280px" height="1024px" viewBox="0 0 1280 1024" enable-background="new 0 0 1280 1024" xml:space="preserve">
<g id="Raw_image">
	
		<image overflow="visible" enable-background="new    " width="1280" height="1024" xlink:href="normal_23.jpg"  transform="matrix(1 0 0 1 2.441406e-004 -0.0012)">
	</image>
</g>
<g id="Not_annotated">
</g>
<g id="Clumps" display="none" opacity="0.5">
	<polygon display="inline" fill="#FF0000" stroke="#800080" points="100,235 88,235 78,233 68,231 62,225 57,218 51,212 46,205 
		41,198 37,190 35,180 33,170 34,159 37,149 40,141 46,134 51,128 58,122 67,119 76,116 84,113 95,111 106,110 116,112 126,114 
		134,118 140,124 145,131 149,139 153,147 157,155 159,165 160,176 158,186 155,195 151,202 145,209 139,214 132,219 125,224 
		117,228 109,232 	"/>
	<polygon display="inline" fill="#FF0000" stroke="#800080" points="273,545 261,545 251,543 242,540 233,537 225,533 218,528 
		212,522 206,516 202,508 197,501 194,492 194,482 195,471 196,460 198,450 202,441 205,433 208,424 213,416 218,410 224,403 
		230,398 237,393 245,388 255,386 261,381 257,373 253,365 248,358 242,352 237,345 232,338 228,330 224,322 221,313 219,303 
		217,293 218,282 218,270 220,260 223,250 226,241 230,234 236,228 242,222 249,216 257,212 267,210 279,210 288,213 296,217 
		303,222 310,227 317,232 323,238 331,242 340,245 347,250 354,255 361,260 367,266 372,273 376,281 379,290 381,300 381,312 
		380,323 379,334 377,343 373,351 368,358 362,365 356,370 349,375 341,379 333,383 326,389 332,395 339,400 345,406 350,413 
		354,421 358,429 359,440 360,451 360,463 357,472 354,481 351,490 346,497 342,505 337,512 332,518 325,523 318,528 310,532 
		302,536 293,539 284,542 274,544 	"/>
	<polygon display="inline" fill="#FF0000" stroke="#800080" points="526,1003 515,1002 504,1001 494,999 486,995 478,991 471,986 
		464,981 458,975 453,968 449,960 446,951 444,941 443,930 446,920 448,911 453,904 459,897 464,891 471,885 477,880 486,876 
		494,872 499,866 507,861 514,857 521,852 529,848 540,848 550,848 560,850 571,851 579,854 581,844 582,833 584,822 587,813 
		591,805 596,798 601,792 608,786 615,781 623,777 632,774 642,772 653,771 664,772 676,772 687,773 686,767 681,760 676,753 
		672,745 670,735 668,725 668,713 670,703 674,694 678,686 683,680 689,673 695,667 702,662 711,660 723,659 735,659 745,659 
		754,662 764,664 771,669 780,672 787,677 794,682 800,688 805,695 808,704 811,713 812,724 811,734 809,745 806,754 802,761 
		797,768 791,774 784,780 777,784 769,788 760,792 751,794 744,798 750,804 755,811 759,819 763,827 766,836 767,847 766,858 
		762,866 758,873 752,880 747,887 741,892 734,897 726,901 718,905 709,908 699,910 688,911 678,913 666,913 655,912 645,910 
		636,907 627,904 619,900 614,904 615,915 616,925 614,935 609,943 605,950 601,958 597,967 593,974 587,981 581,986 574,992 
		567,996 558,1000 548,1001 539,1002 527,1002 	"/>
	<polygon display="inline" fill="#FF0000" stroke="#800080" points="774,404 762,404 751,403 740,404 729,403 721,399 714,394 
		707,389 701,383 697,375 693,367 690,358 688,348 689,337 691,327 694,318 699,310 703,302 707,294 711,287 715,279 721,273 
		727,266 733,261 741,257 749,253 760,251 771,250 783,250 794,251 803,254 811,258 818,263 824,269 828,264 826,254 824,244 
		823,233 823,221 823,209 826,199 829,191 834,183 839,177 846,171 853,166 861,163 870,159 880,157 891,158 902,159 911,162 
		920,165 928,169 936,173 943,178 949,184 955,190 959,198 964,205 968,213 972,221 976,229 978,239 980,249 980,261 979,272 
		977,282 974,291 970,299 966,306 960,313 954,319 948,324 941,329 933,334 925,337 915,339 903,339 892,338 883,335 876,330 
		869,325 862,320 856,314 850,308 845,301 839,300 839,312 839,324 839,336 837,346 834,355 832,365 828,372 823,379 817,385 
		811,391 804,396 795,399 786,402 775,403 	"/>
	<polygon display="inline" fill="#FF0000" stroke="#800080" points="1183,1023 1187,1016 1192,1009 1188,1002 1182,996 1176,990 
		1170,984 1164,978 1159,971 1154,964 1150,956 1147,947 1147,935 1150,925 1155,918 1160,912 1165,905 1168,896 1173,888 1177,881 
		1183,875 1189,869 1196,864 1202,858 1209,853 1218,849 1227,846 1237,844 1248,843 1257,846 1265,850 1275,852 	"/>
</g>
<g id="Single_nuclei" opacity="0.5">
	<polygon fill="#00FF00" stroke="#800080" points="1280,744.717 1276.052,742.604 1271.406,737.964 1266.345,730.084 
		1262.825,720.939 1261.42,711.094 1260.717,699.839 1261.14,687.738 1262.406,676.483 1264.656,667.901 1267.189,658.476 
		1270.988,650.738 1275.207,644.407 1280,640.609 	"/>
	<polygon fill="#00FF00" stroke="#800080" points="0.471,250 7.471,253 13.471,259 19.471,265 26.471,270 32.471,276 37.471,283 
		41.471,291 45.471,299 49.471,307 52.471,316 54.471,326 56.471,336 56.471,348 56.471,360 53.471,369 50.471,378 46.471,385 
		41.471,392 35.471,398 28.471,403 20.471,407 12.471,411 0.471,413 	"/>
	<polygon fill="#00FF00" stroke="#800080" points="371.471,0 375.471,8 377.471,18 377.471,30 375.471,40 372.471,49 367.471,56 
		361.471,62 354.471,67 350.471,75 346.471,83 341.471,89 335.471,96 330.471,102 323.471,107 314.471,111 305.471,114 296.471,116 
		285.471,117 273.471,117 263.471,115 254.471,112 246.471,108 237.471,105 230.471,100 223.471,95 218.471,88 214.471,80 
		210.471,72 207.471,63 203.471,55 200.471,46 201.471,35 203.471,25 206.471,16 211.471,8 215.471,0 	"/>
	<polygon fill="#00FF00" stroke="#800080" points="304.75,1024 305.875,1014.875 308.75,1004.875 311.875,996.125 315.75,989.375 
		320.625,982.875 325.5,977.75 333.125,972.5 340,968.5 349,966.375 359,965.625 370.375,966 381.375,967.125 391.25,969.375 
		399.375,971.875 407,975.5 415.25,981.125 423.25,986.5 429.75,993.25 436.625,1000.875 442.25,1008.75 446.75,1015.625 
		450.5,1024 	"/>
	<polygon fill="#00FF00" stroke="#800080" points="457.471,221 447.471,219 437.471,217 428.471,214 419.471,211 412.471,206 
		406.471,200 401.471,193 397.471,185 394.471,176 391.471,167 390.471,156 392.471,146 395.471,136 398.471,128 403.471,121 
		409.471,114 416.471,109 424.471,105 432.471,101 442.471,99 451.471,96 462.471,95 473.471,96 485.471,96 494.471,99 503.471,102 
		511.471,106 518.471,111 524.471,117 531.471,122 536.471,129 540.471,137 542.471,147 542.471,159 541.471,170 538.471,179 
		534.471,187 529.471,193 522.471,199 515.471,203 507.471,207 498.471,210 489.471,214 480.471,216 471.471,219 460.471,220 	"/>
	<polygon fill="#00FF00" stroke="#800080" points="467.471,670 455.471,670 444.471,669 436.471,665 428.471,661 421.471,656 
		415.471,650 411.471,642 409.471,632 408.471,621 407.471,610 407.471,598 405.471,588 405.471,578 407.471,568 410.471,559 
		414.471,550 418.471,543 423.471,536 429.471,529 436.471,524 443.471,519 451.471,515 460.471,512 471.471,511 481.471,513 
		490.471,516 499.471,519 506.471,524 513.471,529 519.471,535 525.471,541 530.471,548 533.471,557 536.471,566 538.471,576 
		537.471,587 534.471,596 532.471,606 529.471,614 525.471,623 521.471,631 516.471,638 511.471,644 505.471,651 499.471,656 
		491.471,660 483.471,664 475.471,668 	"/>
	<polygon fill="#00FF00" stroke="#800080" points="500.365,511 492.471,511 481.471,510 472.471,507 464.471,503 456.471,499 
		449.471,494 441.471,490 436.471,483 432.471,475 429.471,466 431.471,456 433.471,446 435.471,436 439.471,427 441.471,417 
		443.471,408 445.471,398 448.471,389 453.471,382 458.471,375 465.471,369 472.471,365 481.471,362 491.471,359 501.471,359 
		511.471,361 520.471,364 527.471,369 533.471,375 537.471,383 542.471,390 547.471,397 550.471,406 553.471,415 557.471,423 
		558.471,434 558.471,444 556.471,453 552.471,462 549.471,470 544.471,478 540.471,486 535.471,492 529.471,499 523.471,504 
		515.532,508.375 507.974,509.887 	"/>
	<polygon fill="#00FF00" stroke="#800080" points="584.471,0 585.471,8 582.471,17 578.471,26 575.471,35 571.471,42 566.471,50 
		560.471,56 553.471,61 546.471,65 538.471,69 530.471,73 521.471,76 510.471,75 499.471,74 491.471,70 483.471,66 476.471,61 
		470.471,55 464.471,49 457.471,44 452.471,37 448.471,29 445.471,20 442.471,11 442.471,1 	"/>
	<polygon fill="#00FF00" stroke="#800080" points="558.471,356 547.471,355 536.471,354 527.471,351 519.471,347 512.471,342 
		506.471,336 502.471,328 497.471,321 493.471,313 490.471,304 489.471,293 489.471,281 491.471,271 493.471,261 495.471,251 
		499.471,243 504.471,235 510.471,229 517.471,224 524.471,219 532.471,215 541.471,213 551.471,210 563.471,210 573.471,210 
		583.471,212 592.471,215 600.471,219 608.471,223 614.471,229 620.471,235 624.471,243 630.471,249 634.471,257 638.471,265 
		640.471,275 641.471,286 640.471,297 638.471,307 634.471,314 629.471,322 624.471,329 618.471,335 611.471,340 604.471,344 
		595.471,347 586.471,351 577.471,353 567.471,355 	"/>
	<polygon fill="#00FF00" stroke="#800080" points="695.471,614 683.471,614 672.471,613 664.471,609 656.471,605 650.471,599 
		643.471,594 637.471,588 631.471,582 625.471,576 620.471,569 617.471,560 614.471,551 611.471,542 610.471,531 610.471,521 
		612.471,511 611.471,500 610.471,489 613.004,478.039 617.976,470.082 622.471,464 627.471,458 633.471,451 639.471,446 
		645.471,440 652.471,434 658.471,429 666.471,424 676.471,422 687.471,421 697.471,423 706.471,426 713.471,431 719.471,437 
		724.471,444 729.471,451 735.471,457 740.471,464 745.471,471 750.471,478 753.471,487 754.471,498 755.471,509 754.471,519 
		751.471,529 748.471,538 747.471,549 747.471,561 745.471,571 742.471,580 738.471,587 732.471,594 726.471,599 719.471,604 
		711.471,608 702.471,612 	"/>
	<polygon fill="#00FF00" stroke="#800080" points="718.471,220 706.471,220 695.471,219 684.471,218 675.471,215 666.471,212 
		659.471,207 652.471,202 645.471,197 639.471,191 634.471,184 629.471,177 626.471,168 624.471,158 625.471,147 628.471,138 
		632.471,130 637.471,122 643.471,117 651.471,112 658.471,108 665.471,103 671.471,97 678.471,92 686.471,87 696.471,85 
		706.471,83 717.471,84 726.471,83 735.471,86 745.471,88 752.471,93 759.471,98 764.471,105 770.471,111 775.471,118 778.471,127 
		780.471,137 781.471,148 781.471,160 779.471,170 775.471,178 770.471,185 766.471,192 760.471,199 754.471,204 747.471,209 
		739.471,214 730.471,216 721.471,219 	"/>
	<polygon fill="#00FF00" stroke="#800080" points="664.375,1024 667.125,1014.625 672,1006.875 676.25,1001.5 680.75,995.875 
		689,990.125 697.375,986.375 704.625,983.875 713.625,981.125 724,980.375 734.75,981 744.875,982.125 752.375,984.5 
		760.625,988.125 768,991.75 776,996.625 783.375,1000.875 789.375,1005.125 795.875,1010.5 802,1017.25 806.75,1024 	"/>
	<polygon fill="#00FF00" stroke="#800080" points="901.471,552 889.471,552 877.471,552 868.471,549 860.471,545 853.471,540 
		846.471,535 840.471,529 833.471,524 827.471,518 820.471,513 816.471,505 811.471,498 806.471,491 802.471,483 799.471,474 
		798.471,463 797.471,452 799.471,441 801.471,432 806.471,424 809.471,415 813.471,407 818.471,400 824.471,394 830.471,388 
		836.471,383 843.471,378 851.471,374 860.471,370 870.567,368.775 880.471,368 890.471,370 898.471,374 907.471,377 915.471,381 
		923.471,385 931.471,389 939.471,393 946.471,398 953.471,403 959.471,409 966.471,414 971.471,421 975.471,429 979.471,437 
		982.471,446 985.471,455 989.471,463 992.471,472 993.471,483 991.853,493.371 989.471,502 983.471,509 979.471,516 974.471,524 
		968.471,529 961.471,534 953.471,538 944.471,542 936.471,545 926.471,547 916.471,549 906.471,551 	"/>
	<polygon fill="#00FF00" stroke="#800080" points="870.471,714 858.471,714 847.471,713 837.471,711 828.471,708 821.471,703 
		814.471,698 810.471,690 805.471,683 801.471,675 800.471,664 800.471,652 801.471,641 803.471,631 806.471,622 809.471,613 
		815.471,606 823.471,602 830.471,598 838.471,594 847.471,591 857.471,588 866.471,586 877.471,584 887.471,586 899.471,586 
		908.471,589 916.471,593 922.471,599 927.471,606 930.471,615 933.471,624 934.471,635 935.471,646 933.471,656 930.471,665 
		926.471,673 921.471,679 915.471,686 909.471,692 902.471,697 895.471,702 888.471,707 881.471,711 871.471,713 	"/>
	<polygon fill="#00FF00" stroke="#800080" points="1032.75,1024 1032.5,1012.83 1032.5,1000.496 1034.832,990.83 1037.5,983.996 
		1040.666,977.163 1044.75,971.5 1051.25,966 1059.25,961.5 1066.75,957.5 1076.5,954.25 1085,952.25 1097,951.33 1105.5,953 
		1114.25,955.25 1122.75,957.75 1130.5,960.996 1138,965 1145.471,971 1151.471,977 1155.5,983 1159.832,989.996 1163.75,1000 
		1166.5,1012.25 1167,1024 	"/>
	<polygon fill="#00FF00" stroke="#800080" points="1115.471,309 1103.471,309 1091.471,309 1081.471,307 1072.471,304 1065.471,299 
		1059.471,293 1053.471,287 1049.471,279 1045.471,271 1042.471,262 1040.471,252 1039.471,241 1039.471,229 1040.471,218 
		1043.471,209 1046.471,200 1050.471,192 1056.471,186 1064.471,181 1074.015,177.363 1081.471,174 1092.674,171.946 
		1101.7,171.344 1112.237,170.741 1121.471,172 1131.471,174 1139.022,178.567 1145.471,184 1150.471,191 1153.471,200 
		1153.471,210 1157.471,218 1162.471,225 1165.471,234 1167.471,244 1168.471,255 1167.471,266 1165.471,275 1160.471,283 
		1155.471,290 1149.471,296 1143.471,301 1135.471,305 1125.471,308 	"/>
	<polygon fill="#00FF00" stroke="#800080" points="93.471,231 83.471,229 73.471,227 65.471,223 59.471,217 53.471,211 47.471,205 
		41.471,199 38.471,190 35.471,181 33.471,171 34.471,160 35.471,149 39.471,140 42.471,132 49.471,126 56.471,121 64.471,117 
		72.471,114 81.471,111 92.471,109 102.471,109 113.471,110 123.471,112 131.471,116 138.471,121 144.471,127 147.471,136 
		151.471,144 153.471,154 155.471,164 155.471,174 152.471,183 149.471,191 144.471,198 138.471,204 132.471,210 126.471,216 
		118.471,220 110.471,224 101.471,227 	"/>
	<polygon fill="#00FF00" stroke="#800080" points="272.471,544 260.471,544 251.471,541 241.471,539 233.471,535 225.471,531 
		218.471,526 212.471,520 206.471,514 202.471,506 198.471,498 195.471,489 195.471,477 196.471,466 198.471,456 201.471,446 
		205.471,438 207.471,429 211.471,421 216.471,414 222.471,408 228.471,401 235.471,396 243.269,392.009 252.469,388.031 
		260.674,387 272.471,387 283.471,388 295.471,388 308.412,389.524 318.36,391.761 327.808,395.49 333.471,398 340.471,403 
		346.471,409 350.471,417 354.471,425 357.149,433.036 358.471,445 359.471,456 358.471,466 355.905,474.809 352.471,485 
		348.695,492.713 343.471,500 339.471,507 334.471,514 328.471,520 320.471,525 313.471,529 305.471,534 296.471,537 287.471,540 
		278.471,542 	"/>
	<polygon fill="#00FF00" stroke="#800080" points="277.471,386 269.588,382.451 261.917,378.334 256.448,373.859 252.471,368 
		248.471,360 244.471,352 240.471,344 236.471,336 232.471,328 228.471,320 224.471,312 221.637,303.491 219.471,293 219.471,281 
		219.471,269 221.471,259 224.471,250 227.471,241 231.471,233 236.471,226 242.471,220 250.471,215 259.471,212 269.471,210 
		280.471,211 289.471,214 296.471,219 303.471,224 310.471,229 318.471,233 326.471,237 334.471,241 342.471,245 349.471,250 
		357.471,254 364.471,259 368.471,267 373.471,274 378.471,281 378.471,293 378.471,305 378.471,317 377.471,328 375.471,338 
		372.471,347 367.471,354 363.471,361 356.471,366 349.471,371 342.471,376 334.471,380 325.471,383 315.471,386 305.471,387 
		293.471,387 285.29,387 	"/>
	<polygon fill="#00FF00" stroke="#800080" points="677.471,912 665.471,912 654.471,911 644.471,909 636.471,905 627.471,902 
		619.471,898 613.471,893.97 606.471,887 601.471,880 596.471,873 591.471,866 586.471,859 582.471,851 582.471,839 584.471,828 
		586.471,819 590.471,810 594.471,803 599.471,796 605.471,790 612.471,784 620.471,780 628.471,776 638.471,774 648.471,772 
		660.471,772 671.471,773 682.471,774 692.471,776 701.471,779 709.471,783 718.471,786 726.471,790 735.471,793 742.471,798 
		748.471,804 753.471,811 758.471,818 762.471,826 765.471,835 766.471,846 765.471,857 761.471,865 757.471,872 751.471,879 
		746.471,886 740.471,891 733.471,896 725.471,900 717.471,904 708.471,907 698.471,909 687.471,910 	"/>
	<polygon fill="#00FF00" stroke="#800080" points="743.471,794 734.471,791 725.471,788 717.471,784 708.471,781 699.471,778 
		692.471,773 687.471,766 682.471,759 677.471,752 673.471,744 671.471,734 669.471,724 669.471,712 671.471,702 675.471,694 
		680.471,686 685.471,680 691.471,673 697.471,667 705.471,663 714.471,660 726.471,660 737.471,660 747.471,661 757.471,663 
		765.471,667 773.471,671 781.471,675 788.471,680 795.471,685 800.471,692 805.471,699 808.471,708 810.471,718 811.471,728 
		809.471,738 806.471,748 803.471,757 798.471,764 793.471,770 787.471,777 779.471,781 772.471,785 763.471,789 755.471,792 
		744.471,793 	"/>
	<polygon fill="#00FF00" stroke="#800080" points="551.227,999.096 540.471,1000 529.361,1000 517.586,1000 505.471,999 
		494.471,998 485.471,995 478.902,990.056 471.331,984.802 465.471,979 459.471,973 454.471,966 450.5,958.519 448.471,948 
		446.471,938 445.471,927 447.471,919 453.471,912 457.471,905 462.471,898 468.471,891 475.471,886 482.471,881 489.471,877 
		496.471,872 503.471,867 510.471,862 518.471,857 527.049,854.026 536.93,852.135 548.471,853 558.471,855 569.471,856 
		578.471,859 586.338,863 592.471,869 597.471,876 602.471,883 606.732,890.185 610.306,899.016 613.471,908 614.511,919.83 
		614.511,930.344 611.568,940.014 607.471,949 603.471,958 598.471,964 593.471,971 588.471,978 582.471,983.959 575.471,989 
		567.471,993 558.471,997 	"/>
	<polygon fill="#00FF00" stroke="#800080" points="773.471,403 761.471,403 750.471,402 739.471,403 729.471,401 720.471,398 
		714.471,392 707.471,387 702.471,380 697.471,373 693.471,365 691.471,355 689.471,345 690.471,334 693.471,325 697.471,316 
		701.471,309 705.471,301 709.471,293 713.471,285 718.471,278 724.471,271 730.471,265 737.471,260 745.471,256 753.471,253 
		764.471,252 776.471,251 788.471,251 797.471,254 806.471,257 813.471,262 820.471,267 826.471,273 832.344,279.689 
		835.655,289.621 837.471,298 838.471,309 838.471,321 838.471,333 837.471,344 834.471,353 831.471,362 828.471,370 823.471,377 
		817.471,383 811.471,389 804.471,394 796.471,398 787.471,401 776.471,402 	"/>
	<polygon fill="#00FF00" stroke="#800080" points="915.471,338 903.471,338 892.471,337 883.471,334 876.471,329 869.471,324 
		865.448,319.115 858.825,313.096 854.013,305.873 849.198,298.349 844.383,291.427 840.471,281 836.471,273 833.245,264.641 
		831.141,255.613 828.733,245.681 826.625,236.05 824.471,225 824.471,213 826.471,203 829.471,194 833.471,186 839.471,179 
		845.471,173 852.471,169 860.471,164 869.471,161 879.471,159 889.471,159 900.471,160 909.471,163 918.471,166 926.471,170 
		934.471,174 941.471,179 948.471,184 953.471,191 958.471,198 962.471,206 967.471,213 971.471,221 975.471,229 977.471,239 
		979.471,249 979.471,261 978.471,272 976.471,282 973.471,291 969.471,299 964.471,306 959.471,312 953.471,318 946.471,324 
		939.471,329 932.471,333 923.471,336 	"/>
	<polygon fill="#00FF00" stroke="#800080" points="1280,974.888 1280,986.996 1280,999.185 1280,1010 1270.25,1010 1257,1010 
		1246,1009.5 1235.5,1008.75 1223,1008.25 1215.5,1007 1206.25,1004.5 1199.25,1000.75 1191.5,997 1184.5,991.25 1177.75,985.5 
		1171.471,979.75 1167.25,974.25 1163,968 1157.75,960.75 1154.5,951.5 1153,942.75 1154,932.888 1158.75,925 1164,918.888 
		1170,911.888 1175,905.888 1177,895.888 1181,886.888 1187,880.888 1193,874.888 1200,869.888 1206,864.888 1213,859.888 
		1222,855.888 1231,852.888 1241.25,851.25 1252.25,851.25 1260.75,854.25 1270,857.75 1280,862.459 	"/>
	<polygon fill="#00FF00" stroke="#800080" points="1200.663,1024 1204.498,1019.33 1209.329,1015.83 1214.329,1014.33 
		1219.998,1012.496 1226.498,1011.163 1232.498,1011.163 1238.329,1011.163 1244.329,1011.163 1249.329,1011.163 1256.163,1011.163 
		1260.998,1011.996 1265.829,1012.83 1270.329,1013.83 1273.829,1015.663 1276.998,1017.581 1279.329,1020.163 1280,1024 	"/>
	<polygon fill="#00FF00" stroke="#800080" points="0.293,42.166 6.334,47 16.667,53.5 24.857,56.673 37.167,58.5 48.667,57.333 
		61.667,53.666 70.334,50.166 78.667,45 87.449,38 94.293,32.892 102.753,25.936 108.779,18.98 113.666,12.834 116.833,6.501 
		119.166,0.001 0.293,0.001 	"/>
	<polygon fill="#00FF00" stroke="#800080" points="0.293,42.166 6.334,47 16.667,53.5 24.857,56.673 37.167,58.5 48.667,57.333 
		61.667,53.666 70.334,50.166 78.667,45 87.449,38 94.293,32.892 102.753,25.936 108.779,18.98 113.666,12.834 116.833,6.501 
		119.166,0.001 0.293,0.001 	"/>
</g>
</svg>
