<?xml version="1.0" encoding="utf-8"?>
<!-- Generator: Adobe Illustrator 16.0.1, SVG Export Plug-In . SVG Version: 6.00 Build 0)  -->
<!DOCTYPE svg PUBLIC "-//W3C//DTD SVG 1.1//EN" "http://www.w3.org/Graphics/SVG/1.1/DTD/svg11.dtd">
<svg version="1.1" id="Layer_1" xmlns="http://www.w3.org/2000/svg" xmlns:xlink="http://www.w3.org/1999/xlink" x="0px" y="0px"
	 width="1280px" height="1024px" viewBox="0 0 1280 1024" enable-background="new 0 0 1280 1024" xml:space="preserve">
<g id="Raw_image">
	
		<image overflow="visible" enable-background="new    " width="1280" height="1024" xlink:href="4171_raw.jpg"  transform="matrix(1 0 0 1 2.441406e-004 -2.441406e-004)">
	</image>
</g>
<g id="Not_annotated" opacity="0.5">
	<polygon fill="#0000FF" stroke="#800080" points="440,1023 446,1018 456,1016 467,1015 479,1015 490,1016 501,1017 508,1022 	"/>
	<polygon fill="#0000FF" stroke="#800080" points="685,668 676,665 670,659 664,653 658,648 666,644 673,643 680,642 684,637 
		690,634 697,630 701,621 705,614 713,613 716,604 720,601 725,597 731,600 731,592 735,584 743,582 742,571 742,566 751,569 
		754,562 760,568 759,575 757,581 759,589 758,598 760,608 755,615 752,622 749,630 744,637 738,643 732,647 723,648 718,655 
		712,661 702,664 694,663 687,666 	"/>
	<polygon fill="#0000FF" stroke="#800080" points="1279,295 1273,291 1272,282 1272,271 1272,260 1273,249 1273,237 1273,227 
		1277,218 	"/>
</g>
<g id="Clumps" display="none" opacity="0.5">
	<polygon display="inline" fill="#FF0000" stroke="#800080" points="256,522 244,522 232,522 222,520 213,517 207,511 200,506 
		193,501 187,495 181,489 176,482 171,475 167,467 163,459 160,450 158,440 160,429 162,420 167,412 172,406 180,401 191,400 
		202,399 211,402 217,408 225,412 233,416 241,420 251,421 249,413 244,406 236,402 230,396 224,390 217,385 213,377 213,367 
		217,358 223,352 230,347 238,343 249,342 259,340 270,341 280,343 290,345 299,348 308,351 316,355 322,361 328,367 332,375 
		337,382 341,390 342,401 344,411 345,422 345,434 343,444 340,452 335,460 328,465 320,468 309,467 300,464 292,466 292,477 
		292,487 289,495 284,503 278,509 271,514 264,518 	"/>
	<polygon display="inline" fill="#FF0000" stroke="#800080" points="625,625 613,625 603,623 593,621 583,619 575,615 568,610 
		560,606 554,600 549,593 544,586 541,577 540,566 542,556 546,548 552,542 559,536 566,531 574,527 582,523 590,520 598,516 
		605,511 612,506 619,501 627,496 635,492 643,488 648,482 643,475 639,467 637,459 640,450 643,441 650,435 655,429 661,423 
		668,417 673,411 678,404 684,397 691,393 700,389 710,388 722,387 731,390 739,394 743,402 748,409 749,420 748,431 747,442 
		743,450 741,460 737,467 729,471 720,475 714,480 708,487 701,491 692,494 691,502 695,510 699,518 703,526 706,535 707,546 
		707,558 706,569 703,578 699,586 693,592 688,598 681,604 674,609 667,613 658,617 650,620 640,622 630,624 	"/>
	<polygon display="inline" fill="#FF0000" stroke="#800080" points="1014,649 1004,647 993,648 983,646 977,640 972,633 968,625 
		967,614 963,606 960,597 957,588 955,578 949,572 943,566 945,555 950,548 954,541 959,533 964,527 972,522 980,518 987,513 
		992,507 1001,503 1013,503 1024,502 1031,507 1039,511 1045,517 1050,524 1054,532 1056,542 1054,552 1053,561 1054,572 1056,582 
		1053,591 1050,600 1045,607 1038,612 1033,619 1031,628 1027,637 1022,644 1015,648 	"/>
	<polygon display="inline" fill="#FF0000" stroke="#800080" points="1279,151 1273,147 1267,142 1266,153 1266,165 1265,175 
		1263,186 1260,195 1256,202 1250,209 1245,215 1238,220 1228,222 1218,222 1207,221 1198,218 1190,214 1183,209 1177,203 1171,197 
		1167,189 1163,181 1159,173 1155,165 1151,157 1147,149 1144,140 1142,130 1142,118 1144,108 1148,99 1153,93 1160,87 1167,82 
		1174,78 1184,75 1194,73 1204,73 1213,76 1221,80 1227,86 1233,92 1239,98 1245,104 1251,110 1256,117 1260,125 1263,121 1262,110 
		1263,99 1266,89 1269,81 1273,73 	"/>
</g>
<g id="Single_nuclei" opacity="0.5">
	<polygon fill="#00FF00" stroke="#800080" points="1280,646 1273.25,640.25 1269,634 1265,626 1263.5,615.75 1265,605 1268,596 
		1272,588 1280,581 	"/>
	<polygon fill="#00FF00" stroke="#800080" points="0,952 6,956 11,963 15.513,973 19,986.598 19,999.392 14.544,1010.054 
		7.91,1019.057 0,1024 	"/>
	<polygon fill="#00FF00" stroke="#800080" points="853,0 847.955,5.207 839.579,10.061 830.156,14.916 822.065,19.77 
		814.545,25.196 802.076,29.86 789.701,31.669 779.898,31 769.427,28.432 761.241,24.91 754.388,19.58 750.009,13.583 
		748.106,7.301 747.44,0 	"/>
	<polygon fill="#00FF00" stroke="#800080" points="1025,0 1021.376,6.316 1014,11 1007,16 1001,22 995,27 989,33 984,40 975,44 
		965,43 957,39 950,34 946.082,25.427 941.363,18.405 936.182,12.763 928,8 923,0 	"/>
	<polygon fill="#00FF00" stroke="#800080" points="0,10 8,12 15,17 20,24 25,31 27,41 26,52 25,63 22,71 18,80 11.504,88.626 
		6.46,96.098 0,103.571 	"/>
	<polygon fill="#00FF00" stroke="#800080" points="0,360 7,356 16,353 26,350 38,350 49,351 58,354 67,357 75,361 82,366 87,373 
		92,380 97,387 102,394 106,402 110,410 113,419 112,430 115,439 114,449 109,457 105,464 98,469 91,474 83,478 73,480 63,482 
		53,484 41,484 30,483 21,480 14,475 6,471 0,465 	"/>
	<polygon fill="#00FF00" stroke="#800080" points="0,654.963 8.626,656.833 16.106,661.741 22.416,667.35 27.558,674.595 32,683 
		36,691 39,700 40,711 39,722 36,731 32,739 24.507,749.383 17.742,755.932 8.626,761.543 0,766.918 	"/>
	<polygon fill="#00FF00" stroke="#800080" points="75,937 63,937 52,936 42,934 34,930 28,924 22,918 18,910 17,899 20,889 24,881 
		29,874 34,868 41,863 48,858 56,853 64,849 71,845 80,841 91,840 101,842 109,846 116,851 121,858 126,865 128,875 129,886 
		127,896 125,905 121,914 115,920 109,925 102,930 93,934 84,936 	"/>
	<polygon fill="#00FF00" stroke="#800080" points="32,1024 32,1014 35,1004 38,996 43,989 50,983 57,979 66,975 76,973 88,973 
		96.995,974.515 106.472,978.543 114.765,983.282 121.872,989.442 128.032,998.5 132.771,1006.737 136.088,1015.504 138.931,1024 	
		"/>
	<polygon fill="#00FF00" stroke="#800080" points="134,0 139,7 140,16 137,25 134,34 134.899,42 132,49 124,53 116,57 106,55 
		100,49 95,42 90,35 82,38 76,43 67,44 59,40 51,36 46,29 49,20 53.673,14.973 52.416,10 45.504,6.053 38,0 	"/>
	<polygon fill="#00FF00" stroke="#800080" points="124,810 112,810 101,809 91,807 84,802 77,797 73,789 70,780 68,770 68,759 
		70,750 75,742 79,734 83,727 88,720 92,712 97,705 104,699 111,694 118,689 126,685 135,682 146,681 158,681 167,684 174,689 
		179,696 181,706 183,716 183,728 183,740 182,751 180,761 177,770 173,778 169,785 163,792 157,798 149,802 140,805 132,808 	"/>
	<polygon fill="#00FF00" stroke="#800080" points="195,666 183,666 171,666 161,664 152,661 145,656 142,647 138,639 132,633 
		127,626 122,619 119,610 117,600 119,589 121,580 125,571 130,565 138,560 143,554 149,547 155,542 162,537 171,533 179,529 
		189,527 198,525 210,524 221,525 230,528 237,533 243,539 248,546 252,554 256,562 259,571 262,580 261,591 259,601 256,609 
		251,617 247,624 241,630 232,633 224,637 217,642 211,649 208,657 202,663 	"/>
	<polygon fill="#00FF00" stroke="#800080" points="192,330 180,330 172,326 166,320 160,314 153,309 149,301 145,293 144,282 
		144,270 145,259 149,251 155,244 161,238 167,233 175,229 185,226 195,224 206,223 216,225 226,227 234,231 241,236 248,241 
		252,249 255,258 257,268 257,279 255,290 251,297 246,305 241,311 234,316 225,319 215,321 206,325 198,328 	"/>
	<polygon fill="#00FF00" stroke="#800080" points="208,192 198,190 188,188 181,183 174,178 170,170 165,163 161,155 159,145 
		158,134 161,125 166,117 171,111 178,105 185,100 194,97 204,95 214,93 224,93 234,95 242,99 249,104 255,110 261,116 265,124 
		270,131 271,142 271,153 268,163 264,171 259,177 252,183 245,187 236,190 225,191 213,191 	"/>
	<polygon fill="#00FF00" stroke="#800080" points="269.494,0 270,5 272,15 275,24 274,33 269,39 264,47 257,51 249,56 245,63 
		239,69 230,72 221,69 212.817,66.369 205.658,66.369 196.297,64.993 191.066,56.785 186,48 180.197,42 172,38 165.671,34.835 
		164,28.845 167.867,23.988 175.448,19.229 181.343,12.178 187.483,0 	"/>
	<polygon fill="#00FF00" stroke="#800080" points="271,1012 259,1012 248,1011 238,1009 229,1006 221,1002 213,998 207,992 203,984 
		199,976 196,967 195,956 193,946 195,935 198,927 203,919 209,913 217,909 227,907 238,908 248,910 258,912 268,911 278,908 
		288,906 300,906 310,908 316,914 320,922 323,931 324,942 325,953 323,963 320,972 316,979 311,987 305,993 299,998 292,1003 
		284,1007 275,1011 	"/>
	<polygon fill="#00FF00" stroke="#800080" points="329,624 318,623 308,621 296,621 288,617 283,610 280,601 277,592 277,580 
		278,569 280,559 285,551 291,545 297,540 305,535 313,531 322,528 334,528 345,529 357,529 366,532 373,537 380,542 386,548 
		389,557 393,565 396,574 394,584 391,593 388,602 383,608 376,613 370,619 360,622 351,622 341,620 332,623 	"/>
	<polygon fill="#00FF00" stroke="#800080" points="415,0 422,5 429,10 433,18 434,29 433,40 430,49 426,56 421,63 414,69 407,74 
		399,78 391,81 382,84 370,84 360,82 350,80 342,76 335,71 329,65 322,60 316,54 311,47 307,39 304,30 301,21 300,10 303,0 	"/>
	<polygon fill="#00FF00" stroke="#800080" points="364,217 353,216 343,214 334,211 327,206 323,198 322,189 324,179 327,170 
		329,160 329.648,151.199 328,145 327,134 329,124 334,116 341,111 348,107 357,103 368,102 378.033,102.815 387.561,104.683 
		397,109 404,114 411,119 415.77,123.551 422,132 426,140 428,150 429,161 427,171 424,179 420,187 414,194 408,199 401,205 
		393,209 385,213 376,216 368.88,217 	"/>
	<polygon fill="#00FF00" stroke="#800080" points="450.392,530.581 444,530 434,528 424,526 416,522 409,517 401,513 394,508 
		387,503 382.511,496.258 378,488 375,479 372,470 370,460 369,449 368,438 369,427 371,417 373,407 377,399 381,391 387,385 
		395,380 404,377 414,375 424,375 435,376 444,379 452,383 459,388 465,394 470,401 474,409 478,417 482,425 486,433 489,442 
		492,451 495,460 497,470 500,479 500,491 498,501 494,509 489,516 483,521 475,525 465,528 456,530 	"/>
	<polygon fill="#00FF00" stroke="#800080" points="426,837 414,837 402,837 393,834 386,829 379,824 375,816 371,808 368,799 
		368,787 369,776 372,766 375,758 379,750 384,742 388,734 392,727 398,721 405,716 413,712 423,709 433,707 443,705 454,706 
		463,709 471,713 477,719 482,726 487,733 492,740 494,750 495,761 493,771 490,780 487,789 483,797 479,805 474,812 469,819 
		462,823 453,826 445,830 436,833 427,836 	"/>
	<polygon fill="#00FF00" stroke="#800080" points="454.75,982.25 442.25,983.5 431.5,978.75 423,975 416,970 412,962 409,953 
		408,942 406,932 406,920 409,911 414,903 419,897 425,891 433,887 442,883 451,880 461,878 472,877 482,879 490,883 497,888 
		504,893 511,898 517,904 524,909 528,917 528,929 527,940 523,947 517,953 509.75,959 501,964 493.75,966.5 485.066,966.937 
		477,966 468.5,970.5 463.5,977.5 	"/>
	<polygon fill="#00FF00" stroke="#800080" points="524,326 513,325 503,323 495,319 489,313 482,308 474,304 465,301 457,297 
		450,292 444,286 439,279 437,269 434,260 434,250 431,241 430,230 431,219 435,211 439,202 442,194 446,186 452,179 457,172 
		463,166 472,163 483,162 494,163 504,165 511,170 518,175 525,180 530,187 536,193 540,201 541,212 541,224 542,235 543,246 
		546,255 552,261 557,268 561,276 563,286 564,297 560,304 554,310 548,316 540,321 532,324 	"/>
	<polygon fill="#00FF00" stroke="#800080" points="541.335,141.446 533,141.446 524,141 513,140 502,139 492,137 483.631,133.195 
		477,128 471,122 467,114 465,104 465,94 467.45,84 471,76 476,69 481,62 485,54 490,47 495,40 501,33 508,28 515,23 523,19 532,16 
		543,15 553,15 564,16 572,20 579,25 585,31 590,38 594,46 598,54 600,64 601,75 599,85 597,95 594,104 590,111 585,118 578,124 
		571,129 564,134 555.638,137.15 547.466,140.531 	"/>
	<polygon fill="#00FF00" stroke="#800080" points="546,720 534,720 525,717 518,712 511,707 505,701 500,694 495,687 490,680 
		486,672 482,664 479,655 479,643 483,634 488,627 494,621 502,617 512,615 522,613 533,614 542,617 551,620 559,624 566,629 
		572,635 577,642 582,649 586,657 587,668 586,679 584,688 580,696 574,703 568,708 561,714 553,718 	"/>
	<polygon fill="#00FF00" stroke="#800080" points="590,447 579,446 568,445 560,441 553,436 548,429 544,421 543,410 537,404 
		530,399 527,390 524,381 525,370 528,360 532,352 536,345 540,337 546,330 553,326 563,323 574,322 582,319 592,316 603,315 
		612,316 619,321 627,325 636,328 643,333 649.584,338.685 654,346 658,354 660.551,365 659,377 656,386 652,394 645.49,402.682 
		637.556,404.84 631,409 627,416 622,424 617,431 611,437 605,442 596,445 	"/>
	<polygon fill="#00FF00" stroke="#800080" points="635,991 624,990 616,986 607,983 598,980 587,979 577,977 569,973 565,965 
		562,956 562,944 561,933 563,922 567,914 570,906 577,900 585,896 593,892 602,889 612.25,888.25 621,890 630,893 639,896 647,900 
		656,903 663,908 668,915 673,922 675,932 675,942 674,953 671,962 667,970 662,977 656,983 649,987 640,990 	"/>
	<polygon fill="#00FF00" stroke="#800080" points="634,813 622,813 612,811 602,813 594,809 588,803 584,795 581,786 581,774 
		581,762 583,752 586,743 591,735 596,729 603,723 608,717 614,711 622,706 630,702 640,700 652,700 661,703 669,707 675,713 
		679,721 682,730 685,739 684,750 681,759 677,767 673,775 669,783 665,791 660,798 654,803 646,808 638,812 	"/>
	<polygon fill="#00FF00" stroke="#800080" points="713.472,0 718.346,7.259 722.44,12.912 726,19 729,28 731,38 733,48 732,59 
		729,68 726,76 721,84 716,90 709,95 702,100 694,104 683,105 674,102 667,97 660,92 653,87 649,79 646,70 643.487,60.869 638,54 
		634.129,46.053 631,37 628,28 627,17 631,8 636.663,0 	"/>
	<polygon fill="#00FF00" stroke="#800080" points="712,365 701,364 690,363 682,359 675,354 669,348 663,342 657,336 652,329 
		647,322 643,314 642,303 642,291 643,280 646,270 649,262 653,254 658,247 665,241 672,236 679,232 687,227 696,224 706,223 
		717,221 728,220 739,221 747,225 754,230 760,236 765,243 768,252 766,262 761,269 758,278 761,287 766,294 770,302 772,312 
		771,323 769,333 764,340 758,346 751,351 744,355 735,359 727,362 716,364 	"/>
	<polygon fill="#00FF00" stroke="#800080" points="672,1024 672,1013 674,1003 677,994 682,986 687,980 694,975 702,970 710,966 
		719,963 730,962 740,962 747.75,962 761,965 770,968 778,972 785.25,977 792.5,983.5 797.75,991 802.75,1000 807.75,1012.25 
		810,1024 	"/>
	<polygon fill="#00FF00" stroke="#800080" points="758.892,944.604 747.888,944.604 736.884,941.697 729.824,938.168 719,936 
		710,933 704,927 700,919 698,909 693,902 689,894 686,885 686,873 687.47,864.048 694,858 699.447,856.357 709.893,854.29 
		711.969,850.968 710.309,847.438 704.702,847.022 699.927,844.324 697.021,838.718 697.531,831.236 701.393,824.966 
		706.156,822.108 712.177,822.108 717.676,823.393 722.909,825.487 729.329,828.78 732.939,832.697 736.053,831.866 
		739.726,828.475 744.85,827.184 752.662,828.13 759.93,833.527 769,847 774,854 779,861 786,866 792,872 796,880 799,889 
		798.547,898.719 796,908 793,916 789,925 784,931 777,936 769.065,941.697 	"/>
	<polygon fill="#00FF00" stroke="#800080" points="769,534 757,534 749,530 743,524 739,516 738,505 739,494 741,484 745,475 
		749,468 751,458 754,449 760,439 765.973,432.078 774.463,429 780.124,433.14 785.076,439 791,440 799,435 803.615,431.014 
		810.548,429 819.038,433.14 828.944,439 838,444 845,449 850,456 855,463 859,471 864,478 866,488 862,496 856,502 852,509 
		847,517 839,520 829,518 818,519 806,520 798,523 791,528 782,532 772,533 	"/>
	<polygon fill="#00FF00" stroke="#800080" points="798,158 787,157 776,156 767,153 760,148 755,141 750,134 746,126 744,116 
		741,107 740,96 740,86 744,77 750,71 756,65 761,59 770,55 780,53 791,54 801,56 813,56 824,55 834,57 841,62 847,68 851,76 
		853,86 854,97 853,107 852,119 848,127 843,133 838,140 829,143 821,147 813,151 805,155 	"/>
	<polygon fill="#00FF00" stroke="#800080" points="802,259 792,257 785,252 780,245 777,236 774,227 773,216 775,206 780,199 
		786,193 792,187 798,180 806,176 815,173 826,172 837,171 847,171 856,174 864,178 870,184 875,191 879,199 882,208 884,218 
		883,229 881,238 875,245 868,249 859,252 849,254 839,256 827,256 816,257 805,258 	"/>
	<polygon fill="#00FF00" stroke="#800080" points="869,394 858,393 847,394 838,391 831,386 824,381 818,375 812,369 806,363 
		802,355 798,347 800,337 803,328 807,319 812,312 819,307 826,303 833,298 843,295 853,295 863,297 872,300 880,304 888,308 
		894,314 901,319 905,327 908,336 910,346 909,357 906,366 902,373 896,379 889,385 882,390 874,393 	"/>
	<polygon fill="#00FF00" stroke="#800080" points="850,750 839,749 831,745 823,741 817,735 808,732 804,724 801,715 800,704 
		798,694 800,684 803,675 807,666 812,660 819,654 826,649 834,645 842,641 852,641 863,642 874,643 884,645 893,648 900,653 
		906,659 911,666 916,673 919,682 922,691 923,701 920,711 916,719 911,725 907,734 900,738 892,742 884,746 872,747 862,748 
		851,749 	"/>
	<polygon fill="#00FF00" stroke="#800080" points="900,988 888,988 876,988 866,986 858,982 851,977 844,972 839,965 834,958 
		831,949 829,939 828,928 830,918 834,909 839,902 845,897 853,892 861,888 871,886 882,885 894,885 905,884 917,884 927,886 
		936,889 945,892 952,897 958,903 963,910 967,918 969,928 969,938 967,948 963,956 958,963 952,968 945,974 937,978 929,981 
		919,983 909,985 	"/>
	<polygon fill="#00FF00" stroke="#800080" points="973,228 962,227 952,225 944,221 936,217 929,212 922,207 915,202 909,196 
		904,189 899,182 897,172 895,162 896,150 896,141 897,130 901,121 908,116 916,113 919,105 925,99 932,94 940,91 950,88 960,88 
		971,89 980,92 987,97 993,103 999,109 1004,116 1009,123 1013,131 1016,140 1019,149 1021,159 1022,170 1020,180 1017,189 
		1013,197 1009,205 1004,212 998,217 991,222 982,226 	"/>
	<polygon fill="#00FF00" stroke="#800080" points="954,509 943,508 934,505 926,501 919,496 914,489 909,482 905,474 901,466 
		898,457 895,448 898,439 901,430 905,422 910,415 916,408 924,404 933,402 943,399 955,399 965,401 973,405 981,409 988,414 
		994,420 1000,426 1005,433 1011,439 1013,449 1012,460 1011,471 1008,480 1006,490 1000,496 991,498 983,502 974,505 964,507 	"/>
	<polygon fill="#00FF00" stroke="#800080" points="969,361 957,361 948,358 940,354 936,346 929,341 923,335 918,328 914,320 
		913,309 910,300 910,288 912,278 916,270 921,263 926,256 932,250 941,246 951,244 962,243 973,244 982,247 990,251 997,256 
		1004,261 1010,267 1015,274 1020,281 1025,288 1028,297 1031,306 1031,318 1029,327 1023,333 1016,339 1007,341 1000,346 995,353 
		988,359 979,359 970,360 	"/>
	<polygon fill="#00FF00" stroke="#800080" points="958,1024 953,1015 951,1005 953,994 956,986 960,977 964,970 969,963 975,957 
		983,952 992,950 1003,948 1014,949 1023,952 1034.25,957.75 1041.5,967 1043.5,977.75 1043,988 1045.5,997.75 1051.25,1006 
		1052.75,1013 1054,1024 	"/>
	<polygon fill="#00FF00" stroke="#800080" points="1103,144 1092,143 1082,143 1070,143 1060,141 1053,136 1047,130 1043,122 
		1039,114 1036,105 1034,95 1034,83 1037,74 1040,64 1042,54 1045,45 1053,41 1063,39 1072,38 1080,42 1090,44 1098,48 1104,54 
		1112,58 1117,65 1121,73 1125,81 1128,90 1129,101 1127,111 1124,120 1119,127 1113,133 1108,140 	"/>
	<polygon fill="#00FF00" stroke="#800080" points="1073,312 1062,311 1054,307 1049,300 1046,291 1042,283 1038,275 1039,265 
		1043,258 1043,246 1040,237 1039,226 1038,215 1040,204 1044,196 1047,188 1053,182 1060,177 1068,172 1077,169 1088,168 1099,169 
		1108,172 1115,177 1123,181 1129,187 1134,194 1138,202 1141,211 1140,222 1139,231 1137,240 1133,249 1129,256 1125,265 1120,271 
		1114,277 1107,282 1101,289 1096,296 1091,302 1083,307 1076,311 	"/>
	<polygon fill="#00FF00" stroke="#800080" points="1126,1013 1114,1013 1105,1010 1097,1006 1091,1000 1085,994 1078,989 1072,983 
		1067,976 1063,968 1061,958 1059,948 1060,937 1062,927 1066,918 1070,911 1075,904 1082,898 1090,894 1100,892 1111,891 1121,893 
		1130,896 1139,899 1147,903 1154,908 1161,913 1167,919 1173,925 1177,933 1180,942 1183,951 1184,962 1183,973 1180,981 1175,989 
		1170,995 1163,1001 1156,1005 1147,1008 1138,1011 1127,1012 	"/>
	<polygon fill="#00FF00" stroke="#800080" points="1156,452 1145,451 1134,450 1126,446 1118,442 1111,437 1103.5,432.75 
		1095.5,430.75 1084.5,431.5 1074,430 1068,424 1065,415 1064,404 1064,394 1066,384 1070,375 1074,368 1080,361 1086,357.25 
		1095,352 1103,348 1114,347 1126,347 1136,349 1145,352 1152,357 1159,362 1166,367 1171,374 1174,383 1177,392 1180,401 1182,411 
		1181,422 1178,431 1173,438 1169,445 1162,450 	"/>
	<polygon fill="#00FF00" stroke="#800080" points="1202.57,0 1201.43,7.84 1198.264,16.958 1193.831,25.57 1189.779,33.422 1185,40 
		1179,47 1172,51 1163,54 1153,56 1143,56 1133,56 1123,54 1115,50 1107,46 1100,41 1094,35 1087.576,28 1083.144,18.351 
		1080.358,7.84 1079,0 	"/>
	<polygon fill="#00FF00" stroke="#800080" points="1166,646 1154,646 1143,645 1134,642 1126,638 1118,634 1110,630 1104,624 
		1099,617 1094,610 1090,602 1087,593 1086,582 1087,571 1089,561 1093,552 1097,545 1102,538 1109.25,531.25 1116.75,527.5 
		1123.75,523.25 1131.5,519 1139.75,515.25 1148.5,512 1159,510.75 1169,510.75 1180,513 1188,517 1196,521 1203,526 1210,531 
		1215,538 1221,544 1225,552 1228,561 1229,572 1229,584 1228,595 1225,603 1220,611 1215,618 1209,624 1203,629 1196,634 1188,638 
		1179,642 1170,645 	"/>
	<polygon fill="#00FF00" stroke="#800080" points="1280,795.33 1272,800 1264,804 1256,808 1247,812 1238,815 1227,815 1217,813 
		1208,810 1201,805 1194,800 1187,795 1182,788 1177,781 1173,773 1169,765 1167,755 1167,743 1168,732 1171,723 1173,713 1176,704 
		1182,697 1187,691 1192,684 1198,678 1205,672 1213,668 1222,665 1232,663 1243,664 1251,668 1258,673 1265,678 1273.344,685.561 
		1280,694.069 	"/>
	<polygon fill="#00FF00" stroke="#800080" points="1280,985.383 1272.183,982.444 1264,977 1257.841,969.851 1254,963 1251,954 
		1248,945 1246,934.111 1246,923 1247,912 1249.795,899.493 1254.099,891 1260.274,882.84 1269.604,878.635 1280,876.103 	"/>
	<polygon fill="#00FF00" stroke="#800080" points="318,467 308,465 300,461 293,456 286,451 279,446 273,440 268.733,435.732 
		262,429.077 255.675,422.333 249.191,417 242,411 236,405 229,400 223,394 217,388 211,382 211,372 213,362 219,355 225,349 
		232,345 241,341 249.969,339.85 260,340 271,341 281,343 291,345 300,348 308,352 315.593,357.228 322,362 328,368 334,374 
		337.9,381.351 342,390 344,400 346,410 346,420 345,431 343,441 340,449 335,456 330,463 321,466 	"/>
	<polygon fill="#00FF00" stroke="#800080" points="243.27,524 230.774,522.716 222.215,520.64 214.433,517.552 207.576,513.952 
		201.866,510.744 196.316,506.749 190.57,502.483 185,497 180,490 175,483 169,477 165,469 162,460 159,451 159,439 160,428 
		164,419 168.522,411.44 175.266,404.955 183.826,402.5 194,401 204,399 214.433,402.5 222,405 229,410 236,415 243,420 250,425 
		257,430 264,435 271,440 277,446 284,451 290,457 293,466 293,478 291,488 288,497 283,503 275.601,510.816 268.069,515.207 
		262,519 253.141,523.158 	"/>
	<polygon fill="#00FF00" stroke="#800080" points="698.404,490.804 688,492 677,491 667,489 658,486 651,481 645,475 639,469 
		636,460 636,450 641,442 646,436 652,430 657,423 663,416 668,410 673,403 679,396 686,391 693,386 704,385 716,385 726,387 
		735,390 741,396 747,402 750,411 752,419 750,429 747,438 745,448 742.624,457.904 738,464.625 730.596,471.701 723.167,475.592 
		717,480 710,485 704.73,488.765 	"/>
	<polygon fill="#00FF00" stroke="#800080" points="632.603,620.992 622,620.992 608.901,620.992 597.58,620.992 587,619 578,614 
		570,610 563,605 557,599 551,593 546,586 542,578 541,567 541,557 546,549 551,542 556,536 564,531 572,527 581,524 591,522 
		599,518 607,514 616,511 623,506 630,501 637,497 647,494 659,494 669,496 678.177,498.587 686,503 692,509 697,516 699,526 
		701,536 703,546 703,558 701.526,568.987 699.82,577.478 695.574,583.845 689.913,590.567 683.9,596.227 676.487,601.706 
		668.688,607.194 660.551,611.439 653.121,615 643.57,619.222 	"/>
	<polygon fill="#00FF00" stroke="#800080" points="1010,647 999,646 988,645 980,641 975,634 971,626 966,619 963,610 959,602 
		956,593 952,585 948,577 945,568 945.336,559.435 946,551 949,542 954,535 959,528 966,523 973,517 979,512 987,507 996,504 
		1005,502 1015,501 1025,503 1033,507 1041,511 1046,518 1050,526 1054,534 1057,543 1058,554 1058,566 1057,577 1056,588 1053,596 
		1049,605 1045,613 1040,619 1034,626 1028,632 1022,637 1015,643 	"/>
	<polygon fill="#00FF00" stroke="#800080" points="1230,223 1219,222 1208,221 1199,218 1191,214 1184,209 1178,203 1173,196 
		1168,189 1163,182 1159,174 1155,166 1151,158 1148,149 1145,140 1142,131 1140,121 1142,111 1146,102 1149,94 1155,88 1162,82 
		1170,78 1178,74 1187,72 1197,71 1208,72 1216,76 1223,81 1230,86 1236,92 1242,98 1248,104 1253,111 1257,119 1261,127 
		1263.676,135.257 1265,147 1266,158 1266,170 1264,180 1262,190 1259,198 1254,205 1249,212 1242,217 1234,221 	"/>
	<polygon fill="#00FF00" stroke="#800080" points="1280,71 1280,150.772 1276.099,148.477 1272.427,144.691 1269.559,139.07 
		1267.31,133.91 1265.69,129.226 1264.781,124.313 1263.708,118.304 1262.937,113.316 1262.937,108.878 1263.479,102.701 
		1264.169,97.538 1266,91 1268.114,86.937 1270.579,80.774 1273.784,76.09 1276.742,72.392 1280,69.68 	"/>
</g>
</svg>
