<?xml version="1.0" encoding="utf-8"?>
<!-- Generator: Adobe Illustrator 16.0.1, SVG Export Plug-In . SVG Version: 6.00 Build 0)  -->
<!DOCTYPE svg PUBLIC "-//W3C//DTD SVG 1.1//EN" "http://www.w3.org/Graphics/SVG/1.1/DTD/svg11.dtd">
<svg version="1.1" id="Layer_1" xmlns="http://www.w3.org/2000/svg" xmlns:xlink="http://www.w3.org/1999/xlink" x="0px" y="0px"
	 width="1280px" height="1024px" viewBox="0 0 1280 1024" enable-background="new 0 0 1280 1024" xml:space="preserve">
<g id="Raw_image">
	
		<image overflow="visible" enable-background="new    " width="1280" height="1024" xlink:href="normal_18.jpg"  transform="matrix(1 0 0 1 2.441406e-004 -2.441406e-004)">
	</image>
</g>
<g id="Not_annotated" opacity="0.5">
	<path fill="#0000FF" stroke="#800080" d="M0,1"/>
	<polygon fill="#0000FF" stroke="#800080" points="0,999 5,992 11,998 16,1005 20,1013 20,1023 	"/>
	<polygon fill="#0000FF" stroke="#800080" points="37,1023 43,1018 39,1013 36,1006 30,1000 22,996 18,990 12,984 5,981 11,975 
		19,978 25,984 31,990 38,995 44,1001 49,1008 53,1016 	"/>
	<polygon fill="#0000FF" stroke="#800080" points="58,176 48,174 41,169 36,162 38,154 46,149 55,150 63,154 67,162 65,171 	"/>
	<polygon fill="#0000FF" stroke="#800080" points="88,712 78,710 68,708 60,704 51,701 45,695 42,687 49,690 54,696 60,695 68,699 
		75,704 82,704 91,702 92,707 	"/>
	<polygon fill="#0000FF" stroke="#800080" points="79,722 67,722 56,721 55,715 62,716 70,719 79,719 	"/>
	<polygon fill="#0000FF" stroke="#800080" points="92,1023 95,1015 102,1018 112,1018 113,1012 108,1005 101,1004 93,1003 87,1004 
		80,999 72,1000 73,1006 65,1002 57,998 56,989 65,989 75,991 87,991 93,997 99,991 110,992 113,997 117,1003 120,1008 118,1018 	
		"/>
	<polygon fill="#0000FF" stroke="#800080" points="80,1013 79,1007 84,1010 	"/>
	<polygon fill="#0000FF" stroke="#800080" points="120,719 110,717 101,714 93,711 101,709 111,707 122,708 130,708 128,715 	"/>
	<polygon fill="#0000FF" stroke="#800080" points="143,730 135,726 130,720 140,720 143,727 	"/>
	<polygon fill="#0000FF" stroke="#800080" points="176,753 170,747 163,744 156,739 149,734 152,728 158,730 162,736 170,736 
		178,740 177,747 	"/>
	<polygon fill="#0000FF" stroke="#800080" points="230,799 222,795 213,792 206,787 201,780 195,774 189,768 182,763 181,755 
		187,759 193,765 201,767 206,762 206,770 211,777 220,780 225,774 226,765 220,767 216,762 223,757 231,761 233,769 229,775 
		236,780 238,790 234,797 	"/>
	<polygon fill="#0000FF" stroke="#800080" points="209,822 204,815 207,807 207,815 	"/>
	<polygon fill="#0000FF" stroke="#800080" points="216,891 210,885 214,878 219,885 	"/>
	<polygon fill="#0000FF" stroke="#800080" points="263,876 252,875 241,874 233,870 225,866 220,859 221,852 215,848 213,839 
		219,836 225,831 226,840 225,847 232,842 234,848 236,856 239,847 242,852 246,855 251,849 251,856 251,865 258,861 260,853 
		265,846 271,846 268,839 261,836 263,829 256,825 259,818 253,812 257,809 265,813 271,819 277,825 274,832 282,832 281,843 
		276,849 277,855 275,865 270,872 	"/>
	<polygon fill="#0000FF" stroke="#800080" points="273,900 263,900 252,899 240,899 229,898 220,895 224,888 233,887 241,891 
		248,895 257,894 267,893 275,893 	"/>
	<polygon fill="#0000FF" stroke="#800080" points="316,348 310,342 318,339 317,347 	"/>
	<polygon fill="#0000FF" stroke="#800080" points="370,1023 367,1014 375,1013 380,1019 388,1014 388,1007 380,1007 371,1006 
		365,1002 364,992 371,989 375,997 382,999 391,999 395,1007 395,1015 	"/>
	<polygon fill="#0000FF" stroke="#800080" points="404,1023 403,1015 412,1014 422,1016 430,1020 	"/>
	<polygon fill="#0000FF" stroke="#800080" points="604,929 593,928 587,922 585,912 581,904 578,895 575,888 570,881 566,873 
		562,865 558,857 553,850 550,841 546,833 540,827 539,818 542,809 546,800 550,793 555,793 555,801 549,807 549,812 546,816 
		556,816 561,818 565,825 563,835 570,840 578,840 578,848 572,851 567,857 575,861 582,864 588,868 586,876 587,885 594,883 
		595,873 602,878 606,873 606,865 616,866 624,870 631,873 642,872 639,867 634,861 628,861 624,857 625,852 621,844 628,844 
		630,852 640,854 645,859 651,859 651,867 657,866 655,857 661,853 666,860 663,869 660,878 657,886 652,894 649,903 644,909 
		639,917 632,921 623,924 614,928 	"/>
	<polygon fill="#0000FF" stroke="#800080" points="559,992 554,985 556,975 560,966 564,958 570,962 575,969 582,967 580,959 
		586,962 593,963 590,971 585,979 591,977 596,980 591,986 583,990 572,991 561,991 	"/>
	<polygon fill="#0000FF" stroke="#800080" points="557,1023 557,1018 567,1019 573,1012 580,1007 579,1014 574,1020 	"/>
	<polygon fill="#0000FF" stroke="#800080" points="578,933 568,933 572,926 578,932 	"/>
	<polygon fill="#0000FF" stroke="#800080" points="579,954 569,952 573,949 581,951 	"/>
	<polygon fill="#0000FF" stroke="#800080" points="582,1023 586,1016 590,1020 598,1022 	"/>
	<polygon fill="#0000FF" stroke="#800080" points="596,850 588,847 587,839 594,841 597,849 	"/>
	<polygon fill="#0000FF" stroke="#800080" points="598,956 599,950 605,953 	"/>
	<polygon fill="#0000FF" stroke="#800080" points="599,865 600,859 608,855 613,861 604,861 	"/>
	<polygon fill="#0000FF" stroke="#800080" points="604,980 601,973 598,964 604,958 611,953 618,947 624,953 632,950 638,947 
		645,952 649,947 654,939 661,940 669,943 671,933 666,926 672,920 675,928 677,938 675,948 671,955 663,960 655,963 644,964 
		637,965 628,968 618,971 612,976 	"/>
	<polygon fill="#0000FF" stroke="#800080" points="647,852 644,845 647,837 648,844 	"/>
	<polygon fill="#0000FF" stroke="#800080" points="669,850 661,846 663,836 669,833 677,833 676,837 671,845 	"/>
	<polygon fill="#0000FF" stroke="#800080" points="675,828 675,819 678,813 685,808 690,800 694,792 699,786 703,777 707,769 
		708,778 704,786 700,794 695,801 690,807 685,815 681,822 	"/>
	<polygon fill="#0000FF" stroke="#800080" points="683,972 680,966 687,965 	"/>
	<polygon fill="#0000FF" stroke="#800080" points="742,684 741,677 745,676 	"/>
	<polygon fill="#0000FF" stroke="#800080" points="820,1016 811,1013 813,1005 821,1006 821,1014 	"/>
	<polygon fill="#0000FF" stroke="#800080" points="842,1023 843,1016 849,1009 854,1003 861,997 869,993 875,995 871,1002 877,1005 
		885,1005 886,1014 890,1022 884,1017 878,1011 869,1012 861,1012 868,1016 875,1017 	"/>
	<polygon fill="#0000FF" stroke="#800080" points="892,992 886,986 884,982 892,981 893,990 	"/>
	<polygon fill="#0000FF" stroke="#800080" points="914,974 910,968 900,968 900,961 907,961 913,960 916,969 	"/>
	<polygon fill="#0000FF" stroke="#800080" points="914,994 913,988 918,985 917,992 	"/>
	<polygon fill="#0000FF" stroke="#800080" points="922,851 918,844 924,838 929,832 938,830 941,824 948,820 954,826 959,833 
		952,837 947,831 942,838 935,843 928,848 	"/>
	<polygon fill="#0000FF" stroke="#800080" points="975,832 974,826 982,822 989,825 983,830 	"/>
	<polygon fill="#0000FF" stroke="#800080" points="1164,891 1155,888 1150,881 1157,879 1160,886 	"/>
	<polygon fill="#0000FF" stroke="#800080" points="1206,925 1196,923 1187,920 1178,917 1173,910 1172,902 1179,904 1182,910 
		1187,908 1195,903 1203,907 1199,908 1196,910 1203,915 1208,922 	"/>
	<polygon fill="#0000FF" stroke="#800080" points="1218,976 1207,975 1200,970 1197,961 1201,953 1210,949 1218,953 1223,960 
		1225,969 1219,975 	"/>
	<polygon fill="#0000FF" stroke="#800080" points="1207,863 1204,857 1210,859 	"/>
	<polygon fill="#0000FF" stroke="#800080" points="1248,944 1244,940 1250,933 1251,927 1241,929 1230,928 1219,927 1211,923 
		1213,916 1221,920 1228,921 1236,925 1243,920 1253,922 1256,929 1253,938 	"/>
	<polygon fill="#0000FF" stroke="#800080" points="1279,915 1271,919 1262,920 1257,915 1263,908 1267,900 1274,897 1270,905 
		1278,907 	"/>
	<polygon fill="#0000FF" stroke="#800080" points="1279,935 1270,938 1267,932 1275,932 	"/>
</g>
<g id="Clumps" display="none" opacity="0.5">
	<polygon display="inline" fill="#FF0000" stroke="#800080" points="0,182 10,180 21,179 32,180 44,180 53,183 60,188 66,194 
		74,198 82,202 88,208 93,215 97,223 99,233 101,243 101,255 100,266 100,278 98,288 95,297 92,306 90,315 85,322 79,328 72,333 
		65,338 57,342 50,347 43,353 44,362 47,371 52,378 55,387 59,395 63,403 67,411 69,421 74,428 79,435 82,444 81,454 75,461 68,466 
		60,470 55,477 51,485 45,490 36,493 25,494 17,499 10,503 3,508 	"/>
	<polygon display="inline" fill="#FF0000" stroke="#800080" points="0,630 5,635 6,644 5,655 5,667 5,679 7,689 6,700 6,712 7,723 
		5,733 7,743 8,754 7,765 8,774 15,769 22,764 30,761 41,759 51,757 61,755 73,755 83,755 93,757 105,757 114,760 122,764 128,770 
		134,776 140,782 146,788 154,792 161,797 167,803 172,810 175,819 174,829 174,840 175,851 177,861 176,872 174,882 173,893 
		173,904 170,914 167,923 162,930 155,934 148,939 141,945 135,950 126,953 117,956 109,960 100,964 91,966 80,967 72,963 61,965 
		51,964 44,959 37,954 29,950 20,947 14,941 9,934 2,929 	"/>
	<polygon display="inline" fill="#FF0000" stroke="#800080" points="274,0 279,7 284,14 286,24 285,35 282,44 279,53 275,60 271,68 
		266,75 260,81 258,88 265,84 274,80 282,77 290,74 300,72 312,72 321,75 331,73 341,71 350,74 357,79 362,86 368,92 374,98 
		377,107 379,117 380,128 381,139 382,150 386,158 393,163 398,170 402,178 407,185 411,193 414,202 415,213 417,223 418,234 
		417,245 415,255 412,264 407,270 401,276 393,281 387,287 382,294 377,301 370,305 359,306 349,308 337,308 326,309 315,310 
		305,312 296,316 287,319 277,321 268,323 257,324 248,321 240,317 233,312 227,306 219,302 212,297 207,290 203,282 199,274 
		194,267 190,259 186,251 182,243 182,232 183,222 184,211 185,199 187,190 189,180 191,170 194,161 198,152 202,145 206,137 
		211,130 217,123 221,115 226,109 219,108 210,111 202,115 191,116 182,119 171,120 161,123 153,126 143,128 134,127 126,123 
		117,120 110,115 104,109 97,104 90,99 82,95 76,89 72,81 70,71 70,60 73,52 78,45 82,37 82,25 81,16 87,9 95,5 102,0 	"/>
	<polygon display="inline" fill="#FF0000" stroke="#800080" points="465,1004 454,1003 446,999 437,996 429,992 421,988 414,983 
		408,977 400,973 392,969 384,965 376,961 368,957 358,955 349,952 342,947 335,942 327,938 321,932 315,926 310,919 305,912 
		302,903 300,893 301,882 305,873 309,866 312,857 316,848 321,842 327,836 333,830 328,823 321,818 314,813 306,809 298,805 
		291,800 284,795 278,789 272,783 266,777 261,770 258,761 255,752 253,742 251,732 250,721 249,710 248,699 250,689 251,678 
		253,667 255,658 257,647 260,639 264,631 269,623 275,617 281,612 289,607 299,605 309,603 318,600 328,598 337,596 347,593 
		359,593 370,594 381,595 390,598 400,600 408,604 416,608 424,612 432,616 440,620 449,623 458,626 468,628 477,631 488,632 
		498,634 506,638 513,643 520,648 526,654 531,661 536,668 540,676 543,685 546,694 548,704 549,715 548,726 546,736 544,746 
		540,754 537,763 533,771 529,779 524,786 519,792 513,798 506,804 499,808 490,812 482,815 474,819 466,823 457,827 449,830 
		440,833 428,833 417,834 405,834 394,833 383,832 381,837 389,841 398,844 408,846 418,848 428,850 436,854 444,858 454,860 
		466,860 477,859 489,859 499,861 508,864 516,868 524,872 528,880 533,887 538,894 541,903 543,913 544,924 543,935 541,945 
		537,953 532,960 527,967 523,975 518,981 512,987 505,992 498,997 490,1001 480,1003 468,1003 	"/>
	<polygon display="inline" fill="#FF0000" stroke="#800080" points="513,585 502,584 491,583 480,582 471,579 462,576 455,571 
		447,567 440,562 434,556 428,550 422,544 416,538 411,531 407,523 405,513 404,502 404,491 406,482 406,472 409,462 413,454 
		417,446 420,438 425,430 430,423 435,417 441,411 448,405 455,400 461,395 468,390 476,385 483,380 491,376 499,372 507,369 
		517,366 527,364 538,363 549,364 561,364 571,366 580,369 589,372 597,376 604,381 611,386 618,391 624,397 628,405 632,413 
		635,422 638,431 640,441 642,451 642,463 642,474 639,484 638,494 635,503 631,512 627,520 624,529 620,536 615,543 609,550 
		604,556 597,561 589,566 582,570 575,575 567,579 556,580 545,581 533,582 523,584 	"/>
	<polygon display="inline" fill="#FF0000" stroke="#800080" points="1058,0 1063,7 1066,16 1067,25 1073,31 1077,39 1076,49 
		1071,57 1068,66 1064,74 1059,81 1059,91 1058,101 1053,108 1045,112 1037,116 1030,122 1023,127 1018,134 1011,138 1000,139 
		991,136 982,139 971,140 963,145 955,148 945,150 936,147 927,144 920,139 915,132 911,124 906,117 902,109 896,103 888,99 882,93 
		874,92 870,100 865,106 861,114 856,122 852,129 848,137 842,143 836,149 829,154 821,158 813,162 804,165 795,168 785,170 
		774,169 764,167 757,162 752,155 749,146 743,140 738,133 734,125 730,117 726,109 724,99 723,88 720,79 715,83 712,92 715,101 
		715,113 714,124 710,132 705,139 700,145 693,151 685,154 677,158 669,163 673,171 677,179 680,188 682,198 684,208 682,218 
		681,229 681,241 680,252 677,261 674,269 671,279 670,290 667,299 663,307 658,314 653,320 647,326 641,332 634,338 628,344 
		621,348 612,351 602,353 591,354 580,355 569,356 559,354 549,352 540,349 532,345 523,342 515,338 507,334 499,330 493,324 
		488,317 483,310 477,304 471,298 467,290 463,282 461,272 459,262 454,255 450,247 446,239 445,228 445,216 448,206 452,198 
		457,191 462,185 464,175 466,165 470,157 475,150 481,143 487,138 495,134 504,130 513,128 524,126 532,122 538,117 533,110 
		529,102 525,94 521,86 519,76 519,66 522,57 527,50 531,42 537,35 541,28 550,24 560,22 567,18 574,12 584,11 593,7 600,3 	"/>
	<polygon display="inline" fill="#FF0000" stroke="#800080" points="823,981 812,980 800,980 789,981 778,980 768,978 758,976 
		750,972 742,968 734,964 727,959 721,953 715,947 709,941 707,931 704,922 700,914 697,905 696,894 699,884 698,874 700,864 
		702,854 705,844 709,837 714,829 720,823 724,816 729,808 735,803 743,798 750,794 758,790 758,782 753,775 750,766 748,756 
		747,745 748,734 751,724 753,715 758,708 765,702 771,697 777,691 783,685 791,680 797,675 792,668 784,664 777,659 771,653 
		766,646 762,638 756,632 748,628 740,624 734,618 727,613 722,606 717,599 713,591 709,583 708,572 708,562 710,552 712,542 
		717,534 721,527 724,517 727,509 732,502 739,496 744,490 748,481 755,476 761,471 769,467 776,462 783,457 792,453 801,450 
		811,448 821,448 832,449 843,450 852,453 860,457 869,460 876,465 883,470 892,473 899,478 903,486 909,492 915,498 922,503 
		927,510 932,517 938,523 943,530 948,537 951,546 954,555 955,566 956,577 954,587 953,598 952,609 950,619 947,628 944,637 
		940,644 935,652 930,659 925,666 920,673 925,680 930,687 935,694 938,703 937,714 942,721 947,728 951,736 954,745 956,755 
		954,765 950,773 945,780 939,786 935,793 929,800 922,804 913,808 906,812 897,815 888,812 879,811 872,816 864,821 866,829 
		872,835 875,844 878,853 880,863 885,870 888,879 887,890 888,901 889,912 888,923 884,931 882,940 879,949 874,957 868,962 
		860,967 852,970 844,974 835,978 826,980 	"/>
	<polygon display="inline" fill="#FF0000" stroke="#800080" points="982,1023 976,1017 970,1011 966,1003 962,995 957,988 953,980 
		949,972 946,963 944,953 942,943 942,931 942,919 944,909 946,899 950,890 954,883 960,876 966,871 974,866 983,863 994,862 
		1004,860 1013,857 1021,853 1030,850 1040,848 1051,847 1062,848 1072,850 1080,854 1089,857 1095,863 1101,869 1107,875 1114,880 
		1120,886 1125,893 1131,899 1135,907 1142,912 1149,917 1149,927 1148,938 1150,948 1153,957 1157,965 1158,976 1156,986 1153,995 
		1150,1004 1146,1011 1150,1018 1160,1020 1172,1020 	"/>
	<polygon display="inline" fill="#FF0000" stroke="#800080" points="1193,785 1181,785 1170,784 1159,783 1149,781 1139,779 
		1131,775 1123,771 1115,767 1107,763 1099,759 1091,755 1084,750 1077,745 1071,739 1064,734 1058,728 1052,722 1048,714 1044,706 
		1037,701 1031,695 1026,688 1023,679 1020,670 1019,659 1017,649 1017,637 1016,626 1014,616 1014,606 1015,595 1019,586 1022,578 
		1026,570 1030,562 1035,554 1041,549 1048,544 1055,538 1062,534 1069,529 1075,523 1084,519 1093,516 1102,513 1113,512 1123,514 
		1133,516 1142,519 1149,524 1157,528 1163,534 1169,529 1179,528 1186,533 1193,538 1201,542 1208,547 1214,553 1220,559 1225,566 
		1228,575 1232,583 1237,590 1241,598 1244,607 1250,613 1253,622 1254,633 1258,641 1263,648 1267,656 1265,666 1265,678 1265,690 
		1264,700 1262,710 1260,721 1258,730 1254,739 1250,746 1245,754 1242,762 1235,767 1227,772 1219,775 1212,780 1203,783 	"/>
</g>
<g id="Single_nuclei" opacity="0.5">
	<polygon fill="#00FF00" stroke="#800080" points="633.598,1024 635.513,1021.133 641.686,1017.406 649.24,1014.106 
		658.714,1011.659 667.229,1009.743 676.594,1007.828 687.426,1006.018 697,1005.169 707.884,1003.996 718.633,1003.253 
		729.808,1003.144 739.993,1003.679 749.091,1005.454 757.076,1008.227 765.221,1012.79 770.889,1016.767 780.468,1024 	"/>
	<polygon fill="#00FF00" stroke="#800080" points="1235.5,1024 1235.5,1019 1237.5,1013.75 1241,1008 1243.75,1003.75 
		1247.25,1000.25 1250,997.25 1253.75,994.5 1259.25,992.25 1263.25,990.5 1268,988.25 1273,987 1276.75,985.75 1280,985.75 
		1280,1024 	"/>
	<polygon fill="#00FF00" stroke="#800080" points="151.143,1024 154.247,1016 156.908,1007.5 156.021,996.009 158.681,984.923 
		163.5,976.938 167.107,972 171,967 177,961 184,956 192,951 200,947 206,942 215,938 227,938 236,935 247,935 259,934 267,938 
		273,944 275,953 277.518,960.975 282,968.5 291.264,975 299.242,979 309.444,986.254 316.095,992 321.413,996.009 325.406,1005 
		325.406,1015 321.86,1024 	"/>
	<polygon fill="#00FF00" stroke="#800080" points="0,351.129 9.67,351.129 21.167,351.927 29.169,353.909 37.528,359.677 45,369 
		49,377 53,385 56,394 60,402 64,410 67,419 71,427 76,434 80,442 80,452 75,459 69,464 60,468 55,474 51,483 40.831,488.566 
		26.867,490.715 18.99,491.431 12.593,493.849 6.28,499.129 0,501.098 	"/>
	<polygon fill="#00FF00" stroke="#800080" points="0,182.616 5.027,180.648 13,178.914 22,177.914 33,178.914 43,180.914 
		52,183.758 60,187.914 67,192.128 74,197.914 81,202.914 87.279,208.869 92.031,215.02 96,223.914 99.013,231.848 101,242.914 
		103,252.914 103.131,263.893 102,273.914 100,283.914 97,292.914 94,300.914 90,309.914 85.376,317.304 81,323.914 74,329.914 
		65.426,336.099 59.123,339 51.5,344.156 43.524,348 36,350.025 26.783,351.927 14.989,350.406 0,350.406 	"/>
	<polygon fill="#00FF00" stroke="#800080" points="88,966 77,965 68,962 58,964 49,961 43,955 35,951 26,948 18,944 13,937 6,932 
		2,924 2,912 2,900 2,888 2,876 2,864 5,854 6,844 9,835 11,825 13,815 10,806 6,798 8,788 12,779 15,771 23,766 31,762 41,761 
		51,758 61,757 72,757 83,756 93,758 105,758 114,761 121,766 128,771 133,778 139,784 146,789 153,794 160,799 166,805 171,812 
		173,822 172,833 173,844 175,854 176,865 174,875 173,886 172,897 171,908 168,917 164,925 158,931 151,935 144,940 138,946 
		130,951 121,953 112,957 105,961 95,963 	"/>
	<polygon fill="#00FF00" stroke="#800080" points="138.22,128.462 131.293,127.859 121.956,123.825 118,121 110,117 104,111 97,106 
		90,101 83,96 77,90 71,84 68,75 66.912,67 69,58 73,50 76,40 77,30 77,20 80,11 86,5 96,2 104,0 269.174,0 273.887,2.143 
		280.171,6.463 286,12 289,21 289,33 286,41 282,50 279,58 275,67 270,73 263,79 257,84 250,90 244,95 236,99 227,103 219,106 
		211,110 203,115 195.142,117.805 185,120 173,120 163,122 155,126 147.522,127.421 	"/>
	<polygon fill="#00FF00" stroke="#800080" points="261,325 250,324 242,320 236,314 229,309 222,304 216,298 209,293 205,285 
		200,278 196,270 191,263 188,254 185,245 181,237 183,227 185,216 186,206 187,195 188,184 190,173 194,165 197,157 201,149 
		205,141 209,133 215,126 220,120 225,113 231,106 237,100 244,95 251,90 258,85 265,80 272,75 279,71 289,69 301,68 312,67 324,67 
		336,67 345,70 353,74 361,78 368,83 372,91 375,100 378,109 381,118 383,128 385,138 387,148 391,156 396,163 401,170 406,177 
		409,186 413,194 417,204.127 417,214 417,226 417,238 415,248 413,258 409.174,265.925 404,273 398,278 391,283 385,290 381,297 
		376,304 370.248,306.455 360,308 349,307 338,306 327,305 317,307 307,310 298,312 289,315 280,318 271,321 262,324 	"/>
	<polygon fill="#00FF00" stroke="#800080" points="463,1005 452.669,1002.217 444.241,999 436.703,995.119 430,992 423,986.254 
		414.531,980 411,973 403,969 395,965 386,962 378,958 369,955 360,952 352,948 344,944 337,939 331,933 324,928 318,922 312,916 
		307,909 303,901 301,893 302,882 304,872 308,864 312,856 316,848 321,840 328,836 336,831 346,829 355,830 364,833 373,836 
		382,839 391,842 401,844 410,847 420,849 429,852 439,854 448,857 458,859 470,859 482,859 491,862 501,864 511,866 521,868 
		527,874 532,881 537,888 541,896 544,905 545,916 545,928 545,940 541,948 536,955 531,962 526,968 520,975 515,981 509,987 
		503,994 495,998 486,1000 476,1002 469.962,1005 	"/>
	<polygon fill="#00FF00" stroke="#800080" points="435,831 423,831 411,831 399,831 387,831 376,830 366,828 356.447,828 
		343.588,828 334.719,825.289 326,820 319,815 312,810 305,805 297,801 290,796 283,791 276,786 271,779 267,771 262,764 258,756 
		256,746 254,736 252,726 251,715 251,703 251,691 251,679 251,667 253,657 255,646 259,638 263,631 268,624 273,616 277,609 
		285,605 295,602 304,599 314,597 324,595 333,592 343,592 355,592 365,594 375,596 386,597 395,600 403,604 411,608 419,612 
		427,616 436,619 444,623 452,627 462,629 472,631 483,632 492,635 502,637 511,640 517,646 524,651 530,657 536,663 542,669 
		545,678 547,688 548,699 549,710 550,720 548,731 546,741 543,750 539,758 535,766 532,774 528,782 524,790 517,796 510,801 
		504,806 497,811 490,816 480,818 471,821 461,824 452,826 442,829 	"/>
	<polygon fill="#00FF00" stroke="#800080" points="501,586 492,583 483,580 475,576 466,573 458,569 449,566 442,561 436,555 
		430,549 424,543 418,537 412,531 409,522 406,513 402,505 402,495 404,484 405,474 408,464 412,456 416,448 420,440 424,433 
		428,425 434,418 440,413 447,407 453,402 460,397 467,391 474,386 481,381 489,377 498,374 506,370 514,366 524,364 536,364 
		547,365 559,365 569,367 580,368 588,372 595,377 603,381 610,386 618,390 625,395 630,402 632,412 634,422 637,431 640,440 
		642,450 642,460 641,471 640,482 637,491 634,500 631,509 628,517 624,526 620,533 615,540 610,548 605,555 599,560 591,565 
		584,569 577,574 569,579 559,580 548,581 536,581 525,582 515,584 504,585 	"/>
	<polygon fill="#00FF00" stroke="#800080" points="1056,0 1061,7 1065,15 1065,25 1071,31 1076,38 1075,48 1070,56 1067,65 1063,73 
		1058,80 1058,92 1056,102 1051,108 1042,112 1034,116 1028,122 1021,127 1016,134 1009,138 999,136 988,135 979,138 968,140 
		961,144 952,147 941,148 933,144 924,141 918,135 914,127 910,119 905,112 898.589,107.409 891.694,102.811 883.648,97.639 
		878.476,91.892 876.177,86 875.028,76.951 872.729,66.5 872.729,55.113 872.729,36.723 872.729,22.356 872.729,10.863 872.729,0 	
		"/>
	<polygon fill="#00FF00" stroke="#800080" points="783,172 775,168 768,163 761,158 754,153 748,147 743,140 738,133 734,125 
		729,118 724,111 719,104 717,96 716,85 715,74 714,63 712.72,48.919 711.778,38.555 713.541,25.804 715,14 722.738,0 733.078,0 
		742.277,0 753.196,0 765.264,0 775.608,0 788.823,0 801.469,0 811.813,0 824.452,0 837.099,0 849.74,0 872.729,0 872.729,4.541 
		872.729,13.736 872.729,26.954 872.729,41.895 872.729,55.113 872.729,63.158 872.729,71.204 872.729,79.5 872.729,90.169 
		869.856,97.639 869.856,103.961 864.109,112.581 860,116 855,123 850,130 845,137 839,143 834,149 828,155 822,162 814,165 
		804,167 794,169 784,171 	"/>
	<polygon fill="#00FF00" stroke="#800080" points="597,0 609,0 621,0 633,0 645,0 656,1 668,1 680,1 689,4 696,9 703,14 
		706.647,20.057 711,30 712,41 713,52 714,63 715,74 716,85 717,96 718,107 718,115.454 714,126.948 709,133 703.773,139.591 
		699.175,144.188 693.429,152.234 686.49,155.113 675.614,159 666,159 656,157 647,154 638,151 628,149 619,146 610,143 
		597.625,139.325 587.286,136.763 579.068,133 569.684,131.337 558.96,128.653 551.371,126.124 542.285,119.477 535.392,112.581 
		530.219,105.11 525.619,101.087 521,91 518,82 517,71 518.726,60.86 519.301,55.688 527,46 533,40 539,34 545,28 551,23 558,17 
		564,12 572.743,8.564 580.791,3 	"/>
	<polygon fill="#00FF00" stroke="#800080" points="578,356 568,354 558,352 548,350 539,347 531,343 523,339 515,335 506,332 
		499,327 492,322 486,316 480,310 475,303 469,297 464,290 462,280 461,269 458.131,258.702 455.856,253.105 451.309,247.867 
		448.5,239 446.092,230.612 445.691,222.988 447,215 450,206 454,198 457,189 461,180 464,172 468,163 471,155 476,147 
		482.521,141.315 490.567,135.568 500.336,133 506.082,128.672 517,125.224 526.772,122 535,122 545,124 554,127 563,130 573,132 
		582,135 591,138 601,140 610,143 619,146 628,149 638,151 647,154 656,157 664.695,162.578 670,167 674,175 679,182 683,190 
		685,200 685,212 685,224 684,235 681,244 679,254 676,263 674,273 672,283 670,292 667,302 662,309 657,315 651,322 646,329 
		639,334 632,338 625,343 619.866,348 610.675,351.073 601.48,353.372 589.408,356 	"/>
	<polygon fill="#00FF00" stroke="#800080" points="825,979 813,979 801,979 789,979 777,979 766,978 758,974 751,969 743,965 
		735,961 727,957 719,953 712,948 709,939 705,931 702,922 699,913 697,903 698,892 698,880 698,868 700,857 704,850 709,842 
		713,835 717,827 722,820 726,812 731,804 738,799 746,795 754,792 763,788 771,790 780,793 789,796 798,799 807,802 816,805 
		824,809 833,812 842,815 851,818 860,821 868,825 872,833 875,842 878,851 882,859 885,868 889,876 892,885 892,897 893,908 
		890,917 886,925 883,933 878,941 874,949 870,957 864,962 855,966 847,969 839,973 830,977 	"/>
	<polygon fill="#00FF00" stroke="#800080" points="868.493,822 860,822 852,818 843,815 834,812 825,809 816,806 808,802 799,799 
		790,796 781,793 772,790 766,784 760,778 756,770 753,761 751,751 749,741 750,732 751,721 756,714 762,708 769,702 775,696 
		781,690 787,685 793,679 799,673 809,672 821,672 833,672 844,673 856,673 868,673 879,674 891,674 902,675 914,675 
		923.156,678.222 929,684 934,691 937,700 938,711 945,716 952,721 955,730 958,739 961,748 962,756 957,764 953,772 949,779 
		944,787 939,793 931,797 923,802 915,806 908,810 900,814 890.638,812.109 885.103,808.303 877.49,813.493 873.686,817.99 	"/>
	<polygon fill="#00FF00" stroke="#800080" points="918,672 911.049,675 897.572,674.597 884.407,674 875.046,673.64 862.269,672 
		849.815,672 840.474,672 828.365,672 816.256,672 805.877,672 797.92,669.227 787.196,663.345 782,657 776,651 770,645 766,637 
		760,631 752,627 744,623 737,618 730,613 723,608 719,600 716,591 713,582 710,573 709,564 712,555 715,545 718,537 721,528 
		724,519 727,510 730,501 735,494 741,488 748,482 754,477 761,471 767.476,466.495 773.357,463.036 780.968,457.5 789.963,453.006 
		798.266,450.581 806.912,448.509 816.948,447.814 828.365,448.159 838,448 848,450 857,453 865,457 872,462 879,467 886,472 
		893,477 899,483 906,488 912,494 919,499 924,506 930,512 935,519 940,526 946,532 951,539 954,548 955,559 955,571 956,582 
		954,592 952,602 950,612 948,622 946,631 942,640 937,647 933,655 929,662 924,670 	"/>
	<polygon fill="#00FF00" stroke="#800080" points="994.531,1024 983,1021 977,1015 971,1009 966,1002 960,996 957,987 953,979 
		949,971 946,962 942,954 943,943 943,931 944,920 945,909 946,898 950,890 954,882 960.24,874.887 967,871 976,867 985,864 
		996,863 1006,861 1015,859 1024,855 1032,851 1041,848 1053.313,848 1063.974,849.53 1073,852 1082,855 1090,859 1096,865 
		1103,870 1110,875 1118.028,883.5 1125.858,893.155 1131.4,902 1133.99,911.193 1143.383,914.802 1150,920 1150,927.905 1150,936 
		1147.532,944 1150,954.415 1153.586,962.5 1157,971 1157,983.805 1155.027,992 1151.57,998.789 1144.942,1006.28 
		1136.586,1011.758 1125.348,1012.619 1112.67,1009.738 1100,1008 1089,1009 1077,1010 1068,1012 1060.516,1024 	"/>
	<polygon fill="#00FF00" stroke="#800080" points="1199,787 1188,786 1178,784 1168,782 1158,780 1148,778 1139,775 1130,772 
		1122,768 1114,764 1105,761 1098,756 1091,751 1084,746 1077,741 1070,736 1063,731 1057,725 1053,717 1048,710 1043,703 1038,696 
		1033,689 1028,682 1023,675 1020,666 1019,655 1018,644 1018,632 1016,622 1015,611 1013,601 1015,593 1019,585 1023,577 1027,569 
		1031,561 1036,554 1042,548 1048,541 1054,535 1061,531 1069,526 1076,522 1084,518 1094,515 1104,513 1114,511 1123,512 1133,514 
		1143,516 1151,520 1159,524 1169,526 1179,528 1188,531 1195,536 1202,541 1208,547 1214,553 1220,559 1225,566 1230,573 1235,580 
		1240,587 1244,595 1248,603 1251,612 1255,620 1259,628 1263,636 1267,644 1267,654 1266,665 1266,677 1265,688 1264,699 1262,709 
		1260,718 1257,728 1255,738 1250,745 1245,752 1240,759 1235,765 1227,770 1220,774 1212,779 1205,783 	"/>
	<polygon fill="#00FF00" stroke="#800080" points="1280,86 1267,96.5 1256.5,112.5 1250.74,126.594 1248.5,148 1245.844,169.75 
		1244.315,190.842 1244.315,211.646 1249.516,231.226 1255.941,243.77 1267.567,249.583 1280,253.5 	"/>
</g>
</svg>
