<?xml version="1.0" encoding="utf-8"?>
<!-- Generator: Adobe Illustrator 16.0.1, SVG Export Plug-In . SVG Version: 6.00 Build 0)  -->
<!DOCTYPE svg PUBLIC "-//W3C//DTD SVG 1.1//EN" "http://www.w3.org/Graphics/SVG/1.1/DTD/svg11.dtd">
<svg version="1.1" id="Layer_1" xmlns="http://www.w3.org/2000/svg" xmlns:xlink="http://www.w3.org/1999/xlink" x="0px" y="0px"
	 width="1280px" height="1024px" viewBox="0 0 1280 1024" enable-background="new 0 0 1280 1024" xml:space="preserve">
<g id="Raw_image">
	
		<image overflow="visible" enable-background="new    " width="1280" height="1024" xlink:href="normal_1.jpg"  transform="matrix(1 0 0 1 2.441406e-004 -2.441406e-004)">
	</image>
</g>
<g id="Not_annotated" opacity="0.5">
	<polygon fill="#0000FF" stroke="#800080" points="1279,464 1276,458 1275,448 1274,437 1273,426 1274,415 1273,404 1274,395 	"/>
</g>
<g id="Clumps" display="none" opacity="0.5">
	<path display="inline" fill="#FF0000" stroke="#800080" d="M0,1"/>
	<polygon display="inline" fill="#FF0000" stroke="#800080" points="0,727 7,723 16,720 26,717 35,714 47,714 59,714 69,716 78,719 
		86,723 93,728 100,733 107,738 113,744 119,750 125,749 129,740 132,732 136,723 138,714 139,703 141,693 146,685 150,678 156,671 
		161,665 167,659 174,654 182,649 189,645 197,640 206,637 213,633 221,629 231,626 241,625 253,624 264,625 274,627 283,630 
		291,634 297,640 304,645 309,652 313,660 319,666 323,674 329,680 335,686 341,692 345,700 349,708 354,715 359,722 364,729 
		367,738 365,748 362,756 356,763 350,768 344,775 340,783 336,791 331,798 326,804 320,810 312,815 304,818 295,822 288,826 
		282,832 276,839 269,844 261,848 251,849 241,851 232,852 221,854 213,857 203,859 191,859 182,856 172,854 163,851 155,847 
		148,842 141,837 133,838 130,847 126,855 123,864 119,872 114,878 107,884 99,888 93,893 86,898 79,903 71,908 62,910 54,915 
		61,920 69,924 78,927 84,933 90,939 96,945 103,950 109,956 114,963 118,971 123,978 125,988 126,997 125,1008 123,1018 	"/>
	<polygon display="inline" fill="#FF0000" stroke="#800080" points="384,640 373,639 364,636 355,635 345,635 336,632 329,627 
		323,621 316,616 309,611 304,604 301,595 301,585 299,575 295,567 297,557 297,545 298,534 301,525 305,516 309,509 314,502 
		318,494 324,487 332,483 341,480 352,479 363,480 374,479 386,479 398,479 407,476 415,472 413,465 407,459 401,453 395,447 
		390,440 387,431 385,421 387,411 391,402 394,393 398,385 405,380 414,377 421,372 427,367 435,362 443,358 452,356 462,353 
		473,352 484,351 495,350 507,350 518,349 528,351 538,353 547,356 556,359 563,364 570,369 577,374 583,380 589,386 594,393 
		599,400 604,407 608,415 611,424 613,434 611,443 608,453 603,460 600,469 599,480 598,490 594,498 588,504 580,508 572,512 
		563,515 553,517 542,518 532,518 521,520 511,519 501,517 493,513 489,520 492,529 494,539 495,550 493,560 491,569 491,580 
		485,586 478,590 468,590 460,592 453,597 447,604 442,610 436,617 430,622 422,626 410,627 402,630 394,635 387,639 	"/>
	<polygon display="inline" fill="#FF0000" stroke="#800080" points="482,0 489,3 490,9 482,11 480,21 486,26 489,18 494,11 501,6 
		511,5 517,11 523,7 531,11 536,18 538,28 530,31 527,37 533,39 539,34 545,39 546,50 548,60 550,70 549,80 544,88 538,94 532,99 
		535,107 542,112 549,117 552,126 553,137 554,148 555,159 555,169 556,180 554,190 551,198 545,205 541,213 539,222 534,230 
		529,236 525,245 522,253 518,262 512,267 504,271 498,277 493,284 487,290 478,293 467,292 457,294 448,297 439,300 428,299 
		419,296 412,291 406,285 401,278 398,269 389,268 384,261 382,251 378,243 373,236 369,228 365,220 365,210 369,202 365,194 
		364,183 368,174 371,166 373,156 378,149 385,143 393,139 401,135 411,135 421,133 428,128 432,121 425,116 415,118 404,117 
		393,116 383,114 371,114 361,112 354,107 346,103 336,101 328,97 322,91 317,84 314,75 313,64 311,54 305,48 304,39 311,33 319,33 
		321,24 313,20 308,13 312,4 	"/>
	<polygon display="inline" fill="#FF0000" stroke="#800080" points="902,1023 897,1016 893,1008 892,997 894,987 898,978 902,971 
		899,964 891,969 888,978 883,984 877,991 872,997 866,1003 860,1009 851,1012 839,1012 828,1011 820,1007 813,1002 803,1001 
		797,1006 789,1010 779,1012 770,1009 760,1007 753,1002 746,997 741,990 736,983 733,974 731,964 729,954 725,946 724,935 723,924 
		724,912 726,903 729,894 735,887 742,886 744,877 750,870 757,865 764,860 772,856 778,851 778,841 779,830 782,821 787,814 
		796,810 805,808 814,804 823,801 833,801 842,804 850,808 857,813 862,820 867,827 871,835 876,842 880,850 883,859 885,869 
		887,879 887,891 886,902 885,913 882,922 886,930 894,926 902,922 913,923 921,927 926,934 929,943 928,952 936,956 947,955 
		956,952 964,948 974,946 984,944 995,945 1007,945 1017,945 1026,948 1033,953 1042,955 1053,955 1062,958 1068,964 1077,967 
		1088,968 1096,972 1103,977 1109,983 1114,990 1117,999 1123,1005 1133,1003 1141,1000 1149,995 1159,993 1170,994 1179,995 
		1187,992 1198,992 1208,994 1215,999 1221,1005 1228,1010 1236,1014 1245,1017 	"/>
	<polygon display="inline" fill="#FF0000" stroke="#800080" points="1279,369 1272,374 1263,377 1254,381 1248,386 1242,393 
		1235,397 1228,403 1221,407 1209,407 1203,401 1196,398 1198,407 1201,416 1203,426 1203,438 1201,448 1204,457 1207,466 1205,475 
		1199,481 1193,487 1189,496 1186,505 1182,513 1175,517 1167,521 1159,525 1152,531 1147,537 1142,544 1136,551 1130,556 1121,559 
		1115,564 1120,571 1126,577 1131,584 1136,591 1138,601 1135,610 1140,617 1144,625 1147,634 1148,645 1145,654 1141,662 1138,671 
		1134,679 1130,687 1130,697 1127,705 1122,713 1117,719 1110,724 1102,728 1092,730 1081,731 1072,728 1063,725 1056,720 1049,715 
		1043,709 1037,703 1028,700 1020,696 1010,694 1004,688 997,683 986,682 976,680 967,677 960,672 954,666 949,659 945,651 942,642 
		937,635 934,626 936,616 937,605 941,597 947,591 953,584 951,575 954,566 959,559 965,553 970,546 977,541 983,534 989,528 
		996,523 1003,518 1009,513 1009,503 1008,494 1013,486 1018,480 1021,470 1026,464 1034,459 1040,454 1043,445 1044,434 1044,422 
		1042,412 1042,400 1042,388 1044,378 1046,368 1049,359 1054,352 1061,347 1065,338 1070,332 1077,327 1084,321 1095,320 1106,321 
		1115,324 1122,329 1129,334 1134,341 1141,346 1147,352 1154,357 1159,364 1167,363 1168,352 1166,342 1163,333 1161,323 1160,312 
		1161,301 1164,291 1166,282 1168,272 1170,262 1173,252 1175,243 1178,234 1182,226 1192,223 1200,221 1207,216 1211,209 1219,204 
		1230,203 1239,206 1246,211 1252,217 1261,220 1268,225 1276,229 	"/>
	<polygon display="inline" fill="#FF0000" stroke="#800080" points="1279,921 1271,925 1260,926 1249,928 1242,933 1236,939 
		1231,946 1225,951 1217,956 1210,960 1201,963 1191,965 1180,964 1173,959 1166,954 1162,946 1158,938 1155,929 1152,920 1150,910 
		1150,898 1150,886 1149,875 1148,864 1149,853 1150,842 1152,832 1154,821 1159,814 1166,809 1171,803 1176,795 1181,788 1186,782 
		1191,774 1196,768 1203,763 1211,759 1219,754 1225,749 1231,742 1229,733 1223,727 1214,724 1205,721 1195,719 1188,714 1183,707 
		1178,700 1173,693 1169,685 1166,676 1165,665 1164,654 1165,642 1165,631 1165,619 1168,610 1170,600 1172,590 1174,580 1178,572 
		1182,564 1186,556 1190,548 1195,540 1202,535 1211,532 1220,529 1231,528 1239,532 1246,537 1256,539 1263,544 1268,551 1273,558 
		1279,564 	"/>
</g>
<g id="Single_nuclei" opacity="0.5">
	<polygon fill="#00FF00" stroke="#800080" points="1280,162.287 1275.291,161.172 1271.467,156.869 1267.802,150.176 
		1266.527,143.005 1264.774,132.646 1264.774,121.173 1264.933,108.902 1265.571,97.109 1266.845,87.388 1270,80 1272.423,75.595 
		1275.929,72.408 1280,69.54 	"/>
	<polygon fill="#00FF00" stroke="#800080" points="0,352 5,357 6,368 10,376 15,383 17,393 15,403 10,410 0,415 	"/>
	<polygon fill="#00FF00" stroke="#800080" points="325.66,1024 320,1016 316,1008 316,996 323.619,988.709 331.781,985.988 
		336.203,978.5 339.944,972.384 345.725,965.242 351.507,955.719 354.568,944.837 353.207,934 347,929 343,921 345,911 348,902 
		353,895 359,889 365,883 372,877 380,874 389,870 399,868 409,866 418,863 429,862 440,863 449,866 457,870 465,874 472,879 
		479,884 487,888 494,893 500,899 505,906 506,915 510,923 516,929 518,939 519,949 517,960 520,969 524,977 528,985 529,996 
		525,1004 524,1012 519.171,1024 	"/>
	<polygon fill="#00FF00" stroke="#800080" points="617.577,911.115 612,910 604,906 598,900 595,891 592,882 586,876 579,871 
		569,871 558,870 551,865 544,860 537,855 531,849 529,839 523,833 515,829 510,822 507,813 505,803 506,792 509,783 513,774 
		518,768 522,760 527,753 533,747 537,739 542,732 550,727 559,724 568,721 578,719 588,719 599,720 609,720 619,722 629,724 
		639,724 648,727 655,732 663,736 671,740 681,742 688,747 695,752 701,758 704,767 708,775 711,784 712,794 710,805 712,815 
		714,825 716,835 715,846 713,855 711,866 709,876 706,885 702,893 698,900 690,904 681,907 669,907 660,904 651,903 641,905 
		633,909 623,911 	"/>
	<polygon fill="#00FF00" stroke="#800080" points="565,1024 565,1013 568,1003 570,994 570,982 572,972 575,963 580,956 587,950 
		595,946 603,942 610,938 620,936 631,934 641,934 651,936 660,939 669,942 674,949 680,955 687,960 693,966 700,971 705,978 
		711,984 715,992 720,999 725,1006 733,1010 742,1013 750,1017 758.253,1024 	"/>
	<polygon fill="#00FF00" stroke="#800080" points="792,646 780,646 771,643 762,640 753,637 745,633 739,627 733,621 728,614 
		724,606 722,596 722,584 719,575 720,564 720,552 723,543 727,534 731,527 735,519 741,513 747,506 755.499,503.166 763,498 
		768.166,489.833 774,485 780,480 785,473 791,466 797,461 804,455 812,451 821,448 833,448 844,447 853,450 863,452 870,457 
		880,459 887,464 893,470 899,476 906,481 913,486 918,493 919,504 920,515 919,526 920,537 923,546 920,555 915,562 912,571 
		913,582 910,590 905,597 900,604 895,611 889,617 884,624 877,629 869,633 860,636 851,639 841,641 829,641 819,644 809,645 
		797,645 	"/>
	<polygon fill="#00FF00" stroke="#800080" points="994,305 982,305 973,302 964,303 953,304 942,303 935,298 926,297 916,295 
		906,293 897,290 889,286 884,279 881,270 882,259 878,251 872,245 867,238 867,228 865,218 866,207 867,196 866,185 867,174 
		867,162 870,152 873,144 879,137 887,133 891,126 890,115 895,107 900,101 906,95 913,90 921,85 931,83 941,84 949,80 956,74 
		964,70 975,69 986,70 997,70 1008,70 1017,73 1024,78 1031,83 1042,84 1053,85 1063,87 1072,90 1081,93 1090,94 1096,100 1101,107 
		1105,115 1108,124 1110,134 1109,145 1108,156 1104,163 1097,169 1093,176 1092,186 1094,196 1096,206 1097,217 1096,228 1093,237 
		1088,243 1082,250 1075,255 1069,260 1063,267 1058,273 1051,279 1045,284 1037,288 1028,291 1018,294 1011,298 1002,302 	"/>
	<polygon fill="#00FF00" stroke="#800080" points="1048,932 1037,931 1027,929 1017,927 1007,925 998,922 989,919 982,914 974,910 
		967,905 958,902 949,899 944,892 938,886 934,878 932,868 930,858 927,849 925,839 925,827 927,817 932,809 934,800 931,791 
		928,782 927,771 930,761 934,754 940,748 949,744 957,740 968,739 979,738 988,735 995,730 1002,726 1011,722 1022,723 1034,723 
		1045,722 1053,726 1060,731 1067,736 1073,742 1078,749 1083,756 1087,764 1088,775 1086,784 1081,792 1077,800 1073,807 1069,816 
		1073,824 1079,830 1084,837 1090,843 1095,850 1098,859 1102,867 1105,876 1104,887 1100,895 1096,903 1092,911 1086,917 1079,922 
		1072,927 1063,930 1053,931 	"/>
	<polygon fill="#00FF00" stroke="#800080" points="0,465.164 8.5,467.83 16,471 23,476 33,478 43.089,482.085 47.834,485.83 
		55.167,489.83 63.5,494.83 70.5,500.164 77.167,505.83 82.5,512 88.5,519 92.5,526.164 96,535 100,543 102,553 104,563 105,574 
		104,584 102,594 99,604 96,613 92,620 87,628 82,635 76,640 69,646 62,650 54,654 46,658 36,660 24,660 14,658 0,654.164 	"/>
	<polygon fill="#00FF00" stroke="#800080" points="72,204 61,203 53,199 45,195 36,192 29,187 22,182 15,177 9,171 4,164 2,154 
		2,142 2,130 2,118 2,106 4,96 6.16,85.2 8,76 12.14,67.247 16.544,61.423 22.226,56.025 28.903,51.053 35.863,44.234 
		42.256,38.552 48.08,34.432 53.62,29.177 59,25 67.053,19.367 76.529,13.953 84,13 94.531,11.988 104.049,11.988 115.839,11.988 
		128,13 137,16 144,21 151,26 158,31 163,38 168,45 174,51 176,61 181,68 188,73 194,79 200,85 205,92 208,101 210,111 207,120 
		205,130 202,139 198,147 193,154 189,162 184,168 178,174 170,179 163,183 155,187 147.167,190.5 138.167,192.833 127.167,197.5 
		116.834,199 108.924,199.623 102.167,201.5 90.834,204 78.5,204 	"/>
	<polygon fill="#00FF00" stroke="#800080" points="107,379 97,377 88,374 78,372 69,369 61,365 54,360 46.834,355.5 39,351 32,346 
		26,340 20,334 17,330.5 8,322 4,314 2,304 2,292 2,280 2,268 3,257 7,249 13,242 20,238 30,235 39,232 46,228 55,224 63,220 
		72,217 81,214 89,210 95.834,206.833 103.834,204 113.972,201.5 129.167,199 138,199 148.167,199.5 158,199 169,200 179,202 
		189,202 199,204 208,207 217,210 224,215 228,223 233,230 234,241 239,248 241,258 240,269 238,278 240,287 244,295 245,306 
		243,316 240,325 238,335 233,342 226,346 217,349 207,352 201,357 195,363 188,369 181.834,372.5 173.5,376.5 163.5,380.166 
		151.5,381.5 139.834,381.5 128.167,381.5 114.834,381.5 	"/>
	<polygon fill="#00FF00" stroke="#800080" points="169.75,544 163,544 152,541 142,539 133,536 124,533 114.121,530.032 106,527 
		98.732,522.997 92.5,519 86.834,513.497 82.5,508.164 75.5,501.497 68.834,497.164 60.331,491.339 51.683,486.355 43.834,480.497 
		35.561,477.561 26,475 19,470 13,464 10,455 7,446 6,437 8,427 12,419 20,414 27,410 35,405 42,400 50,396 59,394 69,391 78,388 
		88,386 98.5,385.166 107.834,383.5 119.167,383.5 130.834,383.5 143.167,383.5 154.834,383.5 167.5,381.5 180.834,381.5 
		189.834,383.5 196,386 203,391 210,396 218,400 224,406 228,414 232,422 236,430 240,438 244,446 244,456 241,465 237.5,474.25 
		232,481.25 228.75,491 229,503.25 227,511 223,519 217.75,525 211.75,531.25 205.75,535.5 196,539 186,542 177,544 	"/>
	<polygon fill="#00FF00" stroke="#800080" points="204,858 192,858 183,855 173,853 164,850 156,846 149,841 142,836 136.5,830.5 
		134,820 132.5,807.5 131.25,796.5 129.25,783.75 126.5,771.75 126.5,762.5 126.5,752.75 129,744 132,736 136,727 139.75,718.75 
		140.75,708.75 139.5,697.5 145,689 150,681 155,674 160,668 166,662 173,656 180,651 188,647 196,643 204,639 212,635 220,631 
		228,627 239,626 250,625 261,626 272,627 281,630 288,635 295,640 302,645 307,652 312,659 317,666 321,674 327,680 333,686 
		339,692 343,700 347,708 352,715 357,722 362,729 366,737 364,747 361,755 355,762 349,767 343,774 339,782 335,790 330,797 
		325,803 319,809 311,814 303,817 294,821 287,825 281,831 275,838 268,843 260,847 250,848 240,850 229,851 219,853 210,856 	"/>
	<polygon fill="#00FF00" stroke="#800080" points="0,924 8,920 18,918 28,917 36.25,916.5 45.25,917.75 54,919.75 62.5,923 70,926 
		78,930 85,935 91,941 97,947 103.25,953.25 109,959 114.75,964.75 119.5,973 123,981 125,991 124,1000 123,1011 120.25,1024 
		0,1024 	"/>
	<polygon fill="#00FF00" stroke="#800080" points="0,731.25 2,727 8,720 15,715 25,714 36,712 47,711 57,713 66,716 75,719 
		81.75,722.5 90,728 97,733 103.75,737 109.75,743.25 116,750 120.5,756.75 124,766 126,776 128,786 130,796 131,807 132.5,818.25 
		131,828.5 129.5,840.5 126,850 123,859 120,867 115,874 108,879 101,884 94,889 86,894 79,898 71,902 63,906 55,911 46,911 36,909 
		26,907 17,904 9,900 0,899.75 	"/>
	<polygon fill="#00FF00" stroke="#800080" points="550.927,518 540.841,518 530.382,518 521,518 510,517 501,514 493,510 485,506 
		478,501 470,497 463,492 457,486 450,481 443,476 436,471 426,469 418,465 411,460 403,456 397,450 390,445 387,436 385,426 
		386,417 389,407 392,399 397,391 401,384 408,378 415,373 422,368 429,363 438,361 448,358 458,356 469,355 480,354 491,353 
		501,351 512,352 523,353 534,354 543,357 552,360 560,364 568,368 575,373 581,379 587,385 593,391 598,398 603,405 608,412 
		611.5,420.167 614,428 613,439 609.5,448.5 605.167,456.5 601.5,465.5 601,475 598,484 595,493 590.823,501.059 585,507 
		576.982,511.094 568,514 559.508,516.112 	"/>
	<polygon fill="#00FF00" stroke="#800080" points="393.693,637 386.767,638.994 376.215,638.994 364,635 353,634 342,633 334,629 
		326,625 318,621 311,616 303.995,610.303 300.697,602.389 297,594 294,585 293,574 292,563 291,552 292.782,541.711 
		294.102,530.829 297,523 301,516 305,508 310,500 314,493 321,487 328,482 336.642,478.065 345,475 356,474 368,474 379,473 
		390,472 401,471 411,469 422,470 433,471 442,474 448,480 455,485 462,490 468,496 475,501 482,506 486,514 489,523 492,532 
		494,542 494,554 494,566 493,577 490,586 484,592 473,592 462,592 455.301,594.378 448.577,601.102 442,608 438,615 432,622 
		426,627 415.787,629.1 406.554,630.42 397.98,633.718 	"/>
	<polygon fill="#00FF00" stroke="#800080" points="434.13,301.109 426,300 418,296 411,291 404,286 397,281 390,276 385,269 
		381,261 377,253 374,244 370,236 367,227 365,217 363,207 361,197 361.336,186.585 363.219,178.427 365,171 369,163 373,154 
		377.966,147.364 383.3,141.717 392,137 401,134 409.656,133.245 418.442,129.48 427.149,124.146 433.816,120.067 441,115 451,112 
		460,109 469,106 478,103 487,100 497,100 509,100 521,100 530.769,104.692 537.045,111.281 541.124,116.615 544.575,123.204 
		549,132.303 551.478,139.834 554,151 555,162 556,173 555.557,184.702 555,194 552,202 548,211 544,219 541,227 537,236 532,243 
		527,249 522,256 517,263 511,270 504,275 498.765,280.087 491.235,285.735 483.391,290.25 475.547,294.834 468,298 458,300.482 
		449.225,300.895 441.298,301.518 	"/>
	<polygon fill="#00FF00" stroke="#800080" points="523,0 528,7 532,15 537,22 541,30 545,38 548,47 549,58 548.558,68.232 
		547.057,77.239 544.055,86.245 538.908,92.678 532.69,96.753 524,100 512,100 500,100 489.998,99.091 480,102 471,105 462,108 
		453,111 444,114 434,116 423,117 412,118 402,118 391,117 379,117 369,115 360,112 351,109 342,106 335.833,101.899 330.687,96.11 
		323.61,90.748 318.249,84.315 313.317,75.523 309.672,68.232 307.098,60.298 305.297,51.784 305.383,40.14 306.24,31.777 
		307.098,20.626 309.886,9.475 313.103,0 	"/>
	<polygon fill="#00FF00" stroke="#800080" points="851,1011 839,1011 828,1010 820,1006 813,1001 803,1000 797,1005 788,1009 
		779,1011 770,1008 761,1005 753,1001 747,995 741,989 737,981 733,973 732,962 729,953 726,944 725,933 724,922 725,911 727,901 
		731,893 739,890 744,884 747,875 754,869 760,864 768,859 776,855 780,848 779,837 781,827 785,818 792,813 801,810 810,807 
		819,804 828,801 838,803 846,807 853,812 859,818 865,824 869,832 873,840 877,848 881,856 884,865 885,876 886,887 886,898 
		884,909 882,919 882,929 886.5,935.499 889.5,943 890.833,952.832 892.167,963.832 889.167,972.499 885,980 879,986 875,993 
		868,999 862,1005 855,1010 	"/>
	<polygon fill="#00FF00" stroke="#800080" points="1079.5,730.832 1072,730 1064,726 1056,722 1049,717 1042,712 1035,707 1029,701 
		1021,697 1013,693 1004,690 996,686 987,683 977,681 969,677 961,673 953,669 945,665 939,659 937,649 935,639 933,629 
		933.833,617.499 935,610 939,602 943,594 946,586 948,576 953,569 959,562 965,556 971,550 976,544 982,537 987,531 993,525 
		999,518 1007,514 1017,512 1027,510 1035,514 1042,519 1050,523 1057,528 1065,532 1072,537 1079,542 1087,546 1094,551 1102,555 
		1109,560 1116,565 1120,573 1125.5,577.166 1131.833,586.499 1135,594 1135,602 1135,610 1139,618 1143,626 1146,635 1148.167,644 
		1147,652 1143,660 1139,668 1136,677 1135,687 1133,698 1129,706 1124,713 1120,720 1114,726 1104,728 1094,730 1084,732 	"/>
	<polygon fill="#00FF00" stroke="#800080" points="1114.5,559.503 1107,558 1099,554 1092,549 1084,545 1077,540 1070,535 1062,531 
		1055,526 1047,522 1040,517 1032,513 1024,511 1017.5,508.166 1012.833,504.5 1011.167,497.5 1011.167,488.5 1011.5,480.5 
		1015.167,472.834 1022.167,467.834 1029.167,464 1034.5,458.501 1040.584,452.167 1045.833,443.836 1045.5,433.503 
		1042.833,422.836 1040.584,411 1040.584,399.503 1040,391 1042,381 1044,371 1047,361 1051,354 1055,346 1059,338 1066.167,331.17 
		1072.167,326.836 1078.5,322.836 1089.167,320.17 1100.167,319.836 1110,321.503 1117,325 1124,330 1130,336 1137,341 1143,347 
		1149,353 1156,358 1163,363 1170,368 1176,374 1181,381 1186,388 1192,394 1197,401 1199,411 1200,422 1202,432 1203,443 1205,453 
		1204.833,462.169 1202.833,470.836 1200.167,478.169 1193.833,484.503 1188.093,489.721 1184.833,498.836 1181.833,505.503 
		1177,512 1170,517 1163,523 1157,528 1150,533 1143,539 1138,546 1131.167,551.503 1125.167,554.503 1119.167,557.836 	"/>
	<polygon fill="#00FF00" stroke="#800080" points="1280,369.123 1270,374 1261,377 1253,381 1247,386 1240,392 1233,397 1227,402 
		1220.833,404.17 1213.5,404.836 1207.167,402.503 1200.5,398.503 1194.167,392.836 1188.5,386.836 1182,381 1176,375 1171,368 
		1168,359 1166,349 1163,340 1161,330 1159.262,317.381 1160,310 1162,300 1164,290 1166,280 1168,270 1170,261 1174,252 1177,244 
		1181,235 1186,229 1194.605,222.747 1202.224,218.591 1208.227,214.897 1214.691,210.741 1221.617,207.047 1231.083,207.047 
		1240.781,209.818 1248.63,213.05 1257,217 1265,221 1270.102,224.363 1276,228.749 1280,231.751 	"/>
	<polygon fill="#00FF00" stroke="#800080" points="1280,560.498 1280,758 1272,757 1264,753 1255.167,750.294 1245.717,747.25 
		1238,743 1233.689,736.261 1228,729 1219,726 1211,722 1202.474,719.365 1194.169,715.928 1187.296,711.346 1181,704 
		1176.413,697.6 1172,689 1170,679 1167,670 1165,660 1166,649 1167,638 1168,627 1169,616 1170,605 1172,595 1175,586 1178,577 
		1182,568 1186,560 1189,552 1193,544 1199,537 1208,534 1217,531 1228,530 1238,530 1246,534 1254,538 1261,543 1268,548 1275,553 
			"/>
	<polygon fill="#00FF00" stroke="#800080" points="1280,922.25 1275,923 1266,923 1256,921 1248,926 1243,932 1237,938 1231,945 
		1225,951 1217,955 1209,958 1201,962 1191.25,962 1179,960 1170.25,955.25 1165,947.25 1160.75,939.25 1157.75,932 1154,925 
		1152,915 1153,904 1153,892 1152,880 1152,869 1152,856.75 1153.75,845.5 1154.25,834.5 1157,824 1161.5,816 1167,810 
		1172.75,803.5 1177.25,796.5 1182.25,789.75 1187.5,782.25 1192.75,776.5 1199.5,769.25 1206.75,763.75 1213,760 1219.75,755.25 
		1227,750 1235,747.25 1244,748 1253,751 1262,754 1270,758 1280,763.5 	"/>
	<polygon fill="#00FF00" stroke="#800080" points="0,71.366 4.043,69.52 7.879,66.678 12.282,62.843 16.26,58.865 20.379,55.598 
		24.499,52.9 27.624,50.343 30.323,47.785 33.022,45.371 36.005,41.961 38.989,39.688 42.398,36.847 45.665,34.432 49.358,31.307 
		53.62,27.33 56.603,25.057 59.444,22.784 62.853,20.227 65.695,18.096 68.535,15.397 70.666,11.988 71.519,9.999 72.371,6.874 
		73.508,4.459 73.508,1.902 73.508,0 0,-0.001 	"/>
	<polygon fill="#00FF00" stroke="#800080" points="905.499,1024 899.833,1020.499 895.166,1014.499 892.167,1007.165 
		892.167,998.499 894.499,990.499 898.037,982.963 903.49,974.434 909.166,969.165 915.166,964.165 919.287,960.594 925,957.657 
		933.166,957.165 939.166,959.832 944.833,960.165 953.166,957.165 959.166,951.499 966.166,946.832 974.499,946.832 
		983.499,945.165 993.166,945.165 1002.499,945.165 1013.166,945.165 1021.833,945.165 1028.166,947.832 1033.166,951.165 
		1037.166,957.165 1043.833,958.165 1051.499,956.499 1058.166,956.832 1065.166,959.832 1068.833,964.832 1072.499,967.832 
		1081.833,967.165 1089.166,967.832 1095.499,971.165 1102.833,975.165 1106.833,980.499 1111,985.75 1115,994.25 
		1116.166,1001.832 1116.166,1008.832 1119.833,1013.499 1123.499,1018.165 1127.499,1024 	"/>
	<polygon fill="#00FF00" stroke="#800080" points="1128.834,1024.000 1125.268,1019.530 1120.739,1012.880 1121.418,1009.609 1124.501,1007.500 1129.251,1005.750 1136.251,1005.750 1141.251,1002.750 1146.501,999.500 1152.001,997.750 1158.501,997.750 1165.001,997.750 1171.528,999.388 1177.963,1000.664 1182.751,997.750 1187.000,995.000 1194.500,993.250 1201.250,993.250 1206.500,994.500 1212.500,996.750 1217.750,1001.500 1221.250,1005.500 1225.000,1010.000 1229.500,1013.250 1235.000,1014.750 1239.500,1017.750 1242.500,1020.250 1245.000,1024.000 1128.834,1024.000"/>
</g>
</svg>
