<?xml version="1.0" encoding="utf-8"?>
<!-- Generator: Adobe Illustrator 16.0.1, SVG Export Plug-In . SVG Version: 6.00 Build 0)  -->
<!DOCTYPE svg PUBLIC "-//W3C//DTD SVG 1.1//EN" "http://www.w3.org/Graphics/SVG/1.1/DTD/svg11.dtd">
<svg version="1.1" id="Layer_1" xmlns="http://www.w3.org/2000/svg" xmlns:xlink="http://www.w3.org/1999/xlink" x="0px" y="0px"
	 width="1280px" height="1024px" viewBox="0 0 1280 1024" enable-background="new 0 0 1280 1024" xml:space="preserve">
<g id="Raw_image">
	
		<image overflow="visible" enable-background="new    " width="1280" height="1024" xlink:href="normal_28.jpg"  transform="matrix(1 0 0 1 2.441406e-004 -0.0012)">
	</image>
</g>
<g id="Not_annotated">
</g>
<g id="Clumps" display="none" opacity="0.5">
	<polygon display="inline" fill="#FF0000" stroke="#800080" points="412,910 401,909 392,906 382,904 372,902 363,899 356,894 
		351,887 349,877 347,871 342,864 336,858 331,851 330,842 328,832 323,825 320,816 318,806 321,797 320,786 326,779 330,772 
		337,767 344,762 348,754 353,746 359,740 365,734 372,729 381,726 388,721 398,719 410,719 421,720 431,722 439,726 447,730 
		456,733 463,738 469,744 472,753 476,761 476,772 472,780 471,788 478,793 477,803 478,813 480,823 482,831 479,838 486,843 
		495,846 498,855 503,862 512,865 520,869 518,876 508,876 499,873 490,871 481,873 474,879 467,883 458,886 449,889 442,894 
		434,899 427,903 419,908 	"/>
	<polygon display="inline" fill="#FF0000" stroke="#800080" points="789,996 777,996 766,996 756,995 748,991 739,988 733,982 
		725,978 716,975 708,971 701,966 691,964 684,959 675,956 667,952 662,945 657,938 650,933 644,927 640,919 639,908 638,897 
		638,885 641,876 646,869 650,861 643,862 637,869 628,871 620,876 612,879 602,881 594,878 586,881 576,879 567,876 561,870 
		551,868 542,866 535,862 526,859 518,855 510,851 502,847 495,842 492,833 489,824 488,813 487,802 488,791 489,779 493,771 
		498,764 500,755 503,745 508,738 514,732 523,729 530,725 539,721 547,717 555,713 565,711 574,708 581,703 589,699 599,701 
		610,700 617,695 626,696 634,700 643,703 654,704 660,710 667,715 673,721 679,727 685,733 686,744 690,752 690,764 687,772 
		689,781 690,792 688,802 687,812 683,821 679,829 676,838 671,844 663,849 656,853 659,857 669,855 678,852 687,849 696,847 
		706,844 715,842 723,837 731,833 741,831 749,828 758,824 768,822 777,819 783,814 777,808 767,806 759,804 754,797 746,793 
		737,794 729,790 722,785 720,775 716,767 710,761 711,750 709,740 708,729 709,718 705,710 707,701 715,697 722,693 729,687 
		738,684 746,680 754,676 762,672 770,668 780,666 792,666 802,668 811,671 819,675 827,679 834,684 839,691 845,697 851,703 
		856,710 860,718 864,726 868,734 871,743 873,753 875,763 876,774 876,783 870,790 865,796 857,800 849,804 840,807 832,811 
		825,816 822,822 829,827 835,833 841,839 845,847 849,855 853,863 857,871 862,878 868,884 872,892 876,900 880,908 885,915 
		888,924 891,933 890,942 889,952 883,959 876,964 868,968 861,973 856,979 849,984 840,987 831,990 820,991 808,991 798,993 	"/>
</g>
<g id="Single_nuclei" opacity="0.5">
	<polygon fill="#00FF00" stroke="#800080" points="1275.568,65.6 1269.898,69.545 1264.721,74.475 1258,80 1252,85 1244,89 1235,93 
		1224.291,93.457 1215.909,91.485 1209.745,88.032 1202.599,83.349 1195,78 1188.054,72.503 1182.384,67.573 1176.961,61.656 
		1172.031,54.507 1167.593,48.344 1164.388,38.483 1164.388,28.376 1165,20 1167.1,11.365 1169.758,4.673 1173.017,0 1280,-0.001 
		1280,60.67 	"/>
	<polygon fill="#00FF00" stroke="#800080" points="596,1024 601,1017 611,1015 619,1011 628,1008 639,1009 650,1010 661,1009 
		670,1012 679,1015 688,1018 692.098,1024 	"/>
	<polygon fill="#00FF00" stroke="#800080" points="0,893 8,893 17,896 24,901 29,908 34.508,915.406 39,922 41,932 39,942 
		34.508,951.888 35.871,961.094 41,970 41.327,979.508 40,989 36,997 32,1004 29,1014 23.597,1024 0.001,1024 	"/>
	<polygon fill="#00FF00" stroke="#800080" points="354,0 351,7 344,12 337,16 328,19 318,21 310,25 300,27 292,32 285,36 277,41 
		270,45 258,45 248,43 237,44 228,41 220,37 212,33 204,29 198,23 195,14 190,7 186,0 	"/>
	<polygon fill="#00FF00" stroke="#800080" points="0,141 8,138 17,134 24,132 33,130 42,129 53,130 63,132 73,132 81,136 87,142 
		92.63,149.193 98,155 104,161 110,167 113,176 116,185 121,192 123,202 126,211 126.187,221.26 125,230 123,240 121,250 117,258 
		113,266 110,274 107,283 102,291 96,297 90,302 81,305 75,311 70,319 64,324 56,328 48,333 42,338 35,343 22.49,347 9.563,347 
		0,347 	"/>
	<polygon fill="#00FF00" stroke="#800080" points="340,261.594 330.69,260.839 323.138,258.07 314,255 306,251 301,244 292,241 
		284,237 279,230 272,225 263,222 255,218 248,213 241,208 236,201 232,193 229.494,186.327 226.222,176.258 224,167 
		221.943,159.14 221,148 222.698,135.477 224,127 226,116 228,108 230,101 233.774,92.431 238.053,87.397 243.088,80.6 249,76 
		256,70 263,66 272.289,60.462 280.847,56.686 288.651,54.42 296.203,51.651 305.769,50.896 315,52 323.642,52.406 331.948,54.672 
		340,56.433 347.808,59.202 355.864,60.21 365.177,62.167 373,65 377.884,67.586 385.884,70.586 391,73 397.903,77.831 
		405.705,82.614 410.99,86.389 416.531,89.41 421.565,93.69 428.11,98.976 432.641,105.018 437,111 441,119 443.969,127.17 
		448.247,136.233 451,145 454,154 457,163 459,173 458,182 455.297,191.109 453,201 450,210 447,219 444,228 442,237 437,245 
		430,249 421,252 412.755,254.797 402,257 392,259 381,260 370,261 358,261 348.815,261.09 	"/>
	<polygon fill="#00FF00" stroke="#800080" points="506,724 497,721 491,715 483,711 476,706 466,706 458,702 451,697 443,693 
		437,687 431,681 424,676 421,667 416,660 413,651 414,640 415,629 416,618 418,607 420,598 422,587 425,579 430,572 436,566 
		442,560 448,554 454,548 461,543 466,535 472,529 480,526 488,521 498,519 507,516 516,519 527,520 538,521 544,525 550,531 
		560,533 570,535 579,538 586,543 589,550 596,555 602,561 610,565 615,572 616,583 613,591 613,600 613,609 613,618 610,626 
		606,635 602,642 597,650 594,659 589,666 583,672 580,681 572,684 565,689 560,696 553,701 543,704 538,710 532,717 524,720 
		513,719 	"/>
	<polygon fill="#00FF00" stroke="#800080" points="601,455 589,455 580,452 572,448 566,442 558,440 550,436 543,431 539,423 
		530,420 522,416 517,409 512,402 507,395 505,385 505,373.323 505,363 505.995,352.806 507,345 509,335 512,326 517,318 
		522.615,314.371 526.513,308.918 529.367,300.608 535.862,292.038 544.172,285.286 553,282 561,280 571,278 581,276 593,276 
		604,275 615,276 624,279 634,281 641.817,284.767 649,290 656,295 661.813,299.57 667.267,306.322 673,314 677,322 
		681.288,328.655 686,337 690,345 694,353 697,362 700,373.842 700,383 698,393 696,403 692,411 688,419 683,425 677,431 671,438 
		664,443 657,448 649,451 637,451 626,452 617,449 609,453 	"/>
	<polygon fill="#00FF00" stroke="#800080" points="813,642 802,641 791,640 782,637 773,634 765,630 759,624 753,618 746,613 
		741,606 735,600 729,594 724,587 720,579 715,572 710,565 706,557 703,548 701,538 697,530 693,522 691,512 689,502 688,491 
		691,481 696,474 701,468 707,461 715,457 722,452 729,448 739,445 748,442 759,441 770,442 780,444 790,445 800,444 810,446 
		820,448 828,452 835,457 842,462 853,463 861,465 870,468 877,473 883,479 888,486 892,494 895,503 898,512 898,524 901,533 
		902,544 900,554 899,565 896,574 893,583 889,591 885,599 880,605 875,612 869,619 863,624 856,629 848,633 840,637 831,640 
		820,641 	"/>
	<polygon fill="#00FF00" stroke="#800080" points="827.047,194.229 816,195 805,194 795,192 785.432,189.791 775.597,187.632 
		766.721,184.394 758.805,180.677 751,176 743.693,171.56 736,167 729.061,161.365 723,156 717,150 711,144 706.632,137.858 
		703.907,131.672 701.179,123.98 699,116 697,106 697,96 699,88 702,79 704,71 710,64 715,57 721,51 728,47 734,41 741,35 750,32 
		756,29 765,27 773,25 781,21 789,19 797,17 806.025,16.84 816.007,16.401 824,18 834,20 843,23 852,25 861,27 871,29 879,33 
		886,38 893,43 899,49 905,55 910,62 914,70 918.077,77.454 921.356,85.318 924,96 924,108 925,119 925.286,127.911 
		922.338,137.413 918,143 912,150 908,157 903,165 897,170 890,175 883,180 875,184 866,187 856,189 845,190 835.564,192.789 	"/>
	<polygon fill="#00FF00" stroke="#800080" points="1072.689,1024 1069.362,1017.119 1065.651,1011.489 1058.357,1010.721 
		1050.934,1009.441 1040.823,1004.45 1031.739,998.564 1023,992 1017,986 1012,979 1008,971 1005,962 1003,952 1001,942 998,933 
		995,924 993,914 989,906 986,897 983,888 981,878 981,866 981,855 982,847 985,838 988,829 994,822 1000,817 1009.75,812.75 
		1018.75,810.75 1028,810 1038,812 1048,814 1059,813 1068,810 1078,808 1085,803.25 1092.5,803.25 1099.25,807.5 1102,815 
		1107.25,819 1120,826 1130,828 1139.5,827.25 1148,830.25 1154,838 1159,845 1165,851 1170,858 1174,866 1177,875 1179,884 
		1178,892 1183,899 1187,907 1191,915 1191,925 1189,933 1189.75,941.25 1189.75,949.75 1195,955 1197,965 1196,975 1191,982 
		1183,987 1177,993 1171,999 1164,1004 1157,1009 1152,1015 1142.881,1024 	"/>
	<polygon fill="#00FF00" stroke="#800080" points="1280,567.107 1274.75,575.25 1269,581 1263,587 1256,593 1249,597 1239,600 
		1229,601 1219,599 1211,595 1205,589 1198,584 1188,582 1180,579 1171,575 1164,570 1159,563 1156,554 1151,547 1147,539 1145,529 
		1141,521 1137,513 1134,504 1131,495 1128,486 1127.5,476.5 1128.25,466.25 1129.75,456.75 1131,447 1134.5,439 1138,430 1142,421 
		1148,415 1153,409 1158,401 1164,396 1170,389 1175,383 1183,378 1191,374 1201,372 1209,368 1218,365 1229,366 1237,370 1248,371 
		1259,370 1267,372 1274,377 1280,384.017 	"/>
	<polygon fill="#00FF00" stroke="#800080" points="1280,868.405 1270.151,868.405 1259.213,867.813 1252,863 1244,859 1235,860 
		1226,857 1218,853 1212,847 1206,841 1201,834 1197,826 1193,818 1190,809 1189,798 1188,787 1187,776 1186,765 1186,753 1188,742 
		1190,733 1192,723 1194,713 1195,702 1200,694 1206,688 1212,682 1217,676 1221,668 1226,661 1232,654 1238,649 1246,644 1253,639 
		1261,635 1269,632 1280,630 	"/>
	<polygon fill="#00FF00" stroke="#800080" points="407.299,909.662 400,909 391,906 382,903 372,901 363,898 356,893 351,886 
		350,876 346,871 342,863 336,857 332.454,850.715 330,841 328,831 323,824 320,815 319,805 321,796 322.183,786.146 326,779 
		330.988,772.352 338,766 345,761 348,753 353,746 359,740 365,734 373,729 381,726 388,721 399,719 411,719 422,720 431,723 
		440,726 448,730 456,734 464,738 469,745 472,754 476,762 475,773 471,781 473.034,789.375 478.025,795.537 479.49,804.344 
		478,814 478.906,822.538 482,832 484.482,836.921 489.243,844.121 490.223,852.478 487.482,862.946 482.248,870.424 
		474.502,877.129 467.752,880 460,885 451,888 443,892 436,897 428,902 421,906 412,909 	"/>
	<polygon fill="#00FF00" stroke="#800080" points="607,880 598,877 590,879 581,878 570,877 564,871 555,868 546,865 537,862 
		529,858 521,854 512,851 504,847 497,842 494,833 491,824 489,814 488,803 489,792 490,780 494,772 499,765 501,756 504,746 
		509,739 515,733 524,730 531,726 540,722 548,718 556,714 566,712 575,709 582,704 590,700 600,702 611,701 618,696 627,699 
		636,702 645,705 655,707 661,713 668,718 674,724 680,730 685,737 686,748 689,757 688,768 685,777 689,785 688,796 686,806 
		684,815 680,824 677,833 673,840 666,845 658,849 653,857 646,859 638,864 633,870 623,872 615,876 	"/>
	<polygon fill="#00FF00" stroke="#800080" points="788,995 777,994 765,995 756,993 747,990 739,986 733,980 724,977 715,974 
		708,969 700,965 691,962 684,957 675,954 667,950 663,942 656,937 650,931 644,925 641,916 640,905 639,894 640,883 644,875 
		649,867 654,860 663,858 673,855 682,852 692,850 700,846 710,844 718,841 726,837 735,833 745,831 753,828 762,824 772,822 
		781,819 789.282,817.875 800.997,819.109 811.479,818.954 822,824 829,829 835,835 840,842 845,849 849,857 853,865 856,874 
		862,880 868,886 872,894 875,903 880,910 884,918 888,926 890,936 889,947 885,955 879,961 872,965 863,969 857,975 852,981 
		843,985 835,988 825,990 813,990 802,991 793,994 	"/>
	<polygon fill="#00FF00" stroke="#800080" points="818.431,814.564 807.934,815.411 798.07,816.029 790.5,815 783,810 775,806 
		765,806 758,801 752,795 743,792 734,791 726,787 721,780 719.99,774.964 719,770 714.531,767.017 711.756,763.934 
		711.293,758.694 710.986,754.842 710.831,749.446 711,744 710.025,739.125 709,734 709.613,727.267 710,723 706.972,712.919 
		706.206,705.675 711.245,699.867 721,696 728,690 735,686 744,683 752,679 760,674 768,670 778,668 789,667 800.073,668.065 
		808.24,671.302 817.028,674.385 824.579,677.776 832.904,683.323 838.913,689.181 844.925,696 849.549,701.511 855.406,708.909 
		860.031,717.233 864.5,725.556 867.429,733.416 871.127,742.05 872,752 874,762 875,773 874,784 868,790 863,796 855,800 846,804 
		838,807 830,812 	"/>
	<polygon fill="#00FF00" stroke="#800080" points="0,92.004 6.444,100.199 13.729,107.031 21.47,112.949 31.031,118.87 
		40.595,121.146 49.702,124.334 59.264,124.334 69.281,124.334 77.934,120.691 88.863,118.87 97.059,112.039 106.166,105.664 
		113.451,102.022 123.925,101.566 131.666,97.924 140.317,92.004 145.781,85.629 152.612,76.067 156.255,66.959 160.808,56.487 
		160.808,47 158.531,38.728 155.799,32.808 156.255,25.522 155.344,14.594 155.344,8.219 155.344,0 0.001,0 	"/>
</g>
</svg>
