<?xml version="1.0" encoding="utf-8"?>
<!-- Generator: Adobe Illustrator 16.0.1, SVG Export Plug-In . SVG Version: 6.00 Build 0)  -->
<!DOCTYPE svg PUBLIC "-//W3C//DTD SVG 1.1//EN" "http://www.w3.org/Graphics/SVG/1.1/DTD/svg11.dtd">
<svg version="1.1" id="Layer_1" xmlns="http://www.w3.org/2000/svg" xmlns:xlink="http://www.w3.org/1999/xlink" x="0px" y="0px"
	 width="1280px" height="1024px" viewBox="0 0 1280 1024" enable-background="new 0 0 1280 1024" xml:space="preserve">
<g id="Raw_image">
	
		<image overflow="visible" enable-background="new    " width="1280" height="1024" xlink:href="normal_31.jpg"  transform="matrix(1 0 0 1 2.441406e-004 -2.441406e-004)">
	</image>
</g>
<g id="Not_annotated" opacity="0.5">
	<polygon fill="#0000FF" stroke="#800080" points="467,1023 473,1018 484,1017 495,1016 506,1017 517,1018 	"/>
</g>
<g id="Clumps" display="none" opacity="0.5">
	<polygon display="inline" fill="#FF0000" stroke="#800080" points="576,490 565,489 556,486 550,480 546,472 544,462 542,454 
		549,449 550,440 547,431 544,422 540,414 540,402 543,393 548,385 552,378 558,372 566,368 574,363 582,359 592,357 604,357 
		614,359 624,361 632,365 639,370 645,376 650,383 655,390 659,398 661,408 661,420 658,429 654,437 649,443 642,449 635,453 
		627,457 619,461 610,465 600,464 596,472 590,479 584,485 577,489 	"/>
</g>
<g id="Single_nuclei" opacity="0.5">
	<polygon fill="#00FF00" stroke="#800080" points="1273.471,0 1264.758,5.964 1258.777,8.619 1251.141,11 1240.911,11.788 1230,10 
		1220.165,6.314 1212,0 	"/>
	<polygon fill="#00FF00" stroke="#800080" points="1208.019,1016.653 1209.666,1007.668 1213,1000 1218,992.834 1222.832,987.334 
		1229.166,981.5 1235.832,976.168 1244.01,972.334 1254.832,970.668 1263.666,973.668 1273.166,980.334 1280,985 1280,1024 
		1208.019,1024 	"/>
	<polygon fill="#00FF00" stroke="#800080" points="930,0 925.875,6.25 920,11 912,15 904,18.125 895.125,20.375 885.5,21 
		877.125,20.375 867.875,19 858,15 852,9 848.02,0 	"/>
	<polygon fill="#00FF00" stroke="#800080" points="44,1024 46.785,1015 52.362,1007.5 58,1003 66,998 74,994 84,992 95,991 106,992 
		117,993 127,995 135,999 142,1004 149,1009 156,1014 162.337,1018.819 166.055,1024 	"/>
	<polygon fill="#00FF00" stroke="#800080" points="973.406,1024 976.238,1013.727 978.236,1006.568 982.898,998.5 987.892,991.918 
		994.218,986.591 1000.378,982.094 1007.703,978.098 1015.696,975.767 1026.518,973.436 1038.338,974.102 1049.181,977.293 
		1059.816,983.594 1065.936,990.112 1070.97,998 1074.065,1005.905 1077,1015.724 1077,1024 	"/>
	<polygon fill="#00FF00" stroke="#800080" points="0,458 8,460 16,464 23,469 29,475 36,480 41,487 42,498 41,508 38,517 34,525 
		29,532 23,538 16,544 9,548 0,551 	"/>
	<polygon fill="#00FF00" stroke="#800080" points="81,882 69,882 60,879 52.627,873.651 46,869 40,863 36,855 34,845 37,836 43,829 
		48,823 55.013,815.463 58.501,807.017 62.723,799.858 66.211,791.415 69.698,782.787 75.022,776.547 81,772 91,770 101,767 
		112,766 122,768 130,772 137,777 142,784 144,794 145,805 145,815 141,823 131.559,832.349 124.584,837.674 115.589,841.527 
		110.449,847.401 110.082,853.459 107.88,860.802 105.126,867.044 98,876 90,879 	"/>
	<polygon fill="#00FF00" stroke="#800080" points="166,627 155,626 147,622 137,622 129,618 122,613 117,606 115,596 112,587 
		111,576 111,564 114,554 117,546 121,538 125,529 131,523 138,518 145,514 153,510 161,505 169,502 178,499 188,497 199,497 
		209,499 218,502 223,509 226,518 229,527 230,536 224,542 222,551 221,563 220,573 218,583 213,591 208,597 202,603 197,611 
		191,617 184,622 176,625 	"/>
	<polygon fill="#00FF00" stroke="#800080" points="318.061,0 322.986,7.236 327.911,13.9 334,23 337.763,30.704 340.659,39.107 
		342,49 339,57 333,64 329,71 322,76 313,79 304,83 295,85 284,84 275,81 267,77 260,72 253,67 247,61 242,54 238.383,48.379 
		232.299,42.5 227.952,34.181 223.896,28.386 220.999,19.695 219.55,9.844 219.84,0 	"/>
	<polygon fill="#00FF00" stroke="#800080" points="306,1015 296,1015 284,1015 274,1013 265,1010 257,1006 251,1000 245,994 
		239,988 235,980 230,973 227,964 226,953 226,941 228,931 231,922 235,914 240,906 245,899 250,893 257,887 265,883 273,880 
		285,879 297,879 308,880 317,883 324,888 333,891 341,895 347,901 353,907 358,914 363,921 366,930 368,940 368,952 366,962 
		363,971 359,978 354,985 348,992 342,997 335,1002 327,1007 319,1011 311,1012 	"/>
	<polygon fill="#00FF00" stroke="#800080" points="291.032,706.406 284,705 277,700 269,696 261,692 255,686 250,679 249,668 
		251,658 254,649 259,641 264,635 269,628 274,621 279,614 284,607 290,600 295,594 301,588 307,581 314.673,577.675 325,577 
		334,580 341,585 347,591 351,599 353,609 354,620 354.55,627 353.547,638.619 352.794,647.145 348.531,656.176 346.274,665.705 
		342.01,672.978 335.99,679.75 330.473,682.26 324.453,688.026 319.187,693.671 311.187,698.671 306,702 298,706 	"/>
	<polygon fill="#00FF00" stroke="#800080" points="447.863,143.702 441.779,142.254 434.534,143.412 423.525,145.151 
		413.674,143.702 405.561,140.225 398,135 391,130 384,125 380,117 380,109.513 380,99 381,89 385,82 388,73 392,64 396,57 401,50 
		409.037,45.192 418,44 427.58,44 439,47 445,53 448,62 451.919,70.399 457.425,78.802 464.378,83.147 474,84 481,89 486,96 
		486,106 482,114 477,121 470.463,126.318 465,132 458.294,137.907 453.657,142.543 	"/>
	<polygon fill="#00FF00" stroke="#800080" points="456,894 444,894 433,893 424,890 417,885 409,881 402,876 396,870 390,864 
		386,856 384,846 383,835 384,824 387,815 391,807 397,801 404,795 411,790 418,786 427,782 436,779 445,776 455,774 467,774 
		476,777 484,781 491,786 497,792 502,799 506,807 510,815 512,825 515,834 514,845 511,854 506,861 500,867 494,872 485,874 
		479,879 476,887 468,891 459,893 	"/>
	<polygon fill="#00FF00" stroke="#800080" points="613,1010 601,1010 590,1009 579,1008 571,1004 563,1000 556,995 551,988 546,981 
		541,974 537,966 535,956 537,946 538,935 541,926 545,918 551,911 556,904 562,898 569,893 577,890 586,887 597,885 608,886 
		619,887 629,889 639,891 648,894 656,898 664,902 670,908 675,915 679,923 681,933 681,945 679,954 675,963 671,971 667,978 
		662,986 654,990 646,994 639,998 631,1002 624,1007 614,1009 	"/>
	<polygon fill="#00FF00" stroke="#800080" points="652,868 642,867 632,866 623,863 615,859 608,854 601,849 596,842 592,834 
		590,824 591,813 592,802 597,794 603,788 608,782 615,776 623,773 631,768 638,763 647,760 656,757 665,754 674,751 685,750 
		695,752 703,756 710,761 716,767 721,774 724,783 727,792 727,804 726,813 723,822 719,830 715,837 709,843 702,849 696,854 
		688,859 680,862 671,865 660,866 	"/>
	<polygon fill="#00FF00" stroke="#800080" points="794,0 792.843,8.607 789.666,16.833 785.834,24 779.666,29.833 771.666,35.333 
		764.666,39.166 758,44 751.334,49.166 745.5,53.333 739.5,55.5 732.166,58.5 723.834,58.5 715,58 704,57 694,57 683,56 673,54 
		665,50 658.666,45 652,39 647,32 643,24 640,15 639.472,0 	"/>
	<polygon fill="#00FF00" stroke="#800080" points="760,747 748,747 740,745 731,742 723,738 716,733 711,726 705,720 701,712 
		698,703 694,695 690,687 688,677 687,666 689,656 693,648 698,641 703,634 709,628 715,622 721,616 728,610 736,606 744,603 
		755,601 764.889,600.298 774,602 784,604 792,608 800,612 808,616 815,621 821,627 825,635 829,643 831,653 832,663 831,674 
		828,684 824,692 820,700 816,707 811,714 806,721 799,727 793,733 786,737 778,741 769,745 	"/>
	<polygon fill="#00FF00" stroke="#800080" points="1007.83,158 1001,158 990,158 979,157 969,155 960,152 952,148 945,143 941,135 
		938,126 936,116 935,105 934,94 936,84 939,75 942,66 947,59 953,52 959,46 966,41 972,35 978,29 985,24 994,21 1004,19 1014,20 
		1023.764,21 1033,24 1043,26 1051,30 1057,36 1066.759,37.822 1074.615,40.441 1081,46 1086.402,53.754 1090,61 1093,70 1093,82 
		1092,93 1089,102 1085,110 1080,117 1075,123 1069,129 1061,134 1054,139 1047,143 1038,146 1029,150 1021,153 1014.719,156.14 	
		"/>
	<polygon fill="#00FF00" stroke="#800080" points="1006,912 994,912 986,908 977,905 969,901 963,895 957,889 953,881 949,873 
		947,863 947,851 950,842 954,833 959,827 965,820 970,814 977,808 984,803 991,798 999,794 1008,792 1018,789 1029,790 1038,793 
		1047,796 1055,800 1061,806 1066,813 1069,822 1072,831 1073,842 1072,853 1069,862 1065,870 1061,878 1055,884 1049,890 1042,895 
		1035,900 1028,904 1019,908 1010,911 	"/>
	<polygon fill="#00FF00" stroke="#800080" points="1102.365,415.505 1092.215,414.979 1085,410 1076,407 1069,402 1063,396 
		1056,391 1049,386 1044,379 1040,371 1040,359 1041,347 1045,339 1053,336 1060,330 1066,325 1073,319 1079,313 1090,312 1101,313 
		1112,314 1122,316 1129,321 1135,327 1139,335 1143,343 1147,351 1150,360 1150,372 1148,382 1144,390 1138.773,395.376 
		1134.046,401.502 1125.84,405.838 1117,411 1109,414 	"/>
	<polygon fill="#00FF00" stroke="#800080" points="1157,153 1147.288,151.312 1138.341,148.038 1130,144 1123,139 1118,132 
		1115,123 1110,116 1108,106 1108,94 1110,83 1114,75 1118,68 1122,59 1127.837,49.293 1133.103,41.532 1141.861,38.785 
		1150.615,41.254 1156.019,46.115 1163,45 1168,37 1176,35 1185,38 1190,45 1192,55 1190,64 1194,71 1203,74 1213,76 1219,82 
		1222,91 1223,102 1222,113 1222,125 1217,131 1209,135 1199,136 1190,138 1181,142 1175,147 1167,151 	"/>
	<polygon fill="#00FF00" stroke="#800080" points="585.221,465.11 581,463 572.656,458.752 564.9,453.005 559.16,448.255 
		554.063,441.656 549,435 545,427 542,418 541.467,408.668 542,401 545,393 549,385 554,378 561,372 567,367 576,363 584,359 
		595,358 607,358 617,360 625,364 633,368 641,372 646,379 651,386 654,395 657,404 658,415 657,425 652,432 647,439 642,446 
		635,451 627,455 618,458 609,461 600,464 593.649,466 	"/>
</g>
</svg>
