<?xml version="1.0" encoding="utf-8"?>
<!-- Generator: Adobe Illustrator 16.0.5, SVG Export Plug-In . SVG Version: 6.00 Build 0)  -->
<!DOCTYPE svg PUBLIC "-//W3C//DTD SVG 1.1//EN" "http://www.w3.org/Graphics/SVG/1.1/DTD/svg11.dtd">
<svg version="1.1" id="Layer_1" xmlns="http://www.w3.org/2000/svg" xmlns:xlink="http://www.w3.org/1999/xlink" x="0px" y="0px"
	 width="1360px" height="1024px" viewBox="0 0 1360 1024" enable-background="new 0 0 1360 1024" xml:space="preserve">
<g id="Raw_image">
	
		<image overflow="visible" enable-background="new    " width="1360" height="1024" xlink:href="normal_38.jpg"  transform="matrix(1 0 0 1 0 -2.441406e-004)">
	</image>
</g>
<g id="Not_annotated" display="none" opacity="0.5">
	<polygon display="inline" fill="#0000FF" stroke="#800080" points="1359,172 1353,172 1347,168 1342,163 1340,155 1334,151 
		1329,146 1328,139 1333,140 1330,133 1334,126 1337,119 1340,112 1343,106 1347,99 1350,92 1353,85 1355,78 1358,72 	"/>
	<polygon display="inline" fill="#0000FF" stroke="#800080" points="1359,992 1353,990 1350,983 1352,977 1354,969 	"/>
	<polygon display="inline" fill="#0000FF" stroke="#800080" points="1359,641 1355,637 1355,627 1358,619 	"/>
	<polygon display="inline" fill="#0000FF" stroke="#800080" points="1200,135 1191,134 1182,133 1176,129 1171,124 1166,119 
		1163,112 1160,105 1159,96 1157,88 1154,82 1159,80 1162,73 1168,69 1177,69 1184,67 1189,65 1195,69 1200,74 1205,79 1210,84 
		1216,88 1221,93 1225,99 1223,106 1221,114 1217,121 1212,126 1208,132 1201,134 	"/>
	<polygon display="inline" fill="#0000FF" stroke="#800080" points="1289,254 1282,251 1276,247 1275,240 1270,235 1269,226 
		1265,220 1261,214 1256,214 1251,218 1243,216 1237,212 1233,206 1234,198 1233,190 1228,185 1230,180 1236,184 1243,187 1244,191 
		1237,195 1235,203 1239,209 1238,203 1243,199 1244,206 1249,211 1253,207 1259,205 1261,200 1266,195 1274,192 1283,193 1292,194 
		1300,196 1308,198 1317,199 1325,201 1331,205 1334,212 1335,221 1332,228 1328,233 1322,238 1317,242 1311,246 1304,250 1297,252 
			"/>
	<polygon display="inline" fill="#0000FF" stroke="#800080" points="1270,0 1268,5 1260,7 1251,6 1241,6 1232,5 1225,2 	"/>
</g>
<g id="Clumps" display="none" opacity="0.5">
	<polygon display="inline" fill="#FF0000" stroke="#800080" points="0,757 6,754 16,753 25,754 32,757 38,761 44,765 48,771 52,777 
		55,784 58,791 59,800 59,810 58,818 56,826 53,833 49,840 48,847 53,852 58,857 62,863 67,868 70,875 73,882 74,891 73,900 71,908 
		68,914 63,920 58,924 51,928 43,929 35,927 28,924 22,920 17,915 13,909 9,903 7,895 6,886 6,876 8,868 12,861 15,855 17,847 
		12,842 6,838 0,834 	"/>
	<polygon display="inline" fill="#FF0000" stroke="#800080" points="498,0 502,6 502,16 499,23 495,28 489,33 483,36 476,40 469,42 
		459,42 451,40 444,37 437,34 431,30 426,25 422,19 419,12 418,3 	"/>
	<polygon display="inline" fill="#FF0000" stroke="#800080" points="858,682 849,681 844,676 836,676 828,676 822,672 817,667 
		816,658 818,650 820,641 821,633 825,626 832,623 841,622 845,617 852,613 860,615 866,617 867,626 864,633 866,641 869,648 
		872,655 869,662 868,670 864,677 859,681 	"/>
</g>
<g id="Single_nuclei" opacity="0.1">
	<polygon fill="#00FF00" stroke="#800080" points="0,982 4,986 6,994 8,1002 10,1010 11,1019 	"/>
	<polygon fill="#00FF00" stroke="#800080" points="53,163 44,162 35,161 27,159 20,156 14,152 9,147 5,141 2,134 1,125 2,116 5,109 
		9,102 13,97 18,92 24,87 30,83 36,80 44,77 54,77 63,78 70,81 76,85 82,89 86,95 89,102 92,109 93,118 93,128 91,136 89,143 
		85,149 79,154 73,158 66,160 58,162 	"/>
	<polygon fill="#00FF00" stroke="#800080" points="56,707 46,707 38,705 31,702 26,697 22,691 19,684 18,675 19,665 21,657 24,651 
		28,645 33,640 39,636 46,632 53,629 61,628 70,628 78,630 85,633 91,637 96,642 100,648 103,655 104,664 103,673 100,680 97,686 
		92,691 86,696 81,700 74,704 66,705 57,706 	"/>
	<polygon fill="#00FF00" stroke="#800080" points="119,351 109,351 99,351 90,350 85,345 81,339 77,333 75,325 74,316 75,307 
		78,300 82,293 86,287 92,283 99,280 108,279 116,281 123,284 128,289 132,295 136,301 139,308 139,318 137,326 135,334 133,342 
		129,347 122,350 	"/>
	<polygon fill="#00FF00" stroke="#800080" points="122,807 113,806 106,803 100,799 95,794 92,787 89,780 87,772 87,762 89,753 
		92,747 96,741 101,736 109,733 118,732 125,735 129,741 134,746 137,753 140,760 141,769 141,779 139,787 136,794 132,800 127,804 
			"/>
	<polygon fill="#00FF00" stroke="#800080" points="125,994 116,993 107,992 101,988 97,982 94,975 94,967 95,958 98,951 102,945 
		107,940 113,936 121,933 130,932 138,934 145,937 151,941 156,946 159,953 162,960 163,969 161,977 156,981 150,986 144,989 
		136,992 128,993 	"/>
	<polygon fill="#00FF00" stroke="#800080" points="203,918 193,918 186,915 180,911 174,907 169,902 165,896 164,887 165,878 
		168,871 172,865 177,859 182,855 190,852 199,853 206,856 212,860 217,865 222,870 224,878 225,887 225,895 223,903 220,909 
		213,913 207,916 	"/>
	<polygon fill="#00FF00" stroke="#800080" points="184,1023 181,1016 184,1009 188,1003 193,997 197,991 200,985 207,981 216,982 
		225,983 233,985 238,990 240,998 240,1005 245,1009 251,1013 250,1022 	"/>
	<polygon fill="#00FF00" stroke="#800080" points="271,0 274,7 274,17 272,25 269,32 264,37 258,41 252,44 243,45 235,43 229,39 
		224,34 219,29 215,23 212,16 208,10 208,1 	"/>
	<polygon fill="#00FF00" stroke="#800080" points="284,535 274,535 268,531 263,526 260,519 258,511 259,502 261,493 264,486 
		268,480 272,475 279,471 286,468 295,467 303,469 310,472 315,477 320,482 323,489 324,498 323,507 319,512 313,517 308,522 
		303,526 297,530 290,533 	"/>
	<polygon fill="#00FF00" stroke="#800080" points="315,730 307,728 299,726 293,722 286,719 279,716 273,712 268,707 264,701 
		261,694 259,686 259,676 260,667 263,659 266,653 271,648 277,644 285,641 294,640 304,640 313,641 320,644 327,647 332,652 
		337,657 341,663 345,669 348,676 352,682 353,691 353,698 349,705 345,710 340,716 336,721 330,725 323,728 	"/>
	<polygon fill="#00FF00" stroke="#800080" points="330.133,429.724 328.164,430.381 321.696,429.826 319.24,429.502 
		312.441,426.802 307.847,422.995 303.847,416.995 303.748,410.033 306.147,404.014 308.999,398.744 313.986,393.362 
		317.531,391.656 320.944,390.474 325.34,389.01 332.34,387.01 336.565,382.204 342.472,376.822 349.626,372.509 357.626,374.509 
		362.626,379.509 361.626,388.509 360.626,397.509 358.356,402.682 355.468,408.196 352.58,413.315 347.982,420.27 341.816,424.604 
		338.982,426.464 331.245,429.513 	"/>
	<polygon fill="#00FF00" stroke="#800080" points="335.525,444.525 325.525,444.525 317.525,442.525 311.525,438.525 
		305.525,434.525 300.525,429.525 296.525,423.525 292.357,409.737 294.195,397.135 301.546,386.896 312.572,380.07 
		322.024,377.445 332.132,378.364 336.333,381.908 330.819,387.158 316.248,391.885 309.685,398.185 304.828,405.536 
		303.252,415.907 310.472,426.146 320.449,430.478 333.051,429.559 345.127,422.47 351.691,415.907 355.525,423.525 
		353.525,431.525 349.525,437.525 344.525,441.525 336.525,443.525 	"/>
	<polygon fill="#00FF00" stroke="#800080" points="329,629 320,628 315,623 309,619 305,613 302,606 301,597 303,589 307,582 
		311,577 316,571 321,566 326,562 332,558 341,556 348,559 354,563 359,568 362,575 363,584 361,592 359,599 355,606 351,612 
		347,617 342,622 336,626 	"/>
	<polygon fill="#00FF00" stroke="#800080" points="373,0 372,7 368,12 362,17 356,20 348,22 338,22 331,19 325,15 321,9 318,2 	"/>
	<polygon fill="#00FF00" stroke="#800080" points="365,341 355,341 347,339 340,336 334,332 329,327 326,320 323,313 323,303 
		325,295 329,288 334,284 341,281 349,278 358,277 366,279 373,282 379,286 385,290 389,296 390,305 388,313 386,321 383,328 
		378,333 373,337 366,340 	"/>
	<polygon fill="#00FF00" stroke="#800080" points="375,542 367,540 360,537 354,533 348,529 342,525 337,520 333,514 330,507 
		333,499 338,494 343,490 350,486 356,483 363,479 371,477 381,477 389,477 394,482 397,489 400,496 400,504 400,513 398,521 
		394,527 389,533 384,537 378,541 	"/>
	<polygon fill="#00FF00" stroke="#800080" points="356,1023 353,1016 354,1007 357,999 361,993 367,990 374,986 382,984 390,982 
		398,980 407,981 414,984 421,987 426,992 431,997 434,1004 435,1013 433,1020 	"/>
	<polygon fill="#00FF00" stroke="#800080" points="415,241 405,241 396,240 388,238 380,236 375,231 370,226 369,217 368,208 
		370,200 375,194 379,188 384,183 393,182 401,180 408,178 416,175 425,176 432,179 437,184 441,190 443,198 445,206 446,215 
		444,223 440,228 435,233 429,237 421,239 	"/>
	<polygon fill="#00FF00" stroke="#800080" points="428,718 418,718 409,717 402,714 396,710 391,705 388,698 386,690 387,680 
		389,673 393,667 398,661 403,657 410,653 417,651 426,649 434,651 442,653 448,657 453,662 456,669 459,676 460,685 459,694 
		456,701 452,706 446,710 439,713 432,716 	"/>
	<polygon fill="#00FF00" stroke="#800080" points="428,613 418,613 411,610 405,606 401,600 398,593 396,585 395,576 396,567 
		398,559 403,553 409,549 417,547 425,546 434,546 441,549 446,554 450,560 453,567 453,577 451,585 448,592 444,598 441,605 
		436,610 429,612 	"/>
	<polygon fill="#00FF00" stroke="#800080" points="483,351 473,351 463,351 455,349 448,346 442,342 437,337 433,331 431,323 
		430,314 430,306 433,299 437,292 442,288 449,284 457,284 465,286 471,290 476,295 482,299 487,304 491,310 495,316 498,323 
		498,333 495,340 491,346 485,350 	"/>
	<polygon fill="#00FF00" stroke="#800080" points="479,540 471,538 467,532 460,529 453,526 449,520 448,511 446,503 448,494 
		449,486 449,476 453,470 461,467 470,466 479,467 486,470 492,474 497,479 500,486 501,495 504,502 506,510 510,516 511,525 
		508,532 503,536 495,538 486,537 	"/>
	<polygon fill="#00FF00" stroke="#800080" points="526,945 517,944 508,943 501,942 495,938 489,934 484,929 479,924 471,922 
		467,916 463,910 459,904 457,896 457,887 458,879 461,872 465,866 470,861 477,857 484,854 493,853 503,853 511,855 517,859 
		523,863 528,868 532,874 535,881 539,887 541,895 544,902 547,909 547,917 545,925 542,932 537,937 532,942 	"/>
	<polygon fill="#00FF00" stroke="#800080" points="491,213 482,212 474,210 468,206 463,201 459,195 458,186 459,177 461,169 
		463,161 466,154 471,148 476,143 483,140 491,138 501,138 509,140 516,143 521,148 525,154 528,161 529,170 527,178 524,184 
		519,190 515,196 511,201 506,206 500,210 492,212 	"/>
	<polygon fill="#00FF00" stroke="#800080" points="510,651 501,650 494,647 488,643 484,637 480,631 478,623 478,613 479,604 
		482,596 486,590 491,585 498,582 507,581 514,584 519,589 522,596 525,603 528,610 531,617 532,626 530,633 526,640 521,644 
		515,648 	"/>
	<polygon fill="#00FF00" stroke="#800080" points="481,1023 484,1017 490,1013 495,1008 503,1006 512,1007 520,1009 526,1013 
		532,1017 534,1023 	"/>
	<polygon fill="#00FF00" stroke="#800080" points="518,449 509,448 502,445 496,441 492,435 489,428 486,421 485,412 487,404 
		490,396 494,390 498,385 504,381 511,377 519,375 529,375 537,377 544,380 549,385 553,391 556,398 557,407 555,415 553,423 
		550,429 545,435 540,440 534,443 527,446 519,448 	"/>
	<polygon fill="#00FF00" stroke="#800080" points="585,879 576,878 569,875 562,872 555,869 550,864 547,857 547,847 548,838 
		551,830 555,824 560,819 565,815 573,812 583,812 591,814 598,817 605,820 610,825 613,832 614,841 612,849 608,855 605,862 
		601,868 596,873 591,877 	"/>
	<polygon fill="#00FF00" stroke="#800080" points="590,597 580,597 571,596 563,594 558,589 553,584 550,577 549,568 550,559 
		553,552 558,546 564,543 574,542 583,543 590,546 597,549 605,551 612,554 616,560 617,569 616,578 614,586 610,591 603,595 
		595,596 	"/>
	<polygon fill="#00FF00" stroke="#800080" points="591,787 583,785 576,782 571,777 567,771 565,763 564,754 565,745 568,738 
		572,732 577,726 583,723 591,720 600,719 609,720 616,723 623,726 629,730 635,734 640,739 644,745 646,753 645,762 642,768 
		637,774 632,778 626,782 617,783 607,783 599,785 	"/>
	<polygon fill="#00FF00" stroke="#800080" points="585,1023 588,1018 593,1013 599,1008 604,1003 610,999 618,1001 624,1005 
		628,1011 631,1018 	"/>
	<polygon fill="#00FF00" stroke="#800080" points="650,971 640,971 633,968 627,964 623,958 622,949 618,943 614,937 610,931 
		610,922 614,916 619,911 628,910 636,912 644,914 653,915 660,916 665,921 670,926 674,932 675,941 675,951 675,960 670,966 
		662,967 654,969 	"/>
	<polygon fill="#00FF00" stroke="#800080" points="650,180 640,180 633,177 628,172 626,164 622,158 617,153 617,143 620,136 
		625,131 630,126 634,120 641,116 649,115 658,115 663,120 668,125 673.285,134.036 675.417,143.894 677.281,152.153 
		678.48,160.944 676,172 667,174 660,176 652,179 	"/>
	<polygon fill="#00FF00" stroke="#800080" points="674.217,138.965 673.152,132.305 683.268,127.866 691.268,127.866 
		697.268,131.866 703.268,135.866 705.268,143.866 706.268,152.866 703.268,159.866 698.268,164.866 693.268,168.866 
		677.148,169.736 679.013,160.545 676.749,151.087 675.949,144.427 	"/>
	<polygon fill="#00FF00" stroke="#800080" points="712,0 715,7 714,16 712,23 709,30 704,36 699,40 692,43 685,46 677,48 667,48 
		658,47 651,44 645,40 639,36 634,31 630,25 628,17 628,7 632,0 	"/>
	<polygon fill="#00FF00" stroke="#800080" points="696,672 688,670 681,667 677,661 673,655 669,649 665,643 662,636 663,627 
		666,620 672,615 679,612 686,610 695,608 703,608 711,608 719,610 726,613 731,618 734,625 737,632 738,641 737,649 733,656 
		729,661 722,665 716,668 708,670 699,671 	"/>
	<polygon fill="#00FF00" stroke="#800080" points="685,1023 680,1018 675,1013 673,1005 675,997 678,989 681,983 685,977 691,972 
		697,969 706,967 714,967 720,971 726,975 731,980 735,986 737,994 739,1002 741,1010 741,1020 	"/>
	<polygon fill="#00FF00" stroke="#800080" points="714,876 705,875 698,872 693,867 688,862 685,855 682,848 679,841 677,833 
		675,825 676,816 679,809 683,803 688,798 696,795 705,796 712,799 719,802 724,807 728,813 731,820 734,827 736,835 738,843 
		738,851 736,859 733,865 728,870 721,874 	"/>
	<polygon fill="#00FF00" stroke="#800080" points="785,798 776,797 770,793 766,787 763,780 762,771 761,762 761,752 764,745 
		769,740 775,735 781,732 790,730 798,732 805,735 813,737 818,742 821,749 823,757 824,766 823,774 818,780 811,783 804,786 
		799,790 793,794 786,797 	"/>
	<polygon fill="#00FF00" stroke="#800080" points="807,455 797,455 790,452 784,448 779,443 775,437 771,431 768,424 768,416 
		770,408 773,401 778,395 784,391 793,390 802,391 809,394 814,399 820,403 823,410 823,420 822,429 819,436 817,444 813,450 
		808,454 	"/>
	<polygon fill="#00FF00" stroke="#800080" points="874,301 865,300 860,295 855,290 848,287 842,283 836,279 831,274 826,269 
		822,263 819,256 820,247 823,240 828,234 835,231 842,228 851,229 859,231 865,235 871,239 878,242 883,247 886,254 888,262 
		889,270 887,279 887,289 883,295 878,299 	"/>
	<polygon fill="#00FF00" stroke="#800080" points="878,214 868,214 860,212 854,208 848,204 843,199 839,193 835,187 831,181 
		831,173 833,165 837,158 841,153 847,148 854,145 863,144 872,145 879,148 886,151 893,154 898,159 903,164 908,169 910,177 
		910,185 907,192 903,198 899,203 893,208 887,211 879,213 	"/>
	<polygon fill="#00FF00" stroke="#800080" points="911,0 910,7 905,12 899,15 892,18 882,18 873,17 865,15 858,12 853,7 849,1 	"/>
	<polygon fill="#00FF00" stroke="#800080" points="885,870 876,869 869,866 863,862 858,857 855,850 852,843 851,834 852,825 
		855,818 859,811 863,806 869,801 875,798 883,795 891,793 901,793 909,795 915,799 921,803 925,809 927,817 928,826 927,835 
		924,842 920,848 916,853 911,859 906,864 899,867 891,869 	"/>
	<polygon fill="#00FF00" stroke="#800080" points="858,1023 854,1017 852,1009 852,1001 855,993 858,986 862,981 868,976 874,972 
		881,969 889,969 896,972 903,975 909,979 913,985 917,991 920,998 922,1006 923,1015 921,1023 	"/>
	<polygon fill="#00FF00" stroke="#800080" points="915,502 905,502 898,499 891,496 885,492 880,487 875,482 871,476 868,469 
		865,462 863,454 863,444 866,437 869,430 874,424 879,420 886,417 895,415 904,416 911,419 917,423 924,426 929,431 932,438 
		936,444 940,450 942,458 943,467 943,476 941,485 937,491 932,495 925,498 918,501 	"/>
	<polygon fill="#00FF00" stroke="#800080" points="904,774 896,772 891,767 887,761 882,756 877,751 874,744 872,736 873,727 
		875,719 879,712 884,707 890,704 899,702 906,699 913,700 920,703 924,709 925,718 922,725 922,734 920,743 918,751 915,758 
		913,766 909,772 	"/>
	<polygon fill="#00FF00" stroke="#800080" points="958,965 949,964 943,960 939,954 936,947 935,938 936,929 939,922 943,916 
		950,912 957,909 966,908 975,909 981,913 985,919 987,927 988,936 988,946 985,953 981,959 975,962 967,964 	"/>
	<polygon fill="#00FF00" stroke="#800080" points="968,591 958,591 951,588 945,584 942,577 939,570 938,561 939,552 942,545 
		946,539 952,534 959,531 968,530 977,531 984,534 989,539 993,545 996,552 999,559 998,567 994,574 990,580 985,584 978,588 
		971,590 	"/>
	<polygon fill="#00FF00" stroke="#800080" points="1014,703 1004,703 996,701 988,699 981,696 975,692 970,687 967,680 966,671 
		968,662 972,656 977,651 983,648 993,647 1001,649 1008,652 1015,655 1022,658 1027,663 1030,670 1030,680 1029,689 1026,696 
		1021,700 	"/>
	<polygon fill="#00FF00" stroke="#800080" points="1022,828 1012,828 1003,827 996,824 991,819 987,813 982,808 979,801 975,795 
		973,787 973,777 974,768 977,761 982,756 989,752 997,750 1006,749 1013,750 1023,750 1031,750 1038,753 1044,757 1050,761 
		1054,767 1058,773 1060,781 1062,789 1062,798 1059,805 1054,811 1049,815 1043,819 1036,823 1029,825 	"/>
	<polygon fill="#00FF00" stroke="#800080" points="1031,471 1021,471 1013,469 1006,466 1000,462 994,458 990,452 986,446 984,438 
		985,428 987,421 991,415 996,409 1002,405 1009,402 1018,401 1027,402 1034,405 1041,408 1046,413 1050,419 1053,426 1055,434 
		1056,443 1055,452 1052,458 1047,463 1041,467 1034,470 	"/>
	<polygon fill="#00FF00" stroke="#800080" points="1035.307,218.348 1023.221,211.78 1015,201 1016,192 1021,186 1027,183 1041,176 
		1049,178 1055,182 1064,193 1066,201 1065,210 1061,215 1051.596,219.662 	"/>
	<polygon fill="#00FF00" stroke="#800080" points="1059.474,256.262 1049.474,256.262 1041.474,254.262 1034.474,251.262 
		1026.474,249.262 1020.474,245.262 1015.474,240.262 1010.474,235.262 1006.474,229.262 1005.474,221.262 1006.474,212.262 
		1014.834,204.166 1022.695,211.517 1031.334,216 1043.167,219.333 1055.272,218.61 1057.474,223.262 1062.474,228.262 
		1068.474,232.262 1072.474,238.262 1070.474,246.262 1066.474,252.262 1060.474,255.262 	"/>
	<polygon fill="#00FF00" stroke="#800080" points="1011,1023 1008,1016 1006,1008 1008,1000 1012,994 1017,988 1021,983 1028,979 
		1037,980 1045,980 1052,983 1059,986 1063,992 1065,1000 1067,1008 1069,1016 1066,1022 	"/>
	<polygon fill="#00FF00" stroke="#800080" points="1054,936 1044,936 1035,935 1029,931 1024,926 1022,918 1019,911 1020,901 
		1022,894 1024,886 1029,880 1034,876 1040,872 1047,868 1054,865 1063,864 1070,867 1076,871 1080,877 1083,884 1084,893 1083,902 
		1080,909 1077,915 1073,921 1069,927 1063,932 1057,935 	"/>
	<polygon fill="#00FF00" stroke="#800080" points="1068,75 1058,75 1050,73 1043,70 1037,66 1032,61 1027,56 1023,50 1021,42 
		1021,32 1024,25 1028,19 1033,14 1040,10 1047,7 1056,6 1066,6 1074,8 1081,11 1087,15 1092,20 1096,26 1099,33 1099,43 1097,51 
		1094,57 1090,63 1084,68 1078,71 1071,74 	"/>
	<polygon fill="#00FF00" stroke="#800080" points="1068,602 1059,601 1053,597 1048,592 1043,587 1041,579 1040,570 1039,561 
		1043,554 1048,550 1054,546 1057,539 1060,532 1067,528 1075,526 1084,527 1092,529 1097,534 1100,541 1102,549 1102,557 1100,565 
		1097,572 1095,580 1092,587 1086,590 1080,595 1074,599 	"/>
	<polygon fill="#00FF00" stroke="#800080" points="1081,380 1071,380 1064,377 1058,373 1054,367 1051,360 1050,351 1048,343 
		1048,333 1051,325 1054,319 1059,314 1065,309 1071,306 1079,303 1088,302 1095,305 1101,309 1105,315 1109,321 1112,328 1114,336 
		1114,344 1111,351 1110,359 1106,366 1102,371 1096,375 1088,378 	"/>
	<polygon fill="#00FF00" stroke="#800080" points="1121,862 1113,860 1107,856 1103,850 1098,845 1092,841 1087,836 1084,829 
		1082,821 1084,813 1087,806 1092,801 1099,797 1107,795 1116,794 1124,794 1131,797 1136,802 1139,809 1143,815 1145,823 1146,832 
		1144,840 1141,847 1137,853 1132,857 1125,861 	"/>
	<polygon fill="#00FF00" stroke="#800080" points="1139,494 1131,492 1124,489 1117,486 1111,482 1107,476 1104,469 1102,461 
		1105,454 1111,449 1118,447 1127,445 1135,444 1144,442 1153,443 1161,445 1166,450 1169,457 1171,465 1171,473 1168,480 1164,485 
		1158,489 1150,492 1142,493 	"/>
	<polygon fill="#00FF00" stroke="#800080" points="1176,227 1166,227 1157,226 1149,224 1141,222 1134,219 1129,214 1124,209 
		1121,202 1118,195 1116,187 1118,179 1122,172 1127,167 1133,163 1139,159 1146,156 1154,155 1163,155 1172,156 1179,159 1185,163 
		1190,168 1195,173 1198,180 1200,188 1200,198 1199,206 1195,213 1191,218 1185,223 1179,226 	"/>
	<polygon fill="#00FF00" stroke="#800080" points="1130,1023 1125,1018 1120,1013 1118,1005 1116,997 1117,988 1120,980 1124,975 
		1128,969 1134,964 1142,962 1148,966 1153,971 1160,974 1167,977 1172,982 1176,988 1180,994 1182,1002 1181,1011 1178,1018 
		1173,1023 	"/>
	<polygon fill="#00FF00" stroke="#800080" points="1176,772 1166,772 1156,772 1150,768 1145,763 1141,757 1137,751 1136,742 
		1137,733 1140,725 1143,718 1147,713 1154,710 1162,707 1170,707 1178,709 1184,713 1190,717 1193,724 1196,731 1197,740 1196,749 
		1194,757 1190,763 1185,767 1179,771 	"/>
	<polygon fill="#00FF00" stroke="#800080" points="1214,875 1207,872 1202,867 1198,861 1194,855 1191,848 1188,841 1185,834 
		1186,825 1188,817 1192,810 1196,805 1201,800 1207,795 1214,792 1222,792 1230,794 1235,799 1240,804 1243,811 1245,819 1248,826 
		1250,834 1253,841 1252,849 1249,856 1245,862 1239,867 1233,870 1226,873 1217,874 	"/>
	<polygon fill="#00FF00" stroke="#800080" points="1268,692 1259,691 1249,691 1240,690 1233,687 1226,684 1220,680 1213,677 
		1206,674 1201,669 1197,663 1197,653 1197,645 1199,637 1203,630 1208,625 1214,621 1220,617 1229,616 1237,616 1245,618 1252,621 
		1257,626 1263,630 1269,634 1275,638 1279,644 1282,651 1283,660 1282,669 1281,678 1278,685 1273,690 	"/>
	<polygon fill="#00FF00" stroke="#800080" points="1204,1023 1200,1017 1197,1010 1200,1002 1205,997 1210,992 1216,988 1223,985 
		1233,985 1240,988 1248,990 1256,992 1260,998 1262,1006 1263,1015 1261,1022 	"/>
	<polygon fill="#00FF00" stroke="#800080" points="1276,167 1266,167 1258,165 1252,161 1247,156 1243,150 1238,145 1235,138 
		1232,131 1232,121 1236,114 1242,110 1250,108 1259,107 1267,109 1276,110 1283,113 1289,117 1294,122 1299,127 1303,133 1305,141 
		1305,151 1301,157 1296,162 1290,165 1281,166 	"/>
	<polygon fill="#00FF00" stroke="#800080" points="1267,790 1257,790 1250,787 1244,783 1238,779 1235,772 1233,764 1232,755 
		1234,746 1236,739 1240,733 1245,727 1252,724 1259,722 1268,720 1277,721 1282,726 1285,733 1288,740 1293,745 1300,748 1303,755 
		1304,764 1301,771 1297,777 1291,781 1285,784 1277,786 1270,789 	"/>
	<polygon fill="#00FF00" stroke="#800080" points="1359,562 1352,563 1344,561 1336,559 1329,556 1323,552 1317,548 1313,542 
		1310,535 1310,527 1312,519 1315,512 1320,506 1325,502 1332,498 1339,495 1349,495 1357,497 	"/>
	<polygon fill="#00FF00" stroke="#800080" points="1359,883 1352,886 1345,883 1340,878 1335,873 1331,867 1329,859 1328,850 
		1330,842 1332,834 1334,825 1337,818 1340,812 1345,806 1351,802 1358,801 	"/>
	<polygon fill="#00FF00" stroke="#800080" points="0,757 6,754 16,753 25,754 32,757 38,761 44,765 48,771 52,777 55,784 57,792 
		59,800 59,810 58,818 56,826 53,833 48,838 41,842 34,842 25,843 15,843 8,840 2,836 	"/>
	<polygon fill="#00FF00" stroke="#800080" points="46,929 37,928 30,925 23,922 18,917 14,911 10,905 7,898 6,889 6,879 8,870 
		11,863 14,857 19,852 27,849 37,849 46,850 54,852 58,858 63,863 67,869 70,876 73,883 74,892 73,901 71,908 67,915 63,920 57,925 
		51,928 	"/>
	<polygon fill="#00FF00" stroke="#800080" points="496,0 500,6 501,15 498,22 494,27 488,32 482,35 475,39 467,40 458,41 450,39 
		443,36 437,32 431,28 426,23 423,16 420,9 421,1 	"/>
</g>
</svg>
