<?xml version="1.0" encoding="utf-8"?>
<!-- Generator: Adobe Illustrator 16.0.1, SVG Export Plug-In . SVG Version: 6.00 Build 0)  -->
<!DOCTYPE svg PUBLIC "-//W3C//DTD SVG 1.1//EN" "http://www.w3.org/Graphics/SVG/1.1/DTD/svg11.dtd">
<svg version="1.1" id="Layer_1" xmlns="http://www.w3.org/2000/svg" xmlns:xlink="http://www.w3.org/1999/xlink" x="0px" y="0px"
	 width="1360px" height="1024px" viewBox="0 0 1360 1024" enable-background="new 0 0 1360 1024" xml:space="preserve">
<g id="Raw_image">
	
		<image overflow="visible" enable-background="new    " width="1360" height="1024" xlink:href="normal_37.jpg"  transform="matrix(1 0 0 1 2.441406e-004 -2.441406e-004)">
	</image>
</g>
<g id="Not_annotated" display="none" opacity="0.5">
</g>
<g id="Clumps" display="none" opacity="0.5">
	<polygon display="inline" fill="#FF0000" stroke="#800080" points="0,400 4,394 8,389 13,384 18,379 24,375 31,372 39,369 48,368 
		57,369 64,372 70,376 76,380 82,384 84,392 86,400 86,408 85,416 82,423 81,430 75,434 71,440 65,444 59,448 52,451 44,454 37,456 
		27,456 21,452 15,448 9,444 3,440 	"/>
	<polygon display="inline" fill="#FF0000" stroke="#800080" points="238,652 234,648 229,643 223,639 217,635 212,630 208,624 
		204,618 201,611 198,604 198,594 198,584 195,577 188,574 180,572 173,569 167,565 161,561 156,556 153,549 149,543 147,535 
		146,526 147,516 147,507 145,499 138,496 130,494 121,493 114,490 108,486 102,482 98,476 94,470 92,462 90,454 92,446 95,439 
		100,433 107,430 115,428 124,427 133,428 140,431 146,435 151,440 154,447 158,453 162,459 167,464 172,469 176,475 182,479 
		189,476 191,469 191,459 192,450 195,442 198,436 203,430 208,426 215,422 223,420 232,419 241,420 249,422 255,426 260,431 
		263,438 264,447 267,454 264,461 260,467 256,472 251,477 245,482 240,486 235,492 231,491 226,491 226,499 232,503 232,509 
		235,516 237,524 238,533 234,538 232,547 235,554 241,558 249,560 257,562 264,565 270,569 275,574 278,581 280,589 286,591 
		291,595 288,602 285,610 283,618 280,625 276,631 272,637 268,642 261,646 254,649 246,650 	"/>
	<polygon display="inline" fill="#FF0000" stroke="#800080" points="208,758 200,756 196,750 195,743 194,734 193,727 189,721 
		184,716 180,710 177,703 175,695 177,686 180,680 185,674 190,669 198,667 207,666 215,668 223,670 230,673 237,676 244,679 
		250,681 252,689 254,697 255,706 256,715 258,723 255,729 254,737 250,742 242,742 236,746 230,750 222,752 214,754 209,757 	"/>
	<polygon display="inline" fill="#FF0000" stroke="#800080" points="1243,616 1233,616 1231,610 1226,615 1222,612 1225,608 
		1220,603 1219,597 1220,589 1222,581 1224,572 1227,566 1231,560 1237,555 1244,553 1250,548 1255,544 1256,535 1254,527 1251,520 
		1247,514 1245,506 1246,496 1248,488 1251,482 1257,477 1262,472 1267,468 1273,463 1280,460 1289,459 1298,460 1305,463 1312,466 
		1318,470 1325,471 1330,476 1333,483 1335,491 1335,501 1333,508 1330,516 1326,522 1322,528 1317,533 1312,538 1304,537 1297,534 
		1291,539 1293,545 1296,552 1298,560 1298,568 1296,575 1293,582 1288,588 1284,594 1279,599 1274,603 1268,608 1262,611 1254,614 
		1246,615 	"/>
	<polygon display="inline" fill="#FF0000" stroke="#800080" points="162,903 152,903 143,902 137,898 132,893 127,888 123,882 
		119,876 116,869 114,861 114,851 116,843 119,836 122,829 127,823 132,819 137,814 143,810 150,806 158,804 167,803 176,804 
		183,807 190,810 195,815 200,820 205,825 210,830 212,836 211,845 211,853 210,862 207,869 204,876 200,881 195,886 189,891 
		183,894 176,898 169,901 	"/>
	<polygon display="inline" fill="#FF0000" stroke="#800080" points="75,598 66,597 58,595 55,588 48,585 43,580 38,575 34,569 
		31,562 29,554 28,545 29,536 31,527 34,521 38,515 44,510 50,506 57,503 66,502 76,502 84,504 91,507 96,512 101,517 104,524 
		107,531 109,539 110,548 112,556 110,564 108,572 108,579 102,584 98,589 92,594 85,596 76,597 	"/>
	<polygon display="inline" fill="#FF0000" stroke="#800080" points="325,464 315,464 308,461 302,459 297,454 291,450 285,446 
		280,441 275,436 271,430 270,421 271,411 272,402 274,395 277,388 281,382 285,375 282,369 272,369 264,367 257,364 252,359 
		247,354 243,348 239,342 237,334 235,326 236,316 238,309 242,302 246,297 251,292 257,288 264,284 273,283 282,284 290,286 
		296,290 301,295 305,301 308,308 308,318 310,326 312,334 310,342 306,347 303,355 298,360 296,366 304,368 312,370 320,372 
		327,375 333,379 338,384 343,389 347,395 350,402 353,409 356,416 357,425 360,432 364,438 360,443 355,449 350,454 344,458 
		338,461 330,463 	"/>
</g>
<g id="Single_nuclei" opacity="0.5">
	<polygon fill="#00FF00" stroke="#800080" points="0,694 3,699 6,706 9,713 12,720 16,726 16,734 18,742 16,750 14,757 10,764 
		5,769 0,771 	"/>
	<polygon fill="#00FF00" stroke="#800080" points="33,1023 29,1017 26,1010 26,1000 27,991 30,984 34,978 40,973 46,969 53,967 
		61,964 70,963 77,966 84,969 90,973 95,978 98,985 100,993 101,1002 100,1011 97,1017 90,1020 	"/>
	<polygon fill="#00FF00" stroke="#800080" points="139,679 129,679 122,676 117,671 113,665 109,659 106,652 104,644 103,635 
		103,625 105,617 107,609 110,602 115,596 119,591 125,587 133,584 142,583 151,584 157,588 162,593 166,599 169,606 172,613 
		174,621 175,628 176,635 174,643 171,650 168,657 164,663 159,668 154,672 147,676 140,678 	"/>
	<polygon fill="#00FF00" stroke="#800080" points="197,76 187,76 178,75 171,72 167,66 162,61 157,56 154,49 152,41 152,33 155,25 
		159,19 164,15 171,11 178,9 187,7 197,7 206,8 213,11 219,15 225,19 229,25 231,33 231,43 230,52 227,59 223,65 218,70 212,74 
		204,75 	"/>
	<polygon fill="#00FF00" stroke="#800080" points="259,166 250,165 241,164 235,160 232,153 227,148 223,142 220,135 217,128 
		216,119 216,111 217,102 219,94 223,87 229,83 238,82 247,83 254,86 260,90 266,94 270,100 275,105 279.857,109.226 284,116 
		285,125 285,135 285,145 282,152 278,157 272,161 265,164 	"/>
	<polygon fill="#00FF00" stroke="#800080" points="306,737 296,737 290,733 285,728 279,724 274,719 270,713 267,706 265,698 
		267,689 269,682 272,675 276,669 281,664 287,659 293,655 300,653 310,652 318,654 324,658 328,664 333,669 338.145,671.723 
		342,676 343,685 343,695 342,704 339,711 335,717 331,722 326,727 320,732 314,735 	"/>
	<polygon fill="#00FF00" stroke="#800080" points="339,599 329,599 320,598 314,594 309,589 302,586 296,582 290,578 285,573 
		281,567 278,560 276,552 275,543 276,533 277,525 280,518 285,512 290,508 297,504 304,501 312,500 322,499 331,500 339,502 
		346,505 352,509 357,514 362,519 366,525 370,531 375,536 378,543 379,552 378,561 376,569 374,577 370,583 367,589 360,592 
		353,595 345,597 	"/>
	<polygon fill="#00FF00" stroke="#800080" points="318,904 308,904 299,903 293,899 289,893 285,887 281,881 278,874 277,865 
		278,856 280,848 284,841 288,836 293,830 298,826 306,823 314,821 322,821 330,823 335,828 340,833 344,839 347,846 352,851 
		353,860 352,868 349,876 346,883 342,889 338,894 332,898 325,902 	"/>
	<polygon fill="#00FF00" stroke="#800080" points="321.062,287.03 317,286 310,283 305,278 300,273 298,265 297,256 298,247 
		299,238 301,230 305,223 309,218 315,214 323,211 332,210 340,212 347,215 352,220 356,226 357,235 361,241 363,247 363,257 
		361,264 358,272 354,278 348,281 340,283 332,285 327.651,286.152 	"/>
	<polygon fill="#00FF00" stroke="#800080" points="379,365 369,365 360,364 354,360 348,356 343,351 338,346 335,339 333,331 
		334,322 337,315 341,309 346,303 352,299 359,296 368,295 378,295 386,297 393,300 399,304 404,309 408.251,312.286 414,319 
		415,328 414,337 411,344 407,350 402,355 396,359 390,362 382,364 	"/>
	<polygon fill="#00FF00" stroke="#800080" points="407,664 398,663 388,663 381,660 376,655 371,650 369,642 367,634 368,625 
		369,615 371,607 375,601 381,597 389,595 398,596 407,597 414,600 419,605 424,610 429,615 433,621 436,628 435,637 433,645 
		430,651 425,656 419,660 412,663 	"/>
	<polygon fill="#00FF00" stroke="#800080" points="421,466 412,465 403,464 398,459 393,454 387,450 383,444 379,438 376,431 
		375,422 377,414 381,408 386,402 392,398 399,395 408,394 417,395 424,398 430,402 434,408 438,414 441,421 443.342,426.049 
		445.995,434.274 447,443 444,449 440,455 435,460 428,463 	"/>
	<polygon fill="#00FF00" stroke="#800080" points="383,1023 384,1016 388,1009 391,1003 396,997 401,992 408,989 417,988 426,989 
		432,993 437,998 443,1002 446,1009 450,1015 450,1023 	"/>
	<polygon fill="#00FF00" stroke="#800080" points="455,834 446,833 440,829 433,826 428,821 422,817 418,811 415,804 416,794 
		418,786 421,780 427,775 434,772 442,770 451,771 459,773 465,777 471,781 476,786 481,791 483,799 483,809 480,816 476,822 
		471,827 465,831 458,833 	"/>
	<polygon fill="#00FF00" stroke="#800080" points="476,0 473,4 466,7 458,9 448,9 441,6 433,4 425,2 	"/>
	<polygon fill="#00FF00" stroke="#800080" points="483,407 474,406 467,403 461,399 456,394 452,388 449,381 447,373 446,364 
		448,356 451,349 455,343 460,337 465,333 471,329 478,326 487,326 494,329 500,333 505,338 510,343 514,349 519,354 523,360 
		524,369 523,378 520,385 516,390 511,395 505,400 499,403 491,406 	"/>
	<polygon fill="#00FF00" stroke="#800080" points="487.121,320.182 481,319 475,315 469,311 465,305 461,299 458,292 456,284 
		458,276 461,269 466,264 472,259 479,256 487,254 495,254 503,256 510,259 515,264 520,269 524,275 527,282 528,291 526,299 
		523,306 518,311 513,315 507.021,315.937 500,318 492,320 	"/>
	<polygon fill="#00FF00" stroke="#800080" points="499,153 490,152 481,151 474,148 470,142 466,136 462,130 461,122 464,115 
		469,110 474,105 479,101 485,97 492,93 499,90 507,88 517,88 525,90 531,94 536,99 539,106 540,115 538,123 535,130 531,136 
		526,141 520,145 514,148 507,151 	"/>
	<polygon fill="#00FF00" stroke="#800080" points="505,517 495,517 489,513 482,512 477,507 473,501 471,493 470,484 471,475 
		474,468 478,461 482,456 487,450 492,446 499,442 506,439 514,437 524,437 532,439 539,442 545,446 550,451 553,458 553,468 
		552,477 550,484 546,491 542,496 536,501 531,505 525,509 519,513 511,515 	"/>
	<polygon fill="#00FF00" stroke="#800080" points="487,1023 490,1017 495,1012 500,1007 506,1004 513,1001 522,999 531,998 541,998 
		549,1000 555,1004 559,1010 563,1016 562,1023 	"/>
	<polygon fill="#00FF00" stroke="#800080" points="586,977 576,977 567,976 561,972 557,966 553,960 549,954 546,947 544,939 
		545,930 548,923 552,916 556,911 561,906 568,902 575,900 584,898 593,899 600,902 606,906 610,912 615,917 616,926 616,936 
		615,945 613,952 609,959 605,965 600,970 594,974 587,976 	"/>
	<polygon fill="#00FF00" stroke="#800080" points="657.551,407 647.551,407 642,406 634,404 627,401 623,395 618,390 612,386 
		607,381 603,375 600,368 598,360 598,350 601,342 605,337 611,332 617,328 624,325 632,323 641,322 650,321 659,322 667,324 
		675,326 681,330 686,335 689,342 694,347 696,355 698,363 697,372 696,380 692,387 688,393 683,398 678,402 671,405 662,406 	"/>
	<polygon fill="#00FF00" stroke="#800080" points="716,530 706,530 697,529 689,527 685,521 681,515 677,509 676,500 675,491 
		677,483 680,475 683,469 689,464 696,461 704,459 713,460 721,462 726,467 731,472 734,479 737,486 737,496 736,505 733,512 
		730,519 726,524 720,528 	"/>
	<polygon fill="#00FF00" stroke="#800080" points="717,1015 707,1015 699,1013 693,1009 688,1004 684,998 683,989 685,981 690,975 
		695,970 700,966 709,964 718,965 726,963 734,962 742.348,961.611 750,961 758,963 764,967 767,974 767,984 764,991 760,996 
		754,1000 745,1001 739,1005 732,1009 726,1012 718,1014 	"/>
	<polygon fill="#00FF00" stroke="#800080" points="760,826 750,826 743,823 736,820 731,815 725,811 720,806 715,801 709,797 
		703,793 699,787 696,780 696,772 698,764 701,756 705,750 710,745 716,742 723,738 730,735 738,733 748,733 757,734 764,737 
		771,740 775,746 780,751 783,758 786,765 787,774 787,784 786,793 784,801 780,807 777,813 772,819 767,823 	"/>
	<polygon fill="#00FF00" stroke="#800080" points="743.109,609.026 736,609 729,606 724,601 719.663,595.459 717,588 
		715.141,580.464 716.331,572.967 717.997,566.064 722.758,560.232 728,557 732,551 737,546 743,541 751,539 760,540 766,544 
		771,549 774,556 774,565 774,572 773,580 769,587 766,593 762,599 757,604 750,607 	"/>
	<polygon fill="#00FF00" stroke="#800080" points="780,463 771,462 764,459 759,454 753,450 748,445 744,439 741,432 740,423 
		743,415 746,409 751,403 757,399 764,396 773,397 780,400 786,404 791,409 795,415 798,422 801,429 803,437 802,445 798,452 
		794,457 787,461 	"/>
	<polygon fill="#00FF00" stroke="#800080" points="811,704 801,704 794,701 789,696 784,691 781,684 779,676 780,667 783,660 
		788,654 794,650 799,646 805,641 808,634 815,631 823,632 830,634 835,639 839,645 842,652 841.62,660.034 839,666 
		836.186,672.576 835,681 833,687 829,692 824,697 818,701 	"/>
	<polygon fill="#00FF00" stroke="#800080" points="830,598 820,598 812,596 806,592 801,587 798,580 797,571 794,564 792,556 
		791,547 792,538 795,531 800,526 806,521 813,518 821,516 829,518 835,522 841,526 846,531 852,535 855,542 856,551 856,560 
		854,569 852,576 848,583 843,588 838,593 832,597 	"/>
	<polygon fill="#00FF00" stroke="#800080" points="824.376,1021.688 814,1020 806,1018 801,1013 798,1006 797,997 799,989 802,982 
		806,976 811,970 818,967 825,964 834,963 843,964 851,966 857,970 861,976 864,983 864,993 862,1001 859,1007 854,1013 849,1018 
		842,1020 834,1022 	"/>
	<polygon fill="#00FF00" stroke="#800080" points="872,393 862,393 853,392 846,389 840,385 836,379 831,374 827,368 824,361 
		822,353 822,343 821.705,338.531 821.705,334.936 822,331 823,322 823,314 825,306 829,300 833,294 838,289 845,285 
		852.016,284.333 861,283 869,283 875,287 880,292 884,298 886,306 887.463,312.845 889.004,321.578 889,331 890,338 892,346 
		893,355 893,365 891,373 888,379 884,385 879,390 	"/>
	<polygon fill="#00FF00" stroke="#800080" points="929,952 919,952 911,950 904,949 896,947 889,944 883,940 877,936 873,930 
		870,923 870,915 871,906 874,899 878,892 882,886 887,882 894,879 901,876 908,872 917,873 923,877 929,881 936,884 943,887 
		949,891 956,894 961,899 964,906 966,914 965,923 963,930 959,936 953,941 947,944 940,947 933,950 	"/>
	<polygon fill="#00FF00" stroke="#800080" points="916,509 907,508 897,508 890,505 885,500 880,495 877,488 875,480 875,470 
		876,461 878,453 883,448 893,447 901,449 910,448 918,446 924,450 929,455 934,460 938,466 939,475 939,485 936,492 933,499 
		929,504 922,507 	"/>
	<polygon fill="#00FF00" stroke="#800080" points="902.82,1024 904,1016 910,1011 916,1007 925,1006 933,1008 940,1011 947,1014 
		954,1017 958.399,1024 	"/>
	<polygon fill="#00FF00" stroke="#800080" points="1003,1013 994,1012 986,1010 981,1005 978,998 979,989 980,980 981,970 983,962 
		987,956 993,952 1000,949 1009,948 1017,950 1026,951 1036,951 1043,954 1049,958 1054,963 1057,970 1058,978 1055,986 1052,993 
		1048,998 1043,1003 1036,1006 1027,1008 1019,1009 1011,1011 	"/>
	<polygon fill="#00FF00" stroke="#800080" points="1030,676 1021,675 1012,674 1004,674 998,670 994,664 990,658 986,652 984,644 
		983,635 986,627 989,621 993,615 997,609 1003,604 1013,604 1022,605 1028,609 1033,614 1038,619 1041,626 1043,634 1044,643 
		1044,652 1041,660 1038,667 1034,673 	"/>
	<polygon fill="#00FF00" stroke="#800080" points="1037,783 1027,783 1019,781 1012,778 1007,773 1002,768 999,761 997,753 998,743 
		1000.76,736.247 1005.064,729.129 1009,726 1014.665,722.176 1019.466,716.879 1025,712 1030,710 1038,707 1046,707 1054,705 
		1063,706 1070,709 1076,713 1080,719 1082,727 1083,736 1082,745 1079,752 1075,758 1071,763 1065,768 1060,773 1054,777 1047,780 
		1040,782 	"/>
	<polygon fill="#00FF00" stroke="#800080" points="1134,515 1124,515 1115,514 1108,511 1101,508 1096,503 1091,498 1086,493 
		1082,487 1080,479 1080,469 1082,460 1084,453 1089,447 1094,443 1101,439 1108,437 1116,435 1126,434 1134,436 1142,438 1149,441 
		1154,446 1159,451 1163,457 1167,463 1170,470 1172,478 1171,486 1168,494 1164,500 1159,505 1154,509 1147,512 1139,514 	"/>
	<polygon fill="#00FF00" stroke="#800080" points="1126,914 1116,914 1110,910 1105,905 1099,901 1094,896 1090,890 1087,883 
		1084,876 1082,868 1082,858 1084,849 1088,844 1094,840 1102,838 1111,838 1118,841 1124,845 1131,848 1136,853 1140,859 1145,864 
		1148,871 1148,881 1147,890 1145,897 1140,903 1135,908 1130,912 	"/>
	<polygon fill="#00FF00" stroke="#800080" points="1146,369 1137,368 1129,366 1122,363 1117,358 1112,353 1106,349 1101,344 
		1097,338 1095,330 1095,320 1095,310 1097,302 1102,297 1110,294 1119,295 1127,297 1134,300 1141,303 1149,305 1156,308 1160,314 
		1164,320 1167,327 1167,337 1166,346 1163,353 1159,359 1154,364 1148,368 	"/>
	<polygon fill="#00FF00" stroke="#800080" points="1189,995 1180,994 1173,991 1168,986 1163,981 1157,977 1153,971 1151,963 
		1149,955 1150,946 1154,940 1160,935 1165,930 1171,927 1179,924 1186,922 1196,921 1202,925 1205,932 1207,940 1209,948 1210,956 
		1209,964 1213,970 1215,978 1213,986 1208,990 1201,993 1192,994 	"/>
	<polygon fill="#00FF00" stroke="#800080" points="1207.445,259.434 1202.361,259.117 1195.053,255.304 1190,252 1185,247 1180,242 
		1176,236 1173,229 1171,221 1172,212 1175,205 1180,199 1186,195 1193,192 1202,191 1210,193 1217,196 1223,200 1228,205 1231,212 
		1233,220 1234,229 1232,237 1229,244 1226,250 1221,255 1215,259 	"/>
	<polygon fill="#00FF00" stroke="#800080" points="1259,376 1249,376 1243,372 1238,367 1233,362 1228,357 1224,351 1221,344 
		1219,336 1217,328 1215,320 1214,311 1216,302 1218,295 1222,289 1228,284 1235,281 1245,281 1253,283 1260,286 1266,290 1271,295 
		1276,300 1280,306 1284,312 1287,319 1289.763,325.951 1291,335 1290,344 1288,352 1285,358 1281,364 1276,369 1269,373 1262,375 	
		"/>
	<polygon fill="#00FF00" stroke="#800080" points="1284,718 1275,717 1267,715 1261,711 1255,707 1251,701 1247,695 1244,688 
		1242,680 1243,671 1244,662 1246,653 1250,647 1255,643 1262,639 1270,637 1279,638 1287,640 1295,642 1301,646 1306,651 1310,657 
		1313,664 1316,671 1316,681 1315,689 1312,697 1308,703 1304,708 1299,713 1292,716 	"/>
	<polygon fill="#00FF00" stroke="#800080" points="1299,244 1290,243 1283,240 1277,236 1272,231 1267,226 1265,218 1264,209 
		1265,199 1267,192 1271,185 1275,180 1281,175 1288,172 1296,174 1303,177 1310,180 1315,185 1320,190 1325,195 1328,202 1329,211 
		1328,220 1325,227 1321,233 1316,237 1310,241 1302,243 	"/>
	<polygon fill="#00FF00" stroke="#800080" points="1322,118 1312,118 1304,116 1298,112 1292,108 1287,103 1282,98 1278,92 1274,86 
		1272,78 1274,69 1276,62 1280,56 1285,50 1290,46 1296,42 1304,39 1313,40 1320,43 1325,48 1330,53 1336,57 1342,61 1346,67 
		1349,74 1353,80 1353,88 1351,96 1347,101 1342,106 1336,110 1330,114 1323,117 	"/>
	<polygon fill="#00FF00" stroke="#800080" points="1322,1014 1313,1013 1307,1009 1301,1005 1297,999 1293,993 1290,986 1287,979 
		1288,970 1291,963 1296,958 1302,953 1311,952 1317,949 1324,945 1331,945 1338,943 1345,944 1350,949 1352,957 1353,966 1353,974 
		1352,983 1350,991 1346,997 1341,1002 1336,1006 1330,1010 1323,1013 	"/>
	<polygon fill="#00FF00" stroke="#800080" points="1360,334.988 1352,336 1346,332 1340,328 1337,321 1334,314 1332,306 1334,297 
		1337,291 1342,285 1349,282 1360,281.197 	"/>
	<polygon fill="#00FF00" stroke="#800080" points="1359,651 1352,650 1347,645 1343,639 1341,631 1341,622 1343,615 1347,608 
		1350,601 1353,595 1359,592 	"/>
	<polygon fill="#00FF00" stroke="#800080" points="0,420 2,413 5,406 9,399 13,394 18,388 22,383 29,380 37,377 44,374 53,375 
		63,375 72,376 78,380 81,387 83,395 82,403 80,412 79,421 75,427 71,432 66,438 60,442 54,446 48,449 40,452 32,453 23,452 14,451 
		9,446 4,441 0,435 	"/>
	<polygon fill="#00FF00" stroke="#800080" points="68,591 59,590 51,588 45,584 41,578 37,572 34,565 33,556 32,547 33.12,537.452 
		33.735,529.457 37,522 43.083,516.419 48.618,512.36 55.137,508.424 63,507 73,507 82,508 89,511 95,515 100,520 104,526 107,533 
		110,540 110,550 110,560 108,567 105,575 101,580 97,586 89,588 80,589 75.064,589.851 	"/>
	<polygon fill="#00FF00" stroke="#800080" points="144.32,496.138 139,495 131,493 122,492 115,489 109,485 103,481 99,475 95,469 
		93,461 92,452 94,444 98,437 104,433 111,430 119,428 129,428 136,431 143,434 148,439 152,445 155,452 159,458 164,463 169,468 
		173,474 172.222,480.636 167.744,485.229 162.347,489.363 157,493 149,496 	"/>
	<polygon fill="#00FF00" stroke="#800080" points="224,486 214,486 207,483 200,480 195,475 192,468 191,459 192,450 195,442 
		198,436 203,430 208,426 215,422 223,420 232,419 241,420 249,422 255,426 259,432 262,439 264,447 263,456 261,464 257,469 
		251,474 245,478 239,482 232,485 	"/>
	<polygon fill="#00FF00" stroke="#800080" points="243.433,646.467 237.513,646.072 231,643 224,640 218,636 213,631 209,625 
		205,619 201,613 199,605 198,596 200.813,586.877 203,581 208,576 214,571 220,567 227,564 233,561 241,558 249,560 257,562 
		264,565 269,570 274,575 278,581 279.74,588.456 279.74,598.716 280.134,605.425 281.318,611.739 280,617 278,625 274,630 268,634 
		263,639 257,643 250,646 	"/>
	<polygon fill="#00FF00" stroke="#800080" points="195,573 185,573 177,571 171,567 165,563 160,558 155,553 151,547 148,540 
		147,531 146,522 147,513 149,505 154,499 159,495 164,490 170,485 176,481 185,480 194,481 201,484 208,487 215,490 221,494 
		226,499 230,505 233,512 235,520 237,528 236,536 232,543 230,550 225,556 220,560 214,564 207,568 201,571 	"/>
	<polygon fill="#00FF00" stroke="#800080" points="161,900 151,900 142,899 135,896 130,891 125,886 121,880 118,873 115,866 
		114,857 115,848 117,840 120,833 124,827 129,821 134,817 140,812 146,808 153,805 161,803 171,803 179,805 186,808 192,812 
		197,817 202,822 207,827 209,835 210,844 209,853 207,861 205,868 201,874 197,880 192,885 185,889 179,892 172,896 165,898 	"/>
	<polygon fill="#00FF00" stroke="#800080" points="211,752 202,751 196,747 192,741 188,735 184,729 181,722 177,716 175,708 
		173,700 174,693 176,685 180,678 184,672 190,669 199,667 207,665 216,666 225,667 232,670 239,673 246,676 251,681 255,687 
		256,696 257,705 256,714 254,722 253,730 251,738 245,742 238,746 231,748 223,751 214,751 	"/>
	<polygon fill="#00FF00" stroke="#800080" points="287,369 278,368 269,367 261,365 255,361 251,355 246,350 242,344 239,337 
		236,330 236,320 238,312 242,305 246,299 251,294 256,290 263,286 271,284 280,285 288,287 294,291 299,296 303,302 307,308 
		307,318 309,326 311,334 309,342 305,347 302,355 297,359 293,365 	"/>
	<polygon fill="#00FF00" stroke="#800080" points="320,462 311,461 302,460 295,457 290,452 285,447 280,442 275,437 271,431 
		269,423 269,413 269,405 272,398 276,391 280,386 285,380 293,378 301,376 310,377 318,379 326,381 332.169,386.249 
		336.414,391.29 340,397 345,402 349,408 351,416 353,424 354,433 352,441 349,447 343,452 338,456 331,459 323,461 	"/>
	<polygon fill="#00FF00" stroke="#800080" points="1285,546 1277,544 1270,541 1263,538 1256,535 1249,532 1246.212,526.638 
		1243,518 1242,509 1243,500 1245,492 1247,484 1249,476 1253,470 1259,465 1264,460 1271,458 1279,455 1287,453 1296,454 1304,456 
		1311.582,458.643 1318,462 1324,466 1330,470 1334,476 1339,481 1341,489 1342,498 1340,506 1337,512 1333,519 1328.909,524.275 
		1324,530 1319,534 1313,539 1307,543 1300,545 1292.156,546.065 	"/>
	<path fill="#00FF00" stroke="#800080" d="M868.584,633.488l0.418,6.898l2.927,6.688l3.345,5.644l4.18,4.39l4.808,0.209l4.599-2.718
		l4.808,1.464l4.39,5.016l5.017,2.927l6.062-0.209l6.271-0.627l4.808-3.763l3.762-4.181l2.091-3.971l1.881-6.689l0.209-5.016
		l-1.254-5.644l-2.09-6.689l-2.718-6.271l-3.136-3.972l-2.508-3.344l-4.39-2.927l-5.853-0.627l-5.853,0.418l-6.062,0.418
		l-5.226-2.717l-6.271-1.463l-5.226,1.881c0,0-4.808,3.763-4.808,4.39s-2.926,5.644-2.926,5.644l-1.673,7.733L868.584,633.488z"/>
	<polygon fill="#00FF00" stroke="#800080" points="1128.475,63.844 1127.984,71.444 1128.72,79.29 1131.171,87.135 1137.056,93.51 
		1143.921,98.659 1150.786,101.111 1157.406,102.582 1163.29,100.375 1166.968,95.962 1170.156,89.588 1172.116,84.684 
		1174.078,78.8 1176.04,72.67 1177.756,67.031 1179.718,61.391 1181.924,57.469 1181.924,50.849 1176.04,45.7 1168.439,42.512 
		1162.065,42.022 1154.709,42.758 1147.109,45.7 1140.979,50.358 1136.566,53.791 1132.153,58.204 	"/>
	<polygon fill="#00FF00" stroke="#800080" points="1168.268,96.004 1168.784,99.207 1172.116,100.866 1178.001,104.789 
		1182.905,107.731 1189.28,110.673 1195.9,112.389 1202.275,111.899 1207.913,109.692 1212.572,105.279 1215.514,101.601 
		1218.585,95.798 1219.927,90.323 1220.908,85.91 1221.644,80.516 1221.399,75.122 1218.947,69.238 1214.043,64.089 
		1209.385,60.901 1204.481,58.204 1199.577,55.262 1193.938,53.055 1189.139,51.68 1185.522,51.783 1183.042,53.643 
		1182.629,58.292 1180.253,62.735 1177.67,70.691 1175.706,77.303 1173.227,84.432 1170.438,90.529 1169.494,93.557 	"/>
	<polygon fill="#00FF00" stroke="#800080" points="1191.856,420.729 1189.281,428.455 1189.795,437.468 1194.173,444.164 
		1203.445,450.86 1213.231,456.268 1222.501,460.388 1233.318,463.478 1242.331,462.448 1249.284,457.04 1254.435,451.632 
		1256.752,445.451 1256.752,437.468 1253.919,430.258 1247.996,421.759 1244.391,414.549 1240.271,406.823 1236.151,399.097 
		1231.257,396.007 1225.334,393.689 1217.093,397.036 1211.686,402.702 1206.792,408.625 1201.9,412.231 1195.976,414.549 	"/>
	<polygon fill="#00FF00" stroke="#800080" points="1078.852,1024 1083.97,1019.258 1091.362,1015.846 1097.237,1013.193 
		1105.007,1012.435 1112.398,1012.814 1118.273,1016.036 1123.39,1020.964 1124.906,1024.185 	"/>
	<polygon fill="#00FF00" stroke="#800080" points="401.144,883.802 396.768,892.28 394.306,902.673 397.315,911.972 
		402.238,920.177 408.528,927.288 416.46,929.203 423.844,929.203 432.738,925.469 441.405,919.461 448.003,914.34 455.192,909.12 
		463.859,903.014 471.541,897.893 479.638,893.1 483.194,887.904 483.741,881.886 479.365,874.776 470.886,869.58 460.493,865.751 
		452.015,864.109 444.357,863.289 433.964,865.203 426.032,866.298 417.28,870.4 409.622,874.776 	"/>
	<polygon fill="#00FF00" stroke="#800080" points="431,928.25 429.5,933.25 432,939 434.25,944.5 436.5,950.25 440,954.75 
		445.25,960 451.25,964.5 458.5,967 467.5,966.75 474.5,966 480,963.25 485.25,959.25 490.25,956 495,950.25 498.25,945.5 
		500.75,939.5 502.75,933.5 504.25,926.5 505,919.5 504.75,912 503,906 501,900.5 498.5,894.75 495.25,889.5 492.25,886.5 
		487.5,886.25 484,889.5 480.224,893.996 474.941,897.224 468.974,900.648 463.3,904.561 457.528,908.671 452.343,912.192 
		445.985,917.084 440.506,921.192 435.811,924.322 	"/>
</g>
</svg>
