<?xml version="1.0" encoding="utf-8"?>
<!-- Generator: Adobe Illustrator 16.0.1, SVG Export Plug-In . SVG Version: 6.00 Build 0)  -->
<!DOCTYPE svg PUBLIC "-//W3C//DTD SVG 1.1//EN" "http://www.w3.org/Graphics/SVG/1.1/DTD/svg11.dtd">
<svg version="1.1" id="Layer_1" xmlns="http://www.w3.org/2000/svg" xmlns:xlink="http://www.w3.org/1999/xlink" x="0px" y="0px"
	 width="1280px" height="1024px" viewBox="0 0 1280 1024" enable-background="new 0 0 1280 1024" xml:space="preserve">
<g id="Raw_image">
	
		<image overflow="visible" enable-background="new    " width="1280" height="1024" xlink:href="normal_20.jpg"  transform="matrix(1 0 0 1 2.441406e-004 -2.441406e-004)">
	</image>
</g>
<g id="Not_annotated" opacity="0.5">
	<path fill="#0000FF" stroke="#800080" d="M0,1"/>
	<polygon fill="#0000FF" stroke="#800080" points="1146,0 1140,3 1129,4 1117,4 1105,4 1095,2 	"/>
</g>
<g id="Clumps" display="none" opacity="0.5">
	<polygon display="inline" fill="#FF0000" stroke="#800080" points="0,96 7,91 18,92 27,95 33,101 40,101 48,104 58,106 66,110 
		72,105 68,97 62,91 56,85 50,79 45,72 45,60 47,49 48,39 51,30 52,19 53,8 	"/>
	<polygon display="inline" fill="#FF0000" stroke="#800080" points="0,425 7,428 12,435 15,444 15,454 11,462 8,470 14,475 24,477 
		34,479 44,481 51,486 58,491 64,497 69,504 73,512 77,520 84,525 94,523 103,520 113,518 124,519 133,522 142,525 148,531 154,537 
		160,543 164,551 168,559 171,568 173,578 175,588 175,600 174,611 175,622 175,634 171,642 166,649 160,655 154,660 147,666 
		141,672 140,675 149,672 158,669 167,666 177,664 187,665 199,664 209,666 217,670 225,674 233,678 240,683 246,689 253,694 
		259,700 264,707 269,714 273,722 276,731 279,740 282,749 283,760 282,771 280,781 277,789 272,797 267,803 261,809 254,814 
		245,818 236,820 226,822 215,821 206,818 200,812 193,807 187,801 181,795 172,792 163,789 154,786 147,781 138,778 131,773 
		124,768 118,762 112,756 107,749 103,741 101,731 102,719 104,710 109,702 114,695 120,690 126,684 128,680 120,684 112,688 
		103,692 94,694 84,696 74,698 63,697 64,705 70,711 75,718 80,725 83,734 85,744 85,756 84,767 83,778 83,788 93,790 104,789 
		114,791 123,794 130,799 137,804 144,809 151,814 157,820 164,825 170,831 174,839 180,845 186,851 191,858 198,860 206,855 
		214,851 223,848 235,848 246,849 255,852 264,855 273,858 281,862 289,866 297,870 304,875 309,882 315,888 321,894 326,901 
		330,909 334,917 337,926 340,935 344,943 346,953 349,962 358,965 366,962 375,958 385,958 396,957 407,956 418,957 428,959 
		436,963 443,968 450,973 456,979 462,985 466,993 470,1001 474,1009 477,1018 	"/>
	<polygon display="inline" fill="#FF0000" stroke="#800080" points="672,768 661,767 649,767 641,763 635,757 630,750 626,742 
		622,734 617,727 611,734 608,743 602,749 596,754 589,759 579,761 568,760 558,758 549,755 540,752 532,748 525,743 519,737 
		512,732 506,726 500,720 494,714 489,707 483,701 482,692 485,683 487,672 491,665 496,657 501,651 507,645 514,639 509,633 
		499,631 491,627 484,622 478,616 474,608 471,599 468,590 465,581 463,571 464,559 466,550 468,540 472,532 475,523 480,516 
		486,510 493,504 500,500 509,496 518,493 527,490 539,490 550,491 561,492 571,494 581,496 590,499 599,502 606,507 615,510 
		621,516 626,523 631,530 632,541 634,551 636,561 636,573 633,582 629,590 624,597 618,602 609,606 600,609 592,612 584,616 
		579,620 590,621 601,622 610,625 618,629 625,634 628,643 631,652 636,659 646,657 657,657 669,656 679,658 685,653 683,643 
		681,633 682,622 685,613 689,605 694,597 699,591 705,584 712,579 719,574 726,570 737,568 749,568 760,569 769,572 777,576 
		784,581 790,587 796,593 802,599 806,607 810,615 813,624 815,634 814,645 812,655 810,664 805,672 801,680 795,686 788,691 
		782,696 774,700 764,702 753,703 742,704 731,703 722,703 723,714 720,723 715,730 712,738 707,746 701,752 695,757 687,762 
		679,766 	"/>
	<polygon display="inline" fill="#FF0000" stroke="#800080" points="609,492 597,492 586,491 576,489 568,485 559,482 549,480 
		539,478 529,476 518,475 510,471 505,464 500,457 497,448 498,437 502,428 506,420 511,413 516,406 521,400 527,393 534,388 
		541,384 547,377 554,382 566,382 570,377 565,370 560,363 556,355 556,345 554,335 556,325 559,316 563,308 568,300 575,295 
		581,289 585,284 578,285 583,277 590,272 596,267 606,266 614,270 624,268 631,273 635,281 641,287 650,290 657,295 661,303 
		665,311 669,319 672,328 671,339 670,350 668,359 664,367 659,375 654,382 647,386 639,390 630,393 621,395 626,400 633,405 
		637,413 640,422 639,433 637,443 637,454 635,464 631,473 627,481 622,487 613,490 	"/>
	<polygon display="inline" fill="#FF0000" stroke="#800080" points="950,406 941,403 932,400 926,394 918,390 911,385 905,379 
		899,373 894,366 891,357 887,349 883,341 881,331 878,322 878,310 880,300 881,289 874,288 867,293 859,298 851,302 845,307 
		836,311 828,314 819,317 808,318 797,317 790,312 783,307 778,300 773,293 770,284 771,273 771,263 773,252 777,244 781,237 
		788,231 794,225 802,221 810,218 818,213 828,211 838,209 847,206 857,206 865,210 871,216 879,220 888,223 892,231 893,242 
		893,254 898,261 904,255 910,249 916,244 922,238 929,233 939,230 949,230 961,230 970,233 979,236 987,240 995,244 1000,251 
		1005,258 1012,263 1016,271 1020,279 1022,289 1025,298 1027,308 1026,319 1028,329 1027,340 1023,347 1018,355 1015,364 1011,371 
		1005,378 1000,384 994,390 986,394 978,399 970,402 959,404 	"/>
	<polygon display="inline" fill="#FF0000" stroke="#800080" points="908,791 897,790 887,790 878,787 869,784 864,777 858,771 
		853,764 850,755 852,745 853,734 855,724 859,716 863,708 867,700 872,693 878,686 886,682 893,677 900,673 911,671 921,673 
		931,673 928,667 920,663 914,657 908,651 903,644 898,637 895,628 892,619 892,607 894,596 897,587 902,581 906,573 912,566 
		919,561 926,557 934,553 943,549 951,545 960,542 970,542 973,549 979,543 987,539 998,540 1008,542 1017,545 1025,549 1033,553 
		1040,558 1045,565 1045,575 1052,580 1058,586 1062,594 1063,603 1062,614 1061,625 1060,636 1057,645 1053,653 1048,659 1042,666 
		1036,671 1028,675 1020,680 1011,682 999,682 988,683 979,680 969,680 959,678 955,683 962,688 968,694 974,700 978,708 982,716 
		983,725 985,735 984,745 979,753 976,762 971,769 966,775 959,780 952,785 942,787 930,787 921,788 912,789 	"/>
	<polygon display="inline" fill="#FF0000" stroke="#800080" points="941,187 930,186 920,184 910,182 901,179 894,174 887,169 
		882,162 877,155 873,147 868,140 865,131 861,123 860,114 859,103 860,92 861,81 866,73 873,68 883,67 890,62 900,59 908,55 
		918,55 927,52 937,52 944,57 945,66 952,61 960,65 966,71 976,73 983,78 985,88 979,94 976,103 982,108 993,108 999,114 1003,122 
		1000,131 1000,137 999,146 1001,156 1001,163 992,162 987,169 978,173 973,180 965,184 955,185 944,186 	"/>
	<polygon display="inline" fill="#FF0000" stroke="#800080" points="1185,1023 1188,1016 1195,1010 1202,1006 1211,1003 1221,1001 
		1229,997 1222,992 1216,986 1210,980 1203,975 1198,968 1193,961 1189,953 1184,946 1179,939 1173,933 1169,925 1166,916 1165,905 
		1167,894 1166,884 1168,875 1171,867 1176,859 1179,851 1174,844 1164,844 1153,845 1148,838 1140,834 1128,834 1118,832 1106,832 
		1099,827 1091,823 1081,821 1074,816 1069,809 1065,801 1062,792 1061,781 1062,770 1065,760 1070,754 1076,748 1077,739 1084,733 
		1092,730 1099,725 1105,719 1115,716 1124,713 1133,710 1142,707 1149,703 1161,702 1170,705 1179,704 1189,706 1197,710 1204,715 
		1211,720 1215,728 1219,736 1222,745 1221,756 1218,764 1215,774 1217,784 1214,793 1214,803 1208,809 1202,814 1196,818 1189,823 
		1191,830 1199,833 1209,830 1219,828 1231,828 1242,827 1252,826 1262,825 1271,828 	"/>
	<polygon display="inline" fill="#FF0000" stroke="#800080" points="1279,246 1271,251 1265,256 1257,261 1250,265 1241,268 
		1235,265 1232,273 1225,278 1215,278 1205,276 1194,275 1184,273 1177,268 1171,262 1166,255 1159,250 1153,244 1147,238 1142,231 
		1136,225 1133,216 1129,208 1125,200 1123,190 1119,182 1118,171 1118,161 1121,152 1121,140 1123,129 1124,119 1129,111 1136,106 
		1142,100 1149,96 1158,92 1167,89 1176,88 1187,89 1197,91 1207,93 1215,97 1221,103 1229,107 1236,112 1243,117 1254,118 
		1259,125 1271,125 1279,129 	"/>
</g>
<g id="Single_nuclei" opacity="0.5">
	<polygon fill="#00FF00" stroke="#800080" points="596,0 592.24,6.344 586,11 576.935,14 566.628,16.339 553.51,16.339 
		541.016,16.339 530,15 519,14 509,12 501,8 495,0 	"/>
	<polygon fill="#00FF00" stroke="#800080" points="917.5,1024 917.5,1017.132 919.804,1007.41 924.294,999.984 933.683,995.494 
		939.806,991.82 949.603,991.82 959.4,994.677 965.931,995.902 974.5,997.131 982,997 991,997 1000.156,1000.427 1008.791,1004.066 
		1015,1009 1023.487,1015.903 1029,1024 	"/>
	<polygon fill="#00FF00" stroke="#800080" points="793,0 790,6 784,12 776,16 768,21 760,24 749,25 739.666,26.021 729.047,25.397 
		717.178,24.46 709.99,23.523 701.244,22 692.502,20.712 683.132,18.838 675,17 667,13 659,9 651,0 	"/>
	<polygon fill="#00FF00" stroke="#800080" points="1280,437 1272,434 1267,427 1263,419 1259,411 1255,403 1250,396 1246,388 
		1243,379 1240,370 1235,363 1231,355 1230,344 1231,333 1234,324 1233,315 1237,307 1242,299 1245,290 1250,283 1256,277 1262,271 
		1269,266 1280,261.61 	"/>
	<polygon fill="#00FF00" stroke="#800080" points="332.43,0 333,8 333.24,17.73 332,27 328,35 324,43 319,50 314,57 308,62 301,67 
		294,73 286,76 277,79 267,81 255.12,82.528 246.573,81 236.853,78.883 226.728,74.428 218.223,69.163 212.958,61.874 209,55 
		204,48 198.379,40.5 194,34 189,27 184,20 180,12 177,0 	"/>
	<polygon fill="#00FF00" stroke="#800080" points="347,783 335,783 325,781 317,777 309,773 304,766 300,758 295,751 291,743 
		289,733 289,723 290,712 292,702 293,691 297,683 302,675 307,668 315,664 323,661 332,657 342,655 352,653 362,655 371,658 
		378,663 384,669 391,674 396,681 401,688 405,696 407,706 408,717 408,729 405,738 402,747 398,754 392,761 385,766 378,770 
		369,774 361,778 353,781 	"/>
	<polygon fill="#00FF00" stroke="#800080" points="530.062,870.165 520.879,868.838 512,867 505,867 496.981,866.625 488.028,866 
		477.431,863.926 472.198,859.876 466.834,855.443 461,848 455,842 449,836 444,829 440,821 436,813 434,803 434,793 436,783 
		439,773 441,764 445,756 450,749 457,743 466,740 477,739 487,741 496,744 507,745 516,748 525,751 534,754 543,757 550,762 
		557,767 565,771 572,776 579,781 583,789 587,797 590,806 591,817 589,827 586,836 584,846 581,855 575,860 566,864 557,866 
		548,867 538.365,869.75 	"/>
	<polygon fill="#00FF00" stroke="#800080" points="563,151 551,151 542,148 534,144 528,138 522,132 518,124 512,118 503,115 
		497,109 492,102 488,94 487,83 487,73 490,64 494,56 499,49 505,42 511,36 519,33 528,29 538,27 547,24 557,22 566,23 576,25 
		586,27 594,31 602,35 607,42 612,49 617,56 621,64 622,75 623,86 624,97 624,109 621,118 619,127 613,133 605,138 599,144 592,148 
		581,150 571,149 	"/>
	<polygon fill="#00FF00" stroke="#800080" points="705,946 693,946 684,943 674,941 665,944 654,943 647,938 641,932 635,926 
		628,921 623,914 619,906 614,899 612,889 612,877 614,867 611,858 612,847 613,836 616,827 621,820 627,814 634,808 639,802 
		647,797 653,791 661,787 672,786 682,786 690,790 698,794 705,799 712,804 718,810 724,816 731,821 737,827 744,832 749,839 
		752,848 755,857 758,866 759,877 758,888 756,898 755,909 751,917 747,924 741,930 734,935 726,939 717,942 708,945 	"/>
	<polygon fill="#00FF00" stroke="#800080" points="731,533 719,533 709,531 698,530 690,526 684,520 676,516 670,510 664,504 
		658,498 653,491 649,483 645,475 645,463 644,454 644,442 646,431 647,421 650,412 654,404 660,397 667,393 675,388 684,386 
		694,383 704,383 715,384 726,385 733,390 742,393 750,397 756,403 764,407 770,413 775,420 780,427 785,434 790,441 793,450 
		795,460 796,471 794,481 790,489 785,496 780,503 776,511 769,516 762,521 755,525 747,529 737,531 	"/>
	<polygon fill="#00FF00" stroke="#800080" points="796.937,1024 793.263,1017.536 790,1009 785,1002 780,995 774,989 770,981 
		768,971 768,959 769,948 771,937 774,928 779,921 784,914 791,909 797,903 807,901 817,899 827,901 836.12,902.016 846,902 
		857,903 864,908 870,914 875,921 880,928 883,937 886,946 890,954 896,960 900,968 903,977 906,986 907.151,996.31 907.967,1009 
		909.599,1024 	"/>
	<polygon fill="#00FF00" stroke="#800080" points="1138,535 1129,532 1119,532 1108,533 1100,529 1092,525 1087,518 1083,510 
		1079,502 1074,495 1069,488 1065,480 1062,471 1062,459 1065,450 1070,442 1075,435 1081,429 1086,423 1093,417 1099,412 1107,407 
		1115,403 1125,401 1136,402 1147,403 1156,406 1163,411 1171,415 1177,421 1181,429 1187,435 1189,445 1193,453 1197,461 1197,471 
		1197,481 1193,489 1190,498 1186,506 1181,512 1176,519 1169,524 1161,529 1153,532 1142,533 	"/>
	<polygon fill="#00FF00" stroke="#800080" points="152,0 152,7.5 152,17 154.235,27.449 154.235,35.55 154.235,46.484 151,54 
		147,62 143,69 137,75 131,81 123,86 117,91 109,96 102,100 93,104 84,106 74,104 67.162,98.323 61.088,93.058 55.012,86.5 
		48.128,78.883 44.078,69.973 44.078,57.824 46.103,49.319 46.913,41.264 49.748,29.07 50.963,22 54,8 58,0 	"/>
	<polygon fill="#00FF00" stroke="#800080" points="330.194,1024 330.949,1014.315 332.006,1005.6 335.328,996.993 339.708,987.931 
		344.239,981.438 349.373,974.642 356.018,969.508 363.569,965.279 372,961 380,959 391,958 402,957 413,958 424,959 432,963 
		440,967 447,972 453,978 459,984 464,991 468,999 472,1007 477.431,1024 	"/>
	<polygon fill="#00FF00" stroke="#800080" points="236.345,823.123 227.868,823.123 219.39,823.123 208.793,820 197.666,815.705 
		193,804 187,798 179.121,795.041 172.762,792.391 161.635,789.742 152.098,786 142.031,783 131.964,778.089 126.665,774.906 
		121.5,769.239 116,761 111,754 105,748 101,740 99,730 100,719 102,709 107.59,700.072 112,694 119,689 125,684 132,679 139,673 
		147,669 157,667 167,665 177,663 187,663 198,664 208,666 217,669 225,673 234,676 242,680 250,684 257.619,690.133 263,695 
		267,703 271,711 275,719 278,728 281,737 283,747 284,758 284,768 282,777 279,787 276,796 273,804 267.607,810.406 
		259.831,815.705 253.301,820.473 241.644,823.123 	"/>
	<polygon fill="#00FF00" stroke="#800080" points="0,476 9,474 20,472 30,474 39,477 48,480 55.961,484.941 62,490 66,498 71,505 
		75,513 77.01,522.41 77.01,532.935 74,548 73,559 70,568 67,577 64,586 59,592 53,599 48,605 42,612 35,616 27.333,622 
		18.491,623.871 7.967,625.975 0,623.871 	"/>
	<polygon fill="#00FF00" stroke="#800080" points="322.24,1009.081 308.634,1011.177 299.212,1013.268 289,1013.969 
		278.971,1013.969 267.804,1013.268 258.383,1013.268 245.82,1013.268 235.351,1014.315 224.532,1012.924 213.017,1006.987 
		206,1000 202,992 198,984 194,976 191,967 188,958 185,949 182,940 183,929 183,917 184,906 185,894 188,886 192,877 195,869 
		200,861 206,856 214,851 225,850 236,849 248,849 257,852 266,855 276,857 283,862 290,867 297,872 304,877 311,882 316,889 
		321,896 325,904 330,911 334,919 337,928 339.668,935.982 342.657,943.4 345.492,957 348,965 347,974 343,981 338,989 334,997 
		327.478,1004.549 	"/>
	<polygon fill="#00FF00" stroke="#800080" points="128,970 117,969 106.531,970 95.933,967.244 85.866,964.594 79,959 75,951 
		71,943 68,934 64,926 61,917 59,907 57,897 56,886 54,876 56,865 58,856 61,846 63,837 66,828 68,818 72,809 77,802 82,795 87,788 
		97,786 108,785 116,789 124,793 131,798 137,804 143,810 149,816 155,822 161,828 166,835 172,841 178,847 184,853 
		186.539,860.217 188,870 186,881 184,891 183,902 182,913 181,924 181,936 180,947 176,955 170,960 163,965 152,967 142,968 
		131,969 	"/>
	<polygon fill="#00FF00" stroke="#800080" points="98,698 88.799,700.072 78.274,700.072 67.749,698 60.592,695.44 52.593,693 
		44.173,687.441 37.5,682.81 28.175,672.707 26.273,666.892 25.649,663 23.544,655.025 22.281,649.552 22.701,642.816 
		23.965,636.505 28.175,628.506 32.385,622 36,617 43,612 48,605 53,599 59,592 64,586 67,577 70,568 73,559 74,548 77.853,536.723 
		80.8,530.83 86.273,525.778 96.377,521.147 105.218,519.885 117.006,519.885 127.11,520.726 136.371,522.831 142.265,526.199 
		149,530 154,537 160,543 165,550 168,559 170,569 173,578 175,588 177,598 177,608.036 177,617.976 174.682,626.818 
		172.156,639.448 167.947,646.604 161.632,653 154.895,659.235 146.896,663 142.231,668.885 135.95,673.132 126.689,677.93 118,683 
		111,688 105,693 	"/>
	<polygon fill="#00FF00" stroke="#800080" points="673.548,769.239 660.448,769.239 650.257,769.239 640,764 631.258,757.109 
		630,748 627,739 622,732 617,725 616,714 618,703 620,694 623,684 626,676 630,667 635,661 646,659 657,658 668,657 678,659 
		687,662 693,668 698,675 704,681 709,688 715,694 721,700 722,711 722,722.177 720,727.995 715.763,735.273 711.396,741.5 
		706.543,749.345 699.75,756.138 691.987,761.476 682,766.813 	"/>
	<polygon fill="#00FF00" stroke="#800080" points="750.698,705.19 740.024,705.19 728,700 719,697 713,691 708,684 702,678 697,671 
		692,664 686,658 685,647 683,637 682,626 685,616 688,608 693,601 698,594 704,587 710,582 717,577 725,572 734,569 746,569 
		757,570 766,573 775,576 782,581 788,587 794,593 800,599 804,607 809,614 814.431,624.546 815.431,635.546 815.234,642.11 
		815.234,653 813,663 806.985,673 802.133,679.472 796,687.721 791.453,693 785.15,698 773.019,701.308 765.74,703.25 
		756.522,705.19 	"/>
	<polygon fill="#00FF00" stroke="#800080" points="585.722,763.421 576,764 568,760 559,757 550,754 541,751 533,747 526,742 
		518,738 510,734 503,729 497,723 492,716 488,708 483,701 480,693 482,684 485,675 489,667 493,659 498,651 502,644 509,638 
		517,634 526,631 537,630 546,628 557,626 567,624 578,623 589,622 599,622 608,625 616,628.039 628,636 630.848,643.566 
		631.258,654.954 629.258,664.954 627.334,673 623.721,682.077 620,692 618,703 616,713 614,723 612,733 610,743 604,749 598,754 
		592,760 	"/>
	<polygon fill="#00FF00" stroke="#800080" points="529.922,629.493 523,631 510.512,633.375 498,631 490.615,628.038 483.34,622 
		480,615.426 473.635,609.114 471.209,600.384 466.357,590.677 464,581.941 464,571.756 464,558 464,546 468,538 472,530 476,522 
		481,515 486,508 492,501 499,496 508,493 518,491 527,490 539,490 550,491 561,492 572,493 581,496 590,499 599,502 608,505 
		615,510 621,516 627,522 629,532 631,542 633,552 635,562 635,572.722 632.785,584.852 629,592 623,598 617,604 611,609 602,613 
		593,615 583,618 574,620 565,623 555,625 546,628 536,630 	"/>
	<polygon fill="#00FF00" stroke="#800080" points="609.983,493.634 596.397,493.634 585,490 575,488 567,484 558,481 549,478 
		538,477 528,475 517,474 510,469 505,462 500,455 498,445 500,435 504,427 509,419 513,412 519,405 524,399 530,392 
		534.284,385.424 542.533,378.146 555.5,375.72 565.343,379.601 574,384 582,388 591,391 601,393 610,396 620,398 631.329,401 
		639,408.715 640,417.934 639,427 637,437 636,448 637.641,458 635,468 630.363,477.617 624,483 619.198,490 	"/>
	<polygon fill="#00FF00" stroke="#800080" points="635,395 623,395 611,395 602,392 593,389 585,385 577,381 570,376 562,372 
		555.5,365.53 551,356.795 551,347 552,338 554,328 557,319 561,311 565,302 568,294 572,286 576,278 581,270 587,264 598,263 
		609,264 620,265 627,270 634,275 640,281 646,287 652,293 657,300 662,307 667,314 671,322 674,331 675.974,339.327 674,350.5 
		669.181,359.707 665.781,367.955 660.135,377.812 656.075,383 648,388 644,392.217 	"/>
	<polygon fill="#00FF00" stroke="#800080" points="817,317 806,316 795,315 789,309 782,304 777,297 773,289 772,279 771,269 
		772,258 776,249 780,242 785,235 792,229 799,224 807,221 815,216 824,213 834,211 845.739,204.865 856.363,202.439 
		867.153,205.89 873.946,211.227 879,217.05 888.017,220.932 896.266,231 896.266,239.627 896.266,251.986 893,262 890,271 
		885.106,282 879,287.893 872.975,291.289 866.182,295.656 858.418,300.023 851.625,303.905 845.318,308.758 836.098,313.61 
		826.879,317 	"/>
	<polygon fill="#00FF00" stroke="#800080" points="952,404 942,402 933,399 927,393 919,389 912,384 906,378 900,372 895,365 
		892,356 888,348 884,340 882,330 879,321 879,309 881,299 883,289 888,282 892,274 896.266,264 901.604,256.353 907.426,250.531 
		912.764,244.708 920,241 927,236 935,232 946,231 958,231 968,233 975.358,234.033 983.607,236.944 991.856,239.627 
		999.615,247.135 1006.898,256.353 1010,263 1015,270 1018,279 1021,288 1023,298 1025.336,305.361 1026.306,317 1026,329 
		1026.306,339.812 1023.395,348.546 1019.028,357.28 1014,363 1010,370 1004,377 999,383 993,389 985,393 977,398 969,401 958,403 	
		"/>
	<polygon fill="#00FF00" stroke="#800080" points="907,790 897,788 885,788 876,785 868,781 863,774 857,768 853,760 852,751 
		854,741 855,730 858,721 862,713 866,704 870,697 876,690 883,685 890,681 897,676 906,673 917,673 927,675 936,678 946,680 
		954,684 961,689 967,695 973,701 977,709 981,717 982,726 983,737 982,747 977,755 974,763 969,770 962,776 955,781 948,785 
		937,786 928.823,787.18 917,788 	"/>
	<polygon fill="#00FF00" stroke="#800080" points="984,685 974,683 965,680 956,677 946,675 938,671 930,667 923,662 915,658 
		907,654 903,646 899,638 895,630 892,621 890,611 892,601 895,592 899,583 903,575 910,570 916,565 923,560 930,555 938,550 
		947,547 956,544 965,541 975,539 986,540 998,540 1009,541 1017,545 1025,549 1033,553 1039,559 1045,565 1050,572 1055,579 
		1058,588 1061,597 1065,605 1065,615 1063,625 1061,635 1058,644 1054,652 1049,659 1045,667 1039,672 1031,676 1022,679 1014,683 
		1003,684 991,684 	"/>
	<polygon fill="#00FF00" stroke="#800080" points="962,191 951,190 940,189 930,187 919,186 909,184 901,180 895,174 888,169 
		881,164 875,158 870,151 866,143 862,135 860.845,128.254 856,117 855,106 854,95 855,86 859,77 862,69 869,63 877,60 886,57 
		896,54 906,52 916,50 925,48 936,48 947,49 957,51 964,56 971,61 978,66 985,71 992,76 998,82 1005.364,89.495 1010.212,98.511 
		1012.235,104.963 1014.656,116.123 1014.656,129.709 1014.656,145.237 1012.235,159.308 1007.865,167.072 1001,175 995,180 
		986,183 977,186 968,189 	"/>
	<polygon fill="#00FF00" stroke="#800080" points="1176,843 1166,843 1154,843 1147.198,840.36 1137.318,835.183 1128,833 1118,831 
		1107,830 1099.666,827.653 1090.725,824 1081,820 1075,814 1069,808 1066,799 1063,790 1062,779 1064,768 1067,759 
		1069.547,753.298 1074.253,745.763 1083.196,737.762 1088,733 1094.961,727.409 1102,723 1110,718 1119,716 1128,713 
		1135.906,709.053 1146,706 1154.732,705.19 1166,704 1176.851,705.19 1184,706 1193,709 1200,714 1207,719 1212,726 1216,734 
		1220,742 1220,752 1218,761 1214,770 1213.09,778.709 1214,789 1211.678,798.945 1209,806 1203,812 1198.971,819.652 
		1194.264,827.653 1190.029,836.125 1184.381,839.889 	"/>
	<polygon fill="#00FF00" stroke="#800080" points="1280,1011.2 1267,1009 1258.271,1007.41 1249,1003 1241,999 1233,995 1225,991 
		1220,989.08 1211.678,983.432 1202.265,976.373 1196.615,970.725 1190.97,964.607 1187.201,958.018 1183,949 1179,941 1175,933 
		1170.262,926.015 1166.493,916 1165,907 1162.732,896.841 1163,885 1166,876 1170,868 1174,860 1179,853 1186,847 1192,842 
		1199,836 1205,831 1214,827 1225,826 1235,824 1245.093,824 1257.8,824 1268,825 1280,829.065 1280,840.36 1280,853.067 
		1280,863.892 1280,876.599 1280,889.777 1280,902.484 	"/>
	<polygon fill="#00FF00" stroke="#800080" points="1280,251.839 1272,258 1265,263 1258,267 1250,271 1242,276 1234,279 1223,280 
		1212,281 1201,282 1193,278 1185,274 1178,269 1170,265 1163,260 1157,254 1151,248 1146,241 1140,235 1134,229 1128,223 1124,215 
		1121,206 1118,197 1114,189 1113,178 1114,167 1115,156 1115,144 1116,133 1117,122 1122,114 1126,107 1132,100 1139,95 1146,91 
		1155,88 1165,85 1174,82 1184,82 1195,83 1205,85 1212,90 1220,94 1227,99 1234,104 1242,108 1250,112 1258,116 1266,120 1275,123 
		1280,126.094 	"/>
	<polygon fill="#00FF00" stroke="#800080" stroke-miterlimit="10" points="0,217.429 8.01,217.429 14.689,222.041 19.936,224.904 
		28.523,227.765 35.678,230.628 41.88,230.628 47.957,230.628 53.328,230.628 56.191,228.242 60.592,226.812 63.346,222.518 
		69.547,220.61 74.581,218.745 82.146,218.745 86.72,217.429 90.06,217.429 93.876,220.133 95.914,225.927 97.692,230.628 
		99.156,239.63 99.156,247.802 95.914,254.956 92.445,262.589 89.583,269.744 85.289,276.423 79.088,282.624 72.886,289.302 
		69.071,294.073 63.823,300.274 55.714,305.522 47.957,308.384 39.494,311.723 29.954,313.631 22.322,316.016 11.826,316.016 
		4.671,314.108 0,311.246 	"/>
	<polygon fill="#00FF00" stroke="#800080" stroke-miterlimit="10" points="0,904.599 7.462,902.555 13.593,898.469 22.281,895.86 
		27.081,891.519 31.169,887.023 35.257,879.666 35.257,873.943 38.505,865.36 38.505,857.184 38.505,849 38.505,842.061 
		40.57,832.66 40.57,824.893 40.57,817.945 42.205,810.59 42.205,801.595 40.161,793.423 38.505,786.883 35.257,779.931 
		28.717,772.983 24.22,769.715 18.089,766.443 9.506,760.311 0,757.044 	"/>
	<polygon fill="#00FF00" stroke="#800080" stroke-miterlimit="10" points="0,638.507 8.279,643.004 13.593,649.541 18.089,654.855 
		21.103,663 21.103,672.842 21.103,681.014 21.103,690.01 18.906,695.729 16.122,701.385 12.366,707.584 8.279,711.262 
		2.557,711.262 0,711.262 	"/>
	<polygon fill="#00FF00" stroke="#800080" points="1268.75,1024 1264.75,1019.5 1258.75,1014.75 1252.5,1011.2 1246.25,1007.91 
		1238.362,1004.918 1230.997,1003.636 1223.74,1003.636 1216.5,1004.5 1209.25,1005.75 1203.25,1007.91 1196.5,1011.2 1192,1014.25 
		1188.094,1016.871 1185.379,1020.14 1184.25,1024 	"/>
	<polygon fill="#00FF00" stroke="#800080" points="99.156,103.182 87.816,107.637 83.766,114.927 82.146,124.240 86.196,133.555 89.842,140.034 91.867,146.514 99.153,152.993 106.443,156.639 114.952,158.660 122.242,155.420 129.127,152.990 136.417,150.993 144.922,150.993 154.235,148.535 161.930,147.320 173.270,146.510 181.374,146.105 188.259,146.105 194.738,144.080 201.217,144.485 211.342,138.410 217.821,132.740 225.111,126.665 227.136,116.945 227.136,106.000 223.490,99.538 223.490,93.463 223.089,86.500 218.634,78.883 214.179,72.812 209.319,68.357 202.840,63.497 197.571,59.042 191.901,53.002 184.611,47.701 179.346,43.246 171.651,41.267 163.960,41.267 155.856,45.272 151.000,54.000 147.000,62.000 143.000,69.000 137.000,75.000 133.349,78.651 128.555,82.528 123.000,86.000 119.316,89.067 113.732,94.273 105.590,97.946 99.156,103.182"/>
	<polygon fill="#00FF00" stroke="#800080" points="101.586,173.244 105.636,165.549 112.926,161.098 118.596,158.665 124.995,154.453 134.979,151.391 142.891,151.391 150.292,149.347 159.220,147.863 169.620,147.863 181.766,147.863 191.489,147.863 201.614,147.863 212.550,147.863 223.080,151.000 230.771,155.021 237.251,158.667 245.351,165.146 253.046,173.246 257.501,181.751 263.980,192.689 268.034,203.624 270.055,214.963 269.650,224.278 268.034,233.998 264.388,242.102 260.338,249.792 251.834,257.487 244.949,263.157 236.441,268.017 230.369,272.873 221.459,276.519 214.574,281.784 204.044,285.024 195.540,285.834 185.817,287.052 173.670,286.239 161.115,280.569 150.177,275.304 142.482,270.035 133.977,263.150 124.257,255.049 116.562,248.161 110.083,238.036 104.008,227.911 99.148,215.356 95.912,204.826 95.912,194.299 99.148,184.576 101.586,173.244"/>
	<polygon fill="#00FF00" stroke="#800080" points="410.452,122.220 403.584,128.779 397.962,136.588 393.899,145.334 390.463,154.080 387.650,162.517 387.650,171.575 387.650,181.883 390.774,189.071 395.462,195.943 400.459,200.004 401.397,210.315 404.210,214.688 412.329,221.247 420.450,227.184 428.263,232.496 436.384,237.182 442.319,239.370 452.314,239.370 461.685,239.370 471.368,237.182 479.489,234.370 487.009,228.748 491.839,223.001 497.919,214.692 502.916,206.016 509.163,198.134 514.161,191.016 517.285,180.941 517.285,169.401 513.849,158.157 508.227,151.014 501.040,144.099 493.230,135.039 485.421,127.855 480.733,122.233 475.111,115.361 466.990,110.673 457.307,108.798 447.000,108.798 437.630,110.048 430.758,111.611 420.138,115.984 410.452,122.220"/>
	<polygon fill="#00FF00" stroke="#800080" points="138.477,324.541 127.110,324.541 114.901,324.541 104.376,329.000 97.640,333.383 90.062,340.961 83.749,350.227 77.434,362.857 72.803,368.751 70.698,373.805 66.488,383.004 64.804,390.647 60.594,403.277 60.594,414.220 64.383,425.165 69.856,434.683 75.002,444.113 82.065,453.375 92.500,458.000 104.796,462.212 113.216,465.997 122.899,467.685 130.898,465.997 138.476,470.207 150.264,472.000 159.526,472.000 170.472,466.843 177.000,460.947 186.470,454.214 194.469,447.900 201.626,440.322 204.994,431.060 207.098,421.798 207.098,412.953 207.098,402.007 207.098,392.745 207.098,383.000 204.151,372.536 201.208,364.958 196.998,356.538 192.363,351.065 187.732,344.750 180.154,339.277 172.580,334.646 163.737,329.000 157.005,326.646 148.585,324.541 138.477,324.541"/>
	<polygon fill="#00FF00" stroke="#800080" points="286.668,495.469 276.143,490.000 263.513,487.050 251.725,487.050 242.885,490.000 232.781,493.634 225.207,495.470 216.787,493.634 210.472,495.470 202.894,497.992 196.581,501.360 189.003,508.938 183.107,518.200 179.318,527.887 177.000,539.250 178.892,551.884 181.418,561.692 184.365,574.197 188.996,584.722 191.500,592.300 191.500,603.663 191.500,616.718 196.149,629.348 202.464,640.291 210.463,650.395 220.146,659.236 231.834,666.814 240.775,674.392 250.879,677.760 263.509,677.760 275.297,676.072 286.664,674.388 298.870,669.336 311.079,660.069 320.344,652.995 329.185,643.229 336.763,630.178 342.657,615.865 342.657,600.290 342.657,589.346 342.657,578.400 342.657,569.000 340.135,557.773 336.346,547.000 330.869,535.886 324.975,526.199 318.660,518.200 311.507,512.000 306.030,506.835 297.189,500.939 286.668,495.469"/>
	<polygon fill="#00FF00" stroke="#800080" points="368.763,236.132 357.817,239.627 346.450,242.447 337.609,248.341 331.296,253.397 327.086,260.975 324.560,268.974 322.872,277.815 325.398,291.287 330.029,302.233 334.660,310.232 340.556,319.073 352.344,327.072 361.185,332.966 368.763,336.334 375.076,336.334 382.233,336.334 391.495,336.334 400.761,336.334 411.282,333.812 420.548,332.545 430.231,331.282 439.493,329.005 445.389,322.025 450.020,315.289 450.020,303.920 450.020,293.810 444.968,284.544 441.179,275.282 435.702,265.178 429.808,258.863 421.809,252.969 412.968,248.335 403.702,243.703 394.019,239.620 384.336,236.126 368.759,236.126 368.759,236.130 368.763,236.130"/>
	<polygon fill="#00FF00" stroke="#800080" points="356.554,512.000 365.395,508.521 375.078,503.048 381.393,498.838 387.655,496.733 396.551,493.633 402.024,489.999 407.920,487.049 413.393,482.415 417.603,476.942 422.230,472.000 426.019,463.475 429.808,453.788 429.808,444.526 430.229,437.369 428.124,428.949 427.282,422.217 423.072,415.060 418.020,408.324 412.968,403.272 409.179,398.580 402.022,390.642 394.233,384.746 387.654,378.433 383.076,375.724 378.024,370.855 370.025,366.224 363.289,361.589 356.557,358.225 349.821,354.857 342.664,352.752 334.665,351.489 326.666,351.489 318.246,351.068 312.773,352.331 306.877,353.594 299.723,356.962 291.724,359.909 285.409,365.382 278.677,370.438 272.362,375.727 266.880,383.000 259.829,390.642 257.618,402.851 257.618,417.582 257.618,430.690 259.829,445.368 263.093,458.000 270.062,472.000 276.986,481.995 288.352,490.000 300.561,495.471 311.928,499.681 324.979,504.312 340.135,509.785 356.554,512.000"/>
	<polygon fill="#00FF00" stroke="#800080" points="454.993,329.000 448.428,326.997 442.949,327.998 437.245,329.555 430.225,331.281 423.240,333.205 415.175,333.277 407.185,336.334 398.426,337.950 392.587,337.950 383.462,337.950 374.337,337.950 368.763,336.334 363.022,336.334 358.643,337.950 354.263,340.870 351.707,345.250 350.247,348.900 350.247,352.915 353.614,356.758 360.626,360.266 366.801,364.008 372.241,367.510 379.648,372.424 384.552,375.729 390.747,381.411 396.511,386.479 407.408,395.000 409.179,398.576 415.369,405.674 420.633,411.809 425.446,419.093 430.229,425.906 431.638,431.533 433.463,434.679 440.029,436.859 446.967,436.879 452.466,439.779 460.837,441.239 468.502,441.239 477.987,436.859 484.192,431.537 490.397,427.735 494.777,420.435 500.256,414.596 504.636,406.931 509.015,401.821 513.395,395.004 515.220,387.226 517.280,380.657 517.280,372.627 513.031,364.962 510.476,358.397 507.556,353.652 502.447,351.076 496.242,346.351 491.136,343.431 483.471,339.783 474.709,336.342 466.682,332.119 454.993,329.000"/>
	<polygon fill="#00FF00" stroke="#800080" points="570.948,246.912 570.948,236.131 569.000,228.182 563.875,219.442 558.048,211.534 553.469,205.707 545.561,200.712 535.156,198.215 526.832,198.215 517.282,196.137 512.264,196.137 508.132,199.403 502.909,206.005 498.965,212.568 494.772,219.324 490.905,224.032 487.005,228.738 479.485,234.360 476.053,236.135 469.273,237.643 461.682,239.358 452.311,239.358 444.005,239.633 438.287,237.871 433.765,237.758 430.229,239.633 430.229,244.000 433.765,250.659 436.514,254.822 439.844,259.721 442.758,266.476 444.423,272.719 445.672,278.543 448.167,284.370 450.018,287.047 452.470,291.446 452.470,298.105 452.470,304.348 452.470,311.006 456.491,316.995 460.237,322.243 466.897,326.993 473.973,331.816 481.881,333.481 493.116,339.308 500.590,341.805 508.102,344.719 517.281,347.217 524.753,349.296 532.659,345.552 539.735,338.892 543.897,328.996 545.978,320.579 546.810,311.008 547.227,304.349 549.498,298.522 550.998,295.192 553.054,287.046 555.968,282.288 558.048,278.126 560.544,272.738 561.792,269.385 565.954,262.994 568.998,255.231 570.948,246.912"/>
	<polygon fill="#00FF00" stroke="#800080" points="204.681,317.000 209.676,324.541 216.752,329.000 222.163,334.318 230.900,338.480 237.144,343.475 242.555,345.140 250.879,349.349 257.617,351.065 265.031,355.544 270.058,357.625 277.515,359.706 282.926,359.706 288.337,359.706 293.383,359.290 297.812,357.658 304.486,354.712 309.870,352.947 314.974,351.064 322.870,351.064 326.657,351.485 332.456,351.485 338.435,352.081 342.657,351.064 346.607,349.348 348.272,345.555 350.246,341.809 350.246,336.330 350.246,330.988 350.246,329.000 348.139,324.541 340.556,319.069 337.023,314.389 334.661,310.228 330.030,302.229 327.051,295.179 324.996,289.671 323.622,283.477 322.876,277.811 322.876,272.741 322.876,266.058 324.554,259.719 322.876,256.069 320.392,250.242 315.813,246.080 308.737,241.918 301.661,239.630 293.756,236.131 287.513,236.131 280.437,236.131 277.470,234.427 272.113,234.427 270.067,234.427 266.623,237.156 264.397,242.095 260.347,249.785 254.516,255.061 249.129,259.713 244.959,263.150 240.605,265.638 233.772,270.156 227.140,274.195 221.468,276.516 214.583,281.781 207.104,284.083 202.188,287.047 200.523,292.693 198.858,297.063 200.523,305.179 204.681,317.000"/>
	<polygon fill="#00FF00" stroke="#800080" points="276.868,363.870 276.868,369.280 272.349,375.719 266.879,382.999 262.399,387.853 259.040,395.000 257.619,400.497 257.619,407.989 257.619,412.567 257.619,417.582 257.619,426.305 258.219,434.679 257.619,439.205 259.351,442.213 259.830,447.945 262.034,453.902 263.784,459.388 265.449,462.732 266.102,472.002 263.368,475.832 263.368,475.832 257.619,479.162 250.465,482.492 244.638,484.157 238.394,487.051 230.902,487.051 222.164,484.573 215.088,482.492 209.677,479.162 204.682,475.832 200.103,472.000 198.854,467.094 195.941,463.348 193.860,460.434 193.860,455.439 194.469,447.897 200.935,442.212 205.514,434.678 207.099,428.802 207.099,418.198 207.099,410.902 207.099,402.005 208.843,395.000 207.099,386.348 207.099,379.689 204.152,372.539 203.849,365.538 207.099,358.046 215.919,351.068 222.995,349.352 231.733,349.352 239.641,349.352 245.052,349.352 252.128,351.068 257.617,353.465 265.031,355.546 270.058,359.708 274.547,362.206 276.868,363.870"/>
	<polygon fill="#00FF00" stroke="#800080" points="0.000,88.949 13.257,88.949 26.137,92.288 38.540,97.059 47.957,99.961 58.575,106.000 68.593,112.804 72.886,119.003 77.657,124.250 82.143,130.932 84.810,136.179 87.620,142.858 91.014,151.000 93.876,158.665 95.915,165.752 95.915,174.210 95.915,180.540 95.915,187.696 92.443,196.135 91.492,204.392 90.058,210.594 84.810,215.365 78.132,217.431 69.545,220.612 63.344,222.520 56.189,228.244 47.959,230.629 37.588,228.724 28.525,227.770 16.125,217.434 12.786,211.549 7.539,205.350 0.000,205.350 0.000,88.949"/>
	<polygon fill="#00FF00" stroke="#800080" points="0.000,987.827 6.185,987.827 8.388,990.582 12.794,995.537 19.953,999.942 27.663,999.942 35.923,999.942 42.528,995.537 49.687,993.272 54.000,986.602 57.950,982.871 62.352,972.408 65.659,964.698 65.659,957.000 65.659,949.829 65.659,940.471 61.804,931.658 59.051,925.052 54.000,917.889 49.139,911.828 44.183,905.770 38.505,900.263 32.830,895.857 27.662,895.857 19.952,898.611 13.891,901.919 9.486,906.874 5.083,909.074 0.000,909.632 0.000,987.827"/>
<polygon fill="#00FF00" stroke="#800080" points="0.000,754.180 6.233,757.039 14.001,760.310 21.102,765.215 26.672,768.486 32.830,774.617 38.505,779.113 40.161,785.000 42.205,789.742 42.205,793.423 42.205,799.554 44.248,803.641 49.151,805.500 54.000,803.638 57.735,799.142 62.640,795.463 67.954,791.376 73.270,785.000 77.010,779.934 83.080,770.122 85.124,761.538 85.124,752.548 85.124,743.064 85.124,735.790 81.853,727.206 79.400,721.075 74.497,715.352 69.183,709.221 65.662,706.360 58.557,703.499 51.608,697.368 42.564,694.097 38.507,694.097 32.832,691.236 26.266,692.872 22.284,696.959 18.096,700.075 15.436,704.520 10.555,711.265 7.465,713.308 2.148,713.308 0.000,713.308 0.000,754.180"/>
</g>
</svg>
