<?xml version="1.0" encoding="utf-8"?>
<!-- Generator: Adobe Illustrator 16.0.1, SVG Export Plug-In . SVG Version: 6.00 Build 0)  -->
<!DOCTYPE svg PUBLIC "-//W3C//DTD SVG 1.1//EN" "http://www.w3.org/Graphics/SVG/1.1/DTD/svg11.dtd">
<svg version="1.1" id="Layer_1" xmlns="http://www.w3.org/2000/svg" xmlns:xlink="http://www.w3.org/1999/xlink" x="0px" y="0px"
	 width="1280px" height="1024px" viewBox="0 0 1280 1024" enable-background="new 0 0 1280 1024" xml:space="preserve">
<g id="Raw_image">
	
		<image overflow="visible" enable-background="new    " width="1280" height="1024" xlink:href="normal_2.jpg"  transform="matrix(1 0 0 1 2.441406e-004 -2.441406e-004)">
	</image>
</g>
<g id="Not_annotated" opacity="0.5">
	<polygon fill="#0000FF" stroke="#800080" points="1274.718,586.008 1276,593 1271,600 1265,606 1257,609 1250,614 1243,619 
		1236,625 1228,629 1221,634 1227,639 1235,635 1245,636 1247,644 1241,649 1231,649 1219,649 1210,646 1202,644 1196,641 1188,642 
		1179,639 1173,633 1168,626 1168,618 1166,610 1163,601 1158,594 1154,586 1150,578 1143,573 1137,578 1132,580 1128,572 1123,565 
		1114,564 1109,557 1103,551 1101,541 1100,532 1107,532 1115,536 1116,528 1109,523 1106,517 1111,511 1112,504 1101,503 1093,501 
		1091,491 1089,481 1094,473 1099,467 1107,463 1116,461 1123,466 1127,459 1132,452 1143,452 1152,455 1160,459 1163,467 1163,475 
		1167,477 1167,467 1175,466 1177,474 1177,484 1181,492 1191,494 1195,487 1198,480 1198,471 1205,472 1211,478 1208,487 1208,497 
		1213,504 1221,502 1229,502 1232.829,503.66 	"/>
</g>
<g id="Clumps" display="none" opacity="0.5">
	<polygon display="inline" fill="#FF0000" stroke="#800080" points="224,972 213,971 205,967 195,965 187,961 180,956 174,950 
		168,944 159,944 150,946 139,945 131,941 123,937 116,932 109,927 104,920 101,911 98,902 97,891 99,880 102,872 108,865 115,860 
		123,856 133,854 144,855 153,858 161,862 169,866 178,869 189,870 200,871 211,872 223,872 232,875 240,879 248,883 254,889 
		260,895 265,902 267,912 267,922 265,932 263,942 260,950 254,957 248,962 240,966 231,970 	"/>
	<polygon display="inline" fill="#FF0000" stroke="#800080" points="379,409 368,408 361,403 358,394 361,385 357,377 354,368 
		352,358 351,347 354,337 354,328 358,320 366,315 373,310 380,306 388,301 397,298 407,296 415,300 422,305 429,310 433,318 
		435,328 436,339 438,349 440,358 439,365 435,374 430,381 425,388 419,394 413,399 406,404 397,408 388,406 381,408 	"/>
	<polygon display="inline" fill="#FF0000" stroke="#800080" points="863,0 871,4 875,12 875,22 874,31 879,38 883,46 885,56 884,66 
		880,75 875,82 871,90 866,97 862,105 857,111 848,115 838,116 828,116 817,115 808,112 803,105 797,99 790,94 787,85 785,75 
		782,66 779,57 778,46 780,35 785,28 791,22 799,18 809,16 817,16 817,7 	"/>
</g>
<g id="Single_nuclei" opacity="0.5">
	<polygon fill="#00FF00" stroke="#800080" points="1280,823.712 1270.005,822.275 1263,819 1257,813 1252,806 1249,797 1245,789 
		1242,780 1241,769 1240,758 1239,747 1241,737 1244,728 1249,720 1254,714 1262,709 1270,705 1280,703 	"/>
	<polygon fill="#00FF00" stroke="#800080" points="91,791 81,789 72,786 63,783 57,777 47,775 39,771 30,768 24,762 20,754 17,745 
		15,735 16,724 20,716 23,707 29,700 36,696 44,691 52,687 62,685 72,685 80,689 89,692 96,697 104,701 110,707 114,715 115,726 
		115,738 115,750 114,760 110,769 107,778 103,786 95,789 	"/>
	<polygon fill="#00FF00" stroke="#800080" points="102,497 91,496 81,494 73,490 66,485 58,481 52,475 47,468 42,461 37,454 33,446 
		29,438 27,428 24,419 22,409 23,398 24,387 25,376 28,367 33,359 39,353 46,348 53,344 60,339 66,332 74,329 83,325 92,322 
		102,322 112,324 121,327 128,332 134,338 138,346 142,354 146,362 149,371 150.083,380.197 149,389 147.134,399.855 
		143.53,407.719 138.615,416.237 135.011,425.739 135.011,437.862 137.305,448.019 137.96,459.158 136,468 132,475 127,482 121,488 
		113,493 105,496 	"/>
	<polygon fill="#00FF00" stroke="#800080" points="221,728 211,726 200,727 190,725 179,724 170,721 164,715 158,709 153,702 
		148,695 145,686 144,675 146,665 149,656 152,647 156,638 161,631 167,625 173,620 181,615 188,611 196,606 206,604 216,602 
		227,601 238,600 247,603 256,606 265,609 271,615 277,621 283,627 287,635 291,643 294,652 294,664 294,676 290,684 288,693 
		284,701 280,709 273,714 265,718 257,722 247,724 236,725 226,727 	"/>
	<polygon fill="#00FF00" stroke="#800080" points="215,227 203,227 198,220 190,216 182,212 175,207 168,202 162,196 158,188 
		159,177 160,166 164,157 170,151 177,146 184,142 191,137 198,131 203,125 210,120 221,118 230,121 237,126 245,130 252,135 
		258,141 263,148 266,157 265,168 262,177 261,186 258,195 255,203 250,210 243,216 236,220 227,223 218,226 	"/>
	<polygon fill="#00FF00" stroke="#800080" points="323,283 311,283 303,279 295,275 288,270 282,264 278,256 273,249 272,239 
		271,229 272,218 276,209 280,201 286,196 293,190 301,186 309,182 316,177 324,174 334,175 340,181 347,186 354,191 360,197 
		364,205 368,213 369,224 370,235 370,245 367,254 361,260 356,267 349,272 342,277 334,281 324,282 	"/>
	<polygon fill="#00FF00" stroke="#800080" points="337,1015 325,1015 315,1013 305,1011 297,1007 290,1002 284,996 278,990 
		273.996,982.817 273,971.131 273,961 274,950 277,940 280,932 286,925 293,920 302,917 312,915 323,914 334,915 343,918 352,921 
		360,925 368,929 374,935 380,941 382,951 384,961 380.613,969.707 375,976 370,982 364,989 360,996 356,1004 350,1010 341,1013 	
		"/>
	<polygon fill="#00FF00" stroke="#800080" points="460,936 451,933 442,930 434,926 427,921 420,916 413,911 408,904 404,896 
		399,889 396,880 395,869 396,858 399,849 404,842 409,834 414,827 420,822 430,819 441,818 452,819 461,822 469,826 476,831 
		483,836 489,842 494,849 498,857 502,865 504,875 506,885 505,896 503,906 498,913 493,919 486,924 478,928 471,933 461,935 	"/>
	<polygon fill="#00FF00" stroke="#800080" points="524.375,530 518,529 508,529 499,526 489,528 480,525.804 471,522 465,516 
		459,510 455,502 450,495 449,484 451,474 454,465 459,458 464,451 471,445 479,441 489,441 501,441 509,438 518,434 529,433 
		539,433 547.404,436.719 553,443 558,450 562,458 566,466 569,475 568,486 568,496 564,504 559,511 555,518 548,524 540,527 
		531.672,528.666 	"/>
	<polygon fill="#00FF00" stroke="#800080" points="576,830 566,828 557,825 547,823 540,818 532,814 527,807 523,799 519,791 
		516,782 514,772 516,761 518,752 521,743 525,735 530,728 536,722 544,718 552,714 562,711 573,710 584,711 593,714 603,716 
		610,721 615,728 620,735 624,743 627,752 628,763 628,775 626,784 622,792 618,801 614,809 608,814 603,821 595,826 585,827 	"/>
	<polygon fill="#00FF00" stroke="#800080" points="598,96 586,96 578,92 570,88 560,86 553,81 547,75 541,69 533,65 528,58 526,48 
		528,38 534,32 539,25 547,21 555,16 563,12 571,8 579,4 588,2 599,0 608,3 616,7 623,12 628,19 631,28 633,38 635,48 635,58 
		634,69 630,77 625,83 618,88 610,93 601,95 	"/>
	<polygon fill="#00FF00" stroke="#800080" points="736,219 724,219 714,217 705,214 698,209 691,204 684,199 678,193 674,185 
		669,178 666,169 664,159 664,149 666,138 669,129 673,121 677,114 683,107 689,102 698,98 707,95 719,95 730,96 738,100 746,104 
		754,108 761.222,112.606 766.062,117.031 770.791,121.421 774.137,126.136 779,131 781,141 783,151 784,162 782,172 780,182 
		776,190 771,197 768,205 761,211 754,215 745,217 	"/>
	<polygon fill="#00FF00" stroke="#800080" points="767,740 759,736 750,739 743,734 733,732 727,726 723,718 720,709 718,699 
		719,688 722,679 726,671 730,662 736,656 743,651 752,649 761,645 770,643 781,641 793,641 803,643 812,646 820,650 827,655 
		830,664 835,671 836,682 834,691 830,699 822,704 817,710 811,717 805,722 797,726 789,730 781,735 773,738 	"/>
	<polygon fill="#00FF00" stroke="#800080" points="823,428 812,427 802,425 792,423 784,419 778,413 772,407 768,399 766,389 
		764,379 764,369 765,358 769,349 773,342 779,335 786,330 794,326 803,323 814,322 825,323 834,326 842,330 848,336 853,343 
		856.932,350.372 859,361 862,370 862,380 860,390 857,399 853,406 847,413 841,419 834,423 826,427 	"/>
	<polygon fill="#00FF00" stroke="#800080" points="894,297 884,295 872,295 863,292 855,288 849,282 844,275 839,268 834,261 
		826,257 820,251 816,243 816,233 818,223 822,214 828,208 833,201 839,195 846,190 855,187 866,186 876,186 885,189 893,193 
		898.239,197.235 905,205 909,213 913,221 917,229 920,238 924,246 930,252 934,260 934,272 930,280 926,288 918,292 909,294 
		901.513,295.464 	"/>
	<polygon fill="#00FF00" stroke="#800080" points="887,955 876,954 869,949 862,944 856,938 850,932 846,924 841,917 839,907 
		837,897 837,885 839,874 841,865 845,856 848,848 853,840 858,834 866,829 873,824 881,820 891,818 901,816 912,817 921,820 
		931,822 939,826 946,831 952,837 957,844 960,853 960,865 961,876 960,887 958,897 955,906 951,914 946,921 940,927 935,933 
		928,939 922,944 913,948 905,951 895,953 	"/>
	<polygon fill="#00FF00" stroke="#800080" points="932,515 920,515 913,510 905,506 897,502 890,497 883,492 878,485 876,475 
		874,465 873,454 875,444 879,436 884,428 891,423 898,419 908,416 919,417 929,419 939,421 948,424 955,429 961,435 967,441 
		970,450 972,460 973,470 971,481 968,490 964,497 958,504 951,509 943,512 933,514 	"/>
	<polygon fill="#00FF00" stroke="#800080" points="980,177 969,176 960,173 957,166 952,159 942,157 936,158 932,164 923,162 
		919,154 922,145 922,137 920,127 921,116 924,107 929,100 936,94 943,89 951,85 959,81 970,80 979,80 988.68,79.731 995,83 
		1002,88 1006,96 1010,104 1015,111 1016,120 1019,129 1021,139 1024,148 1026,157 1021,165 1015,170 1005,169 996,172 987,175 	"/>
	<polygon fill="#00FF00" stroke="#800080" points="1064,458 1054,456 1045,453 1039,447 1032,442 1025,437 1020,430 1016,422 
		1013,413 1010,404 1012,394 1015,384 1019,377 1023,369 1026,360 1029,351 1033,343 1040,337 1046,331 1052,325 1059,320 1067,317 
		1078,315 1090,315 1099,318 1110,319 1118,323 1126,327 1133,332 1138,339 1143,346 1145,356 1146,367 1145,378 1144,389 1143,400 
		1140,409 1135,416 1130,423 1125,430 1120,437 1114,442 1107,447 1099,451 1088,452 1078,455 1069,457 	"/>
	<polygon fill="#00FF00" stroke="#800080" points="1198,340 1188,338 1178,336 1170,332 1163,327 1157,321 1151,315 1147,307 
		1142,300 1139,291 1137,281 1137,269 1138,258 1137,247 1138,236 1142,228 1146,220 1150,212 1157,206 1165,202 1174,199 1185,200 
		1194,203 1202,207 1210,211 1217,216 1224,221 1230,227 1234,235 1238,243 1242,251 1245,260 1246,271 1246,283 1244,293 1242,302 
		1238,311 1234,319 1229,325 1222,331 1215,335 1206,338 	"/>
	<polygon fill="#00FF00" stroke="#800080" points="1280,959.625 1272,964 1262,965 1251,964 1242,961 1235,956 1229.099,951.385 
		1222.992,945.128 1218,937 1215,928 1213,918 1214,907 1218,898 1223,891 1228,885 1234,879 1241,873 1249,869 1258,866 
		1268.016,865.155 1280,867.138 	"/>
	<polygon fill="#00FF00" stroke="#800080" points="397,405 387.951,405 379.976,402.015 371.611,398.1 365.559,390.091 
		361.11,381.191 357.194,371.58 354,361.079 352.388,351.646 353.101,341.501 354.7,331.712 360,323 366,317 372,312 379,306 
		386,301 393,297 404,295 413,296 421,300 427,306 431,314 434,323 437,332 438,343 439,354 436.753,363.215 432,371 427,378 
		423.048,384.573 417.531,391.87 411.479,397.922 404.716,402.55 	"/>
	<polygon fill="#00FF00" stroke="#800080" points="867,0 873,6 877,14 879,22 877,30 879.853,38.807 884.386,46.364 885.898,55.935 
		884.638,66.01 882,74 877,82 873,90 868,97 864,104 859,111 851,115 842,118 832,118 822,116 812,114 804,110 798.496,104.798 
		792.199,98.753 786,92 782,84 780,74 778,64 778,54 779,43 781,33 786,25 793.713,20.673 804.795,16.139 814.868,10.598 818.396,0 
			"/>
	<polygon fill="#00FF00" stroke="#800080" points="1280,467.159 1272.834,469.159 1267.166,472.492 1261.834,475.826 
		1256.797,480.978 1251.834,487.5 1247.166,493.492 1245.166,500.492 1245.166,508.826 1245.166,517.159 1247.054,524.09 
		1249.834,530.159 1253.834,535.493 1258.166,540.159 1262.584,544.493 1267.166,547.826 1271.561,551.255 1276,553.159 
		1280,553.159 	"/>
	<polygon fill="#00FF00" stroke="#800080" points="166.678,896.264 166.389,901.467 165.652,906.715 164.96,913.631 
		164.463,920.927 164.077,928.055 164.729,934.839 166.699,942.135 169.02,945.849 173.198,951.885 178.769,958.385 
		186.197,963.027 194.09,966.276 203.839,968.134 211.732,969.526 220.088,970.92 227.98,969.991 235.408,967.205 242.372,963.027 
		250.264,958.385 255.835,953.741 259.085,948.171 262.335,941.206 264.656,932.85 266.049,924.494 267.442,917.066 
		267.442,909.637 265.121,904.067 260.943,897.567 255.372,891.068 249.336,885.497 243.001,880.557 234.68,876.578 
		225.635,874.407 214.962,873.864 206.64,874.046 200.49,873.683 193.616,872.779 186.257,871.996 178.913,871.506 173.552,871.273 
		170.453,873.752 167.835,881.043 167.265,886.429 166.804,891.27 	"/>
	<polygon fill="#00FF00" stroke="#800080" points="95.655,877.591 94.262,885.946 94.726,894.767 96.584,904.052 98.664,911.879 
		102.154,918.908 108.19,925.872 114.69,932.372 122.583,937.015 129.547,941.193 137.781,944.043 145.308,945.267 154.77,945.493 
		161.228,943.69 164.007,940.086 163.532,933.157 163.235,922.584 163.827,915.48 164.715,907.932 165.288,900.929 165.805,893.906 
		166.425,886.055 167.251,879.961 169.317,874.28 169.42,869.838 168.266,867.235 165.185,864.363 160.846,861.368 155.687,858.801 
		148.58,856.236 140.223,853.451 131.402,853.451 121.189,855.772 113.331,858.878 106.333,863.2 100.761,869.235 	"/>
</g>
</svg>
