<?xml version="1.0" encoding="utf-8"?>
<!-- Generator: Adobe Illustrator 16.0.5, SVG Export Plug-In . SVG Version: 6.00 Build 0)  -->
<!DOCTYPE svg PUBLIC "-//W3C//DTD SVG 1.1//EN" "http://www.w3.org/Graphics/SVG/1.1/DTD/svg11.dtd">
<svg version="1.1" id="Layer_1" xmlns="http://www.w3.org/2000/svg" xmlns:xlink="http://www.w3.org/1999/xlink" x="0px" y="0px"
	 width="1360px" height="1024px" viewBox="0 0 1360 1024" enable-background="new 0 0 1360 1024" xml:space="preserve">
<g id="Raw_image">
	
		<image overflow="visible" enable-background="new    " width="1360" height="1024" xlink:href="normal_40.jpg"  transform="matrix(1 0 0 1 0 -2.441406e-004)">
	</image>
</g>
<g id="Not_annotated" display="none" opacity="0.5">
	<polygon display="inline" fill="#0000FF" stroke="#800080" points="568,753 560,751 557,744 555,736 553,729 558,734 563,739 
		572,740 575,747 570,752 	"/>
	<polygon display="inline" fill="#0000FF" stroke="#800080" points="1192,0 1189,4 1181,6 1171,6 1163,4 1154,3 	"/>
	<polygon display="inline" fill="#0000FF" stroke="#800080" points="1359,798 1356,793 1356,783 	"/>
	<polygon display="inline" fill="#0000FF" stroke="#800080" points="620,893 611,892 605,888 609,887 615,888 617,882 619,876 
		611,877 603,876 597,872 594,865 592,857 591,848 591,838 590,829 588,821 587,812 587,802 585,794 582,787 579,780 579,770 
		584,764 588,759 595,756 601,751 604,758 609,763 617,765 624,768 630,772 635,777 637,785 641,791 639,799 639,807 645,811 
		650,816 656,820 660,826 661,835 657,841 655,848 651,854 646,860 641,865 636,869 631,875 628,881 623,887 	"/>
</g>
<g id="Clumps" display="none" opacity="0.5">
	<polygon display="inline" fill="#FF0000" stroke="#800080" points="499,380 489,380 480,379 473,376 468,371 464,365 459,360 
		455,354 458,346 462,341 465,334 467,326 466,317 459,316 450,315 443,312 438,307 432,303 427,298 423,292 420,285 422,277 
		424,269 427,262 427,252 428,243 431,235 435,230 442,226 447,222 451,216 445,212 439,208 434,203 429,198 425,192 422,185 
		419,178 418,169 417,162 409,160 401,158 392,157 386,153 380,149 376,143 374,135 373,126 371,118 367,120 364,127 355,126 
		347,126 339,126 332,123 327,118 318,117 313,112 310,105 307,98 303,92 299,86 298,79 300,70 304,64 307,58 311,51 316,47 322,43 
		331,41 339,41 347,39 355,39 364,40 370,44 375,49 380,54 384,60 385,69 386,76 384,84 379,89 383,95 389,92 397,89 407,89 415,91 
		420,96 425,101 429,107 432,114 434,122 436,130 436,138 438,146 446,148 454,150 461,153 468,156 475,159 481,163 485,169 
		489,175 490,184 488,192 484,198 480,203 472,205 467,210 468,216 475,219 483,219 491,219 497,223 500,230 503,237 507,243 
		511,249 512,258 511,266 507,273 504,280 501,287 495,291 497,297 505,299 512,302 517,307 520,314 523,321 529,325 535,329 
		540,334 542,342 542,350 541,359 537,365 533,370 527,374 520,378 512,379 505,378 	"/>
	<polygon display="inline" fill="#FF0000" stroke="#800080" points="828,0 835,3 842,6 848,10 853,15 858,20 862,26 866,32 869,39 
		873,45 873,55 870,62 867,68 861,73 854,75 845,76 835,76 830,71 823,68 814,67 808,63 802,59 797,54 793,48 790,41 789,32 783,30 
		782,39 782,48 781,55 780,64 777,71 772,75 765,78 755,78 746,77 739,74 734,69 730,63 725,58 722,51 715,48 710,43 707,36 705,28 
		703,20 706,13 714,10 721,13 728,16 736,14 739,21 744,24 748,28 748,29 739,30 734,34 738,40 744,44 750,46 751,53 758,50 763,46 
		761,38 760,29 761,22 764,14 767,8 770,1 	"/>
	<polygon display="inline" fill="#FF0000" stroke="#800080" points="1204,331 1195,330 1190,325 1187,318 1186,311 1189,304 
		1188,297 1185,290 1183,282 1183,272 1186,265 1190,259 1196,254 1202,251 1211,249 1219,251 1226,254 1234,256 1240,260 1245,265 
		1248,272 1252,278 1252,286 1252,295 1249,302 1245,308 1240,314 1235,318 1227,320 1218,321 1211,324 1206,330 	"/>
	<polygon display="inline" fill="#FF0000" stroke="#800080" points="0,689 8,687 16,689 21,694 25,700 29,706 32,713 35,720 39,726 
		43,732 46,739 45,748 41,753 35,757 31,763 26,768 26,775 31,780 28,786 23,791 16,790 11,785 8,778 6,770 1,765 	"/>
	<polygon display="inline" fill="#FF0000" stroke="#800080" points="279,326 269,326 260,325 252,323 255,319 250,315 244,311 
		240,305 236,299 233,292 232,283 233,274 236,266 239,260 243,254 249,249 255,245 262,242 270,240 279,239 289,239 297,241 
		304,244 311,247 316,252 320,258 324,264 326,272 329,279 329,288 326,295 322,302 318,307 313,312 307,317 301,320 294,323 
		286,325 	"/>
</g>
<g id="Single_nuclei" opacity="0.1">
	<polygon fill="#00FF00" stroke="#800080" points="0,66 6,62 14,60 23,59 32,60 38,64 43,69 48,74 53,79 53,89 52,96 49,103 46,110 
		43,116 38,121 31,125 25,128 19,132 11,134 4,137 	"/>
	<polygon fill="#00FF00" stroke="#800080" points="0,192 6,188 14,187 23,187 31,189 37,193 42,198 45,205 48,212 49,221 47,229 
		44,236 41,242 36,248 30,252 23,255 15,257 7,258 1,254 	"/>
	<polygon fill="#00FF00" stroke="#800080" points="114,0 119,5 120,14 119,23 116,30 113,37 109,42 103,47 97,51 89,52 81,50 73,48 
		66,45 60,41 55,36 52,29 50,21 50,11 52,3 	"/>
	<polygon fill="#00FF00" stroke="#800080" points="96,336 87,335 79,333 71,331 66,326 61,321 58,314 56,306 56,296 57,287 61,280 
		65,274 71,270 79,268 89,268 96,271 102,275 107,280 111,286 114,293 117,300 118,309 116,316 113,324 109,329 103,333 	"/>
	<polygon fill="#00FF00" stroke="#800080" points="107,454 99,452 92,449 85,446 79,442 74,437 70,431 68,423 71,415 74,409 79,403 
		84,398 89,394 95,390 101,385 108,382 116,380 126,380 133,383 139,387 144,392 147,399 148,408 149,417 149,425 147,433 144,439 
		139,444 133,448 126,452 117,452 109,453 	"/>
	<polygon fill="#00FF00" stroke="#800080" points="124,131 116,129 109,126 103,122 98,117 94,111 90,105 88,97 88,87 91,79 94,73 
		99,68 106,64 115,63 123,65 130,68 136,72 141,77 145,83 148,90 151,97 150,106 148,113 144,120 139,125 133,128 125,130 	"/>
	<polygon fill="#00FF00" stroke="#800080" points="226,809 216,809 209,806 201,804 192,803 190,797 188,789 181,788 171,789 
		164,791 158,787 153,782 146,779 138,777 136,769 137,760 134,753 130,747 127,740 124,733 128,727 130,719 131,710 134,703 
		138,697 141,690 144,683 151,681 160,682 168,680 177,681 183,685 190,684 198,682 207,681 216,682 222,686 227,691 231,697 
		235,703 238,710 242,716 246,722 248,730 249,737 248,746 251,753 253,761 251,769 248,776 244,782 239,786 236,794 235,800 
		231,806 	"/>
	<polygon fill="#00FF00" stroke="#800080" points="179,578 169,578 160,577 152,575 146,571 142,565 138,559 136,551 135,542 
		137,534 141,527 145,522 151,517 156,513 164,510 173,511 182,512 187,517 192,522 192,530 195,537 195,545 200,550 199,559 
		196,566 192,571 186,575 	"/>
	<polygon fill="#00FF00" stroke="#800080" points="185,227.167 176.833,231.5 166.667,234 159.5,230.333 155.5,225.667 
		152.833,218.167 153.167,210 155.5,203 158.833,195.5 162.833,190.5 167,185.833 176.167,182.5 186.667,183.833 195.333,187.667 
		199.667,194.167 198.667,202.667 197.667,209.333 193.667,217 	"/>
	<polygon fill="#00FF00" stroke="#800080" points="193.667,255.166 185.667,253.166 177.667,251.166 171.667,247.166 
		167.667,241.166 163.667,235.166 166.667,234.833 170.333,234 176.333,232.833 185,228.5 192.167,219.833 198.667,210.167 
		199.833,199 201.667,191.167 208.167,190.5 214.667,190.333 224.667,191.166 230.667,195.166 235.667,200.166 237.667,208.166 
		239.667,216.166 241.667,224.166 242.667,233.166 240.667,240.166 233.667,244.166 225.667,245.166 217.667,247.166 
		211.667,251.166 205.667,253.166 196.667,254.166 	"/>
	<polygon fill="#00FF00" stroke="#800080" points="204,388 194,388 187,385 180,382 173,379 168,374 164,368 161,361 159,353 
		160,344 163,337 167,330 172,325 179,322 188,321 196,323 203,326 209,330 215,334 220,339 224,345 225,354 228,360 227,368 
		225,375 220,381 215,385 207,387 	"/>
	<polygon fill="#00FF00" stroke="#800080" points="234,137 226,135 220,131 213,128 208,123 204,117 200,111 196,105 194,97 195,88 
		198,80 201,74 206,69 213,65 222,64 231,65 238,68 244,72 250,76 254,82 258,88 261,95 262,104 261,111 259,118 255,124 250,129 
		244,133 237,136 	"/>
	<polygon fill="#00FF00" stroke="#800080" points="262,957 252,957 243,956 235,954 229,950 224,945 220,939 217,932 218,923 
		220,914 224,908 228,903 232,897 237,891 241,886 248,882 256,884 263,887 268,892 271,899 274,906 276,914 279,921 279,931 
		277,939 274,945 270,951 265,956 	"/>
	<polygon fill="#00FF00" stroke="#800080" points="301,743 293,741 285,739 278,736 273,731 268,726 264,720 263,711 265,703 
		269,697 274,691 280,687 287,684 296,683 305,684 311,688 317,692 321,698 325,704 327,712 325,720 322,727 318,732 312,737 
		306,740 	"/>
	<polygon fill="#00FF00" stroke="#800080" points="339,838 330,837 322,835 315,832 309,828 303,824 298,819 294,813 290,807 
		288,799 288,789 290,781 294,774 299,769 305,765 313,763 323,763 330,766 337,769 343,773 348,778 353,783 357,789 359,797 
		364,802 363,811 361,819 358,826 353,831 347,835 340,837 	"/>
	<polygon fill="#00FF00" stroke="#800080" points="347,955 337,955 329,953 324,948 323,939 323,931 319,925 314,920 310,914 
		310,906 315,901 325,900 332,897 338,893 344,889 350,885 359,884 367,882 375,882 382,885 384,893 388,899 390,907 387,914 
		386,923 382,929 378,935 373,939 367,944 361,948 355,952 348,954 	"/>
	<polygon fill="#00FF00" stroke="#800080" points="364.388,618.162 345.115,624.662 330,624 326,618 324,610 321,603 321,593 
		323,585 326,578 331,572 336,567 342,563 348,560 356,558 365,558 374,559 380,563 385,568 389,574 393,580 396,587 399,594 
		391.281,604.492 375.818,611.439 	"/>
	<polygon fill="#00FF00" stroke="#800080" points="376.269,665.578 366.269,665.578 358.269,663.578 352.269,659.578 
		347.269,654.578 342.269,649.578 338.269,643.578 334.269,637.578 331,626.25 350.192,623.364 368.499,615.76 380.618,609.956 
		391.318,604.544 398.75,596.75 405.269,605.578 408.269,612.578 411.269,619.578 412.269,628.578 411.269,637.578 408.269,644.578 
		404.269,649.578 399.269,654.578 393.269,658.578 387.269,662.578 379.269,664.578 	"/>
	<polygon fill="#00FF00" stroke="#800080" points="408,417 399,416 390,417 384,413 379,408 372,405 366,401 361,396 358,389 
		354,383 352,375 350,367 349,358 346,351 346,341 349,334 355,329 362,326 370,324 378,322 387,323 392,328 397,333 403,337 
		410,340 416,344 422,348 426,354 430,360 429,369 430,378 429,387 426,394 425,403 422,409 416,414 409,416 	"/>
	<polygon fill="#00FF00" stroke="#800080" points="414,1023 409,1018 405,1012 401,1006 400,997 399,988 401,979 407,977 416,977 
		423,974 432,972 441,971 447,975 451,981 457,985 461,991 465,997 466,1006 465,1014 462,1021 	"/>
	<polygon fill="#00FF00" stroke="#800080" points="443,85 434,84 427,81 420,78 415,73 412,66 411,57 414,50 418,43 421,37 425,31 
		428,24 432,18 438,13 444,9 453,8 462,9 469,12 473,18 477,24 482,29 482,37 481,46 480,55 477,62 473,68 469,73 463,78 457,81 
		449,83 	"/>
	<polygon fill="#00FF00" stroke="#800080" points="462,491 453,490 446,487 439,484 432,481 426,477 421,472 417,466 413,460 
		411,452 411,442 414,435 418,428 423,423 429,419 436,417 445,415 454,416 461,419 468,422 473,427 478,432 481,439 484,446 
		485,455 485,463 484,471 481,478 476,484 471,488 463,490 	"/>
	<polygon fill="#00FF00" stroke="#800080" points="484,590 475,589 467,587 460,584 454,580 449,575 444,570 440,564 437,557 
		435,549 434,540 435,531 438,524 442,518 447,513 453,508 459,504 466,501 475,502 482,505 488,509 494,513 499,518 503,524 
		506,531 508,539 509,548 510,556 508,564 505,572 502,578 497,584 491,588 	"/>
	<polygon fill="#00FF00" stroke="#800080" points="515,747 507,745 499,743 491,741 484,738 479,733 477,725 476,716 476,708 
		479,701 484,695 490,691 496,688 503,684 509,681 517,682 522,687 528,691 534,695 539,700 541,708 540,717 537,724 533,730 
		528,735 524,740 519,745 	"/>
	<polygon fill="#00FF00" stroke="#800080" points="539,665 530,664 522,662 516,658 511,653 506,648 501,643 497,637 494,630 
		495,620 498,613 502,608 508,603 516,601 526,601 534,603 541,606 547,610 553,614 557,620 560,627 562,635 562,645 559,652 
		555,657 548,661 542,664 	"/>
	<polygon fill="#00FF00" stroke="#800080" points="541.728,141.942 534.198,145.236 525.021,153.001 514.667,149.001 509,142 
		507,134 506,125 507,116 509,108 513,101 518,97 525,93 532,90 542,90 549,93 555,97 561,101 565,107 567.848,115.115 
		567.848,127.823 558.436,132.764 550.435,136.764 	"/>
	<polygon fill="#00FF00" stroke="#800080" points="560.706,189.823 551.706,188.823 544.706,185.823 537.706,182.823 
		532.706,177.823 527.706,172.823 523.706,166.823 524.315,153.472 533.728,146.648 543.14,140.294 556.083,133.47 565.175,130.119 
		573.731,128.529 580.706,130.823 583.706,137.823 586.706,144.823 588.706,152.823 589.706,161.823 587.706,169.823 
		583.706,175.823 579.706,180.823 573.706,184.823 566.706,187.823 	"/>
	<polygon fill="#00FF00" stroke="#800080" points="575,986 565,986 557,984 550,981 543,978 538,973 535,966 534,958 535,950 
		538,943 541,936 544,929 549,924 555,919 562,916 569,913 578,912 587,911 596,912 604,914 611,917 616,922 621,927 625,933 
		626,942 624,950 621,957 618,963 613,969 608,974 602,978 596,981 588,983 580,985 	"/>
	<polygon fill="#00FF00" stroke="#800080" points="595,748 587,746 580,743 575,738 572,731 568,715 570,699 573,692 577,685 
		588.777,680.574 604.453,678.73 618.976,683.111 627.274,688.182 635.112,694.177 643.872,702.704 645.716,710.081 643,717 
		640,723 635,729 630,733 624,737 618,741 611,744 603,746 	"/>
	<polygon fill="#00FF00" stroke="#800080" points="583.706,680.113 579.326,681.265 585.921,673.769 588.921,666.769 
		592.921,659.769 596.921,654.769 601.921,649.769 607.921,644.769 614.921,641.769 621.921,638.769 631.921,638.769 
		639.921,640.769 645.921,644.769 649.921,650.769 653.921,656.769 657.921,662.769 658.921,671.769 658.921,681.769 
		656.921,689.769 654.921,696.769 650.921,703.769 647.921,710.769 644.563,703.396 636.495,695.558 628.657,689.334 
		620.358,683.802 608.141,680.113 597.537,678.963 590.075,680.347 	"/>
	<polygon fill="#00FF00" stroke="#800080" points="607,521 597,521 589,519 583,515 579,509 577,501 576,492 578,484 581,477 
		585,470 589,465 594,460 600,455 608,453 617,454 625,456 630,461 634,467 636,475 636,485 634,493 631,500 628,506 623,511 
		618,516 611,519 	"/>
	<polygon fill="#00FF00" stroke="#800080" points="669,599 660,598 654,598 647,595 640,592 634,588 629,583 624,578 623,569 
		623,561 625,553 629,546 634,541 640,537 647,534 654,531 661,528 669,526 679,526 687,528 694,531 700,535 704,541 708,547 
		711,554 710,563 708,571 705,578 701,583 695,588 689,592 682,595 675,597 	"/>
	<polygon fill="#00FF00" stroke="#800080" points="703,152 693,152 684,151 677,148 670,145 664,141 659,136 655,130 652,123 
		651,114 652,105 655,98 659,91 664,86 670,82 677,79 685,77 695,77 703,79 709,83 715,87 720,92 725,97 728,104 729,113 731,121 
		730,130 727,136 722,142 717,146 710,149 	"/>
	<polygon fill="#00FF00" stroke="#800080" points="740,375 730,375 721,374 715,370 709,366 704,361 701,354 698,347 696,339 
		696,329 699,322 702,315 707,310 714,306 722,304 730,306 736,310 742,314 747,319 751,325 755,331 758,338 760,346 761,355 
		759,363 754,368 748,372 741,374 	"/>
	<polygon fill="#00FF00" stroke="#800080" points="735,682 725,682 718,679 713,674 710,667 710,657 709,648 711,640 714,633 
		718,627 723,621 729,618 738,616 746,618 751,623 756,628 760,634 762,642 762,652 760,660 757,666 752,672 747,676 740,680 	"/>
	<polygon fill="#00FF00" stroke="#800080" points="758,802 749,801 739,801 732,798 726,794 720,790 716,784 712,778 712,768 
		714,760 718,754 722,748 727,743 732,738 738,733 745,730 753,728 761,728 768,731 775,734 781,738 787,742 793,746 797,752 
		801,758 802,767 801,775 797,782 793,787 787,791 780,795 774,798 766,800 	"/>
	<polygon fill="#00FF00" stroke="#800080" points="796,176 788,174 781,171 774,168 770,162 768,154 766,146 765,137 769,130 
		772,123 774,116 778,109 785,106 794,105 801,103 810,103 815,108 820,113 823,120 826,127 831,132 835,138 836,147 833,154 
		829,159 824,165 819,169 812,172 805,175 	"/>
	<polygon fill="#00FF00" stroke="#800080" points="818,562 810,560 803,557 798,552 794,546 791,539 790,530 789,521 790,512 
		793,504 798,500 806,498 814,495 822,495 832,495 839,498 844,503 847,510 849,518 851,526 851,534 849,542 846,548 840,553 
		833,556 826,558 819,561 	"/>
	<polygon fill="#00FF00" stroke="#800080" points="878,664 869,663 862,660 856,656 851,651 845,647 840,642 837,635 837,625 
		840,618 844,612 849,607 855,602 862,599 871,598 879,600 886,603 891,608 896,613 899,620 900,629 902,637 900,645 897,651 
		892,656 886,660 879,663 	"/>
	<polygon fill="#00FF00" stroke="#800080" points="906,988 896,988 888,986 882,982 875,979 869,975 865,969 861,963 858,956 
		857,947 861,940 865,935 871,930 878,927 887,926 897,926 906,927 915,928 922,931 927,936 932,941 934,949 934,957 933,965 
		930,973 927,979 921,984 913,986 	"/>
	<polygon fill="#00FF00" stroke="#800080" points="894,800 884,800 875,799 869,795 863,791 860,784 861,775 864,767 866,760 
		871,755 877,750 884,747 892,745 900,747 907,749 913.26,755.186 919.168,763.459 922.95,771.26 923,781 917,786 911,790 906,794 
		900,798 	"/>
	<polygon fill="#00FF00" stroke="#800080" points="917.515,759.677 913.969,755.895 907.236,748.054 912.236,742.054 
		918.236,739.054 927.236,739.054 935.236,741.054 940.236,746.054 943.236,753.054 944.236,762.054 941.236,769.054 
		937.236,774.054 931.236,778.054 923.236,780.054 923.896,771.969 919.405,763.695 	"/>
	<polygon fill="#00FF00" stroke="#800080" points="933,352 924,351 917,348 911,344 905,340 900,335 895,330 890,325 886,319 
		885,310 887,302 887,293 890,287 893,280 896,273 901,267 906,263 913,259 920,257 929,255 939,255 948,256 957,257 963,256 
		970,258 975,263 979,269 983,275 986,282 989,289 990,298 988,306 984,311 978,315 972,319 966,324 963,330 956,333 951,338 
		945,343 941,348 934,351 	"/>
	<polygon fill="#00FF00" stroke="#800080" points="916,190 907,189 901,185 896,180 891,175 888,168 887,159 887,149 888,140 
		890,132 893,125 897,118 903,114 913,114 922,115 928,119 933,124 937,130 939,138 941,146 943,153 941,162 939,169 936,176 
		932,182 926,187 919,189 	"/>
	<polygon fill="#00FF00" stroke="#800080" points="953,896 944,895 936,893 930,889 926,883 921,878 916,873 911,868 908,861 
		907,853 908,845 911,838 918,834 925,831 933,831 940,834 947,837 954,840 960,844 965,849 968,856 971,863 972,871 970,880 
		966,886 962,891 956,895 	"/>
	<polygon fill="#00FF00" stroke="#800080" points="982,590 972,590 963,589 958,584 953,579 949,573 946,566 944,558 945,549 
		947,541 950,534 955,528 961,524 969,523 978,521 985,524 992,527 997,532 1001,538 1004,545 1007,552 1007,562 1005,570 1002,577 
		997,582 991,586 985,589 	"/>
	<polygon fill="#00FF00" stroke="#800080" points="1000,404 992,404 984,402 978,398 972,394 967,389 963,383 959,377 957,369 
		957,361 959,352 962,346 967,340 973,337 981,334 991,334 1000,335 1007,338 1014,341 1020,345 1025,350 1029,356 1030,365 
		1030,374 1027,382 1024,389 1020,394 1015,399 1008,402 	"/>
	<polygon fill="#00FF00" stroke="#800080" points="1008,156 998,156 991,153 986,148 980,144 975,139 972,132 969,125 970,115 
		971,107 974,99 977,93 981,87 986,81 991,77 997,73 1005,70 1015,70 1023,72 1033,72 1041,74 1047,78 1050,85 1050,93 1048,100 
		1044,107 1041,114 1039,121 1036,128 1032,135 1028,141 1024,146 1019,151 1012,155 	"/>
	<polygon fill="#00FF00" stroke="#800080" points="1012,755 1002,755 993,754 986,751 980,747 976,741 972,735 970,727 969,718 
		970,709 972,700 974,693 978,687 983,681 989,677 995,674 1003,671 1012,672 1021,673 1028,676 1035,679 1039,685 1044,690 
		1048,696 1049,705 1050,714 1048,722 1046,730 1043,737 1039,743 1033,747 1027,751 1020,753 	"/>
	<polygon fill="#00FF00" stroke="#800080" points="1086,641 1076,641 1070,637 1062,635 1055,632 1051,626 1048,619 1045,612 
		1044,603 1046,594 1049,588 1052,580 1056,575 1062,570 1068,566 1078,566 1087,567 1095,569 1101,573 1106,576 1111,581 1115,587 
		1120,592 1122,599 1123,607 1127,613 1127,623 1125,631 1121,637 1114,639 1107,636 1099,634 1092,637 	"/>
	<polygon fill="#00FF00" stroke="#800080" points="1111,379 1101,379 1093,377 1087,373 1080,370 1072,368 1066,364 1061,359 
		1059,351 1059,343 1062,335 1066,329 1072,325 1078,321 1086,319 1095,318 1104,317 1112,319 1118,323 1125,326 1131,330 1136,335 
		1139,342 1141,350 1140,359 1135,364 1130,368 1124,373 1118,376 	"/>
	<polygon fill="#00FF00" stroke="#800080" points="1110,90 1102,88 1093,87 1087,83 1081,79 1076,74 1071,69 1068,62 1066,54 
		1066,44 1068,36 1071,29 1076,23 1081,19 1089,16 1097,16 1106,17 1113,20 1119,24 1124,29 1127,36 1130,43 1133,50 1134,59 
		1133,67 1129,74 1125,80 1120,85 1114,88 	"/>
	<polygon fill="#00FF00" stroke="#800080" points="1115,278 1105,278 1098,275 1092,271 1086,267 1081,262 1076,257 1073,250 
		1071,242 1071,232 1073,224 1076,217 1081,212 1087,207 1094,204 1101,201 1110,200 1118,202 1125,205 1130,210 1134,216 1138,222 
		1141,229 1143,237 1143,247 1141,255 1138,262 1134,267 1129,272 1122,276 	"/>
	<polygon fill="#00FF00" stroke="#800080" points="1123,179 1114,178 1106,176 1099,173 1093,169 1088,164 1084,158 1081,151 
		1080,142 1080,132 1083,125 1087,119 1093,114 1098,110 1106,107 1115,106 1123,108 1130,111 1136,115 1141,120 1145,126 1149,132 
		1151,140 1152,148 1150,157 1147,163 1142,168 1136,173 1130,176 	"/>
	<polygon fill="#00FF00" stroke="#800080" points="1109.732,774.243 1101,772 1096,767 1091,762 1088,755 1087,746 1088,737 
		1089,728 1091,719 1095,713 1099,708 1103,702 1108,696 1113,691 1117.871,690.498 1124.434,694.698 1131.522,698.111 
		1137.56,703.886 1142,710 1145,717 1147,725 1145,733 1146,742 1145,750 1145,759 1139.66,765.58 1129.947,771.617 
		1120.233,773.718 	"/>
	<polygon fill="#00FF00" stroke="#800080" points="1119.313,790.212 1111.313,788.212 1106.313,783.212 1104.313,777.212 
		1103.694,773.192 1113.408,775.293 1122.334,774.767 1131.522,772.142 1138.348,767.679 1144.123,763.217 1146.526,770.099 
		1145.313,775.212 1141.313,780.212 1135.313,785.212 1128.313,788.212 1120.313,789.212 	"/>
	<polygon fill="#00FF00" stroke="#800080" points="1125,481 1116,480 1109,477 1104,472 1100,466 1099,457 1099,448 1102,441 
		1106,436 1110,430 1115,425 1121,420 1128,417 1137,418 1145,420 1152,423 1156,429 1159,436 1162,443 1162,451 1160,459 1156,465 
		1151,470 1145,473 1138,477 1131,479 	"/>
	<polygon fill="#00FF00" stroke="#800080" points="1200,887 1192,885 1185,882 1179,878 1175,872 1172,865 1170,857 1166,851 
		1167,841 1169,834 1173,827 1179,823 1186,820 1191,816 1196,810 1203,807 1211,805 1219,804 1227,805 1233,809 1240,812 1248,814 
		1252,820 1253,828 1250,836 1248,843 1244,850 1244,860 1242,867 1236,872 1231,876 1224,879 1216,881 1208,884 1201,886 	"/>
	<polygon fill="#00FF00" stroke="#800080" points="1216,973.75 1207.5,973.75 1199,970 1196,963 1194,955 1193,946 1197,939 
		1201,934 1206,929 1212,925 1220,922 1229,921 1238,922 1245,925 1251,929 1255,935 1257,943 1258,952 1252.5,959.25 1242,966.75 
		1232,970.25 1224.75,973.75 	"/>
	<polygon fill="#00FF00" stroke="#800080" points="1239.25,1013.75 1229.25,1013.75 1220.25,1012.75 1212.25,1010.75 
		1206.25,1006.75 1201.25,1001.75 1198.25,994.75 1197.25,985.75 1197.25,977.75 1198.25,970.75 1211.75,976 1224.25,974.75 
		1229.25,972.25 1237.75,969.75 1249,963.5 1258.75,953.5 1264.25,965.75 1268.25,971.75 1270.25,979.75 1272.25,987.75 
		1269.25,994.75 1265.25,1000.75 1260.25,1004.75 1254.25,1009.75 1247.25,1011.75 	"/>
	<polygon fill="#00FF00" stroke="#800080" points="1256,662 1246,662 1236,662 1228,660 1221,657 1214,654 1209,649 1205,643 
		1202,636 1201,627 1203,619 1208,613 1214,609 1222,607 1230,605 1237,602 1244,599 1251,596 1260,595 1268,597 1274,601 1278,607 
		1282,613 1285,620 1286,629 1284,637 1281,644 1277,649 1272,654 1266,658 1259,661 	"/>
	<polygon fill="#00FF00" stroke="#800080" points="1306,238 1297,237 1288,236 1281,233 1276,228 1271,223 1267,217 1264,210 
		1262,202 1263,193 1265,185 1268,178 1273,172 1278,168 1284,164 1291,160 1299,158 1308,159 1317,160 1325,162 1332,165 1338,169 
		1343,174 1347,180 1349,188 1349,198 1348,206 1345,214 1342,221 1338,227 1333,231 1326,235 1318,236 1309,237 	"/>
	<polygon fill="#00FF00" stroke="#800080" points="1318,894 1308,894 1301,891 1294,888 1290,882 1291,875 1290,866 1289,857 
		1290,848 1294,842 1298,835 1302,829 1306,823 1314,821 1322,819 1330,821 1337,824 1344,827 1347,834 1350,841 1349,850 1346,857 
		1341,861 1334,865 1331,872 1332,881 1330,888 1324,892 	"/>
	<polygon fill="#00FF00" stroke="#800080" points="1359,638 1354,644 1349,648 1342,651 1332,651 1324,649 1318,645 1313,640 
		1310,633 1310,623 1311,614 1313,606 1318,600 1323,595 1330,593 1339,591 1347,593 1352,598 1357,603 	"/>
	<polygon fill="#00FF00" stroke="#800080" points="1340.912,1024 1336.707,1017.622 1334.471,1010.824 1331.787,1003.399 1331,996 
		1333,988 1338,982 1344,978 1351,975 1359.999,975.671 1359.999,997.763 1359.999,1024 	"/>
	<polygon fill="#00FF00" stroke="#800080" points="287,316 277,316 267,316 258,315 250,313 243,310 237,306 233,300 230,293 
		228,285 229,275 233,270 237,264 242,259 247,253 251,248 257,243 263,239 272,238 282,238 291,239 299,241 307,243 313,247 
		317,253 322,258 324,266 326,274 325,283 322,289 318,295 313,300 307,305 302,309 296,313 288,315 	"/>
	<polygon fill="#00FF00" stroke="#800080" points="418,161 410,159 402,157 393,156 387,152 381,148 377,142 375,134 374,125 
		373,116 375,110 377,102 382,96 389,93 396,90 406,90 414,92 419,97 424,102 428,108 431,115 433,123 435,131 435,141 432,148 
		427,153 422,158 	"/>
	<polygon fill="#00FF00" stroke="#800080" points="457,216 450,213 444,209 438,205 433,200 429,194 425,188 422,181 420,173 
		420,165 424,158 429,153 434,148 442,148 450,150 457,153 464,156 471,159 478,162 483,167 486,174 489,181 487,189 484,196 
		480,201 472,204 467,208 462,214 	"/>
	<polygon fill="#00FF00" stroke="#800080" points="460,315 451,314 444,311 439,306 433,302 428,297 424,291 422,283 424,275 
		427,267 428,259 428,249 429,240 433,234 439,229 445,226 451,221 457,217 464,216 471,219 479,221 487,219 494,222 498,228 
		501,235 504,242 508,248 511,255 510,264 507,270 504,278 501,285 495,289 492,295 486,300 479,302 473,307 468,312 461,314 	"/>
	<polygon fill="#00FF00" stroke="#800080" points="498,379 488,379 479,378 473,374 468,369 464,363 459,358 456,351 460,345 
		464,339 467,332 468,323 470,314 476,310 482,306 487,301 494.158,299.108 500,300 508,302 514,306 518,312 520.646,321.545 
		513.765,324.847 506.059,329.802 501.93,335.581 497.526,343.288 497.251,354.847 500.554,365.031 504,377 	"/>
	<polygon fill="#00FF00" stroke="#800080" points="502.206,368.333 498.627,357.875 498.077,348.517 498.627,341.086 
		501.104,335.581 505.508,330.903 512.939,326.499 521.471,322.921 527.201,323.348 534.201,326.348 539.201,331.348 
		542.201,338.348 543.201,347.348 542.201,356.348 538.201,362.348 534.201,367.348 528.201,371.348 521.202,375.348 
		513.202,376.348 506.202,375.348 	"/>
	<polygon fill="#00FF00" stroke="#800080" points="363,125 353,125 343,125 335,123 330,118 322,116 315,113 311,107 309,99 306,92 
		301,87 299,79 301,71 305,65 308,58 312,52 318,47 324,43 332,43 341,42 349,40 359,40 366,43 371,48 376,53 381,58 383,66 384,75 
		384,82 379,87 377,96 375,104 372,111 367,116 364,123 	"/>
	<polygon fill="#00FF00" stroke="#800080" points="862,74 853,73 844,72 836,70 828,68 820,66 812,64 804,62 800,56 795,51 792,44 
		789,37 790,30 792,22 794,14 800,9 806,5 813,2 821,0 830,1 839,2 845,6 850,11 856,15 860,21 864,27 868,33 870,41 873,48 871,56 
		870,64 866,70 	"/>
	<polygon fill="#00FF00" stroke="#800080" points="1209,329 1199,329 1192,326 1186,322 1183,316 1184,308 1183,303 1181,295 
		1179,287 1178,278 1181,270 1183,263 1186,255 1192,252 1199,249 1208,247 1217,246 1224,249 1231,252 1237,256 1243,260 1248,265 
		1250,273 1252,281 1252,289 1250,297 1246,302 1242,308 1236,313 1231,317 1225,322 1219,325 1212,328 	"/>
</g>
</svg>
