<?xml version="1.0" encoding="utf-8"?>
<!-- Generator: Adobe Illustrator 16.0.1, SVG Export Plug-In . SVG Version: 6.00 Build 0)  -->
<!DOCTYPE svg PUBLIC "-//W3C//DTD SVG 1.1//EN" "http://www.w3.org/Graphics/SVG/1.1/DTD/svg11.dtd">
<svg version="1.1" id="Layer_1" xmlns="http://www.w3.org/2000/svg" xmlns:xlink="http://www.w3.org/1999/xlink" x="0px" y="0px"
	 width="1280px" height="1024px" viewBox="0 0 1280 1024" enable-background="new 0 0 1280 1024" xml:space="preserve">
<g id="Raw_image">
	
		<image overflow="visible" enable-background="new    " width="1280" height="1024" xlink:href="normal_27.jpg"  transform="matrix(1 0 0 1 2.441406e-004 -2.441406e-004)">
	</image>
</g>
<g id="Not_annotated" opacity="0.5">
	<polygon fill="#0000FF" stroke="#800080" points="0,744 9,743 17,747 22,754 24,764 26,774 24,784 21,792 15,799 13,809 15,819 
		16,830 16,842 12,850 7,856 0,857 	"/>
	<polygon fill="#0000FF" stroke="#800080" points="411,0 407,5 396,6 385,7 375,7 364,6 355,3 	"/>
	<polygon fill="#0000FF" stroke="#800080" points="802,908 793,905 790,898 795,890 800,897 806,903 	"/>
	<polygon fill="#0000FF" stroke="#800080" points="842,893 837,888 843,882 849,887 843,892 	"/>
	<polygon fill="#0000FF" stroke="#800080" points="863,247 856,242 859,234 864,241 	"/>
	<polygon fill="#0000FF" stroke="#800080" points="959,955 950,952 944,946 937,941 932,934 927,927 922,920 914,916 906,912 
		896,910 888,906 881,901 878,892 882,884 887,877 893,871 898,864 904,858 914,859 924,859 929,852 934,845 941,840 944,832 
		940,824 934,820 927,817 924,808 918,802 908,800 900,796 896,788 897,776 901,769 907,762 912,756 916,748 916,736 917,725 
		917,715 921,707 930,703 939,706 949,708 960,707 966,711 962,719 953,722 947,727 943,736 942,745 941,756 939,766 938,777 
		940,787 949,790 956,795 963,800 966,809 971,816 972,825 973,834 972,845 976,853 972,859 966,864 958,868 948,870 941,876 
		935,881 931,890 935,898 942,903 949,908 955,914 961,920 964,929 965,940 964,951 	"/>
</g>
<g id="Clumps" opacity="0.5">
	<polygon fill="#FF0000" stroke="#800080" points="335,584 324,583 314,581 307,576 298,573 290,569 283,564 278,557 273,550 
		271,540 270,529 272,519 278,512 285,507 292,503 297,496 292,489 286,483 278,479 275,470 276,459 280,450 284,443 290,437 
		297,432 301,424 309,419 318,416 328,414 339,413 349,412 359,409 371,409 382,408 391,411 399,415 405,421 411,427 414,436 
		418,444 421,453 424,462 424,474 423,484 420,494 415,500 410,508 408,518 410,528 409,539 405,547 402,555 396,562 390,567 
		383,572 375,577 366,579 356,581 345,582 	"/>
	<polygon fill="#FF0000" stroke="#800080" points="703,393 691,393 679,393 668,392 658,390 650,386 643,381 638,374 633,367 
		630,358 629,347 630,336 634,328 640,321 645,315 651,308 657,303 665,298 672,294 681,290 691,288 703,288 714,289 724,291 
		733,294 732,288 725,283 718,278 710,274 703,269 695,265 687,261 677,261 668,260 661,255 666,247 674,243 681,238 678,230 
		669,227 658,226 650,222 647,213 656,209 667,208 675,205 680,198 686,191 691,185 698,179 704,174 711,168 716,162 722,156 
		728,150 735,145 744,141 755,140 765,142 774,145 782,149 789,154 796,159 791,163 782,160 782,165 788,171 796,175 808,175 
		815,170 824,171 831,176 837,182 843,188 848,195 851,204 852,215 848,223 846,233 847,244 853,250 862,253 868,259 867,269 
		863,278 859,286 854,293 850,300 844,306 837,311 832,319 833,328 829,335 820,332 815,325 808,320 797,319 788,316 779,313 
		771,309 762,306 754,302 752,305 758,311 764,317 769,324 773,332 775,342 774,353 772,362 767,369 761,375 754,380 746,384 
		738,388 728,390 717,391 706,392 	"/>
</g>
<g id="Single_nuclei" opacity="0.5">
	<polygon fill="#00FF00" stroke="#800080" points="612,0 613,9 611,19 607,27 602.651,32.865 595,39 588,43 579,46 568,47 556,47 
		547,44 539,40 532,35 526,29 519.563,23.5 514.158,18.003 509.43,11.924 502,0 	"/>
	<polygon fill="#00FF00" stroke="#800080" points="1225,0 1223.109,8.208 1221,16 1217.704,22.394 1214.326,27.798 1205,35 1198,40 
		1189,44 1181,47 1170.756,47.388 1161,47 1152,44 1145,39 1139,33 1134,26 1129,19 1125,11 1122,0 	"/>
	<polygon fill="#00FF00" stroke="#800080" points="143,411 131,411 120,410 110,408 102,404 96,398 89,393 84,386 78,380 72,374 
		69,365 70,354 73,345 76,335 81,328 88,323 98,321 108,319 117,316 127.834,315.167 139,316 150,315 157,310 163.5,307.167 
		169.834,308.167 173.834,311.5 176.834,320.833 181,328 187,334 192,341 195,350 194,360 190,369 187,377 183,386 178,393 172,399 
		165,403 157,407 148,410 	"/>
	<polygon fill="#00FF00" stroke="#800080" points="0,254 9,255 18,258 26.667,262.283 33,267 38,274 42,282 45,291 45,303 44,313 
		40,321 35,329 30,336 24,342 18,347 11,352 0,356 	"/>
	<polygon fill="#00FF00" stroke="#800080" points="0,431 11.34,431.381 20.865,432.932 27,436 34,441 39,448 44,455 47,464 49,474 
		50,485 49,496 48,507 46,516 42,525 39,533 34,540 28,547 23,553 13.212,560.244 0,563.99 	"/>
	<polygon fill="#00FF00" stroke="#800080" points="167,0 171.336,7 176,15 177.753,23.407 176,34 173,44 170,53 165.932,61.574 
		163,69 157,76 152,82 143.977,87.244 137,91 127,93 116,94 105.811,91.297 99.056,87.919 93,81 89.598,73.058 86.559,65.289 
		84.87,56.508 83.519,50.09 79,43 76.764,36.242 76.764,25.096 79.128,10.91 81.83,0 	"/>
	<polygon fill="#00FF00" stroke="#800080" points="168,711 156,711 144,711 134,709 125,706 117,702 110,697 103,692 97,686 92,679 
		88,671 84,663 81,654 79,644 76,635 75,624 76,613 79,603 82,595 87,588 93,582 100,577 110,576 121,577 133,577 142,580 150,584 
		159,587 170,588 181,589 193,589 203,591 212,594 221,597 229,601 235,607 240,614 245,621 249,629 251,639 252,650 251,660 
		248,670 244,678 239,685 234,692 228,697 218,699 208,702 200,705 191,708 181,710 169,710 	"/>
	<polygon fill="#00FF00" stroke="#800080" points="176,896 165,895 157,891 149,887 140,884 134,878 128,872 124,864 119,857 
		116,848 115,837 117,827 120,818 124,810 129,803 134,795 138,788 144,781 151,776 160,773 169,770 180,769 190,771 198,775 
		206,779 213,784 219,790 225,796 231,802 236,809 240,817 241,828 241,840 239,850 237,860 233,868 229,875 224,883 218,888 
		209,892 199,893 189,895 177,895 	"/>
	<polygon fill="#00FF00" stroke="#800080" points="192,226 181,225 172,222 165,217 158,212 153,205 149,197 145,189 143,179 
		141,169 143,159 146,150 151,142 156,135 164,131 170,126 179,122 188,119 200,119 209,120 218,123 225,128 230,135 233,144 
		238,151 242,159 243,170 240,178 236,187 233,196 230,205 225,211 218,217 211,221 201,224 	"/>
	<polygon fill="#00FF00" stroke="#800080" points="188.544,1024 188.88,1013.324 192.745,1004.586 196.61,997.528 202.155,990.974 
		207.7,985.765 214.758,980.724 222,976 230.721,972.659 238.619,969.466 248.702,967.113 257.944,965 268.363,963.417 
		280.125,963.585 291.099,965.964 297.265,968.794 305.163,973.163 312.388,978.036 319.11,983.413 324.656,990.302 
		330.032,1000.217 333.225,1011.979 334.402,1024 	"/>
	<polygon fill="#00FF00" stroke="#800080" points="285,368 274,367 265,364 258,359 254,351 250,343 244,337 239,330 234,323 
		230,315 228,305 227,294 228,284 232,276 237,269 242,263 248,257 256,252 265,249 274,246 284,244 295,243 306,244 315,247 
		327,247 337,247 348,248 356,252 366,254 371,261 374,270 379,277 383,285 385,295 384,305 380,314 374,319 367,324 360,329 
		351,332 342,335 333,339 326,344 319,348 313,354 307,360 300,365 290,367 	"/>
	<polygon fill="#00FF00" stroke="#800080" points="372,198 360,198 348,198 337,197 328,194 319,191 310,188 302,184 295,179 
		290,172 286,164 282,156 279,147 279,137 278,126 279,115 281,105 283,95 287,86 291,79 296,72 303,67 310,61 317,57 325,52 
		334,49 344,47 355,46 365,48 374,51 383,54 390,59 397,64 404,69 410,75 415,82 418,91 422,99 426,107 428,117 429,128 430,139 
		430,150 427,159 422,167 417,174 411,180 404,184 396,188 387,191 379,195 	"/>
	<polygon fill="#00FF00" stroke="#800080" points="403,813 391,813 382,810 373,807 365,803 357,799 350,794 344,788 338,782 
		333,775 328,768 323,761 319,753 316,744 315,733 318,723 321,715 324,705 327,697 330,688 334,680 340,674 348,669 358,667 
		369,668 378,671 387,674 396,677 404,681 411,686 420,689 430,691 440,693 450,695 459,698 469,700 477,704 483,710 486,719 
		489,728 490,739 488,749 485,758 481,765 476,772 470,779 464,785 457,789 449,793 442,798 433,802 424,805 416,808 407,811 	"/>
	<polygon fill="#00FF00" stroke="#800080" points="487,965 476,964 466,962 457,959 448,956 442,950 435,945 428,940 421,935 
		417,927 414,918 414,908 416,898 420,889 424,881 428,874 434,868 440,861 446,855 452,850 459,845 467,841 476,837 485,835 
		495,832 506,833 517,834 527,836 535,840 543,844 550,849 556,855 560,863 564,871 567,880 568,891 568,901 566,911 563,919 
		559,927 554,934 548,940 542,946 534,951 526,955 518,958 509,961 499,963 488,964 	"/>
	<polygon fill="#00FF00" stroke="#800080" points="548,191 537,190 528,187 522,181 516,175 512,167 508,159 503,152 496,147 
		490,141 483,136 476,131 471,124 467,116 465,106 466,95 466,85 469,75 473,67 479,61 486,56 495,54 504,51 515,51 526,52 536,54 
		546,56 553,61 560,66 565,73 570,80 574,88 576,98 581,105 584,114 585,125 584,136 585,146 582,155 579,164 576,173 571,181 
		565,186 556,189 	"/>
	<polygon fill="#00FF00" stroke="#800080" points="525,462 514,461 506,457 499,452 492,447 487,440 482,433 479,424 477,414 
		478,403 480,393 484,385 490,378 496,372 502,366 508,361 516,357 525,353 535,353 545,355 553,359 560,364 568,368 574,374 
		578,382 580,392 581,402 580,414 577,423 573,431 568,438 563,445 557,450 549,455 541,459 532,461 	"/>
	<polygon fill="#00FF00" stroke="#800080" points="651,176 640,175 631,172 624,167 618,161 614,153 611,144 610,133 608,123 
		604,115 602,105 601,94 602,83 606,74 612,68 618,62 625,57 633,53 641,49 651,47 662,48 671,51 679,55 687,59 694,64 701,69 
		708,74 714,80 717,89 720,98 723,107 722,117 720,127 716,136 712,144 707,150 701,156 694,162 687,167 679,170 669,172 658,174 	
		"/>
	<polygon fill="#00FF00" stroke="#800080" points="724.38,919 716,918 706,916 696,914 688,910 681,905 677,897 675,887 673,877 
		674,866 675,855 677,845 680,836 684,827 688,819 693,813 699,806 706,801 715,798 725,796 736,795 745,798 753,802 760,807 
		766,813 771,820 776,827 780,835 783,844 784,855 785,866 784,877 779,884 774,890 768,897 762,902 756,908 750,914 741,917 
		731,919 	"/>
	<polygon fill="#00FF00" stroke="#800080" points="816,790 805,789 797,785 788,782 782,776 777,769 773,761 769,753 768,742 
		771,733 775,725 779,717 782,708 788,702 794,696 800,689 805,682 813,678 822,675 831,672 839,668 850,667 859,670 867,674 
		875,678 882,683 888,689 893,696 896,705 897,716 896,727 893,735 888,743 883,749 878,756 872,762 865,768 856,771 848,775 
		842,781 835,785 825,788 	"/>
	<polygon fill="#00FF00" stroke="#800080" points="875,561 863,561 853,559 843,557 835,553 828,548 822,542 815,537 808,532 
		801,527 795,521 789,515 784,508 780,500 777,491 775,481 775,469 778,460 782,451 787,445 793,438 799,432 806,427 815,424 
		827,424 838,425 847,428 854,433 861,438 868,443 874,449 881,454 889,458 897,462 905,466 912,471 917,478 922,485 926,493 
		928,503 928,513 925,522 922,530 917,537 911,543 904,548 897,553 889,557 880,560 	"/>
	<polygon fill="#00FF00" stroke="#800080" points="833.505,1024 827,1017 823,1009 820,1000 816,992 813,983 810,974 
		809.225,964.309 810.026,953.37 812,946 816.429,937.629 821,930 826,924 833,918 840.442,915.217 849,912.815 859.919,912.281 
		869,914 878,917 886,921 892,927 898,933 903,940 906,949 907,958.706 907,972 906,983 904,993 902,1003 898,1011 893,1017 
		885.799,1024 	"/>
	<polygon fill="#00FF00" stroke="#800080" points="925,420 914,419 904,417 895,414 886,411 879,406 872,401 867,394 863,386 
		858,379 855,370 853,360 853,348 854,337 856,327 860,318 865,311 871,306 879,302 888,298 896,294 904,291 915,289 926,290 
		935,293 944,296 951,301 957,307 963,313 967,321 971,329 975,337 975,349 976,360 976,370 973,379 968,386 963,392 957,398 
		951,405 946,412 939,417 930,419 	"/>
	<polygon fill="#00FF00" stroke="#800080" points="946,690 935,689 927,685 919,681 913,675 908,668 903,661 898,654 895,645 
		894,634 897,625 902,617 907,610 911,603 916,596 922,590 930,586 938,581 949,580 960,579 970,581 978,585 985,590 990,597 
		993,606 997,614 996,625 993,633 989,642 984,648 979,656 976,664 971,672 967,679 960,684 952,688 	"/>
	<polygon fill="#00FF00" stroke="#800080" points="952.163,243.651 945,243 935,241 926,238 920,232 914,226 910,218 910,206 
		908,196 907,185 906,174 906,164 909,155 912,146 914,136 919,129 928,125 938,123 948,121 956,117 964,114 976,113 987,114 
		996,117 1004,121 1010,127 1017,132 1024,137 1031,142 1037,148 1043,154 1046,163 1048,173 1047,184 1046,194 1042,203 1037,210 
		1031,215 1026,222 1020.115,228.09 1013.698,234 1006,238 996,240 983.926,241.811 975,241 966,241 957,243 	"/>
	<polygon fill="#00FF00" stroke="#800080" points="1060,568 1050,568 1039,567 1030,564 1022,560 1015,555 1008,550 1003,543 
		997,537 992,530 987,523 984,514 981,505 979,495 977,485 977,473 979,463 981,453 985,445 989,437 994,430 1000,423 1006,418 
		1014,413 1022,409 1032,407 1043,406 1054,407 1062,411 1070,415 1076,421 1082,427 1086,435 1091,442 1094,451 1097,460 1099,470 
		1100,481 1099,492 1100,503 1101,514 1100,524 1096,533 1092,541 1087,548 1082,554 1076,560 1069,565 	"/>
	<polygon fill="#00FF00" stroke="#800080" points="1108,333 1097,332 1088,329 1079,326 1072,321 1065,316 1059,310 1054,303 
		1049,296 1044,289 1041,280 1038,271 1037,260 1036,249 1039,239 1043,231 1049,225 1054,219 1061,213 1069,209 1077,206 1086,202 
		1092,196 1101,193 1112,192 1122,190 1130,194 1139,197 1148,200 1154,206 1159,213 1165,219 1170,226 1174,234 1175,245 1173,255 
		1171,265 1168,274 1164,281 1159,289 1155,296 1150,304 1145,311 1139,317 1133,322 1126,327 1117,331 	"/>
	<polygon fill="#00FF00" stroke="#800080" points="1280,487.584 1270.628,489.716 1261,490 1250.369,490 1240,489 1230,487 
		1219.981,485.806 1209,484 1200,481 1192,477 1185,472 1180,465 1175,458 1170.932,450.442 1168.267,441.379 1166,431 
		1165.068,421.297 1165,410 1167.2,399.083 1170,391 1174,383 1179,375 1185,369 1191,364 1198,358 1205.231,354.122 
		1214.664,351.714 1224.121,351.038 1237.632,351.714 1248.059,351.812 1255.904,349.801 1266.897,350.025 1274.716,351.99 
		1280,354.5 	"/>
	<polygon fill="#00FF00" stroke="#800080" points="1280,729 1271.666,727.947 1261,726 1253.839,721.758 1246.411,717.301 1240,711 
		1234,705 1229.574,699.721 1224,691 1221.899,682.636 1220.166,672.98 1221.652,662.582 1224.87,654.906 1229.079,647.478 
		1233,640 1239,633 1247.116,624.523 1254.774,618.439 1262.28,613.345 1270.782,608.072 1280,603.405 	"/>
	<polygon fill="#00FF00" stroke="#800080" points="407,508 397,506 387,504 377,502 367,500 356,499 345,498 334,497 323,496 
		312,495 301,494 292,491 286,485 281,478 276,471 276,459 280,451 283,442 288,435 293,428 300,422 307,417 316,414 326,412 
		336,410 347,409 358,408 369,407 379,409 389,411 398,414 404,420 410,426 414,434 419,441 423,449 424,460 426,470 425,479 
		423,489 419,497 413,502 	"/>
	<polygon fill="#00FF00" stroke="#800080" points="342,584 331,583 321,581 311,579 303,575 295,571 288,566 282,560 276,554 
		272,546 271,535 272,523 275,515 279,506 286,501 293,497 302,495 313,496 324,497 336,497 347,498 358,499 368,501 378,503 
		389,504 399,506 407,510 410,519 410,531 408,541 405,550 400,557 394,562 387,568 380,573 372,576 363,579 353,581 343,583 	"/>
	<polygon fill="#00FF00" stroke="#800080" points="702,392 690,392 678,392 667,391 658,388 650,384 643,379 638,372 633,365 
		631,355 630,344 632,334 637,326 642,320 648,314 654,307 661,302 668,297 676,293 685,290 696,289 707,290 718,291 728,293 
		735,298 743,302 751,306 757,312 763,318 768,325 772,333 774,343 773,353 770,363 765,370 758,375 752,380 744,384 735,387 
		725,389 714,390 703,391 	"/>
</g>
</svg>
