<?xml version="1.0" encoding="utf-8"?>
<!-- Generator: Adobe Illustrator 16.0.1, SVG Export Plug-In . SVG Version: 6.00 Build 0)  -->
<!DOCTYPE svg PUBLIC "-//W3C//DTD SVG 1.1//EN" "http://www.w3.org/Graphics/SVG/1.1/DTD/svg11.dtd">
<svg version="1.1" id="Layer_1" xmlns="http://www.w3.org/2000/svg" xmlns:xlink="http://www.w3.org/1999/xlink" x="0px" y="0px"
	 width="1280px" height="1024px" viewBox="0 0 1280 1024" enable-background="new 0 0 1280 1024" xml:space="preserve">
<g id="Raw_image">
	
		<image overflow="visible" enable-background="new    " width="1280" height="1024" xlink:href="normal_8.jpg"  transform="matrix(1 0 0 1 2.441406e-004 -2.441406e-004)">
	</image>
</g>
<g id="Not_annotated" opacity="0.5">
	<polygon fill="#0000FF" stroke="#800080" points="577,0 571,3 560,4 549,3 541,0 	"/>
	<polygon fill="#0000FF" stroke="#800080" points="590,1023 597,1019 607,1019 617,1021 	"/>
</g>
<g id="Clumps" display="none" opacity="0.5">
	<polygon display="inline" fill="#FF0000" stroke="#800080" points="397,1023 392,1016 387,1009 383,1001 379,993 376,984 373,975 
		371,965 371,953 372,942 375,932 378,924 383,916 389,910 395,905 403,901 413,898 424,899 433,902 440,907 446,913 451,920 
		456,927 461,934 468,936 471,927 474,918 478,910 483,903 490,897 496,892 503,887 510,881 517,876 525,872 535,870 546,869 
		557,870 565,869 561,861 555,855 548,850 540,846 528,846 517,845 506,844 497,841 488,838 480,834 474,828 468,822 463,815 
		459,807 457,797 457,785 460,775 463,767 467,759 471,751 477,744 481,737 486,729 488,720 483,713 475,709 468,704 462,698 
		458,690 457,679 458,668 457,657 456,646 458,636 463,628 469,622 476,617 484,613 493,610 503,608 514,607 525,608 534,611 
		540,617 545,624 548,633 552,641 555,650 559,658 563,666 572,669 580,665 587,660 592,654 598,647 600,638 599,627 593,621 
		582,622 571,621 562,618 554,614 546,610 539,605 531,601 523,597 517,591 512,584 509,575 508,564 511,554 515,547 520,540 
		526,534 533,529 540,524 548,519 558,517 568,515 578,517 585,522 594,525 602,529 608,535 613,542 617,550 621,558 627,564 
		636,562 645,558 656,557 666,557 675,560 684,563 693,566 700,571 706,577 710,585 714,593 718,601 721,610 723,619 721,630 
		718,639 714,646 708,653 702,658 694,663 687,668 682,675 681,686 680,697 677,706 674,714 669,722 665,729 659,735 652,741 
		645,746 639,752 636,761 640,769 646,775 652,781 657,788 661,796 664,805 663,816 662,827 661,838 665,846 671,852 679,856 
		688,859 697,862 704,867 712,871 719,876 725,882 730,889 734,897 738,905 741,914 742,925 740,934 736,943 733,951 728,959 
		723,965 717,971 709,976 700,979 692,982 682,984 672,986 660,986 650,984 641,981 633,977 625,973 617,969 608,966 600,962 
		593,957 583,959 577,965 571,971 564,977 557,982 549,986 540,988 528,988 516,988 507,985 498,982 492,976 485,971 480,975 
		483,984 485,994 486,1005 485,1016 	"/>
	<polygon display="inline" fill="#FF0000" stroke="#800080" points="1004,646 992,646 982,644 973,641 966,636 960,630 955,623 
		948,618 941,613 935,607 930,600 925,593 918,594 912,601 906,606 898,610 890,614 882,618 873,621 863,623 853,625 842,626 
		831,625 821,623 812,620 804,616 797,611 790,606 784,600 779,593 775,585 772,576 771,565 772,554 775,544 779,536 784,529 
		789,523 795,517 802,512 810,507 817,503 825,499 834,496 844,493 854,491 866,491 877,492 886,495 893,500 898,507 904,513 
		909,520 915,526 920,533 927,537 932,530 937,523 944,517 950,512 958,507 966,503 973,498 978,492 984,485 992,481 999,476 
		1006,471 1015,468 1025,466 1036,467 1043,472 1048,479 1051,488 1052,499 1054,509 1055,520 1054,531 1054,543 1052,553 1051,564 
		1050,575 1049,586 1052,595 1053,606 1050,615 1045,622 1039,627 1030,630 1022,635 1015,640 1008,644 	"/>
	<polygon display="inline" fill="#FF0000" stroke="#800080" points="871,1023 867,1015 870,1006 875,998 877,989 880,980 885,972 
		887,963 881,957 873,953 862,953 852,952 844,948 838,942 832,936 827,929 822,922 822,910 823,899 828,891 832,884 837,876 
		843,870 849,864 856,859 863,854 872,857 881,855 888,853 900,853 907,856 915,860 923,864 927,872 929,882 934,889 937,898 
		940,907 941,918 941,930 939,940 944,947 952,951 960,955 966,961 972,967 979,972 990,973 996,979 994,989 991,998 987,1005 
		982,1012 976,1019 	"/>
	<polygon display="inline" fill="#FF0000" stroke="#800080" points="333,388 321,388 310,387 301,384 292,381 284,377 276,373 
		270,367 264,361 260,353 256,345 253,336 252,325 252,315 254,305 257,296 261,288 267,282 274,276 282,272 291,269 300,266 
		311,265 321,265 332,266 344,266 353,269 362,272 370,276 378,280 383,276 382,265 383,254 383,242 385,232 388,223 391,214 
		396,206 401,199 406,192 411,186 417,180 424,174 432,170 440,167 451,165 463,165 474,166 483,169 490,174 497,179 502,186 
		507,193 510,202 511,213 512,224 513,235 513,247 511,257 508,266 504,274 499,281 494,287 488,294 483,300 477,307 471,312 
		463,317 454,320 444,321 432,321 423,318 415,314 406,311 399,315 400,326 400,338 397,347 394,355 389,363 384,369 378,375 
		370,380 361,383 351,385 341,386 	"/>
</g>
<g id="Single_nuclei" opacity="0.5">
	<polygon fill="#00FF00" stroke="#800080" points="202.25,1024 204.25,1015 209.25,1008.25 215,1004 223.5,1002.25 234.5,1002.25 
		245,1002.75 256.5,1005 265.5,1007.5 274,1011 281,1016.5 289.25,1024 	"/>
	<polygon fill="#00FF00" stroke="#800080" points="1280,909.625 1272.5,912.75 1266,916 1260.25,919.5 1257.25,922.25 
		1251.75,924.75 1246.75,927 1240,928.25 1232.5,925.75 1228.25,920.5 1224,915.75 1220.191,911.25 1217.75,905.5 1216.5,902 
		1213.5,892 1213.75,882.5 1215,874 1216.75,866.25 1218.75,857.75 1221.5,850 1225,843.75 1231.5,837.5 1239.25,831.75 
		1246.75,826.25 1256.5,820.5 1268.5,816.75 1280,815 	"/>
	<polygon fill="#00FF00" stroke="#800080" points="0,736.5 8.356,739.273 16.924,742.368 25,746.651 29.776,750.697 35.725,756.173 
		40.485,762.597 42.627,769.023 45.007,778.781 46.197,787.824 45.721,798.297 43.103,807.816 40.961,817.097 38.105,826.141 
		35.249,834.709 30.49,841.373 25.73,847.56 19.304,854.464 14.544,858.746 8.594,862.554 0,868.742 	"/>
	<polygon fill="#00FF00" stroke="#800080" points="0,616 7,612 17,609 26,606 35,603 44,601 51,596 61,593 72,594 82,596 91,599 
		102,598 110,602 112,612 111,623 109,633 109,643 110,654 107,663 102,670 96,676 89,681 81,684 74,689 68,695 62,702 55,706 
		44,705 35,702 27,698 18,695 12,689 4,685 	"/>
	<polygon fill="#00FF00" stroke="#800080" points="111,139 99,139 87.912,136.723 80,134 71,131 63,127 55,123 47.374,119.404 
		40,114 34.241,108.175 29,101 26.057,92.568 26,82 28,72 32,64 37.477,56.787 43.186,50.697 49,45 55.177,41.181 63,35 
		69.071,29.381 76,23 83.916,19.674 91.719,16.629 102.187,16.058 112.655,17.01 122,19 131,22 140,25 149,28 157,32 164,37 
		170.703,42.323 176.794,48.413 182,55 184.217,62.687 183.836,73.155 182,82 179.078,91.807 175,100 169.752,107.604 165,114 
		159,119 151,124 143,128 135,131 126,134 117,137 	"/>
	<polygon fill="#00FF00" stroke="#800080" points="131,353 120,352 110,350 101,347 92,344 84,340 77,335 71,329 65,323 61,315 
		58,306 57,295 58,284 61,274 64,266 68,257 73,251 81,247 88,242 96,237 105,235 117,234 127,236 136,239 142,245 149,250 155,256 
		161,262 166,269 170,277 172,287 174,297 174,309 173,320 171,329 166,337 160,342 153,347 143,350 134,352 	"/>
	<polygon fill="#00FF00" stroke="#800080" points="191,810 179,810 170,807 161,804 152,801 145,796 137,792 132,785 126,779 
		121,772 116,765 112,757 108,749 104,741 102,731 103,719 105,710 109,702 114,695 120,689 126,683 133,677 140,673 148,668 
		157,665 167,663 179,663 190,664 200,666 209,669 217,673 224,678 231,683 237,689 240.875,697.386 245.159,706 246.349,714.998 
		247.777,724.757 248.253,736.5 246.889,744.456 243.889,754.456 241.589,761.5 238.019,771.164 232.783,777.591 228,784.255 
		222.788,790.441 217.076,795.915 212,801 204,805 196,809 	"/>
	<polygon fill="#00FF00" stroke="#800080" points="241,633 229,633 219,631 210,628 202,624 196,618 190,612 185,605 181,597 
		177,589 173,581 172,570 169,561 168,550 169,539 171,529 173,519 177,510 181,503 186,495 192,490 200,485 208,482 218,479 
		230,479 240,481 249,484 256,489 263,494 268,501 274,507 278,515 282,523 285,532 287,542 288,553 288,565 286,575 283,584 
		279,592 275,600 271,607 266,614 260,621 254,627 247,631 	"/>
	<polygon fill="#00FF00" stroke="#800080" points="250,975 240,973 231,970 223,966 217,960 212,953 208,945 205,936 201,928 
		199,918 198,907 199,896 202,887 206,878 210,870 214,863 218,855 223,848 229,841 236,836 244,833 253,829 263,827 273,825 
		283,823 293,821 305,821 314,824 322,828 328,834 333,841 335,851 338,860 339,871 338,882 337,893 335,903 332,912 328,920 
		324,928 320,936 315,943 310,949 304,955 297,961 290,965 282,969 273,972 263,974 251,974 	"/>
	<polygon fill="#00FF00" stroke="#800080" points="384.3,0 391.198,5.577 397,13 401,21 404,30 405,41 405,53 403,63 402,74 399,83 
		395,91 390,97 383,103 375,107 367,110 356,111 345.064,110.781 334.501,109.703 325.659,107.116 318.115,102.805 311.218,97.846 
		305.181,92.241 300.008,86.636 293.324,80.385 287,74 283,66 281,56 280,45 280,33 280,21 283,11 288.151,0 	"/>
	<polygon fill="#00FF00" stroke="#800080" points="362,540 350,540 339,539 330,536 323,531 317,525 311,519 305,513 301,505 
		297,497 296,486 297,474 298,464 301,455 304,446 309,439 314,432 320,426 327,420 335,416 342,412 352,409 363,408 374,409 
		384,411 393,414 401,418 407,424 413,430 418,437 421,446 424,455 425,466 425,476 423,486 420,495 416,503 412,511 407,518 
		401,524 395,529 387,533 378,536 368,538 	"/>
	<polygon fill="#00FF00" stroke="#800080" points="390,821 378,821 366,821 356,819 347,816 338,813 332,807 325,802 319,796 
		314,789 309,782 305,774 302,765 299,756 297,746 299,735 302,727 306,719 312,712 318,707 327,704 338,702 349,703 358,706 
		367,709 375,713 383,717 390,722 397,727 404,732 410,738 415,745 420,752 424,760 426,770 426,782 424,792 420,800 415,807 
		409,812 402,817 393,820 	"/>
	<polygon fill="#00FF00" stroke="#800080" points="398,637 387,636 379,632 371,628 365,622 359,616 354,609 351,600 349,590 
		351,580 355,572 361,565 367,559 373,553 379,547 385,541 393,538 403,535 413,535 424,536 434,538 444,540 453,543 461,547 
		467,553 472,560 477,567 479,577 479,588 475,597 471,605 465,610 458,615 450,619 442,624 434,627 425,630 415,632 405,635 	"/>
	<polygon fill="#00FF00" stroke="#800080" points="499,534 488,533 478,531 470,527 462,523 455,518 450,511 445,504 442,495 
		439,486 438,475 439,463 441,454 445,446 450,438 455,432 462,427 469,422 478,418 488,417 499,417 508,420 517,423 523,429 
		528,436 533,443 536,452 539,461 541,471 542,482 542,493 539,503 536,512 532,520 526,526 518,529 508,531 	"/>
	<polygon fill="#00FF00" stroke="#800080" points="595,411 583,411 572,410 563,407 554,404 546,400 538,396 532,390 526,384 
		522,376 520,366 520,355 522,346 526,337 530,330 536,323 542,317 550,313 558,309 568,307 579,308 588,311 596,315 605,318 
		611,324 617,330 622,337 625,346 630,353 630,365 628,375 625,384 622,392 617,399 610,405 602,409 	"/>
	<polygon fill="#00FF00" stroke="#800080" points="602,196 591,195 581,193 573,189 565,185 558,180 551,175 545,169 540,162 
		535,155 532,146 531,135 532,124 534,114 538,106 542,98 548,91 554,86 561,81 570,77 579,74 590,73 601,74 607,80 613,86 618,93 
		623,100 627,108 630,117 632,127 633,138 636,147 638,157 638,168 633,176 628,183 622,188 614,192 605,195 	"/>
	<polygon fill="#00FF00" stroke="#800080" points="703,543 692,542 683,539 673,537 666,532 659,527 655,519 653,509 651,499 
		648,490 645,481 642,472 638,464 635,455 636,444 641,436 648,431 658,429 668,431 677,434 687,436 696,439 703,444 710,449 
		717,454 724,459 729,466 734,473 736,483 737,494 736,505 734,515 731,523 726,530 720,536 712,541 	"/>
	<polygon fill="#00FF00" stroke="#800080" points="776,154 764,154 754,152 746,148 738,144 731,139 725,133 718,128 712,122 
		706,116 701,109 696,102 692,94 689,85 688,74 687,63 689,53 692,43 696,35 700,28 706,22 712,16 719,11 728,7 737,4 748,3 759,4 
		769,6 779,8 788,11 795,16 803,20 809,26 815,32 820,39 825,46 829,54 832,63 835,72 836,83 835,94 833,104 830,113 826,121 
		821,128 815,134 809,140 802,145 795,149 786,152 	"/>
	<polygon fill="#00FF00" stroke="#800080" points="790,458 779,457 769,455 760,452 752,448 746,442 740,436 734,430 730,422 
		726,414 723,405 723,395 723,383 725,373 729,365 734,358 740,351 747,346 755,342 763,339 774,337 785,338 794,341 801,346 
		807,352 811,360 816,367 820,375 824,383 826,393 827,404 826,415 823,424 820,433 815,440 810,447 804,452 796,456 	"/>
	<polygon fill="#00FF00" stroke="#800080" points="893,268 882,267 871,266 861,264 852,261 844,257 837,252 832,245 828,237 
		826,227 824,217 826,207 828,197 832,188 836,180 841,173 847,167 854,162 859,156 863,148 869,142 878,138 888,136 898,138 
		907,141 915,145 922,150 929,155 935,161 940,168 944,176 946,186 947,197 946,207 942,216 939,225 936,233 931,241 926,247 
		920,253 913,258 906,263 898,267 	"/>
	<polygon fill="#00FF00" stroke="#800080" points="944,444 933,443 924,440 916,436 909,431 904,424 901,415 898,406 897,395 
		898,384 897,373 894,364 892,354 895,344 899,337 906,332 914,327 925,326 936,327 947,326 957,324 969,324 979,324 987,328 
		994,333 999,340 1001,350 1004,359 1005,370 1008,379 1008,390 1003,398 998,405 993,411 986,417 980,422 973,427 967,433 961,439 
		952,442 	"/>
	<polygon fill="#00FF00" stroke="#800080" points="1011,789 1000,788 991,785 984,780 977,775 972,768 968,760 965,751 962,742 
		961,731 960,720 960,708 962,698 966,690 970,682 975,675 982,669 987,663 996,659 1005,656 1016,655 1027,654 1038,655 1046,659 
		1052,665 1058,671 1063,678 1067,686 1066,697 1065,707 1062,717 1059,726 1055,733 1051,742 1050,753 1046,761 1043,769 1037,776 
		1030,781 1023,785 1014,788 	"/>
	<polygon fill="#00FF00" stroke="#800080" points="1060.25,972.5 1053,971.25 1046.25,969.75 1038,966 1029.25,959 1023,954 
		1018.75,949.25 1012.25,944 1008.75,939 1003.75,933.5 997.655,924.75 994.75,916.25 991.5,907.5 989.5,898 989,890.25 
		990.75,881.5 994.25,875 998.75,868.25 1005,863 1012,859.25 1019.75,856 1029.25,851.75 1038,849 1047.5,847.5 1058,846.75 
		1067.75,847.25 1076.75,848.75 1085,851.25 1091.5,854.5 1098.75,859 1106.25,864.25 1112.75,871 1118.25,876.75 1122.75,884.75 
		1127,895 1128.75,904.75 1128.75,916.5 1127,925.75 1123.5,935.25 1119,943 1114,949 1108,955 1101,960 1094,965 1086,969 
		1076.75,971.5 1068.25,972.5 	"/>
	<polygon fill="#00FF00" stroke="#800080" points="1154,483 1143,482 1132,481 1123,478 1115,474 1107,470 1100,465 1094,459 
		1090,451 1086,443 1083,434 1080,425 1078,415 1079,404 1081,393 1085,386 1090,379 1096,373 1103,367 1111,363 1122,362 1133,363 
		1141,367 1150,370 1158.22,374.512 1165,379 1171,385 1177,391 1182,398 1186,406 1189,415 1190,426 1188,436 1186,446 1184,455 
		1179,463 1174,470 1168,476 1161,480 	"/>
	<polygon fill="#00FF00" stroke="#800080" points="1091,1024 1091,1015.25 1093.75,1007.25 1098.75,1000 1104.75,993.75 1111.5,988 
		1118,982 1124.5,978 1132.25,974 1140.5,970.75 1148.25,968.75 1157.75,968 1168.75,968.25 1180.25,969.5 1189,972.5 1198.25,976 
		1205,980.75 1211,986.75 1215.5,993.75 1218,1000.75 1220.191,1013.509 1220,1024 	"/>
	<polygon fill="#00FF00" stroke="#800080" points="1142.97,136.041 1134.453,136.004 1125.125,135.833 1115,134 1107,130 1101,124 
		1096,117 1091.72,108.86 1089,100.56 1089,88.733 1089,79.603 1090.89,69.644 1093.587,60.514 1097.945,53.46 1102,47 1108,41 
		1115,36 1124,32 1133,29 1142,30 1150,34 1156,40 1161,47 1167,53 1173,59 1178,66 1183,73 1186,82 1186,92 1185,103 1183,112 
		1178,119 1170.774,125.251 1163.304,129.401 1157,132.513 1150.233,135.003 	"/>
	<polygon fill="#00FF00" stroke="#800080" points="1171,310 1159,310 1149,308 1140,305 1131,302 1123,298 1116,293 1110,287 
		1104,281 1100,273 1096,265 1093,256 1090,247 1089,236 1090,225 1091,214 1095,206 1100,198 1105,191 1111,185 1118,181 1127,177 
		1137,175 1147,173 1158,172 1168,174 1177,177 1185,181 1192,186 1199,191 1205,197 1210,204 1215,211 1218,220 1221,229 1224,238 
		1225,249 1224,260 1221,268 1216,276 1212,283 1205,289 1199,295 1193,300 1185,305 1177,308 	"/>
	<polygon fill="#00FF00" stroke="#800080" points="1280,430.873 1270.679,431.916 1260.24,430.873 1251.367,429.049 
		1241.195,425.915 1235.193,422.5 1229.192,417.304 1223.712,411.042 1219.534,404.519 1216.146,397.735 1214.576,387.82 
		1213.637,377.45 1215.102,370.338 1218.754,362 1223.191,355.204 1228.931,347.376 1234.671,341.897 1240.933,335.895 
		1246.507,332.503 1254.5,328.85 1265.198,327.285 1280,327.285 	"/>
	<polygon fill="#00FF00" stroke="#800080" points="1280,161 1270.366,158.657 1263.522,156.167 1256.053,151.395 1250.24,146.415 
		1244.848,139.983 1239.242,133.758 1235.096,126.911 1231,117 1229,107 1230,95 1232,85 1235,77 1240,70 1246,63 1252,57 
		1262.9,50.969 1272.237,45.99 1280,43.292 	"/>
	<polygon fill="#00FF00" stroke="#800080" points="448,322 438,320 429,317 419,315 412,310 406,304 401,297 395,291 391,283 
		389,273 386,264 384,254 385,245 388,236 392,227 395,219 398,210 402,201 406,193 413,188 420,183 426,178 434,173 443,171 
		453,168 463,168 473,170 483,172 491,176 496,183 501,190 504,199 506,209 508,219 509.651,229.514 510.021,239.428 
		508.74,251.179 506.501,260.646 502.776,269.736 498,279 493,286 487,292 482,298 476,304 469,310 462,314 454,318 	"/>
	<polygon fill="#00FF00" stroke="#800080" points="327,387 317,385 308,382 299,379 290,376 281,373 275,367 270,360 265,353 
		260,346 257,337 256,326 256,314 256,304 259,294 263,286 270,281 277,277 286,273 296,271 305,269 315,266 326,267 337,268 
		347,270 357,272 366,275 375,278 380,285 385,292 390,299 392,309 394,319 395,330 393,340 390,349 386,356 380,362 374,368 
		368,375 362,380 352,382 342,384 332,386 	"/>
	<polygon fill="#00FF00" stroke="#800080" points="480.75,1019 478.5,1024 459.5,1024 443,1024 430.75,1024 419.25,1024 403,1024 
		398.75,1017.5 393.25,1010.5 387.75,1002.25 383.25,995.25 379.75,989 376,979 374,969 373,958 373.5,948.25 375,940 378,931 
		382,923 387.25,916 393,910 400,905.5 408,902 417,900.5 426,902 434,906 440,912 445,919 450,926 454,934 458,942 463.25,949.75 
		467,957 471,965 475,973 477.5,981.5 480,992 482,1002 482,1014 	"/>
	<polygon fill="#00FF00" stroke="#800080" points="544,987.5 535,989 523,989 513,987 503.5,985.5 494,982 487,977 482,970 478,962 
		476,952 475,941 475,931 477,921 482,911.75 485.75,906.75 491.75,903.5 498.25,898 505,894 510.5,889.25 519.779,881.685 
		526.5,876.5 536.5,874 546.5,873.75 556.25,876.5 563.5,881.5 569.5,886.75 573.75,893.25 579.25,900.5 582.75,910.75 584,921.5 
		584,932.25 582.75,944 580.25,954 576,963 571,969 564,975 558,980 551,985 	"/>
	<polygon fill="#00FF00" stroke="#800080" points="594,871.625 584,871.625 576.5,866.5 572,859 566.5,851 562.447,841 562.447,832 
		566,820 570,813 575,806 580,798 585,792 591,786 597,780 603,774 614,772 624,770 632,772 640,776 648,780 652,788 656,796 
		659,805 660,816 658,825 653,833 649,841 643,846 635,853.5 630.5,858.5 623,863 612.617,866.5 603.5,869.5 	"/>
	<polygon fill="#00FF00" stroke="#800080" points="678.75,987.5 668.75,986.5 658,985 648,983 639,980 630,977 622,973 616,967 
		611,960 604.75,954 600,946.75 597,938 596,929 596,917.75 599,908 603,900 607,892 612,884 615.75,876.25 622.5,871 631.75,866 
		642.75,864.25 654.75,863 665.875,864 675,867 684,870 694,872 703,875 710,880 717,885 723,891 727,899 731.5,907.5 734,916 
		735.75,926 735.75,936.75 731.75,946.75 727.5,955 722,962.25 717.25,970.5 711,975 705,980 696,983 687,986 	"/>
	<polygon fill="#00FF00" stroke="#800080" points="540,841 528,841 516,841 504,841 492,841 486,835 481,828 475,822 470,815 
		468,805 467,796 469,786 472,777 475,768 480,761 487,755 493,749 498,742 503,735 508,728 513,721 519,716 527,712 535,708 
		544,704 555,703 566,702 574,706 579,713 585,719 591,725 595,733 597,743 598,754 598,763 594,772 591,781 586,788 582,795 
		577,803 572,810 568,817 563,824 556,829 548,834 542,839 	"/>
	<polygon fill="#00FF00" stroke="#800080" points="995,646 989,644 980.5,639.5 974.5,637 968,629.5 960,623 955.5,617.5 
		947,612.54 939,610 932,605 928,597 927,586 927,574 927,562 929,552 931,542 933,532 938.5,525 943,518 951,513 958,508 966,505 
		972.5,497 979.5,493.5 987,486 993,479 1001,473.5 1008,470 1018,467 1028,470 1038.5,474.5 1044.5,480 1048.5,488.5 1051,495 
		1052,506 1052,518 1051,529 1051,541 1050,552 1049,563 1048,573 1048,584 1050,594 1052,604 1049,612 1045,620 1036,624 
		1027.5,629.5 1021,633 1016,639 1008,643 999,646 	"/>
	<polygon fill="#00FF00" stroke="#800080" points="852,623 841,622 830,621 820,619 812,615 804,611 796,607 789,602 785,594 
		780,587 777,578 775,568 775,558 777,548 783,541 788,535 794,529 801,523 807,517 813,511 821,507 829,503 838,500 848,498 
		857.5,494 870.5,494 882,497 888.552,499.62 896,508 902,514 907,521 912,528 916,536 920,543 923,551.5 923,565 922,574 919,583 
		916,591 912,600 905,604 897,608 890,613 881,617 871,619 862,621 	"/>
	<polygon fill="#00FF00" stroke="#800080" points="912,959 900,959 893,954 885,950 876.5,946.25 865,946 853,946 846,943 839,938 
		832.5,933 827,924.25 827,914.75 830,903.5 833,894.5 838,885 842,877 846,869 852,862 861,859 870,858 879.75,861.5 889,858.25 
		899.5,856 907,859 914,864 920,870 926,876 931,883 935,891 936,902 938,912 936,922 935,933 933,943 929,950 922,955 913,958 	"/>
	<polygon fill="#00FF00" stroke="#800080" points="874.5,1024 873,1019 870,1012.25 870,1007 874.5,1000.25 879,993 882,984 
		886,976 892,969 899,964 907,961 916,957 925,954 935,952 946,953 955,956 962,961 967,968 972.5,975 978.25,980.25 985.25,976.75 
		992,976.5 997.655,981.635 995,994.5 989.25,1004 978.5,1016.75 965.25,1024 	"/>
	<polygon fill="#00FF00" stroke="#800080" points="462.229,638.521 465.986,633 472.133,626.909 479,620.762 487.157,617.688 
		496.381,614.615 505.943,612.565 513.798,612.565 522.281,613.911 529.09,616.53 534.631,621.103 540.263,627.008 543.852,633 
		546.925,640.912 548.974,649.108 550.911,658.259 550.911,666.287 549.691,673.969 546.897,678.683 542.882,683.923 
		537.819,689.856 532.5,694.188 524.726,698.287 517.554,702 510.383,705.117 504.236,707.849 497.745,709.218 492.281,709.218 
		484.769,707.849 482.035,705.802 479,704.522 474.523,703.753 471.448,702 467,699.994 462.229,694.53 460.863,687.358 
		464.278,679.506 467,671.648 465.302,662.427 463.253,656.28 460.863,649.791 459.494,643.985 	"/>
	<polygon fill="#00FF00" stroke="#800080" points="627.569,662.385 618.116,663.193 610.286,666.433 604.076,670.216 
		599.488,676.426 595.168,683.984 592.468,691.274 590.308,697.484 588.688,704.507 590.036,712.337 592.468,718.814 
		595.978,724.757 600.298,731.507 604.888,735.015 610.558,737.718 616.496,740.145 623.247,741.495 629.459,741.495 
		635.669,741.495 641.339,739.065 645.657,736.095 651.06,731.507 655.11,726.375 657.537,721.785 660,717.467 662.67,712.064 
		664.56,706.394 666.448,702 666.448,696.676 666.448,689.654 665.1,684.796 663.48,679.393 660,674.533 655.919,669.943 
		649.98,666.703 642.419,663.733 635.669,662.653 	"/>
	<polygon fill="#00FF00" stroke="#800080" points="516.865,551.136 520.646,546.276 524.696,543 529.016,537.906 534.416,534 
		539.276,529.805 544.677,527.105 550.911,523.325 557.906,521.705 563.847,520.088 572.757,520.088 578.427,523.055 
		584.097,526.298 588.688,527.916 594.088,530.076 598,534 601.648,540 603.2,544.257 605.428,549.246 608.398,554.378 610.955,560 
		612.156,564.656 612.617,569.362 612.617,574.072 611.603,577.764 609.849,582.103 608.668,586 606.778,592.719 604.888,596.767 
		602.728,602.17 600.728,606.783 599.151,610.302 595.39,613.577 591.144,615.884 587.141,617.34 583.557,618.638 577.615,618.638 
		573.837,618.638 569.245,617.558 563.847,615.13 559.797,612.54 557.731,609.561 555.477,607.268 553.857,605.408 552.323,603.264 
		550.911,601.687 548.994,600.55 546.257,598.655 543.95,597.32 540.625,595.959 534.416,595.42 528.204,593.8 522.806,590.827 
		518.216,587.317 515.515,582.457 513.625,578.136 512.276,575.169 512.276,570.846 512.276,565.446 512.276,560 514.436,554.106 	
		"/>
	<polygon fill="#00FF00" stroke="#800080" points="1275.025,969.923 1269.318,964.273 1264.638,959.262 1260.967,956.257 
		1257.291,950.243 1252.615,944.898 1249.276,938.885 1249.276,932.205 1251.28,928.25 1255.287,924.855 1257.25,922.25 
		1261.969,918.454 1267.383,915.308 1272.5,912.75 1277.185,910.799 1280,910.799 1280,974.63 	"/>
	<polygon fill="#00FF00" stroke="#800080" points="695.782,571.364 692.118,568.480 687.643,565.759 682.917,565.177 674.547,564.906 666.444,561.669 657.270,560.000 647.820,560.000 641.610,562.209 635.000,566.260 628.920,570.016 624.328,575.980 620.010,581.918 614.880,588.398 611.100,594.878 608.400,601.357 606.780,608.107 606.780,615.398 606.780,623.000 608.400,628.359 609.750,634.299 612.503,639.157 615.960,644.287 620.552,648.607 625.142,651.037 630.540,653.737 635.001,656.170 640.001,658.601 645.118,660.891 650.518,663.731 657.808,665.081 666.448,665.081 673.199,663.731 680.220,662.383 687.510,660.891 692.908,657.249 699.929,653.738 705.599,650.768 710.998,645.908 714.777,642.397 719.097,637.000 721.256,630.249 721.256,623.000 721.256,617.289 719.097,610.268 714.777,604.598 710.458,598.928 706.407,595.148 701.816,590.018 699.930,586.000 700.470,583.270 700.939,579.229 698.585,574.394 695.782,571.364"/>
</g>
</svg>
