<?xml version="1.0" encoding="utf-8"?>
<!-- Generator: Adobe Illustrator 16.0.5, SVG Export Plug-In . SVG Version: 6.00 Build 0)  -->
<!DOCTYPE svg PUBLIC "-//W3C//DTD SVG 1.1//EN" "http://www.w3.org/Graphics/SVG/1.1/DTD/svg11.dtd">
<svg version="1.1" id="Layer_1" xmlns="http://www.w3.org/2000/svg" xmlns:xlink="http://www.w3.org/1999/xlink" x="0px" y="0px"
	 width="1280px" height="1024px" viewBox="0 0 1280 1024" enable-background="new 0 0 1280 1024" xml:space="preserve">
<g id="Raw_image">
	
		<image overflow="visible" enable-background="new    " width="1280" height="1024" xlink:href="normal_10.jpg"  transform="matrix(1 0 0 1 0.8557 0.428)">
	</image>
</g>
<g id="Not_annotated">
</g>
<g id="Clumps" opacity="0.5">
	<polygon fill="#FF0000" stroke="#800080" points="174,263 162,263 151,262 142,259 132,257 124,253 117,248 111,242 105,236 
		101,228 97,220 92,213 90,203 88,193 87,182 92,174 96,167 99,158 101,148 105,139 110,132 114,125 120,118 127,113 134,109 
		143,105 153,103 163,101 174,100 184,102 194,104 202,108 210,112 215,119 220,126 224,134 227,143 230,152 231,163 232,174 
		238,173 243,165 248,158 252,151 256,143 261,136 266,128 271,122 277,116 284,110 292,106 300,102 309,99 320,98 330,100 340,102 
		349,105 356,110 364,114 370,120 377,125 382,132 387,139 390,148 394,156 397,165 398,176 399,187 398,198 396,207 391,214 
		385,221 380,228 374,234 368,239 362,245 355,250 345,253 336,255 327,258 317,260 307,260 296,259 285,258 274,257 266,253 
		258,249 252,243 245,238 240,231 235,224 232,215 227,213 223,221 219,229 214,236 209,242 203,248 196,254 189,258 180,261 	"/>
	<polygon fill="#FF0000" stroke="#800080" points="165,662 154,661 144,659 136,655 128,651 121,646 116,639 110,633 105,626 
		101,618 99,608 101,598 101,586 103,576 106,567 109,558 112,549 118,543 116,535 119,526 125,519 132,514 140,511 150,508 
		161,507 171,509 180,512 188,516 194,522 201,527 207,533 213,539 219,545 224,552 229,559 232,568 235,577 238,586 239,597 
		237,606 234,616 231,624 225,631 219,637 213,643 207,649 200,654 191,657 182,659 171,660 	"/>
	<polygon fill="#FF0000" stroke="#800080" points="150,406 140,404 133,399 127,393 123,385 118,378 116,368 113,359 112,348 
		112,336 113,327 116,318 119,309 122,300 128,293 136,289 141,285 148,279 156,275 164,272 173,268 182,265 192,265 201,268 
		211,270 219,274 226,279 233,284 238,291 243,298 247,306 252,313 257,320 260,329 260,339 257,348 254,357 249,364 242,368 
		235,373 227,378 221,384 214,388 205,391 195,394 185,395 175,397 166,400 157,403 	"/>
	<polygon fill="#FF0000" stroke="#800080" points="736,0 737,9 736,18 731,25 723,28 719,35 727,33 728,42 723,48 715,52 705,55 
		698,59 689,62 677,62 665,62 655,60 651,52 645,46 641,38 635,32 626,29 617,26 613,18 610,9 612,0 	"/>
	<polygon fill="#FF0000" stroke="#800080" points="708,203 696,203 686,201 679,196 672,191 666,185 660,179 657,170 654,161 
		650,153 647,144 647,132 645,122 647,112 650,103 653,94 659,87 665,81 673,77 680,73 689,69 699,69 710,68 719,69 728,72 734,78 
		740,84 746,90 751,88 749,78 748,67 749,56 754,48 758,40 764,35 772,30 778,25 784,18 792,14 799,19 807,15 817,13 827,11 837,13 
		844,18 849,25 856,30 861,37 861,47 864,54 870,60 872,70 869,79 872,88 870,97 869,109 867,119 863,127 862,138 857,145 848,148 
		838,149 828,151 818,151 809,148 801,144 791,142 782,139 777,132 771,126 766,119 761,112 760,118 762,128 762,140 762,152 
		760,161 755,169 751,176 746,184 741,190 734,196 726,199 716,201 	"/>
	<polygon fill="#FF0000" stroke="#800080" points="900,975 888,975 878,973 868,971 862,965 856,959 851,952 846,945 841,938 
		838,929 835,920 837,909 835,900 833,890 833,879 836,870 840,862 846,856 854,852 862,848 871,845 879,841 889,841 896,846 
		906,844 914,848 918,856 924,862 930,868 935,875 939,883 943,891 946,900 949,909 951,919 951,929 949,939 944,946 939,953 
		936,961 929,966 920,969 911,973 901,974 	"/>
	<polygon fill="#FF0000" stroke="#800080" points="1279,837 1273,843 1265,847 1261,854 1259,863 1254,871 1245,871 1236,874 
		1225,873 1215,871 1206,868 1198,864 1191,859 1185,853 1179,847 1173,841 1168,834 1165,825 1161,817 1159,807 1158,796 1156,786 
		1158,776 1161,767 1165,758 1170,751 1175,744 1180,738 1187,733 1192,726 1195,717 1200,710 1207,704 1215,700 1222,695 1230,691 
		1240,690 1252,689 1262,691 1273,690 	"/>
</g>
<g id="Single_nuclei" opacity="0.5">
	<polygon fill="#00FF00" stroke="#800080" points="792.18,1024 798,1016 804,1011 811,1005 818,1000 826,996 835,993 846,992 
		856,992 866,994 875,997 884,1000 895.774,1008 903.682,1015.687 908.822,1024 	"/>
	<polygon fill="#00FF00" stroke="#800080" points="0,62 9,63 18.584,65.211 28.044,68.664 36.002,72.268 42.308,77.373 49,83 54,90 
		57.924,96.593 61,107 61.227,117.163 60,128 57.323,137.434 54.62,146.293 51,155 47,162 41,168 34,174 27.443,178.276 19,182 
		10.025,185.031 0,187.435 	"/>
	<polygon fill="#00FF00" stroke="#800080" points="0,251 5,245 12,239 20,235 29,233 39,234 48,237 57,240 65.087,244.99 
		70.967,250.252 77.62,255.049 84,261 89.843,267.272 94,275 97.27,284.601 99,294 100,303 100,315 98.044,324.365 94.64,333.341 
		90,340 83,346 76,351 67.563,355.467 59.672,358.406 50,361 40,360 31,357 23,353 15,349 9,343 0,337.828 	"/>
	<polygon fill="#00FF00" stroke="#800080" points="0,389.195 7.529,387.029 18.36,385.791 30,385 42,385 52,387 61,390 69,394 
		76,399 82,405 87,412 92,419 96,427 98,437 99,448 100,459 99,470 97,479 92,487 87,494 82,500 73.254,505.145 63.23,506.633 
		54,506 44.663,504.62 34.141,502.301 26,500 19,495 12,490 0,485.593 	"/>
	<polygon fill="#00FF00" stroke="#800080" points="123,0 126,9 126,19 125,30 122,39 117,45 113,54 107,59 100,64 92,68 82,70 
		71,69 60,68 51,65 42,62 35,57 28,52 22,46 16,40 11,33 8,24 6.722,12.232 6.722,0 	"/>
	<polygon fill="#00FF00" stroke="#800080" points="35.116,1024 38,1015 42,1006 47,1000 53,993 60,988 68,984 77,981 89,981 99,983 
		108,986 116.125,988.875 123.625,993.375 131.875,999.75 137.875,1007.375 141.375,1015.625 141.375,1024 	"/>
	<polygon fill="#00FF00" stroke="#800080" points="167,851 158,851 149,848 140,845 131,842 122,839 115,834 109,828 102,823 
		95,818 90,811 86,803 84,793 83,782 85,772 87,762 91,753 95,746 101,739 106,733 112,727 119,722 125,716 132,710 139,705 
		146,700 154,696 164,694 175,693 185,695 195,697 203,701 211,705 218,710 223,717 228,724 232,732 236.5,738 241,747 243,757 
		244,768 243,779 240,788 237,796 232,804 227,811 222,817 217,825 212,831 205,837 198,842 190,845 182,849 175.25,851 	"/>
	<polygon fill="#00FF00" stroke="#800080" points="250,0 257,5 265,9 273,13 279,19 284,26 287,35 288,46 289,55 287,65 285,74 
		278,79 271,84 265,91 258,96 251,101 243,104 235,108 224,107 214,105 207,100 200,95 188.127,90.661 181.541,81.98 
		178.847,73.898 181.841,65.217 181,58 176,51 173,42 175,32 175,22 177,12 183,5 189,0 	"/>
	<polygon fill="#00FF00" stroke="#800080" points="194.637,1024 196,1014 199,1005 203,997 209,990 215,984 221,978 228,973 
		236,969 244,966 254,963 265,962 277,962 288.636,962.602 299,964 308,967 317,970 325.522,973.179 334,977 342,981 349,986 
		357.977,993 364.259,999.356 370.34,1008.742 373.777,1016.676 374.835,1024 	"/>
	<polygon fill="#00FF00" stroke="#800080" points="298,875 286,875 276,873 268,869 263,862 257,856 251,850 247.5,842 247,832 
		247,820 247,808 250,799 255,791 260,784 265,778 270,771 276,765 284,760 294,758 304,758 315,759 325.5,758.25 334,760 342,764 
		349,769 353.75,775.75 358,784 360,794 363,803 365,812.5 365,823 363,833 360,841 354,847 349,854 344,862 338,867 330,872 
		320,873 309,874 	"/>
	<polygon fill="#00FF00" stroke="#800080" points="428,615 417,614 408,611 399,608 390,605 383,600 376,595 371,588 366,581 
		362,573 360,563 358,553 358,541 361,532 366,524 371,517 376,511 384,506 391,502 400,498 409,495 420,496 432,496 440,500 
		450,502 458,506 464,512 471,517 475,525 479,533 482,542 484,552 485,563 484,574 481,583 477,590 471,597 465,602 457,607 
		448,610 439,613 429,614 	"/>
	<polygon fill="#00FF00" stroke="#800080" points="440,842 429,841 419,839 410,836 404,830 400,822 395,815 390,808 386,800.75 
		382.75,793.5 382.75,783 384,772 388,764 392,755 398,750 408,747 417,747 426,743 432,738 441,734 451,732 457,727 463,721 
		471,716 480,713 491,712 501,712 508,717 514,723 518,731 521,740 525,748 527,758 530,767 530,777 527,786 525,796 522,804 
		516,811 510,816 503,822 496,826 488,830 480,834 469,836.25 458.75,836.25 452.106,837.457 446.5,840.75 	"/>
	<polygon fill="#00FF00" stroke="#800080" points="545.5,973 537,972 527.75,969.5 520.25,965.75 514,961 506,957 500,951 493,946 
		487,940 483,932 479,924 476,915 473,906 470,897 469,886 470,875 472,865 476,856 481,849 486,843 493,837 499,832 507,828 
		517,825 527,823 538,824 548,824 556,828 562,834 569,839 575,845 580,852 586,858 592,864 600,868 606,874 612,880 615,889 
		617,899 618,910 617,921 615,931 612,940 607,947 601,953 594,958 585.25,963 576,967.25 567.25,970 560,972 553.5,973 	"/>
	<polygon fill="#00FF00" stroke="#800080" points="564.414,1024 565.658,1014.491 569,1005 573,997 577,990 583,983 589,978 
		596,973 604,969 612,964 620,960 628,956 637,953 644,948 655,947 665,949 673,952.75 682,956 689,961 696,966 702,972 709,977 
		715,983 721.75,989.5 726,996 732.5,1005.25 736.75,1014.75 740,1024 	"/>
	<polygon fill="#00FF00" stroke="#800080" points="751,885 740,884 731,883.25 719,881 710,878 702,874 695,869 689,863 683.75,858 
		678,850 672,841 669,835 666,826 665,815 666,804 668,794 672,786 678,780 685,775 693,770 701,766 710,763 720,761 728.75,761.5 
		740,763 749,766 757,770 765,774 770,781 776,787 781,794 785,802 789,810 793,818 797,826 800,835 800,846 798,857 794,865 
		789,871 782,876 775,881 767.5,883.75 757.25,885 	"/>
	<polygon fill="#00FF00" stroke="#800080" points="785,475 773,475 761,475 751,473 741,471 733,467 725,463 717,459 709,455 
		703,449 697,443 693,435 690,426 687,417 685,407 683,397 683,386 685,376 688,367 692,359 696,351 701,345 708,339 715,334 
		722,330 731,326 741,324 752,323 762,323 774,323 782,327 790,331 797,336 804,341 809,348 814,355 818,363 821,372 824,381 
		826,391 828,401 827,412 829,422 827,432 826,443 822,451 817,458 811,463 803,468 796,472 786,474 	"/>
	<polygon fill="#00FF00" stroke="#800080" points="984,0 986,9 983,19 980,28 975,35 969,41 963,46 955,50 946,53 938,57 929,61 
		919,62 908,61 898,59 891,54 884,49 879,42 874,35 869,28 865,20 863,10 863,0 	"/>
	<polygon fill="#00FF00" stroke="#800080" points="937,503 925,503 915,501 906,498 897,495 890,490 884,484 878,478 872,472 
		869,463 867,453 865,443 865,433 866,422 868,411 869,401 872,391 874,382 879,374 883,366 889,360 896,355 902,349 910,345 
		919,342 930,341 941,340 952,341 960,345 969,348 976,353 983,358 990,363 996,369 1001,376 1005,384 1007,394 1010,403 1011,414 
		1012,425 1010,435 1007,443 1003,452 999,460 995,467 989,474 984,480 978,486 970,491 963,495 954,498 945,501 	"/>
	<polygon fill="#00FF00" stroke="#800080" points="947,307 935,307 924,306 915,303 907,299 900,294 894,288 888,282 884,274 
		880,266 876,258 872,250 871,239 871,227 874,218 876,208 879,199 884,191 890,185 895,179 901,173 910,169 917,164 925,160 
		935,158 946,157 957,158 965,162 973,166 981,170 988,175 994,181 999,188 1003,196 1007,204 1009,214 1013,222 1015,232 1015,244 
		1012,252 1008,260 1003,268 1000,276 995,283 989,289 981,294 974,298 966,302 956,304 	"/>
	<polygon fill="#00FF00" stroke="#800080" points="1077,224 1066,223 1056,221 1048,217 1039,214 1032,209 1025,204 1018,199 
		1013,192 1008,185 1003,178 998,171 993,164 989,156 985,148 982,139 978,131 977,120 977,110 979,100 982,91 987,84 994,78 
		1001,73 1009,69 1018,66 1027,64 1038,62 1048,64 1058,66 1068,68 1076,72 1084,76 1092,80 1099,85 1104,92 1108,100 1109,111 
		1115,117 1119,125 1123,133 1125,143 1126,154 1128,164 1128,176 1125,185 1121,193 1118,202 1115,210 1109,217 1102,221 1092,221 
		1081,223 	"/>
	<polygon fill="#00FF00" stroke="#800080" points="1073,372 1061,372 1051,370 1043,366 1035,362 1029,356 1024,349 1020,341 
		1016,333 1015,322 1014,311 1015,300 1018,291 1022,283 1027,275 1032,269 1039,264 1046,258 1053,253 1063,251 1072,254 1084,254 
		1093,257 1100,262 1107,267 1114,272 1120,278 1124,286 1128,294 1132,302 1133,313 1135,323 1133,332 1128,339 1122,345 1116,351 
		1110,357 1102,361 1094,365 1085,368 1076,371 	"/>
	<polygon fill="#00FF00" stroke="#800080" points="173,262 161,262 151,260 141,258 132,255 124,251 117,246 111,240 105,234 
		100,225.336 97,218 93,210 90,201 88,191 89.656,179.5 93.24,170.702 96.425,163.137 100,155 103,146 107,138 113,131 117,124 
		123,118 130,113 138,108 146.815,104.661 157,103 168,102 178,102 189,103 197,107 205,111 211,117 216,124 221,131 225,139 
		228.004,148.14 230,158 230,170 230,178.53 230,187.435 228.891,201.156 226,212 222,220 218,228 213,235 208,241 202,247 195,253 
		188,257 179,260 	"/>
	<polygon fill="#00FF00" stroke="#800080" points="312,260 301,259 290,258 279,257 270,254 262,250 255,245 249,239 243,233 
		238,226 234,218 234,208 235,197 235,185 238,175 242,168 248,161 252,154 256,146 261,139 265,131 271,124 277,118 283,113 
		291,108 299,104 308,101 318,99 328,101 338,103 347,106 355,110 362,115 369,120 375,126 381,132 386,139 389,148 393,156 
		396,165 397,176 398,187 397,198 394,207 389,214 384,220 379,227 373,233 366,239 360,245 353,249 344,252 334,254 325,257 
		315,259 	"/>
	<polygon fill="#00FF00" stroke="#800080" points="157,664 148,661 140,657 131,654 125,648 119,642 112,637 107,630 104,621 
		101,612 100,601 100,589 101,578 103,568 105,558 107,548 110,539 113,530 117,522 123,516 131,511 141,509 151,507 162,506 
		171,509 180,512 187,517 194,522 200,528 207,533 213,539 218,546 223,553 229,559 234,566 237,575 238,586 239,597 237,606 
		233,615 229,623 224,630 219,636 213,643 207,648 199,652 191,656 182,659 172,661 162,663 	"/>
	<polygon fill="#00FF00" stroke="#800080" points="147.271,406.957 140,406 134,400 128,394 123,387 118,380 115,371 112,362 
		111,351 110,340 111,329 112,318 116,310 120,302 125,294 130,288 136,281 143,276 151,272 160,269 169,267 179,264 
		189.07,263.281 199,264 208.756,266.919 216,271 223,276 229,282 236,287 242,293 246.416,299.23 252,307 257,314 260.112,322.554 
		261,334 259,344 256,353 252,361 247.058,366.421 240.853,371.984 231.438,380.328 220.769,385.789 211.752,390.6 199.108,392.439 
		191.202,392.921 184.148,391.029 177.087,392.953 169.811,398.732 162,403 154.531,405.66 	"/>
	<polygon fill="#00FF00" stroke="#800080" points="738.332,0 738.332,10 737,19 735,28 732,38 727,45 722,51 714,56 706,60 698,63 
		687,64 675,64 664,63 655,60 649,54 644,47 639,40 632,35 625,30 617.075,21.651 610.889,10 609.655,0 	"/>
	<polygon fill="#00FF00" stroke="#800080" points="720,202 708,202 697,201 686,200 679,195 672,190 666,184 660,178 654,172 
		651,163 648,154 644,146 644,134 644,122 646,112 649,103 652,94 656,85 662,79 668,74 675,68 685,66 695,64 707,64 718,65 726,69 
		733,74 739,80 743,88 748,95 752,103 756,111 760,119 763,128 763,140 763,152 760,161 756,169 752,176 747,183 741,189 735,195 
		729,201 	"/>
	<polygon fill="#00FF00" stroke="#800080" points="830,153 818,153 809,150 800,147 791,144 784,139 777,134 771,128 766,121 
		762,113 757,106 753,98 750,89 748,79 747,68 748,59 750,49 755,42 761,36 767,30 774,24 780,18 788,14 798,12 808,10 819,11 
		829,13 839,15 847,19 855,23 860,30 864,38 868,46 872,54 874,64 875,75 874,86 873,97 871,107 869,117 867,127 864,136 859,143 
		852,147 844,151 833,152 	"/>
	<polygon fill="#00FF00" stroke="#800080" points="900,975 889,976.5 878,975 868.5,971.75 862,965 856,959 851,952 846,945 
		841,938 838,929 836.494,918.786 837,909 835,900 833,890 833,879 836,870 840,862 846,856 854,852 862,848 871,845 876,842 
		881.5,839.75 888,839.75 892.875,842.75 897.75,848 902,848.25 908.047,845.448 914.25,847.25 922,855.75 928.75,863.75 
		933.75,870 939.5,879.25 944.25,891 948.25,899.75 951,908.125 952.75,919.25 952.75,930.25 951,940 947,947 941.25,954.5 
		935.5,960.75 928,967 920,970.5 910,973 	"/>
	<polygon fill="#00FF00" stroke="#800080" points="1280,839.613 1275.832,843 1268.5,847.332 1264.25,852 1259,859.166 
		1254.25,864.5 1248.5,869.75 1238.25,872.5 1225.75,871.25 1216,868 1207,865 1199,861 1192,856 1185,851 1179,845 1173,839 
		1169,831 1165,823 1162,814 1160,804 1158,794 1158.5,781.75 1160,773 1163,764 1167,757 1172,749 1177,743 1182,736 1188.25,729 
		1193,723 1198,715.25 1203,708 1209,703 1216.5,697.75 1224,694 1234,691 1245,690 1256,691 1267,692 1280,695.308 	"/>
</g>
</svg>
