<?xml version="1.0" encoding="utf-8"?>
<!-- Generator: Adobe Illustrator 16.0.1, SVG Export Plug-In . SVG Version: 6.00 Build 0)  -->
<!DOCTYPE svg PUBLIC "-//W3C//DTD SVG 1.1//EN" "http://www.w3.org/Graphics/SVG/1.1/DTD/svg11.dtd">
<svg version="1.1" id="Layer_1" xmlns="http://www.w3.org/2000/svg" xmlns:xlink="http://www.w3.org/1999/xlink" x="0px" y="0px"
	 width="1280px" height="1024px" viewBox="0 0 1280 1024" enable-background="new 0 0 1280 1024" xml:space="preserve">
<g id="Raw_image">
	
		<image overflow="visible" enable-background="new    " width="1280" height="1024" xlink:href="normal_24.jpg"  transform="matrix(1 0 0 1 2.441406e-004 -2.441406e-004)">
	</image>
</g>
<g id="Not_annotated" opacity="0.5">
	<path fill="#0000FF" stroke="#800080" d="M0,1"/>
	<polygon fill="#0000FF" stroke="#800080" points="0,539 3,546 4,557 4,567 3,577 	"/>
</g>
<g id="Clumps" display="none" opacity="0.5">
	<polygon display="inline" fill="#FF0000" stroke="#800080" points="0,147 6,151 9,160 13,168 18,175 22,183 20,193 15,200 13,208 
		16,217 14,227 13,236 21,238 32,237 41,234 47,228 56,225 66,227 77,228 86,231 94,235 102,239 110,243 118,247 125,252 130,259 
		135,266 140,273 144,281 148,289 148,301 147,312 144,320 138,327 134,334 128,340 122,347 117,354 113,362 109,369 104,376 
		97,382 88,385 81,389 75,396 68,400 60,404 53,410 45,414 35,416 27,419 17,421 8,418 	"/>
	<polygon display="inline" fill="#FF0000" stroke="#800080" points="89,1023 89,1015 80,1012 70,1010 59,1009 50,1006 44,1000 
		36,996 29,991 24,984 19,977 17,967 16,956 16,946 17,935 18,924 17,913 17,904 22,897 28,891 33,885 38,878 44,871 50,866 58,861 
		68,859 77,856 84,852 93,848 103,848 112,851 123,852 131,856 137,851 134,842 131,833 127,825 123,817 121,807 118,798 117,787 
		114,778 112,768 116,759 119,751 123,743 127,735 131,727 136,720 142,714 148,708 156,703 164,700 172,695 180,692 191,690 
		202,691 211,692 219,689 229,686 238,689 246,693 253,698 261,702 269,706 276,711 281,718 284,727 290,733 296,739 299,748 
		303,756 313,756 325,756 336,756 346,754 355,750 365,750 375,752 385,754 394,757 401,762 407,768 411,776 417,782 425,786 
		430,793 428,803 431,812 431,822 428,831 426,841 426,853 423,862 418,869 413,875 406,880 399,885 390,889 381,891 371,893 
		361,895 352,892 341,891 333,887 326,882 320,876 315,869 310,862 305,855 300,848 294,842 289,835 284,828 276,830 272,838 
		266,844 260,850 251,854 247,860 253,866 262,869 271,872 279,876 287,880 294,885 303,888 310,893 320,895 330,897 338,901 
		343,908 346,917 350,925 354,933 359,940 364,947 366,957 374,953 378,946 383,938 388,932 395,927 404,923 414,921 421,917 
		429,912 439,910 450,911 460,909 471,908 482,909 492,911 498,917 504,923 514,925 522,929 526,937 528,946 526,956 525,968 
		526,979 523,987 521,997 518,1007 515,1016 	"/>
	<polygon display="inline" fill="#FF0000" stroke="#800080" points="276,0 283,5 288,12 291,21 295,29 294,40 294,50 294,61 291,71 
		288,80 288,89 284,98 280,105 275,113 270,119 264,125 256,129 245,128 236,129 225,131 217,134 206,133 196,136 187,134 179,130 
		172,125 165,120 159,114 154,107 149,100 145,92 142,83 136,77 131,70 125,64 118,59 115,50 116,39 119,30 125,24 126,15 125,4 	
		"/>
	<polygon display="inline" fill="#FF0000" stroke="#800080" points="398,637 388,635 379,632 371,628 365,622 367,612 369,602 
		370,591 372,581 370,571 364,565 364,556 367,548 371,540 371,530 370,521 376,514 379,506 385,499 390,492 386,485 376,487 
		365,489 359,494 349,492 341,488 330,488 322,491 313,488 310,479 310,469 307,460 303,452 303,442 303,432 295,428 286,425 
		281,418 281,408 283,398 285,387 292,382 298,377 306,372 316,370 324,367 332,363 340,359 346,353 356,350 365,347 374,344 
		384,346 395,347 403,351 414,352 424,354 430,360 440,362 449,365 455,371 459,379 460,390 458,400 460,410 460,422 457,430 
		451,436 446,443 443,451 453,453 461,457 469,458 478,458 487,461 497,463 505,467 515,469 522,474 528,480 534,486 538,494 
		542,502 540,512 544,520 549,527 548,538 544,545 536,549 528,554 523,561 527,569 523,577 517,583 508,585 501,591 495,596 
		487,601 483,609 476,614 471,620 463,625 454,627 443,626 435,630 424,631 413,630 404,634 	"/>
	<polygon display="inline" fill="#FF0000" stroke="#800080" points="514,0 521,5 533,5 542,8 549,13 554,20 554,30 557,39 560,48 
		560,60 558,70 555,78 553,89 549,97 544,103 537,108 531,115 536,117 544,112 551,108 559,103 569,102 579,99 591,99 602,98 
		611,99 620,102 629,105 637,109 643,115 650,120 655,127 660,134 663,143 666,152 669,161 671,171 669,180 664,187 660,196 
		657,205 655,215 651,223 647,231 644,240 640,247 634,254 629,261 623,267 617,272 609,276 599,278 591,283 583,287 575,290 
		564,291 553,290 542,291 534,287 523,286 515,282 507,278 500,273 496,265 496,255 492,247 489,238 486,229 486,219 482,211 
		480,201 481,192 485,183 486,173 491,165 496,159 502,152 506,145 511,138 517,131 516,125 508,129 499,132 489,134 479,132 
		467,132 459,128 450,125 441,122 433,118 426,113 420,107 414,101 408,95 401,90 395,84 389,78 383,72 379,64 377,54 376,43 
		377,32 375,22 373,12 377,4 	"/>
	<polygon display="inline" fill="#FF0000" stroke="#800080" points="889,0 894,7 896,17 894,27 895,38 897,48 904,53 908,61 908,71 
		905,80 903,90 904,101 905,108 911,103 920,99 928,100 928,90 924,82 930,75 934,68 940,61 948,57 958,55 969,54 980,53 989,56 
		997,60 1004,65 1012,69 1020,73 1028,77 1035,82 1041,88 1046,95 1051,102 1056,109 1061,116 1065,124 1070,131 1074,139 1073,150 
		1075,160 1076,171 1077,182 1074,191 1071,200 1069,209 1066,219 1063,228 1059,235 1054,243 1048,249 1044,257 1040,264 1034,270 
		1023,271 1017,278 1013,285 1003,287 997,281 987,279 975,279 966,276 958,272 952,266 948,258 942,252 936,246 930,240 924,234 
		919,227 913,221 908,214 902,208 897,201 892,194 892,184 893,173 896,164 897,155 898,146 904,140 905,131 898,133 891,137 
		886,144 881,152 878,161 876,171 873,179 865,183 857,188 851,193 846,201 843,210 837,216 829,220 821,223 810,224 801,221 
		793,217 783,219 772,220 764,216 754,214 747,209 741,203 734,198 727,193 719,189 712,184 705,179 698,174 693,167 688,160 
		683,153 679,145 676,136 672,128 670,118 667,109 663,101 660,92 659,81 657,71 658,60 655,51 650,44 646,36 647,25 645,15 648,6 	
		"/>
	<polygon display="inline" fill="#FF0000" stroke="#800080" points="1279,240 1271,244 1261,246 1250,245 1241,242 1231,240 
		1221,238 1211,236 1202,233 1194,229 1187,224 1181,218 1175,212 1169,206 1165,198 1160,191 1155,184 1150,177 1145,170 1142,161 
		1139,152 1136,143 1138,133 1140,123 1138,113 1139,102 1141,92 1145,83 1147,74 1146,63 1148,53 1152,45 1152,35 1157,27 1163,21 
		1171,17 1176,10 1182,5 1189,0 	"/>
</g>
<g id="Single_nuclei" opacity="0.5">
	<polygon fill="#00FF00" stroke="#800080" points="136,648 125,647 117,643 106,642 97,639 89,635 82,630 76,624 71,617 65,611 
		57,607 52,600 46,594 40,588 35,581 32,572 30,562 28,552 28,542 29,531 31,521 34,512 38,503 42,496 48,489 53,483 60,477 67,472 
		74,467 82,463 92,461 100,458 109,455 118,451 128,449 140,449 149,452 158,455 168,457 176,461 185,464 194,467 203,470 209,476 
		214,483 220,489 226,495 230,503 233,512 234,523 237,532 239,542 241,552 241,564 240,575 235,582 230,589 225,596 221,603 
		215,609 209,615 202,621 199,629 194,636 186,640 178,645 169,647 158,646 148,646 137,647 	"/>
	<polygon fill="#00FF00" stroke="#800080" points="373,294 361,294 351,292 340,291 330,289 322,285 314,281 307,276 301,270 
		296,263 293,254 289,246 285,238 284,227 281,218 283,207 287,200 290.095,193.5 291,186 292,175 296,167 302,160 306,153 311,145 
		316,139 322,132 329,128 337,123 344,119 353,116 363,114 373,111 385,111 392.036,111 399.986,113.367 407.588,115.094 417,117 
		425.212,120.624 432.469,125.116 439,131 444,138 449,145 451,155 453,165 456,174 459,183 459,195 459,207 457,217 454,225 
		449,232 443,239 437,245 432,251 425,257 419,262 412,267 405,272 399,279 394,285 387,290 378,293 	"/>
	<polygon fill="#00FF00" stroke="#800080" points="615,745 605,743 596,740 587,737 579,733 568,732 558,730 548,728 540,724 
		534,718 530,710 526,702 523,693 522,682 522,671 521,661 518,652 516,642 517,631 522,623 528,617 532,610 532,598 537,590 
		543,585 547,577 553,570 560,565 567,560 573,555 579,548 586,543 596,541 605,538 614,535 623,532 634,531 644,533 654,533 
		663,536 670,541 676,547 679,556 683,564 687,572 691,580 694,589 697,598 699,608 699,618 698,629 697,640 696,650 692,659 
		690,669 687,677 681,684 675,690 669,696 663,702 660,710 656,718 650,724 642,729 636,735 630,740 621,743 	"/>
	<polygon fill="#00FF00" stroke="#800080" points="657.405,1024 653,1016 652.636,1007.457 650.729,996.286 645.689,988.385 
		639.012,982.117 633.563,975.986 629,968 628,957 629,946 631,936 636,929 642,923 646,915 650,906 655,900 662,894 668,888 
		676,884 683,879 689,873 695,867 702,862 709,857 717,854 725,850 733,846 743,843 752,840 763,841 771,845 779,849 789,851 
		797,855 806,858 813,863 820,868 828,872 833,879 838,886 845,891 850,898 853,907 855,917 854,928 853,939 851,949 851,961 
		848,970 844,977 838,983 832,989 827,997 825,1007 822,1015 817.041,1024 	"/>
	<polygon fill="#00FF00" stroke="#800080" points="1023,737 1012,736 1003,733 995,729 986,726 976,724 972,716 969,707 964,700 
		958,694 953,687 946,682 941,675 936,668 930,662 923,657 918,650 911,645 906,638 902,630 899,621 897,611 894,602 891,593 
		889,583 892,573 896,565 902,559 907,553 910,544 909,533 913,525 921,520 929,516 937,513 944,508 949,501 956,495 966,493 
		977,494 988,495 998,497 1008,495 1020,495 1029,498 1036,503 1041,510 1047,516 1054,521 1061,526 1069,528 1079,530 1082,539 
		1077,546 1074,555 1077,564 1084,569 1092,573 1096,581 1099,590 1103,598 1105,608 1105,618 1104,629 1105,640 1101,648 1097,656 
		1093,664 1088,671 1086,681 1081,687 1075,694 1070,701 1068,710 1063,718 1057,723 1049,727 1041,731 1032,734 	"/>
	<polygon fill="#00FF00" stroke="#800080" points="0,246 8,242 17,238 25,235 34,231 44,229 55,228 66,227 76,227 85,230 94,233 
		103,236 110,241 117,246 123,252 130,257 135,264 140,271 144,279 147,288 149,298 147,307 143,316 140,324 135,331 130,338 
		125,345 120,352 114,359 110,367 105,373 98,379 92,384 85,389 78,395 71,400 64,404 56,408 48,412 39,416 31,419 20,420 11,419 
		0,416.496 	"/>
	<polygon fill="#00FF00" stroke="#800080" points="88,1011 77,1010 67,1008 56.834,1005.171 49,1002 42,997 34,993 28,987 22,981 
		19,972 17,962 16,951 18,941 17.5,929.5 17.5,918.838 16,909 20,901 26,895 32,888 37,882 42,875 48,869 56,864 64,861 74,858 
		82,854 90,851 99.966,848.649 108.169,850.496 119,853 128,856 138.581,859.334 147.784,861.587 154.743,866.742 159,871 165,877 
		170,884 173,893 176,902 178,912 182,920 185,929 187,939 188,950 186,960 182,968 177.834,972.502 169.834,977.502 
		163.834,983.169 157.167,985.169 150.5,988.834 140.5,994.838 129.167,998.504 119.167,1000.838 109.167,1004.504 102,1007.086 
		94.167,1009.504 	"/>
	<polygon fill="#00FF00" stroke="#800080" points="204,865 194,863 183,862 173,860 163.274,859.787 153.397,857.991 
		143.295,854.399 138.356,846.991 135,838 131,830 127,822 123,814 122,803 119,794 117,784 114,775 115,765 118,757 122,749 
		126,741 130,732 134,725 140,718 146,712 152,706 160,703 169,699 176,695 185,692 196,692 208,692 217,692 223.167,687 
		231.834,687 242.834,691.163 250,698 258,702 266,706 273,711 279,717 282,726 288,732 294,738 297,747 299,756 294,764 290,771 
		285,779 282,788 281,797 279,807 279,819 276,828 272,835 266,842 260,848 252,852 242.967,855.295 236.006,859.116 
		228.374,862.034 221.864,863 212.885,865 	"/>
	<polygon fill="#00FF00" stroke="#800080" points="321,1012 309,1012 297,1012 285,1012 273,1012 264,1009 257,1004 251,998 
		246,991 241,984 236,977 231,970 227,962 224,953 219,946 215,938 212,929 210,919 209,908 208,897 208,886 208,876.615 
		211.091,869.882 220.519,865 236.679,861.587 243,863 252,866 260,870 269,873 277,877 286,880 293,885 301,889 308,894 318,896 
		328,898 336,902 342,908 344,918 348,926 353,933 358,940 362,948 363.288,957.653 362.391,969.101 361.269,977.856 
		359.474,987.26 354,993 347,999 340,1004 332,1007 324,1011 	"/>
	<polygon fill="#00FF00" stroke="#800080" points="353.635,892.793 346.227,891 337.697,885.385 329.615,880.22 322.881,874.609 
		317.044,867.875 311,861 306,854 302,846 297,839 291.229,831.961 284.719,824.552 281.8,816.695 280.678,807.044 282.249,795.37 
		284,787 286,781.11 290,771 296.616,763.041 302.228,759.002 310.983,757.201 321.532,756.528 333.88,756.079 345.553,753.839 
		354.082,751.143 361.94,749.347 369.348,750.246 377.654,752.491 387.756,755.409 395,758 402,763 408,769 414,775 420,781 
		426,787 429.284,793.122 430.406,801.878 431.53,811.08 431.53,818.896 429,829 426,839 424.795,848 423.224,860.468 
		418.734,868.323 412.224,874.16 405.49,878.649 400.776,883.363 390.225,888.078 381,889 371.144,892.793 361.492,893.905 	"/>
	<polygon fill="#00FF00" stroke="#800080" points="515.038,1024 358.798,1024 357.9,1017.365 358.123,1009.059 362.389,1001.651 
		362.88,994.455 361.045,987.733 362.486,977.615 364,966.633 371.367,954.959 376.531,946.879 381.245,939.469 385.96,933.184 
		392.919,928.246 401,924 411,922 421,920 426.593,913.88 435.797,909.614 448.817,908.491 465.653,908.491 474.633,909.614 
		485.857,909.614 497.53,914.328 499.998,922.184 504.038,925.776 514.141,924.654 521.323,928.246 526.937,939.92 527.045,957.203 
		526.712,967.756 526.038,978.081 525,988 523,998 521,1007 518,1017 	"/>
	<polygon fill="#00FF00" stroke="#800080" points="201,141 191,139 182,136 174,132 166,128 161,121 155,115 149,109 144,102 
		139,95 135,87 131,79 127,71 119,67 112,62 109,53 108,42 109,31 113,23 119,17 122,7 127,0 139,0 151,0 163,0 175,0 187,0 199,0 
		211,0 223,0 235,0 246,1 258,1 270,1 282,1 289,6 293,14 296,23 299,32 300,43 300,55 298,64 295,74 293,84 289,92 285,100 
		281,108 277,115 272,122 266,129 259,131 248,130 239,131 232,136 221,138 211,139 	"/>
	<polygon fill="#00FF00" stroke="#800080" points="357.733,493.935 348.802,491.235 340,487 329,487 321,490 313,486 311,476 
		310,465 307,456 304,447 305,436 300,429 291,426 284,421 281,412 284,403 284,391 290,385 297,380 305,375 313,371 323,369 
		331,365 339,361 345,356 353,351 363,350 372,346 382,346 392,348 401,351 411,353 422,354 428,360 437,363 447,365 453,371 
		458,378 459,389 457,399 459,409 459,421 456,429 450,435 445,442 441,451 436,457 430,464 420.668,467.764 412.775,472.127 
		405.09,478.149 397.405,482.303 390.758,484.589 378.911,486.171 369,486 364,490.901 	"/>
	<polygon fill="#00FF00" stroke="#800080" points="397,636 388,633 379,630 370,627 366.868,621.219 369,610 370,599 372,589 
		373,578 368.159,571.328 364,565.306 366,553 370,545 373,536 371,526 374,519 378,511 383,503 388,497 392,488 399,483 406,479 
		413.748,474.128 421,470 430,466 435,460 441,454 451.166,450.903 461.059,453 467.941,457.784 476,458 485,461 495,463 503,467 
		513,469 520,474 526,480 532,486 536,494 540,502 539,511 542,520 548,526 547,537 543,544 535,548 527,553 522,560 526,568 
		524.281,576.92 516,583.801 507,584 500,590 494,595 486,600 482,608 475,613 470,619 462,624 453,626 442,625 434,629 423,630 
		412,629 403,633 	"/>
	<polygon fill="#00FF00" stroke="#800080" points="531.646,0 540.631,5.896 547.541,11.425 553.072,18.336 557,26 560,35 562,45 
		561.711,55.312 559.983,64.296 559,72 556,81 553,90 549.27,98.508 545,105 538,110 531,116 525,121 516.786,125.116 
		507.457,129.263 497.09,133 488.796,134.446 479,133 470.825,132.027 460.805,128.572 449.746,125.462 443,121 435,117 428,112 
		421,107 414,102 407,97 400,92 394.455,86.067 389,79 384,72 380,64 376.487,56.003 375,45 374,34 374.145,17.178 377.524,0 	"/>
	<polygon fill="#00FF00" stroke="#800080" points="546.506,291 538,291 528.535,288.224 521.625,285.46 510.567,281.658 505,276 
		500.545,269.909 496,261 493,252 490,243 487,234 485,224 482,215 479,206 479,195 481,186 484,176 488,169 492,161 497,153 
		502,147 508,141 515,135 521,129 527,124 535.793,119.933 544.432,114.75 553.072,108.184 558.946,103.692 565.166,99.89 
		572.423,97.817 584,96 596,96 608,96 617,97 625,101 633,105 641,109 649,113 654,120 660,126 665,133 669,141 670,152 672,162 
		670.908,172.459 669,181 665,189 662,197 658,206 655,214 651,223 648,231 644,240 641,248 635,255 629,260 623,266 616,272 
		609,276 601,280 592,284 584,288 574,290 563,290 554.799,291 	"/>
	<polygon fill="#00FF00" stroke="#800080" points="989.175,278.894 980.881,279.239 974.659,276.129 968.74,272.671 965,270 
		958,265 951,260 945,254 938,249 932,243 927,236 922,229 917,222 912,215 906,209 901.055,203.56 895.87,194.921 893.107,188.701 
		892.762,177.297 894,167 897,158 894,149 893,140 897,132 901,124 905,116 908,106 912,98 916,90 921,83 926,77 932,70 937,64 
		943,57 951,53 961,51 971,49 980,50 989,53 997,57 1006,60 1014,64 1022,68 1030,72 1035,79 1040,86 1045,93 1051,99 1056,106 
		1060,114 1065,121 1070,128 1074,136 1076.603,145.851 1078,156 1078,168 1078,180 1077,190 1074,199 1070,208 1067,217 1064,226 
		1061,235 1058,243 1054,252 1049,258 1044,265 1038,272 1033,278 1027,285 1014.745,287.533 1004.725,287.533 997.814,280.968 	"/>
	<polygon fill="#00FF00" stroke="#800080" points="892.762,0 894.49,9.005 896.217,20.409 895.871,32.849 897.6,45.29 
		902.438,52.892 904.857,59.112 908.313,67.06 910.386,77.082 912,87 910,96 907,106 905,116 901,124 897,132 893,140 889,148 
		885,156 881,164 877,171 869.953,177.296 862.698,183.862 857.86,191.464 851.985,198.376 847.491,205.287 842.655,210.817 
		834.705,216.346 826.412,218.764 815.355,221 807,221 796,220 786,218 775.269,219.456 764.557,217.037 754.88,213.927 
		746.933,208.398 740.022,202.869 734,198 727,193 719,189 712,184 704,180 697,175 691,169 687,161 683,153 679,145 675,137 
		671,129 667,121 664.688,111.984 662,102 660,92 659,81 657,71 656.74,57.73 655.702,49 649.138,41.834 646.372,33.54 
		646.372,25.246 648.101,14.188 649.138,6.586 651.211,0 	"/>
	<polygon fill="#00FF00" stroke="#800080" points="1280,0 1280,241.111 1271.113,242.725 1259.818,243.802 1249.598,243.802 
		1242.474,243.802 1230.235,241.649 1220.012,239.154 1211.028,236.389 1202.734,232.933 1194.095,229.132 1188,225 1182,219 
		1177,212 1171,206 1166,199 1161,192 1156,185 1150,179 1145,172 1141.569,162.438 1138,155 1137,144 1136,133 1136,123 1138,112 
		1139,102 1141,92 1142,81 1142,70 1144,60 1145,50 1148,41 1152,32 1158.159,24.351 1164.031,17.991 1169.56,11.771 1175.78,7.624 
		1185.801,0 	"/>
	<polygon fill="#00FF00" stroke="#800080" points="90.167,1024 95.167,1016.838 102,1011 105.5,1008.171 111.5,1005.838 
		117.834,1003.838 123.834,1002.171 129.5,1000.171 136.5,998.171 141.834,996.504 149.5,994.838 155.167,992.504 162.167,990.504 
		171.833,990.171 178.834,990.838 184.834,991.838 191.167,994.504 197.167,994.838 204.5,994.504 211.167,994.171 219.834,994.838 
		224.5,996.838 230.834,1001.504 237.5,1006.253 243.167,1011 248.5,1015.504 251.834,1018.838 253.5,1024 	"/>
	<polyline fill="#00FF00" stroke="#800080" points="0,144.153 5.452,151.419 10.581,159.112 15.282,166.378 20.616,173.633 
		24.77,181.223 25.63,190.104 24.627,197.981 22.549,202.5 19.984,209.118 20.411,215.102 20.616,222.904 18.611,228.49 
		16.565,232.626 10.581,237.755 5.88,240.319 0,242.029 0,144.153 	"/>
</g>
</svg>
