<?xml version="1.0" encoding="utf-8"?>
<!-- Generator: Adobe Illustrator 16.0.5, SVG Export Plug-In . SVG Version: 6.00 Build 0)  -->
<!DOCTYPE svg PUBLIC "-//W3C//DTD SVG 1.1//EN" "http://www.w3.org/Graphics/SVG/1.1/DTD/svg11.dtd">
<svg version="1.1" id="Layer_1" xmlns="http://www.w3.org/2000/svg" xmlns:xlink="http://www.w3.org/1999/xlink" x="0px" y="0px"
	 width="1280px" height="1024px" viewBox="0 0 1280 1024" enable-background="new 0 0 1280 1024" xml:space="preserve">
<g id="Raw_image">
	
		<image overflow="visible" enable-background="new    " width="1280" height="1024" xlink:href="normal_15.jpg"  transform="matrix(1 0 0 1 2.441406e-004 -0.0017)">
	</image>
</g>
<g id="Not_annotated">
</g>
<g id="Clumps" opacity="0.5">
</g>
<g id="Single_nuclei" opacity="0.5">
	<polygon fill="#00FF00" stroke="#800080" points="674.095,1024 677.552,1016.988 683,1012 689,1007 696.5,1004.834 706.834,1003 
		718,1003 729,1004 739,1006 747,1010 753,1016 758,1024 	"/>
	<polygon fill="#00FF00" stroke="#800080" points="69,308 57,308 49,304 41,300 35,294 29,288 24,281 19,274 14,267 10,259 8,249 
		8,237 10,227 14,218 19,212 24,205 29,198 35,192 43,187 51,183 63,183 74,184 84,186 93,189 102,192 109,197 115,203 120,210 
		124,218 126,228 126,240 124,250 121,259 117,267 113,274 108,281 102,287 95,292 88,298 81,302 73,306 	"/>
	<polygon fill="#00FF00" stroke="#800080" points="62,809 50,809 40,807 31,804 25,798 19,792 14,785 10,777 9,766 11,756 14,747 
		18,739 22,731 28,725 34,719 41,714 49,709 57,705 66,702 75,700 86,698 96,700 105,703 112,708 118,714 123,721 127,729 129,739 
		133,747 131,757 128,765 123,773 119,780 113,787 107,793 100,798 92,802 84,805 74,807 63,808 	"/>
	<polygon fill="#00FF00" stroke="#800080" points="134,544 122,544 113,541 105,537 96,534 89,529 83,523 79,515 75,507 72,498 
		72,486 74,476 77,467 81,459 85,451 89,443 93,435 97,427 102,420 109,414 117,410 126,407 137,406 147,408 156,411 162,417 
		168,423 174,429 180,435 184,443 189,450 192,459 194,469 193,480 192,491 190,501 187,509 182,516 176,522 170,528 162,533 
		155,537 146,541 137,543 	"/>
	<polygon fill="#00FF00" stroke="#800080" points="239.651,250.33 233,249 224,246 217,241 210,236 204,230 200,222 199,211 
		198,200 199,189 203,180 207,172 210,164 213,155 218,148 224,142 232,137 240,133 250,131 261,132 271,134 280,137 287,142 
		295,146 302,151 305.439,157.623 308,167 306,177 303,185 299,193 292.468,200.464 285.624,202.536 279.019,207.821 
		273.956,215.746 269.993,223.672 265,232 259,238 253,243 246,249 	"/>
	<polygon fill="#00FF00" stroke="#800080" points="381,848 370,847 361,844 352,841 344,837 336,833 330,827 324,821 319,814 
		315,806 311,798 309,788 309,776 312,766 315,757 319,749 324,742 330,737 338,733 348,730 358,729 369,729 379,731 389,733 
		399,735 408,738 417,741 425,745 432,750 438,756 443,763 447,771 448,782 451,789 449,798 444,806 439,813 434,820 428,826 
		422,831 415,836 407,841 399,844 390,847 	"/>
	<polygon fill="#00FF00" stroke="#800080" points="405,212 395,210 385,208 379,202 372,197 368,189 362,183 357,176 354,167 
		352,157 351,146 350,135 351,124 354,114 358,107 365,101 373,97 381,94 392,92 402,92 411,95 418,100 427,103 434,108 438,116 
		443,123 447,131 449,141 450,151 447,160 442,168 438,175 434,183 429,191 423,197 417,202 411,209 	"/>
	<polygon fill="#00FF00" stroke="#800080" points="685,775 674,774 664,772 656,768 649,763 643,757 637,751 633,743 629,735 
		625,727 623,717 623,707 624,696 626,686 627,675 629,665 632,655 637,648 642,641 648,635 656,631 664,627 673,625 684,625 
		694,627 702,631 709,636 716,641 721,648 726,655 729,664 732,673 733,684 734,693 731,702 729,712 727,722 726,733 724,742 
		719,750 714,757 708,763 701,767 693,772 	"/>
	<polygon fill="#00FF00" stroke="#800080" points="763.973,964.635 757,964 748,961 740,957 731,954 724,949 717,944 711,938 
		707,930 704,921 702,911 703,900 707,891 710,882 715,875 721,870 728,864 735,860 744,856 754,854 764,852 775,853 785,855 
		794,858 800,864 806,870 810,878 814,886 816,896 817,907 817,918.659 815,927 811,935 805,940 799,947 793,953 786,957 778,961 
		769,964 	"/>
	<polygon fill="#00FF00" stroke="#800080" points="829.367,1024 826.028,1015.28 824,1003 825,992 827,982 830,973 834,965 839,957 
		844,950 850,944 856,938 861.959,933.112 870.315,929.77 880.064,927.82 889.813,927.82 900.115,927.544 911.535,929.49 918,932 
		924,938 930,944 935,951 939,959 942,968 944,978 946,988 945,999 942,1008 936.325,1024 	"/>
	<polygon fill="#00FF00" stroke="#800080" points="983,782 972,781 964,777 956,773 949,768 943,762 938,755 934,747 930,739 
		929,728 930,717 932,707 935,698 938,689 943,682 948,675 954,669 960,663 967,657 974,652 981,648 989,643 996,638 1003,634 
		1012,630 1022,628 1032,626 1043,625 1053,627 1063,629 1072,632 1079,637 1086,642 1091,649 1096,656 1100,664 1102,674 1104,684 
		1104,694 1104,706 1101,715 1098,723 1094,732 1089,739 1084,745 1078,751 1071,756 1063,760 1054,763 1045,766 1036,769 1025,770 
		1014,771 1005,775 997,778 988,781 	"/>
	<polygon fill="#00FF00" stroke="#800080" points="1045,223 1034,222 1024,220 1014,218 1006,214 1001,207 996,200 992,192 989,183 
		987,173 985,163 987,152 986,142 989,133 993,125 998,118 1003,110 1010,105 1018,101 1027,99 1037,100 1044,105 1049,112 
		1053,120 1056,129 1060,137 1062,147 1067,154 1071,162 1075,170 1078,179 1078,191 1075,200 1072,208 1066,214 1059,219 1050,222 
			"/>
	<polygon fill="#00FF00" stroke="#800080" points="1068,964 1057,963 1046,962 1035,963 1026,960 1019,955 1010,952 1004,946 
		999,939 994,932 991,923 989,913 988,902 990,891 993,883 997,875 1003,869 1011,864 1018,860 1026,855 1034,852 1044,849 
		1055,848 1064,851 1074,853 1083,856 1092,859 1100,863 1107,868 1112,875 1116,883 1118,893 1116,903 1118,913 1116,923 1114,933 
		1110,940 1105,947 1098,952 1090,956 1081,959 1072,962 	"/>
	<polygon fill="#00FF00" stroke="#800080" points="1145,436 1133,436 1123,434 1115,430 1108,425 1101,420 1095,414 1091,406 
		1087,398 1083,390 1081,380 1079,370 1079,358 1081,348 1085,340 1089,332 1093,324 1098,317 1104,311 1111,305 1118,301 1127,297 
		1137,295 1148,296 1156,300 1163,305 1170,310 1176,316 1182,322 1186,330 1189,339 1191,349 1190,360 1189,371 1189,383 1187,393 
		1184,401 1180,409 1175,417 1169,423 1162,428 1155,432 1146,435 	"/>
	<polygon fill="#00FF00" stroke="#800080" points="1206,810 1194,810 1184,808 1176,804 1169,799 1162,794 1157,787 1152,780 
		1148,772 1144,764 1142,754 1141,743 1143,732 1145,723 1149,715 1153,707 1158,700 1164,693 1169,687 1175,681 1183,676 1192,673 
		1203,672 1215,672 1224,675 1231,680 1237,686 1244,691 1247,700 1251,708 1256,715 1258,725 1257,736 1257,748 1255,756 1256,766 
		1253,776 1249,784 1243,790 1237,795 1230,800 1222,804 1214,808 	"/>
	<polygon fill="#00FF00" stroke="#800080" points="1280,612.869 1271.323,615.603 1261,617 1250.3,618.127 1242.31,617.705 
		1234.5,614.761 1227.593,609.927 1220.865,606.141 1213,601 1206.569,596.052 1200,590 1195,583 1191.43,575.025 1189,565 
		1190,555 1193,547 1198,540 1206,535 1214,531 1223,528 1235.412,524.387 1246.095,522.472 1256.424,522.472 1270.063,524.355 
		1280,527.719 	"/>
	<polygon fill="#00FF00" stroke="#800080" points="540.38,895.454 541.387,903.01 544.408,911.573 547.432,916.107 550.453,920.64 
		547.432,924.671 544.912,929.203 541.891,934.24 541.387,944.316 542.394,950.361 544.912,956.908 548.439,963.457 
		552.469,969.503 558.514,974.539 565.566,979.576 574.633,983.607 581.685,985.621 587.73,986.125 593.271,986.125 600.826,984.11 
		607.375,981.592 614.931,977.562 621.48,973.028 627.524,967.99 631.554,964.465 635.08,958.421 639.614,953.383 643.644,945.323 
		643.644,937.263 643.644,929.707 641.125,924.671 637.599,918.625 637.095,913.589 640.116,909.055 640.116,902.003 
		637.599,893.943 636.088,886.891 633.065,880.343 629.539,874.298 627.021,868.253 622.99,861.704 618.961,856.668 
		614.427,853.141 607.879,849.615 600.323,846.089 593.271,846.089 586.219,846.593 578.158,848.104 571.107,851.63 
		564.055,855.156 558.514,858.682 552.973,864.223 548.439,870.771 544.408,877.32 541.387,883.868 	"/>
</g>
</svg>
