<?xml version="1.0" encoding="utf-8"?>
<!-- Generator: Adobe Illustrator 16.0.1, SVG Export Plug-In . SVG Version: 6.00 Build 0)  -->
<!DOCTYPE svg PUBLIC "-//W3C//DTD SVG 1.1//EN" "http://www.w3.org/Graphics/SVG/1.1/DTD/svg11.dtd">
<svg version="1.1" id="Layer_1" xmlns="http://www.w3.org/2000/svg" xmlns:xlink="http://www.w3.org/1999/xlink" x="0px" y="0px"
	 width="1280px" height="1024px" viewBox="0 0 1280 1024" enable-background="new 0 0 1280 1024" xml:space="preserve">
<g id="Raw_image">
	
		<image overflow="visible" enable-background="new    " width="1280" height="1024" xlink:href="normal_19.jpg"  transform="matrix(1 0 0 1 2.441406e-004 -2.441406e-004)">
	</image>
</g>
<g id="Not_annotated" opacity="0.5">
	<polygon fill="#0000FF" stroke="#800080" points="417,0 411,3 400,2 	"/>
	<polygon fill="#0000FF" stroke="#800080" points="1151,833 1140,832 1134,826 1133,816 1138,809 1147,806 1154,811 1159,818 
		1157,828 	"/>
	<polygon fill="#0000FF" stroke="#800080" points="1279,45 1275,39 1274,28 1273,17 1272,8 	"/>
</g>
<g id="Clumps" opacity="0.5">
	<polygon fill="#FF0000" stroke="#800080" points="478,0 486,4 496,6 505,9 511,15 517,21 521,29 524,38 525,48 522,57 524,66 
		529,73 534,80 537,89 535,99 531,107 527,115 523,122 519,131 516,139 510,146 502,150 495,155 491,162 485,169 480,175 473,181 
		466,185 458,189 450,194 442,197 432,199 422,201 411,200 400,199 392,195 386,189 381,182 375,183 372,192 368,200 364,208 
		359,214 350,217 339,216 329,214 320,217 310,219 299,218 288,217 278,215 271,210 263,210 255,214 247,210 245,200 243,190 
		236,185 230,179 226,171 227,160 228,151 231,142 234,133 232,123 229,114 225,106 221,98 216,91 211,84 211,74 213,63 215,54 
		221,48 228,43 235,37 241,31 248,27 256,23 263,17 269,11 276,7 282,0 	"/>
	<polygon fill="#FF0000" stroke="#800080" points="1279,376 1272,381 1264,385 1256,390 1249,394 1241,398 1232,402 1224,405 
		1216,409 1206,411 1197,415 1188,417 1176,417 1164,417 1154,415 1143,414 1134,411 1126,407 1119,402 1112,397 1105,392 1098,387 
		1091,382 1085,376 1080,369 1075,372 1071,381 1067,388 1064,398 1061,406 1058,416 1056,426 1052,434 1047,441 1042,448 1036,453 
		1028,457 1019,461 1011,464 1002,468 993,470 982,471 972,473 960,473 949,474 939,472 930,469 922,465 915,460 908,455 902,449 
		897,442 890,440 888,450 887,461 885,471 883,480 879,488 874,496 869,503 863,509 860,518 855,525 847,529 840,534 834,539 
		826,543 816,545 805,544 796,541 788,542 789,553 788,563 783,571 779,579 774,586 769,592 762,597 755,602 747,606 738,610 
		746,612 755,615 764,616 771,612 782,610 791,613 798,618 803,625 806,634 813,639 819,645 824,652 828,660 832,668 837,675 
		840,684 841,695 839,705 836,714 831,721 824,725 816,730 809,734 805,743 803,753 798,759 790,763 779,762 771,758 763,758 
		757,764 749,768 739,770 728,769 720,765 714,759 708,753 699,750 691,746 682,743 672,741 663,738 656,733 650,727 646,719 
		643,710 645,700 646,689 642,681 635,687 627,690 618,693 608,696 598,697 587,698 577,696 567,694 560,689 552,685 546,679 
		539,674 533,668 528,661 524,653 519,646 516,637 512,629 506,623 499,618 492,613 487,606 482,599 477,592 472,585 467,578 
		464,569 462,559 461,548 462,537 464,527 468,519 475,513 483,510 492,507 496,499 503,493 513,491 517,484 522,476 527,470 
		535,465 547,465 554,463 556,453 558,443 561,434 566,427 572,421 578,414 584,408 592,404 601,401 610,398 621,397 631,395 
		642,394 652,392 663,393 672,396 680,400 688,404 695,409 702,409 702,397 705,388 709,380 712,371 716,362 721,356 727,349 
		733,344 740,338 747,333 754,329 762,325 773,323 784,322 794,324 803,327 811,331 819,335 826,340 833,345 839,351 845,357 
		852,362 856,355 858,345 860,335 864,326 868,319 873,312 879,306 887,301 895,297 903,293 912,290 922,288 932,286 943,285 
		953,287 963,289 973,291 984,292 993,295 1002,298 1011,301 1018,306 1026,310 1034,314 1040,320 1047,325 1054,330 1060,336 
		1066,342 1068,335 1067,324 1068,313 1071,304 1073,294 1077,286 1080,276 1084,268 1088,261 1095,255 1102,250 1108,245 1116,241 
		1125,237 1134,234 1143,231 1154,230 1165,229 1175,229 1187,229 1196,232 1206,234 1214,238 1222,242 1229,247 1237,251 1244,256 
		1250,262 1256,268 1262,274 1266,282 1271,289 1275,297 	"/>
	<polygon fill="#FF0000" stroke="#800080" points="828,0 833,7 836,16 837,27 838,38 836,48 833,57 830,65 826,74 821,81 815,87 
		809,93 802,98 795,103 787,106 779,110 771,115 764,119 755,123 747,126 737,128 729,132 720,135 711,138 701,140 690,141 678,141 
		668,139 660,135 653,130 647,124 641,118 636,111 631,104 628,95 625,86 622,77 619,68 617,58 616,47 611,41 604,45 596,49 585,50 
		576,47 566,45 559,40 553,34 549,26 545,18 537,14 531,8 525,2 	"/>
	<polygon fill="#FF0000" stroke="#800080" points="912,284 900,284 889,283 879,281 868,282 859,279 850,276 841,273 832,270 
		824,266 817,261 809,257 802,252 795,247 789,241 783,235 779,227 776,218 775,207 775,195 777,184 778,174 780,164 783,155 
		786,146 791,138 796,132 802,126 810,121 817,116 825,113 834,109 842,105 850,101 859,98 869,96 878,93 889,92 899,92 910,93 
		921,92 932,93 941,96 950,99 959,102 963,95 964,84 969,76 976,71 985,68 994,65 1002,62 1010,57 1017,53 1024,47 1030,41 1034,33 
		1037,25 1042,18 1050,13 1059,10 1068,8 1078,9 1087,12 1095,16 1106,17 1115,18 1121,24 1127,30 1132,37 1137,44 1139,54 1139,63 
		1135,72 1132,81 1128,88 1124,97 1124,108 1119,116 1117,126 1113,134 1108,141 1103,147 1097,153 1090,159 1083,164 1075,168 
		1068,172 1059,176 1051,179 1040,180 1030,178 1023,184 1021,193 1019,203 1017,214 1016,225 1012,233 1007,240 1001,245 995,251 
		988,257 982,263 975,267 966,270 957,273 949,277 940,280 930,282 920,282 	"/>
	<polygon fill="#FF0000" stroke="#800080" points="1279,923 1270,924 1260,922 1251,919 1240,918 1230,916 1221,913 1213,909 
		1205,905 1197,901 1189,897 1183,891 1177,885 1172,878 1168,870 1165,861 1163,851 1163,839 1165,828 1167,819 1171,810 1175,802 
		1179,795 1184,788 1191,782 1197,777 1205,772 1212,768 1220,763 1229,760 1239,759 1249,757 1261,756 1272,757 	"/>
</g>
<g id="Single_nuclei" opacity="0.5">
	<polygon fill="#00FF00" stroke="#800080" points="0,356 5,350 11,344 17,337 23,332 30,327 38,322 44,317 51,311 58,307 69,305 
		81,305 90,308 98,312 108,314 118,316 128,318 135,323 141,329 147,335 152,342 155,351 160,358 165,365 168,374 169,385 172,394 
		173,405 172,416 171,427 168,435 163,443 159,450 154,458 148,464 142,469 135,475 127,479 117,480 107,483 100,488 94,494 91,502 
		86,509 79,514 70,517 58,517 46,517 37,516 30,511 22,507 14,503 8,497 0,493 	"/>
	<polygon fill="#00FF00" stroke="#800080" points="292,585 280,585 270,583 262,579 254,575 250,567 249,556 246,547 244,537 
		242,527 242,517 242,505 242,493 243,482 240,473 235,466 232,457 229,448 230,437 233,428 234,417 237,407 241,400 245,392 
		249,384 255,377 261,371 269,367 278,364 286,361 295,357 306,356 317,357 326,360 334,364 342,368 348,374 353,381 360,386 
		366,392 371,399 376,406 379,415 382,424 384,434 386,444 387,455 385,465 382,473 382,484 383,495 382,506 379,515 376,524 
		373,533 372,544 369,553 365,561 360,568 354,574 347,578 339,582 328,583 318,581 307,582 297,584 	"/>
	<polygon fill="#00FF00" stroke="#800080" points="607,387 595,387 584,386 575,383 565,381 557,377 551,371 545,365 539,359 
		533,353 527,347 522,340 519,331 515,323 512,314 511,303 510,292 512,282 514,272 516,262 518,252 517,241 517,229 519,219 
		524,211 529,205 535,198 540,192 546,186 553,180 560,176 568,172 576,167 584,163 593,160 603,158 613,156 624,155 635,156 
		645,155 657,154 667,156 675,160 683,164 690,169 696,175 700,183 704,191 708,199 712,207 714,217 715,228 717,238 715,248 
		714,258 712,269 710,279 708,289 705,298 702,307 699,316 695,324 691,331 687,339 681,346 675,352 668,356 660,360 653,365 
		645,369 637,374 629,378 622,382 613,385 	"/>
	<polygon fill="#00FF00" stroke="#800080" points="1139,705 1127,705 1117,703 1108,700 1100,696 1092,692 1085,687 1078,682 
		1072,676 1065,671 1056,668 1048,664 1041,659 1035,653 1030,646 1025,639 1020,632 1016,624 1013,615 1011,605 1012,593 1013,583 
		1014,572 1018,564 1023,556 1027,548 1032,541 1037,535 1044,529 1051,524 1058,520 1065,515 1072,510 1079,505 1086,499 1093,494 
		1101,490 1110,488 1122,487 1134,487 1146,487 1156,487 1166,486 1178,485 1187,488 1194,493 1201,498 1209,502 1215,508 1220,515 
		1224,523 1229,530 1232,539 1237,546 1242,553 1244,563 1247,572 1250,581 1251,592 1251,604 1252,615 1250,624 1247,634 1245,644 
		1243,654 1240,663 1235,670 1229,675 1221,680 1213,684 1205,688 1198,692 1189,695 1180,699 1171,701 1160,703 1150,704 	"/>
	<polygon fill="#00FF00" stroke="#800080" points="1280,252.22 1272,248.341 1266.755,245.815 1259.709,241.216 1254.125,237.395 
		1247.811,230 1241.073,226.028 1232.234,222.239 1226.339,217.187 1221.707,211.714 1217.918,204.557 1213.709,196.137 
		1210.763,189.5 1209.498,178.034 1209,170 1212,160 1216,152 1220,144 1225,137 1229,130 1234,122 1239,116 1244,109 1251,103 
		1258,99 1266,95 1280,92 	"/>
	<polygon fill="#00FF00" stroke="#800080" points="413,203 404,200 396,196 388,192 383,185 378,178 376,168 375,157 375,145 
		374,134 373,123 375,113 377,103 379,93 381,83 384,74 387,64 391,56 396,50 401,43 407,36 413,31 420,25 426,19 432,14 437,7 
		443.698,3 455,0 467,0 479,0 490,1 500,3 508,7 516,11 520,19 524,27 527,36 526,47 525,58 529,66 533,74 535,84 536,93 533,102 
		530,111 527,120 523,127 518,135 514,142 507,147 500,152 493.662,158.248 489,166 485,173 479,179 472,184 464,188 455,192 
		447,195 439,199 428,200 418,202 	"/>
	<polygon fill="#00FF00" stroke="#800080" points="354,0 360,6 365,13 370,20 374,28 378,36 381,45 385,53 385.191,61.28 384,69 
		381,79 378,88 376,97 374.344,107.956 373,119 374,130 375,141 375,153 375,165 375,177 375,189 371,197 367,205 363,212 355,216 
		345,218 335,220 325,220 314,219 303,218 293,216 282,215 273,212 265,208 255,210 248.776,206.569 245,198 240,191 233,186 
		229,178 227,168 226,157 227,146 228,135 229,124 226,115 223,106 218,99 214.262,91.849 210.975,83.632 209.989,75.085 
		212.289,64.895 216.563,56.677 221.165,50.432 226.753,44.187 232.67,37.613 239.901,32.353 246.475,28.08 252,23 259,18 266,12 
		272,6 277,0 	"/>
	<polygon fill="#00FF00" stroke="#800080" points="816,544 805,543 797,539 791.669,535.4 785,529 778.599,524.76 773.73,517.412 
		769.016,509.478 764.416,502.821 758.651,496.103 752.895,488.862 747.607,481.929 742.847,474.67 736.346,466.144 731.838,461 
		726.92,452.62 722.409,445.244 718.344,438.774 712.932,431.137 707.673,424.01 703,413.279 703,407 704,395 708,387 711,379 
		714,369 718,362 723,355 729,349 736,343 743,338 750,333 757,329 766,325 776,323 788,323 797,326 805,330 813,334 821,338 
		828,343 835,348 841,354 846,361 851.906,364.923 857,372.709 861.335,379.5 865.433,387 870,395 875.678,405.903 880.186,416 
		881.047,423.094 884,429 887,438 888,447 887,457 885,467 883,477 879,485 875,493 869,500 864,506 859,514 856,522 848,527 
		841,531 834,537 827,541 817,543 	"/>
	<polygon fill="#00FF00" stroke="#800080" points="955,473 944,472 934,470 926,466 919,461 912,456 906,450 900,444 
		896.168,437.051 891.657,430.901 888,422.704 883.464,416 878.547,406.722 874.036,396.477 869.118,388.691 865.024,382.134 
		861.335,373.938 859,365 857,356 859,347 861,337 864,328 869,320 874,313 880,307 887,303 895,298 903,294 912,291 922,289 
		932,287 943,286 953,288 963,290 973,292 984,293 993,296 1002,299 1010,303 1018,307 1026,311 1033,316 1040,321 1046,327 
		1054,331 1060,337 1066,343 1068,353 1070,363 1071.155,371.479 1070,379 1066,387 1063,396 1060,405 1057,414 1055,424 1052,432 
		1047,439 1042,446 1035,452 1028,456 1019,459 1011,463 1002,466 993,469 982,470 972,472 960,472 	"/>
	<polygon fill="#00FF00" stroke="#800080" points="1187.664,414.801 1178,416 1166,416 1155,415 1145,413 1136,410 1128,406 
		1120,402 1113,397 1107,391 1100,386 1093,381 1087,375 1082.533,368.427 1077.921,361.386 1075,351 1072.337,341.72 1069,333 
		1068,322 1069,311 1073,302 1075,293 1079,284 1082,275 1086,267 1091,260 1097,255 1104,250 1111,245 1119,241 1128,237 1137,234 
		1146,232 1157,231 1168,231 1179,230 1190,231 1200,233 1209,236 1217,240 1224,245 1232,249 1239,254 1245,260 1251,266 1257,272 
		1263,278 1267,286 1271,294 1273.615,302.63 1276,313 1277.256,323 1278.713,332.251 1280,340.506 1280,368.67 1275.799,374.983 
		1271,380 1264,384 1256,388 1248,393 1240,397 1232,400 1224,404 1215,408 1206,410 1197,413 	"/>
	<polygon fill="#00FF00" stroke="#800080" points="724,608 713.397,608 703,608 693.726,608 681.842,605 671.5,602.608 
		663.833,600.834 653.167,596.667 644.833,590.501 639,585 632,580 626,574 620,568 613.369,562.971 607.346,558.209 
		601.603,552.466 596.56,545.462 591.493,538.464 587.783,532.509 584.269,524.308 581.828,517.378 579.891,508.622 
		577.528,501.817 575.596,496.298 573.864,490.333 571,485 566.628,477.396 561.247,471.602 558.902,465.737 558.902,453.443 
		558.902,443.198 562,435.005 565.049,426.396 568,422 574,415 581,411 589,406 596,402 604,397 613,394 625,394 637,394 649,394 
		659,396 667,400 676,403 684,407 692,411 700,415 705.198,420.656 710.938,428.442 717,436.638 722.409,445.244 726.92,452.62 
		731.838,461 736.346,466.144 741.673,473 745.5,478.438 749.459,485 756.016,492.371 760.934,499.341 766.671,505.075 770.359,512 
		776,521.057 780.604,527.614 783.883,534.174 786.341,544 788,555 787,566 782,572 777,579 771,586 766,593 759,597 750,600 
		741,603 731,606 	"/>
	<polygon fill="#00FF00" stroke="#800080" points="593.329,616.561 587.376,619.779 581.834,622.478 574.731,625.928 
		570.469,627.552 563.569,630.187 557.278,632.826 549.566,635.465 539.622,636.681 531.504,636.681 522.981,633.844 513,629 
		506,624 499,619 492.742,613.545 486.857,608.065 482.189,601.977 477.521,594.265 473.463,587.568 469.81,579.654 466.36,569.913 
		463.721,560.577 461.692,550.836 461.286,543.53 461.895,536.833 463.518,530.135 466.597,525.026 471.201,519.01 476.531,514.094 
		483.495,509.588 490.51,508.624 495.177,507.203 496.598,502.535 499.236,497.665 502.46,496.001 505.528,494.418 511.616,496.041 
		515.066,494.012 517.907,489.75 520.139,483.459 522.372,479.197 526.634,474.123 532.519,470.065 540.231,466.818 
		548.552,466.818 554.843,469.05 561.946,473.921 567.222,480.415 572,489 575.137,498.274 578.587,508.421 580.732,517.867 
		583.953,526.691 587.035,533.695 591.377,540.138 596.28,547.283 600.762,553.586 607.066,559.75 615.116,565.448 622,571 628,577 
		635.125,583.875 637.75,588.5 638,593.25 636.625,598.375 633.375,601.625 630.375,604.25 627,606.375 622.5,608.25 
		617.375,608.875 611.625,608.375 605.625,610.125 599.121,613.344 	"/>
	<polygon fill="#00FF00" stroke="#800080" points="726.531,765.521 723,763 718,756 712,750 704,746 694.952,743.994 
		685.94,740.719 677.334,738.26 666.679,737.028 659.713,731.7 653.156,725.143 648,718 646.25,708.25 647.233,696.545 
		647.825,686.5 648.5,677.334 650.147,668.657 655.202,659.165 660.667,649.667 665.5,642.501 672,637 681.659,633.302 
		694.136,633.347 704.5,637.5 715.033,635.806 718.724,627.201 725.691,620.644 733,615 742,613 752.738,616.956 762.983,625.152 
		767.901,619.008 771.589,613 779.782,613 788,613 795.5,616.956 801.504,623.102 804.781,629.25 812.569,637.446 818.306,645.232 
		823.224,650.149 829,658 833,666 837,674 841,682 842.073,690.31 841.83,698.868 838,705 833,712 828,719 821,724 813,728 805,732 
		804,743 801,752 791.259,760.386 783.473,761.206 774.048,755.882 771,749 764,753 760,760 751,763 741,765 731,767 	"/>
	<polygon fill="#00FF00" stroke="#800080" points="829,0 832,9 834,19 835,30 835,42 834,53 830,61 826,69 822,77 817,83 810,89 
		804,94 797,100 790,104 782,108 774,112 766,117 758,120 749,123 740,126 731,129 722,132 713,135 703,137 693,139 683,141 
		674,138 665,135 657,131 650,126 644,120 637,115 632,108 629,99 626,90 624,80 622,70 621,59 620,48 620,38 623,28 627,21 633,14 
		639,8 647.265,0 	"/>
	<polygon fill="#00FF00" stroke="#800080" points="888,285 878,283 869,280 860,277 851,274 841,272 833,268 825,264 818,259 
		811,254 803,250 796,245 789,240 785,232 781,224 777,216 776,205 776,193 777,182 777,170 779,160 783,151 786,143 792,136 
		798,131 805,125 812,120 819,115 826,110 833,106 841,101 852,100 862,98 873,97 884,96 896,96 907,95 918,94 929,95 939,97 
		948,100 957,103 965,107 972,112 979,117 985,123 991,129 997,135 1003,141 1009,147 1015,153 1020,160 1026,166 1025,177 
		1024,188 1023,199 1021,209 1019,218 1016,228 1013,237 1007,242 1000,248 994,253 987,259 981,264 974,269 966,273 955,275 
		945,276 935,278 924,279 914,281 903,282 893,284 	"/>
	<polygon fill="#00FF00" stroke="#800080" points="1037,175 1030,170 1024,164 1018,158 1013,151 1007,145 1001,139 995,133 
		989,127 983,121 977,115 971,109 967.971,99.503 967.243,90.129 969.604,82.766 974.907,77.052 981.031,70.5 988,67 996,63 
		1004,60 1013,56 1021,53 1028,48 1033,40 1037,33 1042,25 1048.386,19.088 1054,14 1063,10 1071.155,8 1079.406,8 1087,10 1096,13 
		1105,16 1114,19 1122,23 1130,27 1135,34 1137,44 1140,53 1140,63 1137,71 1133,80 1130,89 1127,98 1124,107 1122,116 1118,124 
		1113,132 1109,140 1105,147 1098,152 1090,157 1083,161 1076,166 1068,170 1063.49,172.978 1049.611,175 	"/>
	<polygon fill="#00FF00" stroke="#800080" points="1280,919.553 1269,918 1260,915 1251,912 1242,909 1232,907 1223,904 1215,900 
		1207,896 1199,892 1193,886 1188,879 1183,872 1179,864 1176,855 1176,845 1178,835 1179,824 1181,814 1184,805 1190,799 1196,792 
		1202,786 1209,781 1216,776 1223,772 1233,769 1241.531,765.989 1252,764 1264,764 1280,764 	"/>
	<polygon fill="#00FF00" stroke="#800080" points="530.396,0 532.801,6.75 537.311,8.854 541.821,11.258 546.632,12.461 
		549.338,17.273 548.135,24.789 551.141,30.201 555.35,35.613 561.964,41.025 567.073,43.43 572.486,45.234 578.498,45.234 
		586.016,45.234 592.328,45.501 598.041,45.501 605.558,41.325 610.668,37.719 616.079,31.705 620.002,27.797 623.597,19.981 
		623.597,14.269 623.597,8.557 623.996,6.152 623.996,0 	"/>
	<polygon fill="#00FF00" stroke="#800080" points="585.643,698.547 579.307,696.434 571.307,692.434 564.307,687.434 
		556.307,683.434 548.307,679.434 542.307,673.434 537.307,666.434 532.307,659.434 527.307,652.434 522.307,645.434 
		518.834,639.165 519.5,635.831 524.17,635.637 530.829,637.857 539.772,637.681 549.608,636.547 557.468,633.834 564.814,630.797 
		574.196,627.241 581.837,623.609 589.1,619.977 597.879,615.438 606.05,611.277 611.8,609.537 618.609,609.764 624.056,608.856 
		630.714,605.452 634.5,601.831 637.373,599.092 639.834,595.001 642,593.501 645.333,594.167 648.167,595.834 651.833,599.001 
		654.333,603.334 656.561,607.434 659.838,617.339 661.833,627.334 662.667,639.167 659.5,648.834 655.332,657.09 650.833,665.167 
		646,673.334 640.5,679.001 634.838,684.136 628.306,687.434 619.307,690.434 609.307,693.434 600.307,695.434 591.307,698.434 	"/>
</g>
</svg>
