<?xml version="1.0" encoding="utf-8"?>
<!-- Generator: Adobe Illustrator 16.0.5, SVG Export Plug-In . SVG Version: 6.00 Build 0)  -->
<!DOCTYPE svg PUBLIC "-//W3C//DTD SVG 1.1//EN" "http://www.w3.org/Graphics/SVG/1.1/DTD/svg11.dtd">
<svg version="1.1" id="Layer_1" xmlns="http://www.w3.org/2000/svg" xmlns:xlink="http://www.w3.org/1999/xlink" x="0px" y="0px"
	 width="1280px" height="1024px" viewBox="0 0 1280 1024" enable-background="new 0 0 1280 1024" xml:space="preserve">
<g id="Raw_image">
	
		<image overflow="visible" enable-background="new    " width="1280" height="1024" xlink:href="normal_32.jpg"  transform="matrix(1 0 0 1 0 -2.441406e-004)">
	</image>
</g>
<g id="Not_annotated" display="none" opacity="0.5">
	<polygon display="inline" fill="#0000FF" stroke="#800080" points="1262,1023 1262,1018 1272,1020 	"/>
</g>
<g id="Clumps" display="none" opacity="0.5">
	<path display="inline" fill="#FF0000" stroke="#800080" d="M0,1"/>
	<polygon display="inline" fill="#FF0000" stroke="#800080" points="101,832 89,832 78,831 69,828 61,824 55,818 52,809 53,798 
		48,791 39,792 29,794 21,790 17,784 10,779 8,771 8,759 6,749 3,740 7,732 10,723 8,713 10,703 11,692 13,681 17,674 23,668 
		30,662 39,659 50,658 56,653 59,644 64,636 68,628 73,622 81,617 89,613 98,610 108,608 119,609 128,612 137,615 145,619 151,625 
		160,628 170,630 179,633 188,636 196,640 202,646 207,653 207,665 211,673 214,682 215,693 214,704 214,716 214,728 213,739 
		212,750 209,758 205,766 201,775 198,783 192,790 186,796 182,804 176,810 170,815 163,820 154,823 143,824 134,825 125,828 
		115,828 105,830 	"/>
	<polygon display="inline" fill="#FF0000" stroke="#800080" points="440,0 444,8 447,17 448,28 451,37 452,48 452,59 449,69 447,79 
		445,89 444,100 443,111 440,120 436,127 431,135 435,141 440,135 446,128 451,122 460,118 468,115 477,111 486,108 494,104 
		502,100 512,100 523,101 534,102 542,106 548,112 552,120 556,128 559,137 559,148 557,159 556,170 553,179 547,185 544,192 
		545,201 542,209 542,219 537,226 531,233 527,240 522,248 516,254 508,258 500,261 491,264 480,265 471,262 463,262 455,258 
		446,255 441,248 435,242 429,236 421,232 423,222 421,212 414,209 406,205 404,198 405,190 400,187 394,193 387,198 377,200 
		367,200 361,203 362,214 360,224 356,232 353,241 349,249 344,256 340,264 334,270 327,275 320,280 314,285 308,292 303,298 
		296,304 289,308 279,310 268,311 258,311 247,312 237,310 230,305 223,300 217,294 213,286 208,279 203,272 198,265 195,256 
		194,245 193,234 195,224 196,213 196,203 199,194 202,185 205,176 208,166 214,160 221,156 230,152 238,148 249,147 258,146 
		265,142 275,139 285,141 291,147 302,148 307,142 302,135 296,129 292,121 287,114 285,104 283,94 284,83 283,72 281,62 279,52 
		280,41 281,30 283,20 286,11 293,5 299,0 	"/>
	<polygon display="inline" fill="#FF0000" stroke="#800080" points="403,728 393,726 383,724 371,725 360,725 354,719 345,718 
		337,714 331,708 324,703 319,696 311,692 306,685 300,679 295,672 289,666 285,658 285,646 283,636 282,627 284,617 283,606 
		285,596 291,590 299,585 304,579 308,571 312,562 319,557 327,553 336,551 346,548 355,546 361,540 366,533 363,526 354,525 
		347,520 340,515 332,511 326,505 317,502 312,495 306,489 302,481 298,473 295,464 292,455 290,445 290,435 294,427 299,420 
		304,413 308,404 309,394 314,387 321,381 327,376 334,370 340,364 345,358 351,352 359,347 368,344 378,343 388,340 398,340 
		407,343 415,347 422,352 429,357 437,361 444,366 451,371 457,377 463,383 467,391 474,396 480,402 486,408 491,415 495,423 
		496,434 496,444 498,454 497,464 494,474 490,482 486,490 481,496 476,503 470,509 462,513 453,516 443,519 447,525 454,530 
		457,539 463,545 470,550 477,553 478,543 478,533 479,522 481,512 485,503 490,496 496,491 502,485 509,479 515,473 522,469 
		532,466 539,461 545,456 556,454 563,450 572,446 582,446 592,448 601,451 608,456 614,462 620,468 627,473 631,481 636,488 
		641,495 646,502 649,511 652,520 654,530 653,541 652,552 649,561 646,569 643,579 640,588 638,598 635,606 630,613 624,620 
		618,626 612,631 603,634 593,636 582,635 570,635 559,634 549,632 540,629 532,625 523,622 516,617 509,612 503,608 501,617 
		500,628 496,635 498,644 498,656 495,664 491,672 485,679 478,683 472,689 465,695 458,699 449,702 440,705 432,710 426,716 
		421,722 412,726 	"/>
	<polygon display="inline" fill="#FF0000" stroke="#800080" points="641,0 638,6 632,12 624,17 619,23 612,28 605,33 596,36 585,37 
		575,35 567,31 560,26 549,25 541,21 536,14 530,8 525,1 	"/>
	<polygon display="inline" fill="#FF0000" stroke="#800080" points="669,822 658,821 649,818 638,817 629,814 622,809 615,804 
		608,799 605,790 601,782 593,780 584,777 575,774 569,768 566,759 568,749 573,741 575,732 576,721 577,710 579,699 585,693 
		589,686 593,677 598,671 605,666 614,663 621,658 627,652 634,647 640,640 646,635 654,631 665,629 675,627 685,629 694,632 
		700,638 706,644 713,649 714,643 709,636 709,624 708,613 701,608 698,599 695,590 695,580 700,573 707,567 711,560 716,553 
		721,546 727,540 733,533 737,526 738,517 731,512 722,509 713,506 702,505 695,500 689,494 684,487 680,479 679,468 676,459 
		674,449 672,439 664,438 655,437 650,443 641,444 631,442 622,439 612,437 605,432 599,426 592,421 587,414 580,409 575,402 
		571,394 565,388 559,382 555,374 552,365 551,354 552,343 555,333 560,326 566,320 572,315 578,309 584,303 592,298 601,295 
		610,292 618,289 627,285 636,282 646,280 656,278 666,280 675,277 685,275 695,277 700,284 706,290 717,291 725,293 729,301 
		733,309 736,318 735,329 733,339 730,348 737,349 742,343 748,337 756,333 763,327 759,320 754,313 753,302 756,293 751,286 
		743,282 735,278 725,276 719,270 716,261 716,251 722,244 729,239 734,232 739,226 741,218 730,219 722,215 713,214 702,215 
		691,214 681,212 674,207 667,202 661,196 655,190 649,184 647,174 645,164 645,153 645,142 647,131 648,121 644,113 644,103 
		644,91 647,82 652,75 659,69 666,65 674,61 681,55 688,51 696,47 705,43 716,42 727,41 737,39 747,41 757,43 767,45 775,49 783,53 
		792,56 799,61 804,68 809,75 813,83 817,91 820,100 821,111 822,122 822,133 818,142 816,151 813,160 810,170 807,179 802,186 
		796,192 793,197 803,197 814,197 823,194 828,187 834,180 844,182 855,183 865,185 876,186 884,190 895,191 904,192 908,200 
		911,209 909,219 909,231 908,242 907,252 903,261 899,269 895,276 890,284 885,291 879,296 872,301 865,306 858,311 849,312 
		839,315 828,316 821,321 818,328 828,330 838,332 847,333 852,340 857,347 862,354 867,361 869,371 870,382 869,393 868,403 
		865,413 863,422 859,431 856,440 853,449 850,457 846,465 841,473 837,480 831,487 825,493 832,498 836,506 839,515 841,525 
		847,531 852,538 852,548 856,556 855,567 853,577 847,583 844,592 841,600 836,608 832,616 829,624 822,629 816,635 810,642 
		804,647 796,652 786,653 776,656 771,662 762,665 753,662 744,664 735,664 732,670 735,679 741,685 748,690 753,697 753,707 
		755,717 756,728 752,736 748,743 743,751 741,761 739,770 735,779 729,785 721,784 715,791 710,797 706,805 698,809 688,811 
		680,815 673,820 	"/>
	<polygon display="inline" fill="#FF0000" stroke="#800080" points="1046,1023 1046,1015 1051,1007 1057,1001 1062,995 1069,989 
		1076,984 1084,980 1092,976 1102,975 1112,972 1123,971 1135,971 1146,972 1156,974 1165,977 1174,980 1183,983 1191,987 1198,992 
		1196,987 1189,982 1183,976 1176,971 1170,965 1164,959 1161,950 1157,942 1153,934 1149,926 1144,919 1138,913 1133,906 1129,898 
		1125,890 1123,880 1114,880 1109,886 1102,891 1095,896 1087,901 1081,906 1073,910 1062,909 1057,902 1053,894 1047,888 1040,883 
		1033,878 1025,874 1018,869 1011,864 1005,858 1002,849 1005,839 1008,831 1008,819 1010,809 1013,799 1017,791 1021,784 1026,776 
		1031,770 1037,764 1043,758 1051,753 1058,749 1058,741 1053,734 1049,726 1044,719 1038,713 1034,705 1031,696 1031,684 1034,675 
		1039,667 1045,661 1052,657 1061,653 1068,648 1075,643 1085,645 1095,647 1106,648 1117,647 1128,646 1133,642 1124,639 1115,636 
		1105,634 1098,629 1092,623 1088,615 1081,610 1077,602 1073,594 1072,583 1071,572 1071,562 1074,553 1077,544 1080,535 1085,527 
		1089,520 1095,513 1100,507 1107,501 1111,494 1105,488 1095,488 1087,484 1082,477 1079,468 1074,461 1069,454 1065,446 1060,439 
		1055,432 1047,428 1045,419 1051,413 1055,406 1057,395 1061,387 1063,378 1067,369 1076,366 1087,365 1097,363 1106,360 1114,357 
		1122,353 1132,350 1141,347 1151,345 1162,346 1172,348 1180,352 1185,346 1196,346 1203,351 1207,359 1206,368 1210,376 1215,383 
		1224,386 1229,393 1230,404 1224,410 1221,419 1227,425 1232,419 1241,415 1248,411 1258,408 1266,404 1273,400 	"/>
	<polygon display="inline" fill="#FF0000" stroke="#800080" points="1279,324 1271,322 1262,320 1252,321 1242,321 1233,318 
		1234,311 1229,304 1220,301 1213,296 1205,299 1198,303 1190,307 1181,311 1173,314 1166,320 1159,324 1150,327 1143,332 1135,336 
		1124,337 1114,339 1103,340 1093,338 1085,334 1075,332 1066,329 1059,324 1051,320 1043,316 1037,310 1033,302 1031,292 1029,282 
		1029,272 1030,261 1028,251 1028,239 1029,230 1029,220 1029,210 1032,200 1035,191 1039,184 1044,176 1048,169 1053,161 1059,155 
		1065,150 1072,145 1080,141 1089,137 1097,133 1104,129 1114,126 1126,126 1137,125 1149,125 1159,127 1168,130 1176,134 1181,141 
		1189,145 1196,150 1204,154 1211,150 1216,143 1221,136 1227,130 1234,125 1241,119 1248,114 1256,110 1264,106 1271,102 	"/>
	<polygon display="inline" fill="#FF0000" stroke="#800080" points="1279,37 1271,35 1265,29 1264,20 1261,11 1252,10 1244,14 
		1236,11 1229,15 1217,15 1206,17 1195,17 1184,16 1177,11 1173,3 	"/>
</g>
<g id="Single_nuclei" opacity="0.5">
	<polygon fill="#00FF00" stroke="#800080" points="0,469 10,467 20,469 27,474 34,479 43,482 51,486 55,494 61,500 64,509 68,517 
		70,527 73,536 73,548 71,558 68,567 64,575 59,581 51,586 43,589 35,594 30,600 27,609 21,616 13,619 0,628 	"/>
	<polygon fill="#00FF00" stroke="#800080" points="255,0 254,9 252,19 250,29 247,38 243,46 239,54 235,62 231,70 227,78 224,86 
		218,92 210,97 202,100 192,102 180,102 171,103 160,105 149,105 139,103 130,100 122,96 114,92 107,87 102,80 99,71 96,62 93,53 
		91,43 92,34 91,25 91,15 95,0 	"/>
	<polygon fill="#00FF00" stroke="#800080" points="976,0 978,10 973,17 967,23 959,26 951,30 945,36 936,40 929,44 927,53 925,63 
		921,70 912,73 902,74 895,79 887,82 877,80 868,77 857,76 846,75 836,73 826,71 820,65 815,58 809,52 805,44 799,38 792,33 
		789.294,28.73 789,24 789.085,15.552 791.595,7.394 795,0 	"/>
	<polygon fill="#00FF00" stroke="#800080" points="917,851 905,851 894,850 889,843 880,840 871,837 864,832 857,827 852,820 
		846,814 841,807 836,800 834,790 831,781 828,772 825,763 821,755 818,746 816,736 816,724 817,713 821,704 824,696 828,688 
		833,680 836,672 839,662 845,656 852,651 856,643 861,636 868,631 877,628 886,625 897,624 909,624 919,626 928,629 937,632 
		946,635 953,640 959,646 965,652 971,658 977,664 982,671 986,679 991,686 994,695 998,703 1001,712 1002,723 1003,732 1005,742 
		1006,753 1005,764 1007,774 1006,785 1004,795 1000,803 994,808 988,814 982,820 975,826 968,830 960,834 952,839 945,843 937,848 
		928,850 	"/>
	<polygon fill="#00FF00" stroke="#800080" points="991,626 980,625 970,623 961,620 953,616 947,610 942,603 936,597 930,591 
		926,583 921,576 916,569 912,561 909,552 907,542 905,532 903,522 904,511 904,499 907,489 910,480 913,472 918,464 923,457 
		928,451 934,445 942,440 949,435 958,432 966,428 976,426 986,428 994,432 1002,436 1008,442 1012,450 1016,458 1019,467 1022,476 
		1025,485 1029,493 1033,501 1037,509 1038,520 1040,529 1040,540 1039,551 1039,563 1038,574 1036,584 1033,592 1028,600 1023,607 
		1018,614 1012,619 1004,623 994,625 	"/>
	<polygon fill="#00FF00" stroke="#800080" points="1280,668.75 1274,664 1271,655 1269,645 1267,635 1268,624 1271,614 1280,600.25 
			"/>
	<polygon fill="#00FF00" stroke="#800080" points="178,587 168,585 160,581 153,576 144,577 135,574 128,569 122,563 116,557 
		111,550 101,548 95,542 90,535 85,528 80,521 75,514 74,503 73,492 73,482 74,472 79,465 83,458 85,448 88,439 92,431 95,421 
		104,418 110,413 115,405 121.5,400.5 132,398 141,395 148,391 159,389 168,392 178,392 186,388 195,391 204,394 213,393 222,396 
		230,400 237,405 242,412 248,418 252,426 258,432 264,438 270,444 274,452 277,461 279,471 278,482 276,492 273,500 269,509 
		265,517 262,526 257,533 252,540 245,545 241,553 237,561 232,567 223,570 213,572 203,574 194,577 188,583 179,586 	"/>
	<polygon fill="#00FF00" stroke="#800080" points="102,403 90,403 81,400 72,397 65,392 60,385 53,380 47,374 42,367 38,359 36,349 
		30,343 27,334 26,323 29,314 31,303 36,297 41,290 48,284 56,280 62,275 69,269 77,266 86,262 98,262 110,262 122,262 133,263 
		142,266 152,268 160,272 169,275 178,278 184,284 189,291 194,298 198,306 200,316 199,327 196,336 191,343 188,351 180,356 
		175,363 169,368 163,374 156,379 150,386 141,388 132,391 123,394 115,399 106,401 	"/>
	<polygon fill="#00FF00" stroke="#800080" points="113.129,260.249 102.598,260.438 92.211,259.761 81,256 71,254 62,251 58,243 
		54,235 52,225 49,216 46,207 39.75,200.25 33,191 29.669,185.027 29.75,177.25 30.347,172.835 34.25,169.25 41.41,168.996 47,166 
		47.928,161.358 49,156 54,148 58,141 63,134 68,127 74,120 80,115 89.75,113.25 97,115 105,119 113,123 118,130 127,133 
		132.5,135.25 138.75,135 147.5,132.5 155,136.5 159.75,140 160,148 163,157 173,159.25 179.5,161.75 181.75,167.5 177,173.25 
		175.75,181.5 184.5,187.5 188,197 188,204.5 182.5,211.5 168,216 160,219 150,221 141,225 142,234 142.218,243.078 
		134.785,247.947 132.991,252.688 132.991,259.095 128.891,261.017 121.587,260.12 	"/>
	<polygon fill="#00FF00" stroke="#800080" points="0,180 8,178.25 19.25,184.5 27.25,192.25 33,199 38.5,202.75 40.5,208 
		41.5,212.75 38.75,218.25 40,225 41,236 45.022,241.472 47.28,245.537 47.958,250.052 46.75,256 39.5,264.25 32,267.25 30,274 
		33.733,278.052 33.5,283.25 29.443,288.212 23,291 18,299 10.5,310.5 0,318.25 	"/>
	<polygon fill="#00FF00" stroke="#800080" points="32,148 17.75,150.5 8.5,150.25 0,150 0,132 0,120 0,108 0,96 0,84 0,72 0,60 
		0,48 0,36 0,24 0,0 54,0 73.75,0 76.858,4.396 77.75,9.25 77.536,14.556 75,20 76.858,25.62 81.5,30.25 86,44.75 90.5,63 94.25,83 
		88.25,104 80,109 74,115 69,121 63,127 57.667,134.901 49.99,138.965 42,143 37,147.25 	"/>
	<polygon fill="#00FF00" stroke="#800080" points="0,738 1,728 2,717 5,707 8,698 11,689 14,681 19,674 25,667 30,660 37,656 
		46,652 53,648 59,642 63,634 67,626 73,620 82,616 90,612 99,609 109,608 120,606 129,609 137,613 146,616 154,620 163,623 
		171,627 180,630 188,634 197,637 203,643 207,651 212,658 216,666 216,678 217,689 218,700 218,710 218,722 217,733 217,744 
		214,754 210,762 206,769 202,777 197,785 192,791 186,797 180,803 174,809 168,815 162.25,818.75 157,822 143,824.75 133.25,826 
		123.5,828.75 110.5,829.5 101,833.25 89.5,832 77.75,831.5 65.75,827 56.639,820.853 50,815 47.803,808.903 49,804 48.981,798.888 
		47,795.75 42.837,794.933 38,796 33.917,797.29 29,798 25.081,796.785 20.873,794.764 13,790 9,782 4,775 3,764 1,754 0,743 	"/>
	<polygon fill="#00FF00" stroke="#800080" points="252,311 241,310 233,306 226,301 220,295 216,287 211,280 206,273 201,266 
		197,258 195,248 194,237 195,226 197,216 197,205 200,197 203,187 205,178 208,169 214,162 221,158 229,154 237,150 248,148 
		258,148 265,143 274,140 284,142 291,147 301,149 311,151 316.79,151.816 322.453,155.313 326.95,160.643 334.112,164.64 
		343.438,172.802 348.435,182.628 355.597,190.456 360.094,197.617 361,209 360,220 356,228 353,237 350,245 345,252 340,260 
		335,267 329,272 322,277 315,282 309,288 304,295 298,301 290,306 282,309 271,310 259,310 	"/>
	<polygon fill="#00FF00" stroke="#800080" points="379,199 367,199 359.927,194.953 355.597,188.957 349.768,183.294 
		344.832,173.834 339,167 329.115,161.975 324.452,156.646 317.123,151.149 312.126,145.653 307,139 301,133 296,126 292,118 
		288,110 286,100 284,90 285,79 284,68 282,58 281,48 281,37 283,27 285,17 290,10 297,4 307,2 319,2 331,2 343,2 355,2 367,2 
		379,2 391,2 403,2 415,2 427,2 439,2 443,10 446,19 448,29 450,39 451,50 450,61 448,70 446,81 444,91 442,101 442,112 
		439.17,121.534 435.52,128.633 429,136 425,143 422.793,146.759 420.511,150.74 418.507,155.42 416.86,161.895 413.209,167.777 
		408.544,175.687 403.175,181.58 397.795,188.261 391,194 383,198 	"/>
	<polygon fill="#00FF00" stroke="#800080" points="491,264 479,264 470,261 462,261 454,257 445,254 440,247 434,241 
		430.854,235.721 425.176,234.91 422.133,232.476 421.728,228.014 423.715,222.144 422,217 418,209 412,205 404.82,203.674 
		402.054,200.836 401.448,195.633 403.18,192.17 406.313,189.479 409.964,181.771 414.223,173.862 417.266,165.546 419.497,158.853 
		421.322,154.391 423.755,151.279 428.943,146.61 434.909,142.2 441.134,136.235 445.803,126.897 450.991,121.709 457.475,117.559 
		464.219,114.447 473,113 481,109 490,107 500,104 509,101 521,101 531,103 539,107 545,113 551,119 556.819,128.194 
		559.932,138.309 558.375,150.241 555,160 556.603,165.951 556.603,172.239 554.372,175.078 551.014,179.405 547.07,181.974 
		544.23,185.017 542.405,189.073 542.202,192.724 544.839,195.563 546.259,200.634 544.433,205.096 542.405,213.006 
		541.256,219.237 537,225 532,232 527,239 522,245 516,252 510,257 502,261 494.743,262.899 	"/>
	<polygon fill="#00FF00" stroke="#800080" points="360.63,524.503 353,522 345,518 338,513 331,508 323.75,503.5 316,499 311,492 
		305,486 302,477 298,469 295,460 293,450 291,440 293,432 297,424 303,417 307,410 309,400 312,391 318,385 325,379 332,374 
		338,368 344,362 349,356 356,350 364,346 374,344 385,343 395,341 405,343 413,347 419,353 427,357 434,362 442,366 449,371 
		455,377 461,383 466,390 472,396 478,402 484,408 489,415 493,423 495,433 495,443 497,453 496,463 493,473 489,481 485,489 
		480,495 475,502 469,508 461,512 452,515 442,518 433.41,520.127 422.41,520.127 411.156,520.784 400.076,521.922 388.461,522.306 
		377.686,523.349 366,525 	"/>
	<polygon fill="#00FF00" stroke="#800080" points="598,635 586,635 575,634 563,634 554,631 544,629 536,625 528,621 519,618 
		512,613 505.462,607.732 498,605 494,597 491,588 488.327,579.743 485.327,570.743 481.401,561.036 478,553 477.332,541.789 
		477.083,530.336 478.328,519.879 481.304,510.654 486,503 489.283,496.972 496.257,488.008 502.257,483.008 510.446,477.552 
		517,474 525,469 534,467 541,461 548,456 558,454 566,450 575,447 586,448 596,450 604,454 610,460 616,466 622,472 628,478 
		633,485 638,492 643,499 647,507 650,516 652,526 653,536 651,547 649,557 645,565 643,575 640,584 637,593 635,603 630,610 
		625,616 619,623 613,628 605,632 	"/>
	<polygon fill="#00FF00" stroke="#800080" points="390,728 379,727 367,727 358,724 350,720 342,716 334,712 325,709 319,703 
		312,698 306,692 299,687 295,679 291,671 288,662 285,653 283,643 282,632 281,621 281,609 282.5,599.25 287,590 293,584 299,578 
		302,570 306,561 311.25,557 319,550 328,547 338,545 347.75,545 358.161,542 363.911,534.5 372.813,527.069 381.789,524.247 
		390.744,522.666 402.744,522.666 415.256,520.87 427.256,520.87 437.317,520.784 450,525 456.682,531.3 460.436,538.565 
		467.461,543.539 474.122,548.74 479,556 482.931,564.782 485.931,573.782 489.065,582.067 492,591 495.659,601.315 
		500.391,612.821 500.293,625.377 497,634 497,644 497.5,656.25 492.25,666 486.75,672.75 482.75,676.5 475,682 469,688 464,694 
		456,698 447,701 438,705 432,711 427,717 417.577,722.052 410.605,724.542 401.891,727.529 	"/>
	<polygon fill="#00FF00" stroke="#800080" points="641,0 638,8 632,15 627,21 620,27 613,31 604,34 594,36 583,37 573,35 565,31 
		559,25 549,25 541,21 535,15 530,8 523.404,0 533,0 545,0 	"/>
	<polygon fill="#00FF00" stroke="#800080" points="642.405,818.906 634.257,817.481 626.257,813.481 619.755,808.481 
		612.755,803.481 608,793 603,786 597,780 588,777 575.5,774.25 568.75,766 567.75,757.25 570,750 573,741 575,732 577,721 578,711 
		578.5,697.75 583.5,687.5 588.5,683.5 593,678 599,671 605,666 614,663 621,658 627,649.5 633,643.75 641,636.25 654,630.75 
		668.25,627.75 678.75,627 690.75,631.75 699.25,638.5 703,645 710,650 720.25,653.5 726.5,661 732,667.5 733,675 738,682 744,688 
		749,695 752.952,700.64 752.454,714.334 755.493,723.502 755.798,729.719 753.201,735.498 749.458,739.135 746.453,743.012 
		743,749 739.493,756.498 738.156,762.215 737.5,766.75 736.663,771.508 734.53,775.676 730.556,778.777 727.058,780.314 
		723.645,781.099 719.091,784.05 716.352,786.788 713.98,789.244 709.25,797 701.5,805.5 693.5,809.5 682.491,814.425 
		671.75,821.736 662.75,822.486 651.5,819 	"/>
	<polygon fill="#00FF00" stroke="#800080" points="738.82,218.598 733.163,218.924 728.376,217.727 724.351,215.443 
		720.651,213.593 716.299,212.94 710.098,213.919 700,214 690,212 680,210 673,205 667,199 661,193 654,188 650,180 647,171 
		645,161 646,150 646,138 648,128 648,118 644,110 645,99 646,88 650,79 656,74 663,68 671,64 678,59 685,54 693,50 701,47 710,43 
		722,43 732,41 742,41 752,43 763,44 772,47 779,52 788,55 795,60 801,66 806,73 810,81 814,89 818,97 820,107 821,118 821,130 
		818,139 815,148 812,157 810,167 807,176 803,183 797,189 790,195 785,201 777,206 768,208 757.29,210.723 748.504,214.279 
		744.369,217.074 	"/>
	<polygon fill="#00FF00" stroke="#800080" points="761.063,664.275 756.603,661.459 752.495,660.755 747,662 742.755,663.571 
		736.065,664.51 732.428,661.576 730.785,656.764 726,650 719.401,646.789 714.003,643.151 710.6,639.161 710.717,633.88 711,629 
		708,620 705,611 700,604 697,595 695,585 698,576 705,570 709,563 714,556 719,548 725,542 730,536 735,529 741,522 749,519 
		760,517 769,514 778.5,510.25 788,506.75 796,505 804,502 815.983,497.282 820.795,495.405 826.428,494.701 830.183,496.226 
		833.938,501.038 835.347,506.671 836.47,511.117 839.571,521.105 843.878,528.296 846.275,531.651 850.485,535.892 
		852.128,540.117 852.715,543.99 854,553 855.974,560.987 855.699,564 853.536,569.339 852.598,576.144 851.894,578.492 848,582 
		844,591 840,599 836,607 832,615 828,622 822,628 816,635 810,641 804,646 796,650 787,653 777,655 772.328,659.581 
		766.578,663.688 	"/>
	<polygon fill="#00FF00" stroke="#800080" points="826,321 819.466,322.434 815.75,323.25 809.582,322.688 803.198,323.054 
		795.586,324.405 786.428,324.937 773.988,325.778 767.223,326.86 762.598,325.389 759.829,322.941 757.891,319.37 752.81,311.154 
		753.25,298.5 756.339,289.806 755.499,285.268 750.624,283.923 746.75,284 733.479,280.225 725.747,275.519 721.208,271.653 
		719.023,265.769 716.838,260.39 717.25,253.5 727,240 732,233 739,227 746.002,221.209 751.674,216.347 758.674,211.347 768,208 
		778,206 784.25,203 791.75,200.75 803,196 822.5,193.5 874.25,186.5 884.25,188 896.25,190.5 903.25,192.75 906.5,197 
		910.843,203.657 911.658,206.51 912.745,210.588 910.571,214.8 908.125,219.693 909.349,228.798 907.989,242.115 906.087,252.443 
		901.75,260.75 898,268 895,277 892,285 888,294 881.25,299.5 875,304 866,307 857,310 848,313 839,316 830,319 	"/>
	<polygon fill="#00FF00" stroke="#800080" points="737,515 726.75,510.75 714.25,507.5 705.5,506.75 698,505.25 688.75,498.75 
		678,478 678,466 675,453.5 675.186,440.189 677.724,430.25 680.261,421.792 684.278,415.236 688.297,409.104 694.006,401.491 
		700.938,393.573 704.79,387.535 711.557,380.557 716.727,374.207 723.15,367.784 728.67,361.573 733.972,355.393 739.047,349.049 
		744.921,340.132 750.255,334.669 761.718,329.475 772.513,327.31 783.513,326.31 794.513,325.646 805.758,324.096 810.801,323.928 
		814.494,325.264 820.213,329.307 826.097,328.467 836.35,328.635 847.09,333.827 851.31,338.72 855,344 860.25,352.75 869,360.5 
		871,369.75 872.25,383.25 867.5,395 865.75,410.75 861.25,424.75 857.75,433.25 854,441 852,450 849,460 845,468 840,474 
		835,482.75 826,489 815,495.75 803.75,501 790.25,506.25 754.5,517.5 745.75,518.5 	"/>
	<polygon fill="#00FF00" stroke="#800080" points="643,446 633,444 624,441 616,437 608.415,433.979 601.531,428.407 
		595.531,422.407 589,416 582,411 577,404 571,398 566,391 559.5,382.5 554.5,373.25 552.25,362.75 552.25,353 552,344.5 
		555,334.75 560.25,325.25 569,315 575,309 581,304 589.967,297.661 602.866,293.221 610.056,291.318 617.246,288.569 
		626.761,283.705 634.374,280.322 645.158,277.573 653.194,275.458 661.44,274.401 670,274 684.5,274.75 696.5,276.25 
		700.562,279.264 709,283 716,288 724.456,291.318 728.686,297.027 731.75,306.5 737,316.25 736.75,327 732.5,337.25 
		731.012,354.124 725.9,363.515 716.15,373.515 711.346,380.556 705.304,386.093 703.111,388.441 698.111,395.441 690.411,404.875 
		684.067,413.968 679.627,422.003 675.25,432.75 668.453,436.48 659.854,435.229 651.25,439 648.75,444 	"/>
	<polygon fill="#00FF00" stroke="#800080" points="1115,487 1103,487 1094,484 1086,480 1081,473 1077,465 1072,458 1068,450 
		1063,443 1059,435 1055.304,431.42 1048.75,428.5 1046.795,424.4 1046.75,420.5 1049.772,413.125 1055.036,410.741 
		1058.708,405.892 1058.809,399.745 1057.75,393 1060.409,381.64 1068.75,370 1078.917,366.961 1089,368 1098,365 1106,362 
		1115,359 1124,355 1132,352 1142.75,348 1153,346.75 1163.5,348.25 1168.906,348.454 1173.5,351.25 1179.119,350.625 1187,349.75 
		1192.094,351.219 1196.774,353.134 1200.391,356.325 1203.5,360 1204.007,369.94 1207.447,375.51 1212.447,382.51 1218.51,386.567 
		1224.217,388.448 1228.046,393.128 1228.75,399 1225.711,404.938 1223.25,409.75 1221.025,418.017 1223,425.75 1225.75,436.75 
		1219.25,450.25 1215.75,459 1207,464.5 1196.5,467.5 1188.75,478.5 1176.75,482.5 1160.5,483 1151.25,483.75 1141,485.25 1131,488 
		1121.25,489.75 	"/>
	<polygon fill="#00FF00" stroke="#800080" points="1147,639 1135,639 1125,637 1115,635 1107,631 1099,627 1093,621 1086.25,612.75 
		1081,607 1076.75,599.75 1075,591 1073,581 1072,570 1074,560 1075,549 1079,541 1082,532 1087,524 1092,517 1098,511 1104,506 
		1111,501 1114.75,496.75 1121,492.75 1131.5,489.25 1142.75,486.75 1154.25,485.25 1166.25,484.25 1178.5,486.5 1189,494 1196,499 
		1203,504 1211.25,509 1215.75,517 1220,526.25 1224.25,535.5 1226.25,546.25 1227.5,555.75 1226,563 1224,573 1222,582 1220,592 
		1216,601 1212,609 1208,616 1202,623 1194,627 1187,632 1179,635 1169,637 1158,638 	"/>
	<polygon fill="#00FF00" stroke="#800080" points="1251,559.25 1240.5,555.5 1231,550.5 1228,541.5 1225,532.5 1221,524.5 
		1218,515.5 1217,504.5 1217,492.5 1217,480.5 1217,468.5 1217,456.5 1221,447.5 1225,439.5 1229,431.5 1232.25,422.25 1235,417.5 
		1239.75,414.5 1253.5,411.75 1260.5,406 1270.5,399.5 1280,394.25 1280,556.5 1275.5,558.25 1268.75,560.5 1261.25,560.25 	"/>
	<polygon fill="#00FF00" stroke="#800080" points="1040.175,1024 1045,1013 1053.4,1004.551 1066.207,992.584 1082.163,980.616 
		1091,976 1101,974 1111,972 1121,970 1131,969 1140.318,969.908 1149.978,971.589 1162.993,976.207 1177.06,980.826 
		1183.567,985.444 1192,991 1199.261,995.823 1205.744,998.769 1212.774,998.138 1221.067,998.297 1226.371,1001.52 
		1229.515,1005.056 1232.265,1011.931 1232.658,1024 	"/>
	<polygon fill="#00FF00" stroke="#800080" points="1178,759 1168,757 1158,755 1147,754 1137,752 1127,750 1117,748 1107,746 
		1096,745 1086,747 1075,746 1064,745 1056.75,738.5 1054.25,731.5 1050,723 1043,718 1037.5,713.75 1032,707.5 1028,697 1028,685 
		1030,674 1036,669 1043,663 1049,658 1056,652 1064,648 1071,644 1081,641 1093,641 1105,641 1116,640 1128,640 1136.75,641.75 
		1147.75,643.5 1160,642.25 1173.75,642.5 1188.75,647 1196,656 1219,673 1224,680 1228,688 1228,698 1230,708.75 1230.25,720.25 
		1226,732 1221,739 1216,746 1211,752 1204,757 1193,758 1181,758 	"/>
	<polygon fill="#00FF00" stroke="#800080" points="1280,975.75 1274,979.5 1257.75,985.5 1245.25,991.25 1231,994 1215.5,992 
		1195.25,985.75 1181,975 1170.75,969.25 1161,957 1158,948 1155,939 1152,930 1149,921 1141.25,913.25 1134,904.5 1130.25,896.5 
		1128.25,890 1127,883 1127.25,873 1130,866 1137.75,860.5 1143.25,855 1148.25,848.5 1153.25,842.5 1159,833 1164.5,825 
		1169.25,817 1172.75,809 1176.25,800.75 1179,794 1184,787 1191,782 1198,777 1204,772 1211,767 1218,762 1238,757 1250,757 
		1262,757 1273,758 1280,760.25 	"/>
	<polygon fill="#00FF00" stroke="#800080" points="1069.007,907.988 1061.007,905.238 1057,897 1051,891 1045,885 1038,880 
		1031.341,875.316 1024.341,870.316 1013.427,866.316 1005.927,860.066 1002.644,850.937 1006,840 1008,830 1009.25,818.5 1010,807 
		1014,798.25 1019,788.5 1024.25,782.25 1028,776.25 1033.25,770.75 1039,765 1045,759 1052,754 1061,750 1071,749 1082,747 
		1093,746 1103,746 1113,748 1123,750 1134,751 1144,753 1154,755 1162,759 1166.75,765 1173.25,777.75 1172.75,786.75 1169,796 
		1172.25,806 1169,814 1166.5,819 1162,826.25 1155.75,837.25 1148.5,846 1143,854 1136.75,860 1129.25,866.75 1122.25,872.25 
		1115.5,876.75 1108.5,882.25 1102,885 1096,890 1089,895 1082,900 1075.734,906.415 	"/>
	<polygon fill="#00FF00" stroke="#800080" points="1110,339 1098,339 1090,335 1081,332 1072,329 1063,326 1056,321 1048,317 
		1041,312 1036,305 1033,296 1031,286 1029,276 1031,266 1030,255 1029,244 1029,233 1031,224 1030,215 1031,204 1035,196 1038,187 
		1043,180 1048,172 1052,165 1058,158 1064,153 1071,148 1079,143 1087,139 1095,136 1103,131 1111,127 1123,127 1134,126 1146,126 
		1157,127 1166,130 1174,134 1179,141 1186,146 1194,150 1201,155 1206.833,159.74 1213.572,165.023 1218.75,172.5 1222.861,179.23 
		1225,189 1227.051,204.73 1225.25,231 1224.318,262.652 1218.25,284.5 1210.5,293.5 1201,301 1193,304 1185,308 1176,311 1169,316 
		1161,321 1153,325 1145,329 1138,333 1128,336 1118,337 	"/>
	<polygon fill="#00FF00" stroke="#800080" points="1279,322 1271,320 1261,319 1251,320 1244.25,317.25 1240,312 1234,307 1227,302 
		1219,298 1217.25,291 1221.5,279.25 1226.25,262.5 1226.5,243 1228.5,201.75 1225.048,182.873 1222.861,175.769 1220.676,171.762 
		1218.104,167.409 1215.36,164.143 1211.204,159.74 1209.565,154.458 1212.479,147.537 1216.5,140.75 1228,131 1235,126 1242,120 
		1249,115 1257,111 1265,107 1280,97 	"/>
</g>
</svg>
