<?xml version="1.0" encoding="utf-8"?>
<!-- Generator: Adobe Illustrator 16.0.1, SVG Export Plug-In . SVG Version: 6.00 Build 0)  -->
<!DOCTYPE svg PUBLIC "-//W3C//DTD SVG 1.1//EN" "http://www.w3.org/Graphics/SVG/1.1/DTD/svg11.dtd">
<svg version="1.1" id="Layer_1" xmlns="http://www.w3.org/2000/svg" xmlns:xlink="http://www.w3.org/1999/xlink" x="0px" y="0px"
	 width="1280px" height="1024px" viewBox="0 0 1280 1024" enable-background="new 0 0 1280 1024" xml:space="preserve">
<g id="Raw_image">
	
		<image overflow="visible" enable-background="new    " width="1280" height="1024" xlink:href="normal_26.jpg"  transform="matrix(1 0 0 1 2.441406e-004 -2.441406e-004)">
	</image>
</g>
<g id="Not_annotated" opacity="0.5">
	<polygon fill="#0000FF" stroke="#800080" points="1279,619 1275,613 1274,602 1275,591 	"/>
</g>
<g id="Clumps" display="none" opacity="0.5">
	<polygon display="inline" fill="#FF0000" stroke="#800080" points="422,1023 423,1015 428,1008 433,1001 439,995 445,990 453,985 
		462,982 470,979 476,973 466,973 456,976 447,978 436,977 426,975 418,971 412,965 406,959 396,957 387,954 383,946 378,939 
		372,933 365,928 358,923 353,916 349,908 347,898 343,890 339,882 336,873 335,862 336,851 340,843 345,835 351,829 356,822 
		361,816 367,810 374,804 381,799 388,794 398,792 410,792 418,796 427,799 435,803 441,809 447,815 451,823 455,831 459,839 
		463,847 467,855 472,862 476,870 479,879 484,885 493,881 502,878 510,874 519,871 530,872 540,874 549,877 554,884 557,893 
		560,902 561,913 561,925 558,934 554,942 549,949 544,956 538,961 531,966 520,968 509,969 500,971 493,976 499,981 509,983 
		518,986 527,989 535,993 543,997 549,1003 553,1011 559,1017 	"/>
	<polygon display="inline" fill="#FF0000" stroke="#800080" points="687,819 676,818 668,814 658,812 649,809 642,804 636,798 
		630,792 625,785 620,778 616,770 615,759 615,747 606,746 597,749 587,747 576,746 564,746 556,742 549,737 542,732 536,726 
		529,721 524,714 521,705 519,695 519,683 519,673 522,664 526,656 532,650 537,643 545,638 554,635 551,629 544,624 538,618 
		533,611 528,604 524,596 522,586 521,575 523,565 526,556 529,547 533,539 538,531 543,525 550,520 558,516 567,513 579,512 
		590,513 599,516 607,520 613,526 620,531 625,538 629,546 633,554 634,565 635,576 632,585 629,594 626,602 622,611 618,619 
		614,626 608,632 598,634 586,634 575,634 582,637 592,639 600,643 607,648 613,654 619,660 624,667 627,676 629,686 628,697 
		628,707 635,704 642,699 650,696 660,693 671,692 682,693 692,695 700,699 707,704 714,709 720,715 724,723 729,730 731,740 
		731,752 731,764 730,775 728,785 726,794 721,802 716,809 710,814 699,816 690,818 	"/>
	<polygon display="inline" fill="#FF0000" stroke="#800080" points="683,559 675,555 666,552 657,551 650,546 643,541 637,535 
		632,528 626,522 622,514 619,505 618,494 616,485 611,479 609,469 609,457 613,449 620,444 627,438 635,440 641,442 650,439 
		658,435 664,430 670,423 678,420 689,418 697,422 705,426 712,431 717,438 721,446 725,454 728,463 725,471 722,481 724,491 
		727,500 728,511 730,521 732,531 727,538 721,543 711,543 705,537 696,538 694,543 701,548 703,555 691,555 	"/>
	<polygon display="inline" fill="#FF0000" stroke="#800080" points="1030,166 1018,166 1007,166 997,165 985,165 977,161 968,158 
		959,155 950,152 943,147 939,139 933,133 927,127 928,116 930,106 933,97 936,88 940,80 947,74 953,69 959,63 965,57 974,53 
		980,59 982,52 986,44 994,39 1002,35 1012,33 1022,33 1032,35 1041,38 1049,42 1056,47 1065,50 1071,56 1076,63 1083,68 1090,73 
		1093,82 1096,91 1095,102 1093,112 1091,121 1087,129 1082,136 1077,144 1072,150 1064,155 1056,158 1048,162 1038,164 	"/>
</g>
<g id="Single_nuclei" opacity="0.5">
	<polygon fill="#00FF00" stroke="#800080" points="238,0 234,5 226.5,10 216.834,13.167 207.334,13.167 197,10 187,10 177,9.167 
		167,6 162,0 	"/>
	<polygon fill="#00FF00" stroke="#800080" points="1280,866.966 1277.125,861.266 1273.45,854.061 1270.758,847.024 1268,838 
		1266.905,827.506 1267.573,818.372 1269.082,808.989 1273.45,798.265 1280,788.047 	"/>
	<polygon fill="#00FF00" stroke="#800080" points="0,706 7,709 14.411,714.75 19,721 24,728 28,736 31.06,745.892 34,754 37,763 
		38.503,771.943 38.699,781.932 36.936,791.337 34,800 31.06,808.965 28,818 25,827 21,835 17,843 13,851 6.968,856.758 0,863 	"/>
	<polygon fill="#00FF00" stroke="#800080" points="108,589 96,589 85,588 77,584 69,580 63,574 58,567 52,561 47,554 43,546 40,537 
		38,527 40,517 41,506 43,496 46,487 51,480 56,473 61,466 67,459 72,452 78,447 86,443 95,440 104,436 113,433 123,431 134,432 
		144,432 155,433 163,437 171,441 180,444 187,449 194,454 200,460 205,467 209,475 212,484 214,494 215,505 213,514 208,522 
		203,528 196,533 188,538 181,542 170,543 160,545 152,549 148,558 142,564 136,570 131,577 124,582 116,586 	"/>
	<polygon fill="#00FF00" stroke="#800080" points="209,333 199,331 188,332 176,332 165,331 156,328 149,323 144,316 139,309 
		134,302 130,294 128,284 125,275 122,266 123,255 125,245 124,234 125,223 128,214 131,205 135,196 139,189 147,184 152,177 
		159,173 168,169 176,166 186,163 196,161 207,162 217,164 226,167 233,172 240,177 247,182 252,189 257,196 262,203 266,211 
		267,222 270,231 271,242 272,253 271,262 269,272 266,281 261,287 256,295 252,302 245,307 238,313 232,318 225,324 218,328 
		210,332 	"/>
	<polygon fill="#00FF00" stroke="#800080" points="238,463 227,462 216,461 208,457 201,452 194,447 190,439 186,431 184,421 
		183,410 186,400 186.64,390.437 191,381 199.11,376 208.868,376 216,372 220,364 223,356 226,347 232,340 241,337 251,335 262,336 
		272,338 281,341 288,346 293,353 298,360 302,368 305,377 306,388 304,398 302,408 299,417 295,424 290,432 284,438 278,444 
		272,450 265,455 257,458 248,461 	"/>
	<polygon fill="#00FF00" stroke="#800080" points="280,167 269,166 262,161 252,159 244,155 235,152 228,147 221,142 214,137 
		208,131 203,124 198,117 195,108 191,100 192,89 193,78 196,69 200,60 205,54 207,45 212,38 218,32 224,26 234,26 239,20 248,16 
		257,14 268,12 278,10 288,12 298,14 305,19 313,23 320,28 325,35 329,43 334,50 340,56 343,65 344,76 345,87 343,96 338,104 
		335,113 332,122 329,131 324,138 319,145 314,151 308,157 300,162 291,164 281,166 	"/>
	<polygon fill="#00FF00" stroke="#800080" points="372,488 362,486 355,481 347,477 340,472 334,466 330,458 325,451 317,447 
		312.691,440.315 312,431 313,421 315,411 319,403 318,392 321,383 323,373 328.953,366.04 337,362 347,360 354,356 363,352 
		373,350 382.357,350.318 391,354 399,358 405,364 412,369 417,376 421,384 424.645,394.503 425.73,405.075 427,414 425,424 
		423,433 419.493,440.857 416,451 413,460 409,468 404,475 397,480 390,485 381,487 	"/>
	<polygon fill="#00FF00" stroke="#800080" points="447,653 436,652 428,648 420,644 411,641 403,637 396,632 391,625 387,617 
		385,607 385,595 387,585 391,576 396,569 402,564 409,558 418,555 426,551 435,548 446,547 456,547 466,549 475,552 483,556 
		490,561 496,567 501,574 504,583 505,594 503,604 501,613 497,621 492,629 487,635 480,641 473,646 465,649 455,652 	"/>
	<polygon fill="#00FF00" stroke="#800080" points="518,376 506,376 494,376 482,376 472,374 462,372 451,371 442,368 434,364 
		428,358 422,352 416,346 411,339 407,331 404,322 404,312 407,302 411,294 415,286 417,277 421,269 426,262 432,255 435.95,250.68 
		444.318,245.532 455,243 462.336,237.489 469,232 475,227 484,223 492,219 502,217 514,217 524.112,217 535,218 544,221 
		553.07,225.584 559,230 565,236 571,241.671 576,249 581.384,255.506 585,264 588.166,271.833 590,283 590,295 590,305 
		588.5,315.833 585,324 581,332 576,339 572,346 566,353 560,359 553,364 545,368 537,371 527,373 	"/>
	<polygon fill="#00FF00" stroke="#800080" points="515,512 504,511 494,509 485,506 477,502 471,496 466,489 462,481 
		459.073,472.573 456,463 454,454.14 455.549,444.926 456.633,432.996 455.549,424.052 457,416 460,407 466,400 474,396 483,393 
		491,390 501,387 511,387 522,388 531,391 540,394 547,399 554,404 559,411 565,417 569,425 571,433.809 571,447 570,457 566,466 
		563,475 560,483 555,490 548.799,497.241 543,502 534,506 526,509 522,511.066 	"/>
	<polygon fill="#00FF00" stroke="#800080" points="557,198 545,198 533,198 522,197 513,194 504,191 496,187 490,181 485,174 
		481,166 477,158 473,150 470,141 469,130 471,120 469,110 469,98 474,90 477,82 480,73 484,65 488,57 493,49 496,41 501,34 507,28 
		515,23 522,18 529,13 540,12 551,13 560,16 569,19 578,22 586,26 593,31 599,37 605,43 611,49 615,57 618,66 620,76 624,84 627,93 
		628,104 628,116 627,127 625,137 622,145 618,154 613,161 608,168 602,173 594,178 587,182 580,187 572,192 564,195 	"/>
	<polygon fill="#00FF00" stroke="#800080" points="650,971 640,969 630,967 623,962 615,958 607,954 600,949 594,943 590,935 
		586,927 581,920 578,911 577,900 578,889 580,878 582,869 586,861 592,854 598,848 605,844 612,838 620,834 628,831 639,831 
		651,831 661,833 669,837 677,841 685,845 692,850 698,856 704,862 709,869 712,878 716,886 718,896 718,906 716,916 714,926 
		711,935 703,938 702,948 698,956 692,962 684,965 675,968 666,969 655,970 	"/>
	<polygon fill="#00FF00" stroke="#800080" points="724.906,403 716,403 704,403 694,401 684,399 675,396 666,393 659,388 652,383 
		645,378 640,371 634,365 627,360 620,355 615,348 611,340 606,333 603,324 600,315 599,304 599,294 600,283 602,273 606,265 
		610,257 616,250 622,244 628,238 634,233 642,228 651,225 660,222 670,220 682,220 690,224 698.349,227.782 707,231 714,236 
		720.198,241.677 724.906,247.281 732.303,256.021 735.772,264.09 739,271 745.075,277.537 749.448,284.26 753.482,292.329 
		758.525,300.061 763,307 767,315 770,324 772,334 771,345 770,356 768,366 764,374 759,381 754,387 748,393 740,397 732,401 	"/>
	<polygon fill="#00FF00" stroke="#800080" points="756.183,151.523 750.411,159.668 744.296,166.483 739.892,174.092 736.496,176 
		727.932,176 716,174 706,172 696,170 687,167 678,164 670,160 663,155 657,149 651,143 645,137 641,129 636,122 635,111 633,101 
		632,90 632,78 634,68 635,57 639,48 643,41 649,34 654,28 662,23 669,18 679,16 688,14 696,10 708,9 718,11 727.26,14.979 734,19 
		743,22 755,22 765,20 775,18 785.081,16.996 795,16 805,18 812,23 819,28 826,33 830.803,38.512 838,49.606 839.544,61.709 
		835.51,70.449 822.063,83.224 812.314,95.663 801.22,107.765 790.125,119.531 776.678,129.953 768.4,140.323 	"/>
	<polygon fill="#00FF00" stroke="#800080" points="782,714 770,714 759,713 749,711 740,708 732,704 724,700 717,695 710,690 
		704,684 698,678 694,670 691,661 688,652 686,642 686,630 686,618 687,606 690,597 693,589 698,582 704,576 711,570 717,565 
		726,561 736,559 747,558 757.561,557.844 767,560 777,562 787,564 796,567 804,571 812,575 818,581 824,587 829,594 834,601 
		838,609 841,618 845.393,628.581 847.738,637.082 846.566,648.806 844.807,658.186 841,668 838,677 835,685 830,693 825,699 
		817,704 810,708 800,710 790,712 	"/>
	<polygon fill="#00FF00" stroke="#800080" points="845.393,547.673 836.892,547.087 828,546 819,543 811,539 803,535 796,530 
		789,525 783,519 779,511 776,502 773,493 772,482 770,472 769,461 771,451 773,441 777,433 782,426 786,418 789,409 794,401 
		799,395 807,390 816,387 826,385 838,385 847.738,387.039 857,388 868,389 880,389 888,393 895,398 901,404 908,409 915,414 
		921,420 925,428 929,436 932,445 936,453 937,464 938,475 937,485 933.187,493.446 929,502 924,509 918,515 911,519 905,525 
		897,529 890,534 882,538 872,540 863,543 854,546 	"/>
	<polygon fill="#00FF00" stroke="#800080" points="914,840 902,840 891,839 881,837 873,833 865,829 858,824 852,818 846,812 
		840,806 835,799 831,791 828,782 827,771 829,760 832,751 837,744 843,738 849,733 857,728 865,724 873,721 882,717 893,716 
		904,715 916,715 926,715 936,717 945,720 952,725 959,730 966,735 971,742 976,749 979,758 981,768 983,778 982,789 981,800 
		977,808 973,816 968,822 962,828 954,832 944,834 935,837 924,839 	"/>
	<polygon fill="#00FF00" stroke="#800080" points="916,306 905,305 895,303 884,304 872,304 863,301 856,296 851,289 849,279 
		844,272 839.544,266.779 837.191,255.684 837.191,248.288 839,237 843,228 847,220 849,211 853,203 859,197 867,192 874,187 
		881.567,182.397 890.643,181.052 899,182 909,180 917.199,177.355 924.743,178.699 933.674,183.406 939,188 945,194 948,203 
		952,211 955.863,217 960.233,226.101 961,236 960,247 958,257 955.19,265.77 953,273 948,281 943,288 938,294 932.759,299.778 
		924,304 	"/>
	<polygon fill="#00FF00" stroke="#800080" points="1117,652 1106,651 1096,649 1087,646 1078,643 1071,638 1064,633 1058,627 
		1052,621 1047,614 1043,606 1039,598 1036,589 1034,579 1033,568 1032,557 1034,547 1037,538 1040,528 1043,519 1047,512 1053,506 
		1059,499 1066,494 1073,490 1081,485 1089,482 1099,479 1108,478 1119,479 1129,481 1137,485 1145,489 1153,493 1159,499 1165,505 
		1170,512 1173,521 1176,530 1178,540 1179,551 1178,562 1177,573 1176,584 1173,593 1170,602 1167,611 1164,619 1160,627 1155,634 
		1149,640 1141,645 1133,649 1123,650 	"/>
	<polygon fill="#00FF00" stroke="#800080" points="1179,882 1168,881 1158,879 1149,876 1141,872 1134,867 1127,862 1120,857 
		1114,851 1109,844 1104,837 1100,829 1096,821 1092,813 1090,803 1088,793 1088,783 1089,772 1091,762 1095,753 1099,746 1104,739 
		1110,733 1118,728 1126,724 1136,722 1147,721 1157,723 1167,725 1176,728 1184,732 1191,737 1199,741 1205,747 1214,750 1221,755 
		1228,760 1234,766 1240,772 1246,778 1251,785 1253,795 1255,805 1254,816 1252,826 1249,835 1245,842 1240,849 1234,855 1227,861 
		1221,866 1213,871 1205,874 1197,878 1187,880 	"/>
	<polygon fill="#00FF00" stroke="#800080" points="1116.987,1024 1113,1015 1109,1007 1106,998 1104.5,987 1104.5,976.75 1106,968 
		1108,958 1111,948 1114,940 1119,933 1125,926 1130,920 1136,914 1144,909 1153,906 1161.75,902.75 1172,901 1183,900 1193,902 
		1203,904 1212,907 1220,911 1228,915 1235,920 1242,925 1248,931 1253,938 1258,945 1262,953 1264,963 1265,973 1265,983 
		1262.25,993.25 1257.75,1004.25 1252.25,1013.75 1246.57,1024 	"/>
	<polygon fill="#00FF00" stroke="#800080" points="1280,225.358 1269,228 1257.891,229.422 1246.698,229.422 1238.156,227.949 
		1230,225 1221,222 1213,218 1205,214 1197.506,208.802 1192,203 1187,196 1183,188 1180,179 1179,168 1178.36,157.844 1179,148 
		1182,139 1186,131 1190,123 1195,116 1202,110 1209,106 1217,102 1227,99 1239,99 1248,102 1257,105 1265,109 1280,114.577 	"/>
	<polygon fill="#00FF00" stroke="#800080" points="446.055,978.875 438.165,979.829 429.165,978.875 421,977 413,973 
		405.165,968.495 398.334,963.829 391.165,958.162 385,953 379,947 373,941 367,935 361,929 356,922 352,914 347,907 343,899 
		339,891 338,880 336,870 335,859 337,849 340,840 346,833 351,827 356,820 362,813 367,807 373,800 380,795 388,791 397,790 
		407,792 416,795 425,798 432.902,801.785 440.175,807.049 446.21,813.548 450.852,821.284 455.031,828.094 459.364,836.76 462,845 
		467,852 472.206,859.36 476.539,868.025 479.324,877.156 479.324,884.738 478,892.174 475.767,899.91 474.065,913.219 
		469.732,926.991 466.482,947.262 465.09,954.226 464.25,961.25 464.334,971.995 461.665,975.662 454.567,977.438 	"/>
	<polygon fill="#00FF00" stroke="#800080" points="475.022,975.811 467.191,972.427 465.412,966.288 465.75,958 467.75,942.5 
		469.75,931.25 472.25,922.5 475.361,913.066 476,904.75 478,895.75 482.25,887.75 487,881 494,876 502,872 513,871 525,871 
		536,872 544,876 551,881 556,888 559.834,894.995 563.166,903.829 564,916 562,926 558,934 554,941 549,948 543,955 
		537.096,960.359 530,965 521,968 512,971 502.781,974.673 491.919,976.395 	"/>
	<polygon fill="#00FF00" stroke="#800080" points="561,1024 421,1024 422.488,1017.868 425.675,1011.145 429.875,1003.125 
		435.75,997.125 442.25,992 449.75,987.375 458.375,984 467,981 476.875,979.625 488.125,978.875 499.125,980.25 509.875,982.75 
		519,985 528,988 535.875,992.625 542.125,997.5 548,1004 553,1011 558,1018 	"/>
	<polygon fill="#00FF00" stroke="#800080" points="600.83,752.217 590.328,750.828 579.835,747.439 566.948,747.654 557.24,743.888 
		548.919,739.135 541.783,732.991 536.436,727.842 529.698,721.697 524.944,715 520,706.046 518.801,695.545 518.801,683.654 
		520,674 523,665 527,657 531.878,650.17 538,644 546,639 556,637 566.355,637 578,637 588,639 596,643 604,647 610.739,651.159 
		616.683,656.51 621.636,663.641 626.392,671.966 629.956,683.654 629.956,693.957 628,704.855 624.212,714 620.052,724.079 
		617.077,732.795 614.699,740.722 609.352,748.053 	"/>
	<polygon fill="#00FF00" stroke="#800080" points="601.426,635.5 590,633 579,632 568.336,631.552 557,630 549,626 542,621 537,614 
		532,607 527,600 524,591 522,581 523,570 526,561 529,552 532,543 536,535 542,528 548,523 556,518 564,515 575,513 586,514 
		596,516 604,520 611,525 617,531 623,537 628.175,543.971 632.336,552.492 635.11,562.597 635.11,574.25 634,583.997 
		631.74,592.913 627.184,601.829 623.221,609.757 620.448,617.482 615.89,625.408 609.352,632.541 	"/>
	<polygon fill="#00FF00" stroke="#800080" points="693.554,559 686,558 676,556 666,554 658,550 650.182,545.763 643,541 637,535 
		632,528 626,522 621,515 618.806,505.462 618.22,495.789 619.979,485.823 622.324,478.788 626.135,471.167 629.066,465.011 
		634.635,457.683 640.79,451.82 648.998,446.837 659.258,443.32 669.517,442.44 680.949,442.733 692.381,445.371 704.106,452.406 
		711.727,462.08 720.228,476.736 723.745,486.995 727.047,497.207 728,507 731.366,519.826 731.659,530.672 729.315,538 722,545 
		717,551 709,555 700,558 	"/>
	<polygon fill="#00FF00" stroke="#800080" points="1011.871,165.502 1001.034,164.211 991.906,162.851 983,162 973,160 964,157 
		955,154 948,149 942,143 935,138 929.753,131.923 926.219,123.675 924.743,113.954 926.513,104.234 930.342,95.397 935.939,87.739 
		941.24,82.142 945.952,76.84 953.613,70.065 958.912,64.174 964.511,59.166 970.698,54.453 978.651,49.74 986.014,45.028 
		993.378,40.609 999.859,37.958 1008.696,36.485 1019.005,36.485 1027.252,36.78 1034.615,36.78 1043,39 1051,43 1058,48 1066,52 
		1073,57 1080,62 1087,67 1093,73 1097,81 1099,91 1098,100 1096,110 1092.35,119.257 1089,127 1085,134 1079.979,139.581 1074,147 
		1067,152 1059,157 1053.174,160.495 1042,163 1032,165 1021.948,165.502 	"/>
	<polygon fill="#00FF00" stroke="#800080" points="677.365,692 669.698,692 660.33,693.86 652.384,694.996 645.285,697.552 
		638.474,701.809 631.544,707.635 626.59,714 622.031,722.298 619.969,728.64 617.077,735.969 615.098,744.487 613.776,751.026 
		613.776,758.555 614.9,766.283 616.615,772.779 619.452,777.5 623.712,784.421 628,790 634,796.057 640,802.019 645.571,806.277 
		651.246,809.969 657.491,813.942 664.872,817.348 671.118,819.338 678.783,821.323 686,821.323 694.399,819.904 701.493,818.484 
		710.012,815.929 716.541,811.103 722.219,805.994 727.045,800.316 730.736,792.651 730.736,783 733.006,773.633 733.006,764.263 
		733.006,755.465 733.006,748.082 733.006,738.998 731.587,730.765 727.613,723.1 722.502,716.855 718,711.463 712.851,706.067 
		706.322,702.945 700.644,699.538 692.409,695.847 686,693.295 	"/>
	<polygon fill="#00FF00" stroke="#800080" points="760.541,148.443 756.171,153.485 751.801,159.536 747.095,165.502 
		743.355,170.533 740.709,177.355 740.709,180.715 742.39,186.095 745.414,191.137 750.457,197.998 755.164,200.549 
		761.552,204.247 768.612,205.929 776.68,207.611 784.747,209.627 793.152,209.627 802.565,207.61 810.633,205.594 818.029,202.904 
		825.761,199.542 833.491,192.482 838,186.431 844.587,184.413 852.99,182.732 859.715,179.706 867.445,173.655 875.513,167.268 
		880.556,160.207 887.616,152.476 890.978,145.08 893.331,136.339 895.014,127.936 895.014,119.868 892.659,109.447 
		889.971,102.387 886.273,93.5 881.903,86.25 878.543,80.535 873.5,75.492 870.138,72.13 863.076,68.769 858.707,66.751 
		852.655,66.751 846.94,68.433 840.889,70.45 833.156,75.157 825.09,82.553 819.711,88.604 814.668,95.664 807.272,103.396 
		799.005,111.83 792.047,119.368 784.12,125.554 776.702,131.798 770.291,139.703 764.239,145.418 	"/>
</g>
</svg>
