<?xml version="1.0" encoding="utf-8"?>
<!-- Generator: Adobe Illustrator 16.0.5, SVG Export Plug-In . SVG Version: 6.00 Build 0)  -->
<!DOCTYPE svg PUBLIC "-//W3C//DTD SVG 1.1//EN" "http://www.w3.org/Graphics/SVG/1.1/DTD/svg11.dtd">
<svg version="1.1" id="Layer_1" xmlns="http://www.w3.org/2000/svg" xmlns:xlink="http://www.w3.org/1999/xlink" x="0px" y="0px"
	 width="1280px" height="1024px" viewBox="0 0 1280 1024" enable-background="new 0 0 1280 1024" xml:space="preserve">
<g id="Raw_image">
	
		<image overflow="visible" enable-background="new    " width="1280" height="1024" xlink:href="normal_11.jpg"  transform="matrix(1 0 0 1 2.441406e-004 -0.0017)">
	</image>
</g>
<g id="Not_annotated">
</g>
<g id="Clumps" display="none" opacity="0.5">
	<polygon display="inline" fill="#FF0000" stroke="#800080" points="0,197 8,199 16,203 23,208 28,215 32,223 34,233 37,242 40,251 
		41,262 40,273 46,277 53,272 60,267 66,262 73,256 81,252 91,250 103,250 113,252 122,255 129,260 140,261 151,260 162,261 
		171,264 178,269 184,275 189,282 194,289 197,298 200,307 200,318 198,329 197,340 196,351 204,350 212,345 220,341 229,338 
		238,335 248,333 259,332 270,333 279,336 287,340 292,347 297,354 300,363 303,372 307,380 311,388 313,398 316,407 316,419 
		317,430 317,442 316,453 314,462 310,471 308,481 304,489 298,494 291,500 285,505 278,511 272,517 266,523 260,528 252,533 
		245,537 237,541 226,542 216,540 207,537 196,536 187,533 179,529 174,522 169,515 166,506 162,498 158,490 155,481 152,472 
		150,462 150,452 149,441 142,439 133,441 124,445 115,447 104,446 96,442 87,443 77,446 66,446 55,445 47,441 42,434 38,426 
		35,417 33,407 31,397 27,389 23,381 21,371 17,363 13,355 10,346 6,338 0,332 	"/>
	<polygon display="inline" fill="#FF0000" stroke="#800080" points="0,843 7,838 16,835 24,831 32,828 42,825 52,823 63,822 73,824 
		83,826 92,829 101,832 109,836 117,840 124,845 132,848 140,843 148,843 154,849 157,858 153,865 147,872 147,882 149,892 149,904 
		149,916 150,927 148,937 146,947 144,956 142,967 140,977 138,986 134,995 129,1002 124,1009 119,1016 114,1022 	"/>
	<polygon display="inline" fill="#FF0000" stroke="#800080" points="742,728 730,728 720,726 711,723 702,720 694,716 686,712 
		679,707 673,701 670,692 667,683 665,673 663,663 662,652 661,641 662,629 664,619 666,609 669,600 666,596 660,602 653,607 
		644,610 634,612 624,614 615,617 605,620 596,622 587,619 580,614 573,609 567,603 562,596 558,588 557,577 557,565 560,555 
		561,545 564,536 568,528 572,520 578,513 582,506 588,499 592,492 585,487 575,485 565,483 556,480 548,476 540,472 531,469 
		529,478 531,488 534,497 537,506 539,516 541,526 542,537 541,548 538,557 535,565 530,572 524,578 518,584 511,590 505,596 
		499,601 491,606 483,610 475,614 468,618 458,621 449,623 438,625 428,627 418,626 408,624 399,621 391,617 382,614 374,610 
		368,604 362,598 358,590 354,582 350,574 347,565 343,557 342,546 342,534 342,524 343,513 345,503 348,494 352,486 356,478 
		360,469 364,462 370,456 376,449 382,443 389,438 396,433 402,427 408,421 414,415 419,409 426,403 432,397 441,396 443,404 
		446,413 453,418 462,421 471,424 479,428 486,433 493,438 499,444 500,438 495,431 490,424 486,416 481,409 476,402 473,393 
		467,387 468,376 468,364 469,353 472,343 474,334 478,326 482,317 486,310 492,304 499,298 507,294 516,291 526,289 536,287 
		546,285 556,287 567,288 577,290 587,292 596,295 605,298 615,300 624,303 631,308 637,314 643,320 648,327 654,333 659,340 
		662,349 665,358 666,369 666,381 665,392 663,402 661,412 658,421 655,430 656,439 664,437 675,436 687,436 697,438 708,439 
		718,441 725,446 732,451 738,457 744,463 747,472 749,482 747,492 744,501 741,510 746,513 752,507 760,504 770,501 781,502 
		791,504 799,508 805,514 810,521 815,528 819,536 823,544 827,552 830,561 834,569 836,560 839,551 842,541 844,532 848,524 
		852,516 858,510 864,504 870,498 877,493 884,487 892,483 902,481 910,477 915,471 906,468 896,466 887,463 879,459 873,453 
		867,447 861,441 857,433 852,426 845,423 838,428 830,433 824,438 816,442 804,442 793,441 783,439 777,433 772,426 766,420 
		760,414 754,408 748,402 743,395 739,387 734,380 728,374 725,365 722,356 722,344 724,333 726,324 731,317 738,311 745,306 
		751,301 758,296 765,290 775,288 783,284 790,279 798,275 807,272 818,272 830,271 838,275 845,280 850,287 854,295 858,303 
		861,312 867,312 871,305 876,297 882,292 889,287 897,283 905,279 913,274 922,271 933,272 942,275 949,280 956,285 964,289 
		971,294 978,299 983,306 988,313 993,320 998,327 1002,335 1005,344 1007,354 1008,365 1004,373 1000,381 996,389 994,399 993,410 
		990,419 990,431 995,438 1005,436 1017,436 1027,438 1036,441 1044,445 1053,448 1061,452 1068,457 1074,463 1080,469 1084,477 
		1085,488 1084,499 1084,511 1083,522 1084,533 1083,544 1085,554 1087,564 1089,574 1088,585 1088,596 1084,605 1081,614 1077,622 
		1072,629 1068,637 1063,643 1057,650 1053,658 1047,664 1041,670 1035,676 1028,680 1019,683 1011,687 1002,690 992,692 980,692 
		970,690 962,686 953,683 944,680 933,679 923,679 912,681 902,682 891,681 882,678 873,675 865,671 858,666 853,659 848,652 
		845,643 843,633 841,623 840,612 839,601 838,590 836,580 832,579 832,589 833,600 833,612 833,624 830,633 829,644 828,654 
		824,663 820,671 815,678 810,684 804,690 798,697 792,703 785,708 778,712 770,717 762,720 754,724 745,727 	"/>
	<polygon display="inline" fill="#FF0000" stroke="#800080" points="1010,0 1007,6 1001,12 995,19 990,26 985,33 979,39 972,43 
		962,45 951,46 940,45 931,42 922,39 914,35 906,31 898,27 890,25 886,34 884,44 880,52 875,59 869,65 863,71 857,77 865,81 875,83 
		884,86 895,87 904,90 912,94 919,99 924,106 930,112 936,118 940,126 941,137 944,146 944,157 941,167 938,175 933,182 929,190 
		925,198 920,205 914,212 908,217 901,222 894,228 887,232 879,237 872,242 866,247 857,251 849,255 841,259 832,262 824,265 
		814,267 802,267 792,265 785,260 780,253 775,246 770,239 766,231 763,222 760,213 752,212 746,217 740,223 734,229 727,234 
		720,240 713,245 706,249 698,254 691,258 683,263 675,266 666,270 656,271 644,271 634,269 626,265 619,260 615,252 610,245 
		606,237 605,226 602,217 601,206 599,196 599,184 601,173 599,164 598,153 601,143 605,136 609,128 615,122 622,117 629,111 
		635,106 642,101 651,97 661,95 672,94 682,96 691,99 700,102 709,105 717,109 725,113 733,117 741,121 748,126 754,132 760,138 
		767,143 771,136 777,130 784,125 791,119 796,113 800,105 791,102 781,100 772,97 763,94 756,89 750,83 744,77 738,71 735,62 
		731,54 727,46 726,35 727,24 730,14 734,7 740,0 	"/>
</g>
<g id="Single_nuclei" opacity="0.5">
	<polygon fill="#00FF00" stroke="#800080" points="435,252 423,252 412,251 404,247 397,242 389,238 380,235 372,231 365,226 
		359,220 353,214 347,208 343,200 340,191 338,181 340,171 342,161 341,150 341,138 342,127 343,116 346,106 350,98 355,91 361,86 
		368,80 374,74 378,67 383,60 389,54 395,48 402,42 411,39 420,36 430,34 441,33 450,30 462,30 472,32 482,34 492,36 502,38 511,41 
		518,46 525,51 531,57 535,65 542,70 548,76 553,83 556,92 560,100 561,111 561,123 560,134 558,144 554,151 550,160 548,170 
		545,179 540,186 536,193 531,201 526,208 520,214 514,220 508,225 500,230 492,233 483,236 473,238 464,241 455,244 446,248 
		438,251 	"/>
	<polygon fill="#00FF00" stroke="#800080" points="602,888 590,888 580,886 571,883 564,878 557,873 551,867 546,860 538,856 
		531,851 525,845 519,839 515,831 512,822 511,811 514,802 514,790 512,780 509,771 507,761 508,749 509,739 512,730 516,722 
		521,715 526,707 531,700 536,694 541,687 547,680 553,675 561,670 569,666 576,661 584,657 594,655 603,658 611,662 619,666 
		628,669 636,673 642,679 648,685 654,691 659,698 663,706 668,713 674,719 679,726 682,735 685,744 690,751 694,759 698,767 
		701,776 702,787 702,799 700,809 697,818 694,827 690,834 685,841 678,847 672,852 665,858 659,863 652,868 645,873 637,878 
		630,882 620,884 610,887 	"/>
	<polygon fill="#00FF00" stroke="#800080" points="242.578,539.819 234,541 223,540 212,539 202,537 193,534 185,530 178,525 
		172.865,518.905 168,511 165,502 161,494 159,484 157,474 155,464 153,454 152,443 154,433 158,425 162,417 166,409 170,401 
		174,392 178,384 182,376 186,369 192.567,361.599 198,356 205,351 212,347 221,344 231,341 241,339 250,336 261,335 272,334 
		281,337 289,341 294,348 298,356 301,365 304,374 307,383 309,393 312,402 314,412 316,422 318,432 316,442 314,452 312,462 
		311,472 306.531,480.719 302,487 295,493 289,498 282,504 276,510 271,516 265,522 259,528 253,534 247.124,537.094 	"/>
	<polygon fill="#00FF00" stroke="#800080" points="111,443 100,442 90,440 79.814,439.799 70,441 61,443 52,440 45,435 42,426 
		38,418 34,410 31,401 27,393 24,384 20,376 17,367 13,359 10,350 6,342 4.647,334 7,326 11,319 16.46,312.007 21.541,304.929 
		27.167,297.852 32.248,290.775 38.29,284.061 43.68,278.435 49,273 56,267 62,262 70,257 79,254 87,250 97,250 106,253 116,255 
		126,257 136,257 146.283,257.886 155.326,259.393 163.614,263.039 172,265 179,270 185,276 191,282 194.883,288.656 198,297 
		198,309 197,320 196,331 194.883,339.637 193.376,349.809 188,358 185,367 181,376 178,384 174,392 170,401 166,409 162,417 
		158,425 153,431 145,436 137,440 127,441 116,442 	"/>
	<polygon fill="#00FF00" stroke="#800080" points="0,1024 0,848.035 9,842 17,838 25,834 35,832 44,829 52.926,828 62.959,826.863 
		73,828 82.497,829.767 92,833 101,836 109,840 117.115,845.576 123.75,850 129.25,855 133.75,862.5 138.75,871 141.75,878.75 
		145,888 146,899 146,911 146,921 146,933 143.5,945 141.25,956.5 139.5,966 137.75,974.5 135,985.25 133,993.25 128.5,1000.75 
		125,1008 121,1015 114.973,1024 	"/>
	<polygon fill="#00FF00" stroke="#800080" points="427.888,624.929 415.005,624.929 406,621 398,617 389,614 380.321,610.395 
		373,606 367,600 362,593 358,585 353,578 350,569 347,560 343,552 343,540 345,530 344,519 346,509 348,499 351,490 356,482 
		359,474 363,466 369,459 374,453 380,447 387,441 394,437 400,431 406,425 412,419 418,412 424,406 430,401 437.137,398.324 
		442.752,400.968 445,413 451,419 460,422 468,426 477,429 484,434 490,440 494,448 500,454 507,459 513,465 519,471 523,479 
		525,489 529,497 532,506 535,515 537,525 538,536 537,547 534,555 530,563 525,570 519,577 513,583 507,589 501,595 495,601 
		487,604 479,609 472,613 463,617 454,619 444,621 436.146,624.929 	"/>
	<polygon fill="#00FF00" stroke="#800080" points="581.82,482.229 573.232,480.577 564,477 558.033,473.641 549,468 542,463 
		535,458 528,453 522,447 516,441 510,435 504,429 499,422 492,417 487,410 482,403 478,395 474,387 471,378 470,367 470,355 
		472,345 475,336 479,327 482,319 487,311 493,305 499,300 507,295 516,292 526,290 537,289 546.805,288.656 557,289 568,290 
		578,292 588,294 597,297 606,300 616,302 624,306 631,311 636,318 643,323 648,330 655,335 658,344 661,353 663,363 663,375 
		663,387 661,397 659,407 656,416 653,425 651.52,434.332 646.565,445.233 641.61,451.178 635.99,457.784 628.727,465.385 
		623.442,469.016 616.174,473.311 609.238,476.282 599.656,480 592.06,482.229 	"/>
	<polygon fill="#00FF00" stroke="#800080" points="615,618 604.5,620.635 591.07,620.635 580.495,614.5 574.223,608.742 
		567.947,602.801 562.99,593.219 558.033,584.963 558.033,572.738 560.019,560.515 562.327,549.283 566.5,537.723 569.928,530.785 
		573,524 578,517 584,510 589.418,505 595.694,497.426 601.97,489.824 606.49,485.748 611.219,481.567 620.469,476.613 
		628.727,470.339 634.673,464.72 641.61,458.775 646.895,453.158 653.827,448.865 660.438,443 668.031,438 678,436 690,436 702,438 
		711.969,440 718.241,443 726,448 731.785,453.158 740.047,462.407 744.672,469.015 747.975,478.264 746,486 744.011,495.441 
		740.377,503.037 737.073,511.63 732.78,519.554 727.823,526.822 722,534.75 716.264,542 711.969,547.635 705.693,554.57 
		700.406,562.17 695,567 690,574 685,581 680,588 673,593 665,596 657,600 648,604 640,607 631,611 623,614 	"/>
	<polygon fill="#00FF00" stroke="#800080" points="732.823,725.727 722.938,725.727 713.051,722.62 704.86,720.077 694.692,716.125 
		685.653,711.886 677.74,705.955 672.942,697.481 670.963,693.527 667.858,682.51 666.158,671.216 665,660 665,648 665,636 667,626 
		670,616 672,607 675,597 679,590 685,583 690,577 696,570 701,564 706,557 712,550 717,544 723,537 728,531 733,524 739,517 
		746,513 755,509 764,506 773,505 783,507 793,509 801,513 809,517 814,524 817,533 819,543 822,552 824,562 827,571 829,581 
		831,591 831.685,600.596 830.838,609.635 830,620 828,630 826,640 824,649 821,659 816.994,668.105 814,675 809,682 804,689 
		799,696 794,703 789,710 780,713 771.239,717.257 760.783,720.077 752.031,723.185 742.427,725.727 	"/>
	<polygon fill="#00FF00" stroke="#800080" points="985,688 973,688 962,687 953,684 944,681 935,678 926,675 916,677 905,679 
		895.807,677.427 887.898,676.299 879.424,674.319 870.948,675.166 862.759,670.082 855.698,661.89 851.178,653.698 
		846.656,643.248 844.682,631.67 844.115,622.91 842.7,611.894 843.269,601.726 843,592 841,582 839,572 838.746,561.616 
		841.291,553.142 842.7,545.516 846.094,535.633 848.918,526.308 852.026,516.987 857.392,510.49 862.759,505 868.406,499.193 
		876.031,493.824 881.684,489.592 890.156,486.198 898.632,483.375 907.67,479.701 917.274,476.313 926,472 935,470 944,466 
		952,462 960,458 968,455 976,451 984,447 992.974,444.961 1003,443 1014.156,441.851 1026.022,443.263 1035.625,444.677 1046,448 
		1054,452 1062,456 1070,460 1076.3,466.985 1080,474 1082,484 1083,495 1085,505 1087,515 1087,527 1088,538 1089,549 1089,561 
		1087.81,571.5 1085.691,582.865 1084.209,592.12 1081.948,600.594 1079.125,609.069 1077,616 1073,624 1069,632 1065,640 1061,648 
		1055,654 1049,660 1042,666 1036,672 1030,678 1024,683 1015,686 1004,687 992,687 	"/>
	<polygon fill="#00FF00" stroke="#800080" points="804,440 794.404,440 785.865,438.117 776.718,431.817 770,426 765,419 760,412 
		756,404 751,397 746,390 740.738,382.825 735.246,375.508 730.366,369 726.711,359.855 725.084,351.114 724.678,341.56 
		725.898,331.802 728.336,324.281 733.418,317.979 740.738,312.286 747.975,306.799 754.154,301.513 759.44,296.228 
		765.945,292.162 777.649,289.546 784.85,285.861 793.692,281.795 802.531,277.933 811.479,276.103 821.237,275.087 
		832.616,276.307 840,279 846,285 851,292 855,303.14 858.437,313.507 860.47,323.468 861.487,333.834 862.703,344.609 
		862.703,356.5 860.672,371.034 858.844,380.995 857.42,394.007 853.762,403.764 850,411 845,417 839,424 834,430 825.302,436 
		816.765,438.525 809.853,440 	"/>
	<polygon fill="#00FF00" stroke="#800080" points="920.947,466.985 912.472,466.985 903.716,465.01 892.416,463.031 
		883.379,457.946 877.804,451.026 871,447 864,442 861.433,434.655 857,425 856,414 857.655,403.802 858.91,392.468 860.47,379.573 
		862.299,369 863.637,358.466 864.578,346.502 864.896,335.798 865.211,324.779 867.73,317.223 870.563,308.406 873.397,300.222 
		876.86,292.666 883.471,287.314 888,283 896,280 905,276 914,273 925,274 936,275 947,276 955,280 962,285 970,289 977,294 
		983,300 987,308 990,317 993,326 997,334 1000,343 1003,352 1002,361 1000,371 998,381 996,391 993,400 991,410 989,419 986,429 
		983,438 979.133,446.93 973,451 962.75,455.404 953.711,458.796 944.951,461.339 937.612,463.595 928.287,465.573 	"/>
	<polygon fill="#00FF00" stroke="#800080" points="647,274 638,271 630,267 622,263 616,257 611,250 607,242 602,235 601,224 
		600,213 599,202 598,191 598,179 597,168 598,159 601,150 604,140 607,132 612,125 618,118 623,112 628,105 636,100 646,98 656,96 
		665,95 676,96 686,98 695,101 703,105 711,109 720,112 728,116 737,119 744,124 749,131 755,137 761,143 764,152 763,163 761,173 
		760,183 758,193 756,204 752,211 745,216 738,221 731,227 725,232 718,237 711,243 705,248 698,254 692,259 684,263 674,266 
		665,268 656,271 	"/>
	<polygon fill="#00FF00" stroke="#800080" points="818,266 807,265 795.002,264.333 787.133,258.981 783,253 778,246 773,239 
		769,231 764,224 762.261,216.164 760.369,207.348 759.113,197.904 759,188 761,178 764,168.309 766.035,160.439 769.187,147.845 
		770,140 774,132 779,124 785,118 791,113 797,107 804,102 812,97 820,93 829,90 837,87 847,84 859,84 871,84 882,85 894,85 902,89 
		910,93 918,97 926,101 931,108 935,116 939,124 942,133 942,145 942,157 941,167 936,175 932,183 928,190 923,198 919,205 912,211 
		906,216 900,222 893,228 887,233 880,239 874,244 867,250 859,253 850,256 841,259 831,262 822,265 	"/>
	<polygon fill="#00FF00" stroke="#800080" points="882.64,0.012 886.198,10.014 886.852,17.698 885.852,28.698 883,39 880,47 
		875,55 870,62 865,69 860,76 854,81 845,84 836,87 827,90 818,94 810,97 799.666,98.164 789.33,97 779.166,95 770.33,92.164 
		762.5,87.331 755,81.831 748.83,76.664 742.666,70.498 737,64 733,56 730,47 728.203,37.74 729.314,28.368 731.615,19.08 
		736.813,8.77 744.14,0.012 	"/>
	<polygon fill="#00FF00" stroke="#800080" points="0,453.411 8.513,451.533 19.031,450.406 26.921,452.284 35.186,456.421 
		41.948,461.302 46.456,467.688 49.462,476.327 53.219,483.844 58.478,488.35 62.235,498.116 65.615,507.135 68.245,516.149 
		72.378,528.926 75.759,542 77.637,555.595 76.134,565.738 72.753,575.509 70.123,586.776 64.489,595.416 56.975,603.305 
		49.837,611.194 41.948,617.205 31.805,624.929 25.192,629.816 20.519,633.479 15.276,638.243 6.635,641.25 0,641.25 	"/>
	<polygon fill="#00FF00" stroke="#800080" points="0,195.198 7.375,198.229 12.83,202.775 18.589,208.231 23.9,212.923 
		28.437,220.545 31.159,227.077 32.835,233.085 34.35,240.965 35.562,250 36.775,256.12 37.51,264.46 38.29,273.094 38.29,278.852 
		36,284 32.248,288.235 28.073,293.678 24.626,298.215 20.271,303.841 16.46,309.467 13.375,313.822 11.016,317.269 7.678,321.284 
		4.647,325.616 2.487,329.065 0,330.88 	"/>
	<polygon fill="#00FF00" stroke="#800080" points="883.547,0 886,6.388 888.219,12.304 892.889,16.975 897.244,22.268 
		901.918,26.005 908.453,30 915.615,33.477 921.224,36.903 929.008,40.328 935.859,42.819 942,43.753 950.182,44.998 959.211,45.31 
		966.991,45.31 973.846,43.13 980.696,40.949 984.432,36.903 988.168,32.232 992.528,26.939 994.703,23.589 998.754,18.844 
		1002.181,15.081 1006.229,11.059 1009.654,6.698 1011.83,3.275 1011.83,0 	"/>
	<polygon fill="#00FF00" stroke="#800080" points="623.553,0.000 627.601,6.699 631.957,13.238 638.495,19.154 642.232,24.136 647.836,26.938 655.000,30.000 660.916,30.000 668.075,30.000 675.236,28.496 682.713,26.005 690.187,22.580 698.283,18.847 705.444,15.082 711.983,12.931 717.276,10.126 720.702,5.770 720.702,2.963 718.828,0.000 623.553,0.000"/>
</g>
</svg>
