<?xml version="1.0" encoding="utf-8"?>
<!-- Generator: Adobe Illustrator 16.0.1, SVG Export Plug-In . SVG Version: 6.00 Build 0)  -->
<!DOCTYPE svg PUBLIC "-//W3C//DTD SVG 1.1//EN" "http://www.w3.org/Graphics/SVG/1.1/DTD/svg11.dtd">
<svg version="1.1" id="Layer_1" xmlns="http://www.w3.org/2000/svg" xmlns:xlink="http://www.w3.org/1999/xlink" x="0px" y="0px"
	 width="1280px" height="1024px" viewBox="0 0 1280 1024" enable-background="new 0 0 1280 1024" xml:space="preserve">
<g id="Raw_image">
	
		<image overflow="visible" enable-background="new    " width="1280" height="1024" xlink:href="normal_4.jpg"  transform="matrix(1 0 0 1 2.441406e-004 -2.441406e-004)">
	</image>
</g>
<g id="Not_annotated" opacity="0.5">
	<polygon fill="#0000FF" stroke="#800080" points="1114,0 1114,9 1110,17 1108,28 1110,38 1112,48 1116,56 1113,54 1105,52 1099,46 
		1093,40 1087,34 1080,29 1076,21 1070,15 1062,11 1053,8 1043,6 1034,5 1026,1 	"/>
	<polygon fill="#0000FF" stroke="#800080" points="1149,108 1141,104 1137,96 1135,86 1125,84 1116,81 1110,75 1106,67 1111,59 
		1119,63 1125,69 1132,74 1139,79 1144,86 1147,93 1153,99 1154,105 	"/>
</g>
<g id="Clumps" display="none" opacity="0.5">
	<polygon display="inline" fill="#FF0000" stroke="#800080" points="784,657 773,656 763,654 755,650 747,646 741,640 737,632 
		733,624 730,615 727,606 727,596 728,585 731,576 736,569 742,562 742,553 738,545 730,542 723,546 716,551 709,557 701,560 
		692,564 683,566 672,567 663,564 655,560 649,554 645,546 640,539 637,530 635,520 636,509 636,497 638,487 642,478 647,472 
		654,466 661,462 671,459 683,459 694,460 703,463 711,467 719,471 728,468 732,461 737,454 744,448 751,443 760,440 771,441 
		779,445 787,449 794,454 801,459 807,465 814,470 820,476 827,481 836,483 841,476 845,468 851,461 856,454 860,447 866,440 
		873,435 881,431 891,433 901,435 910,438 916,444 920,452 925,459 929,467 934,474 937,483 939,493 938,504 935,513 931,521 
		927,528 920,534 913,539 906,544 898,548 888,549 876,549 866,547 858,543 849,543 844,550 840,557 835,564 828,569 821,575 
		820,584 822,594 823,605 822,616 820,626 816,634 812,641 807,648 800,653 791,656 	"/>
	<polygon display="inline" fill="#FF0000" stroke="#800080" points="977,592 965,592 955,590 947,586 940,581 935,574 932,565 
		930,555 933,545 937,537 943,531 950,527 957,522 961,514 957,506 952,499 948,491 945,482 947,472 951,463 955,456 960,449 
		965,442 972,436 979,431 986,426 994,422 1005,421 1016,422 1024,426 1033,429 1039,435 1044,442 1048,450 1050,460 1052,470 
		1051,481 1047,489 1043,496 1038,504 1032,509 1026,515 1020,522 1018,530 1020,540 1021,551 1019,561 1015,569 1010,575 1003,581 
		996,585 987,589 978,591 	"/>
</g>
<g id="Single_nuclei" opacity="0.5">
	<polygon fill="#00FF00" stroke="#800080" points="514.649,1024 517,1015 522,1007 529,1002 537,998 547,996 558,997 568,999 
		577,1002 585,1006 593.064,1015.093 598.334,1024 	"/>
	<polygon fill="#00FF00" stroke="#800080" points="296,258 284,258 272,258 262,256 252,254 244,250 236,246 229,241 223,235 
		219,227 217,217 217,205 220,196 225,189 232,184 239,179 248,175 257,172 267.217,171.156 277.5,171.156 288.719,173.87 
		298.113,177.628 305.628,181.385 313.769,185.143 320.657,189.109 327,194 332,201 336,209 338,219 336,229 333,238 328,245 
		322,250 314,254 304,256 	"/>
	<polygon fill="#00FF00" stroke="#800080" points="299.317,163.591 292.059,161.136 284.961,158.422 278,154 273.271,149.029 
		269,139 268.052,131.075 270.975,122.516 275.985,119.802 277.5,116.88 277.101,112.719 278.135,106.791 280.995,101.223 
		288.719,96.84 296.443,96.213 304,99 314,97 323,94 332.975,93.082 341.95,94.335 349,96 358,99 365,104 369,112 372,121 374,131 
		374.726,140.26 374.935,149.655 371.594,158.005 367,163 358,166 347,167 335,167 325,165 313,165 306.046,164.476 	"/>
	<polygon fill="#00FF00" stroke="#800080" points="717,1013 707.5,1011.997 698,1010 691.334,1004.83 686,998 681,991 677,983 
		674,974 672,964 672,954 674,943 677,935 680,926 681,915 682,904 683,893 686,884 689,875 693,867 699,861 707,856 717,854 
		727,853.158 737,850 749,850 759,852 766,857 771,864 775,872 779,880 781.168,888.825 782,901 782,911 780,921 776,929 771,936 
		764.668,941.663 759.834,948.997 756.168,956.663 755,968 755,980 755,987.163 753,994.997 749.5,1001.163 743,1005.997 
		735.334,1009.83 725.356,1011.894 	"/>
	<polygon fill="#00FF00" stroke="#800080" points="884.034,859.038 875,858 867,854 860,849 855,842 852,833 849,824 848,813 
		850,803 853,794 856,785 861,778 867,771 874,766 881,762 890,758 900,756 910,754 919.491,753.146 928.959,754.752 937,759 
		944,764 949.817,769.191 955,777 958,786 958,798 956,807 952,816 947,823 942,829 935.698,835.453 930.241,840.748 
		924.466,846.363 917,850 908,853 900.791,855.402 891.929,858.227 	"/>
	<polygon fill="#00FF00" stroke="#800080" points="1141,520 1129,520 1119,518 1110,515 1102,511 1095,506 1089,500 1083,494 
		1077,488 1072,481 1068,473 1065,464 1063,454 1063,442 1065,432 1066,421 1071,414 1078,409 1084,403 1091,398 1099,394 1109,391 
		1120,390 1129,393 1137,397 1145,401 1152,406 1158,412 1164,418 1168,426 1172,434 1175,443 1177,453 1179,463 1178,474 1175,483 
		1172,492 1167,499 1161,505 1156,511 1149,516 	"/>
	<polygon fill="#00FF00" stroke="#800080" points="1124.108,254.567 1114.774,255.023 1105.211,254.795 1094,255 1085,252 1078,247 
		1073,240 1070,231 1065,224 1064,213 1065,202 1068,193 1073,186 1078,178 1085,173 1092,169 1100,165 1111.586,163 1123,163 
		1131.849,164.635 1138,168 1145,173 1151,179 1155.983,185.581 1160,194 1161,205 1160,216 1157,225 1153,232 1148,240 
		1143.689,245.46 1137.769,249.786 1130.711,252.973 	"/>
	<polygon fill="#00FF00" stroke="#800080" points="1208,175 1196,175 1186.72,172.603 1179.435,168.277 1173,162 1167,156 1163,148 
		1160.082,139.362 1160,129 1162,119 1164,109 1169,101 1175,96 1183,91 1189,86 1195,80 1202,74 1211,71 1221.981,69.326 1230,72 
		1238,76 1245.005,83.5 1249,89 1253,97 1255,107 1254,118 1250.698,128.206 1246.37,137.541 1242.729,145.054 1239,151 1234,157 
		1228,163 1221,168 1213,173 	"/>
	<polygon fill="#00FF00" stroke="#800080" points="677,566 666,565 659,560 652,555 647,548 643,540 639,532 636,523 636,510.62 
		636,500.038 638,489 642,481 647,474 654,468 661,463 670,460 682,460 693,461 702,464 710,468 715.445,472.062 722.403,478.007 
		727,487.834 731.421,499.261 732.726,511.512 731.334,524 727,534.834 722.5,542.5 716,550 709,555 702,559 693,562 683,565 	"/>
	<polygon fill="#00FF00" stroke="#800080" points="895,548 883,548 872,547 863,544 855.905,538.705 850.75,529.135 849.757,517.76 
		851,508 848,499 845,490 844.976,479.966 847.252,470.175 851,464 856,456 860,449 866,442 873,437 881,433 890,434 900,436 
		909,439 915,445 920.337,452.416 924,460 928,468 933,475 936,484 937,495 936,506 933,515 929,522 924,529 917,534 910,540 
		903.716,544.625 	"/>
	<polygon fill="#00FF00" stroke="#800080" points="790,656 778,656 767,655 757,653 750,648 744.834,643.169 739.834,636.503 
		735.834,627.669 732.726,618.836 730.834,610.003 728.666,600.003 729,591 731.666,582.169 735.834,572.836 742.5,566.836 
		751,562.836 761.166,559.669 772.166,559.669 780.5,563.169 789.166,566.669 798,571 806,575 812.166,579.503 819,586 822,596.669 
		823,608.5 822,619 821,629 818,639 811.5,644.669 805.166,649.669 798,654 	"/>
	<polygon fill="#00FF00" stroke="#800080" points="825,569 813.834,570.168 803.5,569 793.666,566 784.5,561.834 777.666,556.5 
		771.834,548.668 768.166,539.5 764.5,530.834 761.666,523.668 758.834,516 755.666,506.5 752,497.666 749.166,488.5 745.834,478.5 
		744.834,468.834 746,458 749.5,449.669 757.166,444.669 766,443 775.666,445.169 783,450 790,455 796.666,460 803,466 809,472 
		814.166,478.335 820,485 826,491.502 831,498 836,505 840,513 842.166,523.834 843,534 844,545 842.166,555.502 837.834,562.168 
		831,567 	"/>
	<polygon fill="#00FF00" stroke="#800080" points="1019,517.76 1008.675,521.401 996.836,521.401 984.086,517.76 974.069,513.205 
		966.781,508.425 961,501 956,494 951,487 948.569,478.143 950.161,467.671 953.016,460.141 957.904,451.733 963.823,444.219 
		969.741,438.983 975.89,434.429 982.491,429.877 989.323,424.639 997.257,420.717 1005.943,420.313 1016.189,420.541 
		1024.84,423.728 1031.898,427.143 1039,432 1044,439 1048,447 1051,456 1052.16,468.58 1051.25,479.966 1048.063,487.022 1043,495 
		1037,501 1031,507 1025.979,512.977 	"/>
	<polygon fill="#00FF00" stroke="#800080" points="971.791,586.972 962.911,586 955,583 947.43,579.005 941,573 938,566 939,555 
		942,546 948.569,538.022 954.716,532.785 961,529 970,525 980,523 991,524 1000,527 1009,530 1015,536 1018,545 1019,556 1016,565 
		1011,572 1004.576,576.955 997,581 987.5,584.469 978,586 	"/>
	<polygon fill="#00FF00" stroke="#800080" points="859.52,277.178 859.146,282.598 859.52,288.578 861.015,294.746 863.071,299.231 
		864.753,303.904 867.183,308.389 870.173,312.501 873.91,316.613 877.835,320.911 881.948,324.462 887.18,327.266 891.665,329.135 
		896.525,331.004 902.319,332.499 908.299,333.807 912.784,335.115 918.766,336.424 924.933,336.984 929.606,337.358 
		934.278,337.171 939.323,335.676 943.81,334.367 947.735,332.499 951.098,330.069 954.462,327.079 957.079,323.902 
		960.256,321.285 963.62,317.36 966.797,314.744 970.722,311.567 973.9,308.389 977.076,305.773 980.254,302.222 983.805,298.671 
		985.861,294.559 987.356,289.139 988.104,284.093 987.916,279.047 987.169,274.001 985.674,269.889 984.926,265.217 
		984.552,260.731 984.74,256.059 985.114,251.386 984.926,246.527 984.552,242.415 983.244,238.49 981.375,234.566 979.32,229.706 
		977.45,226.343 975.207,222.978 972.031,219.988 969.227,217.184 966.611,214.755 963.246,212.699 960.07,211.578 955.584,211.017 
		951.846,210.83 947.361,211.578 942.501,212.325 937.268,214.007 933.343,215.129 929.045,216.624 924.372,218.493 
		918.952,221.857 914.841,224.473 910.729,227.277 906.804,231.015 903.253,235.5 899.889,239.612 896.712,243.163 893.722,245.219 
		890.17,248.022 886.433,251.012 882.508,252.695 877.835,255.124 873.163,258.115 869.613,261.852 866.621,264.843 
		863.631,268.767 861.201,273.066 	"/>
</g>
</svg>
