<?xml version="1.0" encoding="utf-8"?>
<!-- Generator: Adobe Illustrator 16.0.5, SVG Export Plug-In . SVG Version: 6.00 Build 0)  -->
<!DOCTYPE svg PUBLIC "-//W3C//DTD SVG 1.1//EN" "http://www.w3.org/Graphics/SVG/1.1/DTD/svg11.dtd">
<svg version="1.1" id="Layer_1" xmlns="http://www.w3.org/2000/svg" xmlns:xlink="http://www.w3.org/1999/xlink" x="0px" y="0px"
	 width="1280px" height="1024px" viewBox="0 0 1280 1024" enable-background="new 0 0 1280 1024" xml:space="preserve">
<g id="Raw_image">
	
		<image overflow="visible" enable-background="new    " width="1280" height="1024" xlink:href="normal_13.jpg"  transform="matrix(1 0 0 1 2.441406e-004 -0.0017)">
	</image>
</g>
<g id="Not_annotated">
</g>
<g id="Clumps" display="none" opacity="0.5">
	<polygon display="inline" fill="#FF0000" stroke="#800080" points="1153,966 1142,965 1132,963 1124,959 1117,954 1109,950 
		1102,950 1095,948 1087,944 1079,940 1071,936 1066,929 1059,924 1054,917 1050,909 1046,901 1042,893 1038,885 1035,876 1033,866 
		1033,854 1031,844 1023,849 1015,853 1005,855 996,853 988,849 979,846 969,844 960,841 954,835 949,828 944,821 940,813 936,805 
		932,797 929,788 927,778 926,767 928,757 933,749 939,743 946,738 955,735 965,733 977,733 985,737 993,741 999,747 1006,752 
		1013,757 1020,762 1027,767 1033,773 1038,780 1044,786 1047,795 1047,805 1052,811 1060,806 1068,802 1076,799 1085,795 1094,792 
		1104,790 1114,788 1125,789 1135,791 1145,793 1153,797 1159,803 1165,809 1169,817 1174,824 1183,827 1194,826 1204,828 1212,832 
		1219,837 1225,843 1230,850 1234,858 1237,867 1238,876 1236,886 1235,897 1233,907 1229,915 1225,923 1220,929 1214,936 1208,941 
		1200,946 1193,951 1186,955 1178,959 1169,962 1160,965 	"/>
</g>
<g id="Single_nuclei" opacity="0.5">
	<polygon fill="#00FF00" stroke="#800080" points="1040.826,1024 1046.611,1019.805 1053,1017 1062,1014 1072,1012 1081,1011 
		1092,1012 1101,1015 1107.521,1017.5 1111.569,1019.805 1116.578,1024 	"/>
	<polygon fill="#00FF00" stroke="#800080" points="0,768 6.5,773.5 10,780.834 12,790 13,800 13,809 9.945,817.403 6,825 0,832 	"/>
	<polygon fill="#00FF00" stroke="#800080" points="1280,535 1273.436,530.161 1268,524 1264,516 1261.821,506.914 1262.61,496.33 
		1266.67,487.873 1280,478.829 	"/>
	<polygon fill="#00FF00" stroke="#800080" points="1280,78.708 1270,80 1260,78 1253,73 1249,65 1247,55 1249,45 1248.211,36.323 
		1248.576,29.363 1252,22 1258,16 1270.073,9.087 1280,6 	"/>
	<polygon fill="#00FF00" stroke="#800080" points="800,1024 802,1014 807,1008 814,1002 820,997 829,993 837,990 846.023,987.301 
		856.17,984.927 866.057,983.476 876,984 887,985 896,988 905,991 912.057,994.02 921.545,1001.401 926.028,1012.867 928.004,1024 	
		"/>
	<polygon fill="#00FF00" stroke="#800080" points="626,459 614,459 609,458 602,453 591,454 583,450 576,445 568,441 562,435 
		558,427 554,419 552,409 553,398 557,389 563,383 568,377 576,372 584,368 593,365 603,363 613,361 624,360 635,361 644,364 
		651,369 656,376 661,383 665,391 668,400 668,412 667,423 663,431 659,438 653,444 647,451 640,456 631,458 	"/>
	<polygon fill="#00FF00" stroke="#800080" points="612,828 600,828 591,825 584,820 577,815 572,808 570.586,797.202 577.5,788 
		584.834,782.172 589.5,772.839 590.834,763.172 592.834,751.505 591.166,740.839 588.834,731.839 582.5,724.505 573.166,716.839 
		567.5,711.505 563.5,704 562,696 565,686 569,679 575,672 581,667 589,663 599,660 610,661 621,662 629,666 636,671 642,677 
		648,683 653,690 659,696 664,703 668,711 672,719 675.5,728.505 677,738 678.834,746.839 679.5,755.839 678.5,765.505 
		675.834,774.505 672,783 668,791 664,799 658,804 651,810 644,815 637,819 629,823 620,826 	"/>
	<polygon fill="#00FF00" stroke="#800080" points="644.461,643.82 639,642 631,638 625,632 619,626 612,621 606,615 600,609 
		593,604 587,598 583,590 579,582 579,570 580,559 585,552 592,546 602,544 612,542 618.098,537.756 627.489,533.689 638,534 
		647,537 655,541 662,546 669,551 674,558 678,566 681,575 683,585 684,596 682,606 681,617 677,625 672,632 667,638 658,642 
		649,644 	"/>
	<polygon fill="#00FF00" stroke="#800080" points="715,979 703,979 691,979 681,977 672,974 663,971 656,966 650,960 644,954 
		640,946 638,936 638,926 638,916 636,906 633,897 633,887 633,875 634,864 635,853 637,843 641,835 645,827 651,821 658,816 
		668,813 678,811 688,809 699,808 709,810 718,813 725,818 733,822 739,828 745,834 751,840 755,848 759,856 763,864 766,873 
		768,883 768,893 769,904 769,914 768,925 765,934 761,941 756,949 750,955 745,962 739,968 732,972 724,977 	"/>
	<polygon fill="#00FF00" stroke="#800080" points="720.83,539 712,539 701,538 691.273,535.674 682,533 674,529 667,524 661,518 
		656,511 653,502 651,492 651,480 653,470 657,461 662,455 668,449 674,443 681,438 687,432 694,427 703,423 714,422 723,425 
		731,429 736,436 743,441 749,447 753,455 756,464 758.987,472.031 760,484 758.233,494.953 756,504 753.254,513.654 750,521 
		744,528 738,534 730,537 	"/>
	<polygon fill="#00FF00" stroke="#800080" points="767,704 755,704 744,703 734,701 725,698 716,695 709,690 703,684 697,678 
		692,671 689,662 685,654 684,643 685,632 689,623 693,616 699,610 706,604 715,601 725,599 736,598 747,599 757,601 768,602 
		780,602 790,604 799,607 806,612 811,619 816,626 820.073,635.168 822,644 821,655 819,665 816,674 811,681 806,687 799,692 
		791,697 783,700 774,703 	"/>
	<polygon fill="#00FF00" stroke="#800080" points="855,446 844,445 836,441 829,436 826.992,431.988 828.811,424.98 827.302,419.25 
		823.155,418.264 818.705,420.155 814.623,425.539 811.853,430.348 808,438 798.799,439.909 790,439 782.209,435.84 
		774.519,430.712 770.598,422 769,412 770.295,402.5 773,394 777,386 782,378 787,372 793,366 801,361 811,359 823,359 832,362 
		842,362 852,360 863,361 871,365 878,370 883,377 887,385 889.555,392.408 891.244,403.113 891.244,413.67 888.229,422 883,429 
		877,435 870,440 862,444 	"/>
	<polygon fill="#00FF00" stroke="#800080" points="889.047,951.26 879,952 868,951 858,949 849,946 841,942 833,938 826,933 
		821,926 818,917 821,907 826,900 832,895 841.093,890.956 848.966,886.662 856.302,882.367 862.742,876.642 869.543,872.347 
		879,869 890,868 901,869 909,873 915,879 920,886 923,895 925,905 925,916.365 923,927 919,934 913,941 906,945 898,949 	"/>
	<polygon fill="#00FF00" stroke="#800080" points="876,222 865,221 856,218 848,214 841,209 834,204 828,198 824,190 821,181 
		820,170 823,161 827,152 831,145 836,138 842,132 849,126 857,123 866,119 875,116 886,115 896,117 904,121 911,126 917,132 
		921,140 923,150 924,159 923,170 921,179 918,188 913,196 908,203 902,209 896,214 888,219 879,221 	"/>
	<polygon fill="#00FF00" stroke="#800080" points="875,658 864,657 854,655 847,650 839,646 834,639 831,630 830,619 831,608 
		834,599 838,591 843,583 848,576 854,570 863,567 871,564 882,562 893,561 903,563 911,567 920,570 926,576 934,578 939,585 
		939,597 938,608 935,616 928,622 921,623 920,633 914,640 908,646 901,650 892,653 883,656 	"/>
	<polygon fill="#00FF00" stroke="#800080" points="981,338 969,338 958,337 950,333 941,330 933,326 926,321 919,316 913,310 
		908,303 905,294 902,285 902,275 905,265 910,258 915,252 923,247 934,246 945,245 956,246 968,246 979,247 988,250 996,254 
		1003,259 1008,266 1013,273 1017,281 1019,291 1019,302 1015,311 1010,317 1004,324 998,329 990,334 982,337 	"/>
	<polygon fill="#00FF00" stroke="#800080" points="984,565 974,563 965,560 958,555 953,548 948,541 944,533 941,524 940,513 
		944,505 951,499 956,493 959,484 964,476 972,472 980,468 986,463 994,458 1005,457 1014,458 1023,461 1031,465 1037,471 1043,477 
		1048,484 1053,491 1056,500 1056,510 1052,517 1046,524 1043,533 1039,540 1033,547 1026,552 1017,554 1008,557 998,560 990,563 	
		"/>
	<polygon fill="#00FF00" stroke="#800080" points="1031,713 1021,711 1010,710 1001,707 993,703 985,699 978,694 971,689 965,683 
		960,676 955,669 952,660 951,649 953,639 957,631 960,622 965,615 970,608 977,602 984,597 993,594 1002,592 1013,592 1024,593 
		1032,597 1041,600 1049,604 1055,610 1061,616 1065,624 1070,631 1074,639 1078,647 1079,658 1077,668 1075,678 1071,686 1067,693 
		1062,700 1055,705 1048,710 1038,712 	"/>
	<polygon fill="#00FF00" stroke="#800080" points="1107.287,218.544 1100.166,214.832 1096,213 1088,209 1081,204 1075,198 
		1069,192 1063,186 1058,179 1054,171 1050,163 1046,155 1042,147 1041,136 1043,126 1047,118 1052,111 1058,104 1063,98 1071,93 
		1080,90 1092,90 1103,91 1111,95 1119,99 1126,104 1133,109 1141,113 1148,118 1153,125 1157,133 1161,141 1163,151 1164,162 
		1164,174 1161,183 1158,191 1153,199 1148,205 1141,211 1134,215 1125,218 1115,220 	"/>
	<polygon fill="#00FF00" stroke="#800080" points="1189,674 1178,673 1169,670 1161,666 1154,661 1148,655 1142,649 1137,642 
		1133,634 1129,626 1126,617 1128,606 1132,598 1137,591 1142,584 1148,578 1155,573 1163,569 1172,566 1184,566 1193,569 1201,573 
		1208,578 1215,583 1223,587 1229,593 1233,601 1236,610 1235,621 1232,630 1229,639 1225,647 1220,654 1214,659 1206,664 1199,669 
		1192,673 	"/>
	<polygon fill="#00FF00" stroke="#800080" points="1152,1024 1154,1014 1159,1007 1165,1002 1172,997 1181.551,994.038 
		1192.254,993.147 1203,993 1215,993 1225,995 1235,997 1243,1001 1251,1005 1258,1010 1266.629,1024 	"/>
	<polygon fill="#00FF00" stroke="#800080" points="1280,796 1271,794 1262.681,791.014 1254,787 1248,781 1243,774 1238,767 
		1234,759 1230.959,750.257 1228.656,739 1228,729 1230,719 1233,710 1236,701 1241.151,693.883 1246.573,687.967 1255,684 
		1266,682 1280,684.677 	"/>
	<polygon fill="#00FF00" stroke="#800080" points="1004.346,852.759 995.346,849.759 987,847 977,845 967.523,842.817 960,838 
		955.162,831.282 949.397,823.455 946.101,816.657 941.981,809.655 938.068,801.211 933,793 930,784 928,774 927,763 931,754 
		936,748 943,742 950,738 960,735 971,734 981,736 989,740 995,746 1002,751 1009,756 1016,761 1023,766 1029,772 1035,778 
		1040,785 1045,792 1047.03,803.064 1046,812.744 1043.322,821.602 1039.406,831.695 1034.053,838.698 1027.873,844.673 1020,849 
		1012,852 	"/>
	<polygon fill="#00FF00" stroke="#800080" points="1156,966 1146,964 1136,962 1126,960 1119.781,953 1117.679,945.605 
		1117.473,936.132 1118.707,925.215 1119.945,914.709 1121.592,905.439 1124.476,895.966 1129.006,887.519 1134.156,879.486 
		1138.483,871.865 1143.631,865.068 1148.988,859.094 1156.197,852.759 1161.552,846.736 1167.114,841.176 1173.908,835.406 
		1179.884,830.671 1189.153,827.657 1197.192,827.657 1205.338,828.822 1212.615,832.023 1219.308,836.388 1225.127,841.338 
		1230.073,847.155 1235.022,854 1238,861 1238,873 1237,884 1235,894 1233,904 1231,914 1226,920 1220,926 1214,933 1208,939 
		1203,945 1197,951 1189,955 1180,958 1171,961 1162,964 	"/>
	<polygon fill="#00FF00" stroke="#800080" points="1097,949 1089,945 1082,940 1075,935 1068,930 1062,924 1055,919 1049,913 
		1045,905 1042,896 1039,887 1037,877 1035,867 1034.053,856.823 1036.113,846.525 1039.201,837.463 1043.528,827.657 
		1047.442,821.602 1052.179,814.186 1058.771,808.627 1065.774,803.27 1073.395,799.768 1081.656,797.388 1090.697,794.412 
		1100,791 1111,790 1122,789 1133,788 1141,790 1149,794 1156,799 1162,805 1167,812 1172,819 1172,827 1170.965,835.49 
		1164.642,842.204 1158.963,848.179 1152.905,854.695 1145.818,860.982 1140.328,867.497 1135.414,874.92 1131.412,881.892 
		1127.071,889.664 1123.07,896.828 1120.097,907.142 1118.84,916.174 1117.473,926.803 1116,938 1113,947 1102,948 	"/>
</g>
</svg>
