<?xml version="1.0" encoding="utf-8"?>
<!-- Generator: Adobe Illustrator 16.0.5, SVG Export Plug-In . SVG Version: 6.00 Build 0)  -->
<!DOCTYPE svg PUBLIC "-//W3C//DTD SVG 1.1//EN" "http://www.w3.org/Graphics/SVG/1.1/DTD/svg11.dtd">
<svg version="1.1" id="Layer_1" xmlns="http://www.w3.org/2000/svg" xmlns:xlink="http://www.w3.org/1999/xlink" x="0px" y="0px"
	 width="1360px" height="1024px" viewBox="0 0 1360 1024" enable-background="new 0 0 1360 1024" xml:space="preserve">
<g id="Raw_image">
	
		<image overflow="visible" enable-background="new    " width="1360" height="1024" xlink:href="normal_39.jpg"  transform="matrix(1 0 0 1 0 -2.441406e-004)">
	</image>
</g>
<g id="Not_annotated" display="none" opacity="0.5">
	<polygon display="inline" fill="#0000FF" stroke="#800080" points="0,946 4,950 6,958 8,966 7,974 4,982 0,987 	"/>
	<polygon display="inline" fill="#0000FF" stroke="#800080" points="564,0 560,4 552,5 543,4 535,2 	"/>
	<polygon display="inline" fill="#0000FF" stroke="#800080" points="775,1020 772,1013 775,1005 776,1014 	"/>
	<polygon display="inline" fill="#0000FF" stroke="#800080" points="780,1013 779,1006 780,997 784,990 790,986 797,989 801,995 
		797,998 792,1003 788,997 786,994 784,1002 782,1010 	"/>
	<polygon display="inline" fill="#0000FF" stroke="#800080" points="1145,793 1135,793 1129,789 1128,780 1134,776 1138,769 
		1143,765 1141,761 1136,766 1131,771 1130,764 1124,760 1119,755 1113,752 1107,751 1102,746 1099,739 1106,737 1111,742 1115,737 
		1116,729 1120,727 1120,737 1124,736 1129,731 1124,726 1123,719 1118,714 1120,705 1126,707 1125,701 1129,700 1131,706 1134,701 
		1140,703 1146,707 1146,714 1144,722 1141,730 1140,739 1141,748 1143,756 1147,762 1151,768 1154,775 1154,783 1150,789 	"/>
	<polygon display="inline" fill="#0000FF" stroke="#800080" points="1113,726 1104,725 1104,716 1110,720 1114,725 	"/>
	<polygon display="inline" fill="#0000FF" stroke="#800080" points="309,0 314,5 319,10 325,14 326,23 327,32 326,41 325,50 323,57 
		315,57 308,61 304,67 299,71 291,73 284,72 275,73 267,71 258,71 250,72 243,76 236,77 227,77 219,75 222,67 220,60 219,53 213,51 
		209,45 206,38 202,32 202,23 201,15 207,10 214,8 216,1 	"/>
	<polygon display="inline" fill="#0000FF" stroke="#800080" points="793,1023 790,1016 794,1010 802,1007 810,1007 818,1009 
		823,1014 829,1018 837,1020 846,1019 850,1023 	"/>
</g>
<g id="Clumps" display="none" opacity="0.5">
	<polygon display="inline" fill="#FF0000" stroke="#800080" points="328,207 318,207 309,206 302,203 296,199 290,195 286,189 
		282,183 278,177 277,168 277,158 279,149 281,142 284,135 287,127 285,120 281,114 277,108 272,103 269,96 267,88 272,82 278,86 
		284,90 291,93 294,100 298,106 306,108 315,107 324,108 331,111 337,115 342,120 347,125 351,131 354,138 355,147 357,155 358,164 
		359,173 358,182 354,188 350,193 344,198 339,202 332,205 	"/>
	<polygon display="inline" fill="#FF0000" stroke="#800080" points="80,583 73,580 69,574 65,568 61,562 56,557 49,554 41,552 
		37,546 40,539 40,531 38,523 37,514 39,505 42,499 47,493 52,488 58,484 65,481 72,478 80,476 88,476 98,476 107,475 116,474 
		122,478 128,482 131,489 135,495 139,501 141,509 142,518 141,527 138,534 134,539 130,545 128,554 130,562 128,570 124,576 
		118,579 110,581 103,580 96,577 88,578 83,582 	"/>
</g>
<g id="Single_nuclei" opacity="0.1">
	<polygon fill="#00FF00" stroke="#800080" points="0,110 7,111 13,115 19,119 24,124 28,130 31,137 34,144 35,153 35,163 33,171 
		30,177 26,183 21,188 14,192 7,195 0,195 	"/>
	<polygon fill="#00FF00" stroke="#800080" points="0,267 8,265 17,266 24,269 30,273 35,278 39,284 41,292 41,302 38,309 34,315 
		29,320 24,324 18,328 10,330 1,331 	"/>
	<polygon fill="#00FF00" stroke="#800080" points="99,349 90,348 81,347 74,344 69,339 64,334 60,328 57,321 58,311 61,304 65,299 
		71,294 78,292 87,290 97,290 106,291 113,294 120,297 125,302 129,308 131,316 130,325 128,332 123,338 117,342 111,345 103,348 	
		"/>
	<polygon fill="#00FF00" stroke="#800080" points="73,1023 74,1016 78,1010 83,1005 89,1000 96,998 106,997 114,999 121,1002 
		126,1007 130,1013 132,1021 	"/>
	<polygon fill="#00FF00" stroke="#800080" points="113,202 103,202 95,200 89,196 84,191 79,186 76,179 75,170 78,163 81,156 
		85,150 90,144 96,140 103,137 112,136 122,136 129,139 134,144 139,149 142,156 143,165 143,173 141,181 137,187 133,192 127,196 
		120,199 	"/>
	<polygon fill="#00FF00" stroke="#800080" points="139,776 129,776 120,776 111,776 103,776 99,770 94,765 90,759 87,752 86,743 
		88,735 92,728 97,723 102,718 108,714 113,710 119,705 125,702 133,699 143,699 151,701 157,705 161,711 164,718 166,726 165,735 
		163,742 160,750 156,756 152,761 147,767 142,772 	"/>
	<polygon fill="#00FF00" stroke="#800080" points="153,0 150,4 144,8 135,9 125,9 117,7 111,3 	"/>
	<polygon fill="#00FF00" stroke="#800080" points="174,99 164,99 155,98 148,95 142,91 137,86 132,81 129,74 126,67 125,58 126,48 
		128,40 130,33 134,27 139,22 145,18 153,15 161,15 170,16 178,18 184,22 189,27 192,34 194,42 196,50 197,59 197,69 195,77 192,84 
		188,90 183,95 177,98 	"/>
	<polygon fill="#00FF00" stroke="#800080" points="184,435 174,435 166,433 159,430 153,426 147,422 144,415 144,407 146,399 
		149,392 153,386 159,381 165,377 170,372 177,369 184,367 193,367 201,369 208,372 213,377 217,383 219,391 220,400 218,408 
		215,415 211,420 205,425 200,429 193,432 185,434 	"/>
	<polygon fill="#00FF00" stroke="#800080" points="242,341 232,341 223,340 215,338 209,334 204,329 201,322 200,313 202,305 
		205,298 210,292 216,288 225,287 235,287 244,288 251,291 259,293 265,297 270,302 273,309 274,318 272,325 265,329 259,333 
		253,337 246,340 	"/>
	<polygon fill="#00FF00" stroke="#800080" points="290,470 280,470 271,469 264,466 257,463 251,459 246,454 242,448 240,440 
		240,432 242,424 247,418 252,414 260,411 269,410 278,411 286,413 292,417 297,422 301,428 304,435 306,443 307,452 305,459 
		300,465 294,469 	"/>
	<polygon fill="#00FF00" stroke="#800080" points="313,816 303,816 295,814 288,811 283,806 280,799 278,791 279,782 281,774 
		285,768 290,763 297,760 306,758 316,758 323,761 329,765 333,771 337,777 339,785 337,793 335,800 330,806 325,810 318,813 	"/>
	<polygon fill="#00FF00" stroke="#800080" points="327,1006 319,1004 313,1000 309,994 306,987 305,978 303,970 304,961 308,954 
		313,950 320,946 329,945 338,946 345,949 351,953 355,959 357,967 357,977 356,986 353,993 349,999 343,1003 336,1005 	"/>
	<polygon fill="#00FF00" stroke="#800080" points="370,479 360,479 352,477 346,473 343,466 341,458 342,449 346,442 350,436 
		355,431 361,427 367,423 374,421 383,419 391,421 397,425 402,430 407,435 409,443 407,451 403,457 400,463 395,468 390,473 
		383,476 375,478 	"/>
	<polygon fill="#00FF00" stroke="#800080" points="415,0 416,7 413,14 409,19 403,23 395,25 386,24 378,22 372,18 367,13 363,7 
		361,1 	"/>
	<polygon fill="#00FF00" stroke="#800080" points="412,367 402,367 394,365 387,362 381,358 376,353 372,347 369,340 366,333 
		366,323 369,316 373,310 378,305 385,301 392,298 402,298 411,299 417,303 423,307 427,313 430,320 433,327 435,335 435,344 
		432,352 428,358 423,362 416,366 	"/>
	<polygon fill="#00FF00" stroke="#800080" points="420,106 410,106 402,104 394,102 388,98 383,93 379,87 375,81 373,73 374,64 
		377,57 382,51 388,47 395,44 403,42 411,44 418,47 424,51 430,55 434,61 438,67 440,75 440,84 437,92 433,98 428,103 421,105 	"/>
	<polygon fill="#00FF00" stroke="#800080" points="438,572 428,572 421,569 414,566 408,562 403,557 399,551 396,544 396,534 
		399,526 403,520 408,515 413,511 420,507 428,505 438,505 446,507 451,512 457,516 462,521 464,529 464,539 463,548 460,555 
		457,562 452,567 445,570 	"/>
	<polygon fill="#00FF00" stroke="#800080" points="509,445 501,443 493,443 484,442 477,439 472,434 468,428 465,421 465,411 
		467,403 471,396 475,390 481,386 488,383 497,382 507,382 516,383 522,387 525,394 527,402 530,409 531,417 528,424 523,430 
		518,435 514,440 	"/>
	<polygon fill="#00FF00" stroke="#800080" points="531,655 521,655 512,654 505,651 499,647 494,642 490,636 487,629 485,621 
		485,611 486,602 489,595 491,587 494,580 497,573 501,566 505,561 512,557 520,555 527,558 533,562 538,567 543,572 546,579 
		548,587 549,596 549,606 548,615 549,624 549,634 547,642 543,648 538,652 	"/>
	<polygon fill="#00FF00" stroke="#800080" points="533,277 523,277 515,275 508,272 503,267 499,261 496,254 494,246 494,237 
		496,230 499,223 504,218 510,213 516,210 525,208 535,208 541,212 547,216 551,222 555,228 558,235 558,245 556,253 554,260 
		549,266 544,271 538,274 	"/>
	<polygon fill="#00FF00" stroke="#800080" points="528,545 519,544 513,540 509,534 505,528 503,520 502,511 502,501 505,493 
		508,487 513,482 520,478 529,477 538,478 544,482 549,487 551,495 554,502 553,511 552,520 549,527 545,532 540,537 534,541 	"/>
	<polygon fill="#00FF00" stroke="#800080" points="550,730 540,730 531,729 524,726 519,721 516,714 514,706 514,698 517,691 
		521,685 526,679 531,675 537,671 546,669 555,670 563,672 571,674 577,678 581,684 584,691 582,699 580,707 576,713 571,718 
		565,722 559,725 552,729 	"/>
	<polygon fill="#00FF00" stroke="#800080" points="571,837 561,837 555,833 548,830 542,826 536,822 531,817 526,812 522,806 
		521,797 521,789 525,782 529,776 535,772 542,769 551,768 558,771 564,775 570,779 576,783 581,788 584,795 584,805 583,814 
		583,822 581,829 576,835 	"/>
	<polygon fill="#00FF00" stroke="#800080" points="608,358 598,358 590,356 584,352 579,347 575,341 572,334 568,328 566,320 
		565,311 565,303 568,295 573,290 580,287 589,286 597,286 605,288 611,292 616,297 621,302 624,309 628,315 632,321 632,330 
		628,337 625,344 621,350 616,354 609,357 	"/>
	<polygon fill="#00FF00" stroke="#800080" points="618,651 609,650 603,646 595,644 589,640 585,634 585,625 587,618 589,610 
		592,603 596,597 601,592 607,587 615,585 624,584 631,587 635,593 638,600 640,608 640,618 637,625 633,631 630,638 627,645 
		622,649 	"/>
	<polygon fill="#00FF00" stroke="#800080" points="661,882 652,881 644,879 637,876 633,870 628,865 624,859 620,853 618,845 
		616,837 617,827 619,820 623,813 628,808 634,805 642,803 651,801 660,802 667,805 672,810 676,816 679,823 682,830 685,837 
		687,845 688,853 686,861 682,868 677,873 671,877 665,880 	"/>
	<polygon fill="#00FF00" stroke="#800080" points="668,570 659,569 653,565 647,561 640,558 634,554 629,549 625,543 623,535 
		625,527 628,520 632,514 638,509 645,506 654,505 663,506 670,509 676,513 681,518 684,525 686,533 687,542 685,550 683,557 
		679,563 673,567 	"/>
	<polygon fill="#00FF00" stroke="#800080" points="701,109 691,109 684,106 678,102 673,97 668,92 665,85 662,78 660,70 660,60 
		663,53 666,45 671,40 677,36 685,34 694,33 701,36 706,41 710,47 713,54 716,61 717,70 717,78 717,88 714,95 710,101 705,106 	"/>
	<polygon fill="#00FF00" stroke="#800080" points="734,652 724,652 716,650 709,647 704,642 699,637 694,632 691,625 690,616 
		692,608 696,602 702,597 709,595 718,593 726,595 734,597 738,603 742,609 745,616 748,623 749,632 748,641 744,646 738,650 	"/>
	<polygon fill="#00FF00" stroke="#800080" points="714,441 706,439 699,436 694,431 691,424 692,415 693,406 697,399 699,392 
		703,386 708,381 716,378 725,377 734,376 742,378 748,382 753,387 757,393 757,401 755,409 752,415 748,421 743,426 738,431 
		732,435 725,438 717,440 	"/>
	<polygon fill="#00FF00" stroke="#800080" points="748,336 738,336 728,336 719,335 712,332 707,327 704,320 703,311 702,302 
		704,294 707,286 711,281 717,276 724,273 732,271 739,274 745,278 749,284 755,288 759,294 761,302 762,311 762,321 760,329 
		755,334 	"/>
	<polygon fill="#00FF00" stroke="#800080" points="773,602 763,602 757,598 750,595 743,592 737,588 732,583 729,576 728,567 
		730,558 732,551 736,545 741,540 747,535 753,532 761,529 769,527 779,527 787,529 795,531 802,534 808,538 813,543 815,551 
		818,558 817,567 815,574 813,582 809,589 803,593 797,596 790,599 781,601 	"/>
	<polygon fill="#00FF00" stroke="#800080" points="775,778 766,777 759,774 754,769 749,764 745,758 743,750 742,741 744,732 
		747,725 751,719 756,714 764,712 774,712 783,711 792,712 799,715 805,719 809,725 813,731 815,739 814,748 811,754 807,760 
		802,765 796,769 790,773 783,776 	"/>
	<polygon fill="#00FF00" stroke="#800080" points="812.138,637.557 806.943,628.208 805.212,619.205 807,611 811,606 817,602 
		825,599 835,599 842,602 847,607 851,613 856,618 859,625 861,633 859,640 854,646 849,650 842,654 834,656 824.257,651.409 
		816.985,644.83 	"/>
	<polygon fill="#00FF00" stroke="#800080" points="820.386,666 810.386,666 803.386,663 796.386,660 792.386,654 788.386,648 
		787.386,639 787.386,631 791.386,625 804.119,615.435 805.94,625.452 809.713,633.517 816.478,644.185 824.283,651.469 
		833.259,656.413 825.386,665 	"/>
	<polygon fill="#00FF00" stroke="#800080" points="842,489 832,489 822,489 814,487 810,481 805,476 803,468 801,460 800,451 
		799,442 801,434 804,427 809,421 814,416 820,413 828,410 838,410 845,413 851,417 856,422 859,429 863,435 867,441 871,447 
		872,456 871,465 869,472 865,478 859,482 852,486 845,488 	"/>
	<polygon fill="#00FF00" stroke="#800080" points="853,1000 843,1000 835,998 829,994 824,989 821,982 819,974 816,967 816,959 
		819,952 823,946 829,942 836,939 846,938 853,941 858,946 861,953 863,961 865,969 866,977 864,986 862,993 857,998 	"/>
	<polygon fill="#00FF00" stroke="#800080" points="929,91 920,90 913,87 906,84 901,79 896,74 892,68 888,62 886,54 884,46 886,37 
		888,30 893,24 898,20 904,16 911,12 919,10 926,8 934,9 941,12 946,17 952,21 957,26 961,32 964,39 965,48 966,57 965,65 962,72 
		958,78 953,83 947,87 939,89 930,90 	"/>
	<polygon fill="#00FF00" stroke="#800080" points="944,628 934,628 925,627 918,624 912,620 906,616 900,612 894,608 890,602 
		887,595 886,586 888,578 893,572 899,568 905,564 913,562 922,561 932,561 940,563 948,565 955,568 961,572 965,578 969,584 
		971,592 971,600 968,607 964,613 960,619 955,624 949,627 	"/>
	<polygon fill="#00FF00" stroke="#800080" points="931,771 923,769 916,766 911,761 906,756 903,749 901,741 900,732 902,724 
		906,718 913,714 920,711 926,708 935,708 941,712 947,716 953,720 957,726 958,735 957,744 956,753 953,759 948,764 942,768 
		934,770 	"/>
	<polygon fill="#00FF00" stroke="#800080" points="974,291 964,291 955,290 946,289 938,287 931,284 924,281 918,277 914,271 
		910,265 908,257 907,248 907,240 909,232 912,225 917,220 923,215 930,212 937,210 946,208 955,209 964,210 970,214 975,219 
		980,224 985,229 990,234 994,240 996,248 997,257 996,265 993,273 990,280 987,286 981,290 	"/>
	<polygon fill="#00FF00" stroke="#800080" points="968,482 958,482 951,479 945,475 938,472 932,468 927,463 925,455 924,446 
		924,438 928,431 934,427 941,424 949,422 957,424 964,427 970,431 976,435 981,440 985,446 989,452 990,461 987,468 984,474 
		978,478 971,481 	"/>
	<polygon fill="#00FF00" stroke="#800080" points="993,691 986,688 981,683 978,676 976,668 978,659 980,652 983,645 988,639 
		993,634 998,629 1004,625 1011,622 1019,621 1028,621 1037,622 1044,625 1047,632 1050,639 1052,647 1052,657 1048,662 1043,667 
		1038,672 1031,676 1024,679 1017,681 1010,684 1003,687 996,690 	"/>
	<polygon fill="#00FF00" stroke="#800080" points="1052,423 1042,423 1035,420 1030,415 1025,410 1021,404 1019,396 1017,388 
		1017,378 1018,369 1020,361 1023,354 1028,348 1033,344 1040,340 1048,340 1056,342 1063,345 1068,350 1073,355 1078,360 1082,366 
		1085,373 1086,382 1085,390 1082,397 1078,404 1073,409 1068,414 1062,418 1056,421 	"/>
	<polygon fill="#00FF00" stroke="#800080" points="1062,141 1054,139 1047,136 1042,131 1037,126 1034,119 1032,111 1032,101 
		1035,93 1039,87 1043,82 1048,77 1054,72 1059,68 1065,64 1072,60 1080,58 1088,56 1097,57 1104,60 1110,64 1114,70 1116,78 
		1117,87 1115,95 1113,103 1110,109 1105,115 1100,119 1094,123 1088,128 1083,132 1077,136 1070,139 	"/>
	<polygon fill="#00FF00" stroke="#800080" points="1122,0 1120,6 1115,10 1111,16 1107,23 1105,30 1099,34 1090,33 1081,32 1073,30 
		1066,27 1063,20 1061,12 1062,2 	"/>
	<polygon fill="#00FF00" stroke="#800080" points="1112,489 1104,487 1098,483 1093,478 1091,470 1090,461 1092,453 1095,446 
		1099,440 1104,435 1109,430 1116,426 1122,423 1130,420 1138,418 1148,418 1156,420 1162,424 1167,429 1170,436 1173,443 1176,450 
		1176,459 1172,466 1168,472 1163,477 1157,481 1151,484 1144,487 1135,488 1125,488 1115,488 	"/>
	<polygon fill="#00FF00" stroke="#800080" points="1154,915 1144,915 1136,913 1129,910 1124,905 1119,900 1116,893 1114,885 
		1115,876 1118,868 1121,862 1126,856 1131,852 1138,848 1146,846 1155,847 1162,850 1167,855 1171,861 1173,869 1174,878 1172,886 
		1170,893 1166,900 1163,907 1158,912 	"/>
	<polygon fill="#00FF00" stroke="#800080" points="1166,665 1157,664 1151,660 1145,656 1140,651 1135,646 1136,638 1140,632 
		1143,625 1147,619 1151,613 1155,607 1162,604 1171,605 1180,606 1186,610 1192,614 1196,620 1199,627 1201,635 1199,643 1195,648 
		1190,654 1185,658 1179,662 1171,664 	"/>
	<polygon fill="#00FF00" stroke="#800080" points="1204,0 1209,5 1212,12 1214,20 1214,30 1212,38 1210,46 1207,53 1203,58 1197,62 
		1189,64 1181,66 1171,66 1164,63 1158,59 1154,53 1150,47 1147,40 1145,32 1142,25 1141,16 1141,8 1144,1 	"/>
	<polygon fill="#00FF00" stroke="#800080" points="1167,412 1158,411 1153,406 1148,401 1145,394 1143,386 1143,376 1144,367 
		1148,360 1153,355 1161,353 1170,352 1179,353 1188,354 1196,356 1200,362 1203,369 1202,378 1198,384 1194,390 1191,397 1186,402 
		1181,406 1174,410 	"/>
	<polygon fill="#00FF00" stroke="#800080" points="1195,1015 1185,1015 1176,1014 1169,1011 1163,1007 1159,1001 1155,995 1154,986 
		1155,977 1157,969 1161,962 1166,957 1172,954 1179,950 1187,948 1196,947 1205,948 1213,950 1220,953 1226,957 1230,963 1233,970 
		1235,978 1234,987 1231,994 1227,1000 1222,1005 1216,1008 1209,1012 1202,1014 	"/>
	<polygon fill="#00FF00" stroke="#800080" points="1217,845 1207,845 1198,844 1191,841 1187,835 1183,829 1181,821 1180,812 
		1182,804 1185,797 1190,791 1197,788 1205,788 1214,789 1221,792 1226,797 1230,803 1234,809 1235,818 1234,827 1231,834 1227,839 
		1221,844 	"/>
	<polygon fill="#00FF00" stroke="#800080" points="1268,766 1258,766 1250,764 1243,761 1238,756 1236,748 1234,740 1233,731 
		1233,721 1236,713 1239,707 1243,701 1249,696 1255,692 1262,689 1270,689 1279,690 1285,694 1291,698 1296,703 1299,710 1299,720 
		1300,729 1299,737 1296,745 1293,751 1288,757 1282,761 1275,764 	"/>
	<polygon fill="#00FF00" stroke="#800080" points="1273,274 1265,272 1256,271 1248,269 1243,264 1241,256 1242,247 1241,238 
		1242,229 1247,223 1252,219 1259,215 1268,214 1276,212 1284,210 1291,213 1297,217 1302,222 1306,228 1306,238 1305,247 1302,253 
		1298,260 1293,265 1288,270 1281,272 	"/>
	<polygon fill="#00FF00" stroke="#800080" points="1308,117 1298,117 1290,115 1283,112 1276,109 1271,104 1268,97 1267,88 1265,80 
		1267,72 1270,65 1274,59 1279,54 1285,49 1292,47 1301,47 1307,51 1313,55 1317,61 1320,68 1322,76 1324,84 1326,92 1325,101 
		1322,108 1317,113 1310,116 	"/>
	<polygon fill="#00FF00" stroke="#800080" points="1281,982 1271,982 1266,977 1265,968 1266,959 1266,951 1268,943 1272,937 
		1277,932 1284,928 1291,925 1301,925 1310,926 1316,930 1321,935 1327,939 1332,944 1334,952 1332,960 1328,965 1322,969 1315,972 
		1306,973 1299,976 1291,978 1283,981 	"/>
	<polygon fill="#00FF00" stroke="#800080" points="1319,458 1309,458 1301,458 1293,456 1288,451 1282,447 1276,443 1277,436 
		1281,430 1284,423 1285,414 1288,407 1293,402 1299,398 1309,397 1318,398 1325,401 1329,407 1334,412 1340,416 1344,422 1345,431 
		1342,438 1338,444 1335,451 1330,456 1322,457 	"/>
	<polygon fill="#00FF00" stroke="#800080" points="1338,546 1328,546 1320,544 1314,540 1308,536 1306,528 1304,520 1304,510 
		1308,504 1313,499 1317,492 1319,485 1323,478 1331,476 1338,479 1343,484 1347,490 1350,497 1353,504 1356,511 1357,520 1357,528 
		1354,535 1350,540 1343,544 	"/>
	<polygon fill="#00FF00" stroke="#800080" points="1359,659 1352,660 1345,657 1338,654 1333,649 1329,643 1325,637 1323,629 
		1322,620 1323,611 1326,604 1330,598 1334,592 1340,588 1348,585 1356,583 	"/>
	<polygon fill="#00FF00" stroke="#800080" points="1360,844.805 1351,845 1344,842 1338,838 1335,831 1332,824 1334,816 1338,810 
		1344.336,804.408 1349.177,801.57 1360,800.401 	"/>
	<polygon fill="#00FF00" stroke="#800080" points="1360,799.733 1354.018,801.069 1342.833,802.404 1337.658,802.404 
		1331.815,798.398 1330.48,789.384 1334.653,779.868 1340.496,773.358 1346.172,770.353 1353,769.164 1360,772.164 	"/>
	<polygon fill="#00FF00" stroke="#800080" points="1360,205.873 1352,205 1347,200 1343,194 1341,186 1339,178 1338,169 1339,160 
		1342,153 1347,147 1360,140.956 	"/>
	<polygon fill="#00FF00" stroke="#800080" points="85,579 76,578 70,574 65,569 62,562 56,558 50,554 44,550 39,545 40,538 40,530 
		38,522 37,513 39,505 43,498 47,493 52,488 58,484 65,481 73,478 81,476 89,476 99,476 107,475 116,475 122,479 128,483 132,489 
		135,496 138,503 140,511 139,520 139,529 136,536 132,542 128,549 128,559 126,566 122,572 116,576 108,578 98,578 91,576 	"/>
	<polygon fill="#00FF00" stroke="#800080" points="326,207 317,206 308,205 299,204 294,199 288,195 283,190 278,185 276,177 
		274,169 274,161 276,152 278,145 281,138 284,130 288,124 293,119 298,114 303,109 311,107 320,106 327,109 333,113 340,116 
		344,122 348,128 352,134 355,141 357,149 357,159 357,169 357,179 354,186 350,192 346,198 340,201 333,204 	"/>
</g>
</svg>
