<?xml version="1.0" encoding="utf-8"?>
<!-- Generator: Adobe Illustrator 16.0.1, SVG Export Plug-In . SVG Version: 6.00 Build 0)  -->
<!DOCTYPE svg PUBLIC "-//W3C//DTD SVG 1.1//EN" "http://www.w3.org/Graphics/SVG/1.1/DTD/svg11.dtd">
<svg version="1.1" id="Layer_1" xmlns="http://www.w3.org/2000/svg" xmlns:xlink="http://www.w3.org/1999/xlink" x="0px" y="0px"
	 width="1280px" height="1024px" viewBox="0 0 1280 1024" enable-background="new 0 0 1280 1024" xml:space="preserve">
<g id="Raw_image">
	
		<image overflow="visible" enable-background="new    " width="1280" height="1024" xlink:href="normal_7.jpg"  transform="matrix(1 0 0 1 2.441406e-004 -2.441406e-004)">
	</image>
</g>
<g id="Not_annotated" display="none" opacity="0.5">
	<polygon display="inline" fill="#0000FF" stroke="#800080" points="674,0 670,5 660,7 649,8 638,10 630,13 619,15 610,15 599,14 
		589,12 580,9 570,7 562,3 	"/>
</g>
<g id="Clumps" display="none" opacity="0.5">
	<polygon display="inline" fill="#FF0000" stroke="#800080" points="185,1001 178,996 173,989 168,982 163,975 156,970 147,967 
		142,960 145,954 153,952 156,944 147,941 140,936 130,936 120,934 112,930 109,921 103,915 101,905 103,894 107,886 114,881 
		119,875 122,866 126,857 128,848 126,838 118,834 109,831 100,828 93,823 87,817 78,818 69,815 63,809 58,802 54,794 53,783 
		54,772 56,762 61,754 68,749 76,745 82,740 89,734 99,732 107,728 116,727 125,730 134,727 144,725 154,727 163,726 172,724 
		183,724 193,724 205,724 214,727 223,730 231,734 236,741 238,751 238,761 237,772 237,784 238,795 238,807 240,817 239,826 
		242,835 247,842 253,848 258,855 265,860 270,867 273,876 272,887 269,896 266,905 261,912 253,916 246,921 239,925 231,929 
		222,932 213,936 205,939 197,943 187,945 179,949 170,950 173,958 179,964 185,970 192,975 197,982 195,991 190,998 	"/>
	<polygon display="inline" fill="#FF0000" stroke="#800080" points="464,1023 471,1019 479,1015 489,1013 498,1010 505,1005 
		515,1003 524,1000 535,1001 544,1004 555,1003 564,1004 574,1006 583,1005 581,996 578,987 577,976 574,967 572,957 570,947 
		564,950 559,956 552,961 544,965 535,968 524,969 514,969 505,966 498,961 490,957 482,961 473,964 462,965 452,963 443,960 
		435,956 427,952 418,949 412,943 404,939 396,935 388,931 381,926 374,921 368,915 363,908 357,902 354,893 352,883 353,872 
		354,861 359,853 361,844 365,836 370,829 370,819 373,809 369,802 359,804 349,802 340,799 332,795 323,792 317,786 310,781 
		303,776 297,770 294,761 290,753 287,744 289,734 290,723 294,715 298,706 300,696 304,689 310,682 311,672 315,664 317,656 
		319,646 318,637 311,638 300,637 289,636 280,633 272,629 265,624 256,621 251,614 244,609 236,605 229,600 224,593 221,584 
		218,575 212,569 211,558 207,550 210,541 211,532 209,522 210,511 212,501 215,492 217,482 219,472 221,462 224,453 229,446 
		232,437 237,429 242,422 249,417 255,412 250,405 243,400 237,394 233,386 228,379 228,368 225,360 225,350 224,339 225,328 
		226,317 230,308 234,301 240,294 245,287 250,280 255,274 260,267 267,262 275,257 282,253 286,245 294,246 297,240 298,234 
		304,228 311,224 316,217 324,212 330,207 337,202 345,198 352,192 361,190 370,186 381,185 392,186 402,188 411,187 420,190 
		428,194 436,198 444,202 449,209 455,215 461,221 465,229 468,238 472,246 472,258 473,269 472,280 471,291 468,300 465,309 
		462,317 458,326 455,334 451,343 446,350 441,357 435,363 430,369 424,375 418,381 412,387 405,393 399,398 390,402 383,407 
		389,413 395,419 403,423 408,430 413,437 420,442 424,450 430,456 433,465 438,472 442,480 444,490 445,501 445,513 443,523 
		440,532 437,541 433,549 429,556 423,562 418,569 416,576 424,580 432,584 439,589 446,594 454,598 464,600 473,603 480,608 
		486,614 491,621 495,629 499,637 502,646 504,656 504,668 502,678 501,689 498,697 494,705 489,713 484,720 479,727 474,733 
		468,739 461,745 455,751 449,756 442,761 436,767 429,772 422,778 414,781 408,788 419,789 428,786 436,782 444,779 455,777 
		466,776 475,775 485,773 496,772 506,774 514,778 523,781 533,783 541,787 548,792 554,798 558,806 563,813 567,821 568,830 
		573,837 575,847 579,855 582,864 583,875 584,886 583,897 584,906 593,904 601,899 609,895 618,892 626,888 635,885 645,883 
		657,883 667,885 678,884 689,885 700,886 710,888 719,891 727,895 734,900 741,905 747,911 751,919 754,928 757,937 761,945 
		762,956 763,967 762,978 763,989 763,1001 762,1012 759,1020 	"/>
	<polygon display="inline" fill="#FF0000" stroke="#800080" points="656,777 645,776 634,775 624,773 614,771 606,767 599,762 
		593,756 587,750 582,743 578,735 576,725 576,713 574,703 575,692 578,683 582,674 576,669 565,670 556,667 547,664 537,662 
		530,657 524,651 516,647 511,640 508,631 506,621 507,610 506,599 504,589 502,579 501,568 501,558 504,548 507,540 509,530 
		514,522 518,515 524,508 529,502 534,494 539,488 546,482 552,477 559,472 567,468 577,465 586,462 597,461 607,459 619,459 
		629,459 639,461 646,466 654,470 661,475 666,482 671,489 675,497 677,507 679,517 680,528 681,538 680,549 678,559 674,567 
		670,575 665,583 662,591 658,599 654,607 649,615 648,622 658,621 670,620 682,620 693,619 704,620 714,622 724,624 732,628 
		740,632 746,638 750,646 754,654 760,660 763,669 763,679 766,688 769,697 768,708 765,716 760,724 755,730 749,737 742,742 
		736,747 729,752 721,756 713,760 705,764 695,767 687,770 677,772 668,775 657,776 	"/>
	<polygon display="inline" fill="#FF0000" stroke="#800080" points="935,907 925,905 917,907 908,904 901,899 895,893 889,887 
		885,879 881,871 878,862 875,853 876,842 879,833 883,825 886,816 892,810 898,804 905,798 911,793 919,789 924,782 929,775 
		934,768 938,759 942,751 947,745 953,738 957,731 961,722 966,715 959,713 949,715 940,719 932,722 922,724 911,725 900,726 
		888,726 878,726 869,723 859,723 851,719 844,714 836,710 830,704 825,697 822,688 818,680 813,673 811,663 810,652 810,642 
		813,633 818,626 824,619 829,612 835,607 843,603 849,596 855,590 863,586 870,582 878,578 887,574 896,571 906,569 916,567 
		924,567 934,565 942,561 952,559 962,557 974,557 985,556 997,556 1005,560 1011,566 1019,566 1025,572 1031,578 1035,586 
		1038,595 1039,606 1037,616 1039,626 1036,635 1034,645 1032,655 1029,664 1026,673 1021,680 1016,686 1009,692 1003,697 996,703 
		988,706 986,711 997,712 1007,714 1012,721 1018,727 1024,733 1031,738 1038,743 1047,746 1054,751 1061,756 1066,763 1071,770 
		1072,780 1065,784 1070,791 1073,800 1071,809 1067,818 1063,826 1059,833 1054,840 1048,846 1043,853 1036,858 1029,864 1023,869 
		1015,873 1008,879 1002,884 995,889 987,893 977,895 968,898 959,901 950,904 940,906 	"/>
	<polygon display="inline" fill="#FF0000" stroke="#800080" points="1146,0 1144,8 1143,15 1150,10 1157,9 1162,16 1164,26 1163,37 
		1159,45 1154,52 1151,61 1146,68 1140,73 1131,76 1120,77 1111,74 1100,75 1088,75 1078,75 1067,74 1057,76 1052,82 1057,89 
		1059,99 1058,110 1060,120 1060,132 1063,141 1065,151 1063,161 1060,170 1060,182 1060,193 1056,201 1049,206 1042,211 1034,215 
		1024,218 1014,219 1007,214 999,219 991,223 983,226 971,226 963,222 957,216 947,218 937,216 929,212 921,214 912,211 903,208 
		899,200 892,195 883,194 876,189 870,183 865,176 859,170 855,162 854,151 853,140 853,130 852,119 855,110 860,102 864,95 870,89 
		878,84 887,82 893,76 899,69 904,63 911,57 917,51 927,49 936,52 946,52 954,49 962,45 973,43 982,44 984,39 975,36 973,28 969,20 
		967,10 971,1 	"/>
	<polygon display="inline" fill="#FF0000" stroke="#800080" points="1096,1023 1099,1016 1105,1009 1111,1003 1118,998 1125,993 
		1133,989 1140,984 1147,980 1154,975 1159,968 1153,962 1147,956 1142,949 1138,941 1133,934 1126,929 1121,922 1118,913 1117,902 
		1119,892 1122,882 1126,875 1130,867 1132,857 1137,849 1143,843 1149,837 1154,830 1159,823 1166,818 1173,814 1180,809 1187,804 
		1197,801 1207,799 1218,798 1228,800 1237,803 1247,805 1255,809 1262,814 1269,819 1276,824 	"/>
</g>
<g id="Single_nuclei" opacity="0.5">
	<polygon fill="#00FF00" stroke="#800080" points="1280,252.5 1272.5,252.5 1264.25,249.75 1256,245.75 1249.75,240.75 1244,234 
		1240,226 1238,216 1235,207 1229,201 1223,195 1219,187 1217,177 1218.5,166.335 1221,159 1226,151 1231,145 1237,138 1241,130 
		1244.75,120.75 1248.5,113.25 1254.75,107 1261,103 1269,98 1280,93.052 	"/>
	<polygon fill="#00FF00" stroke="#800080" points="0,373 10,375 20,377 27,382 33,388 38,395 42,403 41,414 49,418 56,423 59,432 
		62,441 66,449 69,458 71,468 72,479 73,488 77,496 79,506 77,515 75,526 73,535 71,545 68,555 66,565 64,574 60,582 55,590 49,595 
		44,603 42,612 37,620 32,626 25,631 17,635 0,640.107 	"/>
	<polygon fill="#00FF00" stroke="#800080" points="599.448,374.29 593,373 582,372 572,370 565,365 558,360 552,354 546,348 
		541,341 534,336 528,330 523,323 518,316 514,308 509,301 504,294 501,285 501,273 497,265 494,256 492,246 490,236 487,227 
		484,218 482,208 482,198 486,190 494,185 503,182 512,179 518,173 522,166 524,156 527,147 531,139 535,131 541,124 547,118 
		554,113 564,113 573,116 583,118 591.5,121.345 599,126 606.901,130.573 613,136 619,142 623.433,147.874 629,156 634,163 
		636.889,169.789 639,182 643,188 652,187 662,187 670,191 677,196 684,201 688,209 692,217 695,226 698,235 699,246 701,256 
		701,267 699,278 697,288 694,296 692,306 689,316 686,325 682,332 677,340 672,347 666.109,353.948 660,358 652,362 643,366 
		634,369 625,372 616,374 606.901,374.29 	"/>
	<polygon fill="#00FF00" stroke="#800080" points="711.082,495.65 704,495 694,493 686,489 678,485 672,479 667,472 663,464 
		657,458 653,450 650,441 648,431 647,420 645.509,408.794 646,399 649,389 653.562,381.76 658.739,375.432 664,369 670,362 
		676,357 683,352 688.65,344.658 696,340 704,336 714,334 724.6,334.017 734.091,332.004 743.869,329.991 754.833,328.834 
		767.167,329.001 780.833,330.334 793.667,332.668 803.5,335.168 813.5,338.834 825.667,342.668 837.333,347.001 843.667,351.668 
		847.333,356.334 849.708,363.928 850.571,369.105 850,376 848,386 844,393 838,400 833,406 827,413 822,420 817,427 811,433 
		805,439 799,444 790,448 782,452 776.945,458.261 771,465 764,470 758,475 750,479 743,485 736,490 728,493 718,495 	"/>
	<polygon fill="#00FF00" stroke="#800080" points="757,602 746,601 737.615,598.089 731,594 725,588 720,581 716,573 
		714.159,564.638 713,555 715,546 718,537 723,530 728,523 733,515 739,509 745,504 752,499 760,495 768,491 774,485 781,480 
		788,475 796,471 805,467 813,463 822,461 833,459 841,455 849,452 859,449 868,446 878,444 887,441 896,439 906,438 916,440 
		926,440 936,442 945,445 953,449 959,455 963,463 966,472 968,482 967,493 963,501 959,509 956,517 950,524 944,530 938,535 
		931,541 924,545 917,550 909,555 901,558 892,561 882,561 870,561 861,564 850,565 841,568 834,573 826,578 820,583 813,589 
		805,593 797,596 788,599 778,601 767,600 	"/>
	<polygon fill="#00FF00" stroke="#800080" points="790.444,1024 790.444,1012.219 791,1002 794,992 797,984 802,976 807,969 
		812,963 817,956 821,948 825,939 828,931 832,923 838,917 845,911 853,907 862,904 872,903 882.047,903.18 890,906 896,912 
		901,919 904.866,925.844 908,936 910,946 911,957 910,968 910,980 912,990 914,1000 917,1009 923.571,1024 	"/>
	<polygon fill="#00FF00" stroke="#800080" points="1068,400 1058,398 1051,394 1044,398 1034,399 1025,397 1018,392 1009,389 
		1000,386 990,384 980,384 971,381 965,375 960,368 954,362 948,356 943,349 937,343 933,335 930,326 928,316 930,306 932,296 
		935,287 939,279 945,272 954,269 963,266 966,258 973,252 980,247 989,244 1000,243 1010,242 1020,239 1029,236 1034,230 1041,225 
		1050,222 1058,217 1070,217 1079,218 1087,222 1092,229 1102,231 1110,235 1115,242 1119,250 1124,257 1126,267 1129,276 1128,287 
		1130,297 1131,308 1130,319 1128,329 1127,340 1125,349 1121,357 1116,364 1112,372 1106,378 1100,384 1092,388 1083,392 1076,397 
			"/>
	<polygon fill="#00FF00" stroke="#800080" points="1280,689.672 1268,691 1259,690 1250,687 1241,684 1232,681 1225,676 1219,670 
		1213,664 1206,659 1199,654 1194,647 1191,638 1188,629 1187,618 1189,607 1192,598 1196,590 1198,580 1201,571 1204,563 
		1209.25,555.449 1214.029,549.368 1221,544 1230,540 1237,535 1244,530 1252,526 1261,524 1270,520 1280,520 	"/>
	<polygon fill="#00FF00" stroke="#800080" points="1280,490.67 1270,491 1260.309,491.967 1252,491 1244,487 1236,483 
		1230.698,477.268 1225,470 1220,463 1216,455 1212,447 1209,438 1206,429 1203,420 1201.526,410.705 1203.687,400 1206,393 
		1208,383 1210,372 1211,361 1214,353 1220,346 1227,341 1235,337 1244,334 1254,332 1265,331 1280,331 	"/>
	<polygon fill="#00FF00" stroke="#800080" points="171.394,947.674 164,947 155,944 145,942 136,939 126,937 117,934 
		110.017,930.401 104,923 101,914 98,905 100,897 104,889 108,881 114.231,873.519 118.795,865.443 124.413,857.368 
		127.925,848.592 127.925,840.513 121.253,833.5 105,830 96,827 86,825 77,822 69,818 62,813 57.349,806.455 54.54,797.325 
		54.189,786.092 53.135,775.555 55.944,768 59.455,759.757 61.913,754.137 66,747 73,741 80,737 88,733 97.026,729.558 
		106.506,727.452 117,725 127,724 138,722 149,722 161,721 172,720 183,719 194,720 204,722 214,724 222,728 229,733 235,739 
		237,749 237,761 237,773 237,785 238,796 239,807 239,819 240.284,831.735 242.04,838.055 249.413,843.676 257,849 263,855 
		268,862 273,869 275,879 274,888 270,895 266,903 261,911 254,916 247,921 240,926 233,931 226,935 216,937 206,940 197,942 
		187,945 178,947 	"/>
	<polygon fill="#00FF00" stroke="#800080" points="308.164,633.83 299,636 289,634 279,632 271,628 264,623 257,618 251,612 
		243,608 236,603 229,598 224,591 221,582 218,573 213,566 211,556 209,547 212,539 212,529 210,519 212,509 214,499 217,490 
		219,480 221,470 223,460 227,451 231,444 234,435 239,428 245,422 252,417 259.463,412.104 271.086,409.746 280.834,408.832 
		292.167,407.165 303.26,406.377 314.21,406.209 323.138,406.04 334.256,406.04 346.216,405.366 357.839,406.377 370.641,407.165 
		381.254,408.735 389.845,413.283 396,420 403,425 408,432 414,438 420,444 424,452 429,459 433,467 438,474 441,483 443,493 
		444,504 444,516 441,524 438,534 435,543 431,551 425,557 420,564 416.834,571.163 411.5,575.496 406.164,580.76 399.5,584.163 
		391.834,588.496 385.164,593.496 378.5,597.163 368.5,603.163 360.5,608.496 352.25,613.496 345.834,618.496 339.164,622.163 
		331.164,628.496 323.5,631.83 315.5,630.496 	"/>
	<polygon fill="#00FF00" stroke="#800080" points="374.108,800.328 365.015,803 356,803 347,800 338,797 330,793 322,789 315,784 
		309,778 302,773 297,766 293,758 290,749 289,740 290,729 293,720 296.601,710.474 298.97,701.677 303.031,692.706 
		306.755,685.598 311,678 315,669 318,661 319,652 322.713,642.954 326.5,636 331.5,630.5 339,625 347.5,620 354.367,615 
		361.654,611.301 369.218,605.694 375.941,600.931 385.467,595.329 393.591,589.725 402.65,584.316 410.96,580.76 418.804,580.76 
		424.968,582.441 431,585 438,590 445,595 453,599 463,601 472,604 479,609 485,615 490,622 494,630 498,638 501,647 503,657 
		503,669 501,679 500,689 496,698 492,705 487,713 482,720 477,727 472,733 466,739 459,745 453,751 446,756 440,761 434,767 
		427,772 419.365,776.306 412,781 405.242,786.113 397.969,789.67 389,794.574 382.061,797.959 	"/>
	<polygon fill="#00FF00" stroke="#800080" points="538.295,966.26 528.628,967.369 521.02,968.636 510.25,968 503,964 
		492.25,960.25 484.25,961 473.75,964.5 457.782,964.357 450.654,961.98 442,960 434,956 426,952 418,948 410,944 403,940.5 
		394.75,935.25 386.75,929 379.75,924.25 373.25,919.25 368,914 362,907 358.25,901.5 355,893.75 352.25,884.25 352.25,874 
		354.5,862 357.75,854.25 360,846.25 362.5,837.5 365.75,829.75 368.75,821.75 370.75,814.5 374,807.5 379,802 386,798 394,793 
		402,789 409,785 417,781 425,776 433,772 441.75,769.5 453,768 464.311,768.5 476,768.5 486,768.25 497.25,769.5 506,771 515,774 
		523,778 532,781 540,785 548,789 554,795 560,801 567,806 572,813 574,823 576,833 578,843 580,853 581.719,861.516 
		582.195,870.857 582.988,879.9 583.618,889.726 582.988,898.76 581,908 577,916 574,925 571.418,932.989 568.566,941.23 
		565.238,948.362 561.115,953.754 553.985,959.603 547.487,963.407 	"/>
	<polygon fill="#00FF00" stroke="#800080" points="344.026,404.019 335.098,404.693 325.156,404.693 311.852,404.524 
		300.565,404.356 288.605,405.366 280.014,407.051 270.244,408.061 260.811,408.061 251.883,405.366 244.976,400.65 239.08,391.721 
		234.7,383.468 231.696,373.528 228.882,363.682 227.241,355.711 225.6,346.568 225.6,335.55 225.835,323.828 228.179,313.513 
		230.054,304.605 233.805,297.103 237.556,290.07 242.714,283.506 249.044,276.706 254.67,270.845 260.296,264.75 266.626,258.655 
		274.362,251.856 281.161,245.995 287.256,239.9 294.055,234.039 299.913,229.116 306.48,222.552 312.106,217.394 317.495,211.768 
		324.531,206.376 330.861,201.687 337.425,196.061 343.989,191.372 352.66,187.621 361.572,183.87 370.011,181.76 380.795,179.416 
		392.517,179.651 404.004,181.526 413.382,184.574 421.352,187.621 429.089,191.841 436.356,197.233 443.155,201.687 
		450.188,206.845 454.406,211.299 459.327,217.864 464.488,224.193 469.177,233.101 472.224,241.307 474.569,250.684 
		475.506,261.234 477,274 477,283.739 475.034,295.93 472,305 468,313 464,321 461,329 457,337 453,346 449,354 444,360.868 
		439,367 432,373 426,378 419,384 413,389 405.343,393.238 399.5,395.499 391.576,399.081 384.74,402.731 379.858,404.004 
		373.168,405.366 364.072,404.693 354.302,404.693 	"/>
	<polygon fill="#00FF00" stroke="#800080" points="760.257,1016.662 759.064,1019.987 756.529,1024 600.897,1024 599.595,1020.61 
		597.728,1018.084 593.765,1015.072 588,1010.159 583.781,1004.299 580.77,997.639 577,990 575.537,981.791 572.687,972.76 
		570.31,962.301 569.834,954.69 570.943,943.927 572.366,934.891 574.114,926.638 577.916,917.133 583.305,909.683 588,905.721 
		594.717,903 601.69,898.273 609.452,893.36 619.598,889.556 629.58,886.228 637.982,883.692 646.224,882.741 657.318,882.107 
		667.615,883.058 679.188,883.692 689.807,885.911 701.531,887.341 709.3,888.447 717.817,890.908 724.99,893.677 732,898 
		738.303,903 744.642,909.361 749.238,914.75 754.468,923.153 758.588,931.866 762,940 764,950 765,961 766,972 766,982.901 
		765,995 764,1006 762.234,1011.9 	"/>
	<polygon fill="#00FF00" stroke="#800080" points="572,669 566,669 557,666 547,664 538,661 530,657 522,653 515,648 
		509.631,642.302 505,634 503,624 501,614 500,603 500,591 500,579 499,568 501,558 502,547 504,537 508,529 513,521 517,514 
		521,506 527,499 532,493 538,486 543,480 549,474 557,469 565,466 574,462 583,459 591,456 602,456 614,456 625,457 634,460 
		642,464 650,468 659,471 667,475 671,483 676,490 680,498 682,508 681,519 681,531 680,542 678,552 675,560 671,569 668,578 
		665,587 660,594 655,601 651,608 646,616 641,622 634,628 628,633 621,638 614,644 608,649 601,655 595,660 588,665 579,668 	"/>
	<polygon fill="#00FF00" stroke="#800080" points="661.111,778.788 651,779 641,777 631,775 621,773 611,771 603,767 
		597.287,761.102 592.291,755.719 586.14,749.568 581.526,741.881 579.988,733.805 576.528,724 575.759,714.197 575.375,700.741 
		577.681,691.883 581.142,681.517 583.618,674.597 588.062,669 592,662 599,656 606,651 612,646 619,640 625,635 632,630 
		640,626.154 647.655,622.309 658.419,617.696 667,616 678,615 689,616 700,617 711,618 721,620 729,624 737,628 744,633 749,640 
		753,648 758,655 761,664 763,674 765,684 768,693 767.99,702.279 767,712 764,721 759,727 752,733 745,738 739,743 731,748 
		723,752 716,756 708,760 700,765 693,769 685,773 676,776 670,778 	"/>
	<polygon fill="#00FF00" stroke="#800080" points="903,724 892.209,724 880,723 869,722 859.149,720.545 850,717 843.238,713.469 
		836.697,708.873 829.448,702.51 823.08,695.614 818,689 814,681 811.769,672.821 809.648,662.744 809.294,651.429 809.823,641.706 
		812.653,633.574 816.896,626.506 821.316,619.784 826.443,612.536 832.277,606.882 838.641,600.341 845,595 852,590 859,586 
		867,581 874,577 882,572 890,568 900,566 910,564 920,563 931,561 941,559 952,558 962,556 972,555 982.369,553.844 
		993.156,554.018 1001.466,555.432 1009,559 1016,564 1023,569 1029,575 1033,583 1037.177,590.26 1040,600 1040,611 1039,622 
		1037.177,632.509 1034,641 1032.227,650.718 1029.573,659.908 1026,670 1022.151,678.471 1017,685 1010,690 1004,695 
		997.046,700.034 988.737,704.807 980.605,707.812 970.528,710.995 961.156,712.939 950.904,715.238 941.531,717.182 932.34,719.48 
		922.615,721.779 912.364,724 	"/>
	<polygon fill="#00FF00" stroke="#800080" points="925,906 915,904 906,901 898,897 892,891 886,885 882,877 879,868 876,859 
		873,850 876,840 878,831 881,822 885,813 891,807 897,801 902,795 908,789 914,783 920,776 925,769 930,762 935,756 940,749 
		946,742 951,736 956.561,728.677 960.804,721.956 967.698,715.768 974.5,711.175 983.076,708.873 992.625,709.052 
		1000.578,710.641 1007,713 1014,718 1021,723 1028,728 1035,733 1042,738 1049,743 1056,748 1064,752 1069,759 1072,768 1075,777 
		1076,786 1075,797 1074,808 1071,817 1066,824 1061,831 1056,838 1052,845 1047,852 1040,858 1033,863 1026,868 1019,872 1012,877 
		1005,882 997,887 990,892 983,896 973,898 962,900 952,901 942,903 931,905 	"/>
	<polygon fill="#00FF00" stroke="#800080" points="969.982,226.773 962,226 954,222 945,219 936,216 926,214 911.823,212.653 
		903.754,208.955 898.036,201.895 891.989,196.853 884.929,194.163 876,192 869,187 863,181 858,174 854,166 852,156 
		852.656,143.736 853.324,132.978 854.672,122.557 858.031,113 860.724,105.075 864.421,97.344 867.781,92.302 873,86 879,81 
		886.61,76.164 893.33,70.785 899.721,63.725 904,57 911,53 920,49 928,46 940,45 948.803,45.572 957.5,45.236 966.953,43.219 
		975.361,45 982.757,48.933 993.178,55.657 1000.907,59.019 1009.988,62.717 1018.392,66.751 1026.459,69.441 1035.534,72.466 
		1044.614,76.164 1053.019,81.879 1057.725,87.594 1061.423,94 1064,103 1065,114 1065,126 1066,137 1066,149 1063.777,160.545 
		1061.087,172.648 1061.423,184.078 1059.07,194.499 1055.032,203.24 1049.656,208.955 1044.423,214.288 1033.52,219.713 
		1023.771,220.385 1015.031,217 1005.95,217 997,223 987,225 977,227 	"/>
	<polygon fill="#00FF00" stroke="#800080" points="1280,927.725 1274.75,935 1269.75,941.5 1264.5,948.25 1258.5,955 1251.5,960.75 
		1243.5,964.25 1234.5,967.75 1224,969 1214.522,970.589 1203,972 1191.5,973.25 1183.5,972 1177.25,970.75 1172.75,968.75 
		1169.593,966.38 1164,965 1155,962 1149,956 1145,948 1142,939 1136.5,933.838 1128.166,928.838 1122.166,920.504 1119,911.838 
		1119,902 1120,891 1124,883 1128,875 1133,867 1135.11,858.516 1139.994,850.207 1146.352,844.589 1151.729,837.742 
		1156.369,831.387 1162.727,825.034 1169,820 1177,815 1184,810 1191,805 1198.161,801.816 1208.673,799.372 1220,798 1230,800 
		1239,803 1249.488,806.704 1256.832,809.838 1263.418,814.036 1270,820 1276,826 1280,829.838 	"/>
	<polygon fill="#00FF00" stroke="#800080" points="1096.5,1024 1102,1018.25 1106.75,1013.75 1112,1008.75 1117.5,1004.75 
		1123.25,1000.75 1129.25,996.75 1135.25,993.25 1141.5,989 1147,985 1152.75,982 1160,979.25 1166.666,977.334 1171,974.834 
		1175.334,973.25 1180.988,972.589 1186.75,973.25 1191.607,974.281 1195.711,973.657 1199.5,973.25 1205.438,972.497 
		1209.518,972.229 1214.094,971.693 1218.645,970.802 1223.197,970.091 1229.264,969.195 1234.082,968.75 1238.099,967.592 
		1242.293,965.629 1246.219,964.019 1249.878,962.68 1252.75,962 1256.392,960.182 1260.25,960.75 1264,962.75 1268,967 1271,971.5 
		1273.75,977 1275.25,982.5 1275.25,988.5 1274.596,995.073 1273.25,1001.5 1271.473,1007.838 1269.5,1013 1266.75,1019.25 
		1265.75,1024 	"/>
	<polygon fill="#00FF00" stroke="#800080" points="467.935,1024 471.861,1020.565 476.893,1017.63 482.345,1014.483 
		488.636,1013.225 493.879,1011.968 499.54,1009.451 503.945,1006.934 510.236,1004.629 515.898,1003.16 521.979,1001.901 
		528.48,1001.901 534.351,1001.901 540.223,1001.901 544.837,1003.789 549.868,1004.839 555.74,1004 561.613,1003.789 
		567.484,1005.048 572.517,1006.514 578.179,1008.402 582.162,1009.87 585.309,1011.549 589.712,1014.903 594.744,1017.421 
		597.471,1020.565 599.149,1024 	"/>
	<polygon fill="#00FF00" stroke="#800080" points="973.68,0 969.982,5.903 969.982,12.963 969.982,21.704 971.83,28.092 
		971.83,35.154 973.683,39.935 978.053,43.895 984.441,47.255 990.828,52.297 997.891,54.986 1003.942,58.348 1009.993,61.036 
		1016.72,64.062 1024.785,66.415 1032.854,69.104 1038.905,72.128 1046.009,73.475 1055.009,74.82 1062.777,74.82 1071.517,74.82 
		1080.257,74.82 1088.323,77.173 1096.055,77.173 1104.12,77.173 1111.853,77.173 1119.248,79.862 1128.325,79.862 1136.394,76.5 
		1142.781,72.13 1148.832,65.742 1153.539,59.018 1153.539,52.63 1153.539,48.26 1158.245,44.226 1163.288,39.997 1164.972,34.476 
		1164.972,28.087 1164.972,22.372 1161.947,17.665 1159.259,12.623 1154.889,8.927 1151.191,5.565 1150.174,0 	"/>
	<polygon fill="#00FF00" stroke="#800080" points="742.432,324.813 743.294,318.198 745.595,311.871 748.471,306.119 
		751.922,300.942 755.374,296.052 759.688,290.301 764.002,285.987 768.891,282.248 774.643,279.084 782.121,276.208 
		788.448,274.195 794.776,271.894 800.816,269.881 806.568,268.155 812.895,266.717 819.797,264.991 826.699,263.553 
		833.89,262.691 840.792,262.691 847.407,263.553 852.871,266.142 857.761,269.881 862.363,274.482 867.167,281.166 
		869.265,285.987 871.5,292.5 872.716,299.217 873.579,305.544 873.579,312.158 872.141,319.061 870.415,325.676 867.539,331.716 
		864.376,336.605 860,340.5 854.885,344.946 850.5,348.666 845.667,349.168 839.167,346.334 831,342.834 821.667,339.834 
		811.333,336.334 801.167,332.668 790.333,330.334 781.333,329.001 772,327.834 761.833,327.001 753.667,327.334 746.833,327.001 	
		"/>
</g>
</svg>
