<?xml version="1.0" encoding="utf-8"?>
<!-- Generator: Adobe Illustrator 16.0.1, SVG Export Plug-In . SVG Version: 6.00 Build 0)  -->
<!DOCTYPE svg PUBLIC "-//W3C//DTD SVG 1.1//EN" "http://www.w3.org/Graphics/SVG/1.1/DTD/svg11.dtd">
<svg version="1.1" id="Layer_1" xmlns="http://www.w3.org/2000/svg" xmlns:xlink="http://www.w3.org/1999/xlink" x="0px" y="0px"
	 width="1280px" height="1024px" viewBox="0 0 1280 1024" enable-background="new 0 0 1280 1024" xml:space="preserve">
<g id="Raw_image">
	
		<image overflow="visible" enable-background="new    " width="1280" height="1024" xlink:href="normal_17.jpg"  transform="matrix(1 0 0 1 2.441406e-004 -2.441406e-004)">
	</image>
</g>
<g id="Not_annotated" opacity="0.5">
	<path fill="#0000FF" stroke="#800080" d="M0,1"/>
	<polygon fill="#0000FF" stroke="#800080" points="348,225 338,223 329,220 319,218 315,213 325,211 336,212 345,213 350,220 	"/>
	<polygon fill="#0000FF" stroke="#800080" points="376,250 368,246 374,242 370,234 359,235 356,227 364,224 374,223 381,228 
		378,235 382,243 378,248 	"/>
	<polygon fill="#0000FF" stroke="#800080" points="1279,1012 1275,1006 1278,998 	"/>
	<polygon fill="#0000FF" stroke="#800080" points="402,346 393,343 388,336 390,328 394,320 392,312 388,304 381,307 378,315 
		380,325 377,331 370,337 365,331 361,323 366,316 371,309 369,301 366,294 371,290 373,300 383,300 389,295 394,297 391,304 
		400,301 404,309 410,315 416,310 419,301 416,292 409,287 410,278 406,270 399,273 395,267 397,259 397,249 400,242 406,235 
		412,229 421,227 432,225 444,225 455,226 465,228 476,229 485,232 493,236 502,239 512,241 520,245 527,250 532,257 537,264 
		536,272 531,280 527,287 520,292 513,297 506,302 498,307 491,312 482,315 474,319 466,323 458,326 449,328 442,332 433,336 
		424,338 414,339 406,343 	"/>
	<polygon fill="#0000FF" stroke="#800080" points="0,767 8,767 18,769 27,772 35,776 42,781 51,784 59,788 67,792 76,793 83,798 
		88,805 91,814 91,824 96,829 99,838 97,846 91,851 89,858 91,866 87,873 80,879 75,885 75,892 75,899 70,907 65,914 58,918 50,923 
		43,928 35,929 28,924 21,919 12,916 3,920 0,928 	"/>
</g>
<g id="Clumps" opacity="0.5">
</g>
<g id="Single_nuclei" opacity="0.5">
	<polygon fill="#00FF00" stroke="#800080" points="186.078,1024 185,1013 187,1003 191,994 196,988 204,983 212,979 221,976 
		232,977 242,979 250,983 257,988 263,994 269,1000 275,1006 278,1015 278,1024 	"/>
	<polygon fill="#00FF00" stroke="#800080" points="1280,928.608 1270.447,929.385 1262.36,926.897 1255,922 1248,917 
		1241.829,909.946 1237,904 1232,897 1229,888 1225,880 1224,869 1224,859 1226,848 1229,839 1232,830 1236,823 1241,815 1247,809 
		1254,805 1264,802 1280,801 	"/>
	<polygon fill="#00FF00" stroke="#800080" points="92,669 81,668 71,666 61,664 53,660 46,655 40,649 36,641 32,633 28,625 26,615 
		25,604 27,593 29,584 34,576 39,570 46,565 55,561 64,558 75,557 85,559 94,562 104,564 113,567 120,572 127,577 134,582 140,588 
		145,595 147,605 148,616 145,625 143,635 139,642 133,649 127,655 120,660 112,663 103,667 93,668 	"/>
	<polygon fill="#00FF00" stroke="#800080" points="170,277 158,277 148,275 140,271 132,267 125,262 118,257 112,251 106,245 
		101,238 96,231 92,223 89,214 89,202 89,192 92,182 96,175 101,168 107,161 114,156 122,152 132,150 142,150 152,152 161,155 
		168,160 175,165 180,172 186,178 192,184 199,189 204,196 208,204 210,214 210,224 209,235 206,244 202,252 198,259 192,265 
		185,270 177,274 	"/>
	<polygon fill="#00FF00" stroke="#800080" points="150,970 139,969 131,965 124,960 118,954 112,948 106,942 100,936 97,927 95,917 
		96,905 98,896 102,887 107,880 113,874 120,869 129,866 139,864 150,865 161,866 170,869 178,873 184,879 189,886 191,896 192,907 
		192,919 190,929 188,939 185,948 181,955 174,960 166,964 158,968 	"/>
	<polygon fill="#00FF00" stroke="#800080" points="169,828 157,828 146,827 137,824 129,820 122,815 116,809 111,802 106,795 
		103,786 101,776 100,765 100,753 103,744 107,735 111,728 117,721 123,715 130,710 140,708 151,709 159,713 166,718 174,722 
		180,728 186,734 191,741 196,748 200,756 203,765 205,775 205,787 202,796 199,804 193,811 187,817 181,822 173,827 	"/>
	<polygon fill="#00FF00" stroke="#800080" points="219.809,414.651 210,417 199.754,415.208 190,409 183,404 177,398 172,391 
		167,384 163,376 159,368 156,359 153,350 151.843,341.392 153,332 156,322 161,315 168,311 179,310 190,308 201,309 211,311 
		218,316 225,321 231,327 238,332 243,339 248,346 252,354 255,363 257,373 257,385 255,395 251,402 246,409 239,414 
		228.166,415.208 	"/>
	<polygon fill="#00FF00" stroke="#800080" points="309,333 298,332 288,330 279,327 271,323 263,319 255,315 249,309 244,302 
		241,293 238,284 236,274 235.408,264.232 237,255 242.404,246.122 249,242 255,237 264,233 271,228 279,224 289,222 301.701,223 
		310.615,225 318.415,227.464 324.545,231.642 329.837,236.5 336.523,241.391 342.37,246.127 347.108,253.09 350,262.004 
		352.4,268.689 353.514,279.274 354.071,289.58 352.4,297.937 350,305.458 346,312 340,318 333,323 325,328 317,331 	"/>
	<polygon fill="#00FF00" stroke="#800080" points="327,940 315,940 303,940 293,938 285,934 278,929 270,925 265,918 262,909 
		260,899 261,888 263,878 267,870 271,862 277,855 284,850 291,845 299,841 307,838 317,835 329,835 340,836 350,838 356,844 
		362,850 367,857 371,865 373,875 374,886 371,895 368,904 364,912 358,918 352,923 346,929 339,934 331,938 	"/>
	<polygon fill="#00FF00" stroke="#800080" points="649,272 637,272 626,271 617,268 609,264 602,259 595,254 590,247 586,239 
		584,229 583,218 584,207 586,197 587,186 590,176 592,167 596,158 603,153 609,148 617,143 626,140 636,138 647,137 656,140 
		665,143 672,148 678,154 683,161 688,168 691,177 694,186 696,196 696,208 695,219 693,228 689,236 684,243 679,250 673,256 
		667,262 659,267 652,271 	"/>
	<polygon fill="#00FF00" stroke="#800080" points="735,0 738,9 735,18 732,27 728,35 725,43 721,51 716,59 711,65 705,72 698,76 
		689,80 681,84 671,85 662,88 651,87 641,85 633,81 625,77 619,71 615,63 611,55 608,46 605,37 604,26 604,14 606,4 	"/>
	<polygon fill="#00FF00" stroke="#800080" points="722,377 710,377 701,374 692,371 686,365 678,361 671,356 663,352 656,347 
		651,340 647,332 648,320 651,312 659,308 666,302 673,298 682,295 689,290 698,286 708,285 719,285 728,288 736,292 741,299 
		747,305 752,312 754,322 753,333 753,344 749,353 744,360 738,366 730,370 724,376 	"/>
	<polygon fill="#00FF00" stroke="#800080" points="789,480 779,478 771,474 765,468 759,462 754,455 749,448 745,440 741,432 
		742,421 742,409 740,399 742,389 747,382 752,375 759,370 767,365 777,363 786,366 793,371 802,374 810,378 817,383 823,389 
		829,395 832,403 829,413 829,423 828,434 827,444 824,454 818,459 813,467 808,473 800,477 790,479 	"/>
	<polygon fill="#00FF00" stroke="#800080" points="811,336 802,333 794,329 785,326 778,321 772,315 768,307 766,297 766,285 
		764,275 764,263 767,253 768,242 773,236 780,231 789,227 799,227 810,226 820,228 828,232 836,236 841,243 847,249 849,259 
		852,268 854,278 853,289 853,301 851,311 847,318 838,322 831,327 825,332 815,334 	"/>
	<polygon fill="#00FF00" stroke="#800080" points="832,213 822,211 815,206 808,201 803,194 798,187 791,182 786,175 785,164 
		787,153 789,144 792,134 796,126 801,119 807,114 815,109 823,105 832,102 840,98 848,95 857,92 866,89 876,86 885,83 893,79 
		903,79 911,83 918,88 925,93 930,100 934,108 935,119 933,128 929,137 925,144 918,149 911,155 906,162 901,168 897,177 892,184 
		887,190 880,195 872,199 864,203 856,207 847,210 837,212 	"/>
	<polygon fill="#00FF00" stroke="#800080" points="921,458 909,458 900,455 892,451 886,445 881,438 875,432 870,425 865,418 
		861,410 858,401 855,392 856,381 858,371 861,362 865,353 869,346 874,338 880,332 886,327 894,322 902,318 910,314 920,312 
		931,311 941,313 949,317 956,322 962,328 967,335 972,342 975,351 978,360 980,370 981,381 980,392 978,402 975,411 972,420 
		968,428 963,435 957,440 950,445 942,449 934,453 925,457 	"/>
	<polygon fill="#00FF00" stroke="#800080" points="965,292 953,292 943,290 933,290 926,285 923,276 918,269 917,258 914,249 
		914,237 916,226 920,218 924,211 931,206 940,202 950,200 962,200 970,204 978,208 986,212 992,218 998,224 1004,230 1009,237 
		1011,247 1011,259 1007,267 1003,274 998,281 989,284 981,288 971,290 	"/>
	<polygon fill="#00FF00" stroke="#800080" points="1047,590 1035,590 1025,588 1016,585 1009,580 1003,574 998,567 994,559 990,551 
		987,542 986,531 987,519 990,510 995,504 1001,497 1007,492 1014,486 1020,481 1029,477 1039,475 1048,478 1056,482 1065,485 
		1071,491 1076,498 1080,506 1085,513 1090,520 1092,530 1092,542 1088,550 1085,559 1082,567 1077,574 1070,579 1063,584 1055,588 
			"/>
	<polygon fill="#00FF00" stroke="#800080" points="1114,418 1103,417 1092,416 1085,411 1077,407 1068,404 1059,401 1050,398 
		1041,395 1035,389 1031,381 1029,371 1031,361 1034,352 1040,345 1050,343 1058,339 1065,335 1074,332 1086,331 1096,329 1107,328 
		1117,326 1127,326 1134,331 1139,338 1143,346 1146,355 1150,363 1152,373 1151,384 1147,391 1141,398 1136,405 1130,410 1122,415 
			"/>
	<polygon fill="#00FF00" stroke="#800080" points="1141,840 1129,840 1119,838 1111,834 1102,831 1094,827 1087,822 1080,817 
		1074,811 1069,804 1064,797 1060,789 1057,780 1055,770 1053,760 1054,748 1056,739 1060,731 1066,724 1072,719 1080,714 1089,711 
		1101,711 1112,712 1121,715 1132,716 1141,719 1149,723 1157,727 1164,732 1171,737 1178,742 1184,748 1189,755 1193,763 1198,770 
		1200,780 1202,790 1201,801 1198,809 1192,816 1186,821 1178,825 1170,830 1162,833 1154,837 1144,839 	"/>
	<polygon fill="#00FF00" stroke="#800080" points="1194,336 1182,336 1171,335 1163,331 1155,327 1148,322 1143,315 1139,307 
		1135,299 1133,289 1131,279 1133,268 1136,259 1141,252 1148,247 1156,243 1163,238 1174,237 1185,238 1193.934,238.541 
		1201.74,242.823 1207.281,246.852 1217,248 1225,252 1232,257 1237,264 1244,269 1250,275 1253,284 1253,294 1250,303 1245,309 
		1236,312 1228,316 1220,321 1214,326 1206,330 1198,334 	"/>
	<polygon fill="#00FF00" stroke="#800080" points="0,39.632 7.167,44 14,47.333 21.334,49.666 29.5,51.833 37.167,51.833 45.5,52 
		54,52.333 62.5,52 71.167,49.833 77.834,45.167 84.834,38.833 89,32.167 92.834,25.5 95.667,19.5 98.5,15.166 100.334,10 
		100.667,4.333 100.972,0.005 0,0 	"/>
	<polygon fill="#00FF00" stroke="#800080" points="473.988,1024 477.637,1020.886 482.808,1018.149 487.066,1015.868 
		491.323,1013.891 496.037,1012.827 500.297,1012.827 504.25,1012.827 508.965,1012.827 513.375,1013.588 518.393,1014.347 
		522.803,1015.564 527.365,1017.237 531.776,1019.671 535.273,1021.039 538.923,1024 	"/>
</g>
</svg>
