<?xml version="1.0" encoding="utf-8"?>
<!-- Generator: Adobe Illustrator 16.0.1, SVG Export Plug-In . SVG Version: 6.00 Build 0)  -->
<!DOCTYPE svg PUBLIC "-//W3C//DTD SVG 1.1//EN" "http://www.w3.org/Graphics/SVG/1.1/DTD/svg11.dtd">
<svg version="1.1" id="Layer_1" xmlns="http://www.w3.org/2000/svg" xmlns:xlink="http://www.w3.org/1999/xlink" x="0px" y="0px"
	 width="1280px" height="1024px" viewBox="0 0 1280 1024" enable-background="new 0 0 1280 1024" xml:space="preserve">
<g id="Raw_image">
	
		<image overflow="visible" enable-background="new    " width="1280" height="1024" xlink:href="normal_12.jpg"  transform="matrix(1 0 0 1 2.441406e-004 -2.441406e-004)">
	</image>
</g>
<g id="Not_annotated" display="none" opacity="0.5">
	<polygon display="inline" fill="#0000FF" stroke="#800080" points="208,740 197,739 188,736 183,729 183,717 181,707 180,696 
		176,688 171,681 166,674 160,668 154,662 150,654 141,651 134,646 126,642 123,633 131,632 139,636 146,641 154,645 160,651 
		169,652 176,648 177,639 183,633 188,625 196,622 203,626 206,633 199,638 193,644 190,651 195,658 201,664 201,674 203,684 
		209,690 218,693 228,691 229,698 227,702 234,707 242,709 250,705 256,699 263,704 269,710 265,718 263,726 257,731 247,733 
		236,732 228,737 219,737 210,739 	"/>
	<polygon display="inline" fill="#0000FF" stroke="#800080" points="292,728 283,725 279,717 277,707 275,697 268,694 260,690 
		257,681 252,674 254,664 250,656 246,648 240,642 231,639 222,643 213,641 214,632 221,626 223,619 211,619 215,612 222,607 
		230,604 241,602 252,601 262,599 273,598 282,595 293,594 303,592 312,595 316,603 321,610 327,616 331,624 336,631 341,638 
		345,646 349,654 355,660 363,664 372,667 381,666 388,662 394,665 392,675 388,682 383,675 375,677 365,677 355,677 348,683 
		347,694 352,701 359,696 362,688 369,690 376,694 384,689 389,696 388,705 380,704 371,701 363,705 358,712 351,717 340,716 
		332,714 323,717 316,712 309,715 298,716 300,722 300,724 	"/>
	<polygon display="inline" fill="#0000FF" stroke="#800080" points="671,330 665,324 667,316 672,308 680,312 683,320 675,325 	"/>
	<polygon display="inline" fill="#0000FF" stroke="#800080" points="807,499 803,491 801,481 798,475 797,467 801,459 807,452 
		811,444 817,438 827,436 835,440 840,447 841,456 848,461 845,470 839,465 836,457 829,462 822,466 821,474 823,482 822,490 
		814,494 	"/>
	<polygon display="inline" fill="#0000FF" stroke="#800080" points="871,458 866,451 872,446 870,450 	"/>
</g>
<g id="Clumps" display="none" opacity="0.5">
	<polygon display="inline" fill="#FF0000" stroke="#800080" points="37,523 26,522 19,517 13,511 10,502 6,494 4,484 3,473 4,462 
		8,453 12,446 17,439 23,432 29,427 36,422 44,417 53,415 64,413 75,414 84,417 94,419 104,421 112,425 121,428 128,433 134,439 
		139,446 144,453 147,462 148,473 147,484 144,493 139,500 134,506 127,512 121,517 112,520 101,519 92,516 84,512 78,506 69,506 
		63,511 56,516 47,520 38,522 	"/>
	<polygon display="inline" fill="#FF0000" stroke="#800080" points="632,0 637,7 643,13 648,20 641,24 632,28 627,35 625,44 623,54 
		618,62 613,68 604,71 594,73 584,76 586,84 589,93 595,99 603,103 608,110 611,119 615,127 619,135 620,146 617,155 615,165 
		611,173 607,180 601,187 593,190 586,196 578,200 569,198 561,194 552,191 544,187 539,180 538,169 537,160 537,150 541,142 
		544,132 544,121 543,112 538,105 541,95 547,90 553,83 560,78 565,72 556,69 548,65 545,56 542,47 540,38 540,27 546,21 553,15 
		550,7 	"/>
	<polygon display="inline" fill="#FF0000" stroke="#800080" points="1279,642 1272,647 1262,645 1253,642 1246,648 1236,650 
		1229,654 1219,654 1208,653 1197,652 1185,652 1178,647 1167,646 1156,647 1146,649 1137,652 1126,653 1115,653 1105,654 1096,651 
		1090,645 1085,638 1081,630 1079,620 1077,610 1077,600 1074,591 1070,583 1066,575 1063,566 1056,572 1055,583 1056,594 1056,606 
		1060,614 1065,621 1063,629 1056,625 1049,620 1043,614 1035,610 1028,605 1020,601 1012,597 1003,594 995,590 987,586 979,582 
		972,577 966,571 960,565 951,562 943,558 934,555 925,552 915,550 906,547 896,545 884,545 874,547 866,551 860,558 852,561 
		844,566 837,570 830,575 823,580 814,583 804,583 794,581 785,578 781,570 785,562 788,553 790,542 792,533 794,523 798,515 
		803,515 804,526 810,525 815,517 819,510 826,505 835,501 846,500 858,500 869,501 878,498 885,494 891,488 896,480 896,471 
		897,460 895,450 893,440 884,439 879,433 872,435 868,427 860,425 852,421 844,419 840,411 834,405 829,412 822,417 814,417 
		813,409 814,401 820,404 822,407 832,404 829,398 824,393 821,389 828,384 838,382 848,382 855,382 849,378 853,373 859,379 
		866,384 871,391 876,398 883,403 891,407 899,411 909,413 918,416 927,419 939,419 950,418 960,420 970,422 981,423 985,431 
		986,442 988,452 991,461 996,466 999,457 1003,450 1007,441 1012,434 1018,428 1025,424 1034,421 1044,418 1054,416 1065,417 
		1074,420 1080,426 1086,432 1090,440 1094,448 1096,458 1098,468 1098,479 1095,489 1091,497 1086,504 1092,506 1099,502 1101,492 
		1105,483 1108,475 1112,467 1118,460 1125,458 1127,448 1129,438 1133,429 1137,422 1141,413 1146,407 1153,401 1162,398 1172,396 
		1181,393 1192,392 1202,394 1211,397 1220,400 1227,405 1234,410 1240,416 1247,414 1247,402 1252,394 1258,389 1266,384 1275,381 
			"/>
	<polygon display="inline" fill="#FF0000" stroke="#800080" points="907,239 895,239 885,237 875,235 866,232 858,228 851,223 
		844,218 838,212 833,205 829,197 826,188 824,178 823,167 826,158 830,149 834,142 840,136 847,131 850,122 848,112 850,102 
		853,93 859,86 865,81 872,75 879,71 886,66 894,61 903,58 912,56 924,55 934,57 944,59 953,62 960,67 967,72 973,78 978,85 981,94 
		985,102 989,110 992,119 994,129 995,140 993,150 991,159 988,168 982,175 977,181 972,188 969,198 966,206 960,213 954,219 
		947,224 940,228 932,232 923,235 913,238 	"/>
</g>
<g id="Single_nuclei" opacity="0.5">
	<polygon fill="#00FF00" stroke="#800080" points="0,762.046 4.675,765.429 8,770.666 13,777.666 16.47,785.25 16.47,793.66 
		15.656,799.144 14.036,805.005 12.023,809.033 8.573,813.482 5.061,817.058 0,821.023 	"/>
	<polygon fill="#00FF00" stroke="#800080" points="0,51.666 8,53.666 18,55.666 27,52.666 35.119,49.457 43,45.666 50.5,43.233 
		60.793,41.418 68.832,42.973 75.575,47.382 82.577,53.088 86.727,59.83 91,66.666 95,74.666 98,83.666 100,93.666 101,104.666 
		101,114.81 98,125.666 94,133.666 89,140.666 84,147.666 78,153.666 70.907,157.6 63,161.666 54.051,163.824 45.492,164.344 
		35,163.666 24.227,160.453 10.901,157.087 0,153.71 	"/>
	<polygon fill="#00FF00" stroke="#800080" points="374,-1.334 370.5,2.666 364.834,6.166 357,10.666 349,14.666 341,17.666 
		331,19.666 319,19.666 309,17.666 300,14.666 292,10.666 283,7.666 273,5.666 263.865,3.599 256.008,-1.334 	"/>
	<polygon fill="#00FF00" stroke="#800080" points="848,-1.334 846,6.666 841,12.666 834,17.666 826,21.666 815,22.666 803,22.666 
		791,22.666 781,20.666 773,16.666 766,11.666 760.125,6.416 753.59,-1.334 	"/>
	<polygon fill="#00FF00" stroke="#800080" points="53.672,703.8 44.102,704.189 34,702.666 26,698.666 19,693.666 13,687.666 
		8,680.666 4.65,674.113 3,662.666 4,652.666 8,643.666 13,636.666 18,630.666 24,624.666 31.993,619.623 40.586,616.888 
		49.961,614.74 59.922,614.154 71.054,614.154 81.014,615.132 89.218,618.06 96.248,622.162 103.084,627.632 108.552,634.076 
		112,643.666 112,655.666 109,664.666 105,671.666 98.201,679.666 91.561,684.466 84.921,689.347 78.28,694.035 70.663,698.72 
		62.851,702.041 	"/>
	<polygon fill="#00FF00" stroke="#800080" points="273,476.666 262,475.666 252,473.666 241,472.666 233,468.666 225,464.666 
		218,459.666 210,455.666 203,450.666 197,444.666 192,437.666 188,429.666 185,420.666 182,411.666 179,402.666 180,391.666 
		181,380.666 184,371.666 189,364.666 196,358.666 203,353.666 212,350.666 222,348.666 234,348.666 245,349.666 255,351.666 
		263,355.666 271,359.666 278,364.666 285,369.666 292,374.666 300,378.666 305,385.666 311,391.666 316,398.666 320,406.666 
		321,417.666 320,428.666 318,438.666 315,446.666 310,454.666 305,460.666 298,466.666 291,470.666 282,473.666 	"/>
	<polygon fill="#00FF00" stroke="#800080" points="251,578.666 244,578.666 234.855,577.837 225,573.666 218,568.666 212,562.666 
		207,555.666 203,547.666 199,539.666 198,528.666 200,517.666 203,509.666 210,503.666 217,498.666 225.882,496.139 
		236.116,496.139 246.588,498.044 255.869,501.136 267.531,504.231 276.813,504.231 286,503.666 294.186,506.135 299.898,511.846 
		302.5,518.986 304,529.666 304,538.666 301,548.666 295.852,555.875 291,561.666 284,566.666 277,571.666 269,575.666 259,577.666 
			"/>
	<polygon fill="#00FF00" stroke="#800080" points="279,329.666 267,329.666 257,327.666 248,324.666 240,320.666 234,314.666 
		229,307.666 226,298.666 224,288.666 225,277.666 227,266.666 229,257.666 234,250.666 240,243.666 244,235.666 251,230.666 
		259,226.666 269,226.666 279,226.666 287,230.666 295,234.666 300,241.666 305,248.666 308,257.666 310,267.666 309,278.666 
		309,288.666 306,296.666 302,305.666 298,313.666 293,319.666 287,325.666 	"/>
	<polygon fill="#00FF00" stroke="#800080" points="375.104,617.666 368,617.666 359,614.666 351,610.666 344,605.666 339,598.666 
		334,591.666 331,582.666 333,571.666 335,561.666 336,551.666 340,542.666 346,536.666 351,530.666 357,523.666 365,519.666 
		374,516.666 385,515.666 395,517.666 403,521.666 409,527.666 415,533.666 421,539.666 426.272,545.88 432,552.666 437,559.666 
		440,568.666 439,578.666 435,587.666 432,595.666 426,602.666 419,606.666 410,609.666 401,612.666 391,614.666 381,616.666 	"/>
	<polygon fill="#00FF00" stroke="#800080" points="402,403.666 391,402.666 381,400.666 373,396.666 365,392.666 358,387.666 
		353,380.666 348,373.666 346,363.666 345,352.666 346,340.666 347,330.666 350,321.666 355,314.666 361,308.666 369,303.666 
		377,299.666 386,296.666 397,295.666 407,297.666 416,300.666 423,305.666 430,310.666 435,317.666 440,324.666 443,333.666 
		445,343.666 445,353.666 443,363.666 439,371.666 435,379.666 431,387.666 425,393.666 418,398.666 410,401.666 	"/>
	<polygon fill="#00FF00" stroke="#800080" points="410,835.666 399,834.666 388,833.666 379,830.666 372,825.666 365,820.666 
		360,813.666 354,807.666 351,798.666 349,788.666 347,778.666 349,767.666 352,759.666 356,751.666 360,743.666 366,737.666 
		372,731.666 379,726.666 387,721.666 396,718.666 406,720.666 415,723.666 422,728.666 430,732.666 438,736.666 446,740.666 
		452,746.666 456,754.666 458,764.666 460,774.666 461,785.666 459,795.666 456,804.666 451,810.666 444,816.666 438,821.666 
		430,826.666 422,829.666 414,834.666 	"/>
	<polygon fill="#00FF00" stroke="#800080" points="418.18,506.848 409.851,508.514 400,508.666 390,506.666 382,502.666 
		374,498.666 368,492.666 363,485.666 360,476.666 358,466.666 361,457.666 364,448.666 370,441.666 377,437.666 385,433.666 
		394,431.405 405,429.666 415,428.666 427,428.666 436.268,431.882 444,435.666 451,440.666 457,446.666 462,453.666 464,463.666 
		465,474.666 463,483.666 458,491.666 452,496.666 444,500.666 435.316,502.666 426.272,505.658 	"/>
	<polygon fill="#00FF00" stroke="#800080" points="440,135.666 428,135.666 421,130.666 413,126.666 407,120.666 401,114.666 
		396,107.666 394,97.666 391,88.666 390,77.666 394,68.666 399,61.666 404,55.666 411,50.666 419,45.666 428,42.666 438,44.666 
		447,47.666 452,54.666 460,58.666 469,57.666 478,60.666 485,65.666 490,72.666 495,79.666 497,89.666 494,98.666 490,106.666 
		486,113.666 480,120.666 473,124.666 465,128.666 457,132.666 446,133.666 	"/>
	<polygon fill="#00FF00" stroke="#800080" points="506,311.666 494,311.666 484,309.666 474,307.666 466,303.666 458,299.666 
		451,294.666 445,288.666 439,282.666 433,276.666 428,269.666 423,262.666 419,254.666 417,244.666 416,233.666 418,223.666 
		422,214.666 427,207.666 432,200.666 439,195.666 447,192.666 458,190.666 469,189.666 480.144,190.744 488,194.666 494,200.666 
		499,207.666 506.209,212.772 511.532,218.279 517,225.666 521.995,232.23 527,239.666 531,247.666 535,255.666 537.048,264.904 
		537,275.666 534,284.666 531,292.666 525,299.666 519,304.666 512,309.666 	"/>
	<polygon fill="#00FF00" stroke="#800080" points="488,733.666 476,733.666 465,732.666 455,730.666 447,726.666 441,720.666 
		436,713.666 431,706.666 428,697.666 426,687.666 424,677.666 424,665.666 426,655.666 429,646.666 433,638.666 438,631.666 
		444,624.666 449,618.666 456,613.666 464,608.666 473,605.666 483,603.666 495,603.666 507,603.666 517,605.666 526,608.666 
		534,612.666 543,615.666 549,621.666 555,627.666 559,635.666 561,645.666 561,657.666 559,667.666 555,675.666 551,682.666 
		545,689.666 540,696.666 535,703.666 530,709.666 523,715.666 517,720.666 509,725.666 501,729.666 493,732.666 	"/>
	<polygon fill="#00FF00" stroke="#800080" points="517,568.666 506,567.666 497,564.666 490,559.666 484,553.666 479,546.666 
		476,537.666 473,528.666 472,517.666 474,507.666 476,497.666 479,488.666 484,480.666 488,473.666 493,466.666 500,460.666 
		507,455.666 514,450.666 521,446.666 529,442.666 538,439.666 548,436.666 560,436.666 570,438.666 579,441.666 585,447.666 
		591,453.666 596,460.666 600,468.666 603.339,475.666 607,485.666 608,496.666 607,507.666 603,515.666 595.305,524.094 
		587.868,528.029 579.778,530.666 570.258,533.505 561,537.074 554.787,540.882 549,545.64 545.744,550.402 539,559.666 
		532,564.666 524,567.666 	"/>
	<polygon fill="#00FF00" stroke="#800080" points="607,435.666 596,434.666 585,433.666 577,429.666 570,424.666 563,419.666 
		557,413.666 553,405.666 550,396.666 549,385.666 550,374.666 553,364.666 557,356.666 561,348.666 565,341.666 570,334.666 
		576,327.666 582,321.666 589,317.666 597,313.666 607,310.666 618,309.666 628,311.666 635,316.666 642,321.666 648,327.666 
		653,334.666 657,342.666 660,351.666 663,360.666 665,370.666 666,381.666 666,393.666 664,402.666 659,410.666 653,416.666 
		646,421.666 639,425.666 630,429.666 622,432.666 612,434.666 	"/>
	<polygon fill="#00FF00" stroke="#800080" points="677,778.666 666,777.666 657,774.666 646,773.666 637,770.666 630,765.666 
		623,760.666 618,753.666 614,745.666 611,736.666 607,728.666 606,717.666 607,706.666 611,698.666 617,692.666 624,687.666 
		632,683.666 642,680.666 653,679.666 664,678.666 673,679.666 681,683.666 690,686.666 699,689.666 705,695.666 708,704.666 
		709,715.666 707,725.666 706,736.666 703,745.666 701,755.666 696,762.666 691,768.666 684,773.666 	"/>
	<polygon fill="#00FF00" stroke="#800080" points="730,585.666 718,585.666 706,585.666 695,584.666 686,581.666 677,578.666 
		669,574.666 662,569.666 656,563.666 651,556.666 648,547.666 646,537.666 644,527.666 646,517.666 649,507.666 653,499.666 
		658,493.666 664,487.666 671,482.666 681,479.666 691,477.666 701,475.666 711,475.666 720,478.666 726,484.666 735,487.666 
		743,491.666 750,496.666 757,501.666 763,507.666 768,514.666 771,523.666 772,534.666 771,545.666 768,554.666 765,562.666 
		759,568.666 752,573.666 744,578.666 737,582.666 	"/>
	<polygon fill="#00FF00" stroke="#800080" points="737,182.666 726,181.666 720,175.666 711,174.666 700,175.666 689,174.666 
		680,171.666 673,166.666 665,162.666 658.754,156.969 654,149.666 649,142.666 647.19,131.753 648,122.666 652.146,114.933 
		657,108.666 663,102.666 669,96.666 675,90.666 683,85.666 690.511,79.873 697.67,75.666 706,72.666 715,69.666 725.939,69.594 
		735,71.666 743,75.666 749,81.666 754,88.666 758,96.666 759,107.666 760,118.666 761,129.666 760,140.666 758,150.666 
		757,161.666 753,169.666 748,176.666 742,181.666 	"/>
	<polygon fill="#00FF00" stroke="#800080" points="726.487,309.666 716.391,309.666 706,307.666 696,305.666 687,302.666 
		680,297.666 674,291.666 670.498,284.363 667,274.666 665,265.639 666,255.177 668.114,245.08 671,236.666 676,228.666 
		682,223.666 690,218.666 699,215.666 709,215.666 718,218.666 727,221.666 736,224.666 747,225.666 755.673,229.66 761,235.666 
		766,242.666 769,251.666 772,260.666 771,271.666 768,279.666 762,286.666 756,292.666 750,297.666 743,302.666 735,306.666 	"/>
	<polygon fill="#00FF00" stroke="#800080" points="760,703.666 749,702.666 739,700.666 729,698.666 721,694.666 714,689.666 
		708,683.666 703,676.666 700,667.666 697,658.666 695,648.666 696,637.666 698,627.666 702,619.666 705,610.666 711,603.666 
		717,597.666 723,592.666 731,587.666 742,586.666 752,588.666 762,590.666 770,594.666 778,598.666 785,603.666 791,609.666 
		797,615.666 801,623.666 805,631.666 807,641.666 806,652.666 804,662.666 800,669.666 795,676.666 790,683.666 785,690.666 
		778,695.666 770,699.666 761,702.666 	"/>
	<polygon fill="#00FF00" stroke="#800080" points="969,383.666 957,383.666 947,381.666 938,378.666 929,375.666 918,374.666 
		906,374.666 896,372.666 888,368.666 880,364.666 874,358.666 869,351.666 865,343.666 863,333.666 863,323.666 865,313.666 
		870,306.666 875,299.666 880,292.666 887,286.666 894,282.666 903,278.666 912,275.666 922,273.666 932,271.666 943,270.666 
		954,271.666 964,273.666 973,276.666 981,280.666 988,285.666 996,289.666 1002,295.666 1008,301.666 1012,309.666 1013,320.666 
		1013,331.666 1011,341.666 1008,350.666 1003,358.666 999,365.666 993,372.666 986,377.666 978,380.666 	"/>
	<polygon fill="#00FF00" stroke="#800080" points="1096.413,419.666 1089,419.666 1079,417.666 1072,412.666 1066.854,407.445 
		1061.161,400.1 1058.592,393.123 1056.388,383.666 1056.021,373.477 1057.857,365.766 1060.979,359.523 1066.386,355.086 
		1071.972,351.961 1077.766,351.961 1087.035,358.19 1097.031,364.418 1105.722,370.357 1113.834,374.992 1122.09,379.773 
		1127.449,383.666 1132.362,387.666 1132.362,394.982 1130.201,399.617 1125.712,404.398 1121.656,408.308 1116.428,412.219 
		1111,415.666 1102,418.666 	"/>
	<polygon fill="#00FF00" stroke="#800080" points="1211,363.666 1199,363.666 1188,362.666 1180,358.666 1173,353.666 1166,348.666 
		1161,341.666 1156,334.666 1154,324.666 1153,313.666 1156,303.666 1159,295.666 1165,288.666 1172,283.666 1179,279.666 
		1188,275.666 1198,273.666 1210,273.666 1220,275.666 1229,278.666 1237,282.666 1244,287.666 1250,293.666 1254,301.666 
		1258,309.666 1261,318.666 1264,327.666 1264,337.666 1260,345.666 1255,351.666 1248,356.666 1239,359.666 1229,361.666 
		1218,362.666 	"/>
	<polygon fill="#00FF00" stroke="#800080" points="574.312,194.6 566.785,193.315 559,191.666 551,187.666 544,182.666 
		541.271,175.326 540,164.666 539.25,156.235 540,146.666 543,137.666 545,127.666 546,115.666 543,107.666 542.555,99.147 
		545,92.666 550,86.666 556,80.666 564,75.666 576,75.666 583,80.666 588,87.666 591,96.666 599,100.666 605,106.666 609,114.666 
		613,122.666 616,131.666 617.633,140.999 617,150.666 615,160.666 612,168.666 607,176.666 600.195,182.71 594,187.666 
		588.105,190.614 582.868,193.185 	"/>
	<polygon fill="#00FF00" stroke="#800080" points="1104.371,651.14 1097,649.666 1091,643.666 1087,635.666 1083,627.666 
		1080,618.666 1081.832,608.166 1084.832,601.832 1085.5,592.5 1078.166,582.834 1073.832,573.5 1072.166,565.5 1071.5,557.166 
		1071.5,547.834 1072.5,540.166 1074.5,533.166 1077.5,525.834 1082.166,519.5 1089.166,514.666 1098,510.666 1107.832,507.166 
		1116.832,505.166 1126.116,505.166 1136.832,506.166 1145.832,507.834 1153,510.666 1160.5,514.666 1166.5,519.166 1172.5,523.834 
		1178.166,530.5 1182.166,536.834 1185.418,545.74 1187.166,553.166 1188.764,561.166 1191.5,571.166 1193.166,583.234 
		1193.166,595.832 1191.832,605.832 1188.764,614.832 1186,621.666 1179.832,629.166 1173.5,634.832 1167.166,639.166 
		1160.475,642.38 1152.945,646.302 1143.832,649.166 1133,650.666 1122,650.666 1112,650.666 	"/>
	<polygon fill="#00FF00" stroke="#800080" points="1057,514.666 1046,513.666 1036,511.666 1026,509.666 1018,505.666 1010,501.666 
		1003,496.666 1001,486.666 999,476.666 998,465.666 997,454.666 1001,445.666 1005,438.666 1010,431.666 1016.5,427.166 
		1023.166,422.5 1031.166,419.666 1039.5,416.833 1049.5,415.833 1062,416.5 1068.166,419.666 1075.5,425.5 1082.166,431.5 
		1085.832,437.834 1089.832,445.166 1092.166,450.5 1095.832,457.834 1098,468.666 1097,478.666 1093,486.666 1088,494.666 
		1084,502.666 1078,507.666 1069,510.666 1062,513 	"/>
	<polygon fill="#00FF00" stroke="#800080" points="1190.826,499.683 1178.582,498.729 1168.883,495.39 1161.091,491.256 
		1154.094,486.325 1146.939,479.647 1140.737,472.332 1137,464.666 1133,456.666 1132.362,449.454 1133.295,441.166 
		1134.976,432.271 1137,422.666 1140,413.666 1144,404.666 1149,397.666 1156,393.666 1164,389.666 1173,387.666 1185,387.666 
		1196,388.666 1206.166,390.166 1213.834,394.166 1220.101,398.033 1226.766,403.636 1231.5,409.666 1237.166,416.166 
		1240.834,424.166 1242.834,432.834 1244.834,442.666 1245.166,450.666 1244.5,463.5 1241.834,470.5 1236.834,475.5 1230,481.666 
		1222,485.666 1213,489.666 1206.093,493.96 1199.413,497.666 	"/>
	<polygon fill="#00FF00" stroke="#800080" points="971.864,179.79 964.986,177.186 958.138,174.217 948.536,170.77 940.906,167.078 
		932.288,163.139 922.688,159.2 914.319,155.754 908.408,151.815 900.531,148.122 892.161,144.183 883.3,140.244 874.191,137.536 
		866.068,133.844 856,129.666 850,123.666 848,113.666 848,104.666 851,96.666 855,88.666 861.5,81.669 867,76.666 874,70.666 
		880.666,65.836 888,61.666 897,57.666 906,55.666 916.166,54.169 926,54.666 937,55.666 946,58.666 954,62.503 961.834,67.503 
		968,72.666 973,79.666 978,86.666 983,93.666 987,101.666 990,110.666 993,119.666 994,128.666 993,139.666 991,149.666 
		989,159.666 985,167.666 981.17,175.22 976.893,178.804 	"/>
	<polygon fill="#00FF00" stroke="#800080" points="920,233.666 908,233.666 896,233.666 886,231.666 876,229.666 867,226.666 
		859,222.666 851,218.666 844,213.666 838,207.666 832.834,200.667 829,192.666 826,183.666 824.166,174.334 825,164.666 
		827,153.666 831,145.666 834.834,139 841.166,133.834 849.834,131.753 858.517,131.753 868.457,136.493 876.897,139.614 
		886.491,142.967 895.046,146.897 902.791,150.481 909.495,153.719 915.277,157.417 925.103,161.232 933.656,165.51 
		943.021,169.439 950.882,173.023 960.823,176.375 966.949,179.79 969.263,185.74 967.412,197.3 962,205.666 956,212.666 
		951,218.666 945,224.666 937,228.666 928,231.666 	"/>
	<polygon fill="#00FF00" stroke="#800080" points="90.431,418.098 83.74,420.299 82,426.75 80.525,435.566 77.752,444.425 
		75.334,451.668 73.167,460.834 72.483,468.244 72.483,476 72.483,483.679 75.167,488.334 80.398,493.374 84.619,495.472 
		85.603,499.752 82.815,504.999 84.947,510 90.851,515 98,517.135 107.579,518.775 115.123,517.135 124.635,511.559 
		130.867,506.639 137.427,499.752 143.003,492.535 146.283,484.663 146.283,474.823 146.283,468 146.283,461.048 144.315,454.487 
		140.379,447.927 136.115,441.367 130.539,436.448 123.323,430.544 115.779,425.623 109.383,422.999 101.347,419.064 	"/>
	<polygon fill="#00FF00" stroke="#800080" points="81.634,419.026 78.376,415.443 69.432,412.666 56.911,413.989 45.62,416.784 
		39.136,420.138 34.329,423.381 29.844,426.946 22.955,432.194 16.396,437.77 10,446.299 5.9,453.514 4.26,462.043 4.26,471.553 
		4.26,480.738 6.228,491.234 8.196,497.795 11.167,505.669 15.834,511.502 23.167,516.334 30.167,518.166 38.334,518.166 
		46.243,515.666 54,513.166 61.987,508.666 66.907,501.402 70.515,496.139 72.483,491.834 71.668,484.866 71.556,476.705 
		71.334,468.166 72.483,459 75.167,449.166 77.817,441.937 80.276,431.653 81.282,424.386 	"/>
	<polygon fill="#00FF00" stroke="#800080" points="1280,528.937 1274.755,532.671 1271.192,536.912 1267.967,541.494 
		1264.404,546.587 1260.84,552.185 1258.464,557.615 1256.768,563.894 1255.918,570.681 1257.784,578.154 1259.823,583.748 
		1262.028,590.365 1265.422,595.966 1268.646,600.037 1272.718,604.109 1276.281,606.486 1280,607.505 	"/>
	<polygon fill="#00FF00" stroke="#800080" points="624.192,40.211 623.526,32.188 619.264,26.462 613.937,21.667 607.75,17.392 
		598.048,12.039 590.353,9.166 582.657,9.166 574.295,10.666 566.934,12.374 560.132,14.609 554.805,16.606 549.201,19.666 
		543.884,26.595 542.819,35.518 544.282,43.642 548.532,51.183 554.272,57.892 561.916,63.227 569.945,66.238 578.442,69.594 
		588.766,70.145 597.423,70.145 605.014,68.68 611.765,64.9 617.633,58.209 621.395,50.434 	"/>
	<polygon fill="#00FF00" stroke="#800080" points="592.5,-1.334 593.737,3.42 596.25,7.916 599.75,10.666 604.566,14.171 
		610.097,17.365 615.551,21.105 619.836,23.364 625.134,23.988 630.25,22.666 632.75,19.666 634.5,16.166 634.5,13.416 
		634.094,9.166 633.003,5.367 631.678,2.251 630.25,-1.334 	"/>
	<polygon fill="#00FF00" stroke="#800080" points="1119.406,377.15 1125.037,380.101 1129.062,383.666 1132.362,385.197 
		1136.84,386.932 1141,384.416 1145.25,378.416 1148,373.916 1150.5,367.666 1150.5,359.666 1150.5,353.166 1148.75,346.416 
		1147.25,341.416 1144.25,335.166 1139.791,329.136 1133.89,323.772 1128.793,320.821 1123.697,318.666 1117.796,316.53 
		1111.25,314.916 1104.5,314.916 1098,316.666 1093.442,318.666 1087.75,321.916 1082.5,325.916 1078.5,331.666 1074.75,337.416 
		1073.5,341.166 1074.342,345.499 1075.95,349.79 1081.584,353.009 1086.948,356.764 1093.442,361.056 1098,363.666 
		1103.578,367.762 1108.676,370.981 1113.504,373.395 	"/>
	<polygon fill="#00FF00" stroke="#800080" points="14.035,303.372 16.209,309.024 19.252,313.371 18.383,318.588 14.47,323.369 
		11.427,329.89 9.254,335.976 8.384,342.932 7.515,349.887 8.384,355.974 10.123,362.929 12.732,369.885 17.948,375.102 
		23.165,380.319 29.251,384.666 36.207,386.84 42.293,386.84 49.248,385.97 53.595,383.796 61.421,383.796 67.942,381.623 
		74.463,377.71 79.679,375.971 84.027,372.928 88.808,368.146 91.852,362.929 96.634,357.713 98.807,352.931 99.677,346.844 
		99.242,339.889 99.242,333.368 97.938,326.847 97.938,321.631 96.634,315.11 94.46,308.589 92.721,304.676 92.721,297.72 
		93.156,292.069 92.721,285.983 91.417,281.635 87.939,276.419 84.461,272.941 80.549,269.464 76.636,265.986 68.811,262.073 
		59.682,261.204 52.726,260.769 47.51,259.465 41.858,259.9 35.337,261.638 29.686,266.42 23.165,273.811 18.818,278.593 
		16.209,284.244 13.601,290.765 12.297,298.156 	"/>
</g>
</svg>
