<?xml version="1.0" encoding="utf-8"?>
<!-- Generator: Adobe Illustrator 16.0.1, SVG Export Plug-In . SVG Version: 6.00 Build 0)  -->
<!DOCTYPE svg PUBLIC "-//W3C//DTD SVG 1.1//EN" "http://www.w3.org/Graphics/SVG/1.1/DTD/svg11.dtd">
<svg version="1.1" id="Layer_1" xmlns="http://www.w3.org/2000/svg" xmlns:xlink="http://www.w3.org/1999/xlink" x="0px" y="0px"
	 width="1280px" height="1024px" viewBox="0 0 1280 1024" enable-background="new 0 0 1280 1024" xml:space="preserve">
<g id="Raw_image">
	
		<image overflow="visible" enable-background="new    " width="1280" height="1024" xlink:href="normal_30.jpg"  transform="matrix(1 0 0 1 2.441406e-004 -2.441406e-004)">
	</image>
</g>
<g id="Not_annotated" opacity="0.5">
	<path fill="#0000FF" stroke="#800080" d="M0,1"/>
	<polygon display="none" fill="#0000FF" stroke="#800080" points="0,1016 9,1015 21,1015 32,1016 43,1017 53,1017 64,1018 75,1019 	
		"/>
</g>
<g id="Clumps" display="none" opacity="0.5">
	<polygon display="inline" fill="#FF0000" stroke="#800080" points="0,147 5,141 11,135 18,130 26,125 34,121 44,119 54,117 63,120 
		74,121 83,124 90,129 98,133 107,136 113,142 119,148 123,156 127,164 132,171 134,181 132,191 130,201 127,210 123,218 121,227 
		116,235 111,242 106,249 100,255 93,259 86,264 77,267 67,269 56,270 50,277 46,285 41,291 35,297 28,302 21,307 13,312 6,316 	"/>
	<polygon display="inline" fill="#FF0000" stroke="#800080" points="154,1023 148,1017 142,1011 137,1004 132,997 127,990 121,984 
		116,977 112,969 108,961 105,952 103,942 102,931 103,920 105,910 109,901 113,893 118,886 124,880 131,875 139,871 150,870 
		153,864 147,858 142,851 136,845 130,839 123,834 119,826 116,817 115,806 114,795 115,784 114,773 113,762 114,751 117,741 
		121,733 125,726 131,719 137,713 142,706 148,700 154,695 160,688 166,683 174,678 182,675 192,672 203,671 215,671 224,674 
		232,678 238,684 246,688 252,694 257,701 261,709 266,716 270,724 274,732 277,741 279,751 279,763 277,773 275,782 271,791 
		272,802 273,813 273,825 271,835 266,842 261,849 255,855 249,861 242,866 236,871 240,878 247,883 254,888 260,894 266,900 
		272,906 278,912 284,918 291,922 297,916 303,909 309,904 317,899 325,895 333,891 342,888 354,888 365,887 375,889 384,892 
		392,896 398,902 403,909 410,914 417,919 423,925 429,931 434,938 438,946 441,955 443,965 445,975 445,986 442,996 438,1004 
		434,1012 429,1019 	"/>
	<polygon display="inline" fill="#FF0000" stroke="#800080" points="792,0 796,8 800,16 798,26 800,36 798,46 793,52 787,58 790,66 
		794,74 797,83 796,94 794,103 797,111 804,116 810,122 817,124 819,114 819,104 821,94 823,83 828,77 834,70 839,64 846,58 850,51 
		859,47 868,45 878,42 889,43 900,44 905,50 907,59 918,58 926,62 933,67 941,71 946,78 949,87 950,96 945,103 948,112 945,121 
		942,130 942,140 942,149 935,155 928,160 922,165 916,172 911,178 901,180 890,181 880,183 877,189 883,195 890,200 898,204 
		905,209 905,217 903,227 904,238 902,248 905,257 915,259 925,259 933,255 942,254 953,255 962,254 961,244 961,234 964,225 
		969,218 974,210 978,202 983,196 990,191 997,185 1006,182 1016,180 1027,179 1037,181 1046,184 1056,186 1065,189 1074,192 
		1081,197 1086,204 1090,212 1094,220 1096,230 1097,241 1098,252 1098,262 1095,271 1090,278 1084,283 1077,288 1069,293 1062,298 
		1054,302 1046,305 1036,305 1026,303 1017,300 1007,298 998,295 995,303 996,314 999,321 1007,317 1016,314 1026,312 1037,311 
		1049,311 1058,314 1065,319 1073,323 1081,327 1086,334 1090,342 1095,349 1099,357 1101,367 1104,376 1105,387 1104,398 1102,408 
		1098,416 1094,424 1091,431 1101,429 1111,429 1122,430 1132,432 1142,434 1152,436 1161,439 1169,443 1176,448 1183,453 1190,458 
		1195,465 1199,473 1201,483 1203,493 1206,502 1206,512 1203,520 1203,531 1200,539 1194,545 1190,554 1184,559 1178,565 1170,569 
		1161,572 1152,576 1143,574 1134,571 1127,566 1121,560 1114,555 1108,549 1101,544 1093,540 1086,535 1078,531 1072,525 1065,520 
		1059,514 1054,507 1050,499 1048,489 1041,486 1032,489 1021,490 1010,491 1000,489 990,487 981,484 972,484 967,491 962,498 
		957,504 951,510 944,516 937,520 929,525 928,534 931,543 933,553 932,564 933,571 940,566 945,560 950,553 957,547 965,543 
		974,540 984,538 994,538 1004,540 1012,544 1019,549 1026,554 1032,560 1038,566 1042,574 1045,583 1047,593 1050,602 1053,611 
		1055,621 1056,632 1057,643 1058,653 1054,662 1049,668 1045,676 1040,684 1034,689 1026,693 1017,697 1006,697 997,694 988,691 
		980,687 974,681 968,675 960,671 950,671 940,669 933,664 927,658 921,652 917,644 915,634 915,622 915,612 909,616 902,622 
		894,625 886,629 876,631 865,630 858,625 851,620 844,620 840,628 835,634 827,638 818,641 808,644 798,645 788,643 777,642 
		769,638 762,633 757,626 751,620 746,613 743,604 740,595 738,585 738,575 736,565 730,559 725,552 722,543 721,532 722,521 
		727,513 732,507 737,500 743,493 750,488 757,483 765,480 775,477 785,479 793,483 803,485 813,483 813,476 809,468 805,460 
		801,452 798,443 798,431 799,420 802,411 807,403 812,397 819,391 826,386 834,382 844,382 855,383 867,383 877,385 886,388 
		894,392 903,395 913,397 923,399 934,400 945,401 949,394 952,384 955,376 958,367 962,359 955,357 947,361 941,367 936,374 
		931,381 923,385 913,384 902,383 891,382 883,378 874,375 866,371 858,367 850,363 847,354 844,345 841,336 839,326 833,320 
		821,320 811,322 802,319 794,315 786,315 788,324 790,334 792,344 793,355 792,366 790,376 787,385 783,393 777,399 772,405 
		765,411 758,415 749,419 740,421 730,421 719,420 709,419 712,426 717,433 720,442 721,453 718,462 714,469 711,478 707,487 
		702,494 698,501 692,508 685,513 678,518 670,522 661,525 652,527 643,530 633,532 623,534 612,535 602,535 591,534 583,530 
		575,526 568,521 562,515 557,508 551,502 547,494 545,484 544,473 545,462 548,452 551,444 555,436 560,428 564,421 570,415 
		577,410 586,406 594,402 601,397 609,394 618,390 627,387 637,385 648,384 659,385 667,384 663,376 659,368 655,360 653,350 
		652,339 652,327 656,319 660,311 664,303 669,296 674,289 679,281 685,275 692,270 699,266 710,264 722,264 733,265 743,267 
		752,270 750,263 744,257 736,253 731,246 725,240 719,234 715,226 711,218 704,220 698,226 690,229 680,232 671,234 659,234 
		650,231 639,233 632,237 623,240 612,239 604,235 594,233 586,229 580,223 575,216 572,207 570,197 562,198 556,203 548,208 
		541,213 531,214 520,213 509,214 499,212 489,212 481,208 473,204 468,197 462,191 456,185 451,178 447,170 443,162 440,153 
		439,144 435,136 431,128 430,117 429,106 427,96 429,85 430,75 435,67 440,61 448,56 457,53 465,49 474,46 483,43 494,44 504,46 
		510,43 503,38 500,29 498,19 496,9 	"/>
	<polygon display="inline" fill="#FF0000" stroke="#800080" points="664,1023 659,1016 654,1009 650,1001 650,991 650,979 647,970 
		643,962 640,953 636,945 633,936 635,926 643,921 647,914 652,906 657,899 662,892 669,887 672,881 663,878 653,876 643,874 
		633,872 621,872 614,867 606,863 600,857 595,850 590,843 585,836 580,829 575,822 572,813 569,804 568,793 568,781 570,771 
		574,762 578,754 582,747 588,741 595,735 602,730 610,726 618,722 626,719 636,716 647,715 658,714 670,714 681,715 691,717 
		700,720 709,723 717,727 724,732 730,738 736,744 740,752 745,759 748,768 751,777 753,787 755,797 754,808 753,819 751,829 
		747,836 742,844 737,851 731,857 725,862 717,867 709,871 714,876 725,877 734,880 741,885 749,889 757,893 762,900 767,907 
		771,915 774,924 778,932 781,941 784,950 785,961 783,971 781,981 778,990 776,1000 774,1010 773,1021 	"/>
	<polygon display="inline" fill="#FF0000" stroke="#800080" points="806,1023 804,1013 806,1003 809,994 813,985 817,978 823,971 
		829,965 836,960 843,955 850,951 858,947 869,945 879,945 890,946 899,949 907,953 916,956 923,961 930,966 936,972 941,979 
		946,986 951,993 955,986 955,974 957,964 961,956 965,948 970,941 975,934 981,927 988,922 996,918 1006,916 1017,917 1027,917 
		1037,917 1044,922 1051,927 1058,932 1065,937 1070,944 1074,952 1078,960 1081,969 1081,979 1078,988 1080,998 1082,1008 
		1085,1017 	"/>
	<polygon display="inline" fill="#FF0000" stroke="#800080" points="1189,939 1177,939 1165,939 1155,937 1146,934 1138,930 
		1130,926 1123,921 1116,916 1111,909 1105,903 1101,895 1097,887 1094,878 1092,868 1088,862 1081,868 1074,873 1064,872 1053,873 
		1042,875 1032,874 1022,874 1011,875 1002,879 992,878 983,875 974,872 966,868 958,864 950,860 944,854 939,847 936,838 932,830 
		930,820 930,808 932,797 934,788 938,779 942,772 948,765 954,759 961,755 970,751 980,749 990,747 999,744 1010,743 1020,743 
		1031,742 1041,744 1052,745 1063,744 1072,747 1082,749 1090,753 1096,759 1100,767 1104,775 1108,783 1111,792 1114,801 1115,812 
		1113,822 1117,826 1125,822 1133,818 1143,816 1153,815 1164,813 1175,814 1187,814 1198,815 1208,817 1216,821 1224,825 1231,830 
		1238,835 1243,842 1249,848 1254,855 1258,863 1260,873 1260,885 1259,895 1255,904 1251,911 1245,918 1239,923 1232,928 1224,932 
		1214,934 1203,935 1193,938 	"/>
</g>
<g id="Single_nuclei" opacity="0.5">
	<polygon fill="#00FF00" stroke="#800080" points="472,0 469,7 463,12 455,17 446,19 436,21 425,22 413,22 403,20 394,17 386,13 
		379,8 376,0 	"/>
	<polygon fill="#00FF00" stroke="#800080" points="1279,636 1271,634 1264,629 1257,624 1252,617 1247,610 1242,603 1238,595 
		1236,585 1235,574 1235,562 1237,551 1240,543 1244,535 1249,528 1256,522 1262,516 1269,512 1279,507 	"/>
	<polygon fill="#00FF00" stroke="#800080" points="0,626 9,623 21,623 31,625 40,628 47,633 54,638 59,645 63,653 68,660 71,669 
		72,680 72,692 71,702 68,712 65,721 61,728 55,735 50,742 43,747 36,751 27,754 17,757 9,760 0,759 	"/>
	<polygon fill="#00FF00" stroke="#800080" points="0,819 9.016,819 20.544,821.985 28,823 38,825 46,829 54,833 61,838 67,844 
		72,851.715 75.145,858.386 78.785,869 81.212,879 82.426,889 81.212,899.641 81.148,908.456 79.148,918.456 77.572,929.369 
		75.145,939.682 73.362,944.5 70.572,955.5 68,960 63,968 58,974 52,980 45,986 38,991 26.665,997.415 17.125,1002.729 
		9.229,1005.864 0,1008.844 	"/>
	<polygon fill="#00FF00" stroke="#800080" points="93,561 83,559 72,558 63,555 55,551 47,547 42,540 37,533 32,526 28,518 26,508 
		25,497 24,486 26,476 28,466 31,456 35,449 40,441 44,434 50,428 56,422 62,416 68,410 75,404 83,400 90,396 101,394 110,391 
		121,392 130,395 139,398 147,402 153,408 158,415 161,424 166,431 170,439 172,449 172,461 171,472 170,482 167,492 165,502 
		162,511 158,518 153,525 147,532 141,538 135,543 128,548 120,553 112,556 103,559 	"/>
	<polygon fill="#00FF00" stroke="#800080" points="188,173 177,172 168,169 160,165 151,162 144,157 138,151 133,144 128,137 
		123,130 119,122 116,113 114,103 114,91 112,81 111,70 110,59 113,50 117,42 122,35 127,28 133,21 141,17 151,16 162,15 173,15 
		182,18 193,19 203,21 213,23 223,25 232,28 241,31 249,35 256,40 262,46 268,52 273,59 277,67 280,76 282,86 282,98 281,109 
		279,119 275,127 271,134 265,141 260,147 253,152 246,158 238,162 230,166 222,169 212,171 201,172 189,172 	"/>
	<polygon fill="#00FF00" stroke="#800080" points="316,591 305,590 296,587 286,585 279,580 272,575 267,568 264,559 261,550 
		257,542 254,533 252,523 251,512 253,502 256,493 260,485 265,478 271,472 278,467 285,462 292,456 299,451 306,446 313,441 
		324,440 334,442 344,444 353,447 361,451 369,455 375,461 379,469 384,476 390,482 394,490 394,500 392,510 391,520 389,530 
		386,540 383,549 379,557 374,563 367,569 360,573 353,578 345,582 336,585 327,588 317,590 	"/>
	<polygon fill="#00FF00" stroke="#800080" points="418,839 408,837 397,836 387,834 379,830 370,827 363,822 357,816 353,808 
		349,800 346,791 344,781 343,770 345,760 348,751 353,743 358,736 364,730 370,725 378,720 387,717 397,715 408,716 418,718 
		429,719 437,723 442,730 448,736 453,743 460,748 466,754 471,761 474,770 474,781 471,791 468,800 464,807 460,816 455,822 
		449,828 442,833 433,837 423,838 	"/>
	<polygon fill="#00FF00" stroke="#800080" points="458,713 448,711 442,705 435,700 428,695 422,689 416,683 410,677 404,671 
		399,664 397,654 399,643 403,636 407,628 412,620 417,613 422,606 429,601 438,598 447,596 458,594 468,592 479,591 491,591 
		501,593 509,597 516,602 524,606 532,610 540,614 546,620 550,628 554,636 555,647 553,656 549,665 544,671 538,678 532,683 
		525,688 518,693 510,698 503,702 494,706 486,709 476,711 465,712 	"/>
	<polygon fill="#00FF00" stroke="#800080" points="568,405 556,405 545,404 535,402 525,400 517,396 509,392 503,386 497,380 
		493,372 490,363 486,355 482,347 478,339 477,328 476,317 478,307 482,299 486,291 491,284 498,278 504,272 511,267 518,262 
		523,255 526,247 533,241 542,239 552,236 563,237 574,238 583,241 591,245 597,251 604,256 610,262 615,269 620,276 626,282 
		631,289 635,297 639,305 641,315 643,325 644,336 643,346 641,356 637,364 631,371 624,376 617,380 610,385 603,390 595,394 
		587,398 579,402 569,404 	"/>
	<polygon fill="#00FF00" stroke="#800080" points="670,711 658,711 648,709 640,705 632,701 624,697 618,691 612,685 606,679 
		602,671 598,663 592,657 587,650 583,642 581,632 581,622 583,612 587,603 591,596 597,590 604,584 612,580 620,577 630,574 
		641,575 652,576 660,580 668,584 674,590 682,594 693,595 702,598 711,601 720,604 728,608 735,613 738,622 741,631 743,641 
		742,651 739,661 735,669 730,676 725,682 717,686 709,690 703,697 697,703 689,706 680,709 	"/>
	<polygon fill="#00FF00" stroke="#800080" points="856,787 844,787 836,783 827,780 819,776 813,770 807,764 802,757 797,750 
		794,741 791,732 789,722 788,711 790,700 793,692 797,684 802,676 808,670 814,665 822,660 831,657 842,656 854,656 864,658 
		873,661 881,665 888,670 894,676 900,682 906,688 912,694 918,700 922,708 927,715 929,725 929,736 925,744 920,752 914,758 
		908,763 901,769 894,774 887,778 879,782 870,785 859,786 	"/>
	<polygon fill="#00FF00" stroke="#800080" points="1099,0 1104,7 1109,14 1113,22 1114,33 1115,44 1113,54 1110,62 1105,70 1101,77 
		1094,83 1088,88 1081,94 1074,99 1066,102 1054,102 1043,101 1034,98 1024,96 1014,94 1005,91 996,88 989,83 982,78 977,71 972,64 
		968,56 965,47 963,37 962,26 964,16 967,7 972,0 	"/>
	<polygon fill="#00FF00" stroke="#800080" points="1204,751 1193,750 1182,749 1172,747 1163,744 1154,741 1146,737 1139,732 
		1133,726 1127,720 1122,713 1116,707 1113,698 1111,688 1109,678 1111,668 1114,659 1118,650 1123,643 1128,637 1134,630 1141,625 
		1148,621 1157,617 1165,614 1175,611 1185,610 1195,611 1203,615 1211,619 1219,623 1226,628 1231,635 1236,642 1239,651 1243,659 
		1247,667 1250,676 1252,686 1254,696 1253,706 1250,716 1246,723 1241,730 1234,736 1228,741 1221,746 1212,749 	"/>
	<polygon fill="#00FF00" stroke="#800080" points="0,168 0,157 1,145 7,139 12,133 18,127 25,121 35,119 45,117 55,117 66,118 
		75,121 84,124 92,128 100,132 108,136 114,142 120,148 125,155 128,164 132,172 134,182 134,194 132,203 128,211 124,219 119,227 
		115,234 110,241 105,249 98,253 90,257 82,262 74,266 64,268 58,263 52,257 49,250 46,241 43,232 40,223 36,215 32,207 27,200 
		22,193 15,188 8,183 0,179 	"/>
	<polygon fill="#00FF00" stroke="#800080" points="0,179 7,184 14,189 20,195 25,202 30,209 35,216 39,224 42,233 46,241 48,251 
		49,262 46,271 43,280 38,287 31,292 24,297 17,301 10,306 2,310 	"/>
	<polygon fill="#00FF00" stroke="#800080" points="233,867 224.39,869 212.863,869 201.336,869 189.202,869 178.282,867 
		169.181,867 156,860 149,855 143,849 136,844 130,838 124,832 120,824 115,817 115,805 115,793 116,782 116,770 117,759 118,748 
		122,739 125,731 129,723 133,715 140,709 146,703 152,698 159,692 165,687 173,682 181,678 189,675 199,674 211,674 222,675 
		229,680 236,685 243,690 249,696 254,703 259,710 264,717 267,726 271,734 274,743 275,754 276,765 277,776 273,784 270,792 
		268,801 272,809 276,817 273,826 269,833 265,841 259,847 252,853 245,858 238,863 	"/>
	<polygon fill="#00FF00" stroke="#800080" points="250,1020 241.377,1022 228.636,1024 217.11,1024 206.189,1024 192,1024 
		180.709,1024 167.968,1024.618 155.228,1024 148,1014 143,1007 137,1001 131,995 126,988 121,981 116,974 111,967 108,958 105,949 
		103,939 104,930 105,919 107,909 108,898 114,891 120,885 127,880 134,876 142,872 153,870 164,869 174,869 185,870 196,871 
		207,872 218,873 228,875 237,878 244,883 253.511,889 257.758,892.361 265.038,899.034 270.498,905.709 277,913.924 281,919.662 
		283.845,927.551 283.845,936.044 280,953 279,964 279,974 279,986 279,998 277,1005.811 269.284,1008.844 260.791,1016.125 
		252,1018 	"/>
	<polygon fill="#00FF00" stroke="#800080" points="424.596,1024.618 419.136,1024 405.182,1024 394,1024 383.342,1024 371.206,1024 
		360.285,1024 347.547,1024 336.627,1024 322.5,1024 309.932,1024 302,1016 297,1009 292,1002 287,995 284,986 281,977 281,968.196 
		281,956.808 283,949 286,939 290,932 295,925 300,917 304,910 311,905 318,900 325,895 334,891 345,890 356,889 366,889 376,891 
		386,893 393,898 398,905 404,911 411,916 417,922 424,927 430,933 434,941 437,950 441,958 444,967 445,976 444,987 444,999 
		439,1006 434,1013 429,1020 	"/>
	<polygon fill="#00FF00" stroke="#800080" points="892.894,179 887,179 874.084,179 862.075,175.793 855.674,170.59 
		850.472,164.987 843,159 838.065,155.382 831.262,145.777 827.259,138.573 823.656,128.5 822,116.562 822,106.557 822,96 
		822,87.346 826.059,79.743 833.263,72.939 838.065,68.136 843.601,60.533 849.671,53.329 856.475,48.927 865.68,42.924 
		873.684,40.122 891.693,40.122 907.699,44.524 917,50 926,53 932,59 938,65 944,71 950,77 952,86 951,98 950,109 949,120 948,131 
		944.921,140.974 940,147 933,152 926,157 920.101,164.587 914.105,173.792 907.699,177.393 900.495,179 	"/>
	<polygon fill="#00FF00" stroke="#800080" points="1056.977,300.254 1046.171,301.855 1030.563,301.855 1020.852,295.519 
		1012.154,293.851 1002.549,291.05 995,289.049 989.74,282.645 983.739,276.242 976.533,270 970.132,259.033 966.53,251.5 
		964.128,238.622 965,230.219 970,221 974,213 978,205 982.939,199.002 987.74,194.599 991.741,189.797 998.147,186.195 
		1008.95,183.794 1018.957,181 1030,181 1040.969,182.993 1052.174,183.794 1062.577,187.796 1071.384,190.597 1079.786,194.599 
		1084,199 1090,205 1095,212 1097.398,219.012 1098.998,229.017 1100,239 1099,249 1097,260 1096,270 1091.395,280.244 
		1085.791,285.047 1079,289 1069,292 1063.781,297.052 	"/>
	<polygon fill="#00FF00" stroke="#800080" points="524.701,212.613 514.298,212.613 506.169,214.214 494.285,211.812 
		483.482,211.012 472,202.608 467.473,195.004 461.868,189.001 455.467,181.779 452.265,175.794 448,168 443,161 440,152 437,143 
		434,134 431,125 428,116 425,107 424,96.552 424,90 427,81 431,72 436,66 442,60 448.661,55.331 458,52 467.871,47.327 
		477.879,45.326 489.885,43.725 495.488,43.725 507.169,48.127 518.3,51 525.904,54.531 535,60 541.91,64.135 550,69 555,76 560,83 
		565,90 570,97 575,104 581.132,112.16 586,124.967 590.337,132.971 590.337,141.376 585,150 582,159 578,166 574.728,174.594 
		570.727,184.198 565,189 560,197 553.518,203.008 545.114,210 534.308,212.613 	"/>
	<polygon fill="#00FF00" stroke="#800080" points="619,533 610.745,533 601.942,533 591.136,533 581,528.373 574.728,521.967 
		566.724,515.566 560,508.363 555,501.359 549.515,493.955 545.911,484.35 545.911,471.143 548,460 551.115,452.982 555,444.329 
		558,435 560,428.719 564.323,423.518 570.324,417.515 578.328,411.512 590,407 595.537,405 601.942,400.575 611.948,397.505 
		621.951,391.902 631,388 641,386 652,385 661,388 669,392 678,395 686,399 691.189,405 698,411 704,417 710,423 713.601,428.719 
		718.803,436.325 721.605,447.531 720,457 716,464 713.601,471.944 711.599,479.147 707,486.753 702,494.758 696.392,501.359 
		689.588,509.163 682.782,514.765 675.981,517.969 666.375,521.967 655.17,523.97 647.166,527.175 638.361,529.574 629.955,533 	"/>
	<polygon fill="#00FF00" stroke="#800080" points="745.615,417.917 731.61,420.718 718.403,417.116 708,412 699,409 693,403 
		688,396 683,389 678,382 673,375 668,368 663,361 661,351 659,341 655.17,329.871 657.972,320.5 661.974,310 665.573,304.658 
		670.779,295.853 675.578,289.05 681.184,281.846 685.986,275.844 692,271 702,266.638 714.801,266.638 726.807,266.638 
		738.411,269.039 748,273 755,278 760.823,283.047 767.228,288.249 774,295 778,303 782,311 786,319 790,327 793,336 793,348 
		793,360 793,372 790,381 786.838,387.901 782.034,393.904 775.633,400.575 767.228,407.111 759.622,411.113 753.619,413.915 	"/>
	<polygon fill="#00FF00" stroke="#800080" points="685.186,227.42 677,230 665,230 653,230 641,230 628.356,236 617.15,236 
		605.144,231.82 595,228 587,224 581,218 577.13,210 575.128,203.805 574.728,192.599 576.327,183.395 578.73,174.99 
		581.932,167.386 586,161.385 591.136,154.98 595.939,148.177 605.144,143.774 614.349,140.973 622.353,138 634.5,136.17 
		644,138.971 653.57,141.773 663.174,140.573 675.18,142.974 684,148 693.19,152.979 698.393,161.783 702,170.588 703,178 704,189 
		704,200 703.993,210 702,215.814 697.592,219.015 693.19,223.818 	"/>
	<polygon fill="#00FF00" stroke="#800080" points="1147.823,574 1141.421,574 1134.217,569.594 1128.214,563.988 1121.811,558.385 
		1113.406,552.783 1106.603,547.98 1101,543.978 1096.198,539.177 1089.394,533.573 1081.787,527.969 1074.987,521.967 
		1068.983,517.564 1063.38,512 1058.575,507 1054.175,498.757 1052.174,489 1056,477.944 1059.779,468.739 1064.579,461.135 
		1069.781,454.331 1075.387,447.928 1080.589,440.724 1086.192,433.923 1093.396,430.719 1101,429.518 1109,428.719 
		1117.008,429.518 1127.013,431.119 1136.616,433.923 1146.623,435.924 1155.826,438.723 1167.368,441.514 1175.439,445.129 
		1181,447 1187,453 1191,461 1194,470 1198,478 1201,487 1205,495 1208,504 1207.856,512 1207,521 1204,529 1200,538 1197,547 
		1194,555 1189,562 1180,565 1171,568 1162,571 1153,574 	"/>
	<polygon fill="#00FF00" stroke="#800080" points="1021.257,491.151 1012.451,489.149 1002.448,487.949 992.443,485.948 985.5,480 
		981.5,472 978.033,465.537 977.736,461.135 976.135,453.931 973.734,445.927 969.329,435.924 965,428.719 962.127,420.314 
		958.926,409.908 956.5,401 954.524,394.3 956.5,382 960.5,374 964.5,366 968.5,358 972.5,350 976.5,342 980.5,334 985.5,328 
		993.5,323 1000.5,319 1008.5,314 1018.5,312 1028.5,310 1037.365,310 1046.171,311.857 1056,313.058 1064.181,314.658 1071.5,317 
		1079.5,321 1087.5,325 1094.5,330 1098.5,338 1101.5,347 1104.5,356 1106.2,365.485 1106.603,373.49 1106.2,382 1106.603,389.097 
		1104.602,398.575 1103.401,403.505 1100.498,413 1096.097,421.514 1090.491,428.719 1082.89,436.722 1075.5,442 1070.5,449 
		1065.5,456 1060.5,463 1054.5,470 1049.5,476 1042.866,483.549 1036.066,489 1028.862,491.151 	"/>
	<polygon fill="#00FF00" stroke="#800080" points="1006.638,696.642 998.469,694 990.753,690.742 981.676,686.657 973.734,680.5 
		969,673 961,669 951,669 941.739,667.142 934,664 929,658.065 923.584,649.896 920,640.365 920,630 921,621 924,612 927,602 
		929,593 932,584 936,575 941,569 946,562 951,555 956.715,550.959 962.615,546.875 971.239,541.883 981.223,540.065 988,539 
		998,541 1008,543 1015,548 1020,555 1025,562 1030.563,566.388 1039.315,574 1044,579 1047,588 1050,597 1052,607 1055,616 
		1056,627 1056,639 1055,649 1052,659 1050,669 1048,679 1043.853,683.934 1036.138,688.019 1026.154,692.103 1015.715,696.642 	"/>
	<polygon fill="#00FF00" stroke="#800080" points="929,521.967 921.099,524.146 911.444,524.262 900.741,522.517 892.482,520.307 
		885.153,518.096 875.615,514.84 866.54,511.117 858.048,507.394 848.742,502.276 839.32,496.808 832.456,492.62 824.895,487.502 
		819.195,481.104 814,473 809,466 805,458 801,450 799,440 800,428 801,418 805,409 810,402 815,396 822,390 829,386 836.5,384 
		848,384 860,384 871,385 881,387 889,391 897,395 905.698,399.901 915.303,401.502 926.907,402.702 938.515,403.103 946,406 
		951,413 957.616,420.093 961.911,432.825 967.676,444.351 971.733,452.729 973.734,463.135 973.734,473.539 970.932,479.943 
		967,488 962,496 957,502 951,508 944,514 937,519 	"/>
	<polygon fill="#00FF00" stroke="#800080" points="923.601,384 912.601,383 901.601,382 891.601,380 883.601,376 874.601,373 
		866.601,369 858.601,365 851.601,360 849.601,350 845.601,342 843.601,332 843.666,323 847,317.463 852.601,313 860.601,309 
		868.601,304 875.601,299 882.601,294 889.601,290 896.601,285 902.601,279 907.698,270 911.699,267.037 918.601,263.035 
		926.601,260 934.601,257 943.718,257.432 952,259.033 964.128,261 969.329,265.036 975.533,268.287 981.601,275 987.601,281 
		992.601,288 994.601,298 996.601,308 994.601,318 988.601,324 982.601,330 976.601,335 970.601,341 964.601,347 959.601,354 
		951.601,358 943.601,363 938.601,370 934.601,377 927.601,382 	"/>
	<polygon fill="#00FF00" stroke="#800080" points="814,323 805,320 797,316 788,313 781.636,307.862 777,300 774.5,292.251 
		770,281.446 767.228,272.241 767.228,261 770,251.5 774.5,244.226 779.635,233.821 786.036,227.017 790.84,219.013 
		796.444,213.811 805.648,208.208 811.652,203.805 818.855,195.401 826.459,190.598 836.5,186.196 843.601,182.5 852.828,181.526 
		859.276,180 868,180 877,183 885,187 892,192 898,198 903,205 903,217 903,229 903,241 902,252 900.097,263.837 896.896,275.042 
		893.694,282.246 890.092,285.848 883,293 876,298 869,302 862,307 855,312 845,314 836,317 826,319 819.43,321.19 	"/>
	<polygon fill="#00FF00" stroke="#800080" points="761.113,264.557 755.62,262.636 744.817,257 739,250 734,243 729,236 723,230 
		718,223 713,216 707,210 704,201 704,189 703,178 703,166 702,155 702,144.175 704.396,135 707,126.966 711.997,118.561 720,112 
		728,108 735,104 744.416,102 755,99 767,99 776,102 784,106 793,109 801,113 809,117 815,123 819,131 824,138 828,146 833,153 
		835.114,160.183 837.265,167.386 840.466,174.99 838.465,179 836.865,182.5 833.263,184.995 828.46,187.797 821.265,193.879 
		813.713,201.4 805.648,208.208 799,212.255 789.146,221.838 781.636,230 777.341,238.469 772.521,247.427 769.174,254.332 
		767.228,261 	"/>
	<polygon fill="#00FF00" stroke="#800080" points="689,876 677,876 665,876 655,874 646,871 636,869 625,868 614,867 607,862 
		602,855 597,848 592,841 587,834 583,826 579,818 575,810 572,801 571,790 571,780 574,771 577,762 582,754 587,748 593,742 
		600,736 608,732 615,727 623,723 633,721 643,719 653,717 663,719 674,720 685,721 695,723 704,726 713,729 720,734 727,739 
		733,745 738,752 743,759 747,767 749,777 751,787 753,797 755,807 753,816 750,825 747,834 742,841 736,847 729,853 723,859 
		715,863 707,867 699,871 691,875 	"/>
	<polygon fill="#00FF00" stroke="#800080" points="769.732,1024 760.198,1024 748.401,1024 737.055,1024 723.893,1024 713,1024 
		700.745,1024 689.401,1024 677.601,1024 666.255,1023 659,1014 656,1005 652,997 651,986 650,975 647,966 644,957 641,948 639,938 
		640,927 644,919 650,913 656,906 662,900 667,894 674,888 684,886 694,884 704,882 713,879 722,880 731,883 740,886 748,890 
		756,894 762,900 766,908 771,915 775,923 777,933 779,943 781.985,954.428 783.347,963.052 783,972.13 778.808,984.5 776,992 
		774,1002 773,1012 	"/>
	<polygon fill="#00FF00" stroke="#800080" points="808,1023 805,1014 807,1004 810,995 814,986 818,979 824,972 830,966 837,961 
		844,956 851,952 858.5,948 871.393,945.805 881.828,945.805 890,948 899,951 907,955 916,958 924,962 930,968 935,975 941,981 
		945,989 949,997 953.99,1014.338 953.99,1024 	"/>
	<polygon fill="#00FF00" stroke="#800080" points="1087.875,1024 1073.807,1024 1062.912,1024 1052.476,1024 1039.769,1024 
		1027.969,1024 1015.715,1024 1004.823,1024 993.023,1024 980.315,1024 962.615,1024 963.069,1016.151 962.615,1004.351 
		962.159,992.552 961.253,982.566 961.253,973.489 962,964 964,954 969,947 974,939 979,932 984.854,927.197 994,924 1005,922 
		1015,920 1024.627,919.936 1034,921 1042.49,924.02 1050.658,928.105 1060.646,934 1065,938 1069,946 1073,954 1077,962 
		1080.615,971.969 1081.069,983.02 1080,995 1082,1005 1085.153,1015.243 	"/>
	<polygon fill="#00FF00" stroke="#800080" points="1055,873 1043,873 1031,873 1019,873 1007,873 997.561,874 988,873 
		979.406,870.469 969.423,867.29 961.253,863.205 953.99,858.669 945.823,851.859 939.923,844.143 938,834 934.477,825.082 
		932.205,814 935,801 937,791 941,783 944,774 950,768 958,763 965,758 974,755 983,752 992,750 1003,748 1014,747 1025,746 
		1036,745 1047,744 1058,745 1068,747 1078,749 1089,750 1096,755 1100,763 1104,771 1107,780 1111,788 1114.207,798.559 
		1114.653,809 1112,821.452 1109,830.528 1105.573,837.79 1100,847 1095,853 1088,859 1082,864 1077.184,868.13 1065,871 	"/>
	<polygon fill="#00FF00" stroke="#800080" points="1207,934 1196.345,936.274 1184.545,936.274 1174.107,936.274 1158.676,936.274 
		1148,933 1140,929 1134,923 1127,918 1121,912 1115,906 1110,899 1107,890 1104,881 1101,872 1101,862 1104,853 1107,844 1112,836 
		1117,829 1123,824 1132,820 1142,818 1153,817 1163,815 1174,814 1185,815 1196,816 1207,817 1215,821 1223,825 1230,830 1237,835 
		1242,842 1247,849 1252,856 1257,863 1259,873 1259,885 1259,897 1255,905 1249,911 1243,916 1237,922 1229,927 1223.119,930.375 
		1214.043,933.097 	"/>
	<polygon fill="#00FF00" stroke="#800080" points="497.089,0 497.089,11 497.05,22 499.489,34.522 503.891,40.123 512.295,43.727 
		518.697,46.931 527.502,49.331 535.906,53.333 545.91,58.136 551.635,62.098 559.997,67.34 567.923,71.742 574.726,71.742 
		583.932,71.742 591.936,71.742 602.342,69.741 610.346,67.34 618.35,63.738 626.354,58.135 632.759,51 637.562,43.726 
		641.964,35.96 644,28.919 646.365,17.314 647.166,11 649.166,4.507 649.166,0 	"/>
	<polygon fill="#00FF00" stroke="#800080" points="678.5,1 663,11 649.166,28.5 647.787,31.585 640,62.5 644,87.5 655.17,109.561 
		662,124.5 670.5,136.17 685.5,140.5 696.5,140.5 704,132.02 713.427,115.413 726.079,106.977 741.368,102 756.395,96.696 
		771.232,99 779.065,102 788.555,103.55 797.254,92.742 799,82.5 795.146,71.92 785.393,63.745 790.948,55.863 802.527,48.984 
		805.5,35.96 805.5,18.5 799,6.5 793,1 	"/>
	<polygon fill="#00FF00" stroke="#800080" points="839.5,591.5 845.5,600.5 852,608 853.5,617 857.5,627 863,632 870.5,635 880,635 
		890,632 898.5,626.5 905.5,622 911.5,613.5 915,607 918.5,598.5 922,587.5 923.5,580 927,572 930,563 932,554 931,545.5 
		928.311,534.848 920.983,529.497 911.676,526.472 901.905,524.495 892.365,522.285 884.688,519.958 876.079,517.05 
		866.308,513.211 857.351,508.906 849.323,504.486 841.762,500.415 834.434,496.692 824.5,495 816.5,496 813.262,498.67 
		812.944,503.2 812.68,508.209 813.494,513.973 815.007,520.307 817.101,529.032 819.5,538.5 822.5,546.5 825.5,555 827.5,563.5 
		830.5,570.5 834,578.5 836.5,584.5 	"/>
</g>
</svg>
