<?xml version="1.0" encoding="utf-8"?>
<!-- Generator: Adobe Illustrator 16.0.5, SVG Export Plug-In . SVG Version: 6.00 Build 0)  -->
<!DOCTYPE svg PUBLIC "-//W3C//DTD SVG 1.1//EN" "http://www.w3.org/Graphics/SVG/1.1/DTD/svg11.dtd">
<svg version="1.1" id="Layer_1" xmlns="http://www.w3.org/2000/svg" xmlns:xlink="http://www.w3.org/1999/xlink" x="0px" y="0px"
	 width="1280px" height="1024px" viewBox="0 0 1280 1024" enable-background="new 0 0 1280 1024" xml:space="preserve">
<g id="Raw_image">
	
		<image overflow="visible" enable-background="new    " width="1280" height="1024" xlink:href="normal_16.jpg"  transform="matrix(1 0 0 1 2.441406e-004 -0.0017)">
	</image>
</g>
<g id="Not_annotated">
</g>
<g id="Clumps" display="none" opacity="0.5">
	<path display="inline" fill="#FF0000" stroke="#800080" d="M0,1"/>
	<polygon display="inline" fill="#FF0000" stroke="#800080" points="741,456 730,455 718,455 709,452 703,446 696,441 689,436 
		685,428 682,419 678,411 675,402 673,392 669,399 671,409 668,417 665,426 659,433 651,436 644,441 635,444 625,444 614,445 
		604,447 593,446 584,443 573,442 565,438 559,432 552,427 548,419 542,413 539,404 536,395 534,385 532,375 532,363 535,354 
		539,346 543,338 548,331 553,324 555,314 559,306 565,299 569,292 574,284 582,280 589,276 592,267 597,259 602,252 609,247 
		616,242 623,238 632,235 644,234 655,233 665,233 673,237 682,240 691,243 697,249 702,256 706,264 706,275 703,285 698,292 
		706,294 711,288 717,281 723,276 729,270 736,264 744,260 755,259 764,260 773,259 785,259 794,257 791,250 782,249 770,249 
		763,244 760,235 759,226 754,219 754,207 754,197 758,189 758,179 761,169 767,163 772,157 779,151 785,146 790,139 797,133 
		802,127 809,121 815,116 823,111 831,107 839,103 849,101 860,102 870,100 879,101 885,107 896,108 903,113 908,120 913,127 
		913,137 912,148 911,159 909,169 910,178 915,185 915,195 913,204 910,214 908,224 903,230 897,237 892,243 888,251 883,259 
		880,268 874,273 864,275 855,278 846,282 837,284 829,280 822,282 826,290 828,300 831,309 835,317 837,327 839,337 839,346 
		836,356 833,365 831,374 828,383 823,390 817,397 810,401 801,405 793,408 785,412 780,420 776,427 771,434 765,440 758,446 
		751,451 743,455 	"/>
	<polygon display="inline" fill="#FF0000" stroke="#800080" points="657,1023 655,1013 659,1005 663,997 666,988 669,979 673,971 
		677,963 678,952 683,944 689,938 698,935 709,934 718,937 724,943 727,952 735,956 745,958 753,962 758,956 754,948 751,939 
		749,929 752,920 757,913 763,907 769,901 774,894 779,887 786,881 796,879 801,872 806,865 811,858 817,853 827,850 834,845 
		843,842 852,840 862,841 871,844 878,849 889,850 900,849 908,853 919,854 926,859 932,865 934,875 939,873 940,862 942,852 
		945,843 947,833 951,825 957,818 964,813 971,808 980,805 989,802 997,799 1006,796 1018,795 1027,798 1036,801 1048,801 1057,800 
		1063,806 1067,814 1076,817 1083,822 1086,831 1092,837 1096,845 1102,851 1108,857 1116,861 1121,868 1125,876 1128,885 1128,897 
		1130,907 1136,909 1138,900 1142,891 1148,885 1153,878 1155,868 1158,860 1165,854 1173,850 1180,845 1189,842 1200,841 1211,840 
		1221,838 1230,839 1237,844 1243,850 1248,857 1250,867 1254,875 1261,880 1271,880 1276,887 	"/>
	<polygon display="inline" fill="#FF0000" stroke="#800080" points="1045,0 1054,3 1063,6 1062,15 1061,24 1066,31 1070,39 1072,48 
		1069,57 1065,66 1060,72 1052,77 1052,85 1063,84 1073,82 1084,81 1094,81 1101,86 1109,90 1118,93 1125,98 1132,103 1140,107 
		1148,111 1153,118 1156,127 1159,136 1160,147 1158,157 1161,166 1165,174 1165,186 1165,196 1166,207 1165,218 1162,227 1158,235 
		1158,245 1155,254 1149,260 1144,266 1138,272 1131,277 1124,282 1116,286 1108,290 1097,291 1086,290 1076,288 1065,289 1055,291 
		1045,293 1034,294 1022,294 1011,293 1004,288 993,287 985,283 977,279 971,273 967,265 963,257 959,249 956,240 951,233 945,227 
		940,220 936,212 933,203 932,192 933,180 936,172 940,164 944,155 948,147 953,141 960,135 966,129 968,122 959,121 950,122 
		940,120 931,119 929,111 926,102 920,96 921,87 918,78 914,70 909,63 902,66 894,71 887,75 878,79 870,82 861,85 853,89 844,93 
		836,96 827,99 818,102 810,106 800,108 789,109 777,109 766,110 755,109 749,103 744,96 739,89 735,81 731,73 726,66 721,59 
		720,50 722,40 727,33 732,26 738,19 744,14 751,8 761,6 769,2 	"/>
</g>
<g id="Single_nuclei" opacity="0.5">
	<polygon fill="#00FF00" stroke="#800080" points="1274.509,85.72 1267.42,82.818 1261.062,79.527 1257.069,77.011 1252.346,72.769 
		1246.346,66.769 1241.346,59.769 1237.346,51.769 1234.346,42.769 1232.573,34.762 1230.451,24.853 1230.451,14.06 1231.346,6.275 
		1232.752,-0.231 1280.347,-0.231 1280.346,88.016 	"/>
	<polygon fill="#00FF00" stroke="#800080" points="721.819,-0.231 719.486,4.607 713.346,8.769 705.346,12.769 696.346,15.769 
		687.346,18.769 678.346,21.769 668.554,23.656 659.223,25.406 649.115,26.185 640.346,24.823 631.346,20.769 621.12,18.409 
		612.373,13.769 604.597,6.551 600.709,-0.231 	"/>
	<polygon fill="#00FF00" stroke="#800080" points="1280.346,327.592 1270.346,330.769 1259.346,331.769 1251.346,327.769 
		1243.346,323.769 1234.346,320.769 1224.346,318.769 1216.346,314.769 1209.346,309.769 1203.346,303.769 1201.346,293.769 
		1196.346,286.769 1188.346,282.769 1184.346,274.769 1184.346,264.769 1183.346,253.769 1183.346,242.769 1187.346,235.769 
		1190.346,225.769 1192.346,216.769 1194.346,208.769 1198.346,199.769 1200.346,190.769 1205.346,183.769 1208.346,174.769 
		1209.346,163.769 1214.346,155.769 1220.346,149.769 1228.346,145.769 1235.346,140.769 1241.346,134.769 1248.346,129.769 
		1257.346,126.769 1265.346,123.769 1280.346,120.769 	"/>
	<polygon fill="#00FF00" stroke="#800080" points="546.346,778.769 536.346,776.769 527.346,773.769 517.346,773.769 
		508.346,770.769 500.346,766.769 489.346,765.769 481.346,761.769 475.346,755.769 473.346,745.769 470.346,736.769 
		467.346,727.769 466.346,716.769 465.346,705.769 466.346,694.769 465.346,683.769 463.346,673.769 467.346,664.769 
		471.346,657.769 469.346,647.769 477.346,642.769 479.346,633.769 476.346,624.769 476.346,614.769 481.346,607.769 
		486.346,600.769 494.346,595.769 502.346,591.769 508.346,585.769 516.346,583.769 524.346,587.769 531.346,592.769 
		541.346,592.769 551.346,592.769 559.346,588.769 568.346,591.769 575.346,596.769 581.346,602.769 585.346,610.769 
		587.346,620.769 588.346,629.769 595.346,634.769 600.346,641.769 603.346,650.769 607.346,658.769 607.346,668.769 
		605.346,678.769 602.346,687.769 598.346,695.769 594.346,703.769 592.346,713.769 586.346,719.769 583.346,727.769 
		578.346,735.769 573.346,742.769 567.346,748.769 560.346,753.769 557.346,761.769 554.346,770.769 548.346,777.769 	"/>
	<polygon fill="#00FF00" stroke="#800080" points="738.346,695.769 727.346,694.769 719.346,690.769 711.346,694.769 
		700.346,695.769 693.346,692.769 682.346,693.769 670.346,693.769 661.346,690.769 654.346,685.769 645.346,682.769 
		639.346,676.769 633.346,670.769 627.346,664.769 622.346,657.769 620.346,647.769 616.346,639.769 614.346,629.769 
		610.346,621.769 608.346,611.769 608.346,601.769 611.346,592.769 616.346,585.769 619.346,575.769 622.346,567.769 
		624.346,557.769 623.346,546.769 624.346,534.769 627.346,526.769 633.346,519.769 641.346,515.769 646.346,508.769 
		652.346,502.769 661.346,499.769 667.346,494.769 672.346,487.769 679.346,481.769 689.346,481.769 701.346,481.769 
		712.346,480.769 721.346,483.769 726.346,490.769 735.346,493.769 742.346,496.769 752.346,498.769 760.346,494.769 
		771.346,495.769 780.346,498.769 789.346,501.769 795.346,507.769 800.346,514.769 802.346,524.769 808.346,530.769 
		814.346,536.769 818.346,544.769 822.346,552.769 824.346,562.769 830.346,568.769 830.346,578.769 828.346,588.769 
		829.346,599.769 828.346,610.769 825.346,619.769 821.346,627.769 817.346,635.769 812.346,642.769 806.346,648.769 
		801.346,655.769 797.346,662.769 790.346,668.769 784.346,673.769 777.346,678.769 768.346,682.769 759.346,684.769 
		750.346,687.769 743.346,692.769 	"/>
	<polygon fill="#00FF00" stroke="#800080" points="939.346,471.769 928.346,470.769 917.346,469.769 907.346,469.769 
		895.346,469.769 888.346,464.769 883.346,457.769 873.346,455.769 867.346,449.769 860.346,444.769 855.346,437.769 
		849.346,431.769 843.346,425.769 839.346,417.769 838.346,406.769 836.346,396.769 838.346,386.769 838.346,376.769 
		839.346,365.769 843.346,357.769 847.346,349.769 853.346,343.769 857.346,335.769 861.346,326.769 864.346,318.769 
		868.346,310.769 875.346,304.769 879.346,297.769 883.346,289.769 891.346,285.769 900.346,281.769 909.346,278.769 
		919.346,276.769 929.346,274.769 940.346,275.769 949.346,278.769 959.346,280.769 968.346,283.769 975.346,288.769 
		983.346,292.769 989.346,298.769 993.346,306.769 997.346,314.769 1002.346,321.769 1006.346,329.769 1012.346,335.769 
		1013.346,346.769 1013.346,358.769 1014.346,369.769 1016.346,379.769 1015.346,390.769 1013.346,399.769 1008.346,406.769 
		1008.346,417.769 1006.346,427.769 1002.346,435.769 997.346,442.769 990.346,447.769 984.346,453.769 978.346,458.769 
		971.346,463.769 962.346,467.769 953.346,469.769 942.346,470.769 	"/>
	<polygon fill="#00FF00" stroke="#800080" points="950.346,693.769 939.346,692.769 929.346,690.769 920.346,687.769 
		912.346,683.769 904.346,679.769 897.346,674.769 888.346,673.769 880.346,669.769 876.346,661.769 873.346,652.769 
		867.346,646.769 861.346,640.769 858.346,631.769 858.346,621.769 858.346,609.769 855.346,600.769 850.346,593.769 
		847.346,584.769 843.346,576.769 843.346,565.769 846.346,557.769 851.346,550.769 855.346,542.769 862.346,536.769 
		869.346,532.769 877.346,528.769 883.346,522.769 888.346,515.769 894.346,508.769 901.346,504.769 910.346,500.769 
		919.346,497.769 928.346,494.769 938.346,492.769 948.346,490.769 959.346,491.769 968.346,494.769 977.346,497.769 
		986.346,500.769 996.346,500.769 1007.346,501.769 1016.346,504.769 1021.346,511.769 1026.346,518.769 1032.346,524.769 
		1038.346,530.769 1045.346,535.769 1053.346,539.769 1057.346,547.769 1058.346,558.769 1056.346,568.769 1053.346,577.769 
		1052.346,588.769 1050.346,598.769 1046.346,606.769 1041.346,612.769 1036.346,620.769 1032.346,628.769 1028.346,635.769 
		1023.346,642.769 1016.346,647.769 1010.346,653.769 1005.346,661.769 998.346,666.769 991.346,670.769 983.346,675.769 
		977.346,681.769 970.346,686.769 961.346,689.769 953.346,692.769 	"/>
	<polygon fill="#00FF00" stroke="#800080" points="442.346,-0.231 442.346,9.769 442.346,21.769 442.346,33.769 442.346,45.769 
		442.346,57.769 441.096,70.019 439.596,78.269 435.846,88.519 433.346,96.769 429.346,104.769 425.346,112.769 420.346,118.769 
		412.346,123.769 404.346,127.769 398.346,132.769 391.346,138.769 383.346,141.769 374.346,144.769 363.346,145.769 
		353.346,143.769 343.346,141.769 335.346,137.769 328.346,132.769 321.346,127.769 313.096,124.769 305.346,121.769 
		298.346,116.769 293.346,109.769 286.346,104.769 279.346,99.769 273.596,93.519 268.496,85.173 266.346,76.769 264.596,66.769 
		263.096,56.519 262.346,46.769 263.846,35.019 264.346,24.769 266.346,13.769 267.096,-0.231 	"/>
	<polygon fill="#00FF00" stroke="#800080" points="582.346,-0.231 587.346,6.769 586.346,17.769 584.346,27.769 585.346,38.769 
		586.346,49.769 584.346,59.769 581.346,68.769 578.346,77.769 574.346,84.769 567.346,90.769 561.346,96.769 556.346,102.769 
		549.346,108.769 542.346,112.769 533.346,116.769 524.346,118.769 514.346,118.769 503.346,117.769 492.346,116.769 
		485.346,111.769 478.346,106.769 470.346,102.769 463.346,97.769 459.346,89.769 454.346,82.769 449.346,75.769 446.096,68.769 
		443.346,57.769 443.346,45.769 443.346,33.769 443.346,21.769 443.346,9.769 443.346,-0.231 	"/>
	<polygon fill="#00FF00" stroke="#800080" points="209.846,303.104 201.849,301.428 194.432,299.648 185.679,296.088 
		178.114,292.38 170.697,287.187 164.021,283.182 156.157,277.842 149.631,273.391 141.769,267.903 134.797,262.116 
		128.269,256.777 121.594,252.326 114.918,245.947 109.578,239.123 104.386,232.596 100.346,223.769 96.346,215.769 93.346,206.769 
		93.346,197.769 95.346,188.769 98.346,178.769 101.346,170.769 104.346,161.769 109.142,153.464 114.29,145.769 119.439,140.164 
		124.58,133.728 131.023,127.936 136.385,122.788 144.108,118.927 154.346,114.769 165.345,112.706 175.346,111.769 
		186.346,110.769 197.951,111.204 206.815,111.848 217.257,112.921 226.267,115.066 235.346,117.769 242.999,122.788 
		249.346,127.769 255.346,133.769 262.346,138.769 268.346,144.769 274.346,150.769 281.346,155.769 287.346,161.769 
		293.346,167.769 300.346,172.769 306.346,178.769 312.346,184.769 317.513,190.269 322.346,198.769 325.346,207.769 
		327.346,217.769 326.513,224.439 325.346,232.596 323.346,237.437 319.679,243.772 313.846,250.104 306.513,256.104 
		300.179,260.439 293.333,264.238 285.66,268.437 276.846,273.604 269.846,277.271 262.513,281.604 254.179,286.271 
		244.846,291.437 234.846,296.271 226.513,300.104 218.679,303.104 	"/>
	<polygon fill="#00FF00" stroke="#800080" points="279.346,445.769 268.346,444.769 259.346,441.769 250.346,438.769 
		242.346,434.769 235.346,429.769 228.346,424.769 220.927,419.707 215.573,414.516 211.195,408.027 207.626,401.214 
		204.519,393.265 202.597,386.289 201.786,381.261 202.11,377.043 203.407,373.15 204.519,368.77 203.407,362.768 201.137,356.441 
		200.975,351.769 201.047,346.248 203.57,341.517 206.652,334.703 211.195,326.106 215.346,318.769 220.346,311.272 
		226.346,304.772 233.846,299.104 241.013,294.937 248.846,290.771 256.179,286.937 264.013,282.437 271.346,278.604 
		278.679,274.271 287.179,269.104 294.179,265.771 302.346,263.439 310.679,262.272 320.179,261.603 330.459,263.031 
		339.709,266.854 346.338,271.466 352.736,276.897 359.115,283.474 363.346,288.769 366.897,296.732 369.103,305.767 
		370.346,317.769 370.346,329.769 370.346,341.769 370.346,353.769 368.421,363.279 363.346,370.769 358.346,377.769 
		354.346,384.769 351.145,393.284 347.053,400.559 342.279,408.287 338.187,415.108 331.595,421.699 325.457,427.837 
		319.547,433.748 312.346,439.769 305.346,443.769 297.27,445.796 287.268,447.013 	"/>
	<polygon fill="#00FF00" stroke="#800080" points="138.564,447.013 132.346,445.769 122.346,443.769 113.346,440.769 
		103.346,438.769 94.346,435.769 85.346,432.769 77.346,428.769 72.346,421.769 68.346,413.769 63.346,406.769 59.346,398.769 
		56.346,389.769 53.346,380.769 50.346,371.769 49.346,360.769 48.346,349.769 47.346,338.769 45.346,328.769 44.346,317.769 
		43.346,306.769 42.346,295.769 42.346,285.769 44.346,275.769 47.421,265.974 51.573,257.769 55.58,252.623 58.991,246.244 
		64.036,239.865 68.635,236.304 75.162,233.782 81.244,232.596 88.809,232.596 97.265,233.781 104.682,237.342 111.951,244.166 
		118.33,250.99 127.083,257.769 135.835,264.49 144.142,271.313 151.857,276.506 159.274,281.401 166.988,286.74 173.812,291.043 
		183.156,296.68 190.427,299.796 197.346,304.098 201.997,309.883 205.841,316.049 206.815,323.996 206.166,330.486 
		202.921,337.948 201.059,341.312 200.158,344.39 199.839,350.277 199.839,355.63 200.665,360.1 201.83,363.131 202.898,367.28 
		202.507,371.094 200.975,375.421 200.001,382.234 199.964,387.625 200.488,396.998 200.953,407.17 200.163,413.707 
		196.108,419.222 189.944,423.44 183.131,427.009 176.346,431.769 168.346,435.769 160.346,439.769 151.346,443.769 
		143.346,446.769 	"/>
	<polygon fill="#00FF00" stroke="#800080" points="839.039,282.769 831.346,279.769 824.346,274.769 818.346,268.769 
		812.152,263.233 804.346,258.769 797.674,254.731 795.299,251.169 792.687,247.488 786.988,246.656 780.575,248.676 
		772.266,247.844 763.346,241.769 761.346,231.769 758.346,222.769 755.346,213.769 754.346,202.769 757.346,193.769 
		760.346,184.769 761.596,173.269 765.346,166.769 770.346,160.769 776.346,154.769 783.346,149.769 789.346,142.769 
		794.346,135.769 800.346,130.769 806.346,124.769 813.346,118.769 820.346,114.769 828.346,109.769 835.346,105.769 
		844.346,101.769 855.096,101.269 866.346,101.769 874.596,103.019 882.346,105.769 892.346,107.769 900.346,111.769 
		905.346,118.769 910.346,125.769 913.346,134.769 911.346,144.769 910.346,155.769 909.346,165.769 909.096,174.519 
		912.346,183.769 913.846,192.019 912.346,201.769 909.346,210.769 907.346,220.769 903.346,227.769 897.346,233.769 
		892.346,240.769 887.346,248.769 882.346,255.769 880.346,265.769 874.346,271.769 865.346,273.769 855.346,276.769 
		847.346,279.769 	"/>
	<polygon fill="#00FF00" stroke="#800080" points="740.346,458.769 729.346,457.769 718.346,456.769 708.346,454.769 
		702.346,448.769 696.346,442.769 691.346,435.769 686.346,428.769 682.346,420.769 679.346,411.769 676.346,402.769 
		675.346,393.769 676.346,382.769 676.346,370.769 678.346,359.769 680.346,350.769 683.346,341.769 687.346,333.769 
		691.346,324.769 694.346,316.769 698.346,308.769 702.346,300.769 707.346,292.769 711.346,285.769 717.346,278.769 
		722.346,271.769 727.346,264.769 733.976,260.441 743.346,256.769 753.346,254.769 763.451,254.021 774.346,253.769 
		784.346,255.769 794.346,257.769 804.246,260.566 811.293,264.566 818.057,270.758 822.914,276.663 827.346,284.769 
		830.346,293.769 833.346,302.769 836.346,311.769 840.346,319.769 843.346,328.769 843.346,338.769 841.346,348.769 
		839.346,358.769 837.346,368.769 835.346,378.769 829.346,384.769 823.346,390.769 817.346,396.769 810.346,400.769 
		802.346,404.769 793.346,408.769 785.346,411.769 781.346,419.769 777.346,427.769 772.346,435.769 768.346,443.769 
		761.346,447.769 753.346,451.769 745.346,455.769 	"/>
	<polygon fill="#00FF00" stroke="#800080" points="609.346,450.769 599.346,448.769 588.346,447.769 578.346,445.769 
		568.346,443.769 560.346,439.769 555.346,432.769 550.346,425.769 545.346,418.769 540.346,411.769 537.346,402.769 
		534.346,393.769 531.346,384.769 529.346,374.769 532.346,365.769 535.346,356.769 538.346,347.769 542.346,339.769 
		546.346,330.769 549.346,322.769 553.346,314.769 557.346,305.769 560.346,297.769 565.346,290.769 570.346,283.769 
		575.346,276.769 580.346,269.769 585.346,262.769 590.346,255.769 596.346,248.769 602.346,242.769 610.346,238.769 
		618.346,234.769 628.346,232.769 637.346,229.769 647.007,228.631 656.346,228.047 663.346,229.769 671.346,233.769 
		680.346,236.769 688.346,240.769 696.346,244.769 701.289,249.059 705.375,257.231 708.346,268.769 710.346,278.769 
		709.346,288.769 705.346,296.769 700.346,304.769 696.346,312.769 693.346,320.769 689.346,329.769 685.346,337.769 
		682.346,345.769 678.346,354.769 677.346,365.769 676.346,376.769 675.346,387.769 674.346,398.769 674.346,410.769 
		673.346,421.769 669.346,428.769 661.346,433.769 654.346,437.769 646.346,441.769 636.346,444.769 627.346,446.769 
		617.346,448.769 	"/>
	<polygon fill="#00FF00" stroke="#800080" points="854.346,1018.769 842.346,1018.769 832.346,1016.769 821.346,1015.769 
		813.346,1011.769 803.346,1009.769 796.346,1004.769 791.346,997.769 784.346,992.769 777.346,987.769 770.346,982.769 
		767.152,979.24 765.123,975.86 763.5,972.211 761.879,968.83 760.121,965.316 758.635,959.367 757.477,954.007 756.346,948.769 
		752.346,940.769 751.346,929.769 753.346,921.769 758.346,913.769 764.346,907.769 770.346,901.769 775.346,895.769 
		780.346,887.769 786.346,882.769 796.346,879.769 801.346,873.769 806.346,866.769 811.346,859.769 818.346,853.769 
		827.346,850.769 834.346,846.769 843.346,842.769 853.346,840.769 864.346,841.769 872.346,845.769 879.346,850.769 
		891.346,850.769 901.346,850.769 910.346,853.769 918.348,856.041 926.007,858.214 928.84,862.168 931.881,866.408 
		932.281,870.116 933.649,878.326 935.146,883.962 936.201,887.572 937.346,890.038 938.164,893.864 938.164,899.737 
		938.847,906.976 938.847,914.625 936.252,922.821 931.881,931.153 927.346,945.769 922.346,952.769 921.346,962.769 
		920.346,973.769 914.346,978.769 904.346,980.769 895.346,984.769 889.346,989.769 882.346,994.769 873.346,997.769 
		866.346,1003.769 862.346,1010.769 856.346,1017.769 	"/>
	<polygon fill="#00FF00" stroke="#800080" points="1192.346,1020.769 1180.346,1020.769 1168.346,1020.769 1159.346,1017.769 
		1151.346,1013.769 1146.346,1006.769 1142.346,998.769 1140.346,988.769 1133,981.741 1125.865,976.295 1121.552,968.529 
		1121.552,959.901 1124.219,950.698 1128.166,943.508 1130.346,931.769 1133.346,923.769 1136.22,913.309 1138.346,906.769 
		1140.346,896.769 1145.346,889.769 1151.346,883.769 1155.346,875.769 1157.346,865.769 1162.346,857.769 1169.346,853.769 
		1177.346,848.769 1184.346,844.769 1195.346,842.769 1206.346,841.769 1216.346,839.769 1226.528,839.395 1235.156,841.983 
		1240.346,847.769 1246.346,853.769 1249.346,862.769 1251.346,872.769 1257.346,878.769 1264.49,881.097 1271.815,880.385 
		1275.276,884.427 1280.346,887.433 1280.346,999.787 1275.131,1004.348 1272.463,1009.946 1266.346,1013.769 1256.346,1012.769 
		1245.346,1013.769 1236.346,1017.769 1225.346,1017.769 1214.346,1018.769 1203.346,1019.769 1197.193,1019.769 	"/>
	<polygon fill="#00FF00" stroke="#800080" points="1074.098,990.387 1062.593,994.769 1051.346,994.769 1039.346,994.769 
		1027.346,994.769 1018.346,991.769 1011.346,986.769 1003.346,982.769 995.346,978.769 988.346,973.769 983.346,966.769 
		977.346,960.769 972.346,953.769 966.346,947.769 961.346,940.769 955.346,934.769 949.346,928.769 946.346,919.769 
		942.662,912.446 939.94,902.469 939.346,890.769 939.498,881.673 938.847,871.736 939.257,861.902 939.785,852.911 
		941.346,843.769 944.346,834.769 947.346,826.769 950.346,817.769 954.453,810.346 960.346,803.769 970.346,800.769 
		979.346,797.769 988.346,795.769 998.346,792.769 1009.346,791.769 1021.346,791.769 1033.346,791.769 1045.346,791.769 
		1052.346,796.769 1059.346,801.769 1065.346,807.769 1072.346,812.769 1078.346,818.769 1084.346,824.769 1091.346,829.769 
		1097.346,835.769 1104.346,840.769 1110.346,846.769 1117.346,851.769 1123.346,857.769 1126.346,866.769 1128.346,876.769 
		1131.346,885.769 1131.906,893.269 1133.631,903.242 1134.207,911.87 1132.194,920.5 1128.741,929.769 1127.346,938.769 
		1123.346,947.769 1116.088,955.3 1108.033,960.189 1102.281,965.653 1096.819,970.543 1091.929,974.569 1087.039,979.745 
		1081.574,984.923 	"/>
	<polygon fill="#00FF00" stroke="#800080" points="1035.846,292.769 1027.346,292.769 1016.346,291.519 1007.346,288.769 
		998.346,285.769 989.346,282.769 981.346,278.769 974.346,273.769 969.346,266.769 965.346,258.769 961.346,250.769 
		958.346,241.769 954.346,233.769 947.346,228.769 942.346,221.769 938.346,213.769 935.346,204.769 933.346,194.769 
		933.346,182.769 937.346,173.769 940.346,165.769 944.346,157.769 948.346,149.769 953.346,142.769 960.346,136.769 
		965.346,130.769 970.744,126.883 977.159,122.655 985.906,118.607 993.428,114.953 1001.594,110.118 1011.156,105.605 
		1020.826,101.414 1028.18,97.603 1036.513,93.603 1044.346,90.769 1051.989,87.231 1062.346,84.769 1073.346,83.769 
		1083.346,81.769 1093.096,83.019 1100.346,86.769 1108.346,90.769 1117.346,93.769 1124.346,98.769 1131.346,103.769 
		1139.346,107.769 1147.346,111.769 1152.346,118.769 1155.346,127.769 1158.346,136.769 1159.346,147.769 1157.346,157.769 
		1160.346,166.769 1163.096,174.769 1164.346,186.769 1164.346,198.769 1165.346,209.769 1164.346,219.769 1160.346,228.769 
		1156.346,236.769 1156.346,246.769 1153.346,254.769 1146.346,260.769 1141.346,266.769 1135.346,272.769 1128.346,277.769 
		1120.346,282.769 1113.346,286.769 1103.346,288.769 1093.346,288.769 1082.346,287.769 1071.346,286.769 1061.346,288.769 
		1051.346,290.769 1043.57,291.476 	"/>
	<polygon fill="#00FF00" stroke="#800080" points="781.309,108.026 771.978,108.609 762.841,108.22 755.26,105.304 749.039,100.639 
		743.207,94.03 738.736,86.642 734.265,80.615 729.405,73.033 725.323,65.453 722.346,57.094 720.656,48.152 722.346,41.769 
		727.346,34.769 733.346,27.769 738.346,21.769 745.346,15.769 751.346,10.769 758.346,4.769 760.898,2.079 764.201,-0.231 
		944.99,-0.231 942.657,4.411 939.742,9.272 936.826,13.938 933.346,19.77 929.828,26.185 926.135,32.406 922.053,39.015 
		917.58,45.43 912.722,51.651 907.473,58.455 901.252,64.092 894.346,68.769 887.346,73.769 880.346,77.769 872.869,81.769 
		864.346,85.769 855.346,88.769 846.346,91.769 837.346,94.769 828.346,97.769 819.346,100.769 809.346,102.769 800.346,105.769 
		790.64,106.471 	"/>
	<polygon fill="#00FF00" stroke="#800080" points="0.346,139.749 9.694,142.797 19.708,142.797 30.594,142.797 42.346,141.273 
		49.316,136.701 56.718,131.476 64.555,126.251 72.392,120.591 78.924,113.625 85.89,107.529 88.067,99.692 90.679,89.677 
		90.679,82.711 90.679,77.486 93.346,69.648 93.346,61.811 93.346,53.103 91.551,44.395 89.809,37.428 88.938,30.026 89.373,21.318 
		88.938,14.352 88.938,9.127 88.067,-0.231 0.345,-0.23 	"/>
	<polygon fill="#00FF00" stroke="#800080" points="91.551,-0.231 91.551,9.127 91.551,20.883 91.551,32.639 95.905,40.476 
		102,48.749 109.402,57.457 115.498,66.165 123.335,74.873 132.479,82.711 140.751,89.677 151.201,98.821 160.78,104.481 
		171.665,107.094 182.096,108.519 195.096,108.519 206.933,107.094 218.346,104.019 226.596,99.519 232.346,92.769 237.412,84.452 
		242.637,78.357 248.297,72.769 252.651,66.165 256.57,59.269 258.096,51.769 259.096,40.519 259.346,30.019 259.596,20.769 
		258.747,9.562 258.311,-0.231 	"/>
	<polygon fill="#00FF00" stroke="#800080" points="946.207,-0.231 943.265,5.252 941.08,8.781 938.475,12.984 934.777,18.951 
		931.666,24.835 928.557,30.382 925.615,35.088 922.926,39.458 920.237,43.323 917.8,46.854 915.195,50.132 912,54.189 
		910.32,56.856 909.096,60.519 910.346,65.269 911.596,69.019 913.846,74.019 917.596,78.519 921.346,81.769 919.096,86.769 
		916.346,91.769 919.096,98.019 923.096,101.519 926.096,103.269 927.846,106.269 927.846,112.269 930.346,116.519 934.596,119.519 
		940.346,120.769 946.596,120.769 952.846,120.769 959.596,120.769 965.846,119.519 972.846,119.269 979.096,117.269 
		986.096,116.519 992.346,113.769 998.096,110.019 1005.096,106.519 1010.834,104.423 1016.596,101.769 1021.096,99.769 
		1024.846,97.269 1029.846,94.269 1034.346,91.769 1038.096,89.019 1042.531,86.371 1046.293,83.578 1051.846,78.769 
		1055.846,75.269 1060.346,70.519 1063.596,65.769 1065.596,60.269 1066.846,55.519 1066.846,49.519 1065.596,43.019 
		1064.096,38.019 1063.596,32.519 1061.596,27.019 1059.846,22.769 1056.846,17.019 1052.846,12.519 1049.346,7.269 1045.846,2.769 
		1044.346,-0.231 	"/>
	<polygon fill="#00FF00" stroke="#800080" points="1000.82,1024 1008.777,1018.81 1018.348,1016.388 1027.657,1010.652 
		1034.787,1005.661 1042.679,1001.628 1051.539,998.889 1059.631,997.476 1066.664,995.285 1075.429,991.595 1082.694,988.597 
		1090.881,987.559 1100.914,989.288 1107.861,993.185 1113.713,996.9 1121.552,999.091 1127.109,1001.028 1132.455,1005.982 
		1136.734,1010.652 1140.655,1015.285 1143.506,1018.769 1145.645,1023.769 	"/>
	<polygon fill="#00FF00" stroke="#800080" points="655.096,1023.769 655.096,1018.769 656.596,1013.769 656.596,1009.269 660.596,1004.269 662.096,1000.519 665.096,996.519 666.846,991.019 668.096,985.019 670.346,978.269 672.596,973.519 677.096,968.019 678.846,962.019 678.846,954.269 682.596,947.019 685.846,943.269 690.096,940.519 695.846,937.269 702.346,935.519 708.846,935.519 715.846,936.769 719.346,939.269 723.846,942.519 726.096,947.269 726.096,953.519 728.846,955.519 732.346,957.269 736.346,958.769 740.346,959.019 744.846,957.519 749.596,958.769 753.096,962.019 755.846,965.269 759.480,969.280 762.196,973.706 763.993,976.977 765.243,979.602 767.628,984.068 769.098,989.021 769.098,993.271 769.857,998.667 773.107,1001.917 776.098,1005.021 779.848,1009.521 782.098,1013.271 784.598,1018.771 784.598,1023.771 655.096,1023.769 655.096,1023.769"/>
</g>
</svg>
