<?xml version="1.0" encoding="utf-8"?>
<!-- Generator: Adobe Illustrator 16.0.5, SVG Export Plug-In . SVG Version: 6.00 Build 0)  -->
<!DOCTYPE svg PUBLIC "-//W3C//DTD SVG 1.1//EN" "http://www.w3.org/Graphics/SVG/1.1/DTD/svg11.dtd">
<svg version="1.1" id="Layer_1" xmlns="http://www.w3.org/2000/svg" xmlns:xlink="http://www.w3.org/1999/xlink" x="0px" y="0px"
	 width="1360px" height="1024px" viewBox="0 0 1360 1024" enable-background="new 0 0 1360 1024" xml:space="preserve">
<g id="Raw_image">
	
		<image overflow="visible" enable-background="new    " width="1360" height="1024" xlink:href="normal_36.jpg"  transform="matrix(1 0 0 1 0 -2.441406e-004)">
	</image>
</g>
<g id="Not_annotated" display="none" opacity="0.5">
</g>
<g id="Clumps" display="none" opacity="0.5">
	<polygon display="inline" fill="#FF0000" stroke="#800080" points="0,584 7,581 15,583 22,586 28,590 34,594 38,600 41,607 44,614 
		45,623 43,631 40,637 35,642 29,647 24,651 18,655 11,659 4,661 	"/>
	<polygon display="inline" fill="#FF0000" stroke="#800080" points="831,169 822,168 815,165 809,161 803,157 799,151 795,145 
		792,138 791,129 790,120 790,110 784,106 775,107 766,108 756,109 747,109 740,112 734,116 725,117 719,113 716,106 716,98 720,92 
		724,86 727,79 729,71 732,63 735,56 739,50 743,44 746,38 750,31 754,26 761,22 771,22 779,24 786,27 792,31 796,37 800,43 803,50 
		804,59 805,68 804,77 805,86 811,90 820,89 830,89 839,90 846,93 853,96 858,101 863,106 866,113 868,121 869,130 868,139 865,145 
		860,151 855,156 850,160 844,164 837,167 	"/>
	<polygon display="inline" fill="#FF0000" stroke="#800080" points="365,309 356,308 350,304 344,300 340,294 337,287 335,279 
		335,269 337,261 340,253 345,248 351,244 358,241 367,240 373,237 380,233 388,233 396,235 402,239 407,244 412,249 417,254 
		418,263 415,270 408,272 401,274 398,281 395,288 392,295 387,300 381,304 374,307 366,308 	"/>
	<polygon display="inline" fill="#FF0000" stroke="#800080" points="1186,0 1186,6 1190,12 1197,15 1203,19 1208,24 1212,30 
		1215,37 1216,46 1214,54 1211,61 1208,68 1204,73 1198,78 1192,81 1183,82 1175,80 1167,78 1162,73 1159,66 1157,58 1155,50 
		1157,41 1160,34 1163,28 1167,22 1169,14 1163,10 1155,8 1147,6 1140,3 	"/>
	<polygon display="inline" fill="#FF0000" stroke="#800080" points="1220,862 1211,861 1203,859 1196,856 1189,853 1184,848 
		1178,844 1174,838 1170,832 1171,822 1174,816 1179,810 1185,807 1195,806 1204,805 1208,800 1216,797 1223,800 1230,803 1233,810 
		1233,818 1235,826 1239,832 1237,840 1234,847 1231,853 1226,858 	"/>
</g>
<g id="Single_nuclei" opacity="0.5">
	<path fill="#00FF00" stroke="#800080" d="M0,1"/>
	<polygon fill="#00FF00" stroke="#800080" points="0,186 6,183 15,181 23,183 31,185 37,189 43,193 47,199 51,205 53,213 53,221 
		52,230 49,237 44,242 38,245 31,248 22,249 13,248 0,239.978 	"/>
	<polygon fill="#00FF00" stroke="#800080" points="0,283 7,282 14,285 20,289 25,294 28,301 29,309 26,317 22.68,323.666 19,329 
		14,334 8,338 0,341.117 	"/>
	<polygon fill="#00FF00" stroke="#800080" points="0,686 6,682 14,680 24,680 33,681 40,684 46,688 50,694 53,701 54,710 53,719 
		51,727 49,734 45,740 40,745 33,748 24,749 15,748 8,745 0,736.781 	"/>
	<polygon fill="#00FF00" stroke="#800080" points="39,933 29,933 21,931 15,927 10,922 6,916 3,909 0,902 0,892 2,884 5,877 9,871 
		15,866 22,863 31,862 40,863 47,866 52,871 56,877 60,883 62,891 63,900 62,909 59,916 55,922 50,927 44,931 	"/>
	<polygon fill="#00FF00" stroke="#800080" points="77,837 68,836 60,834 54,830 49,825 45,819 43,811 42,802 42,794 43,785 45,777 
		49,770 54,765 60,761 67,759 77,758 86,759 93,762 99,766 103,772 106,779 108,787 109,796 107,804 105,812 102,819 98,825 93,830 
		87,834 80,836 	"/>
	<polygon fill="#00FF00" stroke="#800080" points="89,691 80,690 73,687 67,683 61,679 57,673 53,667 51,659 50,650 51,640 55,634 
		60,630 66,626 73,623 82,621 91,622 98,625 103,630 107,636 110,643 112,651 112,661 110,669 108,676 104,682 99,687 92,690 	"/>
	<polygon fill="#00FF00" stroke="#800080" points="127,763 117,763 109,761 102,758 96,754 93,747 91,739 91,729 94,722 97,715 
		101,709 106,704 113,700 121,698 130,699 137,702 143,706 148,711 152,717 153,726 152,735 150,743 147,749 142,755 137,759 
		130,762 	"/>
	<polygon fill="#00FF00" stroke="#800080" points="131,904 122,903 114,901 107,898 102,893 99,886 98,877 99,868 103,861 106,855 
		111,850 117,845 124,842 133,841 141,843 148,846 154,850 159,855 162,862 164,870 163,879 160,886 157,892 151,897 145,900 
		137,903 	"/>
	<polygon fill="#00FF00" stroke="#800080" points="134,999 125,998 118,995 112,991 107,986 104,979 101,972 101,962 103,954 
		107,948 112,942 117,938 124,934 131,931 139,929 149,929 157,931 163,935 167,941 170,948 170,958 169,967 167,974 163,981 
		158,986 153,991 147,995 141.358,997.464 	"/>
	<polygon fill="#00FF00" stroke="#800080" points="158,289 148,289 141,286 134,283 128,279 123,274 119,268 114,263 111,256 
		107,250 105,242 103,234 104,225 105,216 108,208 111,201 115,196 121,191 127,188 135,185 144,184 153,185 161,187 168,190 
		174,194 179,199 184,204 188,210 192,216 195,223 198,230 198,240 197,248 194,256 191,262 186,268 182,274 177,279 172,283 
		165,287 	"/>
	<polygon fill="#00FF00" stroke="#800080" points="138,612 129,611 122,608 116,604 112,598 110,590 111,581 113,572 115,565 
		119,558 123,552 128,548 135,544 144,543 153,544 160,547 165,552 168,559 170,567 170,577 168,584 164,591 160,597 156,602 
		151,607 145,611 	"/>
	<polygon fill="#00FF00" stroke="#800080" points="184,489 175,488 166,487 160,483 154,479 150,473 147,466 146,457 148,449 
		150,441 153,434 157,427 161,421 166,416 172,412 178,408 185,405 193,403 203,403 212,404 219,407 225,411 231,415 236,420 
		239,427 241,435 242,444 241,452 238,459 234,465 229,470 223,474 217,478 210,482 203,484 195,486 187,488 	"/>
	<polygon fill="#00FF00" stroke="#800080" points="268,0 267,6 261,11 254,13 249,19 244,24 237,26 228,25 221,22 214,19 
		202.136,13.324 198.294,6.601 194.773,0 	"/>
	<polygon fill="#00FF00" stroke="#800080" points="237.218,1024 235,1016 236,1007 238,999 239,990 244,984 251,981 259,981 
		265,985 271,989 281,989 290,990 296,994 300,1000 305,1005 307,1013 306.337,1024 	"/>
	<polygon fill="#00FF00" stroke="#800080" points="282,714 272,714 263,713 256,710 250,706 246,700 243,693 241,685 241,675 
		243,667 247,660 251,655 256,650 263,646 270,643 278,641 288,641 295,644 300,649 305,654 308,661 310,669 311,678 310,687 
		307,694 303,700 299,705 293,710 286,713 	"/>
	<polygon fill="#00FF00" stroke="#800080" points="350,445 341,444 332,443 325,442 319,438 314,433 310,427 305,422 302,415 
		300,407 302,398 306,392 311,388 316,383 321,378 327.19,375.76 336,374 344,376 350,380 356,384 360,390 363,397 364,406 364,414 
		362,422 361,431 358,438 354,443 	"/>
	<polygon fill="#00FF00" stroke="#800080" points="373,789 363,789 355,787 349,783 343,779 338,774 334,768 333,759 334,750 
		337,743 341,737 346,732 352,727 358,723 365,720 373,718 382,717 390,719 397,722 401,728 404,735 404,744 402,753 400,761 
		397,768 394,774 389,780 383,784 377,787 	"/>
	<polygon fill="#00FF00" stroke="#800080" points="447,0 445,5 438,8 429,9 419,9 410,10 400,10 390,10 382,8 375,5 372,0 	"/>
	<polygon fill="#00FF00" stroke="#800080" points="491.859,860.054 486,860 477,859 470,856 465,851 459,847 456,840 455,831 
		458,823 461,816 464,810 468,804 473,798 478,793 483,788 489,785 496,782 504,779 512,778 521,778 529,780 536,783 542,787 
		546,793 550,799 553,806 552,815 550,823 547,829 542,835 537,839 531,843 524,847 518,850 511,854 505,857 497,859 	"/>
	<polygon fill="#00FF00" stroke="#800080" points="538,530 529,529 521,527 513,525 505,523 498,520 492,516 487,511 483,505 
		481,497 480,488 479,479 481,471 483,463 487,456 491,451 496,445 501,441 507,436 513,432 519,428 528,427 534,431 540,435 
		544,441 547,448 549,456 550,464 549,474 550,483 549,492 549,502 548,510 546,519 544,526 	"/>
	<polygon fill="#00FF00" stroke="#800080" points="513,622 503,622 496,619 490,615 485,610 481,604 479,596 480,587 484,580 
		488,574 493,569 500,566 508,564 518,564 526,566 532,570 537,575 541,581 543,589 543,599 541,607 537,612 530,616 523,619 
		516,621 	"/>
	<polygon fill="#00FF00" stroke="#800080" points="554,0 558,6 559,15 560,24 559,33 557,41 554,48 551,55 547,60 542,65 536,69 
		529,72 521,74 512,73 505,70 498,67 493,62 489,56 486,49 484,41 484,31 486,23 489.653,10.443 491.254,0 	"/>
	<polygon fill="#00FF00" stroke="#800080" points="547.038,990.804 543,990 536,987 532,981 524,979 516,977 513,970 514,961 
		515,952 515,944 519,938 524,933 530,928 537.142,924.83 544,923 551,919 557,916 565,913 574,914 578,920 578,930 580,938 
		580,948 578,955 575,962 572,970 569,977 564.731,983.307 560,987 553,990 	"/>
	<polygon fill="#00FF00" stroke="#800080" points="576,366 567,365 558,364 551,361 547,355 543,349 540,342 540,333 542,326 
		543,317 546,310 550,303 555,298 563,296 571,298 578,301 583,306 588,311 592,317 595,324 596,333 596,342 593,350 590,357 
		586,363 579,365 	"/>
	<polygon fill="#00FF00" stroke="#800080" points="586.74,142.507 582.417,132.125 583.199,124.091 588,116 593,111 599,107 
		607,105 616,104 624,106 631,109 636,114 641,119 644,126 646,134 646,144 645,153 642.054,159.644 637,164 626.759,167.651 
		615.426,167.297 603.385,163.047 592.761,153.84 	"/>
	<polygon fill="#00FF00" stroke="#800080" points="598.771,192 588.771,192 581.771,189 575.771,185 571.771,179 567.771,173 
		567.771,165 568.771,156 571.771,149 578.241,142.861 584.97,140.028 592.407,153.131 600.552,161.631 609.051,166.235 
		618.259,168.005 624.28,169.422 622.771,178 617.771,183 610.771,187 604.771,190 	"/>
	<polygon fill="#00FF00" stroke="#800080" points="648,0 650,7 648,15 645,22 641,29 636,33 627,35 619,36 611,34 604,31 598,27 
		594,21 591.786,8.842 592.107,-0.123 	"/>
	<polygon fill="#00FF00" stroke="#800080" points="662,778 652,778 643,777 635,775 628,772 623,767 619,761 615,755 611,749 
		608,742 607,733 608,724 611,717 615,711 622,707 629,705 637,703 647,702 656,703 664,705 671,708 677,712 683,716 688,721 
		692,727 694,735 695,744 694,753 690,759 686,764 681,769 675,773 668,776 	"/>
	<polygon fill="#00FF00" stroke="#800080" points="643,286 634,285 626,283 620,279 615,274 612,267 612,259 614,251 618,244 
		623,239 629,235 635,232 643,229 652,230 660,232 667,235 672,240 677,245 681,251 682,260 680,268 676,274 671,279 664,281 
		656,283 648,285 	"/>
	<polygon fill="#00FF00" stroke="#800080" points="645,483 637,481 630,478 626,472 621,467 620,458 621,449 623,441 627,435 
		632,429 638,425 645,423 654,421 662,423 669,426 675,430 680,435 684,441 685,450 683,457 677,461 672,467 668,472 663,477 
		656,480 648,482 	"/>
	<polygon fill="#00FF00" stroke="#800080" points="655,949 645,949 638,946 632,942 627,937 624,930 625,921 627,913 631,907 
		636,901 642,897 648,894 655,891 665,890 674,891 681,894 686,899 689,906 690,915 689,924 686,930 681,936 676,940 670,944 
		663,947 	"/>
	<polygon fill="#00FF00" stroke="#800080" points="682,581 672,581 663,580 655,578 647,576 642,571 636,567 633,560 633,550 
		635,542 639,535 643,530 649,526 656,522 664,520 672,520 680,522 687,525 692,530 696,536 699,543 701,551 701,559 699,567 
		695,573 690,577 683,580 	"/>
	<polygon fill="#00FF00" stroke="#800080" points="755,0 754,7 748,11 740,12 731,11 722,10 714,8 707,5 699.685,0 	"/>
	<polygon fill="#00FF00" stroke="#800080" points="771,932 761,932 752,931 745,928 739,924 734,919 729,914 726,907 723,900 
		721,892 721,882 723,874 727,868 732,862 737,858 744,855 753,853 762,854 769,857 775,861 780,866 785,871 788,878 791,885 
		792,894 793,902 790,910 787,917 784,923 779,928 772,931 	"/>
	<polygon fill="#00FF00" stroke="#800080" points="843,264 834,263 825,262 817,260 811,256 804,253 798,249 793,244 788,239 
		785,232 782,225 781,216 781,207 785,201 791,197 798,194 806,192 814,190 822,188 830,190 837,193 843,197 848,202 851,209 
		855,215 858,222 860,230 860,240 858,248 854,254 850,259 844,263 	"/>
	<polygon fill="#00FF00" stroke="#800080" points="859.076,722.4 848.901,731.777 837.528,737.962 824.129,737.649 817,736 810,733 
		805,728 801,722 799,714 801,706 804,698 808,692 812,687 817,682 823,678 830,674 838.063,672.785 846,674 853,677 860,680 
		865,685 868,692 868.652,701.85 866.458,712.224 863.466,717.412 	"/>
	<polygon fill="#00FF00" stroke="#800080" points="841.12,745.544 835.733,744.147 831.543,740.157 837.729,738.56 844.711,734.57 
		849.898,731.976 859.275,723.397 865.66,716.015 868.054,710.629 871.047,717.013 871.845,723.597 869.797,729.606 
		864.797,734.606 859.874,739.159 852.797,743.606 847.305,745.144 	"/>
	<polygon fill="#00FF00" stroke="#800080" points="821,1023 817,1017 817,1007 820,999 822,992 826,986 832,982 840,979 848,977 
		857,978 865,978 874,979 882,981 890,983 897,986 904,989 909,994 913,1000 915,1008 917,1016 916,1023 	"/>
	<polygon fill="#00FF00" stroke="#800080" points="913,914 904,913 896,911 889,908 883,904 879,898 875,892 872,885 870,877 
		870,867 874,860 879,855 884,851 891,847 901,847 908,850 913,855 918,860 922,866 926,872 930,878 932,886 932,896 930,903 
		925,909 919,912 	"/>
	<polygon fill="#00FF00" stroke="#800080" points="936,0 935,6 929,11 923,15 916,17 907,18 898,17 890,15 884,11 879,6 873,2 	"/>
	<polygon fill="#00FF00" stroke="#800080" points="945,807 936,806 928,804 922,800 916,796 910,792 906,786 904,778 902,770 
		903,761 908,755 914,751 920,748 929,746 937,748 943,752 948,757 954,761 958,767 961,774 964,781 963,790 960,796 955,801 
		949,805 	"/>
	<polygon fill="#00FF00" stroke="#800080" points="938,125 929,124 922,121 917,116 913,110 910,103 909,94 910,85 912,76 914,69 
		918,62 922,57 927,52 933,47 940,44 948,42 957,41 965,43 972,46 977,51 982,56 985,63 987,71 987,81 985,89 982,95 977,101 
		973,107 968,112 963,116 957,120 950,123 941,124 	"/>
	<polygon fill="#00FF00" stroke="#800080" points="977,691 967,691 960,688 954,684 951,677 948,670 947,661 949,653 952,646 
		956,640 961,635 968,631 975,629 985,628 992.963,629.111 999.384,632.965 1004,639 1009,644 1013,650 1015,658 1016,667 1014,674 
		1009,680 1004,684 996,686 987,685 982.85,686.743 	"/>
	<polygon fill="#00FF00" stroke="#800080" points="1031,794 1021,794 1014,791 1008,787 1003,782 998,777 993,772 990,765 988,757 
		987,748 990,741 996,737 1004,734 1011,731 1019,729 1028,728 1036,730 1043,733 1049,737 1054,742 1059,747 1061,755 1062,764 
		1061,773 1058,780 1053,785 1048,789 1041,792 1032,793 	"/>
	<polygon fill="#00FF00" stroke="#800080" points="1022.633,1001.447 1017,1001 1009,999 1003,995 999,989 995,983 992,976 993,967 
		995,959 997,951 999,943 1001,935 1005,928 1009,923 1015,918 1020.68,913.553 1028,911 1038,911 1047,912 1053,916 1059,920 
		1065,924 1068,931 1070,939 1072,947 1073,956 1072,964 1070,972 1067,980 1063,986 1058,990 1052,994 1045,997 1037,999 
		1029,1001 	"/>
	<polygon fill="#00FF00" stroke="#800080" points="1078,0 1076,5 1069,8 1061,11 1052,11 1043,10 1034,9 1026,7 1022,1 	"/>
	<polygon fill="#00FF00" stroke="#800080" points="1090,113 1081,112 1072,111 1065,108 1059,104 1053,100 1048,95 1044,89 1041,82 
		1039,74 1040,65 1043,57 1046,51 1051,45 1056,41 1063,37 1072,36 1082,36 1089,39 1096,42 1103,45 1109,49 1113,55 1117,61 
		1120,68 1121,77 1120,86 1118,94 1114,100 1110,105 1104,109 1096,112 	"/>
	<polygon fill="#00FF00" stroke="#800080" points="1166,439 1157,438 1149,436 1142,433 1137,428 1131,424 1127,418 1125,410 
		1126,401 1129,394 1134,388 1140,384 1146,380 1152,377 1159,374 1166,371 1174,370 1184,370 1191,373 1197,377 1203,381 1205,389 
		1204,398 1201,404 1197,411 1194,418 1191,424 1186,429 1180,433 1173,436 	"/>
	<polygon fill="#00FF00" stroke="#800080" points="1167,551 1158,550 1153,545 1148,540 1145,533 1146,524 1147,515 1149,507 
		1154,502 1161,498 1167,495 1174,492 1184,491 1192,493 1199,496 1206,499 1210,505 1209,513 1206,521 1203,528 1199,534 1194,539 
		1188,543 1182,546 1175,549 	"/>
	<polygon fill="#00FF00" stroke="#800080" points="1245,667 1235,667 1227,665 1221,661 1216,656 1211,651 1207,645 1204,638 
		1202,630 1204,621 1207,615 1211,609 1215,603 1220,597 1226,593 1233,590 1242,589 1251,588 1260,589 1268,591 1274,595 1279,600 
		1283,606 1286,613 1288,621 1287,630 1286,638 1282,645 1277,649 1271,653 1264,657 1258,661 1252,664 	"/>
	<polygon fill="#00FF00" stroke="#800080" points="1249,514 1239,514 1231,512 1224,509 1218,505 1212,501 1211,492 1212,483 
		1214,475 1217,467 1221,461 1225,456 1231,452 1238,448 1244,445 1252,442 1261,441 1270,440 1279,441 1285,445 1289,451 1292,458 
		1294,466 1296,474 1295,483 1292,490 1287,495 1282,500 1277,504 1269,507 1262,509 1255,512 	"/>
	<polygon fill="#00FF00" stroke="#800080" points="1252,948 1242,948 1235,945 1229,941 1224,936 1219,931 1215,925 1214,916 
		1214,907 1217,900 1223,896 1228,892 1234,888 1242,885 1251,886 1258,889 1265,892 1270,897 1274,903 1277,910 1278,919 1276,927 
		1271,932 1267,937 1262,942 1256,946 	"/>
	<polygon fill="#00FF00" stroke="#800080" points="1277,0 1275,6 1269,9 1261,12 1252,12 1243,11 1235,9 1228,6 1221,3 	"/>
	<polygon fill="#00FF00" stroke="#800080" points="1233.252,1023.909 1228,1017 1225,1010 1226,1001 1230,995 1235,990 1240,985 
		1248,982 1257,981 1265,983 1272,986 1277,991 1281,997 1284,1004 1285,1013 1282.081,1024 	"/>
	<polygon fill="#00FF00" stroke="#800080" points="1331,420 1321,420 1313,418 1306,415 1301,410 1297,404 1295,396 1293,388 
		1291,380 1291,370 1288,363 1287,355 1291,349 1296,345 1305,343 1314,344 1321,347 1328,350 1335,353 1341,357 1346,362 1350,368 
		1352,376 1354,384 1354,394 1352,402 1349,409 1344,414 1338,417 	"/>
	<polygon fill="#00FF00" stroke="#800080" points="1360.001,595.485 1352.431,593.862 1348,589 1345,582 1343,574 1344,565 
		1347.203,552.4 1352.611,544.107 1359.65,538.159 	"/>
	<polygon fill="#00FF00" stroke="#800080" points="0,581.383 6,582 14,584 21,587 27,591 33,595 37,601 40,608 43,615 43,625 
		41,633 37,639 32,643 26,647 20,652 14,656 7,659 0,660.847 	"/>
	<polygon fill="#00FF00" stroke="#800080" points="360.903,308.334 354.307,306.868 350,304 344,300 340,294 337,287 335,279 
		335,269 337,261 340,253 345,248 351,244 358,241 367,240 376.77,249.068 385.264,255.982 392.178,262.698 397.117,268.229 
		397.709,271.785 397.181,279.751 395,288 392,295 387,300 381,304 374,307 366,308 	"/>
	<polygon fill="#00FF00" stroke="#800080" points="369.855,242.351 367.683,239.783 373.412,236.82 380.987,234 388.987,233 
		396.987,235 402.987,239 407.987,244 412.987,249 415.393,254.832 416.857,262.161 412.826,267.292 407.33,270.59 398.697,271.193 
		391.19,260.723 384.079,254.797 	"/>
	<polygon fill="#00FF00" stroke="#800080" points="758.395,82.386 753.677,72.207 749.952,61.778 746.477,51.102 747,39 751,32 
		755,27 762,23 772,23 780,25 786,29 791,34 796,39 799,46 802,53 803,62 804,71 803,80 802.139,86.324 797,94 793,99 
		787.411,102.013 779,105 768.078,97.781 763.112,90.58 	"/>
	<polygon fill="#00FF00" stroke="#800080" points="727.969,116.31 720.51,115.49 717.51,108.49 717.084,101.262 719.51,94.49 
		723.51,88.49 726.51,81.49 728.51,73.49 731.51,65.49 734.51,58.49 738.51,52.49 743.745,47.377 746.477,53.585 751.194,67.986 
		756.408,79.159 762.615,90.58 766.588,98.278 772.051,102.25 776.023,104.237 780.989,104.485 777.51,106.49 768.51,107.49 
		759.51,108.49 750.51,109.49 741.51,110.49 734.51,114.49 	"/>
	<polygon fill="#00FF00" stroke="#800080" points="830,168 821,167 814,164 808,160 803,155 799,149 795,143 793,135 792,126 
		791,117 794,109 797.017,102.973 802.139,96.89 808,93 816,91 825,90 835,90 843,92 849,96 855,100 860,105 864,111 867,118 
		868,127 867,136 864,143 860,149 855,154 850,158 844,162 837,166 	"/>
	<polygon fill="#00FF00" stroke="#800080" points="1187,0 1184,7 1177,9 1169,11 1160,12 1152,10 1146,6 1142,0 	"/>
	<polygon fill="#00FF00" stroke="#800080" points="1184,84 1175,83 1165,83 1160,78 1155,73 1153,65 1150,58 1151,49 1152,40 
		1155,33 1159,27 1164,21 1170,17 1175,13 1183,10 1190,9 1199,10 1206,13 1210,19 1213,26 1215,34 1216,43 1215,52 1212,59 
		1210,67 1206,72 1200,77 1194,80 1187,83 	"/>
	<polygon fill="#00FF00" stroke="#800080" points="1207,862 1199,860 1192,857 1184,855 1179,850 1174,845 1170,839 1168,831 
		1168,823 1171,815 1175,810 1181,805 1187,801 1194,798 1202,796 1211,797 1219,799 1226,802 1232,806 1236,812 1238,820 1240,828 
		1239,837 1237,845 1234,851 1229,857 1222,859 1214,861 	"/>
	<polygon fill="#00FF00" stroke="#800080" points="54.427,341.552 54.427,352.04 58.174,362.154 67.164,368.522 75.405,374.141 
		84.395,375.639 98.629,374.89 106.495,373.392 115.111,371.893 122.228,370.395 129.345,366.275 134.215,360.281 134.59,349.793 
		131.218,339.304 127.847,331.063 123.352,324.695 116.609,318.702 109.492,314.956 100.877,310.835 91.512,309.337 82.896,310.086 
		75.405,313.458 66.789,319.451 60.421,327.317 56.301,333.685 	"/>
	<polygon fill="#00FF00" stroke="#800080" points="72.408,380.134 66.789,385.753 61.919,394.368 61.545,402.235 66.789,410.85 
		74.656,417.219 82.896,419.841 91.137,421.339 100.877,421.339 110.616,419.466 118.927,415.269 125.974,411.225 130.469,404.482 
		133.84,399.238 136.088,392.121 136.088,385.004 134.215,378.261 128.753,373.114 119.879,372.48 110.158,373.748 100.016,375.65 
		90.824,376.389 83.112,376.812 76.878,377.657 	"/>
</g>
</svg>
