<?xml version="1.0" encoding="utf-8"?>
<!-- Generator: Adobe Illustrator 16.0.1, SVG Export Plug-In . SVG Version: 6.00 Build 0)  -->
<!DOCTYPE svg PUBLIC "-//W3C//DTD SVG 1.1//EN" "http://www.w3.org/Graphics/SVG/1.1/DTD/svg11.dtd">
<svg version="1.1" id="Layer_1" xmlns="http://www.w3.org/2000/svg" xmlns:xlink="http://www.w3.org/1999/xlink" x="0px" y="0px"
	 width="1024px" height="1024px" viewBox="0 0 1024 1024" enable-background="new 0 0 1024 1024" xml:space="preserve">
<g id="Raw_image">
	
		<image overflow="visible" enable-background="new    " width="1024" height="1024" xlink:href="otherspecimen_7.jpg"  transform="matrix(1 0 0 1 2.441406e-004 -2.441406e-004)">
	</image>
</g>
<g id="Not_annotated" display="none" opacity="0.5">
	<polygon display="inline" fill="#0000FF" stroke="#800080" points="775,485 766,484 759,479 755,471 752,462 749,453 743,447 
		741,439 735,433 730,426 725,419 722,410 716,404 715,395 714,386 718,379 723,386 731,385 740,387 742,395 746,403 747,414 
		752,421 756,416 760,407 763,399 769,392 778,389 784,395 783,406 784,415 784,425 785,436 785,448 786,459 783,468 774,466 
		776,471 778,481 	"/>
	<polygon display="inline" fill="#0000FF" stroke="#800080" points="837,699 832,692 833,683 838,685 839,696 	"/>
	<polygon display="inline" fill="#0000FF" stroke="#800080" points="863,705 855,701 847,703 841,697 844,688 852,684 848,678 
		841,673 848,667 856,664 865,666 874,669 878,677 879,688 874,694 868,700 	"/>
</g>
<g id="Clumps" display="none" opacity="0.5">
	<polygon display="inline" fill="#FF0000" stroke="#800080" points="0,504 7,507 14,509 10,501 7,492 7,480 8,469 13,462 19,455 
		25,449 32,444 41,442 41,432 42,421 46,413 53,407 60,403 71,401 82,400 91,403 99,407 104,414 110,420 117,415 124,410 132,406 
		142,404 140,397 136,389 134,379 136,368 140,361 146,354 154,350 164,348 175,349 182,354 188,360 192,368 197,375 199,385 
		198,396 195,405 190,411 182,415 170,415 165,419 168,428 167,439 165,447 171,453 176,460 178,470 176,480 185,483 192,488 
		198,494 204,488 212,484 222,484 232,486 237,479 243,473 251,469 258,464 265,460 275,457 286,456 295,459 304,462 311,467 
		314,476 312,486 307,493 301,498 292,501 282,504 284,510 291,515 296,522 302,528 307,522 313,516 321,511 331,509 340,512 
		348,516 353,523 351,533 347,541 347,551 349,561 346,569 338,573 330,577 320,579 309,578 303,572 300,563 298,556 293,562 
		283,564 273,562 266,557 262,549 257,542 253,534 249,526 245,518 239,519 233,524 226,529 217,533 206,533 197,530 190,532 
		186,539 180,545 172,549 163,546 159,538 157,528 152,521 149,512 153,504 152,497 143,494 136,489 130,483 125,476 121,468 
		118,459 114,451 107,449 101,454 92,457 82,455 73,452 63,452 53,450 48,454 48,466 47,477 43,484 37,491 34,500 33,511 28,517 
		20,520 25,527 30,534 34,542 32,552 24,555 13,554 3,552 	"/>
	<polygon display="inline" fill="#FF0000" stroke="#800080" points="0,717 9,716 15,722 17,732 16,743 15,754 12,763 20,765 31,766 
		38,771 44,777 50,783 55,790 59,798 63,806 67,814 77,812 86,815 94,819 101,824 108,829 114,835 121,840 131,838 141,840 148,845 
		151,854 149,864 145,872 139,877 131,881 123,885 112,886 101,885 95,879 91,871 82,870 71,869 63,870 63,880 59,888 54,894 
		46,898 52,903 57,910 63,916 73,916 81,920 87,926 91,934 95,942 101,948 107,954 111,962 109,972 104,979 97,983 87,983 77,981 
		68,978 60,974 52,970 46,964 41,957 40,946 34,944 24,946 14,944 5,941 	"/>
	<polygon display="inline" fill="#FF0000" stroke="#800080" points="0,950 9,949 18,952 25,957 30,964 33,973 34,982 41,987 46,994 
		42,1001 34,1005 24,1005 17,1000 18,989 9,986 0,983 	"/>
	<polygon display="inline" fill="#FF0000" stroke="#800080" points="199,0 195,5 191,10 200,13 206,19 211,26 214,35 216,45 214,55 
		209,61 201,66 192,68 184,64 176,65 180,73 181,84 178,93 175,101 171,110 166,117 159,122 149,123 140,120 131,117 125,111 
		119,105 114,98 106,101 99,105 103,112 106,120 101,128 96,134 88,138 81,143 72,147 62,148 53,145 47,139 43,131 44,120 49,113 
		60,111 67,107 73,101 71,93 67,85 69,74 71,67 61,67 54,62 52,69 50,79 46,86 38,90 28,92 18,90 11,85 5,79 1,71 0,60 3,50 7,43 
		13,37 19,30 25,25 32,19 40,21 43,30 48,35 49,24 52,16 59,10 69,10 76,15 82,19 86,11 94,7 102,11 111,14 115,11 111,3 	"/>
	<polygon display="inline" fill="#FF0000" stroke="#800080" points="81,747 69,747 62,742 55,737 48,732 39,729 31,725 28,717 
		22,712 13,709 7,703 2,696 2,686 6,678 11,671 20,667 30,669 37,674 43,680 48,687 51,696 60,699 68,703 77,706 85,710 90,717 
		94,725 95,736 90,743 82,746 	"/>
	<polygon display="inline" fill="#FF0000" stroke="#800080" points="62,351 50,351 40,349 31,346 23,342 18,335 14,327 11,318 
		15,309 23,306 22,297 19,288 16,279 15,268 14,257 14,247 17,238 20,229 24,220 33,217 41,221 46,228 50,236 53,245 58,252 63,259 
		69,265 74,272 77,281 77,291 72,298 63,301 57,306 55,313 61,319 66,326 70,334 69,345 63,350 	"/>
	<polygon display="inline" fill="#FF0000" stroke="#800080" points="99,646 88,645 81,640 75,634 69,628 66,619 66,607 68,597 
		64,589 63,578 63,566 62,555 66,546 71,540 70,533 61,530 56,523 53,514 51,504 51,492 56,485 62,478 71,475 81,477 87,483 92,490 
		99,495 103,503 103,513 100,522 102,528 114,528 119,535 118,544 114,551 108,558 104,566 103,577 105,585 110,592 113,601 
		112,611 107,618 102,626 104,636 101,644 	"/>
	<polygon display="inline" fill="#FF0000" stroke="#800080" points="175,836 163,836 152,835 142,833 134,829 129,822 126,813 
		123,804 117,800 105,800 95,800 87,796 81,790 76,783 73,774 74,766 79,760 86,755 97,753 107,755 114,760 120,766 127,771 
		131,779 130,788 139,787 148,788 156,792 164,794 170,788 180,786 190,786 200,786 212,786 220,790 226,796 228,806 225,814 
		219,820 211,825 204,829 194,831 183,832 176,835 	"/>
	<polygon display="inline" fill="#FF0000" stroke="#800080" points="222,781 213,778 205,774 193,774 182,775 172,773 169,764 
		166,761 160,767 150,769 141,766 136,759 129,754 120,751 112,747 107,740 108,729 114,722 123,720 134,718 145,719 155,721 
		163,722 164,711 168,703 169,692 161,691 151,693 140,694 137,703 133,710 125,714 115,714 107,710 102,703 97,696 94,687 93,676 
		94,667 99,660 107,656 116,655 122,649 130,644 141,645 152,646 162,648 171,651 181,653 185,646 191,639 199,635 207,631 218,630 
		228,628 229,618 234,610 241,605 250,602 261,601 270,598 280,598 287,603 289,613 288,624 284,632 281,640 274,645 265,649 
		270,654 278,658 285,663 290,670 294,678 297,687 297,697 290,702 283,706 275,711 268,715 261,721 263,731 264,742 261,751 
		256,757 246,757 239,752 235,744 229,738 221,734 213,730 213,720 217,712 223,706 231,701 235,694 231,687 223,690 213,688 
		204,686 206,694 210,702 209,713 206,721 200,727 192,731 182,733 173,735 177,743 185,739 196,738 206,740 215,743 222,748 
		229,753 233,761 231,771 226,778 	"/>
	<polygon display="inline" fill="#FF0000" stroke="#800080" points="171,188 160,187 150,185 139,184 132,179 127,172 124,163 
		126,153 128,145 121,140 121,131 127,125 136,122 142,128 142,136 152,136 162,138 171,141 177,147 181,155 185,163 186,174 
		182,182 175,186 	"/>
	<polygon display="inline" fill="#FF0000" stroke="#800080" points="206,475 196,473 190,467 186,459 187,448 190,439 193,430 
		196,421 199,412 203,403 208,396 217,395 220,389 221,379 229,377 239,379 249,381 257,385 264,390 270,396 275,403 278,412 
		275,421 269,427 261,430 256,438 247,440 241,434 236,435 233,444 228,452 224,459 219,466 213,472 	"/>
	<polygon display="inline" fill="#FF0000" stroke="#800080" points="207,164 196,163 191,156 190,145 193,135 197,127 202,121 
		208,115 203,108 201,98 204,89 208,80 212,73 219,67 228,66 236,70 242,76 246,84 247,95 245,104 240,111 234,118 239,125 240,136 
		236,144 231,150 225,156 217,160 208,163 	"/>
	<polygon display="inline" fill="#FF0000" stroke="#800080" points="284,0 283,8 275,12 267,15 274,20 281,15 291,13 302,14 309,19 
		317,23 324,28 328,36 325,45 322,54 318,62 313,68 304,72 295,74 286,71 283,62 281,52 278,45 275,55 269,60 259,60 253,54 245,50 
		236,47 232,39 230,29 230,17 235,9 244,6 254,8 253,2 	"/>
	<polygon display="inline" fill="#FF0000" stroke="#800080" points="483,956 475,952 472,943 470,933 467,924 464,915 461,906 
		464,897 470,891 473,884 469,876 465,868 464,857 463,846 468,839 473,832 482,828 482,823 476,817 472,809 470,799 472,789 
		475,780 478,773 468,771 461,766 457,758 453,756 448,763 450,770 456,776 460,784 461,795 459,804 454,812 448,817 439,820 
		428,819 420,815 412,811 407,804 403,796 398,789 392,783 386,777 383,768 386,758 391,751 398,747 407,745 415,744 411,736 
		410,725 415,717 421,712 430,709 439,711 444,718 449,725 455,721 461,715 470,712 479,715 486,720 491,727 495,735 497,745 
		495,755 502,756 512,754 522,756 530,760 536,766 540,774 542,784 538,792 532,797 523,801 517,807 513,814 507,821 499,824 
		496,828 504,832 507,841 508,852 511,861 512,872 510,881 504,888 500,894 506,900 509,909 508,920 505,928 501,937 497,944 
		491,951 484,955 	"/>
	<polygon display="inline" fill="#FF0000" stroke="#800080" points="573,647 568,640 561,635 555,629 556,620 548,616 542,623 
		534,626 524,624 517,619 512,612 510,602 506,594 500,597 496,605 490,610 481,613 471,613 462,612 455,607 454,598 457,588 
		459,578 462,570 468,563 477,562 485,566 494,569 502,573 508,567 512,559 517,553 525,548 535,546 544,549 549,556 552,565 
		551,575 549,586 548,596 547,606 552,609 559,604 556,598 550,592 557,586 565,588 570,582 578,578 582,570 589,566 595,572 
		593,565 587,559 581,553 577,545 574,536 575,527 581,521 592,519 602,521 611,524 617,530 620,526 621,517 627,510 634,505 
		643,502 652,505 659,510 667,514 675,518 678,527 678,539 674,546 667,551 658,554 647,555 638,552 631,547 632,555 631,566 
		626,572 617,575 610,581 614,587 618,593 619,603 620,613 619,621 613,628 608,635 601,639 592,642 585,645 577,645 	"/>
	<polygon display="inline" fill="#FF0000" stroke="#800080" points="605,480 594,479 586,475 579,470 575,462 567,464 558,467 
		547,466 539,462 532,457 527,450 524,441 522,431 512,429 507,422 501,418 493,422 482,423 471,422 463,418 458,411 459,402 
		465,396 472,391 481,387 491,386 501,383 511,381 521,381 530,384 536,390 538,400 541,407 552,406 559,411 566,416 573,421 
		578,428 584,423 588,414 593,408 600,403 610,400 619,403 624,410 627,419 626,430 623,439 621,449 620,460 618,470 613,477 	"/>
	<polygon display="inline" fill="#FF0000" stroke="#800080" points="704,890 695,887 689,881 684,874 683,863 676,861 666,862 
		657,859 653,851 650,842 646,834 639,829 631,825 623,821 616,816 613,807 616,797 622,791 630,787 639,786 649,788 656,793 
		663,798 670,803 677,808 684,813 689,820 689,832 692,837 696,830 702,824 709,818 719,820 724,827 727,836 727,848 725,858 
		721,866 718,875 713,882 708,888 	"/>
	<polygon display="inline" fill="#FF0000" stroke="#800080" points="669,610 660,607 654,601 649,594 649,584 652,575 656,567 
		662,561 669,555 677,551 682,545 683,536 689,529 695,523 703,519 713,517 724,518 731,523 737,529 741,537 741,547 737,554 
		730,559 721,558 713,554 705,556 696,559 690,564 693,573 692,583 688,592 684,599 678,606 670,609 	"/>
	<polygon display="inline" fill="#FF0000" stroke="#800080" points="894,554 884,552 879,545 873,539 869,531 861,527 851,525 
		843,521 836,516 830,510 830,500 836,493 844,490 855,488 865,490 873,494 881,498 887,495 888,484 893,476 900,471 908,468 
		905,459 907,449 900,448 889,449 880,446 874,440 870,432 871,421 876,414 882,408 874,404 868,398 866,388 869,379 875,373 
		881,367 887,361 891,353 893,343 899,337 908,333 919,334 926,339 933,344 937,352 939,362 938,372 940,377 947,372 957,370 
		968,371 977,374 984,379 990,385 993,394 994,404 990,413 985,419 974,420 964,418 953,417 944,414 938,408 933,401 930,392 
		929,386 923,391 916,397 910,402 907,408 915,412 919,420 918,431 915,440 924,441 932,445 938,451 945,456 957,456 968,455 
		978,455 985,460 989,468 988,479 984,487 978,492 970,496 962,501 962,511 960,520 954,527 948,532 939,535 928,536 918,534 
		913,540 908,546 901,551 	"/>
	<polygon display="inline" fill="#FF0000" stroke="#800080" points="1023,931 1014,934 1004,932 998,926 992,920 994,912 998,903 
		995,898 988,894 982,888 974,884 976,875 987,874 996,873 1002,868 1009,862 1005,855 1000,848 1001,836 1005,829 1011,823 
		1019,818 	"/>
	<polygon display="inline" fill="#FF0000" stroke="#800080" points="1023,512 1016,509 1010,513 1001,512 996,505 999,496 1002,486 
		1008,480 1011,474 1005,468 999,462 995,454 991,446 988,437 989,428 998,424 1007,427 1013,433 1019,439 	"/>
	<polygon display="inline" fill="#FF0000" stroke="#800080" points="808,770 796,770 786,768 778,764 773,757 773,747 777,739 
		784,733 792,730 804,729 814,731 825,731 836,731 845,730 853,726 861,722 868,718 877,714 887,714 894,719 890,726 893,732 
		893,741 887,748 879,752 870,755 861,753 854,748 848,754 840,758 831,761 823,766 814,769 	"/>
	<polygon display="inline" fill="#FF0000" stroke="#800080" points="642,1023 641,1014 647,1007 648,1001 639,998 634,991 637,983 
		639,974 642,965 647,957 653,951 661,947 671,947 680,950 685,957 687,967 687,977 684,985 678,991 681,997 688,1002 695,1007 
		702,1012 709,1017 	"/>
	<polygon display="inline" fill="#FF0000" stroke="#800080" points="338,829 327,828 319,824 310,821 301,818 292,815 285,810 
		280,803 280,792 285,786 294,782 302,779 293,778 281,778 271,776 264,771 261,762 264,753 269,746 277,741 287,743 298,742 
		306,738 317,739 324,744 329,751 331,761 329,770 323,776 314,779 312,782 321,785 328,790 335,795 343,799 348,806 350,816 
		346,824 339,828 	"/>
</g>
<g id="Single_nuclei" opacity="0.2">
	<polygon fill="#00FF00" stroke="#800080" points="94,202 83,201 76,196 70,190 67,181 68,169 71,160 77,154 85,151 94,147 103,150 
		110,155 117,160 121,168 123,178 121,188 114,192 106,196 98,200 	"/>
	<polygon fill="#00FF00" stroke="#800080" points="96,389 85,388 79,382 76,373 76,363 80,355 85,347 92,342 102,340 112,338 
		122,338 130,342 135,349 135,359 132,367 126,373 119,378 111,382 103,387 	"/>
	<polygon fill="#00FF00" stroke="#800080" points="159,344 148,343 140,339 131,336 122,333 114,329 107,324 104,315 106,305 
		111,297 117,292 126,288 135,286 146,284 155,287 160,294 163,303 165,313 166,324 165,335 161,343 	"/>
	<polygon fill="#00FF00" stroke="#800080" points="167,630 155,630 145,628 137,624 131,618 125,612 122.565,607.966 124,602 
		127.111,598.265 129,596 135,589 141,583 147,578 156,574 166,576 173,581 179,587 184,594 188,602 190,611 187,621 181,626 
		172,629 	"/>
	<polygon fill="#00FF00" stroke="#800080" points="153,1006 144.677,1004.836 139.027,1003.742 134.106,1001.919 130.642,998.273 
		129,994 130,983 133,974 138,966 144,961 152,956 162,954 172,956 179,961 182,970 181,980 176,988 170,994 165,1000 157,1004 	"/>
	<polygon fill="#00FF00" stroke="#800080" points="133.741,1024 134.288,1019.052 135.746,1014.86 139.027,1011.58 148.87,1009.028 
		153,1010 162,1013 166.733,1016.501 170.561,1020.146 173.113,1024 	"/>
	<polygon fill="#00FF00" stroke="#800080" points="186,263 176,261 171,254 170,243 170,231 169,220 170,209 175,201 181,196 
		187,189 195,186 204,188 210,194 212,204 214,214 215,225 213,235 209,243 203,249 197,254 191,260 	"/>
	<polygon fill="#00FF00" stroke="#800080" points="225,610 215,608 208,603 202,597 197,590 191,584 186,577 184,567 186,557 
		191,550 198,545 208,542 218,544 227,547 236,550 244,554 250,560 254,568 255,579 252,588 248,595 242,601 235,606 226,609 	"/>
	<polygon fill="#00FF00" stroke="#800080" points="258,249 251,244 241,242 243,233 237,234 228,231 222,225 220,215 222,207 
		230,209 233,200 233,190 234,181 241,175 247,180 249,171 258,168 268,170 276,172 278,182 280,192 285,193 287,184 292,177 
		297,183 304,188 311,193 313,202 304,204 297,209 298,218 294,226 289,228 282,232 276,237 268,241 260,246 	"/>
	<polygon fill="#00FF00" stroke="#800080" points="244,895 233,894 226,889 221,882 219,872 220,861 225,854 233,849 242,846 
		251,849 257.5,856.5 262.5,854.75 266,858 268,863 268.25,872.25 267,877 263,884 256,890 248,894 	"/>
	<polygon fill="#00FF00" stroke="#800080" points="312,891 304,887 301,878 304,869 306,859 310,851 319,851 330,852 337,857 
		335,867 331,874 325,880 320,888 	"/>
	<polygon fill="#00FF00" stroke="#800080" points="338,734 328,732 321,727 316,720 311,713 308,704 307.433,698.551 
		310.457,693.408 319,692 328,689 336,686 346,684 356,685 362,691 368,697 369,706 364,712 359,720 353,725 346,731 	"/>
	<polygon fill="#00FF00" stroke="#800080" points="375,496 365,496 356,493 349,488 343,482 337,476 332,469 331.543,464.914 
		333,460 338,453 343,446 348,439 355,433 366,432 375,435 381,441 383,451 384,462 384,474 383,485 379,493 	"/>
	<polygon fill="#00FF00" stroke="#800080" points="380.638,-0.001 381,9 377,18 372,24 363,27 353,29 345,25 340,18 335,11 
		334.76,-0.001 	"/>
	<polygon fill="#00FF00" stroke="#800080" points="369,76 363.543,74.908 359,74 356.893,69.894 356.482,65.369 357.919,60.591 
		358.813,53.85 360,47 366,41 372,34 378,29 384,23 390,16 395,10 401,4 412,2 421,5 427,11 432,18 435,27 434,38 429,44 422,49 
		413,53 408,60 402,65 394,69 384,72 375,74 	"/>
	<polygon fill="#00FF00" stroke="#800080" points="406,997 395,996 386,993 379,988 372,983 367,976 362,969 358,961 356,951 
		361,943 368,939 380,938 389,941 396,946 404,950 410,956 416,962 420,970 422,980 420,989 413,995 	"/>
	<polygon fill="#00FF00" stroke="#800080" points="391,190 379,190 372,185 369,176 369,166 369,154 366,145 363,136 367,127 
		373,122 382,118 392,116 403,117 412,120 418,126 422,134 423,145 421,155 418,163 412,170 407,177 401,183 395,188 	"/>
	<polygon fill="#00FF00" stroke="#800080" points="413,615 403,613 395,611 389,605 385,597 383,587 376,582 373.998,577.732 
		375,573 378.073,569.583 383,570 391,574 403,574 412,576 416,568 414,558 409,551 403,545 399,537 403,528 410,523 419,524 
		424,531 432,535 439,540 444,547 449,554 451,562 450,572 443,575 445,584 441,592 437,600 432,607 425,611 416,614 	"/>
	<polygon fill="#00FF00" stroke="#800080" points="438,688 431,683 424,678 419,671 413,665 414,656 414,647 421,643 421,635 
		419,625 426,621 432,617 439,612 445,618 452,613 460,617 466,623 470,631 472,639 471,650 472,659 468,666 465,675 459,681 
		449,684 440,687 	"/>
	<polygon fill="#00FF00" stroke="#800080" points="516,84 505,83 495,81 487,77 480,72 476,64 473,55 471,45 473,35 479,29 487,24 
		496,21 507,20 517,22 524,27 531,32 537,38 545,42 553,46 557,54 554,62 548,68 540,73 533,77 524,81 	"/>
	<polygon fill="#00FF00" stroke="#800080" points="511,180 500,179 493,174 491,164 494,154 496,145 502,139 509,133 516,129 
		525,125 534,122 544,120 555,119 564,122 571,127 578,132 581,141 582,151 577,158 570,164 562,168 553,171 545,174 534,175 
		524,175 515,178 	"/>
	<polygon fill="#00FF00" stroke="#800080" points="592,1015 580,1015 572,1011 566,1005 563,996 566,987 572,980 576,973 574,963 
		572,953 574,943 582,938 592,938 601,941 607,947 612,954 616,962 615,973 612,982 612,992 609,1000 604,1007 597,1013 	"/>
	<polygon fill="#00FF00" stroke="#800080" points="632,962 622,960 616,954 613.792,941.613 615,933 619,925 623,917 625,907 
		625,895 629,887 635,881 644,878 654,879 662,883 667,890 671,898 672,909 672,920 668,929 663,936 658,943 652,948 645,954 
		639,959 	"/>
	<polygon fill="#00FF00" stroke="#800080" points="683,481 673,479 668,472 667,461 665,451 663,441 660,432 657,423 659,413 
		665,406 674,403 684,403 692,407 699,412 704,419 707,428 709,438 708,449 705,457 699,464 693,469 688,477 	"/>
	<polygon fill="#00FF00" stroke="#800080" points="739,348 728,347 717,346 707,344 699,340 691,336 684,331 676,327 672,319 
		673,310 679,304 687.495,300.369 699,299 709,299 719,301 728,304 737.71,306.563 745,311 751,317 756,324 757.177,332.887 
		753,341 747,346 	"/>
	<polygon fill="#00FF00" stroke="#800080" points="724,766 713,765 706,760 700,754 695,747 689,741 689,731 693,723 700,717 
		707,713 716,709 725,706 734,707 740,713 742,723 747,730 749,740 746,749 741,755 735,761 727,765 	"/>
	<polygon fill="#00FF00" stroke="#800080" points="748,906 736,906 727,903 719,899 715.379,894.743 715,891 718,881 722,874 
		727,867 732.141,860.529 736.979,858.801 743,860 752,863 759,868 766,873 770,881 769,892 764,898 756,903 	"/>
	<polygon fill="#00FF00" stroke="#800080" points="843.499,385.319 837,383 830,378 824,372 819,365 816,356 817,345 819,335 
		824,328 830,322 839,318 850,317 858,321 863,328 862,338 857,346 855.216,349.567 852.157,354.172 850.474,358.741 
		851.075,363.071 852.477,368.242 853,374 851.917,378.945 849.152,383.996 	"/>
	<polygon fill="#00FF00" stroke="#800080" points="896.218,860.436 892,858 885,853 881,845 882,834 884,824 883,813 887,804 
		893,799 903,796 915,796 923,800 929,806 930,817 930,829 927,837 923,845 918,852 912.743,856.949 901.849,860.303 	"/>
	<polygon fill="#00FF00" stroke="#800080" points="933.067,1024.056 932.978,1020.53 933.33,1015.24 935.182,1010.655 
		940.384,1005.805 946.821,1001.133 955.373,996.812 963.309,993.726 973,993 983,995 986.497,997.782 987,1003 986.408,1008.451 
		984,1012 978,1018 970.803,1023.969 	"/>
	<polygon fill="#00FF00" stroke="#800080" points="980,825 969,824 959,822 951,818 944,813 940,805 937,796 937,786 941,778 
		947,772 956,768 966,768 975,771 982,776 988,782 992,790 993.707,800.548 994.01,810.706 992,819 985,824 	"/>
	<polygon fill="#00FF00" stroke="#800080" points="1024.031,779.17 1014,779 1006.898,778.26 1000.681,774.318 999,770 
		999.772,765.069 1003,761 1008,754 1015,749 1024,744.298 	"/>
	<polygon fill="#00FF00" stroke="#800080" points="0,502.764 8.387,507.752 15,515 21.83,521.412 26.601,527.918 32.455,537.024 
		35.057,546.348 32.022,553.504 24.432,556.323 16.193,555.673 12,553 5.351,552.636 0,553.937 	"/>
	<polygon fill="#00FF00" stroke="#800080" points="177.519,416.471 170,415 160,413 153,408 145,404 139.356,395.221 
		135.236,387.198 134.586,378.308 136.754,368.116 142.175,358.793 148.897,353.589 160.172,349.469 170,350 179.47,351.854 
		186.626,358.359 191.613,365.731 196.6,373.537 199.419,379.609 200.286,385.897 199,393 198.769,397.173 197.685,402.377 
		195.516,405.846 191.83,410.4 185.518,414.867 	"/>
	<polygon fill="#00FF00" stroke="#800080" points="172.521,550.18 166.765,549.49 162.622,546.152 160.205,542.009 160,538 158,528 
		153,521 150.651,516.455 150,512 151.457,507.016 154.564,502.988 160,498 167,492 173,487 177.01,483.535 182.65,482.499 
		187.369,484.456 191.974,487.909 194.736,492.743 195.887,497.117 194.736,501.837 193.93,508.167 193.01,514.498 192.664,520.714 
		192.549,525.549 192,529 188.635,536.368 183.456,543.389 178.506,547.994 	"/>
	<polygon fill="#00FF00" stroke="#800080" points="291.9,501.159 281,504 276.622,504.841 271.576,504.42 265.689,504.105 
		259.487,504.21 252.969,504.63 247.293,503.789 243.719,501.582 241.196,498.323 238.463,495.064 234.889,490.649 234.153,486.234 
		235.833,482.187 242.063,474.824 250,471 258.12,464.894 265.584,460.164 274.519,457.746 285.104,456.985 295,459 303,463 
		312,466 316,474 315,483 311,491 307.191,495.212 300.678,499.743 	"/>
	<polygon fill="#00FF00" stroke="#800080" points="322,581 312,579 304,575 301.721,569.286 301.183,562.156 302.259,555.565 
		302.797,549.108 303,542 303,532 306,523 313,517 319,512 328,510 338,512 344.634,514.536 349.227,518.116 352,522 
		353.512,526.374 353.109,531.755 351.494,536.059 349,541 347.862,544.669 347.862,550.184 349.611,555.834 350.149,562.291 
		348.939,566.192 346.248,570.228 337,575 330,579 	"/>
	<polygon fill="#00FF00" stroke="#800080" points="287,565 276,564 268,560 263,553.5 259,545 255,537 251,529 247,521 245,512 
		246.741,508.333 250,506 260.261,504.987 266.679,505.123 271.391,505.601 276.171,506.148 281.224,508.264 286,511 
		292.969,515.775 298.295,522.126 301.231,530.729 302,541 301,552 297,560 290,564 	"/>
	<polygon fill="#00FF00" stroke="#800080" points="214.304,534.641 205.326,534.066 197.499,531.073 193.7,525.664 193.7,518.412 
		194.851,508.858 196.002,502.642 198.88,495.045 204.175,489.29 210,486 220,484 228,486 232.26,488.967 235.94,493.382 
		238.948,497.478 242.457,502.002 244.139,506.312 244.139,512.304 243,517 238,523 230,527 221.671,532.57 	"/>
	<polygon fill="#00FF00" stroke="#800080" points="141.091,458.537 130.682,458.97 121.575,456.368 113.986,450.731 110,442 
		109.081,436.359 108.782,429.698 112.469,421.024 118,415 125,411 133,406 140.223,404.762 150.632,407.581 157.136,411.917 
		163,416 167.545,423.193 169.279,431.866 167.978,439.672 163.858,446.177 158,451 149.981,455.718 	"/>
	<polygon fill="#00FF00" stroke="#800080" points="156.92,497.567 147,497 139,493 134.152,488.027 129.598,482.823 124.394,475.45 
		119.624,467.427 118.49,461.592 120.058,457.453 124.56,458.243 130.876,460.022 137.904,459.666 144.398,458.865 149.201,457.086 
		154.094,454.507 158.009,452.105 162.634,448.546 165.593,447.912 169.279,450.08 172,453 176,461 179,470 177,480 172,487 
		166,492 	"/>
	<polygon fill="#00FF00" stroke="#800080" points="86.231,458.97 79.943,455.068 74.089,453.983 67.584,452.899 57,453 49,449 
		43,443 41,434 43,425 45,415 51,408 58,404 69,402 80,401 91,402 98,407 104,413 107.481,417.772 109.433,424.927 107.698,430.782 
		108.103,436.982 108.999,441.841 109.433,447.045 107.481,451.381 103.795,454.2 95.772,458.103 	"/>
	<polygon fill="#00FF00" stroke="#800080" points="28.986,517.95 21,518 15.976,511.221 11.423,503.415 8,495 7,486 8,475 11,465 
		17,459 22,452 29,447 37,445 47,447 49,457 49.585,464.608 49.585,474.366 48,483 40.695,488.46 36.792,494.748 34,506 
		33.106,512.312 	"/>
	<polygon fill="#00FF00" stroke="#800080" points="38.761,1004.629 33.525,1006.414 26.027,1006.771 20.791,1005.462 
		18.768,1003.915 17.578,1000.702 17.594,997.035 18.173,992.728 19,990 20.91,988.087 24.48,987.015 28.527,985.23 31.859,982.731 
		34.953,982.731 37,983 40.035,985.168 44,988 46.378,992.133 47,997 44.593,1000.82 	"/>
	<polygon fill="#00FF00" stroke="#800080" points="-0.035,949.409 11,950 20,953 27,958 32,965 33.525,969.998 34,975 
		33.406,979.161 30.312,982.85 25.67,985.469 21.386,986.777 14.96,987.61 8.89,987.135 0,983.683 	"/>
	<polygon fill="#00FF00" stroke="#800080" points="153.288,123.836 146.152,123.836 136.162,120.593 128.248,115.273 
		123.058,109.435 117.349,102.038 116.181,98.147 115.273,92.567 114.625,87.119 114.625,80.761 115.506,75.437 116.571,69.734 
		118.387,64.933 121.112,59.873 124.875,55.849 131.621,50.141 140.054,46.249 149.914,44.173 161.073,45.341 167.689,50.272 
		172.36,57.538 175.863,61.949 177.809,66.879 179.755,70.772 181.182,75.572 182.091,80.761 181.052,86.211 179.496,90.103 
		177.42,95.163 174,103 171.581,110.083 165.614,118.387 160.294,122.149 	"/>
	<polygon fill="#00FF00" stroke="#800080" points="197.667,67.666 186.5,66.333 179,61 173.009,55.202 168.208,47.807 165,39 
		167.167,28.5 171.834,20 177.667,14 186,11 195,12 203.834,16.5 209.167,22.833 213.667,32.833 215.834,43.5 215.667,53.5 211,59 
		206.334,64.166 	"/>
	<polygon fill="#00FF00" stroke="#800080" points="100.353,104.375 94.515,103.986 90,102.351 85.303,101.65 79.594,100.353 
		75.053,98.406 70.642,93.476 68,88.351 67.529,81.929 69,76.351 71.421,71.55 74,69.351 80,63.351 83.746,60.617 88,59.351 
		92.692,59.514 98.75,59.726 104.651,59.914 110.5,60.101 114.755,60.522 116.661,60.555 118.242,61.897 118.298,63.616 118,66.351 
		116.109,70.607 114.552,76.083 114.171,80.88 113.918,86.115 114.493,91.416 113.918,95.902 112.111,98.146 110.311,99.513 
		107,102.351 103.919,103.684 	"/>
	<polygon fill="#00FF00" stroke="#800080" points="70.421,148.804 62.064,148.709 57.549,147.844 53.816,145.815 50.249,143.137 
		47.367,140.351 45,137 43.525,131.802 43.813,126.423 44.126,122.497 45,119 47.559,115.376 51,113 55.802,111.559 61.199,111.534 
		65.234,109.805 67.924,106.251 70.613,102.6 75,100 79.354,101.159 83.965,102.024 87.936,102.968 91.938,103.945 97.798,105.963 
		102.505,109.133 106,115 106.251,119.507 105,124 100,131 96.453,134.492 91.392,138.236 87.519,139.967 84.734,141.504 
		80.027,144.77 75.512,147.075 	"/>
	<polygon fill="#00FF00" stroke="#800080" points="157.331,0.021 158.875,4.25 161.375,10.625 161.875,17.125 162.125,21.125 
		160.875,26.25 158.75,29.75 155.625,33.375 151.25,36.125 144.875,37.625 138,37 130,33 124,27 119,20 115,12 112.5,5.75 
		111.799,0 	"/>
	<polygon fill="#00FF00" stroke="#800080" points="111,58 105.25,58.875 99,58 91,54 86.478,46.975 84.547,36.919 82.25,25.25 
		83,17 87,10 90.625,7.875 94.75,7.625 99.75,8.75 105.75,11.25 112,14 118,19.75 122.875,26.75 125.625,34.75 125,42 122.375,48.5 
		118.875,53.375 115,56 	"/>
	<polygon fill="#00FF00" stroke="#800080" points="67,69 57,67 51,61 48,52 48,40 49,29 51,18 57,12 64,9 73,12 79,18 
		81.409,25.977 83.582,36.677 84.789,47.136 84.375,53.5 83,57 80.703,60.216 78,64 70,68 	"/>
	<polygon fill="#00FF00" stroke="#800080" points="32.11,93.086 25.363,92.956 20.432,91.139 15,88 8.496,83.355 3.306,76.219 1,66 
		1.62,54.943 5.557,45.611 10.557,38.611 16.151,33.665 22.379,28.346 28,23 30.75,20.25 35,18.625 39.5,20.375 42.618,24.582 
		44.305,30.809 45.862,37.037 46.381,42.746 47.159,48.065 47.938,54.941 49.495,59.612 51.181,65.84 52.479,71.678 52.09,77.387 
		50,82 45.862,86.598 41.84,89.712 38.337,92.048 	"/>
	<polygon fill="#00FF00" stroke="#800080" points="79.48,747.685 72.086,748.134 68.052,745.892 60,741 53,736 45,732 36,729 
		30,723 28.39,718.331 29,714 34.216,711.608 40.042,708.92 44.3,706.903 47.437,704.662 51.022,700.404 55.728,698.836 62,700 
		71,703 79,707 86,712 91,719 96,726 97,735 93,743 85,746 	"/>
	<polygon fill="#00FF00" stroke="#800080" points="23.908,712.953 15.842,711.608 10,707 5,700 3,690 6,680 10,673 18,668 27,669 
		35,673 42,678 47,685 48.325,688.973 50,694 49.677,698.387 46.54,703.094 40.938,707.127 33.095,710.712 	"/>
	<polygon fill="#00FF00" stroke="#800080" points="55.813,311.402 51.836,311.879 46.111,311.084 39.113,309.653 31.637,307.744 
		25.594,305.835 23.208,301.859 23,299 20,290 17,281 16.087,276.435 15,271 15,264.802 15,259 15,247 18,238 21,228 25,221 35,218 
		42,223 47,230 51,238 54,247 59,254 64,261 69,268 75,274 79,282 78,292 72,299 65.514,301.064 61.061,303.609 58.835,305.835 
		57.721,309.812 	"/>
	<polygon fill="#00FF00" stroke="#800080" points="39.908,350.051 32.432,347.824 27,344 21,338 16,331 13,322 12.552,316.014 
		14.142,310.925 19.073,307.585 24.48,307.585 34.5,309.653 46,312 55.177,314.265 59.948,317.128 64.719,321.899 67.582,326.989 
		69.809,331.76 70.763,338.599 70.286,343.212 69,347 65.514,350.369 62.334,352.118 56.767,351.801 50,351 	"/>
	<polygon fill="#00FF00" stroke="#800080" points="74.684,535.523 64.894,532.319 58.13,526.801 54.57,519.681 51.722,508.289 
		51.722,494.405 55.104,487.107 63.114,478.741 72.548,475.537 81.982,477.495 88.212,484.615 91.059,490.133 95.688,492.803 
		100.137,495.473 102.63,499.567 104.765,505.263 104.232,515.052 99.96,524.131 94,529 91.238,530.894 85.542,533.209 
		80.351,534.315 	"/>
	<polygon fill="#00FF00" stroke="#800080" points="69.344,594.794 65.962,593.013 64.894,588.208 64.004,581.265 63.292,575.926 
		64,566 63.292,558.66 64.004,552.964 66.496,548.158 67.92,544.597 71.124,540.682 76.82,537.124 82.515,534.988 91,532 100,529 
		112,529 116.869,531.25 119.362,535.522 120.429,540.684 118.65,545.488 114.555,550.83 111.885,554.924 109.037,557.95 
		105.121,564.536 103.698,574.858 102.095,579.486 92.84,575.036 81.803,576.103 75.218,581.622 72.192,587.318 	"/>
	<polygon fill="#00FF00" stroke="#800080" points="90.526,646.947 82.871,643.387 78.243,638.582 75,635 71.562,631.562 
		69.699,628.614 67.208,621.315 66.496,615.263 67,609 69,599 71.657,590.878 73.747,585.507 76.641,581.8 80.037,578.98 84,577 
		89.458,576.104 95.51,576.994 99.781,579.13 103,582 107.258,586.427 110.462,591.412 113,596 113.844,604.761 112.953,611.525 
		109.216,617.044 105,621 102.095,625.41 104,631 105.3,640.718 102.274,645.523 96.933,647.66 	"/>
	<polygon fill="#00FF00" stroke="#800080" points="119,800 109.5,800.5 96.167,801.833 88.167,797.167 78.834,789.5 75.167,781.167 
		72.758,774.799 73.878,766.956 79.48,761.802 86.875,756.2 96.51,753.96 106.594,756.654 114.437,760.464 118.834,764.5 125,771 
		131.242,778.16 132.167,786.5 127,796 	"/>
	<polygon fill="#00FF00" stroke="#800080" points="194,834 183,833 176,828 170,822 166,814 164,804 165,794 171,789 182,787 
		193,786 203,786 213,788 223,790 228,797 230,807 226,814 220,820 213,825 205,830 197,833 	"/>
	<polygon fill="#00FF00" stroke="#800080" points="166.419,837.711 156.173,837.407 148,837 139,834 133,828 128,821 
		126.487,816.461 125,812 123.911,804.943 125,800 128.617,795.433 130.81,792.668 134.766,788.812 139.636,787.291 
		145.013,787.088 153.129,790.03 159.216,794.392 163,799 164,810 167,819 172,826 178,830 179.911,832.233 180.115,833.856 
		176.665,836.291 174.728,837.068 	"/>
	<polygon fill="#00FF00" stroke="#800080" points="124,715 114,713 107,708 102,701 98,693 95,684 95,672 96.167,663.167 
		106.5,657.833 116,658 122,664 126,672 130,680 133,689 139,695 138.167,704.5 132,711 	"/>
	<polygon fill="#00FF00" stroke="#800080" points="266.81,716.277 261.169,716.609 256.192,713.457 250.551,709.308 244.08,704.663 
		239.35,700.289 236.116,697.363 234.955,692.385 237,686 242,679 248,674 255,668 260,662 263.16,657.875 267,656 272.949,656.217 
		278.922,658.705 285.227,663.516 289.872,670.485 294.02,676.126 295.384,680.644 297,686 298.666,693.547 297.173,699.022 
		294.186,701.344 290,702 284.065,706.322 277.263,710.304 272.451,713.954 	"/>
	<polygon fill="#00FF00" stroke="#800080" points="268.967,648.248 263.824,649.575 258.183,647.584 251.049,644.597 
		243.416,639.786 237.775,635.472 231.636,631.324 229,627 228.982,622.033 231,617 232.798,612.41 236,610 244,605 254,603 
		264,601 271.622,599.136 278.093,597.809 283,600 286.554,602.123 289,606 290,617 289,627 284,635 280,643 273,647 	"/>
	<polygon fill="#00FF00" stroke="#800080" points="257,759 248.228,758.594 242.255,755.773 237.278,750.962 236.282,746.482 
		233.959,743.33 229,739 224.658,737.552 220,736 213.22,729.558 213.22,719.935 217,713 223,707 227.655,704.008 233.462,701.519 
		239,702 243.914,706.165 252.542,711.971 260.672,717.613 263.658,725.577 265.151,737.356 264,746 260,755 	"/>
	<polygon fill="#00FF00" stroke="#800080" points="221,783 213,779 204,776 192,776 182,776 176.606,774.203 173,773 170.5,767.833 
		171,763 174,754 179,746 185,740 197,740 207,742 214.834,743.5 224,749 230,755 234,763 232,773 227,779 	"/>
	<polygon fill="#00FF00" stroke="#800080" points="155,771 145,769 139,763 132,758 124,754 115.557,750.374 109,745 
		107.49,738.498 108.5,733.5 110.179,727.742 113,725 122,721 132,719 144,719 154,721 162,725 170.834,731.833 174.938,737.601 
		175,746 172,755 168,763 162,768 	"/>
	<polygon fill="#00FF00" stroke="#800080" points="226,691 215,690 206,687 198,683 192,677 188.001,671.475 184.185,662.018 
		183.687,655.05 184.517,650.404 186.84,645.26 190,642 194.14,638.459 200.445,635.637 206.417,632.319 214,631 222.179,630.661 
		232.3,633.315 240.098,638.79 249.057,644.431 255.031,647.584 259.842,649.575 263.658,651.068 264.654,654.054 262,658 257,665 
		251,671 245,676 239,683 233,688 	"/>
	<polygon fill="#00FF00" stroke="#800080" points="190.323,732.877 180.535,733.541 172.239,730.388 167.76,726.904 
		163.612,720.267 164.275,714.627 166.1,709.151 169,705 170,695 174.064,688.246 180.369,682.107 184.848,679.121 189.66,679.95 
		196.297,683.434 203.265,689.739 208.574,697.537 210.731,705.667 209,717 205,724 198,730 	"/>
	<polygon fill="#00FF00" stroke="#800080" points="155,694 143,694 135,690 131,682 127,674 123,666 118,659 120,652 127,647 
		137,645 148,646 158,648 168,650 177,653 181.9,657.11 184.622,668.907 184,677 178,683 172,689 163,692 	"/>
	<polygon fill="#00FF00" stroke="#800080" points="173,190 162,189 152,187 142,185 134,181 128,175 124,167 124,156 128,148 
		135,143 143,139 152,136 163,137 171,141 177,147 182,154 185,163 187,173 185,182 178,188 	"/>
	<polygon fill="#00FF00" stroke="#800080" points="253.038,440.471 246.275,440.293 242.536,435.844 239,430 236.841,422.493 
		232,413 227,406 223,398 220.287,389.208 220.287,381.376 225.627,377.816 232.213,378.35 238.799,379.595 245.74,381.02 
		253.395,383.69 261.939,388.318 268.702,394.013 274.042,400.243 277.781,407.364 278.492,413.594 277.781,418.756 273.865,424.63 
		269.948,427.3 264.786,427.121 262,429 259.456,433.071 258.2,436.555 	"/>
	<polygon fill="#00FF00" stroke="#800080" points="204.267,475.537 197,474 190,469 186.823,460.763 186.823,453.822 188,449 
		191,439 194.299,430.86 197.503,420.714 200.885,410.389 203,403 208,397 212.811,394.726 218,396 221,399 224,402 229,409 
		233,417 236,426 236.841,431.749 236,437 233,447 229,455 224,462 219,469 213,474 	"/>
	<polygon fill="#00FF00" stroke="#800080" points="234,115 227.854,116.551 218.222,116.729 211.979,115.658 207.342,113.34 
		203.774,109.237 201.812,102.994 202.526,95.324 204.488,88.546 207.698,81.768 213.406,73.206 217.509,68.747 222.147,66.963 
		228.033,67.498 234.811,70.174 240.162,74.633 245.335,81.768 247.832,92.47 246.762,100.854 243.908,107.275 239.805,112.091 	"/>
	<polygon fill="#00FF00" stroke="#800080" points="200,166 196.112,163.221 193,161 191.973,155.864 191,151 191.562,144.824 
		192,140 195,131 198.676,125.06 202.301,121.521 206.184,118.674 212.026,116.995 217.231,117.12 222.15,117.293 229.831,117.033 
		233.973,118.587 237.857,121.262 239.756,124.369 241,128 240.964,134.294 238.806,140.68 236,146 230,153 224,158 215,162 
		207,165 	"/>
	<polygon fill="#00FF00" stroke="#800080" points="273.399,13.425 264.223,10.749 257,7 253.519,3.102 251.799,0.235 286.398,0.426 
		285,6 282.192,10.175 	"/>
	<polygon fill="#00FF00" stroke="#800080" points="299,76 289,74 284,67 283,56 281,46 280,35 278,25 279,16 288,12 300,12 307,17 
		314,22 322,26 328,32 328,42 324,50 322,59 317,66 310,71 302,75 	"/>
	<polygon fill="#00FF00" stroke="#800080" points="270.914,60.641 261,61 254,56 246,52 238,48 234,40 232,30 231,19 235,11 245,8 
		255,8 263,12 270,17 276,23 278,33 278,45 276,55 	"/>
	<polygon fill="#00FF00" stroke="#800080" points="317.5,780 310,780 297.5,777.5 289,779 278,778 268,776 263,769 262,758 267,750 
		273,744 282.75,743 293.5,744.25 302,741 312,739 321,742 327,748 330.25,753.75 332.25,761.75 329.75,772.5 324,777 	"/>
	<polygon fill="#00FF00" stroke="#800080" points="338,830 327,829 318,826 310,822 301,819 293,815 285,811 280,804 280,793 
		285,786 293,782 305,782 316,783 323,788 331,792 338,797 346,801 351,808 351,818 347,825 339,829 	"/>
	<polygon fill="#00FF00" stroke="#800080" points="614,576 604.271,573.449 595.981,567.072 590.454,562.608 586,556 
		580.039,549.217 577.063,542.202 574.725,534.975 574.938,529.448 576.638,524.984 581.315,521.584 591.943,520.095 
		602.358,521.796 611,526 617.449,530.723 623,538 627,546 631.692,554.531 632.754,560.908 630.203,570.26 623.189,574.724 	"/>
	<polygon fill="#00FF00" stroke="#800080" points="606,481 595,480 587,476 580,471 576,463 574,455 575,444 579,435 583,428 
		587,419 592,412 598,406 606,402 616,402 623,407 627,415 627,425 625,435 623,445 622,456 621,467 617,475 610,480 	"/>
	<polygon fill="#00FF00" stroke="#800080" points="558,467 547,466 539,462 532.071,456.449 528,449 525.559,442.165 
		525.09,434.662 527.239,428.931 528.634,423.852 530.6,420.109 533.961,412.967 538.372,408.976 544.884,407.296 551.396,407.506 
		558.327,410.866 563.39,414.642 569,419 575,425 577.863,429.141 577.443,434.393 574,444 573.241,454.558 572.402,460.44 
		564.629,465.481 	"/>
	<polygon fill="#00FF00" stroke="#800080" points="523.038,431.662 517,432 513.281,430.14 508.754,425.361 506.023,421.579 
		503.292,419.269 500.562,419.479 495.94,422.84 487.118,424.52 477,424 468.213,420.739 462.751,417.378 458.55,412.337 
		458.13,404.985 462.483,399.554 467.793,394.902 473.885,390.911 481.447,388.18 491,386 502,384 512,383 521.568,381.879 
		529.97,384.609 534.591,387.76 537,393 538.627,397.882 540,402 538.744,406.784 537.277,408.549 534.955,410.29 532.827,412.514 
		531.087,417.06 528.573,422.282 525.671,429.343 	"/>
	<polygon fill="#00FF00" stroke="#800080" points="701.556,890.941 695.335,889.041 689.632,882.647 685,874 683,864 
		685.313,854.999 689,845 692.915,837.201 697.236,829.943 703,824 707.604,820.958 712.096,818.885 718.317,819.403 721.6,822.513 
		725,829 727.302,837.719 727.993,847.742 726,858 722.118,866.75 718.662,874.698 714.688,881.437 710,889 	"/>
	<polygon fill="#00FF00" stroke="#800080" points="676,862 669.07,862.775 664,862 658.874,860.183 657,857 653,849 649,841 
		644,834 636,830 628,826 621,821 616.021,814.564 614.119,811.108 614.638,806.097 615.329,800.741 618.267,796.248 
		621.896,792.619 628,789 638,787 648,789 656,793 663,798 670,803 677,808 684,813 687.213,816.81 689.286,821.476 689.805,826.66 
		689,832 688,843 686.867,848.26 684.621,852.58 682.721,855.69 680,859 	"/>
	<polygon fill="#00FF00" stroke="#800080" points="649.473,1001.795 641.664,1000.884 637.89,997.631 636,994 635.807,988.91 
		637.369,983.965 639.191,979.279 640.102,973.682 641.924,968.606 644.007,963.4 645.569,960.797 647,958.324 649.082,955.851 
		654.419,951.296 664.05,946.61 674.462,947.391 682.402,951.296 687.087,960.016 688,971 688.128,978.888 683.313,988.129 676,994 
		668,998 658.194,1000.624 	"/>
	<polygon fill="#00FF00" stroke="#800080" points="683.77,550.492 682.281,542.84 684,537 689,531 695,525 703,521 713,518 724,519 
		732,523 738,529 742,537 742,548 737,555 732.871,559.207 725.219,560.27 720,558 715.866,554.318 712,554 703,558 
		695.673,559.207 688.658,555.381 	"/>
	<polygon fill="#00FF00" stroke="#800080" points="671,611.062 661,609.062 654,604.062 649,597.062 649,586.062 652,578.062 
		656,569.062 662,564.062 664.489,559.207 674.692,553.043 679.793,551.767 684.257,553.68 688.508,557.507 691.272,561.546 
		690.209,564.946 691,568.062 692.76,570.685 693,577.062 691,587.062 686,595.062 682,603.062 676,609.062 	"/>
	<polygon fill="#00FF00" stroke="#800080" points="871.181,755.64 864,756 857,751 854,742 848,736 847.514,731.758 851,729 
		860,725 867,721 875,716 880.218,715.621 887.533,715.19 892,719 887.319,729.39 893.127,730.681 895.507,735.278 894.849,740.579 
		893,745 886,751 879.573,753.058 	"/>
	<polygon fill="#00FF00" stroke="#800080" points="806,771 794,771 784,769 778,763 774,755 773,746 778,738 785,733 794,730 
		806,730 816,732 829.656,731.758 839,733 848,736 853,743 851,753 844,757 835,761 827,765 819,768 809,770 	"/>
	<polygon fill="#00FF00" stroke="#800080" points="1023.69,931.83 1019.335,933.282 1013.322,933.696 1005,933 999,927 
		994.659,919.388 995.904,909.643 999,904 1005.443,898.86 1012.077,896.994 1019.542,897.202 1023.69,899.897 	"/>
	<polygon fill="#00FF00" stroke="#800080" points="1024,863.469 1017.359,862.407 1008.111,858.768 1004.017,853.31 
		1001.44,848.004 1000.53,842.091 1002.198,835.722 1005.532,830.416 1012.507,823.441 1016.601,821.774 1020.391,818.287 
		1024,813.587 	"/>
	<polygon fill="#00FF00" stroke="#800080" points="1023.897,879.991 1015.603,887.663 1009.589,892.639 1002.539,896.994 
		996.526,898.653 990.305,896.58 984.913,890.359 979.585,888.829 976.794,884.794 974,882 975.168,876.881 980,875 984.706,875 
		992,875 1000,871 1004.198,866.098 1009.382,863.817 1015.603,863.817 1020.579,865.683 1024,869.416 	"/>
	<polygon fill="#00FF00" stroke="#800080" points="1024,514 1017,511 1013,513 1004,516 998,510 998,502 999,491 1004,483 1012,479 
		1024,479 	"/>
	<polygon fill="#00FF00" stroke="#800080" points="1023.712,478.48 1019,478 1014.698,476.678 1011,474 1005,468 1000,461 996,453 
		992,445 989,436 988.969,431.611 991,427 995.689,425.055 1001,425 1009,429 1015,435 1023.712,443.082 	"/>
	<polygon fill="#00FF00" stroke="#800080" points="-0.042,22.888 5.211,22.017 10.013,21.056 14.815,19.936 19.136,18.976 
		23.778,17.375 28.42,15.294 32.902,13.053 36.583,11.133 40.905,7.451 44.746,4.57 47.787,2.329 50.029,0 0,0 	"/>
	<polygon fill="#00FF00" stroke="#800080" points="168,0 170.25,1.875 173.625,4.25 177.375,6.625 181.125,7.875 184.75,8.25 
		188,8.5 192,7.625 195.125,6.625 197.875,5.25 200.375,3.25 202.25,1.75 203.75,0 	"/>
	<polygon fill="#00FF00" stroke="#800080" points="0.305,303.132 2.849,299.633 4.917,295.975 5.394,291.203 4.44,287.068 
		3.009,283.887 0.464,280.388 	"/>
	<polygon fill="#00FF00" stroke="#800080" points="-0.02,620.028 4.552,617.221 9.002,613.305 11.672,608.143 12.74,603.515 
		12.384,599.422 11.138,594.794 10.07,591.412 9.536,589.276 10.604,585.538 8.824,582.156 6.51,580.198 3.484,578.24 
		-0.076,577.706 	"/>
	<polygon fill="#00FF00" stroke="#800080" points="0,652.777 2.749,648.127 4.986,644.342 5.674,640.213 5.33,636.256 
		2.922,632.298 -0.004,629.546 	"/>
	<polygon fill="#00FF00" stroke="#800080" points="456.155,592.067 454.865,598.772 455.381,606.251 458.476,610.893 
		464.407,614.504 470.855,614.504 474.723,612.699 478.592,613.988 484.008,614.504 489.94,611.409 495.097,608.056 
		499.224,603.414 501.803,597.999 503.608,593.872 504.898,589.23 504.382,584.845 503.608,579.687 502.576,575.303 
		497.161,571.435 491.229,569.114 485.039,566.793 480.397,564.987 475.24,562.925 469.823,564.214 465.439,567.566 
		462.344,572.209 460.281,576.077 460.023,582.009 458.218,586.909 	"/>
	<polygon fill="#00FF00" stroke="#800080" points="507.219,594.13 509.54,599.546 511.087,605.735 511.603,612.699 515.472,618.114 
		520.114,622.241 525.014,626.109 530.172,626.883 535.846,626.367 540.23,624.82 543.84,621.983 547.709,617.341 548.225,611.151 
		548.483,604.704 548.998,597.74 549.772,592.067 551.32,585.877 551.32,579.172 553.641,572.982 553.382,566.793 552.093,561.892 
		550.03,557.251 547.709,553.382 542.809,549.513 537.651,547.45 531.719,547.192 525.53,549.256 520.371,551.577 516.245,556.219 
		512.377,561.119 510.055,566.277 507.825,569.516 505.105,573.225 504.24,577.924 504.734,583.116 505.6,589.051 	"/>
	<polygon fill="#00FF00" stroke="#800080" points="0,773.461 4.862,771.443 9.119,768.755 12.928,764.273 14.945,758.222 
		16.29,752.845 16.962,746.571 17.41,741.193 17.858,736.263 18.531,729.764 16.738,724.163 14.049,720.578 10.24,718.785 
		6.654,716.992 2.845,716.768 -0.068,716.544 	"/>
	<polygon fill="#00FF00" stroke="#800080" points="2.397,791.611 3.069,785.56 4.413,779.51 6.654,774.356 9.791,770.548 
		13.825,767.41 18.979,766.066 24.133,766.066 29.062,766.066 33.095,767.186 36.905,770.099 40.266,772.788 43.627,776.374 
		47.661,780.182 51.022,783.992 53.487,787.353 55.504,791.163 57.072,795.644 59.985,799.677 63.122,804.607 64.243,809.313 
		64.467,813.57 62.674,816.931 59.537,819.621 56.4,821.637 53.263,824.102 50.574,826.791 47.885,829.928 44.524,832.169 
		40.042,832.842 36.009,832.617 31.751,831.497 27.942,829.928 24.133,827.687 20.547,824.551 18.306,820.517 18.082,816.483 
		17.186,813.57 15.169,812.45 11.584,810.21 9.343,807.52 6.206,803.262 4.189,799.229 2.621,795.42 	"/>
	<polygon fill="#00FF00" stroke="#800080" points="45.42,840.908 45.868,844.942 47.213,848.975 50.35,853.009 53.935,856.37 
		57.296,860.179 60.657,863.764 64.691,867.349 68.948,869.591 72.982,871.159 79.032,871.607 83.738,871.607 89.788,869.366 
		92.477,867.126 94.718,863.541 97.631,861.075 100.32,858.163 102.784,855.698 105.473,852.337 108.162,849.872 111.524,847.407 
		114.885,844.269 116.453,840.236 115.333,835.306 111.524,831.497 107.266,828.36 103.233,825.895 99.871,824.102 96.062,821.637 
		92.701,819.173 88.667,817.156 83.962,814.915 79.704,814.018 73.43,814.018 67.156,815.811 62.674,818.052 58.417,821.414 
		54.831,824.102 51.022,827.912 48.333,831.721 46.54,835.53 	"/>
	<polygon fill="#00FF00" stroke="#800080" points="92.253,874.074 94.269,878.107 98.079,882.589 102.112,885.95 107.266,887.743 
		112.196,888.19 117.798,887.967 122.055,887.07 127.657,884.83 132.363,882.365 137.965,879.227 142.895,875.866 146.704,872.057 
		149.841,868.248 151.858,863.766 152.082,858.837 152.082,853.459 149.841,848.081 146.032,844.495 142.447,841.806 
		138.641,840.493 134.079,839.767 128.377,839.145 123.298,840.286 118.022,842.703 114.66,845.616 110.851,849.201 
		107.125,852.415 103.911,856.147 100.905,859.154 97.855,862.422 94.718,865.11 92.701,869.144 	"/>
	<polygon fill="#00FF00" stroke="#800080" points="22.167,860.333 20.167,863.167 18,867 15.834,870.833 14.5,875 12.5,878.667 
		10,882 8.667,885.667 8.834,890.167 10.834,894.333 13.334,897 17.167,899.5 20.834,900.333 26.167,900.167 30.5,900 
		34.667,899.833 39.5,899.167 44.167,898.333 48.334,897.5 52.667,895.833 56.334,893.833 59,890.833 61,887 63.167,883.333 
		64.834,880 65,876.5 64.667,872.5 63,869 60.667,866 58.5,863.333 56.5,861.333 53.667,858.167 51.167,855.5 48.667,852.833 
		46.167,851 42.834,850 39.167,849.833 35.167,850.833 32,852.667 28.834,854.667 26.167,856.667 24.334,858.167 	"/>
	<polygon fill="#00FF00" stroke="#800080" points="0,937.951 2.167,940.512 5.834,942.679 10.667,944.512 15.667,945.679 
		21.167,946.845 26.334,947.512 31.5,946.345 36.334,943.845 39.829,941.772 42.802,938.885 44.334,936.512 46.167,933.345 
		48.151,930.478 50.334,927.679 52.667,924.845 55.878,922.497 57.5,920.679 58.256,916.214 58.167,912.845 56.834,909.179 
		54.5,906.512 51.5,904.012 47,902.012 42.667,901.012 38.834,900.845 35.167,901.012 31.334,901.012 27,901.345 23.334,901.345 
		20,901.679 16,902.179 12.834,903.345 9.834,904.179 6.667,906.345 3.667,908.345 0,911.883 	"/>
	<polygon fill="#00FF00" stroke="#800080" points="41.667,942.501 40.834,946.834 41,952.167 41.834,957.334 44,961.501 
		47.167,966.334 51.5,969.834 56.167,972.334 61.334,975.001 66.167,977.667 71,980.001 77.334,982.334 82.5,984.001 
		86.834,984.334 92.167,984.501 97,984.167 101.334,982.667 105,980.167 108.334,976.834 110.834,973.334 112.167,969.834 
		112.167,964.834 111.334,960.167 107.167,954.667 102.667,950.834 99.167,946.667 97.167,942.834 94.667,939.334 92.667,935.501 
		91.5,931.501 90.167,928.667 88,925.834 85.167,922.501 81.334,920.001 76.667,917.834 72.167,916.501 67.334,916.167 
		63.291,916.886 59.5,920.001 55.5,923.834 52.5,926.667 50.297,929.08 47.667,932.667 45.334,936.667 43.5,939.334 	"/>
	<polygon fill="#00FF00" stroke="#800080" points="431.817,281.797 434.016,290.349 437.681,297.678 442.079,304.031 
		447.454,310.628 453.074,315.27 459.427,318.935 466.024,319.424 472.62,319.424 478.485,316.492 485.081,312.583 490.213,307.941 
		495.588,303.054 499.986,298.167 503.162,292.548 504.628,286.928 500.474,279.11 494.366,273.001 491.434,269.58 486.792,266.404 
		481.661,264.694 474.087,263.472 468.467,262.495 462.359,261.517 456.006,261.517 449.654,262.251 444.767,263.717 
		440.369,267.382 436.948,271.535 433.283,275.445 	"/>
	<polygon fill="#00FF00" stroke="#800080" points="704.971,219.846 701.21,223.828 698.114,228.916 697.671,233.783 
		699.661,239.093 702.759,243.517 705.856,246.835 711.165,248.384 717.138,248.826 722.226,246.614 727.092,243.959 
		731.959,240.862 735.941,237.101 740.365,233.119 743.24,229.802 746.338,226.041 749.877,221.616 753.638,216.75 755.187,210.998 
		755.187,205.468 753.417,200.38 750.099,196.398 746.559,193.743 741.471,192.195 735.498,192.195 728.641,194.407 
		724.438,195.513 720.677,197.947 716.916,202.371 713.598,206.132 710.501,210.777 707.847,215.644 	"/>
	<polygon fill="#00FF00" stroke="#800080" points="744.126,269.841 746.116,265.417 747.223,260.771 745.896,255.905 
		744.569,251.038 742.798,245.95 741.693,240.641 742.135,234.226 744.569,230.244 747.665,226.483 750.984,222.722 
		755.187,220.068 761.38,218.519 765.805,218.519 770.008,219.846 774.432,223.165 777.53,227.368 779.299,231.571 780.184,236.88 
		780.626,242.41 781.29,247.719 780.184,251.701 780.626,257.232 780.405,262.541 779.52,267.629 777.75,273.602 775.317,279.132 
		771.999,283.335 769.123,287.096 765.583,290.414 760.938,292.405 756.735,294.175 752.089,294.396 747.223,293.069 
		743.462,290.857 740.365,286.654 739.701,281.787 740.365,277.584 741.913,273.159 	"/>
	<polygon fill="#00FF00" stroke="#800080" points="660.507,273.159 661.392,278.469 662.277,283.778 663.382,289.75 
		665.816,294.175 670.24,297.272 674.886,297.935 679.974,298.156 684.619,297.051 689.486,294.839 694.131,291.963 
		697.229,288.865 700.104,285.326 701.21,281.787 700.546,277.363 700.104,273.381 699.219,269.399 699.883,266.08 700.546,262.541 
		703.201,259.002 706.962,256.347 709.616,253.471 709.837,250.153 707.847,248.605 704.086,246.614 701.432,244.402 
		699.661,241.304 698.556,238.207 697.449,235.774 695.238,233.119 691.034,232.898 686.61,232.677 682.406,232.898 
		678.867,234.889 675.991,237.101 673.559,240.198 671.346,244.18 670.019,248.605 668.913,253.25 666.922,256.126 664.931,259.886 
		662.719,264.532 661.392,268.514 	"/>
	<polygon fill="#00FF00" stroke="#800080" points="878.25,414 874.5,418.25 871.25,423.25 871,429.75 872.5,436.5 875,441.75 
		879.5,445.75 885,449.25 891.25,451 897.5,450.75 903.75,449.25 909.25,446 913,443.25 916,438.5 918,433.25 919.25,428.75 
		919.5,423 917.5,417 914.75,413.5 910.25,411 905.25,408.75 900.75,407.5 895.25,407.5 890,407.5 884.75,409.5 	"/>
	<polygon fill="#00FF00" stroke="#800080" points="933,386.5 931.25,390.75 930.75,396 933.5,401 936.25,406.25 939.5,410.5 
		943.75,414 949,416.5 954.5,418.25 960.25,419 965,419.75 971,419.75 976.5,421.75 983.25,421.5 987.5,418.75 991,414 
		993.75,408.5 994.75,402.75 995,396 993,390.75 990,386.25 985.5,381.75 980,378 975.5,375.5 970.5,373.25 964.75,372 
		958.75,371.75 951.75,372.75 946.75,374.5 942.25,376.75 938.25,379.75 936,382.75 	"/>
	<polygon fill="#00FF00" stroke="#800080" points="912.25,445.5 908.5,449.25 906.75,454.75 906,461.25 907.75,467.25 911.5,469.75 
		916,472.25 920,474.5 925.25,478.25 930.25,480.5 934.5,482.25 939.5,485 944.25,488.25 949.5,491 954.5,494 959.533,497.212 
		964,498.5 969.75,497.5 974.25,495.25 979,492.5 982.25,489.5 986,487.25 988.25,483.75 990.5,479.25 990.5,475 990,470.75 
		988.75,466.75 987,463.75 984,460.25 981.5,458.25 976.948,456.743 970.571,456.376 966.524,457.111 962.232,457.234 
		957.694,458.338 952.666,458.951 948.741,458.951 944.449,457.969 940.75,455 937.75,451 934,447.25 930,444.75 925.5,443 
		921.5,443 916.75,444 	"/>
	<polygon fill="#00FF00" stroke="#800080" points="889.493,483.725 887.527,490.28 888.182,495.197 891.132,501.752 
		895.393,506.996 898.67,512.568 902.932,516.829 908.176,521.745 912.437,526.989 917.353,532.233 923.253,536.167 
		930.463,536.822 935.707,536.822 942.263,535.183 948.162,532.234 953.735,527.972 957.34,524.04 961.601,517.484 963.24,511.257 
		962.911,505.357 961.601,501.096 957.667,496.508 952.423,492.902 946.852,489.297 940.296,486.347 935.601,483.648 
		930.63,481.685 925.219,478.809 920.165,475.276 914.671,472.79 909.487,471.598 903.587,472.581 898.015,474.875 894.082,477.825 
			"/>
	<polygon fill="#00FF00" stroke="#800080" points="833.667,497.166 831.334,500 830.167,503.833 830.167,508 831.834,512.5 
		834.667,516 838.001,519.333 841.334,522 845.001,523.5 849.001,525.667 853.334,526.5 858.334,527.5 863.334,528 866.667,529.167 
		869.334,531.167 872.167,534.167 875.667,535.833 880.667,535.5 884.334,533.833 887.501,531.5 889.667,529.167 892.001,526.333 
		894.334,524.333 897.501,522 899.834,519.833 901.167,517.5 899.834,515 897.167,512 895.501,509.166 894.001,507 892.334,504.666 
		890.334,502.833 886.834,501.666 883.334,500.5 880.167,499 877.167,497.166 873.667,495.166 870.167,493.166 866.334,491.5 
		862.501,490.5 857.667,489.833 854.001,489.5 849.001,489.833 845.667,490.333 842.001,491.666 839.001,493 836.334,494.833 	"/>
	<polygon fill="#00FF00" stroke="#800080" points="873.334,536.333 874.104,538.797 877.667,542.167 880.167,544.667 
		882.766,547.869 885.048,550.97 887.334,553.5 890.501,554.333 894.001,554.333 898.001,553.167 901.334,551.667 904.667,550 
		908.167,547.667 911.167,544.833 913.001,542 914.834,538.333 914.667,534 913.001,530.5 911.795,528.028 909.63,525.219 
		907.64,522.585 904.889,519.951 902.372,518.254 900.167,521 897.339,523.521 894.471,525.511 891.954,527.911 889.964,530.31 
		888.001,532.333 885.809,534.056 883.527,535.402 879.667,536.333 876.667,536.833 	"/>
	<polygon fill="#00FF00" stroke="#800080" points="659.962,512.868 658.9,509.042 655.073,506.279 649.759,504.154 644.233,503.516 
		639.344,503.516 634.454,505.429 630.629,508.617 626.803,512.443 623.615,515.207 621.064,519.883 619.575,523.922 
		620.426,529.023 622.977,534.762 625.952,539.226 629.566,544.54 633.817,549.004 639.131,554.318 643.808,556.231 
		648.909,556.869 654.861,556.018 659.113,554.743 662.938,554.318 668.039,551.98 671.654,549.429 675.054,546.453 
		677.393,543.477 679.306,540.076 679.306,534.55 679.306,529.448 679.093,525.622 677.605,522.221 674.629,518.607 
		670.378,516.056 666.126,513.719 662.513,513.081 	"/>
	<polygon fill="#00FF00" stroke="#800080" points="1018.713,1023.896 1015.396,1022.03 1011.87,1020.994 1008.967,1019.957 
		1004.821,1017.469 1001.295,1014.151 998.185,1009.797 996.526,1005.027 996.526,999.844 998.6,994.867 1001.295,990.511 
		1005.028,987.609 1008.138,985.743 1011.663,984.706 1015.603,984.706 1019.335,986.158 1021.823,989.475 1022.031,993.208 
		1022.446,996.318 1024.105,997.355 1024,1024 	"/>
	<polygon fill="#00FF00" stroke="#800080" points="993.208,1023.896 996.526,1022.238 1000.258,1021.408 1003.576,1021.616 
		1006.687,1020.994 1009.589,1021.616 1013.115,1022.238 1016.225,1023.896 	"/>
	<polygon fill="#00FF00" stroke="#800080" points="640.883,1023.999 640.567,1018.602 642.841,1013.043 647.137,1007.989 
		652.697,1003.946 657.75,1001.672 662.046,1000.155 668.364,998.891 674.681,997.376 680.998,998.386 687.316,1001.166 
		691.359,1005.715 695.15,1009.253 700.456,1013.043 706.521,1015.822 711.574,1019.36 715.113,1023.909 	"/>
	<polygon fill="#00FF00" stroke="#800080" points="461.92,910.801 464.548,918.307 469.052,926.564 470.177,934.071 
		470.928,941.577 472.804,948.708 476.182,955.089 481.062,957.716 487.067,955.464 492.321,952.462 496.449,947.582 
		500.953,941.577 503.581,934.071 506.959,926.939 509.586,920.934 509.961,912.302 508.947,906.647 506.208,901.418 
		503.471,897.499 500.266,894.628 496.393,892.691 488.514,891.757 481.904,890.354 477.163,889.486 471.621,890.755 
		466.679,895.162 462.671,901.794 	"/>
	<polygon fill="#00FF00" stroke="#800080" points="467.361,874.995 470.143,880.56 474.038,885.012 478.49,888.351 482.972,889.754 
		487.951,890.855 492.254,891.489 496.994,891.689 501.307,890.855 505.481,887.795 509.098,883.899 511.602,878.335 
		512.715,872.213 512.715,866.648 511.88,861.083 510.211,855.796 508.541,852.457 507.15,848.561 508.263,843.832 507.15,836.875 
		504.089,832.979 499.916,830.197 494.351,829.084 488.508,828.805 483.22,829.084 478.49,829.919 474.317,832.701 471.256,836.318 
		468.195,840.77 465.135,844.387 464.578,849.953 464.3,855.24 465.413,861.639 465.969,867.204 	"/>
	<polygon fill="#00FF00" stroke="#800080" points="478.769,777.334 475.708,781.229 473.204,787.908 471.812,795.699 
		471.812,802.098 473.76,810.168 475.708,816.289 479.603,821.854 484.612,825.193 491.568,826.028 497.133,825.193 
		502.698,824.358 507.15,822.689 511.602,819.072 514.941,814.063 517.724,808.498 521.063,804.324 525.237,801.263 
		531.079,799.038 536.366,795.977 540.54,792.082 543.044,786.516 543.323,779.839 541.374,772.604 538.035,767.317 
		533.583,762.865 527.74,759.526 522.732,757.579 516.054,755.909 509.376,755.909 503.255,757.301 496.298,761.196 
		492.125,764.813 488.508,767.874 484.89,771.213 481.273,774.273 	"/>
	<polygon fill="#00FF00" stroke="#800080" points="419.272,748.436 422.354,751.959 426.758,755.261 431.161,758.124 
		435.345,760.765 440.189,762.748 444.812,764.289 449.656,763.188 452.518,760.986 454.06,756.802 454.72,751.518 454.5,746.454 
		454.5,741.17 454.28,736.547 452.739,732.142 450.757,727.96 448.996,724.877 447.24,721.616 445.253,717.391 442.39,713.648 
		438.647,711.226 434.905,709.684 430.501,709.905 425.697,710.539 421.531,712.266 418.611,714.529 416.246,716.23 
		413.327,720.694 411.345,723.556 410.905,728.4 411.345,733.904 412.385,738.179 414.208,741.831 416.63,745.574 	"/>
	<polygon fill="#00FF00" stroke="#800080" points="388.25,780 391.75,783.5 396.25,787.25 399.5,791 402.75,795.75 405.5,801 
		408.25,806 412,811.5 416.75,815 421.75,818 426.25,820 431.25,821 436.5,821.5 442,821.25 446.75,819.75 450.5,817.5 
		454.25,814.25 457.25,810.75 459.5,806.5 461,802.25 461.75,797.5 461.75,792.25 461,786.75 459.5,782.75 457.25,779 454.5,775.75 
		452.5,773.25 450,770.5 446.25,766.75 443.25,765.5 439.75,764.25 434.75,762.5 431.25,761 427.5,758.25 423.5,755.25 419,751.75 
		415,749.25 411.75,747 408,746 403.5,746.25 398.75,748 395.25,749.75 392.5,752 388.75,755 386.5,759.25 384.5,764.5 
		384.5,770.25 385.5,774.75 	"/>
	<polygon fill="#00FF00" stroke="#800080" points="875.275,374.156 871.234,379.441 867.814,385.347 867.814,392.497 869.991,399.025 871.640,402.515 874.964,404.620 879.576,405.761 883.978,405.863 891.842,405.882 900.765,406.174 907.293,405.241 914.443,400.889 920.349,395.604 925.012,391.562 930.296,386.588 934.338,380.992 937.757,374.464 940.244,367.936 939.933,359.542 938.378,354.568 935.270,348.351 931.540,343.688 925.944,339.025 921.281,336.227 914.753,334.983 908.677,335.288 901.697,337.159 897.656,339.957 893.926,345.553 893.164,351.643 891.601,355.973 888.595,361.264 885.828,364.030 881.619,367.758 878.493,370.884 875.275,374.156"/>
	<polygon fill="#00FF00" stroke="#800080" points="550.939,608.539 549.393,615.498 553.259,620.137 555.965,620.330 558.284,622.069 555.191,624.388 555.191,628.834 557.124,632.699 558.863,635.405 561.762,636.952 564.855,637.145 567.561,640.044 567.948,643.523 570.461,647.002 574.714,648.355 578.193,645.842 581.092,644.103 584.185,646.616 589.210,647.389 592.883,644.876 594.429,641.590 598.489,641.397 603.901,641.204 608.153,640.045 610.279,637.339 610.859,633.860 611.052,630.767 614.338,629.221 617.237,625.355 619.750,623.422 622.456,620.136 622.843,615.691 622.070,612.792 620.716,609.893 620.137,606.414 620.716,603.321 621.296,600.615 619.363,597.522 619.750,595.203 620.522,591.724 620.715,589.404 619.169,586.891 617.043,586.312 613.177,587.858 610.858,587.858 610.665,586.119 612.404,583.413 613.371,579.353 612.791,577.807 609.312,575.873 605.833,575.294 602.547,574.714 601.388,573.554 599.454,571.815 597.135,571.815 594.816,572.782 593.270,571.622 593.270,569.496 592.110,566.983 589.984,565.823 586.891,565.823 583.992,568.722 582.253,573.167 582.253,576.646 579.934,578.772 576.648,578.965 573.555,579.545 571.042,581.864 568.916,584.377 568.529,586.890 566.403,588.630 563.117,589.017 559.251,588.824 556.352,588.631 553.839,589.984 552.680,592.883 554.613,595.009 561.571,600.034 560.992,603.707 560.025,605.061 558.286,606.027 555.000,607.767 550.939,608.539"/>
	<polygon fill="#00FF00" stroke="#800080" points="833.098,683.992 831.807,690.877 833.529,696.901 837.401,701.420 842.996,701.851 847.729,702.497 853.323,703.357 857.196,703.357 862.575,705.079 866.879,703.572 869.461,699.915 871.398,697.118 873.764,696.472 877.637,694.535 880.004,691.307 880.650,686.358 880.004,681.840 879.573,677.967 879.358,674.094 876.130,671.297 872.257,668.715 870.106,665.918 864.727,665.918 862.145,664.627 857.626,664.411 852.462,666.563 847.298,668.500 843.856,671.081 841.705,675.170 840.629,678.398 839.338,679.688 837.187,680.334 834.605,681.625 833.098,683.992"/>
	<polygon fill="#00FF00" stroke="#800080" points="488.848,765.830 492.151,762.527 495.453,757.903 497.655,752.840 498.756,746.235 498.316,740.730 496.335,735.005 493.693,729.942 490.610,725.539 487.968,722.016 484.225,718.713 480.262,716.071 475.858,713.869 471.014,713.429 467.271,713.869 463.308,715.631 459.785,717.833 456.923,720.915 454.942,724.658 454.061,729.942 454.722,734.345 455.602,740.290 455.602,746.015 456.263,751.740 457.805,756.803 459.126,761.647 461.988,766.051 465.511,770.014 469.034,772.215 473.878,773.317 479.382,771.996 484.446,769.134 488.848,765.830"/>
</g>
</svg>
