<?xml version="1.0" encoding="utf-8"?>
<!-- Generator: Adobe Illustrator 16.0.5, SVG Export Plug-In . SVG Version: 6.00 Build 0)  -->
<!DOCTYPE svg PUBLIC "-//W3C//DTD SVG 1.1//EN" "http://www.w3.org/Graphics/SVG/1.1/DTD/svg11.dtd">
<svg version="1.1" id="Layer_1" xmlns="http://www.w3.org/2000/svg" xmlns:xlink="http://www.w3.org/1999/xlink" x="0px" y="0px"
	 width="1024px" height="1024px" viewBox="0 0 1024 1024" enable-background="new 0 0 1024 1024" xml:space="preserve">
<g id="Raw_image">
	
		<image overflow="visible" enable-background="new    " width="1024" height="1024" xlink:href="otherspecimen_4.jpg"  transform="matrix(1 0 0 1 0 -2.441406e-004)">
	</image>
</g>
<g id="Not_annotated" opacity="0.5">
</g>
<g id="Clumps" display="none" opacity="0.5">
	<polygon display="inline" fill="#FF0000" stroke="#800080" points="67,326 64,326 61,326 58,326 55,326 52,326 50,325 48,324 
		46,323 45,321 44,319 44,316 43,314 44,312 44,309 45,307 47,305 48,304 50,302 52,301 54,300 56,299 58,298 60,299 63,299 66,299 
		69,299 71,300 72,302 74,303 76,304 79,304 81,304 84,303 86,304 87,306 89,307 90,309 90,312 89,314 88,315 86,316 83,316 81,315 
		78,316 77,318 76,320 75,322 74,323 72,324 70,325 	"/>
	<polygon display="inline" fill="#FF0000" stroke="#800080" points="490,559 487,559 484,559 482,558 480,557 479,555 477,554 
		476,552 475,550 474,548 474,545 474,542 475,540 476,537 477,535 478,533 478,531 476,530 474,529 472,528 470,527 468,526 
		467,524 465,523 463,522 461,521 460,519 458,518 456,519 454,518 452,517 450,516 447,516 444,516 442,515 440,514 437,514 
		435,513 432,513 429,513 427,512 424,512 422,511 420,510 419,508 417,507 416,505 415,503 415,500 416,498 417,495 418,493 
		419,492 421,490 422,488 423,487 425,485 426,484 429,483 432,483 434,482 437,482 439,481 442,481 445,481 448,481 451,481 
		453,482 455,483 457,484 460,484 462,485 464,486 467,486 470,486 472,487 474,488 476,489 478,490 479,492 481,493 482,495 
		483,497 484,499 486,500 488,501 489,503 491,504 492,506 493,508 494,510 494,513 494,516 494,519 493,521 492,523 491,525 
		492,527 494,528 496,529 497,531 498,533 498,536 499,538 499,541 499,543 498,546 498,549 497,551 496,553 495,555 494,556 
		492,558 	"/>
	<polygon display="inline" fill="#FF0000" stroke="#800080" points="838,170 835,170 833,169 830,169 828,168 827,166 826,164 
		825,162 824,160 824,157 824,154 825,152 824,150 824,147 824,144 822,143 820,142 818,143 815,143 813,144 810,144 807,144 
		805,143 804,141 802,140 802,137 801,135 802,133 804,131 805,129 806,128 808,126 809,125 810,123 812,121 814,120 817,120 
		820,120 821,119 822,117 824,115 825,114 827,112 828,111 830,109 831,108 833,106 835,105 837,104 839,103 842,103 844,104 
		845,106 846,108 846,110 845,113 846,115 847,117 847,120 846,122 845,124 844,126 843,128 842,129 840,131 839,132 837,134 
		835,135 834,137 835,139 837,140 839,141 841,142 842,144 843,146 844,148 846,149 848,150 849,152 850,154 851,156 851,159 
		850,161 849,163 848,165 847,166 845,167 843,168 840,169 	"/>
	<polygon display="inline" fill="#FF0000" stroke="#800080" points="521,883 518,883 517,881 515,880 513,879 511,878 510,876 
		509,874 508,872 507,870 508,867 509,865 509,863 509,861 510,859 510,857 509,855 508,853 507,851 507,848 507,845 506,843 
		506,840 506,837 507,835 507,832 508,830 508,827 509,825 510,823 511,821 512,819 513,817 514,815 515,813 517,811 518,809 
		519,807 520,806 522,804 523,803 525,802 528,801 530,800 532,801 534,802 536,803 537,805 538,807 539,809 539,812 539,815 
		538,817 539,819 539,822 539,824 538,826 537,829 536,831 535,833 534,835 533,837 533,839 532,841 530,843 529,845 529,847 
		527,849 526,850 524,852 525,854 527,855 527,858 528,860 529,862 530,864 530,867 530,870 529,872 529,875 528,877 527,878 
		525,880 524,881 522,882 	"/>
	<polygon display="inline" fill="#FF0000" stroke="#800080" points="242,955 239,955 237,954 234,954 232,953 231,951 229,950 
		228,948 226,947 224,949 223,950 221,951 218,951 216,950 214,949 213,947 212,945 211,943 210,941 210,938 209,936 209,933 
		210,931 212,929 213,928 214,926 216,925 218,923 220,922 222,921 224,920 227,920 230,920 232,921 234,922 236,923 238,922 
		240,921 241,920 243,918 245,917 247,916 249,915 251,914 253,913 255,912 257,911 260,911 262,910 264,909 267,909 269,910 
		272,910 274,911 276,912 277,914 278,916 279,918 279,921 280,923 280,925 279,927 278,930 277,932 276,933 275,935 273,937 
		271,938 270,939 268,940 266,941 264,943 262,944 261,945 259,946 257,948 256,949 254,950 252,951 250,952 248,953 245,953 
		243,954 	"/>
	<polygon display="inline" fill="#FF0000" stroke="#800080" points="314,919 311,919 309,918 308,916 306,915 305,913 304,911 
		302,910 301,908 300,906 298,905 297,903 296,901 294,900 292,899 291,897 290,895 289,893 288,891 287,889 288,886 289,884 
		290,883 292,881 294,880 296,879 298,880 301,880 304,880 305,879 307,877 309,876 311,875 313,874 315,873 317,872 320,872 
		322,873 325,873 327,874 329,875 330,877 331,879 332,881 333,883 333,886 332,888 332,890 331,892 330,894 328,896 327,897 
		324,897 322,898 320,899 319,902 320,904 321,906 321,909 321,912 320,914 319,915 317,917 316,918 	"/>
	<polygon display="inline" fill="#FF0000" stroke="#800080" points="235,0 237,1 237,4 238,6 239,8 240,10 241,12 242,14 243,16 
		244,18 246,19 247,21 248,23 249,25 249,28 248,30 248,33 247,35 246,37 245,38 243,39 240,39 238,40 236,39 234,38 233,36 231,35 
		229,34 227,33 225,32 223,31 222,29 221,27 221,24 219,23 218,21 219,19 220,17 220,14 221,12 222,10 222,7 220,6 218,5 216,4 
		215,2 215,0 	"/>
</g>
<g id="Single_nuclei" opacity="0.5">
	<polygon fill="#00FF00" stroke="#800080" points="1,898 2,897 5,896 7,895 10,895 13,895 15,896 17,897 18,899 18,902 19,904 
		19,907 19,910 19,912 18,914 16,916 15,918 15,921 15,923 14,925 12,927 11,928 10,931 9,933 8,935 7,937 6,939 5,940 4,942 2,943 
			"/>
	<polygon fill="#00FF00" stroke="#800080" points="50,234 47,234 44,234 41,234 38,234 36,233 33,233 31,232 29,231 27,230 25,229 
		23,228 21,227 20,225 18,224 17,222 16,220 14,219 13,217 11,216 10,214 9,212 8,210 7,208 8,206 9,204 11,202 12,201 14,200 
		17,199 20,199 22,198 25,198 27,199 30,199 32,200 35,200 37,201 39,202 41,203 42,205 44,206 45,208 47,209 48,211 49,213 51,214 
		52,216 54,217 55,219 57,220 59,221 60,223 61,225 61,228 60,229 58,230 56,231 54,232 52,233 	"/>
	<polygon fill="#00FF00" stroke="#800080" points="71,808 68,808 65,808 63,807 62,805 60,804 58,803 55,803 53,802 51,801 48,801 
		46,800 44,799 42,798 40,797 38,796 36,795 34,794 32,793 30,792 29,790 28,788 27,786 26,784 26,781 26,778 28,776 29,775 31,774 
		33,772 35,771 38,771 41,771 43,772 44,774 46,775 47,777 49,778 52,778 54,777 56,776 58,777 61,777 64,777 66,778 67,780 69,781 
		71,782 72,784 74,785 75,787 76,789 78,790 78,793 78,796 79,798 79,800 78,802 76,804 75,805 73,807 	"/>
	<polygon fill="#00FF00" stroke="#800080" points="70,727 67,727 64,727 62,726 59,726 57,725 55,724 53,723 51,722 50,720 48,719 
		46,718 45,716 43,715 42,713 41,711 39,710 38,708 37,706 35,705 34,703 34,700 33,698 33,695 33,692 34,690 35,688 36,686 38,684 
		39,683 41,681 44,681 46,680 49,680 51,681 53,682 56,682 58,683 60,684 61,686 63,687 65,688 67,689 68,691 70,692 71,694 73,695 
		74,697 75,699 76,701 77,703 78,705 79,707 79,710 80,712 80,715 79,717 78,719 77,721 76,723 75,724 73,725 71,726 	"/>
	<polygon fill="#00FF00" stroke="#800080" points="91,134 88,134 85,134 82,134 79,134 77,133 74,133 72,132 71,130 69,129 68,127 
		68,124 67,122 67,119 67,116 68,114 69,112 70,110 72,108 73,107 75,105 76,104 77,102 79,100 80,99 81,97 82,95 84,93 85,92 
		87,91 89,90 92,89 94,88 97,88 99,89 102,89 103,91 105,92 106,94 107,96 108,98 108,101 108,104 108,107 108,110 108,113 107,115 
		107,118 106,120 105,122 104,124 103,125 101,127 100,129 98,130 96,131 94,132 93,133 	"/>
	<polygon fill="#00FF00" stroke="#800080" points="87,909 84,909 81,909 78,909 76,908 75,906 73,905 72,903 71,901 71,898 71,895 
		72,892 72,890 71,888 72,886 72,883 73,880 73,878 74,876 74,873 74,870 75,867 76,865 77,864 77,861 78,858 78,856 78,853 79,851 
		79,848 80,846 81,844 82,842 83,840 85,838 87,837 89,836 91,835 94,835 96,836 98,837 100,838 101,840 102,842 103,844 104,846 
		104,849 104,852 104,855 104,858 105,860 105,863 105,866 104,868 104,871 103,873 103,876 102,878 102,881 101,883 100,885 
		100,888 100,890 99,892 98,894 97,897 96,899 95,901 94,903 93,904 91,905 89,907 88,908 	"/>
	<polygon fill="#00FF00" stroke="#800080" points="107,253 104,253 102,252 100,251 98,250 96,249 95,247 93,246 92,244 91,242 
		89,241 88,239 86,238 85,236 84,234 84,231 83,229 82,227 81,225 80,223 80,220 79,218 79,215 79,212 79,209 80,207 81,204 81,202 
		82,200 83,198 84,195 85,193 86,191 87,189 88,187 89,185 89,183 90,181 92,179 94,178 96,177 98,176 100,175 102,176 104,177 
		106,178 107,180 108,182 109,184 111,185 112,187 112,190 113,192 114,194 114,197 114,200 113,202 113,205 113,207 112,210 
		112,213 112,216 113,218 114,220 114,223 115,225 116,227 117,229 117,232 117,235 117,238 118,240 118,242 117,244 115,246 
		114,248 113,249 111,251 109,252 	"/>
	<polygon fill="#00FF00" stroke="#800080" points="112,982 109,982 106.573,981.505 104.297,980.334 102.281,979.487 101,978 
		99.354,976.757 98,975 97,973 96,971 95,969 94,967 93,965 92.2,962.255 91.55,959.913 90.445,958.352 89,957 88,955 
		87.583,952.369 87,950 86.608,947.168 86.673,944.435 86,942 86,939 87,936 87,934 89,932 90,931 92,929 94,928 96,927 99,927 
		101,928 103,929 105,930 106,932 107,934 108,936 109,938 110,940 110.67,942.29 111,945 112,947 113,949 114,951 115.092,952.5 
		116,955 117,957 118,959 119,961 119,964 119,967 119,970 119,973 119,976 118,978 117,979 115,980 113.726,981.373 	"/>
	<polygon fill="#00FF00" stroke="#800080" points="157,1012 154,1012 152,1011 150,1012 147,1012 145,1011 142,1011 139,1011 
		137,1010 134,1010 132,1009 130,1008 127,1008 125,1007 123,1006 120,1006 118,1005 117,1003 116,1001 114,1000 113,998 113,995 
		114,993 116,991 117,990 119,988 121,987 123,986 125,985 127,984 129,984 132,983 134,983 137,982 139,981 141,980 144,980 
		147,980 150,980 153,980 156,980 159,980 162,980 164,981 167,981 169,982 171,981 173,982 176,982 178,983 180,984 181,986 
		183,987 184,989 185,991 185,993 183,995 182,997 182,999 180,1001 179,1002 177,1003 174,1004 173,1005 171,1006 169,1007 
		166,1008 164,1008 162,1009 159,1010 158,1011 	"/>
	<polygon fill="#00FF00" stroke="#800080" points="157,915 154,915 152,914 149,914 147,913 145,912 144,910 142,909 141,907 
		139,906 138,904 137,902 137,899 136,897 136,894 136,891 136,888 137,886 138,884 139,882 140,880 142,878 143,877 144,875 
		145,873 147,871 148,870 150,868 151,866 152,865 153,863 155,861 157,861 159,860 161,858 163,857 165,856 167,855 169,854 
		171,855 174,855 176,856 178,857 179,859 181,860 182,862 183,864 184,866 185,868 185,871 185,874 185,877 185,880 185,883 
		185,886 185,889 184,891 183,893 182,895 181,897 180,899 179,901 178,902 176,903 174,904 172,906 171,907 169,908 167,910 
		166,911 164,912 161,912 159,914 	"/>
	<polygon fill="#00FF00" stroke="#800080" points="175,455 172,455 169,455 167,454 165,453 163,452 162,450 160,449 159,447 
		157,446 156,444 155,442 154,440 153,438 152,436 151,434 150,432 149,430 148,428 147,426 146,424 146,421 145,419 144,417 
		143,415 143,412 143,409 142,407 143,405 144,402 145,400 146,399 148,397 150,396 152,395 154,394 156,395 158,396 160,397 
		162,398 164,399 165,401 166,403 167,405 168,407 169,409 171,410 172,412 173,414 174,416 175,418 176,420 177,422 178,424 
		179,426 180,428 181,430 182,432 183,434 183,437 184,439 184,442 184,445 183,447 182,449 181,451 180,452 178,454 176,454 	"/>
	<polygon fill="#00FF00" stroke="#800080" points="158,613 155,613 152,613 149,613 147,612 146,610 145,608 144,606 144,603 
		145,601 146,599 147,597 148,595 149,593 151,591 152,589 153,587 154,586 155,584 157,582 158,580 159,578 160,576 160,574 
		161,572 162,570 163,567 163,565 164,563 165,561 167,559 168,557 169,556 171,555 173,554 176,553 178,554 180,555 181,557 
		183,558 184,560 185,562 186,564 186,567 186,570 186,573 186.767,575.477 187,578 187,581 187,584 186,586 185,588 184,590 
		183,592 182,593 180,595 179,597 178,599 177,601 176,602 174,603 172,605 171,606 169,608 168,609 166,610 164,611 162,612 
		159,612 	"/>
	<polygon fill="#00FF00" stroke="#800080" points="182,974 179,974 177,973 175,972 172,972 171,970 169,969 168,967 168,964 
		169,961 170,959 171,958 173,956 175,955 177,954 179,953 181,952 184,952 185,951 187,949 189,948 191,947 193,946 195,945 
		198,945 201,945 203.079,945.296 205.525,946.635 207,948 208,950 209,952 210,954 210,957 210,959 209,962 209,964 207,966 
		206,967 204,969 202,970 200,970 197,971 195,971 193,970 191,971 189,972 187,973 184,973 	"/>
	<polygon fill="#00FF00" stroke="#800080" points="188,352 185,352 183,351 181,350 179,349 177,348 176,346 175,344 174,342 
		173,340 173,337 173,334 174,332 174,329 175,327 176,324 177,322 178,320 179,319 180,316 180,314 182,312 183,311 185,309 
		186,307 187,306 188,304 190,302 192,301 193,300 195,299 198,298 201,298 203,299 205,300 206,302 207,304 208,306 209,308 
		209,311 209,313 208,316 207,318 206,320 205,322 205,324 204,327 203,329 202,330 201,332 200,335 199,337 198,339 198,342 
		197,344 196,345 195,347 193,349 192,350 190,351 	"/>
	<polygon fill="#00FF00" stroke="#800080" points="207,1 209,2 210,4 211,6 212,8 212,11 213,13 213,16 213,19 213,22 212,24 
		212,27 211,29 210,31 209,33 209,35 208,38 207,40 206,42 205,44 204,46 203,47 201,49 200,50 198,51 195,52 193,53 191,53 188,53 
		185,53 184,51 182,50 181,48 180,46 179,44 179,41 180,39 180,36 180,33 181,31 182,29 183,27 184,25 185,23 185,20 186,18 187,16 
		187,13 188,11 189,9 190,7 191,5 192,3 194,1 	"/>
	<polygon fill="#00FF00" stroke="#800080" points="207,603 204,603 202,602 200,601 199,599 197,598 194.879,596.188 194,595 
		193,593 192,591 191.335,588.471 191,586 191,583 192,580 193,578 194,576 195,574 196,572 197,570 197.399,568.39 199.21,566.815 
		201.1,565.397 203.226,564.137 205.116,563.114 208,563 211,563 214,563 217,563 219,564 221,565 222.52,566.893 223.544,568.39 
		224,571 224.174,573.902 224.174,576.659 224.252,580.517 223.386,584.061 222.52,587.369 220.866,589.888 219.212,592.015 
		217,595 216.062,596.426 215,598 213,599 211,600 209,602 	"/>
	<polygon fill="#00FF00" stroke="#800080" points="239,910 236,910 234,909 232,908 229,908 228,906 226,905 225,903 225,900 
		226,897 226,895 227,893 229,891 230,890 231,888 231,885 232,883 232,880 232,877 233,875 234,873 235,871 236,869 237,867 
		238,865 239,863 241,861 242,860 244,858 245,857 247,855 249,854 250,853 252,852 254,850 256,849 258,848 261,848 263,849 
		265,850 267,851 269,852 270,854 270,857 270,860 269,862 269,864 268,867 269,869 268,871 268,873 267,876 267,878 266,880 
		264,882 264,884 263,886 262,889 261,891 260,893 259,894 257,896 256,898 255,899 253,901 251,902 249,903 248,904 246,905 
		244,907 243,908 241,909 	"/>
	<polygon fill="#00FF00" stroke="#800080" points="258,594 255,594 252,594 249,594 247,593 245,592 243,591 241,590 239,589 
		237,588 236,586 234,585 233,583 232,581 232,578 232,575 232,572 233,570 235,568 236,567 238,565 240,564 242,563 244,562 
		246,561 249,561 252,561 255,561 257,562 259,563 261,564 262,566 264,567 266,568 267,570 268,572 269,574 269,577 269,580 
		269,582 268,584 267,586 266,588 264,590 263,591 261,593 259,593 	"/>
	<polygon fill="#00FF00" stroke="#800080" points="267.849,251.532 265,252 262,252 259.557,251.694 257.726,250.455 
		255.573,249.594 254,248 253,246 252,244 251.264,241.193 251.749,238.339 252.719,235.109 253.58,233.224 254.926,231.285 
		256.434,229.454 257.78,228.001 259.557,226.708 261.872,226.008 265.103,225.2 267.742,224.877 269.949,224.608 273,225 275,226 
		277,227 278.673,228.001 280.612,229.132 282,231 282.281,233.924 282.496,236.993 282,240 281.258,242.055 280,244 279,245 
		277,247 275,248 273.773,249.163 272,250 270,251 	"/>
	<polygon fill="#00FF00" stroke="#800080" points="329,562 326,562 324,561 321,561 319,560 317,559 314,559 312,558 310,557 
		308,556 306,555 304,554 302,553 300,552 299,550 298,548 297,546 295,545 293,544 292,542 290,541 289,539 288,537 287,535 
		286,533 286,530 286,527 287,524 288,523 290,521 292,520 294,519 297,519 300,519 302,520 304,521 307,521 309,522 311,523 
		313,524 315,525 317,526 319,527 322,527 324,528 326,529 328,530 329,532 331,533 333,534 335,535 336,537 338,538 339,540 
		341,541 342,543 343,545 344,547 343,549 343,552 342,554 341,556 340,557 338,559 337,560 335,561 332,561 	"/>
	<polygon fill="#00FF00" stroke="#800080" points="314.911,1021.934 312.723,1020.926 311,1021 309,1020 307,1019 306,1017 
		304,1016 301,1016 299,1015 298,1013 297,1011 296,1009 295,1007 294,1005 292,1004 291,1002 291,999 291,996 291,993 292,990 
		292,988 292,985 293,983 295,981 296,980 298,978 300,977 302,976 304,975 306,974 309,974 311,974 313,974 315,975 317,976 
		319,977 321,978 322.655,979.344 324,981 325,983 327,984 328.379,985.405 330,987 331,989 331,992 332,994 334,995 335,997 
		335,1000 336,1002 336,1005 335,1007 335,1009 333,1011 332,1013 331,1014 329,1016 328,1017 326,1019 324,1019 322,1021 
		320.635,1021.597 318.447,1021.934 	"/>
	<polygon fill="#00FF00" stroke="#800080" points="315,1 317,2 318,4 318,7 318,9 317,11 316,13 314,15 313,16 311,17 308,17 
		306,16 304,15 302,14 300,13 299,11 297,10 296,8 294,7 293,5 292,3 293,1 	"/>
	<polygon fill="#00FF00" stroke="#800080" points="340,733 337,733 334,733 332,732 329,732 327,731 324,731 323,729 321,728 
		319,727 318,725 316,724 315,722 313,721 312,719 311,717 310,715 308,714 307,712 306,710 305,708 304,706 303,704 302,702 
		301,700 301,697 301,694 300,692 299,690 298,688 298,685 297,683 297,680 297,677 297,674 296,672 296,669 296,666 297,664 
		297,661 298,659 298,656 299,654 301,652 302,650 303,649 305,647 307,646 309,645 311,644 314,644 317,644 319,645 321,646 
		323,647 325,648 327,649 329,650 330,652 331,654 332,656 333,658 334,660 336,661 337,663 338,665 339,667 339,670 340,672 
		341,674 342,676 342,679 343,681 344,683 345,685 345,688 346,690 347,692 347,695 348,697 349,699 349,702 350,704 351,706 
		351,709 351,712 351,715 351,718 351,721 350,723 349,725 348,726 346,728 345,729 343,731 342,732 	"/>
	<polygon fill="#00FF00" stroke="#800080" points="322.285,218.544 319,219 316.677,218.885 314.086,218.246 311.622,217.567 
		309,217 307,216 305,215 303.381,213.743 302,212 300.545,210.27 299.441,208.063 299,206 299.22,203.317 300.214,201.22 
		301.648,199.344 304,198 306,197 308.436,196.071 310.687,195.433 312.386,194.371 315,194 317.32,193.385 320,193 
		322.073,192.502 325,192 328.275,192.205 330,193 331.777,193.495 334.426,193.716 336.854,193.716 339,194 341.572,194.201 
		344,195 346,196 348,197 350,198 351,200 352,202 352,205 351,207 350,209 349,210 347,211 344,211 340.934,210.175 
		338.768,208.39 337.748,206.181 336.389,206.479 335.497,209.028 333.287,212.511 331,215 329.379,216.25 327.298,217.269 325,218 
			"/>
	<polygon fill="#00FF00" stroke="#800080" points="355,87 352,87 350,86 348,85 346,84 343.914,83.51 341,83 339,82 336.022,81.756 
		333.976,80.83 333,79 331,78 330,76 330,73 330,70 331,68 332.806,65.823 334.414,64.264 336,63 337,62 339,61 341,60 
		343.184,58.371 345.327,57.543 347.471,56.81 350,56 353,56 355,57 357,58 359,59 361,60 362,62 363,64 364,66 365,68 366,70 
		367,72 367.543,75.082 366.959,78.005 365.984,80.002 365.156,81.658 364.279,83.51 362.623,84.679 361.064,85.654 358.092,86.677 
			"/>
	<polygon fill="#00FF00" stroke="#800080" points="338.143,1024 338,1022 338,1020 338,1018 339,1016 340,1014 342,1012 343,1011 
		345,1009 346,1008 347,1006 349,1004 351,1003 353,1002 356,1002 359,1002 361,1001 363,1000 366,1000 369,1000 371,1001 373,1002 
		376,1002 378,1003 380,1004 382,1005 384,1006 386,1007 388,1008 390,1009 392,1010 394,1011 396,1012 397,1014 398,1016 399,1018 
		399,1021 398,1023 396,1024 	"/>
	<polygon fill="#00FF00" stroke="#800080" points="371,933 368,933 366,932 363,932 360,932 358,931 356,930 354,929 352,928 
		350,927 347,927 345,926 344,924 343,922 342,920 341,918 341,915 341,912 342,909 342,907 344,905 345,904 347,903 349,901 
		352,901 354,900 356,899 358,898 361,898 363,898 366,897 368,898 370,899 371,901 373,902 374,904 375,906 377,907 377,910 
		377,913 378,915 378,918 378,920 377,923 376,925 375,927 375,929 373,931 372,932 	"/>
	<polygon fill="#00FF00" stroke="#800080" points="380,198 377,198 375,197 373,196 371,195 369,194 367,193 366,191 365,189 
		364,187 363,185 362,183 361.244,181.025 360.581,178.487 360,176 359.257,173.741 359,171 359,168 359,165 358.383,162.269 
		358,160 358,157 358,154 358,151 358,148 359,146 360,144 361,142 362,140 364,138 365.879,136.659 368,136 371,136 
		373.163,135.997 375.039,136.549 376.474,137.211 378,139 379.122,140.302 381,142 382.544,143.502 383.095,145.378 384,148 
		385,150 385.634,152.552 386,155 387,157 387.298,159.51 388,162 388,165 388,168 387.96,170.216 388.622,172.643 389.064,174.52 
		388.843,176.396 389,178 388.843,180.26 389,182 389,185 389,188 388.503,190.406 388,193 387,194 385,195 383,196 381,197 	"/>
	<polygon fill="#00FF00" stroke="#800080" points="405,474 402,474 400,473 398,472 396,471 395,469 393,468 392,466 391,464 
		390,462 390,459 389,457 387,456 385,455 383,454 382,452 380,451 379,449 377,448 375,447 374,445 372,444 371,442 369,441 
		368,439 367,437 366,435 367,433 368,430 369,429 371,427 373,426 375,425 377,426 380,426 382,427 384,428 386,429 388,430 
		390,431 392,432 394,433 396,434 398,435 400,436 401,438 403,439 404,441 405,443 406,445 407,447 408,449 409,451 410,453 
		411,455 412,457 412,459 411,462 411,465 411,468 410,470 409,471 407,473 	"/>
	<polygon fill="#00FF00" stroke="#800080" points="404,1005 401,1005 399,1004 397,1003 394.535,1002.07 393,1001 391,1000 389,999 
		387,998 385,997 383,996 381,995 379,994 377,993 376,991 375,989 374,987 373,985 374,982 375,980 376,979 378,978 381,977 
		383,978 386,978 388,979 391,979 394,979 397,979 400,979 402,980 404,981 407,981 410,981 412,982 414,983 416,984 417,986 
		418,988 419,990 419,993 419,996 418,997 416,999 415,1001 413,1002 412,1003 409,1003 407,1004 	"/>
	<polygon fill="#00FF00" stroke="#800080" points="413,120 410,120 408,119 405,119 403,118 401,117 399,116 397,115 395,114 
		393,113 392,111 390,110 389,108 388,106 387,104 385,103 384,101 383,99 382,97 381,95 380,93 379,91 378,89 378,86 377,84 
		376,82 377,79 378,77 379,75 380,74 382,72 384,72 387,71 389,72 392,72 394,73 395,75 397,76 398,78 400,79 401,81 403,82 404,84 
		405,86 407,87 408,89 409,91 411,92 412,94 414,95 415,97 416,99 417,101 418,103 419,105 419,108 420,110 420,113 419,115 
		418,117 417,118 415,119 	"/>
	<polygon fill="#00FF00" stroke="#800080" points="400,778 397,778 394,778 391,778 388,778 385,778 384,776 382,775 381,773 
		381,770 381,767 382,765 383,762 384,760 385,758 386,756 387,755 388,753 390,751 391,750 393,749 395,747 397,746 398,745 
		400,743 402,742 404,741 407,741 409,740 411,739 413,738 415,737 418,737 421,737 423,738 425,739 426,741 428,742 428,745 
		428,748 428,751 428,754 427,756 426,758 425,759 424,761 422,763 421,764 419,766 417,767 416,768 414,769 412,771 411,772 
		409,773 407,774 405,775 403,777 401,777 	"/>
	<polygon fill="#00FF00" stroke="#800080" points="423,320 420.281,320.853 416.549,320.853 414,320 412,319 410,318 
		408.462,316.394 407,315 405.662,313.595 404,312 403,310 402,308 401.826,305.612 401,303 400,301 399,299 398.612,296.281 
		398,294 397,292 396,290 396,287 395,285 394.258,282.388 393.221,280.107 393,278 392,276 391.458,273.471 391,271 
		390.421,268.08 390.214,264.866 390.732,262.067 391,259 391.665,256.779 392.495,254.809 393.947,252.425 395.605,250.455 
		397,249 399,248 401,247 403,246 406,246 408.462,246.308 411,247 413,248 415,249 417,250 419,251 420.592,252.736 422,254 
		423,256 424,258 425,260 426,262 427,264 428,266 429,268 430,270 431,272 431.582,274.819 432,277 432,280 432.204,282.699 
		433,285 433,287 433,289 433,292 433,295 433,298 433,301 433,303 432.411,305.508 432,308 431,311 430,313 429,315 428,316 
		426,318 425,319 	"/>
	<polygon fill="#00FF00" stroke="#800080" points="451,458 448,458 445,458 443,457 441,456 440,454 438,453 436,452 433,452 
		431,451 429,450 427,449 425,448 423,447 421,446 420,444 418,443 417,441 415,440 414,438 412,437 411,435 410,433 408,432 
		407,430 406,428 405,426 403,425 402,423 401,421 400,419 400,416 399,414 399,411 399,408 399,405 399,402 400,400 401,398 
		403,396 404,395 406,393 408,392 411,392 414,392 416,393 418,394 420,395 422,396 424,397 426,398 427,400 429,401 430,403 
		432,404 433,406 435,407 436,409 437,411 438,413 440,414 441,416 442,418 444,419 445,421 447,422 449,423 450,425 452,426 
		453,428 455,429 456,431 457,433 459,434 460,436 461,438 461,441 462,443 461,445 461,448 460,450 459,452 458,454 457,455 
		455,456 453,457 	"/>
	<polygon fill="#00FF00" stroke="#800080" points="485,953 482,953 480,952 478,951 476,950 474,949 472,948 470,947 468,946 
		467,944 466,942 464,941 462,940 460,939 458,938 457,936 455,935 454,933 452,932 450,931 448,930 446,929 444,928 443,926 
		441,925 440,923 440,920 441,918 441,915 443,913 444,912 446,911 448,910 451,909 454,909 457,909 459,910 462,910 464,911 
		466,912 469,912 471,913 473,914 474,916 476,917 478,918 480,919 481,921 483,922 484,924 485,926 487,927 488,929 489,931 
		490,933 491,935 492,937 492,940 492,943 492,946 492,948 490,950 489,951 487,952 	"/>
	<polygon fill="#00FF00" stroke="#800080" points="459,840 456,840 453,840 451,839 449,838 448,836 447,834 446,832 445,830 
		445,827 444,825 444,822 443,820 442,818 442,815 443,812 444,810 445,809 447,808 450,807 452,806 455,806 457,807 459,808 
		460,810 462,811 463,813 464,815 465,817 465,820 465,823 465,826 465,829 464,831 464,834 463,836 462,838 461,839 	"/>
	<polygon fill="#00FF00" stroke="#800080" points="513,986 510,986 508,985 505,985 504,983 502,982 501,980 499,979 498,977 
		497,975 497,972 497,969 497,966 498,964 499,962 500,960 501,957 502,956 504,954 506,953 508,952 510,953 512,954 514,955 
		515,957 516,959 518,960 519,962 521,963 523,964 524,966 524,969 525,971 525,974 525,977 524,979 523,980 521,982 519,983 
		518,984 516,985 	"/>
	<polygon fill="#00FF00" stroke="#800080" points="548,985 545,985 543,984 540,984 538,983 536,982 535,980 533,979 532,977 
		531,975 529,974 529,971 529,968 529,965 528,963 527,961 528,959 528,956 527,954 528,951 528,949 529,947 529,944 530,942 
		531,940 532,938 533,935 534,933 534,931 535,929 536,927 538,925 539,923 540,922 543,921 545,920 547,919 548,918 550,917 
		552,915 554,914 556,913 558,912 560,911 563,911 565,911 568,910 570,909 573,909 575,910 578,910 580,911 582,912 584,913 
		586,914 588,915 589,917 590,919 591,921 592,923 593,925 593,928 593,931 592,933 591,934 589,936 588,937 586,939 585,940 
		583,942 582,943 580,944 578,945 575,946 573,946 571,948 570,950 569,951 567,953 566,954 565,956 564,959 563,961 562,963 
		562,965 561,968 560,970 559,972 558,974 557,976 556,978 555,979 553,981 552,982 550,983 	"/>
	<polygon fill="#00FF00" stroke="#800080" points="563,664 560,664 557,664 554,664 552,663 551,661 550,659 548,658 548,655 
		547,653 547,650 547,647 548,644 549,642 550,640 551,638 552,636 553,635 554,633 555,631 557,629 558,628 560,626 561,625 
		563,623 565,622 567,621 569,620 571,619 573,618 575,617 577,616 579,615 581,614 584,614 587,614 590,614 592,615 594,616 
		596,617 598,618 600,619 602,620 603,622 605,623 605,626 605,629 605,631 604,634 603,636 602,637 600,639 599,640 597,642 
		595,643 593,644 591,645 590,646 588,647 586,648 584,650 582,651 581,652 579,654 577,655 575,656 573,657 572,658 570,659 
		568,660 566,662 565,663 	"/>
	<polygon fill="#00FF00" stroke="#800080" points="567,876 564,876 561,876 559,875 558,873 556,872 555,870 554,868 553,866 
		552,864 552,861 552,858 552,855 552,852 553,849 553,847 553,844 554,842 554,839 555,837 557,835 557.543,832.853 557.749,830.8 
		558.262,828.641 559.239,826.227 560.523,823.864 562,822 563.091,820.577 564.991,819.242 567.611,818.163 569.768,817.135 
		571.72,816.314 573.928,816.212 576,817 577.319,818.831 578.448,820.936 579.476,823.044 580,825 580.657,827.718 581,830 
		581,832 580,835 580,837 579,840 578,842 578,844 577,846 576,849 575,851 575,854 574,856 574,859 573,861 574,863 574,866 
		573,868 572,870 571,872 570,874 569,875 	"/>
	<polygon fill="#00FF00" stroke="#800080" points="601,789 598,789 596,788 593,788 591,787 589,786 587,785 585,784 583,783 
		581,782 580,780 578,779 577,777 576,775 575,773 573,772 571,771 569,770 568,768 566,767 565,765 564,763 563,761 562,759 
		562,756 562.03,753.44 563,751 565,749 567,748 569,747 571,746 574,746 577,746 579,747 581,748 583,749 584,751 585,753 586,755 
		586,758 588,759 590,760 592,761 594,762 596,763 597,765 599,766 601,767 602,769 604,770 605,772 606,774 606,777 607,779 
		607,782 606,784 605,786 604,787 602,788 	"/>
	<polygon fill="#00FF00" stroke="#800080" points="595.563,1024 596,1022 598,1020 600,1019 602,1018 604.628,1017.06 
		606.597,1016.761 609,1016 612,1016 614.768,1016.344 617,1017 619,1018 621,1019 623,1020 624.311,1021.951 624.251,1024 	"/>
	<polygon fill="#00FF00" stroke="#800080" points="626,265 623,265 621,264 619,263 617,262 616,260 615,258 613.143,256.424 
		612,255 611,253 610,251 609,249 608,247 607.46,244.771 607,242 607,239 606.525,236.282 606,234 606,231 606,228 607,226 
		607.172,224.269 608.107,222.04 608.899,219.306 610,217 612,215 613,213 614,212 616,210 618,209 620,208 623,208 626,208 
		628,209 630,210 632,211 633,213 634,215 635.657,216.357 637,218 638,220 639,222 639.615,223.694 640,226 639.974,228.586 
		640,231 640,234 640,237 640.478,239.807 641,242 641,245 640,247 640,249 639,251 637,253 636,255 636,257 635,259 
		633.428,261.028 632,263 631,264 628.752,264.552 	"/>
	<polygon fill="#00FF00" stroke="#800080" points="632,764 629,764 626,764 623,764 620,764 617,764 615,763 612,763 611,761 
		609,760 608.29,758.31 608,755 609,753 610,751 611,749 612,747 612.744,746.618 616.696,744.589 620.512,742.452 630.584,736.958 
		636.231,734.669 641.878,733.905 645.999,735.737 649.051,738.636 652.714,741.384 656.682,744.436 658.056,745.809 658,748 
		657,750 656,752 655,754 654,755 652,757 650,758 648,759 646,760 644,760 642,761 640,762 638,763 635,763 	"/>
	<polygon fill="#00FF00" stroke="#800080" points="645.081,206.929 643,207 640,207 638,206 636,205 634,204 632,203 630,202 
		628.464,201.031 626.594,199.448 625.012,197.794 623.213,196.427 622,195 620.479,193.55 619,192 618,190 617,188 615.66,186.5 
		614,185 613,183 612,181 611.344,178.875 611,176 610.265,173.336 610,171 610,168 611,166 612.135,163.985 613.359,162.33 
		615.445,160.748 618,160 621,160 624,160 626,161 628,162 630,163 632,164 634,165 635.657,166.431 637,168 638,170 639,172 
		640.549,173.264 641.628,175.135 642.42,177.149 643,180 644,182 645,184 646,186 647,188 648,190 649,192 649.901,194.341 
		650.693,196.283 651,199 650,201 649.11,203.477 648,205 647,206 	"/>
	<polygon fill="#00FF00" stroke="#800080" points="651,819 648,819 646,818 643,818 641,817 639,816 638,814 637,812 635,811 
		634,809 633,807 633,804 633,801 634,799 635,797 636,795 638,793 639,792 641,790 642,789 644,787 646,786 648,785 650,784 
		651,783 653,782 655,781 657,780 659.421,779.099 661.107,778.35 663,778 665,779 667.475,779.661 669.534,780.223 671,782 
		673,783 675,784 676,786 678,787 679,789 681,790 682,792 683,794 684,796 684,799 684,801 683,803 682,805 680,807 678,808 
		677,809 675,810 673,811 670,811 667,811 664,811 661,811 659,813 658,814 656,816 655,817 653,818 	"/>
	<polygon fill="#00FF00" stroke="#800080" points="683,347 680,347 678,346 676,345 674,344 672,343 669.714,342.636 
		667.659,341.552 666,340 664.694,337.958 664,336 662.924,334.364 661.555,332.196 661,330 660.529,326.605 660.414,323.923 
		661.099,321.413 662,319 663.21,317.02 664.694,315.594 666.405,313.939 667.831,312.513 670,311 672,310 674.563,309.719 
		677.929,309.603 681,310 683,311 684.46,312.242 686,314 687,316 688,318 689,320 690.225,321.418 692,323 693.519,324.477 
		695,326 696,328 696,331 696,334 695.729,335.961 695,338 693.39,340.069 691.736,341.723 690,343 688,344 686.658,344.975 
		685,346 	"/>
	<polygon fill="#00FF00" stroke="#800080" points="692,56 689,56 687,55 685,54 683,53 680,53 678,52 676,53 673,53 671,52 669,51 
		667,50 666,48 665,46 665,43 664,41 665,39 666,36 666,34 667,31 668,30 670,28 672,27 674,26 676,25 678,26 681,26 683,25 686,25 
		688,26 691,26 693,27 694,29 696,30 697,32 698,34 700,35 702,36 704,37 706,38 707,40 708,42 709,44 709,46 708,48 706,50 705,51 
		703,52 701,53 698,53 696,54 694,55 	"/>
	<polygon fill="#00FF00" stroke="#800080" points="688,295 685,295 682,295 679,295 677,294 675,293 673,292 672,290 671,288 
		671,285 672,283 673,280 674,278 675,277 677,275 678,274 680,272 681,271 683,269 684,268 686,267 688,266 690,265 693,264 
		695,263 698,263 701,263 703,264 704,266 706,267 707,269 707,272 706,274 706,277 705,279 704,280 703,282 701,284 700,285 
		699,287 697,289 695,290 694,291 692,292 690,294 	"/>
	<polygon fill="#00FF00" stroke="#800080" points="706,570 703,570 700,570 698,569 696,568 695,566 693,565 692,563 691,561 
		690,559 689,557 689,554 688,552 688,549 688,546 689,544 688,542 689,539 689,537 690,534 691,532 691,530 692,528 693,526 
		694,524 695,521 696,519 697,517 698,515 699,514 700,512 701,510 703,508 704,507 706,505 707,504 709,503 711,502 714,501 
		717,501 719,502 721,503 723,504 724,506 725,508 726,510 727,512 727,515 726,517 727,519 727,522 726,524 726,527 726,529 
		725,532 725,535 724,537 723,539 722,541 722,544 722,547 721,549 720,551 720,554 719,556 718,558 717,560 716,562 715,563 
		713,565 712,566 710,568 708,569 	"/>
	<polygon fill="#00FF00" stroke="#800080" points="717,391 714,391 711,391 709.282,390.238 706.812,389.768 704,389 
		701.989,388.473 699.518,387.415 697.871,386.826 696,385 695,383 694,381 693,379 692,377 691.283,373.886 690.225,371.768 
		690,370 690,367 691,365 692,363 693,361 695,359 697,358 699,357 702,357 704,358 707,358 709,359 710.695,360.71 712,362 
		713.518,363.298 715,365 716.576,367.063 718,368 719,370 720,372 721.517,374.004 723,375 724,377 724.575,379.533 725,382 
		724,384 723,386 722,388 721,389 719,390 	"/>
	<polygon fill="#00FF00" stroke="#800080" points="721,177 718,177 716,176 714,175 711,175 709,174 707,173 705,172 704,170 
		702,169 701,167 699,166 699,163 699,160 699,157 699,154 700,152 701,149 702,147 703,146 704,144 706,142 707,141 709,140 
		711,138 712,137 713,135 715,133 716,132 718,131 720,129 721,128 723,126 724,125 726,123 727,121 728,120 729,117 729,115 
		730,113 732,111 733,109 734,108 735,105 736,103 737,101 738,100 739,98 741,96 742,94 744,93 745,92 747,91 749,90 752,89 
		754,89 757,88 759,89 762,89 764,90 765,92 767,93 769,94 770,96 771,98 773,99 774,101 774,104 775,106 776,108 776,111 777,113 
		777,116 777,119 777,122 776,124 775,126 775,129 775,132 774,134 773,135 772,137 771,140 770,141 769,143 768,145 767,147 
		765,149 764,151 763,152 761,154 760,155 759,157 757,159 756,160 754,162 752,163 751,164 749,166 748,167 746,168 744,169 
		742,171 740,172 738,172 736,173 734,175 732,175 730,176 727,176 724,176 	"/>
	<polygon fill="#00FF00" stroke="#800080" points="760,811 757,811 755,810 752,810 750,809 748,808 747,806 745,805 745,802 
		744,800 744,797 745,795 746,793 748,791 749,790 751,789 753,787 755,786 757,785 758,784 760,783 762,782 764,781 767,780 
		769,779 771,779 773,778 776,777 779,777 782,777 784,778 787,778 789,779 790,781 791,783 792,785 792,788 792,791 791,793 
		790,794 788,796 787,797 785,799 784,800 782,801 780,802 778,804 776,805 774,806 772,806 770,807 768,808 766,809 763,809 
		761,810 	"/>
	<polygon fill="#00FF00" stroke="#800080" points="792,533 789,533 786,533 784,532 783,530 781,529 780,527 778,526 777,524 
		776,522 774,521 773,519 771,518 770,516 769,514 768,512 767,510 766,508 766,505 766,502 767,500 769,498 771,497 773,496 
		776,496 778,497 780,498 782,499 783,501 785,502 786,504 788,505 789,507 791,508 792,510 794,511 795,513 797,514 798,516 
		798,519 799,521 799,524 798,526 797,528 796,530 795,531 793,532 	"/>
	<polygon fill="#00FF00" stroke="#800080" points="800,750 797,750 795,749 793,748 791,747 789.24,745.614 788,744 787,742 
		786,740 784.466,738.851 783,737 782,735 781,733 781,730 780,728 778,727 777,725 776,723 775,721 774.388,718.3 774,716 773,714 
		772,712 771,710 771,707 770,705 770,702 770,699 770,696 770,693 770,690 770.542,687.403 771,685 772,683 773,680 773,678 
		774,676 775,674 777,672 778,670 779,669 780,667 782,665 783,664 785,662 786,661 788,660 790,658 792,657 794,656 796,656 
		799,655 802,655 804,654 807,654 810,654 812,655 813,657 815,658 817,659 819,660 820,662 821,664 822,666 823,668 824,670 
		825,672 825,675 825,678 825,681 825,684 826,686 826,689 826,692 825,694 825,697 824,699 824,701 823,704 822,706 821,708 
		820,710 820,713 820,715 819,718 819,721 818,723 818,726 818,728 817,731 816,733 815,735 815,738 814,740 813,741 811,743 
		810,745 809,747 808,748 806,749 803,749 	"/>
	<polygon fill="#00FF00" stroke="#800080" points="793.315,204.849 791.497,205.279 789.845,205.213 787.731,204.783 
		785.649,204.023 783.567,202.966 781.849,201.809 780.527,200.323 779.337,198.141 778.842,195.927 779,194 779.598,191.516 
		780,189 780.686,185.988 781,184 781.592,181.727 781.229,179.008 782,176 784,174 785,173 786,171 788,169 790,168 792,167 
		794,166 796,165 797.907,164.959 800,165 802,166 804,167 805,169 806,171 807,173 808,175 808,178 808,181 808,183 807,186 
		806.609,188.616 806,191 805,193 804,195 803.528,196.955 803,199 802.137,200.257 800.981,201.611 799.857,202.239 
		798.569,202.933 796.817,203.693 795.132,204.387 	"/>
	<polygon fill="#00FF00" stroke="#800080" points="796,625 793,625 790,625 787,625 785,624 783,623 781,622 779,621 778,619 
		778,616 778,613 779,611 780,609 781,607 783,605 784,604 786,602 787,601 789,599 790,598 792,596 794,595 796,594 798,593 
		800,592 802,591 804,590 805,589 808,588 810,587 812,586 814,585 816,584 818,583 820,582 822,582 824,581 827,580 829,581 
		831,582 832,584 834,585 835,587 835,590 835,592 834,594 832,596 831,597 829,599 828,600 827,602 825,604 824,605 822,607 
		821,608 819,610 818,611 816,613 815,614 813,615 811,616 809,617 807,619 805,620 804,621 801,622 800,623 798,624 	"/>
	<polygon fill="#00FF00" stroke="#800080" points="805,559 802,559 800,558 799,556 797,555 796,553 795,551 794,549 793,547 
		792,545 793,543 794,541 796,539 797,538 799,537 802,536 804,535 806,536 808,537 811,537 813,538 815,539 816,541 817,543 
		817,545 816,548 815,550 814,552 813,553 811,555 810,556 808,557 806,558 	"/>
	<polygon fill="#00FF00" stroke="#800080" points="883,324 880,324 877,324 875,323 872,323 869,323 866,323 863,323 861,322 
		858,322 856,321 853,321 850,321 848,320 846,319 844,318 842,317 840,316 838,315 837,313 835,312 834,310 833,308 831,307 
		830,305 829,303 828,301 828,298 828,295 829,292 830,290 831,288 832,286 833,285 836,284 838,283 841,283 843,282 845,281 
		847,281 850,280 852,279 854,279 857,278 859,279 861,280 864,280 867,280 869,279 872,279 874,280 876,281 879,281 881,280 
		884,280 887,280 890,280 892,281 893,283 895,284 897,285 899,286 901,287 903,288 905,289 906,291 907,293 908,295 909,297 
		909,300 908,302 908,305 907,307 906,309 905,310 903,312 902,314 901,315 899,317 898,318 896,320 894,321 892,321 890,322 
		888,323 885,323 	"/>
	<polygon fill="#00FF00" stroke="#800080" points="870,825 867,825 864,825 863,823 861,822 860,820 858,819 857,817 855,816 
		853,815 851,814 849,813 846,813 844,812 842,811 841,809 839,808 837,807 835,806 834,804 833,802 832,800 832,797 833,794 
		834,792 835,791 837,790 839,788 841,787 843,786 845,785 848,785 851,785 853,786 856,786 858,787 859,789 861,790 863,791 
		865,792 866,794 867,796 869,797 870,799 872,800 873,802 874,804 875,806 876,808 877,810 878,812 878,815 877,817 877,819 
		876,821 874,823 873,824 	"/>
	<polygon fill="#00FF00" stroke="#800080" points="865,61 862,61 860,60 857.409,59.346 854.996,58.742 853,58 850,58 847,58 
		845,57 844,55 842,54 841,52 840,50 839,48 839,45 840,43 841,40 842,39 844,37 845,36 847,35 849,33 851,32 853,31 855,30 
		857.108,29.33 859,28 861,27 862,26 865,25 868,25 871,25 873,26 876,26 878,27 880,28 882,29 883,31 884,33 884,36 
		884.258,37.626 884.56,40.642 885,42 885,45 884,47 883,49 882,51 881,52 879,54 878,55 876,56 874,57 870.985,57.687 869,59 
		868,60 	"/>
	<polygon fill="#00FF00" stroke="#800080" points="864,642 861,642 858,642 855,642 853,641 852,639 851,637 851,634 850,632 
		851,630 851,627 852,625 853,623 853,620 853,617 853,614 853,611 852,609 853,606 854,604 855,602 856,601 858,599 859,598 
		862,597 864,598 866,599 868,600 870,601 871,603 873,604 874,606 875,608 876,610 876,613 876,616 876,619 876,622 876,625 
		876,627 875,630 874,632 873,634 872,636 871,637 869,639 868,640 866,641 	"/>
	<polygon fill="#00FF00" stroke="#800080" points="922,607 919,607 916,607 913,607 910,607 907,607 905,606 903,605 901,604 
		900,602 899,600 898,598 897,596 898,594 899,592 900,589 901,587 902,586 904,584 905,583 907,581 908,580 910,578 912,577 
		914,576 916,575 918,575 921,574 924,574 926,574 929,573 931,574 934,574 936,575 939,575 942,575 944,576 946,577 948,578 
		950,579 951,581 952,583 952,586 952,589 952,591 950,593 949,595 948,597 947,598 945,599 943,600 941,602 939,603 937,603 
		935,604 933,605 930,605 928,606 925,606 	"/>
	<polygon fill="#00FF00" stroke="#800080" points="917,1020 914,1020 911,1020 908,1020 905,1020 902,1020 901,1018 899,1017 
		898,1015 897,1013 897,1010 897,1007 898,1004 899,1002 900,1001 901,999 901,996 902,994 903,992 905,990 906,989 908,987 
		909,986 911,984 913,983 915,982 917,981 918,980 921,979 923,978 925,977 928,977 931,977 933,978 935,979 937,980 938,982 
		939,984 939,987 939,990 939,993 938,995 937,997 936,999 935,1000 933,1002 931,1003 930,1005 930,1008 929,1010 928,1011 
		927,1013 926,1015 924,1016 922,1017 920,1018 918,1019 	"/>
	<polygon fill="#00FF00" stroke="#800080" points="958,923 955,923 953,922 950,922 948,921 945,921 943,920 942,918 940,917 
		938,916 937,914 935,913 934,911 933,909 932,907 931,905 931,902 930,900 931,898 932,896 933,894 934,892 936,890 937,889 
		939,887 941,886 943,887 946,887 948,887 951,886 954,886 956,886 959,885 961,884 964,884 967,884 969,883 972,883 975,883 
		977,884 979,885 981,886 983,887 984,889 985,891 986,893 986,896 986,899 985,901 984,903 984,906 983,907 982,909 980,911 
		979,912 977,913 975,915 974,916 972,918 971,919 969,920 966,921 964,921 961,922 959,922 	"/>
	<polygon fill="#00FF00" stroke="#800080" points="971,252 969,251 966,251 964,250 962,249 961,247 959,246 959,243 958,241 
		957,239 956,237 955,235 955,232 955,229 954,227 954,224 954,221 954,218 955,216 956,214 957,212 958,209 959,207 960,206 
		962,204 964,203 966,202 969,202 972,202 974,203 976,204 978,205 979,207 980,209 980,212 981,214 981,217 981,220 981,222 
		980,225 979,227 979,230 979,233 980,235 979,237 980,239 980,242 979,244 978,246 977,248 976,249 974,250 972,251 	"/>
	<polygon fill="#00FF00" stroke="#800080" points="1024,342 1023,345 1022,346 1020,347 1018.194,347.383 1016,349 1014,350 
		1012,351 1010,352 1008,353 1005,354 1003,355 1001,356 1000,357 998,358 995,359 993,360 991.634,361.11 990,362 987.736,362.572 
		985.624,363.871 983.512,364.602 981.32,365.252 978.396,365.414 975.877,365.821 973,366 970,366 968.08,366.389 966,366 
		964.263,364.44 963,363 961.501,361.353 960,360 959,358 959,355 959,352 959,349 959.552,346.977 960.039,344.947 962,343 
		964,341 965.4,338.936 967,338 968,337 970,335 971.247,333.575 973.766,332.114 975,331 976.528,329.839 977.99,328.377 980,327 
		982,326 984,325 986,324 987.655,322.935 989.929,321.961 991.878,321.23 994,320 996,319 998,318 1000,317 1002,316 1004,315 
		1006.173,314.082 1008.691,313.432 1011,313 1014,313 1017,313 1020,313 1022.011,313.026 1024,314.65 	"/>
	<polygon fill="#00FF00" stroke="#800080" points="1024,560 1022,562 1020,562 1017,562 1015,561 1013,560 1011,559 1009,558 
		1007,557 1005,556 1003,555 1002,553 1001,551 1000,549 999,547 997,546 996,544 994,543 992,542 991,540 990,538 989,536 988,534 
		989,531 990,529 990,527 992,525 993,524 995,522 997,521 999,520 1001,519 1004,519 1006,518 1008,517 1011,517 1013,518 
		1016,518 1019,518 1021,519 1023,520 	"/>
	<polygon fill="#00FF00" stroke="#800080" points="1024,674 1023,676 1022,679 1021,681 1021,684 1020,686 1019,688 1018,690 
		1017,692 1016,693 1014,695 1013,696 1011,698 1009,699 1007,699 1005,700 1002,700 1000,699 998,698 997,696 996,694 995,692 
		994,690 993,688 994,686 995,684 995,681 995,678 996,676 997,674 997,671 998,669 998,666 999,664 1000,662 1001,659 1002,657 
		1003,655 1004,653 1005,651 1006,650 1008,649 1010,648 1013,647 1015,648 1017,649 1019,650 1020,652 1021,654 1022,656 1023,658 
			"/>
	<polygon fill="#00FF00" stroke="#800080" points="1024,890 1023,892 1021,894 1020,895 1018,896 1016,897 1014,898 1012,900 
		1011,901 1009,902 1006,903 1004,903 1001,903 999,902 997,901 996,899 994,898 994,895 994,892 994,889 995,887 996,885 997,883 
		998,881 999,878 1000,877 1002,875 1004,874 1005,873 1007,871 1008,870 1010,869 1012,868 1014,866 1016,865 1018,864 1020,863 
		1022,862 1024,863 	"/>
	<polygon fill="#00FF00" stroke="#800080" points="1024,753 1023,755 1021,757 1020,758 1018,759 1015,760 1013,760 
		1011.266,760.59 1008.795,760.49 1006.719,759.502 1005,758 1003,757 1002,755 1001,753 1000.788,750.704 1000,748 
		999.459,745.245 999,743 998.307,740.693 998.049,737.703 998,735 998,732 998,729 997.681,725.869 998,723 998.662,720.657 
		1000,718 1001,716 1002,715 1004,713 1005,712 1007,710 1009,709 1012,709 1014,708 1016,709 1018,710 1020,711 1021,713 1022,715 
		1023,717 1023,720 1023,723 1023,726 1023,729 1022.392,731.449 1022.207,733.594 1022.33,735.496 1022.33,737.519 
		1022.452,739.421 1022.944,741.75 1024.001,745.182 	"/>
	<polygon fill="#00FF00" stroke="#800080" points="1024,791 1022,792 1019,792 1016,792 1014,791 1012,790 1009.982,789.155 
		1008,788 1006,787 1005,785 1005,782 1005,779 1006,777 1007,775 1009,773 1010.08,771.76 1011.86,770.177 1014,769 1016,768 
		1018.087,767.013 1021,767 1024,767.213 	"/>
	<polygon fill="#00FF00" stroke="#800080" points="239,956 236,956 234,955 232,954 231,952 229.803,950.195 229,948 229,945 
		230,942 231,940 231.594,938.344 232.543,936.658 233.649,934.921 235,933 235.967,930.653 236.388,928.44 236.862,925.28 
		237.758,923.174 239,922 241,920 243,919 245,918 246,917 248,916 250,914 252,913 254,912 257,912 259,911 261,910 264,910 
		267,910 270,910 272,911 274,912 276,913 277,915 278,917 279,919 280,921 281,923.375 281,925 280,928 279,930 278.125,932.375 
		277,934 276,935 274,937 273,938 271,940 270,941 268,942 266,943 264,944 262,945 260,947 258,948 257,949 255,950 
		252.928,951.461 251,953 249,954 246.291,954.62 244,955 241.708,955.621 	"/>
	<polygon fill="#00FF00" stroke="#800080" points="317,919 314.034,919.528 311,919 309,918 307.599,916.404 306,915 305,913 
		303.459,911.399 302.142,909.781 300.9,908.427 299.207,906.695 298,905 296.798,903.389 295.255,901.35 294,900 292.169,898.302 
		291.341,896.88 290,895 289,893 288,891 288,888 289,886 290,884 291.642,881.904 294.126,880.323 296.534,879.645 299.207,879.57 
		301.465,880.662 303,882 304,884 304.4,886.938 305,889 305.83,891.343 307,893 308.389,895.067 310.045,896.498 311.438,897.628 
		313.094,898.68 315.766,899.772 317.986,900.714 319.755,902.481 320.771,904.326 321,906 321.373,909.517 321,912 320.733,914.26 
		320,916 319,918 	"/>
	<polygon fill="#00FF00" stroke="#800080" points="480.823,530.002 478.603,530.334 476.716,530.444 474.718,529.556 473,528 
		471,527 469,526 467.391,524.894 465.837,523.451 464,522 462,521 460.397,520.01 459.065,519.121 456.956,519.01 454.957,518.677 
		452.848,517.789 450.406,516.679 447.853,516.568 445,516 442.746,515.679 440.193,515.013 438.084,514.57 435.42,514.014 
		432.533,513.461 430.313,513.571 427.538,513.015 425,512 423,511 421,510 419.323,508.908 418,507 417,505 416,503 416,500 
		417,498 418,495 419,493 420,492 422,490 423,488 424,487 426,485 427,484 430,483 433,483 435.641,482.821 438,482 440,481 
		443,481 446,481 449,481 451.738,481.599 454,482 456,483 458,484 460.064,484.375 463,485 465,486 468,486 470.721,486.706 
		473,487 475,488 477,489 479,490 480,492 482,493 483,495 484,497 485,499 487,500 489,501 490,503 492,504 493,506 494,508 
		495,510 495,513 495,516 495,519 494,521 493,523 491.924,524.561 490.814,525.56 489.371,526.115 487.928,526.781 
		486.041,527.447 484.375,528.224 482.71,529.112 	"/>
	<polygon fill="#00FF00" stroke="#800080" points="514.151,854.741 511.499,854.741 509,854 507.688,851.677 507.357,849.439 
		507,847 506.694,843.971 507,842 507,840 507.523,837.51 508,835 508.6,831.711 509,830 509.677,827.235 510,825 510.671,822.596 
		511.417,819.862 512,818 513,816 514,814 515.604,811.794 517,810 518,809 520,807 521,806 523,804 524,803 526.261,801.724 
		528.834,801.318 531.86,801.408 534,802 536,803 538,804 539.354,806.736 539.535,809.851 539.4,812.696 539.309,815.632 
		539.264,817.933 539.088,820.442 538.839,823.592 538.342,826.324 537.763,829.224 537,831 536.354,832.869 536,835 535,838 
		534,840 533,842 532,844 531,846 530,848 529,849 527,851 526,852 524.092,853.086 522,854 519.204,854.576 516.47,854.659 	"/>
	<polygon fill="#00FF00" stroke="#800080" points="838.249,170.812 836,171 833,171 830,171 828,170 826,169 825,167 
		824.478,165.135 823.994,163.021 824,161 824.598,158.128 824.901,155.349 824.84,152.269 824.478,149.43 824,146 823.329,144.054 
		822.424,141.88 822.424,139.947 823,138 824,137 826.41,136.142 828,136 830.457,136.867 832.934,137.833 835.47,138.8 
		837.282,139.585 839,140 841,141 843,142 844.229,143.511 846,145 847,147 848.397,148.524 850,150 851.054,152.45 
		851.839,155.048 851.839,157.464 851.779,160.242 850.872,162.356 849.484,164.772 848.155,166.282 846.524,167.128 
		845.014,168.577 842.416,169.484 840,170 	"/>
	<polygon fill="#00FF00" stroke="#800080" points="815,146 812,146 809,146 806,146 804,145 803,143 801.585,141.398 801,139 
		801,136 802,134 804,132 804.968,130.284 806,129 808,127 809.8,125.694 811.249,124.123 813,123 814.33,121.586 816.081,120.318 
		818,119 820,118 821,117 823,115 825,114 826,113 828,111 829,110 831.121,108.358 833,107 834.202,106.003 835.712,104.734 
		838.49,103.103 841.269,102.56 844.047,103.526 845.678,105.157 846.463,107.03 847,109 847.671,111.137 848,114 848,117 
		848.155,120.378 847.671,122.794 846.705,124.848 845.739,126.479 845,128 843.685,129.68 842.416,131.19 841,133 839,135 838,136 
		836,137 833,137 831,136 829,135 826,135 824,136 822,138 821.276,140.01 821.336,142.365 819.948,144.116 818,145 	"/>
	<polygon fill="#00FF00" stroke="#800080" points="215.16,1.039 215.447,3.28 217.105,5.23 219.055,6.596 221.007,7.864 
		223.055,8.449 225.094,8.665 227.069,8.853 229.231,8.571 231.152,7.962 233.298,6.791 235.444,5.621 237.492,4.938 238.955,3.572 
		240.029,2.304 240.111,1.039 	"/>
	<polygon fill="#00FF00" stroke="#800080" points="223.659,10.775 222.75,12.333 221.834,14.916 220.834,16.916 219.834,19.5 
		219.417,22 219.834,24.5 220.917,26.75 222.417,28.75 223.584,30.833 224.917,32.416 226.167,34.25 228.084,36 229.834,37.25 
		231.584,38.416 233.667,39.75 236.167,40.833 238.5,41 241.25,41.083 243.417,40.75 245.5,40.25 247.25,39.166 248.417,37.583 
		249.334,35.583 250.084,33.666 251,32.416 251.667,30.75 251.75,29.083 250.75,27.083 249.75,25 248.834,23 247.834,20.916 
		246.667,19.25 245.557,17.246 244.5,15.166 243.701,13.258 242.75,11.416 241.25,9.333 239.917,7.416 238.5,6.583 236.527,6.51 
		234.219,7.388 232.364,8.567 230,9.583 227.104,9.862 225.046,10.13 	"/>
	<polygon fill="#00FF00" stroke="#800080" points="195.834,81.166 194.167,84.666 193.834,89.833 193.5,93.833 193.667,98.333 
		194,101.833 194.334,105.833 194.334,109 194,112.666 194.167,116.666 194.334,121.166 195.167,125.5 196.667,129.333 
		198.334,133.166 200.667,136 202.834,138 205.334,139.833 208.167,140.166 211.167,139.666 214,137.666 216.167,136 218,133.833 
		220.5,130.666 222.167,127.833 223.334,124.333 224.167,120.666 225.334,117.5 225.334,115 225.334,111.166 225,107.166 224.5,103 
		223.834,99.5 222.5,96.5 221.667,92.5 221.334,89 219.834,86 217.667,82.833 216.167,80.5 213.667,77.5 211,75 207.834,73.833 
		204.667,73.5 202.334,74.5 200,76 198,78.166 	"/>
	<polygon fill="#00FF00" stroke="#800080" points="46,307.125 44.625,310.5 44.375,314.625 45,318.875 46.125,321.875 
		48.125,324.75 50.5,326.5 53.375,327.125 56.75,327.375 59.75,327.375 62.75,327.5 65.375,327.375 68,327 71.125,326.125 
		73.875,324.5 76,323 78.125,320.625 78.875,317.875 78.5,315.125 77.875,312.625 76.375,309.75 75.75,307.125 75,304.5 
		73.5,302.25 71.75,300.625 68.125,299.625 65.125,298.875 62,298.75 59.25,299.125 56.75,299.75 54.5,300.75 52.125,301.75 
		49.875,303.25 48,305.125 	"/>
	<polygon fill="#00FF00" stroke="#800080" points="0,313.325 2.088,314.419 5.283,315.52 8.368,316.071 12.334,315.52 
		15.198,314.529 17.732,312.986 19.715,311.554 21.698,309.461 22.469,307.147 22.91,304.723 22.249,302.079 20.927,299.105 
		19.385,298.003 16.74,297.011 14.207,296.571 11.783,296.791 9.562,297.781 7.046,298.664 5.258,300.359 3.896,301.502 
		2.316,302.499 0,303.242 	"/>
	<polygon fill="#00FF00" stroke="#800080" points="0,302 1.927,301.648 3.921,300.165 6.28,298 8.152,297.417 10.584,296.25 
		12.238,295.909 13.876,295.541 15.982,295.836 17.806,296.371 19.363,295.933 20.707,294.478 21.147,291.944 21.037,289.079 
		20.596,286.876 20.156,285.003 20.156,283.02 20.266,280.706 19.825,278.283 19.385,276.19 18.503,274.096 17.732,271.893 
		16.631,269.249 15.749,267.266 14.096,265.283 12.775,263.079 11.343,261.537 9.8,260.105 8.147,258.893 6.385,258.011 
		4.732,256.69 2.749,256.359 1.096,256.469 0,257.562 	"/>
	<polygon fill="#00FF00" stroke="#800080" points="475.717,539.436 474.828,542.1 474.718,544.431 474.828,547.207 474.939,549.872 
		475.939,552.313 477.493,554.424 479.047,556.31 480.934,558.197 482.932,559.753 484.93,560.861 487.484,561.305 489.704,560.752 
		492.035,559.753 494.144,558.308 495.921,556.089 497.031,554.091 498.03,551.76 499.029,549.539 499.695,547.207 500.028,544.544 
		500.028,541.767 499.917,539.216 499.584,536.439 498.696,534.219 497.697,532.109 496.365,530.334 494.699,529.112 
		492.812,528.224 490.814,527.67 488.483,527.891 485.929,528.89 483.821,529.778 481.711,531.11 480.157,532.332 478.936,533.664 
		477.604,535.44 476.605,537.218 	"/>
	<polygon fill="#00FF00" stroke="#800080" points="437.261,584.187 435.927,587.302 435.779,590.562 436.52,593.824 
		438.151,596.937 439.781,600.052 442.006,603.312 445.267,606.278 448.677,608.056 451.791,608.946 455.645,609.391 458.611,608.8 
		461.724,609.984 464.689,612.06 467.803,612.653 471.213,612.209 474.326,611.022 477.143,609.837 479.515,608.353 
		481.591,606.278 482.332,603.906 482.332,600.793 479.96,598.568 475.512,596.64 470.62,594.715 467.061,592.786 464.244,590.859 
		460.241,588.931 456.535,587.152 453.57,585.224 449.864,583.446 447.195,581.964 444.081,581.518 440.375,581.964 	"/>
	<polygon fill="#00FF00" stroke="#800080" points="237.484,629.737 235.816,631.196 234.461,633.907 233.523,636.929 
		233.523,640.265 233.627,643.184 233.627,646.311 234.149,648.918 235.087,652.046 236.338,654.65 237.693,657.258 
		239.256,659.654 241.133,662.156 243.009,664.344 245.615,665.386 248.325,666.117 251.348,666.637 254.058,666.325 
		256.351,666.012 258.436,665.074 260.521,663.823 261.876,661.947 262.502,659.759 263.544,658.403 263.544,656.11 
		263.648,653.713 263.336,651.629 262.71,649.23 261.876,646.102 261.355,643.288 260.73,640.89 260.138,638.273 259.637,635.831 
		259.085,633.213 257.697,631.04 255.766,629.47 254.015,627.963 251.662,626.996 249.101,626.469 246.329,626.33 243.211,626.885 
		240.023,627.993 	"/>
	<polygon fill="#00FF00" stroke="#800080" points="215.125,948 216.625,950.375 219.25,952 222.25,951.875 224.75,950.25 
		226.875,948 227.875,945.375 229,942.875 230,939.625 231,937.125 232.25,935 233.875,932.875 235,931 235.75,928.5 235.875,926.5 
		235,924 233,921.75 231.25,921.125 229.375,921 226.875,921 224.25,921.375 221.75,922.5 219.5,923.5 217.25,924.875 
		215.25,925.875 213.75,927.75 211.981,929.791 210.875,931.654 210.117,934.101 210.625,937.25 211.375,939.875 212,942.625 
		212.875,945 213.625,946.75 	"/>
	<polygon fill="#00FF00" stroke="#800080" points="0,630.45 2.581,629.325 4.523,626.974 5.749,624.521 6.465,621.558 6.873,618.8 
		7.078,616.141 7.078,613.178 6.873,609.908 5.954,607.252 5.443,604.8 3.705,601.632 2.173,599.384 -0.075,598.565 	"/>
	<polygon fill="#00FF00" stroke="#800080" points="306.881,879.304 305.523,881.535 304.747,883.671 305.232,886.58 
		305.911,889.101 306.881,891.235 308.239,893.079 309.791,894.923 311.537,896.182 313.283,897.541 315.029,898.608 
		317.163,899.287 319.297,899.385 321.82,899.094 324.148,898.705 326.67,897.928 328.707,896.571 330.744,894.825 332.102,892.885 
		333.363,890.556 333.945,888.715 334.139,886.289 334.139,884.154 333.363,881.826 332.296,879.983 331.229,878.044 
		329.871,876.298 328.319,875.036 326.573,874.066 324.051,873.29 321.14,872.804 318.521,872.902 316.193,873.484 313.671,874.163 
		311.343,875.134 309.112,876.394 	"/>
	<polygon fill="#00FF00" stroke="#800080" points="915.782,0.219 916.235,2.33 918.799,4.744 922.419,6.705 926.642,7.459 
		930.112,7.459 934.938,6.403 938.407,5.347 941.574,4.744 945.044,3.236 947.909,1.576 948.815,0.219 	"/>
	<polygon fill="#00FF00" stroke="#800080" points="1024,447.918 1022,449.5 1019.583,450.834 1016.917,452 1014.167,452.918 
		1011.583,453.168 1008.833,453.334 1006,453.334 1002.917,452.75 1000.667,452.168 998.417,451.584 995.917,450.5 993.25,449.25 
		991.083,448 989.083,446.5 987.833,445 987,443.75 985.917,441.834 984.516,439.851 983.825,437.977 983.777,435.658 
		984.083,433.834 985.833,431.584 987.417,429.918 989.333,428.084 991.083,426.334 993.333,425 995.75,423.5 997.917,422.25 
		1000.25,420.75 1002.75,419.833 1005.083,418.75 1007.167,417.75 1010.25,417.5 1013,417.333 1015.833,416.917 1018.333,416.583 
		1020.917,416.5 1022.917,416.417 1024.083,416.5 	"/>
	<polygon fill="#00FF00" stroke="#800080" points="771.519,1024.002 773.086,1021.015 775.727,1019.145 778.256,1017.275 
		781.006,1016.065 784.196,1015.735 787.056,1015.845 789.696,1017.275 791.785,1019.695 793.106,1021.895 793.398,1024.002 	"/>
	<polygon fill="#00FF00" stroke="#800080" points="511.002,856.067 509.262,857.061 507.523,858.968 506.446,861.535 
		506.637,864.586 506.813,867.007 507.65,869.427 508.97,871.584 510.335,873.433 512.228,875.37 514.033,877.439 515.398,878.936 
		516.763,880.697 518.215,882.459 520.109,883.867 522.398,883.911 524.01,882.91 526.329,880.84 528.235,879.098 529.892,877.442 
		530.72,875.702 531.549,873.301 531.632,870.317 531.29,866.83 530.497,864.188 529.561,861.535 528.604,858.994 526.992,856.895 
		524.507,855.487 521.69,855.321 518.293,855.653 515.808,855.653 513.156,855.735 	"/>
	<polygon fill="#00FF00" stroke="#800080" points="900.321,740.889 900.128,742.346 899.878,743.804 900.527,744.864 
		901.763,744.864 904.295,742.096 906.268,740.271 908.358,738.975 909.948,737.916 911.891,736.944 913.893,736.443 
		915.513,736.003 916.897,736.157 918.81,736.719 921.286,736.607 922.974,735.369 924.212,733.344 925.225,731.544 
		925.337,729.293 924.887,727.153 923.424,725.129 921.511,723.889 918.585,723.327 916.447,723.439 914.196,723.327 
		912.17,724.227 910.146,725.467 908.118,727.041 906.431,728.168 904.968,729.854 903.842,731.317 902.491,733.456 
		901.591,735.481 900.804,737.282 900.466,738.97 	"/>
	<polygon fill="#00FF00" stroke="#800080" points="407.5,589.167 407.833,594.167 407,598.167 405.167,603.333 402.667,606.833 
		398.833,611.167 395.333,614.167 391.167,617.667 388.333,618.833 384.833,619.667 381.667,619.667 379.833,619.667 384,623.833 
		386.833,626.667 394,631.833 402.5,637.5 411.833,638.833 419.667,638 427.667,636.333 433.5,631.667 436.167,623.5 
		435.667,615.333 433.667,612 430,607.5 427.167,606.333 423.833,605.5 419.667,605.167 418.167,603.667 417.333,599.167 
		416,594.833 413.167,590.833 410.667,589.167 407.333,588.333 	"/>
	<polygon fill="#00FF00" stroke="#800080" points="237.980,626.643 237.061,625.157 236.422,622.329 236.604,619.045 236.787,616.399 237.608,614.119 238.611,611.747 239.980,609.467 241.166,607.459 243.082,605.636 245.089,603.992 246.822,602.169 249.376,601.256 251.292,599.980 253.938,598.976 256.584,598.428 259.138,597.789 261.966,597.332 264.338,597.789 266.527,598.792 268.352,599.888 269.903,601.439 271.180,603.264 271.910,605.180 272.366,607.368 273.096,609.192 272.457,610.743 271.362,612.932 270.085,614.757 268.899,616.580 267.074,618.588 265.341,620.504 264.064,622.236 262.422,624.152 261.144,626.385 260.160,628.781 259.004,630.108 257.163,629.637 254.893,627.409 252.153,625.996 249.584,625.525 246.501,625.182 244.018,625.568 242.005,626.297 239.907,626.983 237.980,626.643"/>
	<polygon fill="#00FF00" stroke="#800080" points="901.929,750.899 903.617,754.613 905.080,758.102 907.331,760.802 909.582,763.503 912.620,765.415 915.770,766.767 919.596,766.880 922.635,766.430 925.112,765.192 927.474,763.391 928.938,761.252 929.501,758.663 926.800,755.400 925.112,753.149 923.649,750.673 921.509,747.297 920.158,744.369 919.371,741.781 919.258,739.304 917.795,737.504 915.657,737.054 912.392,737.729 910.029,738.967 907.552,740.768 905.528,742.231 903.051,744.708 901.250,747.521 901.929,750.899"/>
	<polygon fill="#00FF00" stroke="#800080" points="614.102,736.042 618.986,728.869 626.923,722.459 632.569,719.102 638.369,717.423 645.847,718.491 651.951,722.306 656.378,728.410 659.277,734.362 660.193,741.993 658.819,745.198 654.393,741.688 650.883,739.093 647.678,736.346 645.083,734.057 642.946,733.599 638.520,733.751 634.705,734.667 629.669,736.804 622.343,740.314 617.613,742.909 613.187,745.046 611.813,745.656 612.119,742.299 614.102,736.042"/>
	<polygon fill="#00FF00" stroke="#800080" points="379.833,618.833 384.166,619.500 390.166,618.167 393.623,615.132 397.000,612.167 398.296,610.947 399.491,609.822 402.666,606.833 404.213,604.106 406.166,600.667 406.734,598.965 407.000,598.167 407.167,594.500 407.108,593.167 407.001,591.333 406.168,588.833 403.501,587.333 395.334,587.833 388.667,590.667 383.167,596.667 379.834,601.333 377.501,606.333 377.001,610.667 377.834,615.167 379.833,618.833"/>
</g>
</svg>
