<?xml version="1.0" encoding="utf-8"?>
<!-- Generator: Adobe Illustrator 16.0.5, SVG Export Plug-In . SVG Version: 6.00 Build 0)  -->
<!DOCTYPE svg PUBLIC "-//W3C//DTD SVG 1.1//EN" "http://www.w3.org/Graphics/SVG/1.1/DTD/svg11.dtd">
<svg version="1.1" id="Layer_1" xmlns="http://www.w3.org/2000/svg" xmlns:xlink="http://www.w3.org/1999/xlink" x="0px" y="0px"
	 width="1014px" height="763px" viewBox="0 0 1013 763" enable-background="new 0 0 1014 763" xml:space="preserve">
<g id="Raw_image">
	
		<image overflow="visible" enable-background="new    " width="1014" height="763" xlink:href="otherspecimen_3.jpg"  transform="matrix(1 0 0 1 0 -2.441406e-004)">
	</image>
</g>
<g id="Not_annotated" display="none" opacity="0.5">
</g>
<g id="Clumps" display="none" opacity="0.5">
</g>
<g id="Single_nuclei" opacity="0.2">
	<polygon fill="#00FF00" stroke="#800080" points="729.906,677.29 726.906,677.29 723.906,677.29 721.906,676.29 719.906,675.29 
		717.906,674.29 716.906,672.29 715.906,670.29 713.906,669.29 713.906,666.29 712.906,664.29 710.906,663.29 709.906,661.29 
		708.906,659.29 708.906,656.29 707.906,654.29 706.906,652.29 705.906,650.29 704.906,648.29 704.906,645.29 705.906,642.29 
		705.906,640.29 707.906,638.29 708.906,637.29 710.906,635.29 712.906,635.29 715.906,634.29 718.906,634.29 720.906,635.29 
		722.906,636.29 724.906,637.29 725.906,639.29 727.906,640.29 730.906,640.29 733.906,640.29 735.906,641.29 737.906,642.29 
		739.906,643.29 741.906,644.29 742.906,646.29 744.906,647.29 745.906,649.29 745.906,652.29 746.906,654.29 746.906,657.29 
		746.906,659.29 745.906,662.29 744.906,664.29 743.906,665.29 742.906,667.29 740.906,669.29 739.906,671.29 738.906,672.29 
		736.906,673.29 734.906,675.29 732.906,676.29 730.906,676.29 	"/>
	<polygon fill="#00FF00" stroke="#800080" points="765.182,634.341 760.055,636.566 755.594,639.242 752.693,643.033 751.58,648.83 
		754.979,654.317 759.385,657.971 763.844,662.43 769.418,665.775 774.545,669.344 779.896,672.018 786.361,673.802 
		792.828,674.693 798.85,675.362 803.979,676.031 809.328,677.146 814.232,677.594 820.031,678.261 824.713,679.822 831.18,679.822 
		836.527,678.929 840.543,677.594 843.465,674.678 845.672,669.344 847.455,664.885 848.348,660.201 847.771,655.31 845.449,651.51 
		841.213,647.937 838.092,645.712 832.74,643.26 824.713,642.14 817.227,642.149 810.189,640.659 804.563,639.174 798.104,638.427 
		791.648,638.177 786.521,637.017 781.387,635.444 775.84,634.12 770.625,633.79 	"/>
	<polygon fill="#00FF00" stroke="#800080" points="726.951,594.886 725.438,599.258 725.941,603.79 727.119,608.324 
		728.967,612.187 731.652,615.383 735.016,618.066 738.205,621.094 740.727,623.441 743.916,625.797 747.777,627.808 
		752.648,629.32 757.186,629.488 761.385,629.824 766.256,630.836 770.623,631.844 775.494,633.183 779.859,634.023 
		785.402,635.031 790.273,636.547 795.479,637.051 800.354,637.552 805.057,638.222 809.758,639.566 813.789,640.573 
		817.146,641.077 820.676,641.077 823.531,640.237 824.707,638.054 823.025,634.695 817.314,631.676 812.611,628.984 
		807.91,626.969 804.215,624.953 800.186,623.441 795.984,620.926 793.299,619.074 790.104,616.554 784.729,614.711 
		779.354,614.371 775.662,612.187 773.646,609.672 770.791,605.972 765.416,602.445 762.393,600.261 757.521,597.238 
		752.313,595.726 745.596,594.051 740.559,593.547 735.184,593.211 731.652,593.04 729.135,593.379 	"/>
	<polyline fill="#00FF00" stroke="#800080" points="1014.135,176.779 1009.943,179.417 1005.602,181.589 1002.563,183.336 
		999.229,185.054 994.736,187.02 990.281,187.783 986.439,187.935 982.479,187.486 978.754,185.624 975.648,183.296 
		972.896,180.506 971.771,178.177 970.375,174.606 969.441,169.796 968.668,164.83 968.354,160.485 968.979,156.295 
		971.928,152.882 974.41,149.778 974.1,146.364 976.117,142.95 978.754,140.002 981.236,136.898 984.342,133.95 987.602,131.312 
		991.789,129.605 995.67,127.898 999.236,126.502 1003.271,125.26 1006.842,124.639 1010.41,124.177 1012.584,124.795 
		1014.135,125.726 1014.135,176.779 	"/>
	<polygon fill="#00FF00" stroke="#800080" points="965.072,170.623 968.572,175.456 970.572,179.141 973.146,182.628 
		975.979,185.206 978.506,186.927 981.486,188.491 984.906,189.123 988.715,189.148 992.354,188.743 995.639,187.986 
		998.314,186.874 1000.846,185.711 1003.74,184.79 1006.906,185.623 1008.906,188.29 1009.906,192.456 1010.072,195.623 
		1010.24,200.456 1009.906,205.29 1008.24,210.29 1005.572,213.123 1002.072,215.456 996.906,217.456 992.406,218.956 
		987.906,220.123 982.906,220.956 977.906,221.456 972.906,221.123 968.74,221.29 963.406,221.29 960.072,221.623 955.74,221.79 
		952.072,221.29 948.572,220.956 945.906,219.456 943.406,217.623 941.406,214.123 939.24,210.456 936.072,208.456 933.74,205.79 
		931.572,202.623 929.24,200.123 927.406,198.123 925.906,195.456 925.906,191.956 926.572,188.123 929.24,183.456 931.406,180.123 
		935.406,177.123 940.406,174.123 945.572,171.29 951.072,169.29 957.406,168.29 961.406,168.956 	"/>
	<polygon fill="#00FF00" stroke="#800080" points="896.66,205.041 895.414,207.906 894.418,212.391 893.422,216.253 
		892.674,220.863 892.424,225.472 893.795,229.21 896.66,232.947 900.646,235.564 904.635,237.806 908.246,239.925 910.861,242.416 
		915.225,244.16 919.459,243.288 923.322,240.796 926.063,238.927 929.053,236.809 932.043,235.065 934.285,233.072 936.15,230.705 
		937.646,229.085 939.518,227.219 941.387,224.6 942.631,222.233 942.631,219.617 941.137,216.627 939.643,214.135 937.771,211.519 
		935.281,209.526 933.039,207.159 930.92,204.916 928.928,202.427 927.309,200.431 924.939,199.559 921.701,198.936 
		918.213,198.064 915.1,197.815 912.729,199.061 909.867,200.556 907.375,201.054 904.51,201.802 902.021,202.427 899.523,203.297 	
		"/>
	<polygon fill="#00FF00" stroke="#800080" points="710,139.525 705.186,143.618 703.74,149.638 705.906,155.418 708.797,160.234 
		711.688,165.291 718.91,169.143 724.207,169.866 731.434,169.866 737.211,168.662 743.229,166.494 749.492,166.976 
		754.309,169.866 760.088,172.514 765.146,175.886 770.439,180.22 776.223,183.594 782.963,184.796 789.705,185.277 
		796.449,183.832 803.914,182.147 807.523,179.498 809.211,174.682 807.523,169.866 805.117,165.052 801.984,158.789 
		799.818,154.936 796.449,149.879 791.873,144.822 786.096,140.007 780.557,136.635 775.018,133.987 769.479,131.578 
		763.938,129.893 759.604,128.689 754.309,127.725 748.527,127.725 743.713,126.762 739.857,124.113 735.045,123.391 
		729.506,125.318 724.449,128.448 720.598,131.338 716.982,134.227 713.854,136.394 	"/>
	<polygon fill="#00FF00" stroke="#800080" points="823.418,134.949 821.25,138.562 820.771,143.859 820.771,149.157 821.01,155.418 
		821.975,161.197 823.658,166.254 827.512,171.07 831.848,174.682 835.217,180.22 839.219,184.163 846.408,186.177 855.01,188.941 
		861.414,192.397 867.207,195.446 873.205,198.699 879.914,201.85 886.521,203.172 892.287,201.892 896.621,197.802 
		899.992,193.705 904.086,190.094 907.457,185.277 908.422,179.016 908.422,172.514 909.625,166.254 910.828,162.16 
		910.588,155.658 909.865,150.844 907.217,146.027 905.771,141.451 902.883,136.394 900.232,132.06 897.584,128.448 
		892.525,124.113 887.953,121.705 881.689,119.779 876.152,117.371 872.301,115.685 866.281,113.518 860.742,112.796 
		854.723,113.278 848.221,114.24 842.439,115.927 837.625,117.371 833.771,121.224 831.123,127.003 827.271,131.097 	"/>
	<polygon fill="#00FF00" stroke="#800080" points="349.656,277.29 344.906,281.04 341.406,286.54 338.906,291.54 337.156,297.54 
		336.156,303.54 336.906,308.54 337.656,312.54 340.156,316.54 345.356,317.275 350.156,316.04 355.906,315.79 361.156,316.04 
		367.156,316.54 372.406,315.29 377.906,314.54 384.656,315.04 390.156,314.29 395.656,313.79 400.906,311.54 405.656,308.54 
		410.906,305.04 415.156,302.54 420.406,301.54 425.156,300.54 428.656,298.29 430.406,294.29 429.656,289.04 428.156,285.04 
		426.406,281.29 424.156,277.29 419.656,274.29 414.656,274.04 408.906,275.04 401.656,278.04 393.906,279.29 387.156,280.29 
		379.906,280.54 374.656,279.04 369.156,277.04 364.906,274.79 358.406,274.79 353.406,275.79 	"/>
	<polygon fill="#00FF00" stroke="#800080" points="343.271,319.691 340.636,321.777 338.33,324.412 338.22,327.707 338.22,331.221 
		339.208,334.954 339.977,338.359 341.294,341.872 343.491,344.727 346.234,345.606 349.42,344.837 352.495,343.959 
		355.351,342.751 358.862,340.885 361.39,339.127 364.023,337.48 366.879,337.151 369.845,336.821 372.81,335.394 374.787,333.966 
		376.873,332.099 378.74,330.343 380.275,328.585 381.924,326.719 383.461,324.632 385.219,322.546 386.207,319.91 385.547,317.494 
		383.791,316.286 380.275,315.628 377.421,315.847 373.798,316.616 370.285,317.275 367.758,317.714 365.014,317.714 
		361.061,317.385 357.216,317.165 353.812,317.385 350.736,317.275 347.882,317.824 345.907,318.594 	"/>
	<polygon fill="#00FF00" stroke="#800080" points="424.518,361.047 421.811,365.612 421.133,371.702 422,379.065 420.92,386.841 
		421.137,392.67 420.92,399.795 421.567,404.326 423.512,410.155 424.591,414.689 427.612,419.871 431.285,424.189 435.817,428.296 
		441.646,428.939 447.262,427.216 451.58,423.546 454.603,419.223 458.057,415.769 461.08,411.67 463.455,407.78 465.182,404.545 
		468.419,402.385 471.659,399.795 474.896,397.42 479,394.611 482.454,390.94 486.339,388.349 491.736,386.841 496.271,384.247 
		500.589,381.656 504.261,378.635 507.715,374.747 507.932,371.725 508.274,367.218 506.982,363.05 505.104,358.76 502.521,354.593 
		500.374,351.43 498.861,347.975 497.296,343.084 494.653,340.031 490.44,338.475 485.044,339.339 478.136,340.85 472.954,342.362 
		469.066,341.714 461.941,340.85 454.169,341.282 446.612,342.347 437.569,343.822 431.575,347.852 429.215,352.275 427.25,357.681 
			"/>
	<polygon fill="#00FF00" stroke="#800080" points="393.746,329.696 391.789,331.777 390.076,335.202 389.463,338.261 
		389.341,340.831 390.81,343.767 393.012,346.093 395.458,348.539 398.396,350.863 401.699,352.454 405.248,353.801 
		408.794,354.779 412.222,355.39 415.892,356.004 418.706,356.614 422.01,356.981 424.824,356.369 426.781,354.167 428.25,351.353 
		429.596,348.783 431.553,346.214 433.877,344.379 436.203,342.91 439.139,341.932 442.81,341.443 445.991,340.831 449.171,340.464 
		452.476,340.096 456.022,339.852 459.45,339.852 463.365,339.852 467.036,340.341 470.338,340.708 473.52,340.341 475.966,339.607 
		478.168,338.506 479.76,336.303 480.494,333.489 481.104,330.553 480.737,328.228 479.024,326.515 476.333,325.047 469.85,324.068 
		465.443,323.579 461.407,323.09 457.857,322.845 454.921,321.621 452.353,320.398 450.026,318.073 447.582,316.238 
		444.398,314.525 440.975,313.302 437.792,312.322 434.49,310.977 432.41,309.51 429.229,309.141 424.579,309.753 420.909,310.487 
		417.236,312.2 414.057,313.913 411.243,315.504 408.306,317.461 405.979,318.807 403.535,320.765 401.209,322.722 399.129,324.191 
		397.049,326.393 395.582,327.739 	"/>
	<polygon fill="#00FF00" stroke="#800080" points="237.324,365.883 234.756,367.995 234.152,371.469 235.209,376.152 
		235.663,379.929 235.814,384.612 235.814,388.237 236.418,391.409 237.476,395.79 239.741,398.358 243.518,400.174 
		247.445,400.174 251.675,401.382 255.905,403.192 259.379,404.401 262.249,405.76 266.328,406.818 269.802,407.425 
		274.032,407.425 277.809,406.515 281.736,405.461 285.21,404.098 287.929,402.437 291.555,401.53 295.029,400.473 297.144,399.718 
		297.748,397.603 296.993,394.585 293.368,391.26 291.404,388.237 289.742,385.218 288.685,382.047 287.325,378.72 286.117,375.85 
		285.059,372.379 284.304,369.509 282.34,367.24 279.621,365.128 275.693,364.219 271.313,364.219 267.838,366.336 265.271,367.24 
		260.739,369.355 257.113,370.11 253.488,369.656 249.711,369.203 246.69,367.844 244.424,366.336 241.101,365.427 	"/>
	<polygon fill="#00FF00" stroke="#800080" points="182.943,308.931 181.734,311.952 182.037,315.577 183.245,319.354 
		184.755,322.375 187.021,325.094 189.589,327.964 192.006,331.439 194.726,333.856 196.991,336.877 198.351,339.294 
		200.013,342.013 201.674,344.883 204.394,347.753 206.659,350.472 209.227,353.191 212.249,355.91 215.572,358.478 219.65,360.744 
		223.427,362.258 227.052,363.01 230.98,363.466 234.454,363.466 237.324,363.466 241.101,364.369 244.726,365.276 248.654,367.24 
		253.186,367.995 256.358,368.448 259.832,367.995 263.156,366.786 266.479,365.276 268.141,363.161 267.687,359.536 
		266.479,355.91 264.666,352.738 262.854,349.263 261.494,345.789 260.739,342.315 259.681,337.934 257.717,333.251 
		256.207,329.475 254.696,324.943 253.186,320.411 251.373,316.333 248.805,313.916 245.784,311.348 240.194,309.233 
		234.454,308.177 227.657,307.571 222.37,307.42 217.233,307.118 211.644,307.269 206.206,307.42 200.466,307.571 196.085,307.722 
		191.553,308.024 187.475,307.571 	"/>
	<polygon fill="#00FF00" stroke="#800080" points="268.371,357.2 271.527,359.515 276.521,358.563 281.992,356.426 286.51,353.807 
		289.602,349.764 291.743,345.72 292.694,340.013 291.743,335.494 289.364,330.738 285.321,327.408 281.04,325.981 276.521,325.03 
		270.576,323.602 265.819,322.413 261.062,320.749 258.359,319.594 254.641,319.559 255.117,323.364 256.976,327.653 
		258.359,331.56 260.231,336.932 261.778,341.897 262.836,345.804 264.301,349.06 266.057,352.617 	"/>
	<polygon fill="#00FF00" stroke="#800080" points="388.803,193.094 381.889,196.719 378.596,204.618 375.632,212.52 
		377.277,219.763 378.267,229.641 382.217,233.262 392.423,235.238 401.312,235.238 407.568,238.201 417.445,238.86 
		426.336,239.518 436.873,240.836 446.75,241.494 454.324,241.823 461.896,242.811 470.906,242.29 477.371,241.165 482.639,238.201 
		487.578,234.25 489.224,227.01 491.2,221.08 491.872,214.978 491.161,208.22 488.67,203.122 486.181,198.261 481.649,193.427 
		473.419,189.472 465.847,187.168 453.994,184.533 441.481,183.219 428.642,184.533 416.789,186.51 408.887,187.826 
		401.312,189.472 394.398,191.448 	"/>
	<polygon fill="#00FF00" stroke="#800080" points="492.464,219.01 494.955,221.618 499.34,222.803 503.49,223.396 506.689,223.515 
		510.248,222.922 513.566,221.618 516.889,219.365 519.615,216.76 521.631,214.267 522.936,211.422 523.766,208.22 524.119,205.138 
		523.883,201.818 523.289,198.854 522.459,196.246 521.396,193.875 520.088,191.859 517.359,189.963 514.99,189.37 511.908,189.251 
		508.707,189.607 505.942,189.585 502.771,190.308 499.813,192.334 497.326,192.689 494.243,191.266 491.161,191.504 
		489.024,193.875 487.248,196.246 487.128,197.432 488.583,200.38 489.975,203.274 491.516,206.205 492.346,208.695 
		492.646,211.177 492.534,213.846 492.818,216.52 	"/>
	<polygon fill="#00FF00" stroke="#800080" points="467.894,244.119 463.387,243.978 460.568,245.809 460.568,249.048 
		464.373,252.991 467.047,257.075 469.02,260.878 471.555,263.554 475.92,266.089 479.724,267.638 483.946,267.92 488.172,266.793 
		493.523,265.948 499.158,265.244 503.947,264.962 508.733,264.54 512.256,262.568 515.635,260.033 519.438,257.639 
		523.521,256.935 526.9,256.653 530.281,257.357 533.381,256.653 535.633,254.681 537.043,252.146 537.604,249.47 537.043,246.936 
		534.789,245.527 532.535,243.978 529.016,242.288 526.059,240.88 520.283,240.598 514.932,240.317 510.283,239.753 
		504.934,238.908 500.002,238.486 496.341,238.767 490.99,239.052 486.481,239.753 481.977,240.88 478.313,242.008 474.513,242.851 
		471.132,243.555 	"/>
	<polygon fill="#00FF00" stroke="#800080" points="124.613,0 130.413,4.51 137.071,7.518 145.448,9.881 153.396,10.739 
		160.269,13.532 166.498,16.969 169.934,21.479 173.371,26.635 178.526,28.352 184.755,28.567 189.91,28.782 196.139,29.641 
		202.797,31.574 210.53,34.581 216.329,37.159 221.914,38.662 228.787,40.166 235.016,40.595 240.815,40.381 245.755,38.447 
		249.407,35.655 252.843,32.433 256.28,28.352 259.072,24.701 261.65,21.052 264.013,18.26 264.872,14.606 264.657,10.954 
		262.08,7.303 256.924,6.014 251.125,4.081 245.541,2.363 241.889,0.43 	"/>
	<polygon fill="#00FF00" stroke="#800080" points="108.719,13.102 102.919,13.317 97.979,14.177 94.758,16.754 92.18,20.62 
		92.18,25.775 94.113,31.574 98.839,35.226 105.282,37.159 111.726,39.094 117.74,41.24 124.613,43.818 131.057,46.824 
		135.906,48.29 140.508,49.187 145.019,49.402 151.033,49.617 156.617,50.691 163.706,52.839 170.364,53.483 175.948,53.483 
		180.889,52.409 186.043,51.979 189.695,51.12 192.272,47.898 193.776,44.247 192.487,40.81 187.547,37.803 182.177,35.226 
		177.022,32.648 171.653,29.212 168.646,27.064 161.343,23.197 154.04,20.62 146.522,18.043 141.152,16.11 134.923,13.962 
		127.621,13.317 120.747,13.317 114.304,13.317 	"/>
	<polygon fill="#00FF00" stroke="#800080" points="43.638,39.737 38.912,39.094 34.401,38.233 29.891,37.803 26.884,39.522 
		25.595,43.388 28.387,46.18 33.542,49.187 39.127,51.552 43.208,53.483 49.437,54.987 55.88,56.275 61.68,57.779 66.62,59.712 
		71.99,61.219 77.574,63.149 85.736,64.652 92.825,65.082 99.698,64.867 104.638,65.941 110.223,66.585 116.452,67.659 
		122.036,68.303 128.05,69.163 133.635,71.955 139.219,74.318 144.16,76.469 149.314,78.399 154.684,79.687 160.913,80.547 
		165.639,80.761 169.934,80.117 173.8,79.687 178.741,78.184 180.674,74.532 180.889,71.311 177.452,68.089 172.297,65.941 
		165.209,64.652 157.262,64.01 154.04,63.149 149.314,62.289 144.804,60.571 141.367,58.853 135.998,57.349 130.842,56.06 
		125.473,55.201 120.962,54.127 115.163,52.839 109.793,51.552 103.564,50.046 97.765,48.113 90.892,46.824 83.588,45.751 
		78.219,44.462 71.775,43.388 66.62,42.314 60.606,41.67 55.236,41.025 50.081,40.381 46.43,39.951 	"/>
	<polygon fill="#00FF00" stroke="#800080" points="46,72.17 39.986,71.311 35.69,70.451 30.75,69.163 27.958,72.599 29.676,76.68 
		33.113,80.976 36.764,85.487 42.349,86.776 49.222,89.353 53.732,90.427 57.813,93.863 62.109,97.515 66.835,100.522 71.99,102.67 
		77.789,104.388 85.307,103.959 88.744,103.529 94.758,103.529 100.127,104.388 105.712,105.032 109.578,106.321 114.304,108.04 
		119.673,109.76 124.399,111.047 128.694,110.832 132.561,109.543 135.353,107.61 135.568,104.388 133.85,100.952 131.702,98.159 
		126.546,95.582 119.888,92.79 111.726,89.997 105.497,88.064 99.698,86.346 93.469,83.983 87.455,81.835 81.87,80.332 
		75.641,78.828 69.412,77.325 64.687,76.036 59.961,74.747 55.236,74.103 50.726,73.029 	"/>
	<polygon fill="#00FF00" stroke="#800080" points="88.744,109.973 82.3,109.973 78.219,109.76 73.064,109.328 69.842,112.336 
		70.057,117.49 74.997,120.927 81.87,123.934 87.455,126.082 92.395,127.371 97.12,128.445 101.416,129.948 106.142,130.807 
		111.082,132.526 115.807,133.17 121.392,134.677 128.479,135.748 133.635,136.607 139.219,137.036 143.73,137.036 149.744,137.036 
		155.758,135.963 159.41,134.244 160.483,131.022 160.913,127.802 160.269,124.364 158.98,121.571 155.973,119.209 153.825,117.705 
		149.959,116.417 143.085,115.128 137.071,115.128 130.627,115.557 126.546,115.557 122.036,115.772 116.666,114.484 
		111.296,112.765 107.86,111.047 102.49,108.469 97.335,108.04 93.469,109.113 	"/>
	<polygon fill="#00FF00" stroke="#800080" points="0.062,189.756 3.505,191.349 6.64,194.484 10.93,195.639 16.044,194.649 
		19.674,194.649 23.304,195.309 27.429,197.124 29.409,200.26 33.204,202.734 36.504,203.889 40.794,204.219 45.414,204.054 
		49.043,203.559 53.333,202.569 56.633,201.084 60.923,199.104 64.223,197.949 68.348,197.124 71.648,195.309 73.298,192.504 
		74.288,189.369 76.598,186.894 80.228,184.75 83.857,183.099 87.322,181.12 89.632,178.81 91.282,176.335 92.272,173.695 
		92.437,170.56 92.107,167.427 91.282,165.115 89.302,163.135 86.167,161.815 82.538,160.825 79.402,160.165 75.937,159.177 
		72.638,158.185 68.843,157.361 66.038,156.535 63.068,155.711 58.448,155.381 53.993,154.06 49.374,153.071 46.733,151.421 
		42.279,150.101 38.649,149.606 35.184,149.606 32.544,149.441 29.904,149.276 27.264,148.121 23.304,147.956 19.509,148.121 
		16.044,148.78 12.91,149.276 9.445,150.101 6.475,150.76 3.175,152.081 0,153.078 	"/>
	<polygon fill="#00FF00" stroke="#800080" points="0.238,237.695 2.917,239.326 6.646,240.025 10.257,239.442 13.169,238.51 
		16.548,236.763 18.878,234.899 20.742,233.151 22.373,230.588 23.421,228.375 23.655,225.812 23.305,223.482 22.373,222.084 
		20.742,220.686 19.111,219.521 16.548,218.472 13.869,217.89 11.189,217.427 8.743,216.725 6.296,216.026 4.315,215.56 
		1.985,215.21 0.238,215.21 	"/>
	<polygon fill="#00FF00" stroke="#800080" points="36.144,354.821 34.766,358.495 34.995,363.091 37.291,369.059 40.736,373.885 
		44.87,376.867 49.463,379.164 53.597,382.382 57.501,386.053 62.324,387.201 67.835,387.201 72.658,388.809 78.629,391.565 
		82.304,394.093 87.356,395.469 91.719,395.01 94.935,393.176 95.853,389.96 95.394,386.742 93.786,383.987 91.949,382.149 
		89.423,380.771 86.896,378.704 86.667,375.948 86.208,371.815 83.222,369.977 78.17,367.681 73.577,365.385 69.902,364.01 
		65.769,362.399 60.716,360.794 58.19,357.806 54.745,353.902 50.841,351.376 47.166,350.457 43.033,350.227 39.129,352.294 	"/>
	<polygon fill="#00FF00" stroke="#800080" points="74.955,299.474 76.103,305.216 77.251,310.038 78.17,316.239 81.844,320.602 
		86.896,323.358 92.408,324.736 97.231,325.195 102.283,324.736 105.728,323.358 108.713,320.832 110.78,316.239 110.091,312.105 
		109.173,307.741 108.713,303.378 107.795,299.474 105.958,295.111 102.054,292.125 97.92,290.977 92.179,290.977 86.896,291.896 
		82.993,292.814 79.318,295.57 	"/>
	<polygon fill="#00FF00" stroke="#800080" points="28.9,461.172 31.014,466.453 35.03,471.104 38.625,474.275 43.064,478.08 
		47.715,481.885 51.943,486.114 58.497,490.135 64.205,492.033 68.855,493.094 73.295,493.094 77.523,491.61 81.329,488.651 
		84.5,485.056 87.037,483.154 90.208,479.56 91.477,475.548 91.477,471.104 91.054,466.665 90.842,463.07 89.362,459.053 
		86.191,455.249 81.963,452.927 77.523,450.385 73.084,449.117 66.107,448.906 60.188,449.329 54.903,450.177 50.041,448.272 
		44.333,447.008 39.259,447.008 33.762,447.849 30.379,448.695 27.42,449.756 24.671,452.29 23.403,455.464 25.306,458.844 	"/>
	<polygon fill="#00FF00" stroke="#800080" points="0.571,501.551 4.376,499.855 7.547,497.318 10.296,495.204 11.353,490.764 
		10.296,487.385 8.816,484.215 6.491,482.52 4.376,481.256 2.051,480.617 0.148,480.617 	"/>
	<polygon fill="#00FF00" stroke="#800080" points="207.341,457.59 212.648,462.58 215.457,468.823 219.827,475.383 225.134,479.124 
		231.689,482.246 237.62,483.806 241.678,485.367 248.233,486.616 253.227,483.806 255.412,478.504 258.846,474.134 
		261.967,470.072 262.592,464.453 259.158,460.087 255.724,456.025 252.291,451.655 247.608,448.845 241.365,447.909 
		236.995,446.037 232.625,444.475 226.382,442.295 221.388,441.046 216.706,439.481 210.775,438.549 207.029,436.984 
		202.035,434.802 197.665,433.863 192.67,432.927 188.612,435.427 189.549,439.481 192.67,443.227 198.601,448.221 202.971,451.969 
			"/>
	<polygon fill="#00FF00" stroke="#800080" points="0.049,638.052 2.292,640.699 5.963,642.331 9.735,643.146 12.59,642.432 
		13.814,640.495 15.038,638.456 15.038,636.111 14.222,634.275 12.59,632.44 11.163,630.808 10.144,629.279 8.92,627.754 
		7.391,625.609 6.269,623.88 5.555,622.142 5.351,619.287 4.229,617.146 3.21,616.13 2.088,614.802 0.049,614.189 	"/>
	<path fill="#00FF00" stroke="#800080" d="M2.904,601.851l-1.53,1.529l-0.611,2.55l0.104,2.753l0.306,2.446l1.225,2.55l2.242,2.039
		l1.529,2.141l0.51,2.346l0.612,2.753l1.325,2.145l1.326,2.142l1.12,1.835l1.43,1.733l2.141,1.729l1.938,1.529l2.445,0.918
		l3.161,1.325l2.143,1.53l2.854,1.631l3.365,1.02l2.753,1.432l3.059,1.729l2.753,1.529l2.957,1.632l2.347,1.529l2.142,1.729
		l3.061,2.145l2.753,2.039l2.445,1.428h2.957l2.753-0.918l1.632-1.631l0.814-1.529l0.104-2.447l-0.815-2.956l-0.306-2.346
		l-0.308-2.753l-0.814-2.346l-0.92-2.346l-1.226-2.348l-1.427-2.445l-2.549-2.347l-2.753-2.345l-2.345-2.144l-2.447-1.938
		l-2.855-1.938l-2.04-2.24l-2.345-2.243l-1.632-2.447l-1.733-2.447l-1.938-2.443l-1.733-2.039c0,0-1.121-1.834-1.427-2.145
		c-0.306-0.307-1.631-1.73-1.835-2.04c-0.204-0.306-1.631-1.729-2.039-1.835c-0.408-0.102-3.161-0.714-3.161-0.714l-2.141-0.51
		l-2.143-0.714l-1.631-1.429l-3.567-1.324l-2.447-0.104l-2.346,0.714l-2.14,1.228l-1.53,1.223l-1.731,1.326L2.904,601.851z"/>
	<path fill="#00FF00" stroke="#800080" d="M145.382,691.161l-3.125,2.022l-2.021,3.859l-0.553,3.49l1.84,3.681l3.125,4.044
		l3.677,2.938l4.044,2.941l3.677,2.206l4.596,1.65c0,0,3.861,1.104,4.412,1.287c0.552,0.187,4.779,0.919,4.779,0.919l4.229,1.475
		l4.045,0.552l4.044,0.184h4.044l3.125-0.364l2.757-2.394l0.919-2.757l-1.654-2.941l-2.206-3.125l-2.939-3.31l-2.574-3.492
		l-2.022-3.31l-2.021-3.313l-3.861-2.206l-3.493-2.39l-2.758-2.206l-2.572-1.839l-2.573-1.473l-3.311-0.554l-4.044,0.554
		l-3.309,0.92l-4.044,1.472L145.382,691.161z"/>
	<polygon fill="#00FF00" stroke="#800080" points="202.304,695.032 199.254,697.744 196.881,701.302 197.22,705.54 200.271,709.775 
		203.66,714.011 208.065,717.57 211.285,720.963 214.844,724.178 217.894,727.737 221.96,731.469 225.858,735.193 230.094,738.586 
		233.483,741.971 238.398,745.869 242.973,749.093 248.057,751.465 253.31,753.494 257.546,755.019 261.443,756.036 265.51,757.052 
		269.408,758.747 274.152,760.102 278.728,760.441 283.134,760.102 287.54,759.594 292.115,758.747 295.334,756.379 
		297.368,753.155 297.537,749.935 296.521,746.038 295.165,742.988 293.47,739.937 291.945,737.396 288.895,734.515 
		286.523,731.803 284.15,729.431 281.608,727.059 277.711,724.517 274.492,722.653 272.119,720.45 269.408,717.909 266.697,714.858 
		263.308,712.486 258.394,709.605 254.496,707.233 249.92,705.369 245.176,702.827 240.431,700.455 236.025,698.426 
		231.111,695.714 228.23,693.51 225.011,691.304 222.639,689.61 219.419,688.258 215.86,687.746 211.963,689.44 208.743,691.135 
		205.862,693.173 	"/>
	<polygon fill="#00FF00" stroke="#800080" points="354.213,687.521 350.368,689.059 347.138,691.218 346.83,693.983 
		347.907,696.598 348.213,699.677 349.443,702.906 351.599,705.829 354.521,707.983 358.521,709.829 363.291,710.906 
		368.213,711.367 371.907,711.218 376.061,710.906 379.752,710.295 383.907,709.367 387.752,708.444 390.83,707.521 
		393.599,706.444 397.443,705.521 401.138,704.136 404.83,702.444 406.83,699.829 407.138,695.983 405.752,692.906 404.521,690.598 
		401.752,687.983 399.907,686.756 396.521,685.521 392.675,684.136 389.752,683.218 386.981,682.136 384.521,680.906 
		381.291,679.521 377.443,679.367 372.368,681.059 368.83,682.906 365.138,684.136 361.599,685.521 357.599,686.598 	"/>
	<polygon fill="#00FF00" stroke="#800080" points="443.071,717.625 441.406,721.795 440.24,726.461 439.74,730.795 440.406,734.461 
		442.571,738.461 445.071,741.961 449.24,744.461 453.071,745.625 457.571,745.625 461.906,746.625 466.24,748.625 470.071,749.795 
		474.24,750.961 478.571,751.795 482.406,753.461 487.071,754.461 490.406,754.461 493.571,753.461 497.571,752.461 501.24,751.125 
		504.74,749.961 508.406,748.295 511.736,747.625 515.572,747.295 519.406,746.461 523.072,746.125 527.072,745.625 
		530.236,744.961 533.736,743.961 536.736,742.961 539.236,741.461 541.572,738.625 542.072,735.795 541.072,733.125 
		539.736,730.461 536.572,727.295 532.736,725.125 527.572,723.461 523.736,722.295 518.736,721.125 515.072,719.795 
		511.072,717.461 505.24,716.125 501.24,715.461 496.071,715.125 491.74,715.295 487.74,714.625 483.906,713.295 481.071,711.961 
		478.071,710.625 474.406,709.795 470.571,709.461 466.406,709.461 462.74,709.625 458.406,710.461 454.906,710.795 
		450.906,711.961 447.74,713.625 445.24,715.625 	"/>
	<polygon fill="#00FF00" stroke="#800080" points="126.327,541.817 123.107,546.915 120.961,553.891 122.034,560.33 125.79,566.769 
		129.01,572.135 134.912,578.306 141.62,582.867 148.327,585.552 155.303,585.818 162.01,584.745 168.986,584.745 174.621,585.552 
		180.791,588.506 186.426,590.648 192.06,592.798 197.962,593.867 201.45,591.453 202.791,585.818 203.597,582.062 201.719,576.16 
		198.499,571.867 195.011,567.844 190.182,565.159 183.743,561.135 179.986,555.769 177.303,550.135 175.425,545.305 
		172.742,539.403 169.791,535.11 165.767,531.622 161.474,527.597 158.522,525.183 155.571,522.504 151.815,522.232 
		147.254,523.037 142.693,527.061 139.742,530.817 135.717,534.844 132.229,537.525 129.01,539.403 	"/>
	<polygon fill="#00FF00" stroke="#800080" points="137.059,604.868 134.376,609.16 133.303,613.721 134.912,620.161 
		139.742,625.526 145.913,630.892 151.278,636.26 157.718,641.892 163.889,647.26 170.864,651.014 175.694,655.307 178.913,659.869 
		183.474,663.629 188.84,665.507 195.548,667.113 203.06,668.186 209.231,670.336 213.523,673.552 218.89,675.698 224.524,677.308 
		230.426,677.308 235.792,677.844 239.817,675.429 240.354,671.942 240.085,669.26 239.28,666.04 236.061,663.629 229.622,661.214 
		226.938,659.869 226.402,654.234 225.061,650.478 219.694,646.722 212.987,642.698 207.621,639.214 201.719,635.721 
		196.084,632.234 189.108,628.477 184.547,625.526 178.645,622.575 173.279,619.625 168.718,616.404 162.547,612.384 
		158.522,609.697 153.425,605.941 148.327,604.062 142.693,603.526 	"/>
	<polygon fill="#00FF00" stroke="#800080" points="357.703,564.183 355.251,569.434 353.853,576.09 354.553,582.736 
		357.703,589.387 362.954,595.688 369.254,598.843 377.656,601.29 384.307,602.344 389.908,604.79 395.159,609.344 403.56,613.891 
		409.511,616.691 416.512,618.442 423.163,617.742 427.713,613.891 431.562,608.64 434.015,603.389 435.063,595.688 
		434.015,587.987 431.562,579.59 428.414,574.339 423.513,569.088 417.912,565.933 414.762,560.337 410.911,556.135 
		406.709,553.336 401.108,551.231 396.909,548.431 392.007,545.635 384.657,546.331 378.706,547.385 371.705,550.181 
		366.104,552.282 361.902,555.086 358.752,559.635 	"/>
	<polygon fill="#00FF00" stroke="#800080" points="463.067,642.595 456.066,642.595 448.716,642.246 441.016,643.3 436.464,642.946 
		431.213,644.345 428.062,649.247 428.414,654.847 433.312,659.398 439.965,661.848 448.716,664.302 455.018,667.449 
		463.418,669.552 471.471,671.65 477.771,673.4 486.172,673.755 493.522,674.802 499.475,675.15 507.875,675.505 513.826,675.505 
		520.127,673.052 527.479,673.052 534.83,674.1 540.781,674.1 546.729,672.7 551.283,670.95 553.176,666.777 553.033,662.199 
		548.832,658.348 541.479,653.802 533.08,648.551 524.574,644.675 517.055,641.936 510.787,640.226 505.774,639.095 
		499.125,638.049 489.672,638.395 482.32,639.095 476.372,640.145 469.72,641.55 	"/>
	<polygon fill="#00FF00" stroke="#800080" points="509.934,610.65 507.906,616.295 508.238,624.295 511.236,630.961 
		514.906,635.625 520.236,639.625 526.236,641.625 531.906,644.295 537.572,646.295 543.572,649.961 549.572,653.961 
		555.236,658.625 561.906,659.961 569.236,661.295 575.236,661.961 581.236,660.961 585.572,656.625 587.906,651.961 
		588.572,647.625 586.906,642.961 581.906,638.961 576.572,633.625 571.906,628.625 567.236,623.961 560.572,619.961 
		552.572,617.961 544.906,614.961 540.572,612.295 537.906,609.295 533.479,607.078 526.66,607.078 520.164,608.052 
		515.293,608.381 	"/>
	<polygon fill="#00FF00" stroke="#800080" points="447.156,519.29 446.906,525.79 449.656,530.54 452.656,535.29 458.156,538.54 
		464.156,541.79 468.656,545.04 474.906,547.54 480.406,550.29 485.156,551.54 491.406,552.54 498.406,554.79 505.156,557.04 
		510.156,558.04 516.156,558.29 524.156,558.54 529.906,559.04 536.906,559.29 543.406,559.04 549.406,557.29 554.406,555.79 
		558.906,551.79 560.906,548.79 563.656,544.54 562.906,540.29 559.406,538.04 553.156,534.79 547.406,532.04 542.156,530.04 
		537.406,527.79 527.656,527.04 520.906,527.04 516.906,525.04 510.906,520.79 506.656,517.04 500.906,515.29 493.406,514.29 
		487.656,513.54 482.156,510.79 477.156,508.29 472.156,505.79 467.406,505.54 462.906,506.54 457.156,508.29 451.906,511.04 
		449.406,515.04 	"/>
	<polygon fill="#00FF00" stroke="#800080" points="469.016,550.028 472.334,554.769 475.18,559.274 478.974,563.304 
		482.056,568.995 485.375,573.504 489.879,577.53 492.486,581.802 495.807,584.405 500.786,586.776 505.054,589.621 509.559,594.13 
		512.4,598.868 515.959,603.609 520.227,605.743 524.256,605.98 529.473,605.98 532.791,605.743 537.297,605.032 541.563,602.898 
		544.646,601.005 547.018,598.393 547.965,594.6 546.777,591.281 544.883,587.966 542.75,584.642 539.902,581.802 537.297,578.952 
		535.162,576.344 532.08,573.736 528.051,570.654 523.545,567.572 519.986,565.201 514.771,562.594 510.979,560.222 
		506.238,558.563 500.886,556.969 494.454,554.72 488.47,553.224 481.105,551.927 476.5,549.559 472.911,547.764 469.252,546.713 
		467.674,547.094 	"/>
	<polygon fill="#00FF00" stroke="#800080" points="640.217,598.545 639.281,602.662 638.721,607.344 639.094,611.094 
		641.342,615.589 646.211,617.462 650.521,617.836 654.826,617.27 658.01,615.589 662.131,613.716 665.127,611.468 667.563,609.404 
		669.436,606.594 669.811,602.287 669.061,597.979 668.498,593.859 666.813,589.738 665.313,586.367 664.189,583.183 
		661.941,579.629 660.068,576.632 658.01,574.385 656.139,572.885 654.076,572.695 652.018,576.066 649.957,579.437 
		647.709,583.183 645.836,586.554 644.338,590.113 642.84,593.484 641.527,595.732 	"/>
	<polygon fill="#00FF00" stroke="#800080" points="605.381,561.087 606.506,565.578 607.064,572.32 605.756,579.254 
		605.756,584.494 604.818,589.364 604.068,594.425 604.443,600.04 605.756,603.972 610.063,607.906 613.996,610.344 618.68,611.468 
		622.799,611.468 626.17,611.651 630.291,611.277 632.914,611.094 635.535,609.029 637.033,606.033 638.346,603.411 
		638.721,599.477 640.027,595.732 642.199,591.928 643.527,588.822 645.748,585.361 647.258,582.171 648.832,579.437 
		650.146,576.441 650.896,573.444 650.332,569.136 649.021,565.203 647.146,562.019 644.898,559.964 641.715,558.465 
		637.971,556.775 634.6,555.094 632.914,552.844 630.854,551.157 628.229,549.658 625.047,549.284 621.111,549.284 618.117,549.096 
		614.371,549.845 611,550.594 608.563,551.719 605.941,554.528 605.191,557.15 	"/>
	<polygon fill="#00FF00" stroke="#800080" points="638.098,763.23 632.873,760.038 629.625,755.371 625.771,752.129 
		622.521,748.677 619.074,744.82 618.467,740.154 619.275,735.69 621.916,732.646 624.555,730.01 627.396,728.796 630.031,728.593 
		633.479,729.4 637.943,732.646 642.002,736.302 646.67,739.549 651.742,741.777 655.799,742.385 660.67,743.603 665.133,745.635 
		668.986,748.269 673.248,749.081 678.318,748.472 682.176,749.487 686.641,752.936 690.898,755.979 694.555,758.82 
		696.379,763.284 	"/>
	<polygon fill="#00FF00" stroke="#800080" points="328.571,15.957 323.906,21.29 321.906,27.957 322.24,34.957 324.906,40.957 
		330.571,44.623 339.571,48.623 346.571,48.957 351.906,51.29 355.906,59.29 362.24,62.957 370.571,64.29 376.571,62.29 
		381.571,56.957 386.24,51.623 388.24,45.957 391.906,41.29 394.24,34.957 396.24,28.623 395.571,21.29 395.24,15.29 392.906,9.957 
		387.571,6.29 381.571,3.957 376.24,2.29 370.24,0.29 361.24,0.623 354.906,0.957 347.571,3.29 341.24,6.623 335.24,10.29 
		331.571,13.29 	"/>
	<polygon fill="#00FF00" stroke="#800080" points="412.999,0.302 418.24,4.957 426.24,7.623 434.906,8.29 444.24,8.29 452.24,7.957 
		456.571,8.957 462.906,11.623 468.906,11.957 475.906,10.29 481.24,8.29 485.24,5.957 487.24,3.29 488.24,0.29 	"/>
	<polygon fill="#00FF00" stroke="#800080" points="312.906,89.623 305.571,89.623 298.906,92.956 296.24,98.956 296.24,106.29 
		301.24,113.956 306.24,119.623 313.24,125.623 319.571,129.623 327.571,134.956 335.24,140.29 343.571,144.623 350.571,145.29 
		357.571,145.29 362.906,143.29 367.906,143.623 372.906,147.29 380.24,147.623 386.906,146.623 392.906,145.29 396.24,141.623 
		397.906,137.956 398.24,133.29 394.24,127.623 389.24,123.956 385.24,118.623 380.24,114.956 374.24,110.623 365.906,106.29 
		357.571,102.29 348.24,98.29 341.571,95.623 333.906,93.29 326.571,91.623 320.24,90.29 	"/>
	<polygon fill="#00FF00" stroke="#800080" points="233.156,245.54 229.906,251.79 227.406,258.54 225.656,265.04 225.906,271.54 
		227.906,276.54 232.906,280.29 240.406,283.54 244.656,287.04 249.406,291.29 254.906,292.54 259.906,291.04 263.656,287.54 
		267.406,283.79 271.906,280.29 275.406,277.29 278.406,273.79 281.406,270.79 284.656,267.54 286.906,264.29 287.656,260.29 
		286.906,254.54 285.156,250.54 281.656,247.04 276.656,244.04 273.156,240.79 268.656,238.79 265.906,237.04 260.406,236.04 
		254.406,236.29 248.656,236.79 243.406,238.79 238.406,241.54 	"/>
	<polygon fill="#00FF00" stroke="#800080" points="267.906,286.54 265.906,291.29 265.906,297.79 267.656,303.29 270.406,308.04 
		275.406,311.79 280.656,313.54 285.406,313.79 292.406,312.54 297.406,310.29 302.656,306.79 305.406,302.04 307.156,296.79 
		309.156,292.29 310.406,286.79 310.656,282.04 309.906,277.54 308.656,273.29 306.906,269.54 304.156,267.79 301.156,265.54 
		298.156,264.04 294.906,263.79 290.656,264.79 287.406,267.29 284.406,270.54 281.156,274.29 278.656,277.29 275.906,279.54 
		273.156,282.29 270.406,284.29 	"/>
	<polygon fill="#00FF00" stroke="#800080" points="98.793,227.26 92.104,230.323 84.858,233.946 78.448,237.291 75.661,241.471 
		77.891,246.488 84.022,248.16 89.875,250.39 95.728,252.062 102.416,253.177 109.105,254.292 114.958,255.406 122.483,256.243 
		128.894,258.472 135.583,260.702 141.157,262.095 148.125,264.883 154.256,264.883 159.552,265.161 164.568,264.325 
		172.093,264.604 177.11,262.653 180.733,260.423 181.848,256.802 184.635,254.013 189.652,254.292 195.226,257.079 
		201.915,258.194 207.21,257.636 212.506,255.964 215.851,253.456 217.801,248.439 218.916,245.93 223.375,244.537 228.113,240.914 
		229.786,237.57 228.671,231.995 223.933,228.094 218.637,223.635 212.785,220.011 208.325,216.945 203.03,214.994 196.62,212.207 
		190.767,210.535 184.914,208.584 177.667,207.748 169.028,207.19 160.666,207.469 152.863,207.469 144.78,208.027 138.091,209.141 
		131.959,211.371 124.713,214.437 117.746,218.339 111.335,221.405 104.368,224.749 	"/>
	<polygon fill="#00FF00" stroke="#800080" points="443.906,30.04 438.906,30.54 434.156,31.29 432.156,34.79 433.406,39.29 
		437.156,42.29 441.656,44.29 445.906,47.79 449.656,51.04 452.906,53.54 457.656,56.04 462.406,56.04 468.156,55.79 472.156,54.54 
		476.656,53.79 479.406,54.29 483.156,56.04 487.156,56.04 490.656,55.79 492.906,54.29 491.656,50.79 488.906,47.79 486.656,44.04 
		482.906,39.54 478.656,37.04 475.156,34.79 470.156,33.29 465.406,31.79 459.906,30.29 454.906,30.29 450.906,30.29 447.406,30.04 
			"/>
	<polygon fill="#00FF00" stroke="#800080" points="476.906,60.04 473.406,63.79 470.406,69.04 469.906,73.29 469.906,78.29 
		470.656,83.04 475.406,85.54 480.406,87.79 485.406,90.54 490.656,92.54 496.406,95.29 501.906,97.54 507.656,99.04 
		513.156,100.54 518.906,103.04 524.156,104.29 530.406,104.54 535.406,104.29 540.156,104.79 545.406,106.54 550.156,107.79 
		554.906,109.54 559.906,110.54 564.656,109.54 567.656,106.79 569.156,102.29 568.406,98.54 566.406,94.54 563.656,90.04 
		560.906,86.54 558.406,84.29 554.906,82.04 548.156,81.04 543.156,79.04 538.156,77.04 534.656,74.29 532.406,72.54 529.906,68.54 
		526.156,66.54 522.156,64.54 518.406,62.29 513.156,59.79 506.906,58.79 500.656,58.04 495.406,58.04 490.406,57.79 485.656,57.79 
		480.906,58.79 	"/>
	<polygon fill="#00FF00" stroke="#800080" points="476.906,88.04 473.406,90.04 474.406,93.29 477.906,96.04 480.406,99.29 
		481.656,103.04 482.656,107.04 485.906,110.29 489.906,112.29 494.656,114.04 498.906,117.04 502.656,119.29 505.906,122.54 
		509.906,124.04 516.156,124.54 521.156,124.04 525.906,125.29 531.156,127.29 537.406,129.54 542.906,132.04 549.156,133.79 
		555.406,135.29 561.156,136.79 567.406,137.54 571.906,137.79 577.656,140.54 583.656,143.54 588.406,144.54 592.156,144.04 
		594.406,139.79 593.656,136.29 591.906,132.04 589.906,128.54 587.406,124.29 584.406,121.29 582.656,119.04 578.406,115.54 
		573.406,113.54 568.406,112.04 563.604,111.306 559.521,111.691 555.361,110.613 549.742,108.918 543.732,107.07 538.574,105.838 
		533.875,105.53 526.867,106.146 521.318,105.452 516.236,103.45 510.15,100.831 502.297,98.597 494.362,95.594 488.906,93.29 
		484.906,91.54 480.961,89.355 	"/>
	<polygon fill="#00FF00" stroke="#800080" points="703.26,0.434 707.254,4.649 712.135,7.977 717.234,8.642 721.674,10.196 
		727.664,12.192 732.986,13.302 739.201,15.076 744.971,15.742 750.959,14.854 755.617,12.636 760.057,9.752 762.938,6.646 
		764.271,3.54 764.049,0.434 	"/>
	<polygon fill="#00FF00" stroke="#800080" points="493.781,115.143 489.24,113.196 484.26,110.769 481.642,108.151 478.148,106.987 
		474.076,106.405 468.838,106.405 465.057,107.86 460.981,111.642 457.2,113.679 453.417,117.462 450.798,121.244 448.471,126.482 
		447.307,132.594 447.017,139.575 450.216,145.686 458.944,155.869 464.475,159.07 469.42,161.398 475.24,163.726 481.06,166.635 
		486.587,168.381 495.024,166.635 501.718,162.853 505.792,158.488 508.411,153.251 510.447,148.886 512.773,143.649 
		513.893,138.498 514.541,133.957 513.406,129.415 510.162,125.847 505.054,123.171 501.729,120.333 498.079,117.9 	"/>
	<polygon fill="#00FF00" stroke="#800080" points="313.025,355.228 316.1,358.139 318.687,360.728 321.762,362.992 325.644,363.316 
		329.524,362.672 332.922,361.698 336.644,359.76 338.261,357.331 338.261,354.904 335.997,352.963 333.408,351.345 
		330.658,349.566 328.716,348.434 327.1,346.655 324.024,345.684 321.437,346.331 318.85,346.978 315.775,347.949 314.159,348.758 
		312.217,350.861 311.895,353.287 	"/>
	<polygon fill="#00FF00" stroke="#800080" points="414.706,461.147 412.444,464.35 409.996,468.306 407.922,472.639 406.604,477.35 
		406.228,481.495 407.545,485.639 409.619,488.654 413.764,490.915 417.909,491.857 423.184,492.234 427.329,492.049 
		431.662,491.48 435.996,490.35 440.329,489.219 444.097,487.339 447.865,485.263 451.821,483.382 455.023,481.306 457.662,478.672 
		458.98,475.844 460.487,473.016 460.865,469.814 461.619,466.049 461.242,463.031 460.299,460.016 458.416,457.19 454.835,453.611 
		452.199,451.915 449.749,450.408 446.357,449.844 442.589,450.219 439.387,451.162 435.054,451.726 432.416,451.726 
		428.647,452.295 424.879,453.426 421.865,455.306 418.851,457.382 416.589,458.886 	"/>
	<polygon fill="#00FF00" stroke="#800080" points="505.015,338.125 503.607,342.11 503.607,347.503 506.187,352.427 
		507.826,357.585 509.703,362.742 512.984,367.9 516.033,373.058 517.908,377.747 521.426,380.56 525.176,379.857 529.631,377.981 
		534.086,375.871 536.664,372.59 539.713,370.01 544.166,368.603 547.918,366.963 551.904,364.149 556.123,361.336 560.344,359.225 
		564.564,356.882 567.377,355.474 570.896,352.427 571.363,348.206 570.191,345.158 567.377,343.048 563.861,341.407 
		558.938,339.766 553.779,339.062 547.918,337.89 540.416,337.421 536.432,337.187 533.852,334.843 529.162,334.373 
		523.535,334.373 518.146,334.843 512.518,335.546 508.766,336.484 	"/>
	<polygon fill="#00FF00" stroke="#800080" points="532.912,391.345 531.74,397.206 531.74,401.661 531.506,407.287 529.631,411.273 
		527.287,415.26 525.646,419.245 525.879,422.761 527.521,426.747 529.865,429.797 533.617,432.139 537.367,433.077 
		541.822,433.548 546.979,433.077 551.436,432.139 555.188,430.499 559.406,428.388 563.156,425.343 567.906,419.624 
		569.906,413.624 572.238,407.956 574.238,403.29 578.906,400.624 583.906,398.624 589.238,395.956 593.238,391.956 
		597.238,388.624 599.906,384.29 602.238,380.624 604.572,375.624 606.238,371.624 606.238,365.956 604.146,362.178 
		600.088,359.968 595.664,358.308 591.24,357.756 585.896,358.308 580.734,358.861 575.391,360.52 570.598,361.627 565.438,363.469 
		561.75,365.68 557.51,368.261 553.641,370.843 549.953,372.133 545.715,374.159 542.58,376.187 540.369,379.689 539.264,382.822 
		537.236,386.324 535.393,388.536 	"/>
	<polygon fill="#00FF00" stroke="#800080" points="599.166,392.222 602.115,394.987 605.064,396.646 607.277,399.043 
		609.488,401.438 611.699,404.019 614.098,406.599 617.229,408.259 619.994,408.811 624.973,408.442 627.92,406.783 
		630.686,405.493 634.371,404.571 637.504,403.65 638.611,400.333 638.426,397.384 635.479,394.803 632.896,393.144 
		630.686,390.195 627.367,387.8 625.156,384.665 624.049,382.086 621.285,378.584 618.705,375.635 616.492,373.975 613.912,372.869 
		610.963,372.685 608.566,372.869 606.539,374.528 605.248,377.294 603.773,380.796 601.932,383.559 599.721,387.061 
		598.797,389.459 	"/>
	<polygon fill="#00FF00" stroke="#800080" points="459.156,419.29 455.656,423.29 452.406,426.79 450.156,431.29 448.906,436.29 
		450.156,441.54 452.156,446.79 455.156,451.04 459.156,455.04 461.656,459.04 465.656,462.29 469.402,462.677 473.156,462.54 
		476.656,461.29 480.906,459.54 484.656,457.54 488.656,455.04 491.656,453.04 493.406,449.54 493.906,445.29 494.156,442.79 
		497.156,441.79 500.906,441.29 504.906,440.04 508.406,438.79 510.406,436.54 512.156,433.04 512.156,428.79 513.156,423.54 
		515.156,418.54 517.656,413.54 520.656,410.29 522.406,406.29 523.156,401.54 522.906,396.29 522.406,391.79 521.156,387.29 
		518.406,384.54 515.656,382.79 511.656,382.04 505.906,383.04 500.406,385.79 493.906,388.79 488.656,390.79 484.406,393.04 
		480.406,396.54 476.656,399.54 472.156,402.79 467.656,405.79 464.406,409.29 461.906,413.04 460.406,415.54 	"/>
	<polygon fill="#00FF00" stroke="#800080" points="466.406,465.29 463.156,468.04 463.156,474.04 466.156,479.29 469.656,483.79 
		472.406,487.54 476.156,491.04 479.156,493.29 484.656,494.04 489.906,494.79 494.406,495.54 497.906,496.79 499.406,500.29 
		501.156,505.79 504.656,510.04 509.906,513.54 514.406,513.29 517.656,511.29 518.906,507.54 516.656,502.79 515.656,499.54 
		514.656,495.54 514.656,491.29 514.906,487.79 513.906,483.79 512.156,479.54 512.406,476.04 512.906,472.79 513.906,469.79 
		514.156,465.79 512.906,460.79 511.656,456.79 510.406,453.29 509.406,450.29 505.143,448.851 500.25,449.635 495.62,451.786 
		491.642,454.981 487.402,457.851 483.156,460.29 479.511,461.568 475.336,463.199 470.511,464.177 	"/>
	<polygon fill="#00FF00" stroke="#800080" points="323.748,439.914 317.446,443.064 312.545,449.718 312.545,456.719 
		314.996,464.068 317.096,470.719 322.347,475.969 330.749,478.422 336.699,480.173 342.65,483.321 346.5,486.471 353.152,487.521 
		358.752,487.872 363.654,488.924 367.854,486.471 367.503,480.52 366.454,475.62 364.704,471.069 361.553,466.518 357.703,462.318 
		353.152,458.117 348.601,453.919 345.451,450.418 340.2,445.865 334.249,442.365 328.297,440.614 	"/>
	<polygon fill="#00FF00" stroke="#800080" points="356.652,384.606 350,389.508 343.351,396.509 339.15,403.859 334.949,410.86 
		331.798,417.161 330.398,425.214 330.749,431.863 335.298,437.466 340.549,442.365 345.451,446.915 350,451.816 354.551,456.016 
		358.752,461.267 364.002,465.818 367.854,471.769 372.754,477.02 377.656,480.52 384.307,480.52 391.658,478.422 397.609,474.922 
		403.91,470.019 408.811,464.068 413.361,457.067 417.562,451.816 421.763,446.915 426.664,442.365 428.764,436.763 
		429.114,430.465 424.913,423.464 420.362,413.31 416.162,405.609 411.96,396.509 409.161,389.508 405.31,381.805 401.109,377.256 
		397.609,372.354 390.257,370.953 383.606,372.005 376.605,374.104 370.305,376.554 364.704,379.355 360.853,381.805 	"/>
	<polygon fill="#00FF00" stroke="#800080" points="541.479,443.415 538.682,438.514 535.529,435.013 533.617,432.139 
		529.229,432.215 525.027,432.215 521.527,434.313 519.428,440.967 517.678,446.915 516.627,453.219 516.277,460.219 
		515.926,466.868 516.627,475.62 516.979,482.621 518.377,490.674 519.777,496.973 522.229,502.223 525.729,506.074 
		530.979,509.575 536.932,513.427 543.58,516.226 551.982,520.427 557.232,524.977 564.234,528.828 569.836,530.928 
		575.086,532.678 579.637,533.728 583.139,531.278 583.139,524.63 581.736,515.878 579.287,510.275 575.785,504.677 
		572.635,499.773 570.535,495.573 568.785,492.425 566.686,487.521 563.533,481.571 560.383,475.269 559.334,470.369 
		558.633,465.469 556.883,459.867 553.732,455.316 549.184,450.765 544.631,446.915 	"/>
	<polygon fill="#00FF00" stroke="#800080" points="596.439,503.974 591.539,508.177 588.389,515.526 586.287,522.527 
		585.938,531.631 591.188,536.882 597.84,539.679 604.84,541.78 613.242,543.883 620.242,544.93 628.295,544.23 635.646,540.73 
		641.945,537.579 648.248,534.428 653.148,529.528 656.299,526.38 660.148,522.177 662.6,517.976 665.75,514.826 670.65,512.025 
		674.502,507.127 676.951,500.824 676.951,494.874 675.551,489.622 672.051,484.721 667.852,479.47 665.4,475.269 663.65,472.819 
		660.148,470.719 655.248,470.719 648.248,473.519 641.945,477.72 636.695,481.22 631.096,485.771 626.543,489.971 620.242,493.124 
		614.643,496.624 608.342,499.426 600.289,501.176 	"/>
	<polygon fill="#00FF00" stroke="#800080" points="1014.086,686.316 1008.891,685.079 1004.188,683.594 999.979,682.109 
		996.021,679.139 993.791,674.436 992.803,670.724 991.564,667.509 988.348,665.279 984.389,662.557 982.654,658.844 
		983.15,654.885 985.625,652.162 988.348,649.192 992.061,645.975 996.021,643.995 1001.465,643.255 1005.92,642.51 
		1010.621,643.255 1014.334,644.243 	"/>
	<polygon fill="#00FF00" stroke="#800080" points="943.799,585.094 939.838,589.052 936.869,592.516 934.643,598.211 
		935.383,603.901 937.363,610.091 939.59,615.781 941.57,620.978 944.541,626.425 948.006,631.375 951.225,635.828 954.936,639.54 
		958.896,642.015 963.598,644.243 967.559,646.469 972.508,649.935 976.963,650.927 981.912,650.182 985.873,646.967 
		989.338,644.243 992.803,640.035 994.535,635.087 994.535,630.385 993.297,624.938 990.822,619.988 988.348,615.038 
		986.119,609.594 983.15,604.396 979.438,599.693 976.963,596.228 976.715,591.031 975.727,586.824 972.756,583.111 
		968.301,580.389 963.352,578.162 957.41,578.657 952.461,580.389 947.51,582.864 	"/>
	<polygon fill="#00FF00" stroke="#800080" points="881.184,639.781 876.479,640.523 872.271,642.506 868.561,645.969 
		866.828,650.92 867.322,655.621 870.539,659.334 875.242,662.552 881.43,663.295 887.121,663.54 891.824,662.8 896.031,663.048 
		900.486,666.262 904.693,667.502 909.396,666.76 913.354,668.243 915.336,671.955 917.068,676.163 921.771,679.135 
		926.227,679.135 931.176,678.39 935.383,677.647 939.59,675.915 942.809,673.935 945.283,671.215 944.045,668.243 941.818,665.52 
		938.354,662.055 935.383,659.088 932.908,656.363 928.949,654.633 923.504,652.898 918.061,652.156 915.088,650.92 
		912.861,649.185 909.148,645.969 904.941,643.493 901.229,641.76 897.021,640.523 892.318,639.781 886.627,640.276 	"/>
	<polygon fill="#00FF00" stroke="#800080" points="846.285,562.068 844.059,566.275 842.572,571.969 842.572,577.907 
		845.049,582.857 849.008,587.559 854.699,591.272 858.908,594.242 863.609,596.469 869.551,597.954 876.232,599.439 
		882.42,600.181 887.369,600.677 893.063,599.439 897.518,597.709 901.725,594.984 905.686,591.519 907.664,586.57 908.902,581.867 
		909.396,576.672 907.912,571.719 903.703,568.01 898.012,565.78 889.598,564.05 881.184,562.562 872.521,562.068 865.096,561.573 
		858.66,560.83 852.227,560.584 848.76,561.078 	"/>
	<polygon fill="#00FF00" stroke="#800080" points="1014.334,483.844 1011.363,482.109 1009.879,479.139 1007.404,474.684 
		1006.414,470.477 1004.436,467.26 1003.197,463.55 1004.93,458.597 1008.891,456.618 1011.611,454.637 1014.086,453.647 	"/>
	<polygon fill="#00FF00" stroke="#800080" points="939.33,506.354 936.854,512.049 934.381,519.719 932.648,526.648 
		934.629,531.103 938.094,534.073 937.104,538.776 940.816,542.241 947.498,541.253 952.943,539.27 958.389,538.033 
		962.348,538.776 967.051,541.253 972.742,541.993 978.188,541.253 982.643,538.281 987.84,534.321 991.059,531.103 
		994.521,526.648 997.244,523.183 1000.461,518.976 1002.689,515.263 1004.422,511.056 1006.154,508.089 1007.887,504.129 
		1008.629,499.921 1007.146,496.454 1008.381,491.754 1009.867,488.04 1010.113,485.069 1008.381,481.357 1006.402,477.397 
		1003.432,473.932 1000.461,471.952 995.018,470.469 990.314,468.982 985.365,468.982 981.652,468.982 977.197,471.212 
		973.238,474.925 969.771,477.644 964.328,480.367 959.873,483.339 956.16,488.04 953.686,491.507 950.221,495.219 946.756,498.929 
		943.291,502.641 	"/>
	<polygon fill="#00FF00" stroke="#800080" points="942.066,546.706 938.104,548.933 937.115,553.14 936.125,558.587 
		938.104,564.277 941.818,566.755 946.521,568.485 951.719,568.485 955.68,567.002 958.648,564.525 961.123,561.307 
		962.113,557.347 960.627,553.635 956.916,549.925 953.697,547.448 948.996,546.213 	"/>
	<polygon fill="#00FF00" stroke="#800080" points="809.162,495.969 805.943,499.681 804.707,504.385 806.936,508.344 
		811.637,509.829 816.092,509.829 820.547,508.841 824.012,506.364 826.486,502.899 826.238,499.434 823.518,496.467 
		818.566,495.226 814.111,493.742 	"/>
	<polygon fill="#00FF00" stroke="#800080" points="795.055,468.005 791.096,471.965 788.867,475.179 787.629,479.635 
		787.629,484.339 789.361,488.299 792.58,490.772 797.777,490.524 802.727,490.029 807.676,490.029 811.637,490.029 816.586,489.04 
		820.793,488.299 824.258,487.554 829.455,489.287 834.9,491.019 840.84,492.754 847.523,494.732 854.699,496.467 859.154,497.702 
		864.354,498.197 870.293,496.467 875.242,493.742 881.924,491.514 886.875,489.534 890.34,488.794 895.041,490.524 899.496,492.01 
		903.951,490.524 906.922,488.547 908.654,485.08 908.902,480.872 907.416,477.407 904.447,474.932 901.973,472.705 
		899.002,470.477 893.063,469.24 888.607,468.252 883.904,466.764 879.697,464.538 875.736,461.567 871.777,459.837 864.354,459.59 
		859.65,459.59 855.443,458.102 848.76,457.36 843.068,456.865 837.375,457.607 831.438,457.855 825.744,458.102 819.805,458.597 
		813.369,459.59 807.43,462.31 804.707,464.29 800.498,466.022 	"/>
	<polygon fill="#00FF00" stroke="#800080" points="757.256,544.238 752.479,543.736 747.703,545.244 746.445,549.266 
		747.451,553.794 750.217,558.065 753.988,562.593 756.754,567.367 761.027,572.143 765.049,576.168 769.072,580.691 
		772.088,584.715 776.111,587.73 780.385,589.992 784.91,592.257 788.682,593.511 793.205,594.517 797.729,594.266 801.25,592.76 
		803.766,590.244 804.771,585.719 804.268,580.188 802.758,574.657 800.496,570.635 797.729,566.613 793.457,562.593 
		786.92,558.065 780.385,554.045 775.104,551.277 770.328,549.015 765.301,547.006 761.277,545.244 	"/>
	<polygon fill="#00FF00" stroke="#800080" points="723.82,463.794 718.793,466.054 716.279,468.568 714.268,472.844 
		713.766,478.122 715.273,482.898 720.301,486.923 724.322,488.68 729.102,489.937 734.631,489.937 740.16,489.937 744.436,489.685 
		749.211,489.182 754.994,488.68 759.521,487.677 763.793,486.168 767.814,485.161 771.334,482.646 774.854,479.884 
		777.871,478.122 779.881,475.104 778.625,471.587 776.111,468.82 772.842,466.808 769.072,465.803 762.172,464.218 
		754.498,463.552 749.857,462.889 743.037,462.037 737.826,461.847 733.186,461.755 728.447,463.176 	"/>
	<path fill="#00FF00" stroke="#800080" d="M655.156,424.04l1,5.75l1.5,5.75l1,5.75l2.25,6.25l1.25,6l0.5,5l2,4.75l1.75,4.5l3,4.5
		l4,2.25l4.75,3l5.25,2.25l3.75,4l4.75,3.75l5.25,3.25l4.5,1l3.5-0.75l3.5-2l2.5-2.25l1.25-3.5l-0.5-4.75l0.877-4.438l1.358-3.784
		l0.959-4.538l-0.315-4.215l-0.738-4.319l-2.949-4.106l-2.737-3.898l-1.453-3.2l-2.25-4c0,0-1.5-3.25-1.75-4s-2.25-4-2.25-4
		l-2.25-3.5l-3-3.75l-3.5-5l-2.75-4l-3.5-4.75l-3.25-5l-3.5-3.75l-5.25-5l-3.75-2.5l-4.5-2.75l-5-1.5h-4.75l-3.75,0.25l-3,1.75
		l-2.25,4l1,5.75l2,6l1.5,4.5l2,4.25L655.156,424.04z"/>
	<polygon fill="#00FF00" stroke="#800080" points="768.234,285.701 764.271,291.47 760.301,296.88 756.336,303.37 754.531,309.14 
		757.057,314.549 761.023,320.318 763.908,326.088 768.955,331.136 775.447,334.381 781.576,335.823 786.986,335.463 
		792.033,334.742 797.443,333.301 801.771,331.136 805.016,327.17 808.982,325.006 813.67,325.366 817.959,324.404 821.242,322.121 
		821.242,316.712 821.242,310.943 819.439,303.37 818.357,298.322 816.426,293.439 812.9,289.454 809.223,286.388 804.775,284.395 
		800.023,282.862 794.965,281.483 789.871,281.013 783.316,281.329 777.338,282.403 772.201,283.898 	"/>
	<polygon fill="#00FF00" stroke="#800080" points="674.479,281.735 667.271,285.341 661.139,286.783 656.09,289.668 651.402,296.88 
		648.879,304.094 647.797,312.385 650.682,320.318 655.729,325.006 661.5,329.333 668.711,332.578 675.563,334.742 680.973,335.823 
		687.822,337.266 695.396,336.545 700.805,335.102 706.213,332.218 713.785,332.578 721.719,331.497 728.932,328.972 
		735.061,324.645 738.666,321.039 743.715,318.876 748.402,314.909 750.926,309.14 752.729,304.094 756.336,299.764 
		759.221,294.716 762.465,290.028 763.908,284.26 762.826,277.768 759.58,273.802 754.533,270.556 750.926,267.672 745.156,265.508 
		737.584,265.508 730.373,266.59 723.883,268.032 715.229,271.638 709.098,274.883 700.443,278.129 692.15,280.292 684.217,281.735 
		678.447,281.735 	"/>
	<polygon fill="#00FF00" stroke="#800080" points="660.059,223.679 652.123,225.844 645.994,228.006 642.389,232.333 
		641.307,240.266 642.748,247.839 644.551,254.69 647.797,260.46 653.205,264.066 660.777,266.229 667.99,268.032 674.479,269.474 
		681.332,269.114 688.904,267.672 696.838,264.427 704.771,262.262 711.982,260.46 718.834,259.017 725.324,257.935 729.652,254.69 
		730.732,248.56 728.932,241.709 726.768,236.302 722.078,229.088 718.475,224.4 710.9,220.794 704.049,218.991 695.756,216.827 
		688.184,216.106 678.086,217.55 671.234,218.991 665.104,221.155 	"/>
	<polygon fill="#00FF00" stroke="#800080" points="732.959,201.997 727.559,206.678 722.877,213.52 721.797,221.081 
		726.117,227.563 732.959,231.164 739.08,233.684 745.563,235.125 753.123,235.485 759.246,236.565 764.646,239.086 
		770.771,243.047 777.25,247.728 785.172,250.969 792.734,252.05 798.135,251.689 804.256,249.888 811.1,247.728 819.021,243.407 
		822.979,239.086 825.861,235.125 828.742,230.084 830.184,223.242 829.463,216.4 826.941,211.719 822.621,206.678 816.5,204.157 
		805.336,202.357 796.334,202.719 790.213,204.157 784.092,204.157 776.529,205.238 771.85,204.157 766.088,200.556 
		760.688,198.036 754.205,196.236 746.643,196.955 740.16,198.756 	"/>
	<polygon fill="#00FF00" stroke="#800080" points="839.781,300.691 836.188,305.944 833.146,311.75 830.934,317.28 828.723,323.362 
		827.615,330.551 827.34,336.357 827.615,343.269 828.998,349.351 829.551,355.71 832.039,362.345 835.633,368.428 840.609,372.3 
		846.141,374.511 851.117,373.681 854.986,372.3 858.582,370.363 859.41,366.218 861.348,359.581 863.006,355.987 864.389,350.734 
		864.664,345.48 862.729,338.845 862.176,334.145 861.07,328.892 861.623,323.638 862.176,318.109 863.006,313.962 862.729,310.091 
		860.518,304.01 858.307,300.138 855.264,297.373 851.396,295.99 846.693,296.544 843.1,298.755 	"/>
	<polygon fill="#00FF00" stroke="#800080" points="861.623,367.047 863.006,372.023 865.217,376.171 867.982,379.764 
		871.854,383.358 876.83,385.017 882.082,385.57 887.336,385.295 892.588,384.188 897.014,382.253 901.947,380.29 905.859,377.828 
		909.178,373.959 911.113,369.259 911.941,364.006 912.494,357.923 912.494,352.392 911.391,347.969 910.006,342.992 
		907.521,338.292 904.201,334.421 900.883,330.551 898.117,327.786 895.076,325.021 890.93,323.086 885.953,321.98 881.807,321.15 
		877.104,320.597 872.959,320.597 868.813,321.703 865.217,323.362 863.281,325.574 862.502,329.319 863.186,333.76 
		863.867,338.454 864.723,342.297 865.771,346.863 865.574,350.151 864.807,353.993 863.781,356.896 862.502,360.226 
		861.898,363.451 	"/>
	<polygon fill="#00FF00" stroke="#800080" points="766.992,343.309 761.748,345.589 757.416,347.869 754.227,351.061 
		752.857,355.392 754.453,359.496 756.732,363.144 759.24,365.196 763.346,367.475 767.904,369.3 772.463,371.579 776.566,373.176 
		780.67,375.455 784.547,377.279 788.422,379.102 792.982,381.839 797.771,382.522 801.646,381.384 803.926,377.735 
		805.979,374.088 808.256,370.212 810.08,366.563 811.449,361.776 812.361,357.673 811.676,353.569 808.713,350.149 
		805.979,347.185 801.418,344.905 794.121,344.677 787.51,344.221 782.494,344.221 777.023,343.993 771.096,343.309 	"/>
	<polygon fill="#00FF00" stroke="#800080" points="799.139,390.274 795.945,394.605 793.209,400.077 790.932,405.321 
		790.021,409.652 789.563,414.669 790.475,420.595 792.299,425.611 795.717,427.89 799.822,429.717 802.785,432.678 
		808.029,434.274 813.271,434.049 818.287,432.906 824.215,430.398 827.635,427.89 830.6,425.155 832.65,421.966 835.387,418.771 
		837.896,415.125 840.174,410.337 841.086,406.006 841.771,400.989 840.631,396.885 839.719,392.325 836.982,389.362 
		835.387,387.083 831.057,385.03 824.443,384.802 817.148,385.486 809.854,387.083 803.24,387.994 	"/>
	<polygon fill="#00FF00" stroke="#800080" points="863.201,398.71 860.01,402.13 857.047,405.093 854.082,408.284 853.17,413.301 
		854.082,418.771 856.59,422.422 856.818,428.119 859.1,431.539 863.201,433.593 867.307,434.96 871.865,435.642 876.197,436.098 
		880.756,435.414 884.859,432.45 887.141,429.717 889.875,426.979 892.611,425.385 893.979,421.052 892.383,416.263 
		893.752,412.388 894.436,408.512 892.156,404.18 889.648,400.989 887.367,398.025 883.721,395.745 878.934,394.605 
		875.059,394.605 870.271,396.429 866.166,398.025 	"/>
	<polygon fill="#00FF00" stroke="#800080" points="907.432,412.844 903.326,415.351 899.451,419.227 896.715,422.647 
		894.893,425.841 892.84,430.629 892.611,434.96 894.893,438.606 898.994,439.973 903.1,439.973 907.203,440.658 911.307,440.429 
		915.865,440.885 920.197,440.658 924.301,439.746 928.404,439.518 932.965,439.29 936.84,439.29 941.627,438.606 945.275,437.924 
		949.379,438.606 954.396,439.973 959.41,439.518 962.373,438.606 965.338,436.326 965.338,431.766 963.742,428.575 
		963.971,425.155 965.109,421.279 963.971,418.315 958.727,416.036 954.396,414.213 948.238,412.388 940.031,411.476 
		932.053,411.02 925.668,411.249 918.83,411.249 913.129,412.16 	"/>
	<polygon fill="#00FF00" stroke="#800080" points="911.979,441.742 907.703,441.742 904.238,442.256 901.047,442.937 
		897.615,442.445 894.436,442.712 891.473,444.989 889.191,447.953 887.367,450.689 886,455.02 885.771,459.352 888.963,462.546 
		892.611,463.228 897.172,463.684 900.818,464.14 905.15,465.28 908.57,466.192 911.307,467.559 914.953,469.612 918.373,470.754 
		922.021,471.435 925.668,471.435 929.545,471.21 933.648,470.298 937.979,470.067 941.4,469.385 945.504,470.067 949.379,470.979 
		953.939,472.347 959.41,473.26 963.059,473.26 967.162,472.347 969.67,469.842 972.633,467.334 974.457,464.824 974.301,462.367 
		971.949,459.808 968.758,457.984 963.971,455.705 958.043,453.427 951.432,451.145 946.871,449.094 941.479,446.915 
		936.055,445.765 930.627,444.552 925.199,443.402 920.857,442.572 916.389,441.934 	"/>
	<polygon fill="#00FF00" stroke="#800080" points="1013.93,297.861 1009.361,294.151 1004.51,290.726 1000.799,287.872 
		996.805,281.022 992.809,276.741 991.953,272.177 993.096,267.038 995.662,263.613 997.945,259.903 1001.656,256.193 
		1005.938,253.053 1009.076,250.77 1011.352,249.539 1013.791,248.725 	"/>
	<polygon fill="#00FF00" stroke="#800080" points="1013.918,331.461 1011.65,332.218 1008.023,332.821 1004.396,331.613 
		1001.525,330.252 998.502,327.834 995.781,324.963 993.516,320.882 991.398,318.162 989.889,314.233 990.34,311.21 992.76,308.489 
		995.479,305.469 997.746,302.595 1001.676,300.177 1004.879,299.351 1007.723,299.422 1010.744,300.631 1012.709,302.142 
		1013.947,302.242 	"/>
	<polygon fill="#00FF00" stroke="#800080" points="991.854,321.789 989.889,323.754 987.018,324.207 983.691,323.905 
		980.215,322.998 976.891,321.94 973.414,320.58 970.543,319.069 967.369,317.709 964.951,316.046 963.289,313.779 962.986,310.454 
		963.289,306.978 965.254,303.956 967.975,301.689 970.846,300.631 974.926,300.177 978.25,299.422 981.727,299.271 
		985.354,299.422 988.527,299.422 990.773,299.483 993.213,299.573 996.084,300.328 996.84,301.537 995.328,303.907 
		993.271,306.491 991.781,307.937 989.941,310.084 988.891,312.756 989.152,315.822 990.16,318.056 991.387,319.852 	"/>
	<polygon fill="#00FF00" stroke="#800080" points="955.135,241.571 951.289,245.93 947.957,252.084 948.727,259.008 
		952.061,263.623 956.162,266.187 960.521,268.494 965.648,269.52 970.777,269.52 975.904,269.52 980.266,268.494 985.135,266.187 
		989.238,264.135 992.314,261.315 995.393,257.982 999.238,253.623 1002.572,250.033 1004.879,246.443 1006.418,241.828 
		1007.188,237.725 1008.727,233.623 1009.238,230.033 1008.471,226.443 1004.623,224.905 996.932,226.699 990.777,228.238 
		982.314,230.802 975.648,232.853 970.008,235.675 963.598,237.725 958.982,239.777 	"/>
	<polygon fill="#00FF00" stroke="#800080" points="963.34,272.597 958.727,273.623 954.879,276.956 952.572,281.315 
		954.623,286.443 958.727,290.289 964.367,292.597 968.982,294.905 973.598,296.187 978.471,296.956 983.34,297.212 
		988.213,297.725 993.084,297.725 998.213,295.418 1001.033,292.853 1000.777,289.263 997.592,284.475 995.734,281.527 
		992.459,277.159 991.039,271.809 991.148,268.861 992.572,265.418 991.803,263.366 987.699,266.187 982.74,268.642 
		977.607,270.719 973.131,270.826 968.217,271.59 	"/>
	<polygon fill="#00FF00" stroke="#800080" points="859.051,242.23 866.006,240.624 874.836,239.554 882.061,240.357 
		888.213,241.962 895.17,244.103 901.057,245.975 906.408,248.651 912.295,251.594 917.646,256.143 918.715,260.691 917.377,265.24 
		912.83,267.113 905.873,266.845 896.508,263.635 889.018,260.156 881.525,256.143 874.836,255.34 868.949,254.537 862.26,252.397 
		858.516,248.919 857.445,245.173 	"/>
	<polygon fill="#00FF00" stroke="#800080" points="846.104,191.094 844.926,195.802 847.084,201.493 850.225,206.006 
		853.754,211.303 855.521,215.62 856.896,218.76 859.643,221.113 864.742,222.683 868.666,223.664 872.002,222.88 875.143,221.113 
		878.084,222.291 881.813,222.683 885.736,221.899 888.092,218.76 888.682,214.246 888.875,209.734 886.914,207.379 882.99,204.239 
		878.084,202.278 872.59,199.334 867.385,196.771 862.973,194.321 858.289,192.033 853.754,189.916 848.457,189.72 	"/>
	<polygon fill="#00FF00" stroke="#800080" points="610.738,332.14 607.693,334.952 605.35,338.935 604.412,343.855 605.35,349.478 
		609.1,353.696 614.252,354.867 619.172,352.524 621.984,348.306 623.156,343.386 621.516,337.295 618.938,332.844 616.361,329.798 
		613.549,329.563 	"/>
	<polygon points="2.904,601.851 1.374,603.382 0.763,605.93 0.867,608.683 1.173,611.131 2.398,613.679 4.64,615.719 6.169,617.859 
		6.679,620.205 7.291,622.959 8.616,625.101 9.942,627.243 11.062,629.078 12.492,630.811 14.633,632.544 16.571,634.071 
		19.016,634.989 22.177,636.314 24.32,637.844 27.174,639.475 30.539,640.495 33.292,641.927 36.351,643.656 39.104,645.185 
		42.061,646.817 44.408,648.346 46.55,650.077 49.611,652.22 52.364,654.26 54.809,655.687 57.766,655.687 60.519,654.769 
		62.151,653.138 62.965,651.609 63.069,649.162 62.254,646.206 61.948,643.86 61.64,641.107 60.826,638.761 59.906,636.418 
		58.68,634.069 57.253,631.625 54.704,629.277 51.951,626.932 49.606,624.79 47.159,622.851 44.304,620.913 42.264,618.673 
		39.919,616.428 38.287,613.981 36.554,611.534 34.616,609.091 32.883,607.052 31.456,604.907 29.621,602.867 27.582,601.032 
		24.421,600.318 22.28,599.808 20.137,599.094 18.506,597.668 14.939,596.343 12.492,596.237 10.146,596.951 8.006,598.177 
		6.476,599.4 4.745,600.726 	"/>
	<polygon points="145.382,691.161 142.257,693.183 140.236,697.045 139.683,700.534 141.523,704.215 144.648,708.259 
		148.325,711.196 152.369,714.137 156.046,716.344 160.642,717.995 165.054,719.282 169.833,720.201 174.062,721.676 
		178.107,722.226 182.151,722.41 186.195,722.41 189.32,722.047 192.077,719.652 192.996,716.895 191.342,713.954 189.136,710.829 
		186.197,707.519 183.623,704.027 181.601,700.719 179.58,697.406 175.719,695.2 172.226,692.81 169.468,690.604 166.896,688.765 
		164.323,687.295 161.012,686.74 156.968,687.295 153.659,688.215 149.615,689.684 	"/>
	<polygon points="655.156,424.04 656.156,429.79 657.656,435.54 658.656,441.29 660.906,447.54 662.156,453.54 662.656,458.54 
		664.656,463.29 666.406,467.79 669.406,472.29 673.406,474.54 678.156,477.54 683.406,479.79 687.156,483.79 691.906,487.54 
		697.156,490.79 701.656,491.79 705.156,491.04 708.656,489.04 711.156,486.79 712.406,483.29 711.906,478.54 712.783,474.102 
		714.143,470.318 715.102,465.78 714.785,461.565 714.047,457.246 711.098,453.138 708.359,449.24 706.906,446.04 704.656,442.04 
		702.906,438.04 700.656,434.04 698.406,430.54 695.406,426.79 691.906,421.79 689.156,417.79 685.656,413.04 682.406,408.04 
		678.906,404.29 673.656,399.29 669.906,396.79 665.406,394.04 660.406,392.54 655.656,392.54 651.906,392.79 648.906,394.54 
		646.656,398.54 647.656,404.29 649.656,410.29 651.156,414.79 653.156,419.04 	"/>
	<polygon points="2.904,601.851 1.374,603.381 0.763,605.93 0.867,608.683 1.173,611.13 2.398,613.679 4.64,615.719 6.169,617.859 
		6.679,620.205 7.291,622.959 8.616,625.102 9.942,627.244 11.062,629.079 12.492,630.812 14.633,632.543 16.571,634.071 
		19.016,634.989 22.177,636.314 24.32,637.844 27.174,639.475 30.539,640.495 33.292,641.927 36.351,643.656 39.104,645.185 
		42.061,646.817 44.408,648.346 46.55,650.076 49.611,652.22 52.364,654.26 54.809,655.687 57.766,655.687 60.519,654.769 
		62.151,653.138 62.965,651.609 63.069,649.162 62.254,646.206 61.948,643.86 61.64,641.107 60.826,638.761 59.906,636.416 
		58.68,634.068 57.253,631.623 54.704,629.276 51.951,626.931 49.606,624.788 47.159,622.85 44.304,620.912 42.264,618.672 
		39.919,616.428 38.287,613.981 36.554,611.534 34.616,609.091 32.883,607.052 31.456,604.907 29.621,602.867 27.582,601.032 
		24.421,600.318 22.28,599.808 20.137,599.094 18.506,597.666 14.939,596.342 12.492,596.237 10.146,596.951 8.006,598.178 
		6.476,599.401 4.745,600.727 	"/>
	<polygon points="145.382,691.161 142.257,693.183 140.236,697.044 139.683,700.533 141.523,704.214 144.648,708.258 
		148.325,711.195 152.369,714.136 156.046,716.343 160.642,717.993 165.054,719.28 169.833,720.199 174.062,721.674 
		178.107,722.225 182.151,722.409 186.195,722.409 189.32,722.046 192.077,719.651 192.996,716.894 191.342,713.953 
		189.136,710.828 186.197,707.518 183.623,704.026 181.601,700.717 179.58,697.404 175.719,695.198 172.226,692.808 
		169.468,690.602 166.896,688.763 164.323,687.291 161.012,686.737 156.968,687.291 153.659,688.212 149.615,689.682 	"/>
	<polygon points="655.156,424.04 656.156,429.79 657.656,435.54 658.656,441.29 660.906,447.54 662.156,453.54 662.656,458.54 
		664.656,463.29 666.406,467.79 669.406,472.29 673.406,474.54 678.156,477.54 683.406,479.79 687.156,483.79 691.906,487.54 
		697.156,490.79 701.656,491.79 705.156,491.04 708.656,489.04 711.156,486.79 712.406,483.29 711.906,478.54 712.783,474.102 
		714.142,470.318 715.101,465.78 714.785,461.565 714.047,457.246 711.098,453.139 708.36,449.241 706.907,446.041 704.657,442.041 
		702.907,438.041 700.657,434.041 698.407,430.541 695.407,426.791 691.907,421.791 689.157,417.791 685.657,413.041 
		682.407,408.041 678.907,404.291 673.657,399.291 669.907,396.791 665.407,394.041 660.407,392.541 655.657,392.541 
		651.907,392.791 648.907,394.541 646.657,398.541 647.657,404.291 649.657,410.291 651.157,414.791 653.157,419.041 	"/>
	<path fill="#00FF00" stroke="#800080" d="M119.615,688.785l-3.427,1.35l-3.842,1.869l-4.777,0.935h-5.399l-4.777-0.727
		l-5.503-2.284l-5.607-4.153l-4.88-4.258l-1.039-3.672l2.804-6.297l4.154-2.596l5.192-2.492c0,0,3.011-0.52,3.323-0.52
		s4.673,0,4.673,0l2.181-2.907l1.558-1.974l0.52-4.568l-0.52-7.685l1.143-6.23l2.7-3.011l7.061-0.935h6.957l4.361,2.055l3.738,6.252
		l2.285,7.062v9.969l-2.908,6.854l-4.05,7.023l-3.946,7.41l-1.142,2.389L119.615,688.785z"/>
	<polygon fill="#00FF00" stroke="#800080" points="433.752,240.446 429.114,246.178 422.874,249.489 413.707,253.203 
		405.303,256.874 391.551,256.874 374.489,255.346 362.213,244.65 356.663,233.954 353.097,226.315 354.371,214.345 
		364.812,206.383 372.706,201.613 380.91,199.066 379.597,202.217 377.165,208.433 375.632,212.52 376.988,218.489 377.653,223.515 
		378.099,227.969 378.955,230.168 381.167,232.46 387.918,234.366 401.312,235.238 407.568,238.201 420.92,239.117 	"/>
	<polygon fill="#00FF00" stroke="#800080" points="452.915,150.86 447.017,149.627 439.046,148.702 433.752,148.702 
		428.414,148.702 422.712,146.545 421.942,142.076 424.716,136.683 429.185,133.909 437.429,131.444 443.515,131.444 
		446.289,132.83 445.981,136.375 445.981,141.152 447.984,144.54 451.374,148.702 	"/>
	<path fill="#00FF00" stroke="#800080" d="M497.294,167.502l2.157,2.62h3.853l4.315-1.741l6.01-4.885l5.902-2.312l4.588-2.465
		l6.614-1.541l3.173-1.079v-2.466l-1.786-1.541l-9.4-1.233c0,0-5.7-2.465-6.163-2.62s-4.315-0.617-4.315-0.617l-2.619,5.394
		l-3.122,5.085l-2.58,3.39l-2.62,2.62L497.294,167.502z"/>
	<polygon fill="#00FF00" stroke="#800080" points="749.856,168.272 748.777,172.741 750.627,179.213 755.096,184.606 
		762.338,189.72 774.203,194.006 783.141,195.239 796.394,193.852 803.79,193.081 810.724,190.924 818.429,188.304 824.13,185.993 
		825.055,182.757 822.589,169.813 816.888,161.03 810.878,150.243 804.098,143.001 796.855,137.915 792.695,135.45 787.918,135.45 
		784.527,136.837 786.916,138.532 789.15,140.535 791,142.846 794.853,147.007 798.551,151.63 801.479,155.482 803.79,160.259 
		805.484,164.42 807.488,168.58 809.211,172.279 809.697,176.264 809.211,178.443 807.796,180.292 802.865,183.681 795.988,185.126 
		790.075,186.301 783.911,185.993 776.978,185.277 769.272,180.754 763.725,176.593 756.476,171.816 	"/>
</g>
</svg>
