<?xml version="1.0" encoding="utf-8"?>
<!-- Generator: Adobe Illustrator 16.0.5, SVG Export Plug-In . SVG Version: 6.00 Build 0)  -->
<!DOCTYPE svg PUBLIC "-//W3C//DTD SVG 1.1//EN" "http://www.w3.org/Graphics/SVG/1.1/DTD/svg11.dtd">
<svg version="1.1" id="Layer_1" xmlns="http://www.w3.org/2000/svg" xmlns:xlink="http://www.w3.org/1999/xlink" x="0px" y="0px"
	 width="1024px" height="1024px" viewBox="0 0 1024 1024" enable-background="new 0 0 1024 1024" xml:space="preserve">
<g id="Raw_image">
	
		<image overflow="visible" enable-background="new    " width="1024" height="1024" xlink:href="otherspecimen_9.jpg"  transform="matrix(1 0 0 1 0 -2.441406e-004)">
	</image>
</g>
<g id="Not_annotated" display="none" opacity="0.5">
</g>
<g id="Clumps" display="none" opacity="0.5">
	<polygon display="inline" fill="#FF0000" stroke="#800080" points="0,16 10,18 19,21 27,25 34,30 39,37 39,47 42,52 50,56 55,63 
		55,73 52,82 46,88 56,90 66,92 76,92 86,94 90,102 90,112 89,123 86,132 80,137 71,141 62,139 56,133 54,123 54,112 48,109 39,106 
		35,98 26,101 22,104 27,111 29,121 37,125 44,130 46,140 41,146 32,149 22,149 13,146 8,139 0,135 	"/>
	<polygon display="inline" fill="#FF0000" stroke="#800080" points="148,842 137,841 130,836 124,830 119,823 114,818 106,822 
		94,822 84,820 77,815 72,808 71,797 74,787 79,781 87,776 97,774 108,773 118,771 126,775 129,783 127,794 129,795 132,785 
		139,780 147,784 153,790 158,797 161,806 162,817 162,829 158,837 151,841 	"/>
	<polygon display="inline" fill="#FF0000" stroke="#800080" points="131,949 120,948 116,940 114,930 115,919 118,910 122,902 
		128,895 135,890 146,889 154,893 160,899 165,905 173,900 182,899 191,902 197,908 199,918 197,927 192,934 185,940 177,943 
		166,942 161,936 155,941 147,945 137,947 	"/>
	<polygon display="inline" fill="#FF0000" stroke="#800080" points="159,618 147,618 139,614 134,607 130,599 125,592 120,585 
		119,574 123,566 131,561 132,555 129,546 133,537 134,527 135,515 136,507 135,496 139,488 143,480 148,473 153,466 161,462 
		172,460 181,458 188,462 190,470 198,466 207,463 215,467 221,473 224,482 226,492 224,502 220,510 216,517 210,524 204,529 
		197,534 186,533 180,527 175,520 173,510 168,512 170,520 174,528 177,537 178,548 176,557 170,563 169,569 174,576 176,586 
		176,597 173,606 167,613 160,617 	"/>
	<polygon display="inline" fill="#FF0000" stroke="#800080" points="288,0 288,8 284,16 277,20 267,20 257,18 250,13 245,6 240,12 
		236,20 233,29 226,34 216,35 208,31 203,24 201,14 196,7 	"/>
	<polygon display="inline" fill="#FF0000" stroke="#800080" points="248,1015 240,1011 236,1003 235,992 234,981 239,974 247,970 
		238,967 231,962 225,956 220,949 216,941 219,932 225,926 233,921 241,917 238,911 234,903 232,893 233,881 236,873 241,866 
		250,862 259,865 269,867 278,870 287,873 291,879 296,886 297,897 294,906 289,912 287,921 288,931 285,941 281,948 273,952 
		265,956 258,962 257,967 263,973 265,983 262,992 260,1002 255,1009 249,1014 	"/>
	<polygon display="inline" fill="#FF0000" stroke="#800080" points="270,133 260,131 255,124 250,117 246,109 242,101 241,90 
		240,79 242,69 245,59 250,52 260,50 269,53 274,60 280,66 286,72 290,80 293,89 299,86 304,78 304,73 300,65 301,54 304,45 309,38 
		314,31 321,26 332,24 340,28 345,35 346,45 342,54 337,60 331,66 328,74 334,80 340,86 343,95 339,103 333,108 330,118 326,126 
		318,130 309,128 304,121 295,118 290,122 285,128 277,132 	"/>
	<polygon display="inline" fill="#FF0000" stroke="#800080" points="335,616 324,615 316,611 309,606 302,601 294,597 287,592 
		279,589 270,591 264,585 262,575 264,565 268,556 271,548 274,538 277,530 283,523 291,519 301,521 307,527 309,537 312,546 
		311,557 306,563 300,569 303,577 309,583 318,584 326,580 333,575 340,578 345,585 348,594 347,605 342,612 	"/>
	<polygon display="inline" fill="#FF0000" stroke="#800080" points="346,561 335,560 327,556 320,551 316,543 313,534 314,525 
		318,516 325,511 334,508 337,504 335,496 342,490 349,485 357,481 367,479 377,479 386,482 394,486 397,495 398,506 397,516 
		391,523 382,525 373,522 363,520 353,519 353,529 350,538 352,548 350,558 	"/>
	<polygon display="inline" fill="#FF0000" stroke="#800080" points="403,913 392,912 386,906 381,899 377,891 380,882 386,876 
		385,875 376,876 368,872 361,867 358,858 357,847 360,837 364,830 365,819 370,811 376,805 385,802 384,796 384,786 389,779 
		397,774 406,771 416,769 428,769 437,772 444,777 449,784 451,794 448,803 442,809 434,812 424,814 414,814 414,817 419,824 
		422,833 421,843 417,851 411,857 404,862 405,864 413,860 423,862 426,871 426,883 423,892 419,900 413,905 406,911 	"/>
	<polygon display="inline" fill="#FF0000" stroke="#800080" points="444,409 434,407 427,402 423,394 421,384 426,376 432,370 
		436,365 434,357 431,348 429,338 427,329 431,321 438,316 449,315 458,318 465,323 472,328 479,333 485,339 490,346 493,355 
		494,366 491,375 485,381 480,387 475,394 468,400 461,404 451,406 	"/>
	<polygon display="inline" fill="#FF0000" stroke="#800080" points="514,479 503,478 496,473 491,466 487,458 484,449 487,440 
		484,433 474,435 463,436 451,436 442,433 438,425 441,416 449,411 459,409 468,406 475,401 482,396 490,393 500,390 511,391 
		517,397 520,406 517,415 521,417 530,420 533,429 532,440 535,449 534,460 531,469 526,475 517,478 	"/>
	<polygon display="inline" fill="#FF0000" stroke="#800080" points="634,488 623,487 614,484 609,477 603,471 602,462 604,452 
		608,443 614,438 621,433 631,431 638,426 647,422 658,421 665,426 671,432 676,436 680,428 687,423 698,421 707,424 714,429 
		719,436 722,445 720,455 713,460 704,462 693,461 684,458 678,452 673,448 672,458 667,466 662,472 655,478 649,483 641,487 	"/>
	<polygon display="inline" fill="#FF0000" stroke="#800080" points="665,217 653,217 643,215 636,210 632,202 630,192 634,184 
		630,178 622,174 617,167 614,158 612,148 618,141 625,136 635,134 644,131 653,128 663,130 668,137 669,148 665,156 661,163 
		654,169 662,167 672,165 682,163 693,162 702,165 708,171 709,182 705,190 701,198 695,204 689,209 681,213 672,216 	"/>
	<polygon display="inline" fill="#FF0000" stroke="#800080" points="721,910 709,910 702,905 696,899 692,891 689,882 688,871 
		690,860 694,852 701,847 711,845 711,842 705,836 701,828 698,819 695,810 697,800 702,793 707,785 709,775 712,766 717,759 
		724,754 735,753 744,756 749,763 754,770 756,780 755,791 753,801 754,812 755,823 753,832 749,840 742,846 733,848 723,846 
		718,846 725,851 730,858 733,867 736,876 738,886 736,896 732,903 725,908 	"/>
	<polygon display="inline" fill="#FF0000" stroke="#800080" points="141,1023 137,1015 135,1005 139,996 147,992 145,983 147,973 
		152,965 157,959 164,954 173,952 182,955 187,962 189,972 188,983 186,993 181,1000 174,1004 173,1012 178,1014 185,1008 194,1009 
		201,1014 205,1022 	"/>
	<polygon display="inline" fill="#FF0000" stroke="#800080" points="171,898 162,895 156,889 150,883 145,876 142,867 144,857 
		149,850 158,846 168,846 177,849 182,856 187,863 186,859 183,850 182,840 187,833 196,830 206,832 213,837 218,844 222,852 
		228,858 231,867 230,878 225,885 217,888 206,887 198,883 195,874 191,866 192,872 193,883 190,891 183,897 172,897 	"/>
</g>
<g id="Single_nuclei" opacity="0.3">
	<polygon fill="#00FF00" stroke="#800080" points="1,329 9,331 14,338 20,344 23,353 23,365 20,373 13,379 0.688,377.686 	"/>
	<polygon fill="#00FF00" stroke="#800080" points="0.001,394.454 10,395 18,399 22,407 22,416 17,424 10,428 -0.179,429.148 	"/>
	<polygon fill="#00FF00" stroke="#800080" points="0.001,452.854 9,451 20,450 29,453 35,459 41,465 45,473 47,483 45,493 39,498 
		30,501 19,500 11,496 0.001,486.68 	"/>
	<polygon fill="#00FF00" stroke="#800080" points="-0.133,679.28 4.414,680.956 8,685 9.559,689.094 9.439,696.391 7.166,703.571 
		5.012,705.605 5,713 3.217,718.886 0,723.314 	"/>
	<polygon fill="#00FF00" stroke="#800080" points="17.097,749.16 11,748 6,741 5,730 5.73,719.965 10,711 13,702 16.38,693.998 
		22.242,686.342 31,683 41,685 48,690 52,698 54,708 52,718 49,726 44,733 38,739 31,745 25.832,747.724 	"/>
	<polygon fill="#00FF00" stroke="#800080" points="19,1024 13,1018 8,1011 5.901,1007.018 5,1002 5,990 5.279,984.282 
		6.966,979.754 9.542,975.757 12.206,972.914 15.581,970.25 20.999,968.473 27.127,968.297 32,970 39,975 43.38,979.664 
		46.134,984.726 48,990 49.597,994.94 50.752,999.825 51.018,1004.621 51,1011 49.42,1017.054 46.134,1024 	"/>
	<polygon fill="#00FF00" stroke="#800080" points="85,668 76,665 70,659 62,655 53,654 42,655 35,650 34,641 39,634 50,632 56,629 
		62,623 70,618 78,614 89,615 96,620 101,627 103,637 100,646 96,653 92,662 86,667 	"/>
	<polygon fill="#00FF00" stroke="#800080" points="76,522 65,521 57,517 51,511 48,502 50,492 54,483 58,476 64,470 71,465 80,461 
		91,460 99,464 104,471 106,481 107,492 106,503 102,510 94,515 86,518 77,521 	"/>
	<polygon fill="#00FF00" stroke="#800080" points="63.896,997.515 57.112,996 53,989 51,979 49,969 48,958 48,946 51,937 57,930 
		65,926 75,926 83,930 90,935 94,943 97,952 95,961 92,971 90,981 87,989 81,995 70,996 	"/>
	<polygon fill="#00FF00" stroke="#800080" points="87,68 77,66 68,63 61,58 55,52 52,43 50,33 53,23 59,17 71,17 79,21 86,26 92,32 
		97,39 99,49 101,59 96,65 	"/>
	<polygon fill="#00FF00" stroke="#800080" points="69,193 60,190 55,183 54,172 57,163 61,155 67,149 77,146 85.312,141.398 94,139 
		104,141 109,148 110,159 107,168 102,175 96,180 88,184 80,189 72,192 	"/>
	<polygon fill="#00FF00" stroke="#800080" points="105,574 94,573 86,569 80,563 76,555 75,544 78,535 83,528 90,522 100,520 
		109,523 115,529 118,538 119,549 118,560 114,567 107,573 	"/>
	<polygon fill="#00FF00" stroke="#800080" points="118,127 108,125 102,119 97,112 95,102 96,91 100,82 106,77 114,72 124.834,72 
		134,76 140,82 143,91 141,101 137,109 133,117 127,123 123.575,125.625 	"/>
	<polygon fill="#00FF00" stroke="#800080" points="93.295,1024 96.165,1020.163 99.991,1016.23 102.967,1012.404 106.793,1009.748 
		111.363,1008.684 116.571,1009.535 120.184,1011.13 124,1014 127.305,1018.464 127.943,1024 	"/>
	<polygon fill="#00FF00" stroke="#800080" points="147,70 136.426,69.955 125.73,69.095 114.555,65.657 108.061,60.118 
		104.05,52.573 102.366,44.729 104,36 112.359,32.135 122,31 134,30 144.551,31.24 154,34 159,41 161,51 160,59 154,66 	"/>
	<polygon fill="#00FF00" stroke="#800080" points="176.795,0 175.499,7.819 171.302,14.348 163.532,18.769 153.499,20.819 
		143.636,22.588 133.655,21.851 123.54,18.501 114.412,11.161 107.998,0 	"/>
	<polygon fill="#00FF00" stroke="#800080" points="145,251 135,249 127,245 122,238 118,230 116,220 118,209 122,202 127,195 
		129,185 130,174 134,165 141,160 150,159 158,163 163,170 167,178 170,187 172,197 171,208 167,216 164,225 161,234 158,242 
		152,248 	"/>
	<polygon fill="#00FF00" stroke="#800080" points="155,739 143,739 135,735 131,727 133,717 138,710 145,704 150,698 155,691 
		161,685 167,679 175,674 185,674 194,677 200,683 203,692 202,702 199,711 196,721 191,727 183,731 174,734 165,737 	"/>
	<polygon fill="#00FF00" stroke="#800080" points="198,669 186,669 178,665 171,660 167,652 167,642 166,631 169,622 175,615 
		182,610 192,610 200,614 206,620 211,627 215,635 218,644 216,654 212,661 205,666 	"/>
	<polygon fill="#00FF00" stroke="#800080" points="202,435 191,434 184,429 178,423 177,412 178,401 181,392 185,384 190,376 
		195,369 201,363 208,358 216,362 218,372 216,382 217,393 220,402 218,412 215,421 211,428 204,434 	"/>
	<polygon fill="#00FF00" stroke="#800080" points="212.684,1014.724 208.165,1013.805 205.642,1012.731 200.673,1009.594 198,1007 
		192,1001 189.963,996.921 190,991 191,980 192.354,971.805 194.082,965.427 196,961 198.538,957.447 201,954 204.978,951.077 
		211,951 215.475,952.14 219,955 224,962 228,970 230,980 229,991 227,1000 223,1008 220.126,1012.067 215.967,1013.552 	"/>
	<polygon fill="#00FF00" stroke="#800080" points="242,214 232,212 222,210 214,206 208,200 203,193 199,185 197,175 200,165 
		205,158 211,153 220,149 230,147 240,145 247,150 249,160 249,170 247,180 250,189 251,200 248,209 	"/>
	<polygon fill="#00FF00" stroke="#800080" points="255,740 246,737 238,733 232,727 227,720 224,711 221,702 219,692 221,682 
		226,675 235,671 245,673 253,677 260,682 265,689 271,695 275,703 276,714 272,721 265,727 261,735 	"/>
	<polygon fill="#00FF00" stroke="#800080" points="243,337 233,335 227,329 223,321 222,310 221,299 222,287 224,277 227,269 
		231,261 240,259 246,265 253,270 258,277 259,288 257,298 256,309 254,319 252,328 247,335 	"/>
	<polygon fill="#00FF00" stroke="#800080" points="249,465 238,464 231,459 227,451 229,440 230,430 228,420 229,409 234,402 
		242,398 252,399 258,405 260,415 259,425 260,435 259,446 259,456 254,462 	"/>
	<polygon fill="#00FF00" stroke="#800080" points="256,560 246,558 239,553 236,544 231,537 228,528 230,518 234,510 241,504 
		251,504 259,508 265,514 270,521 270,533 269,543 265,552 260,558 	"/>
	<polygon fill="#00FF00" stroke="#800080" points="246,819 236,817 230,811 229,802 231,792 236,785 241,778 246,771 253,765 
		262,762 273,763 282,766 290,770 295,777 296,788 293,796 287,803 278,805 266,805 259,810 252,816 	"/>
	<polygon fill="#00FF00" stroke="#800080" points="281,400 270,399 262,395 255,390 249,384 245,376 245,366 247,356 251,347 
		258,343 268,342 276,346 282,352 286,360 291,367 293,377 295,387 291,395 284,399 	"/>
	<polygon fill="#00FF00" stroke="#800080" points="302.523,648.69 296,650 285,649 276,646 268,642 261,637 256,630 255.01,625.654 
		257,621 264,615 272,611 282,609 294,609 304,611 312,615 317.949,618.25 321.446,623.185 323,628 323.091,633.677 320,637 
		314,643 309.721,645.81 	"/>
	<polygon fill="#00FF00" stroke="#800080" points="285,470 275,468 269,462 263,456 262,447 261,436 263,425 267,418 274,412 
		282,416 289,421 298,424 303,431 305,441 303,451 299,458 293,464 286,469 	"/>
	<polygon fill="#00FF00" stroke="#800080" points="282,335 270,335 265,328 265,317 267,308 265,298 267,288 272,281 280,277 
		290,276 298,280 303,287 305,297 304,308 300,315 294,322 289,329 283,334 	"/>
	<polygon fill="#00FF00" stroke="#800080" points="303,260 292,259 285,254 280,247 277,238 277,228 278,216 276,207 275,196 
		278,187 283,179 291,175 302,176 309,181 315,187 318,196 321,205 323,215 323,227 322,238 319,247 313,253 307,258 	"/>
	<polygon fill="#00FF00" stroke="#800080" points="300,875 290,873 284,867 280,859 279,848 284,841 290,835 300,832 309,835 
		315,841 317,851 315,860 310,867 303,873 	"/>
	<polygon fill="#00FF00" stroke="#800080" points="346,366 334,366 322,366 310,366 301,363 295,357 291,349 290,338 294,329 
		300,323 306,318 315,315 324,317 333,320 341,324 350,327 355,334 358,343 358,353 354,361 347,365 	"/>
	<polygon fill="#00FF00" stroke="#800080" points="308.531,962.422 300.546,961.963 295.681,960.127 292.193,956.271 
		288.888,948.928 290,938 291,927 294.947,918.363 299.352,911.112 305.961,904.505 313,900 318,894 321,885 326,877 333,872 
		344,871 351,876 356,883 356,892 352,900 345,906 339,911 335,920 333,930 331,940 328,948 322,955 316,960 	"/>
	<polygon fill="#00FF00" stroke="#800080" points="318,754 307,753 298,750 292,744 293,733 295,723 301,716 308,711 317,708 
		327,710 335,714 342,719 346,727 344,737 339,744 333,749 324,752 	"/>
	<polygon fill="#00FF00" stroke="#800080" points="310.686,1024 307.13,1015.109 306.791,1006.129 308.401,998.079 310.265,990.963 
		313.57,984.268 319.331,977.321 328.566,974.355 340.513,975.882 346.952,982.404 350,991 350,1003 348,1012 341.784,1024 	"/>
	<polygon fill="#00FF00" stroke="#800080" points="332,493 321,492 312,489 307,482 308,473 313,466 319,459 324,452 330,446 
		337,442 347,443 352,450 354,460 356,470 353,479 347,484 339,489 	"/>
	<polygon fill="#00FF00" stroke="#800080" points="339,843 328,842 320,838 315,831 310,824 307,815 307,803 311,794 316,787 
		323,782 332,779 343,780 353,782 361,786 366,793 366,803 362,811 358,819 354,826 350,834 344,840 	"/>
	<polygon fill="#00FF00" stroke="#800080" points="344,433 333,432 325,428 319,422 314,415 311,406 313,396 319,389 327,385 
		338,384 347,387 352,394 361,395 367,401 364,409 358,416 354,423 348,430 	"/>
	<polygon fill="#00FF00" stroke="#800080" points="351,321 342,318 333,315 325,311 321,303 321,292 322,282 326,274 325,265 
		330,257 340,257 347,262 350,271 357,276 361,284 364,293 365,304 363,314 357,319 	"/>
	<polygon fill="#00FF00" stroke="#800080" points="353.056,966.033 350,964 348.207,957.789 350.308,949.546 349.177,942.109 
		344.974,936.29 346.267,931.763 350,927 353,919 358,911 362.432,906.709 367.605,901.696 373,902 376.387,903.693 
		383.123,906.869 388.135,913.82 390,921 389,932 386,940 381,947 374.071,950.191 369,960 362,965 	"/>
	<polygon fill="#00FF00" stroke="#800080" points="394,621 386,617 378,613 371,608 366,601 361,594 354,589 352,580 356,573 
		361,565 367,559 376,558 381,551 386,545 395,547 405,547 414,548 417,557 418,566 420,576 425,583 426,591 420,598 418,608 
		413,615 406,613 399,618 	"/>
	<polygon fill="#00FF00" stroke="#800080" points="398,479 391,474 383,474 375,476 367,472 359,468 357,458 355,448 357,438 
		357,426 362,418 368,424 370,419 372,411 380,408 389,409 398,406 405,409 408,416 410,424 419,427 423,433 430,438 424,444 
		414,445 407,448 401,445 397,452 399,458 407,457 407,465 411,473 405,478 	"/>
	<polygon fill="#00FF00" stroke="#800080" points="416,379 407,376 397,374 389,370 383,364 379,356 380,345 385,338 392,332 
		400,329 411,329 419,333 424,340 427,349 430,358 429,368 423,375 	"/>
	<polygon fill="#00FF00" stroke="#800080" points="467.828,1.33 464,9 460,17 454,23 446,27 437,29 426,28 416,26 407,23 399,19 
		393,13 390.665,1.283 	"/>
	<polygon fill="#00FF00" stroke="#800080" points="438,678 428,676 421,671 417,663 414,654 412,644 413,633 417,625 424,619 
		432,615 442,617 452,619 462,621 470,625 474,633 472,642 465,648 459,653 454,661 451,670 444,675 	"/>
	<polygon fill="#00FF00" stroke="#800080" points="453,513 441,513 433,509 426,504 423,495 422,484 425,474 429,467 436,461 
		448,461 456,465 467,464 475.167,463.668 483.667,464.334 487.834,467.5 490.834,470.334 493.667,477.334 494,484 490,493 485,499 
		477,503 468,507 460,510 	"/>
	<polygon fill="#00FF00" stroke="#800080" points="521.146,0 522.28,4.052 524,9 525.949,12.724 527.533,17.267 528.485,22.199 
		528,29 527,40 524,49 519,55 510,59 500,58 491,55 484,50 478,44 473,37 470.437,33.608 469,29 469.703,23.734 472,20 
		476.241,12.657 480.126,6.249 484.115,0 	"/>
	<polygon fill="#00FF00" stroke="#800080" points="511,806 500,805 491,802 489,792 492,783 493,772 496,762 502,757 511,754 
		522,752 532,752 542,754 549,759 553,767 554,778 552,787 546,794 541,800 532,803 522,805 	"/>
	<polygon fill="#00FF00" stroke="#800080" points="549,583 539,581 529,583 523,577 517,571 519,562 525,556 533,553 543,550 
		550,547 558,551 556,558 559,566 556,575 551,582 	"/>
	<polygon fill="#00FF00" stroke="#800080" points="546,382 535,381 527,377 523,369 520,360 517,351 519,341 525,334 532,329 
		540,325 550,325 557,330 563,336 567,344 568,355 565,364 560,371 554,377 547,381 	"/>
	<polygon fill="#00FF00" stroke="#800080" points="550,652 539,651 530,648 524,642 521,633 522,622 525,613 530,606 537,600 
		540.708,598.564 545,600 548.973,602.322 551,606 555,614 561,620 565,628 564,639 560,647 553,651 	"/>
	<polygon fill="#00FF00" stroke="#800080" points="549.172,705.591 545.659,704.552 541.827,700.885 540.486,697.34 540,692 
		537,683 534,674 533,665 539,658 550,657 559,660 565.239,666.802 568.91,674.604 570.246,681.758 571.238,689.572 570,694 
		566.101,696.786 562.025,699.278 555.713,701 551.799,704.203 	"/>
	<polygon fill="#00FF00" stroke="#800080" points="563,319 553,317 546,312 540,306 538,296 541,287 546,280 552,273 559,268 
		568,265 577,268 583,274 590,279 594,287 592,297 587,304 581,310 574,315 566,318 	"/>
	<polygon fill="#00FF00" stroke="#800080" points="578,493 568,491 558,489 550,485 545,478 543,468 540,459 541,448 544,439 
		551,433 562,432 573,433 584,434 592,438 597,445 598,456 598,468 596,478 592,485 585,490 	"/>
	<polygon fill="#00FF00" stroke="#800080" points="592,161 580,161 572,157 564,153 558,147 553,140 549,132 548,121 547,110 
		549,100 554,93 561,87 572,86 581,89 587,95 594,100 600,106 607,111 612,118 614,128 612,138 609,147 604,154 597,159 	"/>
	<polygon fill="#00FF00" stroke="#800080" points="610,686 599,685 588,686 578,684 572.239,678.049 567.992,668.522 
		568.008,659.177 570,648 573.519,636.135 578,631 585,627 595,624 605,626 613,630 618,637 622,645 625,654 625,666 622,675 
		617,681 	"/>
	<polygon fill="#00FF00" stroke="#800080" points="591,764 582,761 578,753 580,743 582,733 586,725 589,716 594,709 601,703 
		609,700 620,700 627,705 633,711 634,722 632,732 628,739 622,746 616,752 609,756 599,759 592,763 	"/>
	<polygon fill="#00FF00" stroke="#800080" points="605,537 594,536 592,526 593,517 587,511 586,502 595,498 606,499 614,503 
		621,508 625,516 625,526 619,532 611,535 	"/>
	<polygon fill="#00FF00" stroke="#800080" points="629.489,73.524 625.506,72.225 623,70 621.72,66.157 620,61 615,54 
		612.86,49.719 611,46 608.448,42.267 606.544,37.072 606.111,29.885 606.457,24.084 607.843,20.447 610.7,17.503 615.03,15.165 
		620,14 629,17 636,22 641,29 645,37 646,48 645,58 642.498,62.004 640,66 637.044,68.957 634.424,72.052 	"/>
	<polygon fill="#00FF00" stroke="#800080" points="679,855 668,854 657,853 648,850 642,844 636,838 632,830 634,822 642,817 
		652,815 663,814 675,814 684,817 690,823 695,830 697,839 693,847 686,852 	"/>
	<polygon fill="#00FF00" stroke="#800080" points="719,411 708,410 698,408 687,409 678,406 672,400 669,391 671,381 675,372 
		681,367 688,361 695,357 706,355 715,358 722,363 727,370 726,381 724,391 726,401 723,409 	"/>
	<polygon fill="#00FF00" stroke="#800080" points="738,745 728,743 721,738 715,732 710,725 707,716 705,706 708,697 716,692 
		727,691 737,693 745,697 752,702 758,708 759.592,711.184 762,716 760.845,720.369 758,724 752,730 748,738 742,743 	"/>
	<polygon fill="#00FF00" stroke="#800080" points="741,360 731,358 723,354 717,348 711,342 709,332 710,321 714,312 718,305 
		723,298 730,293 739,289 748,286 758,288 765,293 769,301 771,311 768,320 764,327 761,336 759,347 754,354 747,358 	"/>
	<polygon fill="#00FF00" stroke="#800080" points="765,966 754,965 743,964 735,960 730,953 728,943 725,934 726,924 731,917 
		739,913 748,910 758,912 764,918 770,924 776,930 781,937 784,946 785,955 780,961 771,964 	"/>
	<polygon fill="#00FF00" stroke="#800080" points="747,409 738,406 733,399 733,387 734,376 737,367 745,362 752,359 758,354 
		765,354 771,360 773,370 769,378 767,388 763,395 758,402 751,407 	"/>
	<polygon fill="#00FF00" stroke="#800080" points="790,775 778,775 771,770 766,763 766,752 768,743 774,737 779.448,730.175 
		787.492,725.9 798,726 807,729 816,732 825,735 831,741 832.995,744.756 834,750 832.357,754.931 831,759 827,766 822.94,768.135 
		818,769 808,769 799,772 	"/>
	<polygon fill="#00FF00" stroke="#800080" points="847.576,813.135 843,812 840,803 843,794 842,783 838,775 835,766 
		833.749,760.844 835.006,756.067 837.269,752.046 838.024,748.525 841.543,745.259 847,743 858,744 865,749 870,756 875,763 
		879.252,771.654 881,781 879,791 876,799 870,805 863,810 854,813 	"/>
	<polygon fill="#00FF00" stroke="#800080" points="915,205 904,204 895,201 887,197 881,191 877,183 874,174 873,165 875,155 
		880,148 888,143 897,141 907,140 916,143 923,148 930,153 936,159 941,166 944,175 942,185 938,192 932,198 924,203 	"/>
	<polygon fill="#00FF00" stroke="#800080" points="901,769 890,768 882,764 876.236,758.33 873,749 873.47,735.705 876,727 882,722 
		889,717 897,712 907,710 915,714 919,722 921,732 922,743 920,753 916,760 909,765 	"/>
	<polygon fill="#00FF00" stroke="#800080" points="947.212,121.053 942,120 936,114 931,107 927,99 922,92 917,85 912,78 910,68 
		911,57 917,50 923,44 926.111,41.923 929.691,40.604 935.72,38.532 944.951,37.778 952,39 959,44 964,51 968,59 970.386,62.459 
		971,68 970.477,73.758 970,79 971,90 971,100 968,109 963,115 955,120 	"/>
	<polygon fill="#00FF00" stroke="#800080" points="1006,393 994,393 985,390 975,388 965,388 955,386 947,382 937,380 929,376 
		922,371 917,364 914,355 914,345 917,336 922,329 929,323 936,318 946,316 956,318 965,321 973,325 983,327 991,331 998,336 
		1004,342 1011,347 1016,354 1019,363 1021,373 1019,383 1013,389 	"/>
	<polygon fill="#00FF00" stroke="#800080" points="1024,734 1017,740 1008,742 997,741 989,737 983,731 977,725 970,720 963,715 
		956,710 951,703 948,694 948.308,688.909 949.235,683.506 952.168,679.337 956.954,675.168 964.366,670.382 971,668 
		980.271,669.918 988,675 995,680 1001,686 1005,694 1012,699 1017,706 1022,713 1024,718.709 	"/>
	<polygon fill="#00FF00" stroke="#800080" points="1024,184 1017,190 1006,190 995,191 984,190 975,187 968,182 964.614,178.151 
		964,174 963.28,168.811 965,165 966.393,160.954 972.174,156.21 978,153 991.002,149.539 998,149 1009,150 1016.353,151.021 
		1024,154.291 	"/>
	<polygon fill="#00FF00" stroke="#800080" points="996.198,93.923 987.719,93.735 980,90 975.284,83.561 973.589,74.706 976,64 
		981,56 985.647,52.097 990.168,49.271 996.009,47.575 1002.038,47.387 1007.314,48.329 1015.227,50.967 1020.502,55.489 1023,64 
		1021,73 1017,81 1011,88 1004,93 	"/>
	<polygon fill="#00FF00" stroke="#800080" points="1019.228,468.814 1013,468 1004,465 996,461 987,458 981,452 976,445 
		974.304,439.73 975,434 976.625,429.627 980,427 988,422 996,418 1007,417 1016,414 1024,414.061 1024,468.269 	"/>
	<polygon fill="#00FF00" stroke="#800080" points="1023.893,47.764 1018,48 1009,45 1003.545,40.981 999.129,37.258 997,33 
		994.691,28.546 994,24 995.068,18.372 998,15 1002.415,10.083 1008.068,7.445 1014,7 1018.806,2.923 1024,2.17 	"/>
	<polygon fill="#00FF00" stroke="#800080" points="0,17.75 9,20 18,23 27,26 34,31 38,39 39,47 33,53 25,57 17,61 0.093,60.671 	"/>
	<polygon fill="#00FF00" stroke="#800080" points="1,84 4.355,81.203 7,79 13,73 19,66 24,60 31,54 40,51 48,55 54,61 57,70 55,80 
		51,87 44,93 38,98 29,102 20,102 15.081,101.016 10,100 4.843,97.731 3,95 1.046,89.845 	"/>
	<polygon fill="#00FF00" stroke="#800080" points="0,101.669 4.106,101.782 12,102 16.99,102.998 22,104 27,111 29,121 
		32.007,124.457 38.871,126.496 45.443,130.585 46.465,140.37 41.791,147.38 33,150 23,152 15,148 10,141 5.264,139.042 0,136.865 	
		"/>
	<polygon fill="#00FF00" stroke="#800080" points="147.089,843.545 137.028,841.448 130.531,835.79 122.148,827.825 
		118.794,820.909 119.842,811.477 124.034,802.257 129.274,795.55 132.417,785.698 136.609,781.089 145.412,782.973 
		152.957,790.309 159.244,800.369 161.76,810.219 163.227,820.49 162.388,832.226 156.939,840.4 	"/>
	<polygon fill="#00FF00" stroke="#800080" points="95,823 85,821 77,817 73,809 71,799 74,789 79,782 85.889,776.895 
		95.111,775.219 107,774 115,772 121.309,773.123 125.501,775.219 128.435,778.363 129.903,784.021 129.483,789.052 128,795 
		123,801 119,810 116.489,816.718 111.668,821.118 102.447,823.006 	"/>
	<polygon fill="#00FF00" stroke="#800080" points="173.08,941.602 167,939 163.872,931.13 163.872,918.927 164,908 170,902 180,899 
		189,902 196,907 197.517,911.551 199,916 199.783,921.115 198.863,925.719 197.534,929.099 196,933 190,938 180,941 	"/>
	<polygon fill="#00FF00" stroke="#800080" points="134.176,949.546 130.035,950.55 124,950 119.214,947.818 117.257,944.595 
		115.645,939.991 115,935 115.184,923.878 118,914 122,906 127,898 132.105,892.57 142,889 152,891 158,897 163,904 163,910.64 
		163,916 163,928 162.721,934.696 161,938 155,943 147.067,946.782 140.737,947.933 	"/>
	<polygon fill="#00FF00" stroke="#800080" points="191.375,535.625 183.75,532.25 179.356,526.288 173.863,517.904 173.125,509.875 
		177.5,499.375 181.25,492.125 185.375,483.5 189.75,474.375 194,469 203.375,464.25 213.375,464.875 221.125,472.25 225,479.75 
		227,489 226,500 223,509 219,516 213,523 207,529 198.75,534.75 	"/>
	<polygon fill="#00FF00" stroke="#800080" points="159.5,511 155.125,508.875 151.25,507.875 147.125,508.875 140.25,509 
		137,507.375 136.29,500.578 137.375,492.75 142.25,482.625 147.25,475.5 151.875,469.625 158.5,463.5 167.5,461.375 
		176.309,460.905 180.29,459.578 183.75,457.625 187.75,457.875 189.5,459.875 189.29,462.5 186.25,466 188,467.875 189.875,471.75 
		188.29,475.578 184.29,483.578 180.29,491.578 176.29,499.578 173.375,506.375 170.5,512.5 166,515.375 162.375,512.5 	"/>
	<polygon fill="#00FF00" stroke="#800080" points="169,565 158,564 148,562 137.146,559.536 131,555 129.918,547.682 
		133.676,538.43 134,524 135.989,513.856 142.349,509.809 151.312,509.231 158.829,511.834 164.611,515.593 168.658,519.927 
		173.284,527.445 175.886,534.094 177.621,543.345 177.91,551.152 175.886,559.825 	"/>
	<polygon fill="#00FF00" stroke="#800080" points="157,621 147,619 139,615 134,608 130,600 125,593 122,584 121,573 126,565 
		134,561 144,561 154,563 163,566 170,571 176,577 177,588 176,599 173,607 168,614 161,619 	"/>
	<polygon fill="#00FF00" stroke="#800080" points="175.45,1005.39 170.986,1006.24 166,1004 158,1000 152,994 146.151,987.834 
		145.883,978.53 150,970 154.829,962.695 161.897,955.538 170.486,952.317 179,954 186,959 189,968 190,979 189,990 186,998 
		181.295,1002.202 	"/>
	<polygon fill="#00FF00" stroke="#800080" points="135.913,1011.343 135.594,1006.879 135.726,1002.472 136.551,999.225 
		139.527,995.295 143.885,993.382 147.285,993.274 151,994 156.744,999.332 164.397,1004.54 172,1009 175,1018 173.005,1024 
		139.527,1024 138.464,1018.569 	"/>
	<polygon fill="#00FF00" stroke="#800080" points="206.484,1019.95 207.865,1024 174.175,1024 176.725,1016.018 179.276,1010.918 
		188.097,1007.197 196.387,1009.11 203,1015 	"/>
	<polygon fill="#00FF00" stroke="#800080" points="173,900 164,897 157,892 151,886 147,878 144,869 144,859 148,851 156,847 
		168,846 177,849 183,855 188,862 192,870 195,879 193,889 189,896 181,899 	"/>
	<polygon fill="#00FF00" stroke="#800080" points="214.356,890.05 207,889 199,885 194,878 194,872.675 194,867 196.979,863.736 
		201.82,860.635 207.156,857.034 210.508,854.677 215,852 218.575,850.58 222,851 224.237,854.133 227.76,858.027 230.366,862.123 
		231.856,867.337 231.539,871.923 232,877 228,884 221,889 	"/>
	<polygon fill="#00FF00" stroke="#800080" points="196.979,862.495 193.436,863.089 188,862 183,855 181.312,849.933 
		181.465,845.863 181.921,841.679 184,837 191,832 195.971,831.55 202,831 211,834 216,841 218.948,846.98 217.955,849.464 
		215.224,850.58 210.632,853.31 204.799,857.53 201.075,859.888 	"/>
	<polygon fill="#00FF00" stroke="#800080" points="290.959,0 288,10 284.226,16.967 276,21 265,20 256,17 250,11 244.239,0 	"/>
	<polygon fill="#00FF00" stroke="#800080" points="241,1 242,9 240.159,17.171 235,26 229,32 220,35 211,32 206,25 203,16 199,8 
		198,1 	"/>
	<polygon fill="#00FF00" stroke="#800080" points="244,917 237,912 234,903 232,893 233,882 237,874 241.289,866.716 251,863 
		261,865 270,868 279,871 288,874 294,880 297,889 298,899 295,908 288,914 280,915 270,913 258,913 248,915 	"/>
	<polygon fill="#00FF00" stroke="#800080" points="243.821,968.845 237,968 230,963 225,956 218.213,947.919 216.56,939.198 
		220.14,932.039 226.565,926.073 234.276,921.209 243,918 252.266,914.783 263,913 274,914 284,916 289,923 290,933 287,943 
		282.555,948.379 273.652,953.609 265,957 259,963 252,967 	"/>
	<polygon fill="#00FF00" stroke="#800080" points="251.219,1015.788 246.435,1016.452 244.309,1014.857 243.379,1010.605 
		241.784,1007.151 239,1004 235,996 235,986 238.463,977.255 244,970 253,967 261,969 266,976 267,986 265,997 261.317,1004.227 
		256.135,1009.941 251.484,1011.67 	"/>
	<polygon fill="#00FF00" stroke="#800080" points="308,78 302,72 300,62 302,52 306,44 311,36 316,30 325,26 334,25 342,29 346,37 
		347,47 343,55 338,62 332,68 325,74 317,77 	"/>
	<polygon fill="#00FF00" stroke="#800080" points="273.781,134.87 267,134 259,130 254,123 250,115 245,108 243,98 241,88 241,76 
		242,65 246,57 253,52 264,50 271,55 276,62 282,68 288,74 293,81 295,91 295,101 295,112 293,122 287.18,128.617 280.331,133.084 	
		"/>
	<polygon fill="#00FF00" stroke="#800080" points="328,617 319,614 310,611 303,606 297,600 291,594 285,588 286,578 293,573 
		301,575 307,581 315,585 324,583 332,578 339,577 345,583 349,591 348,602 345,610 338,615 	"/>
	<polygon fill="#00FF00" stroke="#800080" points="280,592 270,590 265,583 262,574 265,565 268,556 271,547 274.138,537.826 
		277.429,528.159 284,524 293,520 302,523 308,529 312,537 313,546 312,556 307,563 302,570 293,573 285,577 284,587 	"/>
	<polygon fill="#00FF00" stroke="#800080" points="341.808,562.302 333.17,561.274 326.453,557.543 321,552 315.275,543.997 
		313.214,533.713 314.167,523.227 318.404,515.921 324.441,511.365 331.524,508.824 337.044,509.353 348,516 352.71,520.344 
		353.944,526.926 353,533 350.653,536.18 351.064,540.09 353.327,545.231 354.355,550.99 351.064,558.806 347.362,561.891 	"/>
	<polygon fill="#00FF00" stroke="#800080" points="386.185,525.663 376.336,523.863 367.969,521.427 358.013,519.415 348.8,515.284 
		341,511 337.256,507.976 334.82,503.316 334.714,498.128 337.256,492.831 341.742,490.085 345.728,487.642 355.684,482.452 
		365.11,480.335 375.489,479.17 386.185,481.924 393.387,485.524 398.047,492.513 399.635,504.269 398.47,516.554 394.023,522.91 	
		"/>
	<polygon fill="#00FF00" stroke="#800080" points="418.953,814.399 410,814 405.797,813.8 400.504,812.903 397.085,811.03 392,808 
		386,802 384.959,796.796 384,792 385.727,786.247 387,782 394,777 402.617,772.838 412,771 423,770 434,771 441.777,774.76 
		448,781 451.867,789.414 451.867,800.466 445,810 433.609,813.92 426,815 	"/>
	<polygon fill="#00FF00" stroke="#800080" points="379,877 367.06,873.739 361.775,867.493 358.411,860.046 357.45,851.878 
		359.373,839.625 365,832 365.249,823.162 367.529,817.87 370,814 371.355,810.705 374.938,806.47 379.091,804.028 385,804 
		388.413,806.437 392,809 399,814 410.305,815.599 417,820 421,828 423,838 421,848 415.938,854.822 410.442,860.641 
		403.007,865.007 395,869 387,874 	"/>
	<polygon fill="#00FF00" stroke="#800080" points="398.803,914.468 392.984,913.016 386,907 381,900 378.112,893.941 377.627,887.8 
		379.729,883.759 382.477,879.879 386.357,876.969 392,871 401,867 407.209,864.359 411.897,861.288 418,860 422.566,862.096 
		425,865 426.319,871.01 427.602,876.862 426.446,886.344 423.859,894.589 419.675,900.646 413,908 406,913 	"/>
	<polygon fill="#00FF00" stroke="#800080" points="484,383 478,377 473,370 465,366 456,363 445,364 436,361 431,354 429,344 
		427,334 430,325 436,318 445,315 455,317 463,321 469,327 476,332 483,337 489,343 493,351 495,361 494,372 490,380 	"/>
	<polygon fill="#00FF00" stroke="#800080" points="450,411 438,411 430,407 425,400 421,392 422,381 428,375 435,369 443,365 
		454,364 463,365 471,369 477,375 480,384 478,392 473,399 467,404 458,408 	"/>
	<polygon fill="#00FF00" stroke="#800080" points="511.334,479.668 503.167,478.5 494.667,473 490.167,465.668 486.667,458.5 
		485,451.5 485.167,445 487,439.168 489.334,435.168 493.834,431.834 502.334,427.5 511.667,423.168 516.833,421.5 524,420.667 
		528,422 532.667,424.834 534.667,429.168 534.167,433.168 532,440 535.333,444.168 536,450.168 535.667,460.834 532.333,469.5 
		527.333,475.5 520.333,478.834 	"/>
	<polygon fill="#00FF00" stroke="#800080" points="470.62,436.685 464,438 452,438 443,435 439,427 441.001,416.789 449,412 
		459,410 468,407 476.679,401.499 483.688,396.826 491.97,392.791 501.74,391.093 507.815,391.03 512,393 516.1,395.172 
		519.185,399.138 520.33,404.25 520,409 519.097,413.24 516.277,417.647 510.107,422.495 502.174,426.197 494.418,430.075 
		486.926,434.041 478.64,435.892 	"/>
	<polygon fill="#00FF00" stroke="#800080" points="702.159,463.622 694.281,462.586 685.469,460.304 680.285,457.092 
		677.072,452.634 675.517,446.206 675.102,440.298 677,434 679.448,430.572 682,427 686.299,424.851 690,423 699.153,422.26 
		709.623,425.161 717.399,431.175 721.752,437.809 723.722,444.548 723.722,449.938 721.856,454.499 718.124,458.438 711,462 	"/>
	<polygon fill="#00FF00" stroke="#800080" points="634,489 623,488 614,485 609,478 603,472 602,463 604,453 608,444 614,439 
		621,434 630.836,430.76 638,427 647,423 658,422 666.083,426.406 672.303,432.522 674.066,441.541 674.584,452.53 671.474,461.757 
		666.498,468.287 661,474 654,480 648,485 641.929,487.776 	"/>
	<polygon fill="#00FF00" stroke="#800080" points="739,850 728,849 717,848 710,843 705,836 700,829 698,819 696,809 697,800 
		704,794 707,785 709,776 712,767 716,759 723,754 734,752 743,755 749,761 753,769 757,777 756,786 755,797 755,809 756,819 
		754,830 752,840 747,846 	"/>
	<polygon fill="#00FF00" stroke="#800080" points="721,913 711,911 703,907 697,901 693,893 690,884 688,874 688,863 691,855 
		697,848 707,846 716,847 724,851 729,858 732,867 736,875 740,883 741,893 736,900 731,907 723,912 	"/>
	<polygon fill="#00FF00" stroke="#800080" points="54.623,117.041 54.837,121.743 55.051,126.446 55.906,131.149 57.829,136.279 
		60.822,139.913 65.525,142.692 70.655,143.12 75.785,142.052 79.847,139.913 83.481,136.707 86.473,133.073 88.825,129.225 
		90.749,122.812 91.39,117.896 92.031,113.834 92.031,109.132 91.39,103.573 90.107,99.299 87.754,95.906 84.122,93.954 
		79.633,93.527 75.785,93.527 70.441,94.168 64.838,96.302 62.393,97.77 57.013,103.965 56.394,105.767 54.995,109.839 
		54.477,112.359 	"/>
	<polygon fill="#00FF00" stroke="#800080" points="641.141,179.361 635.843,182.01 633.195,186.645 631.208,192.385 
		630.988,199.889 633.195,206.291 636.505,210.927 641.803,215.561 647.322,217.548 654.164,217.99 661.007,217.327 
		666.967,216.224 672.265,214.899 678.225,213.354 683.964,212.913 689.924,210.705 693.455,208.056 696.988,205.407 
		701.622,200.772 704.492,196.358 706.258,193.047 708.465,188.852 708.686,183.114 708.465,177.816 706.258,173.622 
		703.168,168.986 698.312,166.338 691.69,165.234 683.081,166.558 672.706,169.427 665.864,171.635 658.8,172.518 652.619,174.946 
		647.322,177.154 	"/>
	<polygon fill="#00FF00" stroke="#800080" points="546,0 543.167,3.666 540.667,8.833 538.833,14.833 537.5,21.5 536.5,28.166 
		536,33.166 535.667,38.333 535.5,43.666 535.167,50 536.333,56 538.833,60.666 542.833,64 547.5,66.166 551.5,66.166 
		554.667,65.666 558.5,63 560.833,59.833 563.167,55.166 564.5,50.666 565.5,47 565.833,42.666 567,38.166 567.833,33.833 
		569.833,30 573.333,27.5 576.667,26.166 580.333,24.166 582.833,22.333 585.5,20 587.333,16.666 586.333,13.666 583.5,9.333 
		579.333,6.333 574,3.833 570.5,2 568.5,0.166 	"/>
	<polygon fill="#00FF00" stroke="#800080" points="257.046,1024.24 257.185,1020.758 258.3,1017.691 259.972,1014.627 
		261.923,1012.535 264.152,1010.445 266.521,1009.609 269.168,1009.331 272.791,1009.331 276.414,1008.495 279.061,1007.937 
		281.708,1007.101 284.217,1006.265 286.864,1005.29 289.651,1004.454 292.437,1003.896 294.528,1003.478 296.199,1002.922 
		298.15,1003.758 299.265,1005.986 299.823,1008.077 299.544,1010.305 298.429,1013.65 296.896,1016.299 296.896,1018.945 
		296.478,1021.731 296.199,1024.38 	"/>
	<polygon fill="#00FF00" stroke="#800080" points="613.108,158.17 615.756,162.143 616.86,167.441 619.729,172.297 623.703,175.829 627.897,178.478 632.533,179.803 
		638.714,179.14 643.349,176.712 647.323,174.284 651.738,172.739 656.152,169.649 659.905,166.117 663.217,161.923 665.865,157.95 
		668.072,154.639 670.28,150.224 670.942,144.705 670.942,140.07 669.396,135.434 666.968,132.564 663.216,129.915 659.022,129.694 
		655.269,129.253 650.634,130.136 645.778,132.344 640.479,133.889 635.403,135.434 630.548,136.096 625.912,137.2 621.938,139.186 
		617.745,142.056 614.654,146.029 612.668,150.223 612.227,153.975 	"/>
	<polygon fill="#00FF00" stroke="#800080" points="564.55,59.238 566.167,61 569.167,63.167 573.5,64.667 576.667,63.834 580,61.166 583.833,59.666 588,58.833 
		592.833,58.166 596.833,56.666 600.333,54.833 603.5,51.5 605,47.667 605.833,43.667 605.333,40 604.833,36.167 604.333,33 
		604,28.833 603.167,25.166 602.333,20.499 599.333,18.332 596.5,17.33 592.257,18.023 589.167,19.167 586.667,20.5 583.5,23.333 
		580.654,25.296 577.167,27.166 574.161,28.326 571.667,30.166 569.833,32.333 568.333,36.833 567.407,41.054 566.887,44.344 
		565.935,49.539 564.722,53.435 564.03,56.206 	"/>
	<polygon fill="#00FF00" stroke="#800080" points="266.381,996.094 265.545,1000.274 264.988,1004.037 264.727,1006.238 265.266,1008.496 268.471,1008.356 
		271.536,1008.217 274.601,1007.799 277.876,1007.007 280.88,1006.274 283.774,1005.395 286.997,1004.26 289.649,1003.34 
		292.436,1002.643 294.763,1002.209 297.871,1001.807 300.518,999.995 302.747,997.627 304.28,994.841 305.813,992.331 
		306.789,989.964 307.904,987.316 308.879,984.67 309.158,981.047 309.297,977.981 308.879,974.777 308.183,972.131 306.65,969.761 
		304.838,967.532 303.166,965.72 301.076,964.188 298.707,962.795 296.199,961.818 293.97,960.982 291.183,960.425 288.257,960.425 
		285.47,960.982 282.823,962.096 280.315,963.49 277.668,965.859 275.439,968.646 273.349,972.13 271.677,975.473 270.144,978.956 
		268.89,983.415 268.054,986.898 267.218,991.218 	"/>
	<polygon fill="#00FF00" stroke="#800080" points="53.752,107.877 49.677,110.323 45.438,110.486 42.34,109.997 38.754,106.247 
		37.287,103.313 37.124,100.215 40.058,96.791 45.927,93.042 49.514,90.76 51.959,89.618 54.894,89.618 58.969,89.944 
		61.741,90.923 63.371,92.553 63.045,95.813 60.926,99.074 57.502,101.519 56.198,103.476 55.057,106.247 	"/>
</g>
<path fill="#00FF00" stroke="#800080" d="M-61.02,51.306"/>
</svg>
