<?xml version="1.0" encoding="utf-8"?>
<!-- Generator: Adobe Illustrator 16.0.5, SVG Export Plug-In . SVG Version: 6.00 Build 0)  -->
<!DOCTYPE svg PUBLIC "-//W3C//DTD SVG 1.1//EN" "http://www.w3.org/Graphics/SVG/1.1/DTD/svg11.dtd">
<svg version="1.1" id="Layer_1" xmlns="http://www.w3.org/2000/svg" xmlns:xlink="http://www.w3.org/1999/xlink" x="0px" y="0px"
	 width="1280px" height="1024px" viewBox="0 0 1280 1024" enable-background="new 0 0 1280 1024" xml:space="preserve">
<g id="Raw_image">
	
		<image overflow="visible" enable-background="new    " width="1280" height="1024" xlink:href="otherspecimen_0.jpg"  transform="matrix(1 0 0 1 0 -2.441406e-004)">
	</image>
</g>
<g id="Not_annotated" display="none" opacity="0.5">
</g>
<g id="Clumps" display="none" opacity="0.5">
</g>
<g id="Single_nuclei" opacity="0.2">
	<polygon fill="#00FF00" stroke="#800080" points="0.171,211.578 6.356,216.419 9.987,224.487 12.542,231.345 12.677,239.01 
		10.66,247.616 8.643,253.13 6.087,256.491 3.533,259.046 0.305,261.063 	"/>
	<polygon fill="#00FF00" stroke="#800080" points="227.122,417.964 246.599,413.678 277.762,412.315 298.213,412.12 
		320.223,415.821 342.427,422.833 355.087,431.208 361.709,438.22 365.994,451.659 367.163,465.683 364.046,478.343 
		357.229,489.055 348.854,497.625 337.168,504.443 325.676,509.701 307.952,513.402 293.539,512.817 276.983,510.87 
		261.596,507.364 246.209,503.079 231.601,495.288 221.278,486.718 209.787,472.889 202.97,460.229 202.385,448.348 
		206.086,435.883 212.514,425.755 220.499,420.885 	"/>
	<polygon fill="#00FF00" stroke="#800080" points="317.847,549.552 327.195,548.85 342.154,551.188 355.71,555.161 370.201,564.043 
		382.822,572.925 392.171,583.209 398.716,593.259 399.651,602.842 397.313,607.75 388.432,614.06 377.447,618.267 370.435,620.371 
		360.151,620.137 352.905,620.137 346.361,621.306 340.284,622.474 336.544,625.747 334.208,634.161 332.571,641.874 
		328.832,647.718 324.157,656.365 318.548,663.143 311.536,670.388 305.926,674.362 301.953,676.232 297.512,676.232 
		291.436,672.024 286.293,667.116 277.412,650.288 272.737,643.744 268.764,635.797 267.829,630.655 267.128,622.709 
		270.634,613.827 278.814,595.83 290.5,577.599 299.148,565.913 305.693,558.433 311.302,553.759 	"/>
	<polygon fill="#00FF00" stroke="#800080" points="259.648,667.583 279.983,679.269 295.175,687.917 309.432,695.163 
		319.015,703.343 325.326,712.224 327.195,718.535 326.962,729.754 324.157,737.701 317.146,744.479 304.992,746.115 
		293.772,747.284 285.125,748.686 274.14,746.583 263.622,744.479 255.208,743.544 250.065,743.544 243.755,746.583 
		237.912,751.491 229.03,758.736 223.888,763.644 214.539,768.552 205.891,770.656 193.27,770.189 189.297,769.488 183.921,764.813 
		178.545,759.905 172.936,753.594 171.767,741.44 171.066,729.754 171.767,712.926 174.806,701.94 179.247,691.657 185.791,682.307 
		194.906,675.997 205.19,670.154 215.24,665.947 222.486,663.844 234.406,662.675 242.119,662.675 249.364,663.609 	"/>
	<polygon fill="#00FF00" stroke="#800080" points="434.402,234.076 445.049,215.72 455.696,204.339 463.406,199.566 
		476.623,194.793 487.636,193.324 492.776,191.856 496.815,190.02 501.587,183.412 505.993,171.664 517.007,157.345 
		526.186,147.433 534.997,141.559 545.644,140.09 554.455,140.09 566.57,142.66 579.42,147.433 587.13,156.611 593.004,168.36 
		597.41,186.716 598.144,194.793 592.27,215.353 581.99,235.545 569.875,255.738 561.063,269.689 551.885,277.398 540.137,284.007 
		528.755,288.045 518.476,293.185 505.626,297.958 492.409,299.427 481.028,299.427 469.647,298.325 457.164,290.982 446.15,281.07 
		435.503,264.916 432.199,252.801 433.301,242.154 	"/>
	<polygon fill="#00FF00" stroke="#800080" points="545.884,821.227 567.686,801.969 584.038,792.157 599.663,790.704 
		614.924,795.064 627.279,803.785 634.91,822.68 638.543,840.486 637.817,861.198 635.637,878.64 632.003,889.904 620.012,901.169 
		609.474,913.523 602.933,919.701 597.482,925.515 592.032,927.695 585.854,930.602 582.584,942.594 578.224,953.132 
		574.227,968.029 567.323,976.023 556.058,980.748 543.704,980.02 530.985,976.751 513.907,967.302 501.552,958.219 
		493.558,945.864 484.11,930.239 477.933,914.251 475.026,895.355 480.84,879.367 496.465,860.108 512.454,848.844 524.445,839.396 
		536.436,831.038 541.523,826.677 	"/>
	<polygon fill="#00FF00" stroke="#800080" points="591.986,577.961 601.911,571.675 611.34,568.201 621.431,566.051 
		629.537,566.051 640.124,568.862 647.567,572.502 656.335,580.111 664.771,591.194 669.072,604.097 670.23,617.496 
		668.245,630.895 664.605,642.309 659.644,651.573 653.191,661.002 644.755,668.776 634.996,673.408 624.078,674.731 
		612.995,674.07 601.084,670.099 593.64,665.965 585.369,656.701 577.76,644.294 573.625,634.534 571.805,621.301 572.466,610.218 
		575.444,598.803 580.241,590.202 586.196,583.42 	"/>
	<polygon fill="#00FF00" stroke="#800080" points="762.231,411.14 753.869,410.061 744.785,406.879 733.913,398.724 
		725.456,388.455 718.207,374.562 714.583,364.595 713.677,355.233 716.999,345.87 719.718,340.132 717.905,332.883 
		714.583,322.615 712.469,309.929 713.677,294.224 716.396,283.955 722.738,277.009 731.799,273.989 742.369,274.593 
		755.055,277.613 772.874,293.62 780.727,302.983 796.13,319.292 807.002,331.675 812.137,338.924 818.781,344.36 824.218,352.817 
		824.218,359.159 823.613,367.012 819.688,373.354 794.016,392.986 777.338,403.047 769.245,407.903 	"/>
	<polygon fill="#00FF00" stroke="#800080" points="1157.156,666.11 1143.949,671.099 1134.265,672.86 1120.765,669.925 
		1108.145,666.99 1096.404,661.414 1090.535,656.132 1081.144,643.218 1075.86,634.413 1072.045,621.793 1072.045,603.303 
		1076.154,587.749 1085.252,574.542 1094.644,563.389 1104.916,556.052 1117.242,551.649 1131.036,548.422 1138.373,547.834 
		1150.406,551.062 1159.505,555.465 1168.603,561.922 1177.113,571.607 1184.157,580.411 1188.854,594.499 1190.614,607.706 
		1186.506,630.01 1180.342,641.457 1171.831,651.729 1164.787,659.066 	"/>
	<polygon fill="#00FF00" stroke="#800080" points="1191.833,925.5 1181.833,934.5 1169.167,941.833 1155.5,948.5 1132.5,952.5 
		1118.5,953.5 1105.167,952.833 1087.5,950.167 1073.5,944.5 1063.833,936.5 1055.167,923.833 1052.5,908.5 1057.5,891.167 
		1064.5,884.167 1076.833,876.167 1085.167,873.5 1099.167,870.167 1111.5,867.833 1121.5,867.833 1127.833,869.5 1132.833,871.167 
		1139.167,870.5 1144.167,867.5 1150.5,864.5 1160.833,859.5 1170.167,855.833 1181.5,855.167 1190.5,857.833 1195.833,862.167 
		1201.5,867.833 1203.5,874.167 1204.833,881.5 1204.833,892.167 1203.5,902.5 1200.833,912.167 1196.833,918.833 	"/>
	<polygon fill="#00FF00" stroke="#800080" points="1091.833,1022.833 1091.5,1011.833 1095.167,1000.5 1105.167,989.167 
		1118.5,981.833 1136.167,975.833 1151.833,972.833 1170.833,973.5 1185.833,974.833 1203.167,980.167 1223.167,987.167 
		1239.5,998.167 1248.833,1006.5 1256.167,1013.833 1261.5,1019.833 1264.5,1023.167 	"/>
	<polygon fill="#00FF00" stroke="#800080" points="846.607,-0.001 848.632,13.492 851.341,23.749 855.599,34.393 861.404,44.456 
		870.113,53.165 879.209,59.358 887.337,62.648 894.497,64.196 903.012,62.454 908.237,60.325 918.107,55.1 926.235,48.326 
		929.719,44.456 934.557,37.683 938.427,29.748 941.33,21.233 943.846,11.557 944.62,5.945 944.813,1.881 944.813,0.333 	"/>
	<polygon fill="#00FF00" stroke="#800080" points="1127.679,55.977 1116.921,68.229 1107.656,79.584 1097.197,88.25 1088.531,96.02 
		1084.348,102.295 1080.164,114.547 1077.176,122.914 1070.004,135.167 1064.027,144.132 1054.764,155.487 1046.098,164.153 
		1033.547,175.21 1020.398,185.071 1005.158,192.542 997.389,196.427 983.045,200.909 969.598,205.69 958.242,209.575 
		944.197,213.46 930.152,214.057 922.383,213.161 913.418,207.184 908.039,200.012 904.752,187.163 905.35,177.003 908.637,167.141 
		913.717,155.786 916.705,149.809 923.279,143.833 935.531,136.063 950.174,127.397 962.725,121.719 968.701,120.524 
		978.563,116.938 988.424,113.352 997.688,108.869 1004.262,104.686 1012.33,97.215 1019.502,87.354 1025.18,72.114 
		1029.064,58.666 1036.236,41.633 1042.213,27.887 1047.592,18.623 1054.764,7.865 1059.844,2.487 1062.234,0.096 1130.667,0 
		1133.058,9.957 1136.046,18.623 1136.644,28.485 1135.448,37.748 1134.253,44.621 1130.069,51.793 	"/>
	<polygon fill="#00FF00" stroke="#800080" points="1279.976,527.224 1274.165,525.772 1266.54,521.233 1260.186,516.149 
		1256.372,511.066 1251.833,504.348 1248.747,497.812 1246.568,490.913 1246.568,486.555 1247.839,477.84 1250.926,466.584 
		1254.012,459.139 1258.732,450.788 1262.728,443.888 1265.995,439.349 1269.989,435.355 1273.983,431.724 1277.07,430.271 
		1280,429.364 	"/>
	<polygon fill="#00FF00" stroke="#800080" points="0.506,433.588 4.705,432.134 7.612,430.519 10.196,429.065 17.464,430.034 28.931,437.625 46.051,444.570 57.680,447.477 73.831,449.577 89.498,447.316 102.903,442.794 117.762,437.626 131.328,429.389 138.919,421.637 145.864,407.908 149.902,393.211 153.455,381.905 156.847,371.569 156.847,364.624 156.524,361.394 153.778,359.294 145.379,358.002 135.689,358.164 126.160,360.748 123.091,362.363 118.892,366.562 115.985,371.892 111.947,375.445 105.325,378.029 98.542,374.153 92.243,366.885 84.491,361.878 76.900,360.263 70.601,356.710 65.594,352.672 59.618,351.057 52.512,352.511 46.698,354.933 42.660,358.325 36.523,360.263 29.740,361.878 22.472,364.462 15.850,367.046 10.520,368.177 5.029,371.084 0.184,372.699 0.506,433.588"/>
<polygon fill="#00FF00" stroke="#800080" points="188.670,539.425 195.684,535.126 200.662,530.827 207.224,527.886 217.405,527.886 227.134,530.601 236.637,535.126 243.651,541.687 247.950,553.453 250.439,566.349 250.666,585.807 245.009,598.703 232.339,608.658 221.253,613.862 210.393,619.292 200.890,621.781 189.125,622.460 178.717,622.912 166.273,620.649 148.851,612.051 136.181,603.906 119.890,589.878 106.541,574.267 96.586,559.787 91.835,545.985 94.098,538.293 100.433,527.886 111.067,521.098 123.963,518.610 135.728,518.383 150.887,519.967 159.711,522.908 167.857,526.528 173.739,529.922 176.454,532.637 180.526,535.578 182.336,537.614 183.920,538.746 185.504,539.650 187.314,540.103 188.670,539.425"/>
<polygon fill="#00FF00" stroke="#800080" points="795.224,456.713 787.673,457.015 778.612,455.203 771.363,453.089 766.833,450.069 765.323,446.444 766.833,441.914 768.344,436.477 767.438,428.927 768.344,422.282 770.156,417.449 777.707,410.200 788.882,405.066 801.568,400.233 808.213,396.608 816.066,393.286 820.596,392.682 826.334,392.380 831.468,394.192 834.790,399.930 836.603,406.575 836.905,417.146 833.885,431.945 830.563,438.590 823.314,446.745 812.139,452.483 803.380,455.201 795.224,456.713"/>
<polygon fill="#00FF00" stroke="#800080" points="852.306,544.903 845.964,550.943 839.319,555.473 829.956,556.077 822.405,553.963 815.459,553.963 805.794,556.682 795.525,559.098 785.558,560.004 776.800,560.004 766.230,557.587 760.492,554.567 752.941,547.922 750.827,539.767 752.337,527.686 757.170,518.928 762.304,509.867 774.687,495.068 782.540,486.913 789.789,479.664 798.246,473.623 807.608,469.093 817.877,466.073 825.126,462.751 832.677,460.939 837.509,460.637 844.757,460.939 852.006,463.355 858.046,466.677 864.087,471.811 866.805,478.154 865.899,489.631 863.786,495.068 861.973,498.693 860.765,501.714 859.254,508.358 859.557,511.680 858.953,518.626 859.859,526.479 858.046,536.144 856.234,539.466 852.306,544.903"/>
<polygon fill="#00FF00" stroke="#800080" points="706.695,708.769 721.476,691.032 735.961,678.911 754.290,668.860 767.297,662.356 782.670,660.287 793.903,660.287 806.319,663.539 821.691,669.156 835.290,677.433 843.863,682.458 851.844,686.006 855.983,689.849 858.644,694.578 861.008,701.082 862.487,712.020 861.008,723.549 857.165,734.487 855.687,743.947 852.139,753.111 844.748,764.936 836.175,776.465 824.942,780.900 816.961,782.083 810.753,783.856 808.684,787.108 807.501,797.751 804.249,810.758 799.814,817.853 791.241,824.949 782.077,829.974 769.663,835.000 760.499,836.478 749.266,837.957 738.918,837.366 728.276,831.158 717.338,821.402 705.513,810.464 696.941,795.388 692.211,777.651 692.507,759.618 696.646,738.629 701.671,721.778 706.695,708.769"/>
<polygon fill="#00FF00" stroke="#800080" points="968.112,633.282 963.924,634.678 959.038,634.213 941.821,620.719 922.744,598.384 904.364,577.212 891.568,563.718 885.053,557.902 881.563,553.249 882.261,548.597 888.543,539.290 896.453,529.983 908.783,521.376 921.346,515.094 929.954,512.768 943.914,512.302 948.566,512.302 957.873,513.931 961.130,516.257 965.551,518.817 967.877,523.237 969.040,528.589 968.343,532.312 968.808,533.243 972.298,533.708 978.114,532.545 985.326,531.382 996.494,531.150 1006.963,533.941 1015.339,537.897 1021.388,543.480 1026.972,553.019 1029.996,563.256 1030.228,576.284 1028.134,586.754 1024.411,593.733 1016.036,603.504 1006.729,611.880 995.562,619.557 983.231,626.304 968.112,633.282"/>
<polygon fill="#00FF00" stroke="#800080" points="1078.207,731.852 1074.978,748.873 1068.521,764.135 1061.478,775.581 1053.847,781.450 1045.922,783.799 1035.943,781.450 1029.780,776.755 1024.204,766.190 1022.736,756.504 1022.443,744.471 1020.095,738.015 1013.051,734.493 998.963,729.504 991.920,725.396 984.876,723.341 974.604,719.526 962.572,709.841 954.060,696.927 950.831,683.133 952.592,670.514 956.407,664.057 964.919,657.894 974.898,655.545 986.637,653.197 998.083,651.730 1008.941,651.436 1021.561,654.371 1033.888,659.360 1047.095,668.165 1061.182,682.253 1068.226,691.938 1073.508,704.265 1076.444,716.591 1078.207,731.852"/>
<polygon fill="#00FF00" stroke="#800080" points="955.167,1023.167 961.833,1012.500 971.500,999.500 979.833,990.833 989.833,984.167 998.833,978.833 1010.833,975.500 1023.167,974.833 1035.833,976.167 1046.500,981.500 1055.833,990.500 1062.833,998.500 1067.833,1008.167 1069.500,1015.167 1068.833,1023.500 955.167,1023.167"/>
<polygon fill="#00FF00" stroke="#800080" points="968.598,365.550 954.571,372.294 938.925,377.689 925.437,380.926 913.568,383.084 905.745,382.814 898.731,378.768 893.606,371.485 889.559,361.774 887.941,349.095 889.290,338.574 893.066,327.513 893.876,319.690 894.146,311.058 896.574,300.267 898.463,294.062 902.510,289.476 908.174,287.588 916.807,285.700 925.169,285.160 935.420,285.160 942.164,285.160 949.718,285.969 955.653,287.588 962.397,290.286 968.061,292.714 974.805,297.839 982.359,303.774 987.484,308.360 990.991,313.216 993.419,321.039 993.419,329.671 992.610,338.573 989.103,347.205 982.359,355.298 975.345,361.233 968.598,365.550"/>
<polygon fill="#00FF00" stroke="#800080" points="863.931,200.999 857.187,209.092 847.746,214.757 838.844,218.803 827.784,221.500 812.947,221.770 800.538,220.960 790.827,219.611 783.543,217.453 776.529,213.677 773.562,208.552 773.562,199.920 776.529,185.623 779.497,175.372 784.892,155.680 792.446,133.829 794.604,124.388 798.111,110.091 800.269,96.603 802.427,87.971 804.855,82.575 808.092,77.720 813.217,73.404 820.500,70.167 826.975,68.278 834.798,68.008 841.812,68.817 850.714,72.863 856.918,79.338 861.504,89.588 866.359,108.741 870.945,121.150 874.452,134.908 877.150,141.652 878.228,148.126 878.121,155.465 876.262,161.681 875.262,166.740 873.104,172.675 871.755,178.070 870.406,185.354 867.438,192.907 863.931,200.999"/>
</g>
</svg>
