<?xml version="1.0" encoding="utf-8"?>
<!-- Generator: Adobe Illustrator 16.0.5, SVG Export Plug-In . SVG Version: 6.00 Build 0)  -->
<!DOCTYPE svg PUBLIC "-//W3C//DTD SVG 1.1//EN" "http://www.w3.org/Graphics/SVG/1.1/DTD/svg11.dtd">
<svg version="1.1" id="Layer_1" xmlns="http://www.w3.org/2000/svg" xmlns:xlink="http://www.w3.org/1999/xlink" x="0px" y="0px"
	 width="1024px" height="1024px" viewBox="0 0 1024 1024" enable-background="new 0 0 1024 1024" xml:space="preserve">
<g id="Raw_image">
	
		<image overflow="visible" enable-background="new    " width="1024" height="1024" xlink:href="otherspecimen_5.jpg"  transform="matrix(1 0 0 1 0 -2.441406e-004)">
	</image>
</g>
<g id="Not_annotated" opacity="0.5">
</g>
<g id="Clumps" display="none" opacity="0.5">
	<polygon display="inline" fill="#FF0000" stroke="#800080" points="247,1002 235,1002 225,1000 216,997 211,990 203,990 192,989 
		186,983 184,973 189,966 195,959 204,956 206,947 210,939 216,933 224,928 233,925 244,924 252,928 259,933 265,939 270,946 
		273,955 274,966 273,977 269,985 264,991 257,997 250,1001 	"/>
	<polygon display="inline" fill="#FF0000" stroke="#800080" points="908,1023 907,1014 911,1005 916,999 925,995 928,989 920,985 
		915,978 910,971 908,961 908,951 912,942 914,933 919,926 924,919 931,913 937,908 945,903 954,900 963,903 971,907 978,912 
		983,919 987,927 988,938 985,946 981,954 976,962 985,965 994,968 998,976 999,987 997,997 993,1005 988,1012 983,1018 	"/>
	<polygon display="inline" fill="#FF0000" stroke="#800080" points="1023,584 1018,592 1012,598 1006,603 997,606 986,607 975,608 
		966,605 963,609 967,617 969,627 969,639 966,648 962,656 956,661 948,665 938,667 927,666 918,663 911,658 905,652 898,647 
		892,641 887,634 884,625 882,615 884,605 886,595 892,588 900,584 908,581 918,578 929,579 938,580 938,571 940,560 943,552 
		949,546 957,541 965,537 973,533 982,530 993,531 1002,534 1009,539 1017,543 1020,552 	"/>
</g>
<g id="Single_nuclei" opacity="0.5">
	<polygon fill="#00FF00" stroke="#800080" points="148.865,763.135 138.637,759.104 132,756 126.551,750.427 120.972,744.538 
		116.633,738.341 112.294,727.492 111,719 114,710 117.872,700.219 122.212,693.712 131.199,691.85 137.708,692.78 143.596,692.78 
		152.274,692.47 145.456,687.511 137.398,685.032 130.579,681.313 125.311,676.664 119.112,672.325 112.914,667.056 108,662 
		102,656 98,648 96,638 92.149,627.696 91.529,618.091 96,611 100,604 106,598 114,593 123,590 133.678,590.195 143,590 153,590 
		163,592 171,596 178,601 185,606 191,612 197,618 202,625 206,633 210,641 214,649 216,659 214,669 209.92,674.495 
		204.651,677.904 204.031,683.175 207.441,686.582 209.3,691.85 209.3,697.119 208.99,704.557 208.06,712.615 206,721 202,729 
		197,736 192,742 185,747 176,750 170,756 164.051,762.203 156.303,763.135 	"/>
	<polygon fill="#00FF00" stroke="#800080" points="203.869,929.619 197,929 188.427,926.381 180,922 172.986,916.468 167,911 
		160.785,904.839 155.066,897.973 151,891 147,883 141.15,873.953 138,868 134,860 130,852 126.47,844.217 123,835 122,824 121,813 
		123,803 128,795 135,790 146,789 156,791 163,796 167.839,801.702 173.558,807.993 179,816 184,823 190.143,830.107 
		194.719,836.209 201,842 207,848 212,855 217.023,861.943 222,869 227,876 231,884 234,893 234,905 232,914 227,922 
		218.929,926.569 211,929 	"/>
	<polygon fill="#00FF00" stroke="#800080" points="275.666,148.949 268.186,148.51 259.826,146.309 253.447,141.469 249.707,133.99 
		250,122 251,112 251.906,101.211 252.567,91.971 254.987,84.931 260.047,77.451 267,71 273,65 279,60 287.765,57.872 
		295.685,59.632 299.865,63.812 306.245,66.012 313.285,64.472 321.865,66.232 327,71 329,81 328.244,91.751 326.484,102.531 
		322.744,110.671 318.565,118.15 313.285,124.09 306.465,130.47 301.845,135.75 296,141 288,146 281.826,148.069 	"/>
	<polygon fill="#00FF00" stroke="#800080" points="332,937 320,937 309,936 300,933 294,927 288.708,921.297 284,913 
		279.888,903.653 279,894 278,883 279,874 282,864 285,856 289,848 295,842 302,836 310,832 317.471,827.528 322,822 330,818 
		338,814 347,812 358,810 367,813 374,818 380,824 385,831 388,840 391,849 393,859 396,868 396.472,878.725 394,887 390,896 
		386,904 381,911 376,917 369,922 362,927 353,930 344,933 335,936 	"/>
	<polygon fill="#00FF00" stroke="#800080" points="533,297 521,297 511,295 503,291 495,287 489,281 483,275 479,267 475,259 
		471,251 467,243 463,235 461,227 460,216 459,205 459,195 457,185 458,174 461,165 464,156 467,148 469,141 470,132 472,122 
		476,114 481,106 485,99 488.87,90.492 493,84 497.63,76.867 501,70 506.064,64.539 510,60 516,54 524,50 533,48 543,46 552,43 
		563,44 572,47 579,52 586,57 591,64 596,71 600,79 602,89 604,99 605,109 606,119 608,129 609,140 609,152 609,162 608,173 
		608,185 606,195 605,206 603,216 600.425,224.429 597,233 594,241 592.527,252.137 588.902,259.129 584.499,264.567 578.284,271.3 
		572.458,277.773 567.15,284.376 561,289 553,293 543,296 	"/>
	<polygon fill="#00FF00" stroke="#800080" points="573.612,886.423 566.269,886.237 557.824,884.219 548.462,882.75 
		536.897,881.648 526.433,881.832 518,881 511.747,879.261 506.791,875.774 502,869 498,861 495,852 490.636,843.832 488,836 
		486.597,827.129 486,817 485,806 486,796 489,788 496,782 504,778 514,776 525,777 533,781 540.569,785.823 547,791 
		553.785,796.839 559,803 564,810 569,817 574,824 579,831 583,839 586,848 587,859 586,870 583,879 578.935,884.035 	"/>
	<polygon fill="#00FF00" stroke="#800080" points="492,1024 488.115,1016.625 486,1006 487,996 490,987 494,980 497.905,970.454 
		502,964 508,957 514,952 521,946 528,942 536,937 544,933 553.335,929.971 562.992,927.593 574,927 584,929 592.891,931.957 
		599.373,937.645 604,945 607.84,952.726 608.369,960.664 607.707,967.807 606.12,975.48 605.194,980.51 602.152,988.051 
		598.05,994.798 591.303,1000.75 584.159,1006.702 576.883,1015.83 566.167,1024 	"/>
	<polygon fill="#00FF00" stroke="#800080" points="626,756 614,756 603,755 594,752 586,748 578,744 570,740 564,734 558,728 
		552,722 548,714 544,706 541,697 539,687 540,676 542,665 545,656 548,648 551,639 555,631 560,623 565,616 570,609 575,603 
		581,596 588,592 596,587 603,582 612,581 621,580 629,583 634,575 634,566 638,558 638,546 638,536 641,527 644,518 643,507 
		646,498 650,490 656,483 661,477 660.778,467.691 658.278,455.467 658.557,448.243 662.724,433.518 669.392,418.238 
		672.726,412.126 674.67,409.904 690.506,402.124 703.286,399.902 723.125,400.526 736.687,405.184 749.975,410.526 
		763.946,420.937 775.453,433.403 783.398,443.539 791.755,461.347 795.602,474.501 798.579,499.64 796.079,526.034 794,527.701 
		782.743,532.424 781.337,535.415 783.854,542.703 788,559 791,568 793,578 794,589 793,600 792,611 789,620 786,629 785,640 
		784,649 780,657 777,666 772,673 767,680 763,688 757,693 752,700 747,707 740,712 734,719 728,725 722,730 713,733 706,738 
		698,743 691,745 682,746 673,749 664,752 652,752 641,754 631,755 	"/>
	<polygon fill="#00FF00" stroke="#800080" points="873.771,971.173 867,971 857,969 850,964 845,957 840,950 837.6,940.427 836,930 
		836.479,918.561 839,909 842,899 846,891 851.637,885.578 859.905,880.497 869,878 880,879 889,882 896,887 901,894 906,901 
		909.837,908.508 910.787,919.53 909.267,929.131 907,937 903,946 899.667,953.554 895,962 889,968 880.745,970.223 	"/>
	<polygon fill="#00FF00" stroke="#800080" points="243.783,1002.76 235,1003 225,1001 217,997 213.56,993.321 211.099,988.945 
		209.184,985.526 207.406,988.398 203,991 195.92,990.449 190.176,988.261 187.031,983.885 185.116,977.731 186,973 
		188.398,968.022 190.723,963.51 195.509,960.503 201.389,958.997 204.125,960.637 205.492,957.765 205.766,951.202 
		207.817,945.868 211,939 218,933 221.766,930.415 227.372,927.954 231.748,926.177 237.492,925.082 248.022,926.589 254,929 
		261,934 266,941 271,948 273.868,956.261 275,968 274,978 270,986 264,993 258,998 251.031,1000.844 	"/>
	<polygon fill="#00FF00" stroke="#800080" points="986,609 974.042,608.584 966.498,605.867 958.652,600.233 951.811,594.198 
		946.781,588.866 943.799,585.5 941.047,581.424 939,572 940,561 944,552 950,546 957,542 965,537 974,534 984,532 994,532 
		1002,536 1010,540 1016,546 1021,553 1023,563 1022,574 1022,586 1018,594 1013,600 1005,604 996,607 	"/>
	<polygon fill="#00FF00" stroke="#800080" points="939.337,667.73 931.793,667.428 924.651,665.819 917.609,661.896 
		910.668,656.866 904.431,651.334 897.591,645.802 890.951,638.76 886.827,633.025 883,624 882.099,613.31 883.909,604.055 
		886.928,596.109 892.46,589.17 900.508,584.44 909,581 919,579 930,580 939,583 942.131,585.429 945.952,589.599 949.914,594.116 
		955.936,600.334 962.273,607.677 967,615 970,624 971,635 969,645 965.089,653.647 958.652,659.783 951.811,663.807 
		945.876,666.425 	"/>
	<polygon fill="#00FF00" stroke="#800080" points="933,990 923,988 918,981 912.294,974.604 909,966 908.624,957.277 911,947 
		914,938 917,930 922,923 927,916 934,910 941,906 949,902 956.691,900.998 964.865,903.278 974,908 980.071,914.017 985,921 
		988.149,930.177 988.243,941.296 985.298,949.372 980.736,956.69 976.839,962.868 969.712,968.896 962.917,974.4 956.734,978.41 
		947.9,983.508 941.037,987.584 	"/>
	<polygon fill="#00FF00" stroke="#800080" points="907,1024 907.875,1018.25 908.875,1012.25 911,1007.125 913.75,1003.125 
		917.375,999.875 921.875,997.75 928,995.125 935.625,991.625 942.875,988 951,983 959.125,978.375 965.5,973.875 972,968 981,965 
		991,967 997.875,972.875 1000,982 1000,992 997,1001 992.25,1008.125 986.75,1014 983.625,1018.5 980.25,1024 	"/>
	<polygon fill="#00FF00" stroke="#800080" points="753.054,315.437 756.545,311.364 759.6,308.599 764.256,304.962 766.729,302.052 
		770.803,298.852 774.149,296.669 777.204,293.469 780.405,290.414 784.478,287.649 788.552,286.777 793.207,285.758 
		798.008,285.469 802.372,286.34 805.719,288.377 809.065,290.995 812.266,293.905 814.884,296.96 817.503,299.434 820.267,302.635 
		822.449,305.835 824.341,309.908 826.086,313.255 827.396,317.037 827.687,320.82 827.104,325.039 826.086,328.385 825.069,331.44 
		825.214,334.35 825.214,337.987 824.05,340.751 823.031,343.37 820.994,345.406 818.231,346.28 815.175,346.571 813.43,348.171 
		813.284,351.371 811.538,353.263 808.774,353.699 804.991,353.263 802.081,353.117 798.299,352.972 795.244,352.972 
		791.316,353.117 787.824,353.408 784.187,352.826 780.841,351.517 777.64,350.499 774.731,348.753 771.675,346.571 768.62,343.37 
		766.147,340.169 763.965,337.842 761.928,335.223 759.891,332.168 757.564,330.276 755.963,328.385 754.217,325.621 
		753.635,322.566 752.763,319.219 	"/>
	<polygon fill="#00FF00" stroke="#800080" points="1024,996.446 1020.837,994.733 1017.814,991.81 1015.697,989.391 
		1013.681,985.967 1012.673,981.832 1012.673,978.509 1013.177,975.08 1014.084,970.644 1015.495,967.52 1017.713,965.101 
		1020.534,962.885 1024,962.278 	"/>
	<polygon fill="#00FF00" stroke="#800080" points="831.375,1024 833,1019.25 834.625,1014.5 837.125,1010 839.75,1006 
		842.875,1002.25 846.75,998.375 850.875,995.75 855.125,992.75 858.5,990.25 862.625,988.375 865.875,987.5 870.625,987 
		874.125,987.75 877.5,989 881.625,990.75 884.625,992.75 887.25,995.5 889.75,998.875 892,1001.75 893.875,1005.25 
		895.375,1009.25 895.875,1013.125 896.125,1017.125 896.5,1020.625 896.625,1024 	"/>
	<polygon fill="#00FF00" stroke="#800080" points="602.474,1024 610.175,1020.045 618.048,1018.135 624.49,1017.657 
		630.931,1019.327 637.75,1021 643.5,1021.687 649.5,1024 	"/>
	<polygon fill="#00FF00" stroke="#800080" points="310.328,1024 306.834,1020.5 303.5,1015.669 302.5,1009.834 303.5,1003 
		305,997.169 307.667,991 310.167,984.169 314,979.334 318,975.169 323,971.669 327.834,971.669 333,972.834 338.5,976 
		343.031,979.788 347.092,984.373 350.498,988.826 355.476,993.28 359.668,996.948 365.038,1000.616 369.099,1003.76 
		373.684,1007.166 376.566,1010.44 379.167,1014.169 381.334,1019.334 382.52,1024 	"/>
	<polygon points="577.686,1019.279 574.873,1020.334 571.204,1022.598 569.072,1022.796 576.883,1015.83 583.136,1008.028 
		588.585,1003.459 595.969,996.777 600.188,992.383 603,985.35 605.461,978.319 607.922,968.826 608.369,960.664 609.505,957.224 
		611.79,956.872 613.724,956.696 615.833,958.454 616.536,963.904 615.657,970.76 613.723,979.55 611.086,990.801 610.207,997.655 
		608.977,1003.105 606.867,1006.797 602.824,1009.609 591.221,1013.828 585.069,1016.113 580.147,1018.049 	"/>
</g>
</svg>
