<?xml version="1.0" encoding="utf-8"?>
<!-- Generator: Adobe Illustrator 16.0.1, SVG Export Plug-In . SVG Version: 6.00 Build 0)  -->
<!DOCTYPE svg PUBLIC "-//W3C//DTD SVG 1.1//EN" "http://www.w3.org/Graphics/SVG/1.1/DTD/svg11.dtd">
<svg version="1.1" id="Layer_1" xmlns="http://www.w3.org/2000/svg" xmlns:xlink="http://www.w3.org/1999/xlink" x="0px" y="0px"
	 width="1024px" height="1024px" viewBox="0 0 1024 1024" enable-background="new 0 0 1024 1024" xml:space="preserve">
<g id="Raw_image">
	
		<image overflow="visible" enable-background="new    " width="1024" height="1024" xlink:href="otherspecimen_8.jpg"  transform="matrix(1 0 0 1 2.441406e-004 -2.441406e-004)">
	</image>
</g>
<g id="Not_annotated" display="none" opacity="0.5">
</g>
<g id="Clumps" display="none" opacity="0.5">
	<polygon display="inline" fill="#FF0000" stroke="#800080" points="0,438 4,444 8,452 13,459 22,457 32,458 40,462 46,468 57,467 
		64,463 70,456 79,455 86,460 91,467 94,476 92,486 86,491 78,496 69,497 75,503 82,508 87,515 92,522 95,531 97,541 96,551 91,558 
		82,561 74,557 68,551 63,544 57,538 47,536 38,533 31,528 29,518 32,509 38,503 46,498 47,492 39,495 32,500 23,500 12,502 4,505 	
		"/>
	<polygon display="inline" fill="#FF0000" stroke="#800080" points="0,569 8,569 14,575 18,583 25,587 33,583 43,584 50,584 57,578 
		65,574 75,572 86,573 94,577 100,583 105,590 107,600 104,609 98,615 90,619 79,619 71,615 65,609 59,603 56,611 55,621 56,631 
		61,638 66,645 70,650 79,646 89,648 94,655 98,648 103,640 108,634 116,629 125,626 136,625 146,627 153,632 159,638 167,638 
		172,632 179,627 189,624 198,627 205,632 213,636 224,637 235,638 243,642 249,648 252,657 252,667 248,674 240,678 229,679 
		222,674 217,667 211,665 206,673 214,677 224,679 231,684 237,690 244,695 248,703 251,712 252,723 250,733 246,741 241,748 
		233,752 222,752 213,749 208,742 204,734 202,724 198,716 193,709 188,702 180,700 172,696 166,690 161,683 157,675 155,680 
		159,688 161,698 158,706 151,712 143,715 132,714 123,711 116,706 111,699 108,690 107,681 100,676 95,684 92,693 87,700 81,705 
		73,709 65,713 55,713 47,709 42,702 40,692 42,682 47,674 51,667 42,668 31,667 23,663 18,656 18,645 19,637 14,630 11,621 6,614 	
		"/>
	<polygon display="inline" fill="#FF0000" stroke="#800080" points="68,186 58,184 50,180 43,175 38,168 35,159 39,150 46,146 
		53,141 60,135 64,128 71,122 82,121 90,125 95,132 99,131 101,121 106,114 110,106 114,98 121,92 131,90 138,95 146,99 152,105 
		156,113 156,123 155,134 153,144 149,151 141,156 132,156 121,155 111,153 105,147 101,148 100,159 97,168 92,174 85,180 77,184 	
		"/>
	<polygon display="inline" fill="#FF0000" stroke="#800080" points="136,831 124,831 115,828 107,824 100,819 94,813 94,802 
		101,797 113,797 123,796 130,791 121,788 113,784 107,778 101,772 96,765 94,755 95,746 97,736 102,728 109,723 117,719 128,720 
		136,724 143,729 150,732 159,729 170,730 180,732 189,735 196,740 202,746 204,756 201,765 196,771 189,776 180,779 170,779 
		160,777 152,776 147,783 140,787 143,791 151,795 156,802 154,810 153,820 147,826 139,830 	"/>
	<polygon display="inline" fill="#FF0000" stroke="#800080" points="211,309 201,307 193,303 185,299 178,294 176,284 174,274 
		177,265 183,258 190,253 194,245 201,240 201,233 194,235 187,240 176,240 169,235 163,229 158,222 154,214 152,204 152,192 
		155,183 161,176 170,173 179,176 186,181 192,187 197,194 203,200 208,194 215,189 226,189 233,194 238,201 243,208 246,217 
		251,224 259,228 263,236 262,247 258,254 252,260 245,265 236,268 226,268 217,270 219,280 223,288 220,297 216,305 	"/>
	<polygon display="inline" fill="#FF0000" stroke="#800080" points="199,126 188,125 181,120 174,115 170,107 172,97 175,88 181,81 
		188,76 198,76 207,79 212,86 218,87 215,78 210,71 208,61 200,57 191,54 184,49 179,42 178,31 180,21 185,14 194,10 203,13 212,16 
		220,20 226,26 230,34 227,43 228,50 234,56 240,62 249,65 256,70 262,76 267,83 269,93 268,104 265,113 259,118 251,122 242,119 
		235,114 227,110 221,114 214,119 205,123 	"/>
	<polygon display="inline" fill="#FF0000" stroke="#800080" points="231,463 219,463 209,461 200,458 194,452 190,444 191,434 
		195,427 203,422 198,416 190,412 185,405 187,395 192,388 198,382 209,382 219,384 228,387 236,391 243,396 248,403 250,413 
		245,420 252,425 258,431 261,440 258,449 252,455 245,459 235,462 	"/>
	<polygon display="inline" fill="#FF0000" stroke="#800080" points="221,553 209,553 199,551 194,544 191,535 190,524 189,513 
		189,501 192,492 199,486 210,485 218,486 218,475 223,468 232,465 242,465 250,461 257,456 267,454 276,457 283,462 288,469 
		290,479 289,490 286,498 279,503 269,503 261,499 251,497 241,499 232,501 238,507 242,515 245,524 247,534 244,543 238,548 
		228,550 	"/>
	<polygon display="inline" fill="#FF0000" stroke="#800080" points="315,829 304,828 296,824 291,817 284,818 275,821 267,817 
		261,811 257,803 254,794 251,785 252,774 257,766 262,759 266,752 270,744 272,736 269,727 272,718 278,712 287,708 297,707 
		307,707 307,697 309,687 314,680 320,674 330,671 340,673 347,678 351,686 351,696 350,706 347,715 346,723 352,729 358,735 
		368,737 374,743 377,752 375,762 375,774 372,782 366,788 357,791 347,789 337,792 336,803 332,811 328,818 322,825 	"/>
	<polygon display="inline" fill="#FF0000" stroke="#800080" points="300,602 290,600 283,595 279,587 274,580 269,573 263,567 
		261,558 264,550 272,545 282,543 291,545 289,537 289,526 293,519 299,513 296,504 301,496 311,494 318,499 323,506 324,517 
		327,526 335,530 342,535 343,546 340,554 334,560 326,564 315,566 317,576 315,586 311,594 305,599 	"/>
	<polygon display="inline" fill="#FF0000" stroke="#800080" points="306,980 295,979 286,976 282,968 281,957 281,945 281,933 
		285,924 293,920 303,920 306,912 308,902 304,894 308,887 312,880 322,879 331,882 337,888 340,897 343,899 345,889 351,882 
		361,880 371,882 378,887 384,893 391,898 396,905 401,912 403,922 403,933 399,941 393,947 385,951 375,953 366,950 359,945 
		354,938 348,936 345,944 350,951 348,961 343,967 335,971 326,974 317,977 307,979 	"/>
	<polygon display="inline" fill="#FF0000" stroke="#800080" points="459,548 447,548 437,546 429,542 420,539 412,535 405,530 
		401,522 402,513 408,506 415,501 420,495 426,489 434,484 443,483 451,487 459,486 467,481 476,478 484,474 493,473 501,477 
		506,484 505,495 502,504 495,509 486,511 476,511 469,506 468,514 472,522 472,534 468,542 461,547 	"/>
	<polygon display="inline" fill="#FF0000" stroke="#800080" points="452,225 441,224 432,221 425,216 419,210 413,204 409,196 
		408,185 411,175 417,169 425,165 435,165 444,164 448,157 455,151 463,148 473,145 483,145 489,140 489,130 495,123 505,121 
		515,123 525,125 536,126 543,131 546,140 547,151 544,160 539,167 533,172 523,174 514,171 507,174 501,180 493,184 485,188 
		478,194 477,205 473,213 468,219 460,223 	"/>
	<polygon display="inline" fill="#FF0000" stroke="#800080" points="552,444 542,442 536,436 534,426 536,416 539,406 543,398 
		547,391 554,385 561,381 562,376 553,373 546,368 542,360 542,348 538,347 532,352 524,356 512,356 504,352 496,348 492,357 
		487,363 477,365 468,364 461,359 456,352 455,342 457,333 458,322 460,311 465,304 474,303 480,298 484,289 490,283 498,280 
		509,280 518,283 526,287 532,293 537,300 542,307 546,315 548,325 551,331 558,325 567,322 576,325 582,331 587,338 592,345 
		596,353 595,364 590,371 584,377 593,380 599,386 600,397 597,405 592,412 586,419 580,424 573,430 567,435 560,440 	"/>
	<polygon display="inline" fill="#FF0000" stroke="#800080" points="693,815 681,815 673,811 669,803 671,793 670,786 659,785 
		651,781 645,775 640,768 639,757 642,748 635,745 626,742 621,735 615,735 607,739 596,738 588,734 582,728 578,720 576,710 
		580,702 588,697 598,695 609,696 620,695 617,689 614,680 611,671 607,663 606,652 597,653 588,656 577,657 568,654 561,649 
		555,643 551,635 549,625 551,614 555,607 561,601 570,597 580,597 590,599 599,602 608,605 616,609 623,614 628,621 628,631 
		636,633 647,632 656,635 665,638 671,644 676,651 678,661 676,670 671,678 677,684 684,689 687,698 686,709 680,715 674,720 
		666,725 660,730 663,736 674,737 684,739 689,733 692,723 695,715 699,706 706,701 716,701 724,705 731,710 735,718 737,728 
		736,737 731,743 723,748 726,753 732,759 736,767 736,778 731,786 724,791 717,795 710,800 704,807 698,812 	"/>
	<polygon display="inline" fill="#FF0000" stroke="#800080" points="577,251 567,249 562,242 560,234 558,226 561,216 569,214 
		578,215 588,215 592,223 590,233 588,242 582,248 	"/>
	<polygon display="inline" fill="#FF0000" stroke="#800080" points="709,997 699,995 691,991 685,985 682,976 682,966 685,956 
		689,949 696,943 700,936 689,937 680,938 674,944 664,946 654,944 643,943 636,938 628,934 622,928 619,919 625,912 631,906 
		639,902 649,900 661,900 670,903 677,901 684,895 690,890 687,881 687,869 691,860 695,853 702,847 702,840 702,828 706,820 
		713,814 721,810 730,807 740,807 748,811 751,809 753,799 759,793 769,790 777,794 785,798 790,805 794,813 798,821 800,831 
		801,842 798,851 793,858 786,863 777,863 769,859 765,851 763,841 759,842 757,852 752,858 742,860 732,858 724,859 727,868 
		731,876 735,884 734,894 728,900 719,903 717,913 715,923 720,927 732,927 739,932 744,939 745,950 742,959 739,967 734,974 
		727,980 721,986 716,993 	"/>
	<polygon display="inline" fill="#FF0000" stroke="#800080" points="728,537 717,536 709,532 702,527 696,521 691,514 688,505 
		690,495 696,488 703,483 711,479 721,477 730,479 726,471 722,463 718,455 717,444 720,435 725,428 733,423 742,420 752,422 
		759,427 764,434 769,441 772,450 774,460 773,470 769,479 765,486 756,489 747,486 739,487 745,493 750,500 752,510 750,520 
		745,527 739,532 730,536 	"/>
	<polygon display="inline" fill="#FF0000" stroke="#800080" points="741,616 730,615 723,610 717,604 712,597 708,589 704,581 
		700,573 698,563 701,554 708,549 718,548 726,552 733,557 738,553 742,545 747,538 753,532 761,527 771,527 781,529 789,533 
		790,529 784,523 783,512 789,506 797,501 808,500 816,504 825,507 833,511 839,517 844,524 846,534 842,542 836,548 829,552 
		819,552 811,551 810,560 804,566 797,570 791,576 785,583 779,588 770,591 760,589 751,586 746,590 749,599 749,609 743,615 	"/>
	<polygon display="inline" fill="#FF0000" stroke="#800080" points="962,0 963,8 958,16 951,20 941,22 932,19 924,15 917,10 908,7 
		900,3 896,12 892,20 888,28 882,33 873,30 864,27 853,28 844,32 835,32 827,30 820,36 812,39 803,38 796,33 789,32 782,37 772,39 
		762,37 755,32 754,23 757,13 756,3 	"/>
	<polygon display="inline" fill="#FF0000" stroke="#800080" points="817,487 805,487 795,485 788,480 786,470 789,460 794,454 
		795,445 792,436 786,430 779,425 775,417 774,406 768,400 759,397 755,389 756,378 760,370 764,362 769,355 775,348 784,347 
		792,351 799,356 809,358 818,361 825,366 829,374 830,385 827,393 821,399 814,405 816,415 817,426 821,434 822,445 830,449 
		839,452 844,459 848,467 846,477 839,481 830,480 822,484 	"/>
	<polygon display="inline" fill="#FF0000" stroke="#800080" points="905,179 894,178 885,175 881,167 882,156 881,145 877,138 
		875,148 871,156 865,161 855,163 845,161 837,157 830,152 824,146 823,135 827,126 832,120 840,116 850,113 858,117 860,112 
		859,103 854,96 849,101 844,108 836,112 828,116 818,118 811,123 803,128 792,128 784,124 778,118 774,110 774,100 778,92 785,86 
		794,85 803,88 813,88 820,83 826,78 833,73 843,72 849,78 854,72 860,65 868,61 879,60 889,62 900,61 909,62 915,68 918,77 916,86 
		912,94 907,102 902,109 906,117 910,125 915,132 919,140 917,149 915,160 913,170 909,177 	"/>
	<polygon display="inline" fill="#FF0000" stroke="#800080" points="881,918 870,917 862,913 856,907 850,901 845,894 842,885 
		840,875 837,866 836,855 832,847 830,837 833,828 831,824 820,825 811,822 805,816 802,807 798,799 798,789 803,781 809,776 
		819,773 829,775 839,777 848,780 853,787 856,796 858,806 866,807 876,808 885,811 892,816 898,822 903,829 908,836 912,844 
		915,853 915,865 915,877 913,887 910,896 907,904 901,911 893,915 884,917 	"/>
	<polygon display="inline" fill="#FF0000" stroke="#800080" points="893,637 882,636 876,630 872,622 870,612 869,601 861,600 
		850,600 840,598 834,592 827,587 824,578 828,570 833,563 840,557 847,553 857,552 866,555 872,561 877,568 884,568 892,563 
		901,560 911,562 918,567 924,573 927,582 929,592 927,602 924,611 919,618 914,624 907,630 900,634 	"/>
	<polygon display="inline" fill="#FF0000" stroke="#800080" points="948,820 936,820 926,818 917,815 910,810 902,806 894,802 
		887,797 882,790 878,782 877,771 881,763 887,757 894,751 902,747 910,743 918,739 926,735 934,732 944,729 954,729 963,732 
		972,735 983,736 992,739 998,745 1002,753 1002,765 1003,775 999,783 993,790 986,795 980,800 975,808 968,813 960,817 951,819 	
		"/>
	<polygon display="inline" fill="#FF0000" stroke="#800080" points="982,682 972,680 967,673 962,666 962,654 965,645 969,637 
		968,634 962,641 955,645 946,644 940,638 943,628 947,621 947,611 945,601 943,591 947,582 954,578 964,575 975,576 983,580 
		989,586 989,598 986,607 983,616 981,622 989,618 998,619 1005,624 1009,632 1011,642 1007,650 1001,655 995,661 991,669 988,678 	
		"/>
	<polygon display="inline" fill="#FF0000" stroke="#800080" points="489,0 494,7 497,16 503,18 510,14 520,11 529,14 535,20 540,27 
		542,37 539,46 534,52 525,56 518,60 512,66 505,72 496,72 488,68 483,61 480,52 471,49 467,41 465,31 463,21 458,14 452,8 444,4 	
		"/>
	<polygon display="inline" fill="#FF0000" stroke="#800080" points="409,994 399,992 394,985 395,973 400,966 406,961 413,956 
		419,950 423,942 418,935 420,925 421,914 425,905 431,899 441,897 452,898 460,902 467,907 471,915 471,925 467,933 460,937 
		458,944 461,953 459,963 455,970 449,976 441,980 432,983 422,985 414,990 	"/>
	<polygon display="inline" fill="#FF0000" stroke="#800080" points="679,431 669,429 662,424 657,417 653,409 647,403 642,396 
		640,386 643,377 649,371 658,367 668,369 676,373 680,366 686,359 695,356 704,357 712,361 719,366 723,374 724,385 726,395 
		726,407 721,414 714,419 704,420 695,417 690,424 683,429 	"/>
</g>
<g id="Single_nuclei" opacity="0.3">
	<polygon fill="#00FF00" stroke="#800080" points="0,101.278 4.523,100.7 10,100 15.214,100.419 19,103 22.144,106.095 24,110 
		25.312,115.797 25,121 20.428,128.007 14,134 10.674,137.326 8,140 3.783,142.445 0,144.638 	"/>
	<polygon fill="#00FF00" stroke="#800080" points="0,173.192 8,177 14,183 16.943,186.942 18.962,191.654 19.346,197.712 
		17.808,204.635 16,211 13,219 11.151,222.7 9,227 5.019,232.519 -0.077,236.654 	"/>
	<polygon fill="#00FF00" stroke="#800080" points="-0.046,364.18 6.898,359.925 16,357 28,356 36,360 42,366 46,374 47,385 49,395 
		50,406 47,414 41,420 30.88,422.328 20.88,420.328 16,415 13,406 8.018,400.693 -0.159,396.591 	"/>
	<polygon fill="#00FF00" stroke="#800080" points="139.016,0.636 143,8 143,19 140,28 134,35 128,41 122,47 116,53 110,58 100,60 
		92,56 88,48 87,37 89,27 93,19 98,11 105.707,0.636 	"/>
	<polygon fill="#00FF00" stroke="#800080" points="152,622 141,621 134,616 129,609 128,598 133,590 140,585 148,581 159,580 
		167,584 172,591 175,600 171,608 165,613 158,619 	"/>
	<polygon fill="#00FF00" stroke="#800080" points="159,99 150,96 143,91 138,84 135,75 137,64 143,58 152,55 160,51 168,47 177,50 
		182,57 183,68 180,77 176,85 171,91 165,97 	"/>
	<polygon fill="#00FF00" stroke="#800080" points="219,171 208,170 202,164 198,156 200,145 204,138 210,132 217,127 224,122 
		234,119 241,124 244,133 244,145 239,152 235,159 229,166 221,170 	"/>
	<polygon fill="#00FF00" stroke="#800080" points="287,188 275,188 267,184 261,178 257,170 252,163 249,154 251,144 255,135 
		261,130 270,126 279,129 284,136 288,144 293,151 299,157 303,165 302,176 297,183 290,187 	"/>
	<polygon fill="#00FF00" stroke="#800080" points="296.653,0 293,9 288,17 283,23 279.191,26.014 275,28 270.623,28.957 265,29 
		260.289,27.91 256,26 253.03,23.005 251,19 250.544,15.222 251.656,11.036 253.16,7.243 254.796,3.449 256.888,0.049 	"/>
	<polygon fill="#00FF00" stroke="#800080" points="286,418 275,417 267,413 262,406 261.334,400.833 262,396 267,389 275,384 
		285,382 289.448,383.482 294,385 298.049,383.651 303,382 314,383 321,388 324.834,391.5 327.5,395.5 329.834,401.667 329,406.333 
		326,411 319,415 309,417 304,415.333 298.667,412.833 295.5,410.667 292,415 	"/>
	<polygon fill="#00FF00" stroke="#800080" points="298,671 287,670 279,666 274,659 269,652 274,644 282,640 291,641 301,643 
		307,649 312,656 311,667 304,669 	"/>
	<polygon fill="#00FF00" stroke="#800080" points="353,503 342,502 333,499 324,496 318,490 312,484 307,477 307,467 311,459.329 
		317.667,452.996 327,450 337.5,449.496 345,454 351,460 356,467 359,476 361,486 361,495 355,502 	"/>
	<polygon fill="#00FF00" stroke="#800080" points="347,881 335,881 326,878 319,873 313,867 308,860 307,850 310,841 316,835 
		324,831 334,829 345,830 352,835 357,842 362,849 364,859 364.084,866.212 358,876 350,880 	"/>
	<polygon fill="#00FF00" stroke="#800080" points="348.519,133.253 339.147,132.287 333,128 327,122 321.177,114.606 
		317.988,106.973 318.858,98.374 323.109,87.649 329.389,79.92 338.761,76.442 347,77 356,80 364,84 368.23,90.644 370.838,100.983 
		372,112 370,121 364.461,126.007 355,131 	"/>
	<polygon fill="#00FF00" stroke="#800080" points="392,476 381,475 374,470 368,464 362,458 354,454 347,449 340,444 336,436 
		335,426 338,418 345,413 355,410 365,410 375,412 384,415 392,419 398,425 403,432 407,440 410,449 409,460 406,468 399,473 	"/>
	<polygon fill="#00FF00" stroke="#800080" points="385.438,236.465 379,236 371,232 363,228 357,222 351,216 348.643,211.336 
		348,207 347.925,201.285 350,196 351.515,192.849 356,191 366,188 374,184 385,183 394,186 400,192 403,201 403,213 402,224 
		398,231 391.54,234.67 	"/>
	<polygon fill="#00FF00" stroke="#800080" points="381,728 371,726 364,721 359,714 357,704 358,693 363,686 370,681 379,677 
		390,676 400,678 407,683 411,691 412,702 411,712 406,719 399,724 390,727 	"/>
	<polygon fill="#00FF00" stroke="#800080" points="381,571 376.137,570.638 370.962,567.272 367.741,563.995 365.988,560.212 
		364.973,554.86 365.896,550.524 367.064,547.376 367.372,544.25 367,539 366.911,531.147 368.501,527.887 371.063,525.242 
		376.968,524.505 383.23,523.745 391.507,523.93 395.883,525.335 398.097,527.733 400.312,531.978 401.881,536.776 402,546 
		399.85,555.137 394.96,562.057 387.763,567.224 	"/>
	<polygon fill="#00FF00" stroke="#800080" points="417,78 406,77 400,71 393,66 387,60 381,54 375,48 372,39 372,29 375,20 382,14 
		391,11 403,11 411,15 416,22 419,31 420,42 423,51 425,61 425,70 419,77 	"/>
	<polygon fill="#00FF00" stroke="#800080" points="445,146 433,146 424,143 417,138 412,131 411,120 414,111 418,103 425,98 435,95 
		444,94 453,91 460,87 471,85 479,89 485,95 489,103 490,114 489,124 484,132 478,137 469,140 459,142 450,145 	"/>
	<polygon fill="#00FF00" stroke="#800080" points="454.655,622.965 451.27,618.349 451,610 451,600 453,590 456,581 461,573 
		467,568 474,563 485,561 492,566 496,574 498,584 496,594 493,603 489,611 483,616 475,620 465,623 	"/>
	<polygon fill="#00FF00" stroke="#800080" points="502,427 490,427 481,424 472,421 466,415 464,405 467,395 471,388 476,380 
		482,374 490,370 498,366 507,363 518,364 525,369 527,379 523,386 519,395 518,406 516,416 511,423 503,426 	"/>
	<polygon fill="#00FF00" stroke="#800080" points="496,958 484,958 477,953 472,946 473,935 479,928 486,924 495,921 506,919 
		516,917 527,916 537,918 546,921 553,926 556,935 553,943 546,949 539,953 530,956 519,955 508,954 499,957 	"/>
	<polygon fill="#00FF00" stroke="#800080" points="527,254 515,254 504,253 496,249 489,244 484,237 481,228 483,218 487,210 
		494,204 502,200 511,197 520,194 531,195 539,199 544,206 547,215 548,226 547,237 543,245 537,250 528,253 	"/>
	<polygon fill="#00FF00" stroke="#800080" points="529,562 517,562 508,559 503,552 503,541 507,534 511,526 519,521 529,519 
		540,520 549,523 561,523 569,527 572,535 567,542 559,546 551,551 544,556 536,559 	"/>
	<polygon fill="#00FF00" stroke="#800080" points="514.725,1024 509,1018 507,1008 506,997 509,988 514,981 521,975 529,971 
		535,966 542,960 553,959 561,963 565,971 568,980 570,990 569,1001 566,1010 562,1017 554.663,1024.003 	"/>
	<polygon fill="#00FF00" stroke="#800080" points="565,319 555,317 549,311 545,303 542,294 544,284 548,276 552.911,266.764 
		557,260 566,257 576,259 582,265 588,271 591,280 593,290 590,299 585,306 579,312 572,316 	"/>
	<polygon fill="#00FF00" stroke="#800080" points="563.675,132.569 557,132 550,127 546,119 545,109 546,99 548,89 549,78 
		549.436,73.141 552,69 554.231,65.004 559,63 563.966,62.534 570.214,64.278 576,68 578.536,71.552 581,75 581.389,79.26 
		581.402,85.637 579.657,90.867 580.094,94.355 582.419,97.842 585,103 585.323,110.919 582,121 576,128 569,132 	"/>
	<polygon fill="#00FF00" stroke="#800080" points="617,595 605,595 594,594 584,592 577,587 572,580 573,569 578,562 586,557 
		595,554 605,552 615,551 626,551 634,555 640,561 644,569 642,579 638,586 631,591 622,594 	"/>
	<polygon fill="#00FF00" stroke="#800080" points="601,1024 595,1018 590,1011 586,1003 584,993 585,982 589,974 595,967 600,961 
		607,956 615,951 623,948 633,945 644,946 651,951 653.337,954.389 654.19,958.937 654.616,963.913 652.342,970.309 
		648.788,975.284 645.377,978.695 644,984 644,990.209 643.245,995.183 639.833,1002.575 634,1010 629,1017 621.924,1023.896 	"/>
	<polygon fill="#00FF00" stroke="#800080" points="634,462 628.519,462.867 622,462 616.313,460.104 610.713,457.067 606,454 
		600,448 596,440 595.2,433.461 595.47,427.39 596.549,421.995 599.382,415.385 603,413 607.611,411.203 613,412 622,415 632,417 
		638.232,418.622 643.762,420.106 648.349,423.074 652.935,427.93 654.554,431.032 656,437 654,447 649,454 644.302,457.607 
		638.223,460.416 	"/>
	<polygon fill="#00FF00" stroke="#800080" points="644.103,364.629 639,363 631,359 624,354 619,347 616,338 614,328 
		614.986,316.49 620.692,309.027 629,306 639,304 648,305 657,308 664,313 669,320 672,329 673,339 670,349 666,357 660,362 
		651,365 	"/>
	<polygon fill="#00FF00" stroke="#800080" points="675,517 663,517 655,513 648,508 640,504 633,499 628,492 624,484 623,476 
		628,469 636,465 647,464 656,467 663,472 670,477 676,483 682,489 685,498 685,507 680,514 	"/>
	<polygon fill="#00FF00" stroke="#800080" points="652,890 641,889 634,884 629,877 626,868 626,858 627,847 630,838 634,830 
		640,823 647,818 656,815 667,816 676,819 683,824 689,830 691,840 689,850 684,857 678,863 674,871 669,877 663,884 656,888 	"/>
	<polygon fill="#00FF00" stroke="#800080" points="633.295,1024.038 635.001,1016.078 639.407,1009.256 648,1003 656,999 
		661.865,996.036 671.816,993.904 677.643,994.047 683.897,993.052 689.014,993.762 694.984,996.889 698.112,999.305 
		700.385,1003.712 700.812,1007.834 697.258,1010.819 693.563,1012.667 689.867,1015.083 687.166,1019.205 686.455,1023.754 	"/>
	<polygon fill="#00FF00" stroke="#800080" points="682,630 670,630 660.895,626.171 657.497,617.782 659,609 662,600 663,589 
		666.523,580.085 675,576 687,576 694,581 700,587 706,593 710,601 711,611 707,619 700,624 691,628 	"/>
	<polygon fill="#00FF00" stroke="#800080" points="737.527,152.757 732.274,150.942 728.836,147.981 726,143 720.909,137.476 
		716,129 714.224,124.869 714,119 714.224,113.982 716,109 718.808,105.482 722,103 725.493,100.325 729.791,98.51 734.757,97.174 
		739.914,96.887 747.65,97.269 754.527,99.656 758.823,101.948 763.599,105.578 767.897,110.258 770,114 771.907,118.184 773,123 
		772.672,128.881 771,133 766,139 759,144 751,148 743,152 	"/>
	<polygon fill="#00FF00" stroke="#800080" points="764,721 753,720 746,715 740,709 735,702 729,696 725,688 725,677 729,670 
		737.834,664.992 747,663 759,663 768,666 776,670 779.334,675.325 780.001,682.325 780.501,685.159 783,687 785.001,691.492 
		783.834,698.825 782,706 777,712 771,718 	"/>
	<polygon fill="#00FF00" stroke="#800080" points="748,245 740,241 735,234 735,222 738,213 744,207 752,203 758,196 764,191 
		767.914,188.63 774,188 782,192 787.029,197.961 792,206 793,217 790,225 786.427,227.76 781.158,229.867 775.891,229.265 
		773.484,227.309 770.775,227.459 769.42,233.028 766.409,235.135 761.594,234.683 759,238 755.311,241.162 752,244 	"/>
	<polygon fill="#00FF00" stroke="#800080" points="761,788 752,785 747,778 744,769 741,760 739,750 741,740 747,733 755,730 
		765,728 775,729 785,731 792,736 795,745 791,752 782,756 778,764 775,773 771,781 765,786 	"/>
	<polygon fill="#00FF00" stroke="#800080" points="918,273 908,271 899,268 894,261 890,253 885,246 881,238 877,230 876,219 
		877,208 882,200 889,196 900,194 910,194 917,199 922,206 923,217 927,225 931,226 938,220 945,225 947,235 947,247 944,255 
		938,262 931,267 924,271 	"/>
	<polygon fill="#00FF00" stroke="#800080" points="1024,210 1019,217 1014,225 1010,233 1006,241 1002,248 996,254 987,257 976,256 
		968,252 962,246 961,235 962,226 964,216 969,209 976,203 983,198 989,193 997,188 1006,185 1016,187 1023,192 1023,204 	"/>
	<polygon fill="#00FF00" stroke="#800080" points="1024,134 1018.799,137.263 1014.74,140.228 1009,144 1005.532,146.471 1003,150 
		1002.41,157.553 1001.474,163.328 999,170 992,175 982,174 975,169 970,162 967,153 968,143 973,137 980,131 987,126 994,122 
		1003,118 1007.122,115.939 1012.712,114.632 1018.643,114.475 1024,115.88 	"/>
	<polygon fill="#00FF00" stroke="#800080" points="1003.51,0 1008,5 1012,13 1014,23 1014.045,34.599 1012.254,42.711 
		1008.673,51.139 1002.878,56.723 994.871,60.199 986,58 980,52 977,43 974.749,35.758 971.674,29.346 970.852,25.434 970,19.956 
		970,16 970.957,11.106 973,6 978.437,0 	"/>
	<polygon fill="#00FF00" stroke="#800080" points="1024,524 1022,535 1021,546 1018,555 1012,560 1003,563 997.387,564.043 
		993.032,561.648 990.262,558.325 987.588,555.115 985,549 983,539 984,528 988,520 992,512 997,505 1003,498 1006.797,495.288 
		1011.323,493.053 1017.421,491.747 1024,493.271 	"/>
	<polygon fill="#00FF00" stroke="#800080" points="1024,635.687 1018,630 1014,622 1011,613 1010,602 1012,592 1017.203,580.593 
		1024,575.586 	"/>
	<polygon fill="#00FF00" stroke="#800080" points="1024,1022 1016,1020 1017,1011 1023,1004 	"/>
	<polygon fill="#00FF00" stroke="#800080" points="0.001,485.201 3.355,481.591 6.681,477.314 9.628,472.752 11.148,467.906 
		12.25,462.75 19.25,456.75 29.491,457.071 37.759,460.397 43.366,466.005 44.127,470.471 44.317,476.174 44.25,479.75 
		44.222,484.727 43.177,491.76 40.801,494.991 37.759,498.698 33.292,500.029 26.925,501.549 21.603,500.408 15.425,501.074 
		10.198,503.26 4.876,505.826 0.001,508.011 	"/>
	<polygon fill="#00FF00" stroke="#800080" points="80.652,561.651 76,559 70,553 66,545 58.455,538.64 50,537 41,534 
		32.593,528.458 30,521 31,512 37,505 43,500 53,497 64,498 73,501 79,507 85,513 90,520 94,528 97,537 97.758,545.36 95,556 
		89.408,560.837 	"/>
	<polygon fill="#00FF00" stroke="#800080" points="91.356,619.134 83.931,620.386 77.663,618.458 70.623,614.119 65,608 59,602 
		54,595 51.24,588.178 51.53,583.742 53.747,581.138 57.508,577.474 61.655,575.449 67.055,574.099 72.07,573.135 77.084,572.749 
		82.774,572.942 91.163,574.967 96.467,578.727 102.542,584.996 106.111,592.036 107.461,598.207 107.075,603.607 105.628,608.429 
		102.446,612.094 97.624,616.433 	"/>
	<polygon fill="#00FF00" stroke="#800080" points="237,681 233.861,680.098 230.492,679.131 225.809,677.179 221.439,673.044 
		219.098,669.923 216.757,665.552 216.289,661.104 216,656 216.523,650.491 217.772,645.73 220.113,641.438 223.624,638.317 
		230,637 242.198,641.049 247.114,645.106 252,651 254,661 252.03,670.858 248.128,676.634 242.588,679.443 	"/>
	<polygon fill="#00FF00" stroke="#800080" points="186.958,701.598 182.485,701.993 176.958,699.598 171.671,695.75 
		167.769,691.402 164.424,686.943 161.08,681.48 157.847,677.133 156.958,671.598 158.958,661.598 160.188,648.593 160.745,644.468 
		162.958,641.598 166.877,640.566 171.893,640.12 176.241,641.68 180.032,643.911 183.934,645.694 189.285,648.036 193.59,650.143 
		196.754,652.829 199.653,655.505 201.994,658.403 203.554,661.636 205.004,665.427 205.896,668.883 206.411,671.657 
		206.958,674.598 205.673,678.024 201.958,680.598 198.421,682.809 194.859,686.051 192.741,688.95 190.845,693.409 
		189.396,697.645 	"/>
	<polygon fill="#00FF00" stroke="#800080" points="230.037,752.972 220.696,752.808 212.01,748.055 208.405,743.139 205,733 
		202,724 198,716 193,709 190.378,700.858 192,692 197,685 206.602,678.57 214,677 224,679 231,684 237,690 242.328,693.811 
		249,702 253,710 253,722 252.161,732.815 247.901,741.337 244,748 236,752 	"/>
	<polygon fill="#00FF00" stroke="#800080" points="139.538,716.533 130.12,714.871 121.948,712.101 115.854,706.423 111,699 
		109.206,693.958 109.622,689.248 111.699,686.063 115,683 118.153,680.298 122,677 126.796,673.736 132.336,670.689 
		135.66,670.689 142.17,672.49 147.848,674.844 152,677 156.297,681.077 158.789,686.34 160.728,692.018 161.421,698.667 161,703 
		155.881,710.439 149,715 	"/>
	<polygon fill="#00FF00" stroke="#800080" points="111.699,683.846 108.653,682.878 103.805,679.969 100.416,675.98 98.262,670.961 
		98,663 98.124,652.817 101.587,643.543 106.157,637.034 113,631 122.916,627.754 133.303,625.954 143.136,627.339 151.585,631.355 
		157.402,636.342 160.449,640.912 159,649 158.466,654.881 158,660 156,670 152.834,674.29 148.818,674.29 142.447,671.659 
		137.045,669.858 131.782,669.858 127.212,672.074 121,676 117.967,679.033 115,682 	"/>
	<polygon fill="#00FF00" stroke="#800080" points="45.457,668.87 36.837,669.44 32,669 25.816,665.038 21.984,661.684 
		19.269,657.852 18.151,652.742 17.991,645.077 21.025,641.564 20.706,637.412 17.033,633.739 14.319,629.907 12.562,625.116 
		11.763,618.888 13.361,614.577 15.915,609.787 18.151,604.197 21.504,597.969 23.9,593.658 25.656,590.145 28.371,586.792 
		32.363,584.556 37.154,582.8 41.944,583.758 46,586 49.13,588.868 51.525,592.381 53.442,596.373 55.677,600.524 56.475,604.516 
		56.954,610.106 56.635,615.535 55.358,622.242 53.601,627.672 56,632 58.625,635.674 63.023,640.287 66.057,644.278 
		66.696,648.111 64.619,653.381 59.51,658.65 55.517,662.004 49.928,666.954 	"/>
	<polygon fill="#00FF00" stroke="#800080" points="56.297,714.865 49.234,711.264 44,706 41,697 41.755,686.472 45,677 
		50.248,669.988 55.038,664.878 61.586,658.331 68.292,652.103 74.441,648.247 81.781,646.585 88.568,648.662 91.753,650.878 
		94,655 95.908,663.759 97.016,674.423 96.047,684.533 92.584,693.675 87.875,700.322 82,706 74,710 65.438,714.173 	"/>
	<polygon fill="#00FF00" stroke="#800080" points="69,187 59,185 51,181 44,176 39,169 36.178,162.489 36.485,154.364 40,151 
		47,147 54,142 61,136 65.708,126.918 72.901,121.633 83,122 91,126 96,133 99.762,140.716 102,151 101,162 97,170 92,176 85,182 
		77,185 	"/>
	<polygon fill="#00FF00" stroke="#800080" points="140,158 129,157 118,156 110,152 105,145 101,137 100,126 102.992,118.552 
		109,111 113,103 117.964,95.212 121.927,92.423 126.037,91.395 131.469,90.955 136,93 143,98 150,103 154.514,108.129 
		157.01,113.119 158,119 156,129 154.954,141.743 151.578,148.495 146,155 	"/>
	<polygon fill="#00FF00" stroke="#800080" points="174.318,780.84 168.419,779.856 162.683,778.382 157.602,775.595 
		153.342,771.499 151.51,764.617 151,759 150.555,754.947 149.244,749.539 148.261,743.311 148.425,735.936 151.375,731.511 
		157.111,729.218 163.83,729.382 169.73,730.856 178.743,732.495 187.92,735.445 195.95,739.706 199.884,743.147 202.67,747.408 
		204.636,751.177 205.456,756.913 204.472,762.485 202.178,765.927 199.064,770.679 195.131,773.629 189.723,777.562 
		181.693,780.512 	"/>
	<polygon fill="#00FF00" stroke="#800080" points="131.709,832.133 126.465,832.133 120.729,831.149 116,829 112.044,825.741 
		108,825 101,820 95,814 93.361,808.533 94.18,802.798 97.131,799.684 102,798 108.438,798 114,798 118.577,797.543 124,797 
		128.432,794.767 133.512,792.965 139.248,791.654 144,792 147.933,792.637 151.866,795.095 154.325,797.882 155.635,801.159 
		156.128,806.075 154.161,811.319 155.308,816.891 154.325,821.152 151.211,824.758 147,828 142.461,829.513 138,831 	"/>
	<polygon fill="#00FF00" stroke="#800080" points="132.857,790.181 127.278,790.207 120.238,788.543 114.656,786 108.656,780 
		102.656,774 97.656,767 94.656,758 95.164,746.753 96.656,738 101.656,730 106.963,725.94 113.191,721.843 119.746,720.04 
		127.656,720 133.512,723.481 138.101,726.103 141.87,728.889 144.82,732.168 146.656,737 148.261,746.753 150.228,757.733 
		151.375,767.893 152.686,774.285 151.866,779.856 147.293,783.308 143.017,786.084 138.756,789.034 	"/>
	<polygon fill="#00FF00" stroke="#800080" points="184,242 173,241 167,235 162,228 158,220 155,211 153.292,202.345 
		153.445,191.002 157.277,181.038 164.175,175.06 174.446,173.834 182,179 188.595,184.123 195,190 198.326,194.205 
		199.904,198.939 200.255,203.673 200.868,209.372 200.518,216.122 200.08,223.749 199.729,227.607 197.8,232.341 194.556,235.847 
		189.384,240.055 	"/>
	<polygon fill="#00FF00" stroke="#800080" points="224.875,243.125 217.36,242.99 213.988,240.966 210.75,239.752 206.569,238.538 
		203.197,236.245 201.968,233.982 201.491,229.094 201.193,224.026 201.431,217.052 201.553,210.361 202,205 203.564,200.83 
		205,197 211,190 221,188 230,191 236,197 241,204 246,211 246.625,220.75 243.75,230.125 240,236 236,239.375 231.75,241.375 	"/>
	<polygon fill="#00FF00" stroke="#800080" points="199,126 188.875,125.25 180,120.25 173.875,114.125 170.875,105.75 172.75,95.5 
		177.875,86.25 183.75,79.25 192.5,75.75 203.625,77.875 211.125,83.25 216,90 221,97 223,101.875 224,106 223.875,111.25 
		221.5,114.75 217.552,116.987 214,119 207.5,122.375 	"/>
	<polygon fill="#00FF00" stroke="#800080" points="251.25,122.875 244,121 236,117 229,112 225,104 221.75,95.75 218,87 213,80 
		210,71 209.648,67.125 209.334,63.67 209.413,61.086 210.727,59.061 214.634,57.392 217.369,55.829 219.855,53.947 223.087,51.141 
		226.036,48.844 228.735,48.974 232,52 237.625,59 244.125,64.75 251.25,67.5 260,72 265,79 269,86.5 270,97.125 268.875,106.625 
		264.875,113.875 259,121 	"/>
	<polygon fill="#00FF00" stroke="#800080" points="231,463 219,463 209.3,461.358 199.541,458.501 192.638,449.933 190.258,441.126 
		192.162,431.606 197.399,426.131 210.5,422.167 223.334,422.167 234,423 245,424 254.284,427.321 260.473,433.986 261,443 
		256.665,451.361 250,457 244.05,460.406 237.385,462.072 	"/>
	<polygon fill="#00FF00" stroke="#800080" points="227.5,421.333 218,420.833 206,420.333 197.834,418 188.667,411.333 
		185.834,404.833 186.334,398.667 189,396 192,393.333 192.167,388.167 196,384.333 200,383 211,383 220.667,385.333 229,389 
		237,393 242.834,397.5 247.167,402.333 249.5,407 251,411.667 250,416 247.667,419 244,421 236.167,422.167 	"/>
	<polygon fill="#00FF00" stroke="#800080" points="217.63,554.422 210,554 200,552 195,545 192,536 191,525 190,514 190,502 
		193,493 200,487 211,486 218.582,488.729 224.771,494.204 230.483,500.154 237,506 242,513 246,521 247.858,532.762 247,541 
		239.289,548.947 233,551 226.675,552.042 	"/>
	<polygon fill="#00FF00" stroke="#800080" points="273,504 264,501 255,498 244,499 234.767,498.726 226.437,494.204 
		219.534,485.873 218,479 222,471 230,467 240,466 249,463 256,458 265,456 275,457 282,462 288,468 291,477 291,489 
		287.369,498.488 280.228,503.724 	"/>
	<polygon fill="#00FF00" stroke="#800080" points="362.672,791.166 356.117,792.476 350.655,791.166 348.253,787.888 346,783 
		342,775 337,768 334.922,762.978 335.577,757.952 337.922,752.558 341.696,743.75 346.066,740.253 353.058,739.161 363,737 
		371.85,739.379 376.875,747.246 376,760 376.22,771.5 373.816,780.895 368.791,787.451 	"/>
	<polygon fill="#00FF00" stroke="#800080" points="343.444,719.714 332.3,720.369 323,719 316,714 310,708 308,698 310,688 315,681 
		321.374,674.263 331,672 340.822,674.046 349.781,681.038 352.184,688.467 352,699 349.781,709.007 348.469,715.78 	"/>
	<polygon fill="#00FF00" stroke="#800080" points="305.917,750.417 299.917,750.251 295.667,749.334 289,746 276.584,741.917 
		273,738 270.167,730.917 269.834,723.751 272,720 274.25,716.417 277.084,713.417 280.5,710.834 285,709 296,708 306,708 314,712 
		320,718 322.467,720.369 324.433,723.865 323.559,727.58 321.811,732.386 321.135,738.322 319.189,745.06 315.75,747.751 
		312.197,748.338 	"/>
	<polygon fill="#00FF00" stroke="#800080" points="274.85,822.52 268.749,819.758 263.339,813.887 259.31,805.715 255.857,798.003 
		253.325,791.326 252,786 251.828,780.276 252.865,774.176 255.252,770.309 257.699,766.348 263.684,759.903 266.562,753.111 
		269.324,745.975 274.389,742.521 278.303,743.557 283.943,744.939 287.511,746.32 291.885,748.508 296.259,750.809 
		299.712,753.917 302.36,758.291 305.007,763.586 307.309,768.765 307.655,772.564 305.368,776.611 303.971,779.701 
		301.879,784.075 300,788 298.216,790.866 296.029,794.894 294.302,798.924 292,805 289,814 282.677,821.599 	"/>
	<polygon fill="#00FF00" stroke="#800080" points="315,830 306.619,829.656 299.943,827.009 297,824 293.934,820.933 
		292.576,817.916 291.489,812.627 292,807 295.223,798.924 299.137,791.441 303.971,782.233 306.388,776.823 309.036,773.139 
		312.834,772.679 317.707,773.853 322,776 327.338,780.851 334,788 337.352,792.247 338.273,797.197 337.007,802.146 335,807 
		331,815 327,822 323.885,825.052 320.086,827.469 	"/>
	<polygon fill="#00FF00" stroke="#800080" points="325.575,564.351 320.492,565.499 314.579,563.989 308.295,559.518 
		301.891,553.234 296,548 291,541 288.961,535.713 289.082,531.362 289.686,526.408 291.982,522.542 294.761,518.796 
		298.628,516.741 303.582,516.258 310,517 315.187,517.472 321,518 324.125,519.883 326.3,524.354 328.234,527.134 333.188,530.033 
		337.176,532.088 341.284,535.229 343.459,538.613 344,543 343.338,547.676 342,552 339.573,555.398 337,559 331.134,562.539 	"/>
	<polygon fill="#00FF00" stroke="#800080" points="298.87,602.538 293.07,602.296 288.84,600.121 283.834,596.516 279.834,588.516 
		275.834,580.516 272.164,576.195 267.573,571.844 263.343,567.978 261.652,562.299 261.893,556.861 263.585,551.665 
		266.606,549.007 270.956,546.469 274.834,544.516 283.834,543.516 292.834,546.516 299.232,552.389 306.241,558.674 
		311.834,563.516 315.183,566.648 316.875,569.791 317.72,574.745 317.6,579.337 316.391,584.533 314.579,589.849 309.834,597.516 
		302.834,601.516 	"/>
	<polygon fill="#00FF00" stroke="#800080" points="308,981 295.584,980.929 287,978 282.02,969.038 282,959 282.763,948.042 
		281.741,940.052 281.555,935.872 282.299,931.041 284.249,926.395 288.244,923.144 292.425,920.915 297.906,920.543 304,922 
		306.824,924.433 310.076,927.232 318.902,932.249 325.963,936.057 335.718,940.145 339.345,940.957 343.243,942.747 
		347.43,945.429 350.582,949.25 351.233,954.638 350.582,959.097 348.817,962.628 346,966 340,971 331,974 324.198,976.006 
		316.765,978.514 	"/>
	<polygon fill="#00FF00" stroke="#800080" points="373.421,953.416 365.391,950.242 360,945 355,938 352,929 349.332,919.804 
		345.411,909.16 343.544,899.077 345.784,888.619 352,884 359.416,880.964 369.5,882.457 378.09,887.312 384,894 391,899 397,905 
		401.244,912.521 404.046,923.912 403.672,933.996 400.124,941.278 396.389,945.947 389.667,950.989 382.011,953.416 	"/>
	<polygon fill="#00FF00" stroke="#800080" points="444,941 429.577,942.719 424.251,942.791 420.293,940.271 418.997,936.745 
		418.493,931.635 420.365,925.95 422.668,922.927 422.812,918.177 422,913 423.316,908.174 425.835,903.999 428.785,901.049 
		433,899 442,898 453.974,898.458 462,902 464.996,904.996 468,908 470.599,912.204 471.823,916.666 472.687,921.128 472,926 
		469.985,930.032 468,934 461.819,938.257 453.831,940.416 	"/>
	<polygon fill="#00FF00" stroke="#800080" points="406.871,995.35 401.894,994.521 398.024,991.618 395.812,988.023 
		394.706,983.462 394.568,978.07 396.365,971.712 403,965 409,959 416,954 422.354,947.934 428.298,943.926 441.569,942.405 
		453.872,941.714 458.019,943.649 460.784,946.829 462.304,954.155 460.508,962.311 458,967 453,974 446,980 438,983 427,984 
		419,988 411,993 	"/>
	<polygon fill="#00FF00" stroke="#800080" points="457.097,549.364 444.388,548.855 435.745,545.805 427,542 419,538 411,534 
		404,529 401,520 405,511 410.914,505.665 418,500 423,494 430,488 438.347,483.887 446.929,485.31 453.792,491.411 
		456.501,502.349 464,508 469.732,515.887 472.808,527.887 472.602,536.909 466.502,544.535 	"/>
	<polygon fill="#00FF00" stroke="#800080" points="484,513 474,511 467,506 456.808,500.195 456,493 459,486 467,482 476,478 
		485.424,474.965 495,473 502,478 506,486 506,496 502.962,504.503 498.039,509.734 490.347,511.272 	"/>
	<polygon fill="#00FF00" stroke="#800080" points="451,225 441.617,224.977 431,221 424,216 418.823,210.26 413,203 409.31,195.182 
		408,184 410,176 416,169 425,166 435.695,165.567 444.131,169.156 453.643,173.105 463.156,176.875 470,181 475.54,187.285 
		478.772,197.516 477.695,207.567 473,215 467.105,220.849 459.926,224.439 	"/>
	<polygon fill="#00FF00" stroke="#800080" points="494.675,72.156 489.168,69.086 485.356,64.32 483.29,59.795 482.786,55.259 
		484.341,50.083 486.733,46.53 489.486,42.506 491.786,39.259 494.451,36.061 496.368,33.187 498.218,28.969 499.758,23.552 
		501.134,19.845 503.786,16.259 511.786,11.259 521.994,10.208 530.361,13.385 536.078,18.574 540.786,26.259 542.221,31.387 
		542.325,38.164 541.692,42.506 540.421,46.742 537.562,50.237 532.055,53.625 526.443,55.637 520.089,59.449 514.477,64.215 
		509.075,70.144 502.405,73.427 	"/>
	<polygon fill="#00FF00" stroke="#800080" points="493.298,0 494.846,4.183 497,10 498.487,19.527 498.063,25.775 496.791,30.434 
		494.781,34.14 492.556,37 490.015,40.177 487.578,43.883 484.825,48.33 483.913,50.264 482.814,51.719 480.989,52.346 
		478.789,52.566 476.268,52.268 474,52 471.229,49.228 468,46 467.015,41.072 466,36 464,26 462.584,21.75 461,17 457.12,14.23 
		454,12 450.356,9.397 447,7 443.802,3.787 440.032,0 	"/>
	<polygon fill="#00FF00" stroke="#800080" points="579.591,377.173 574.42,377.643 568.78,377.925 560.13,376.89 551.762,373.224 
		546.028,367.019 543.771,362.506 542.549,355.643 543.019,349.907 545,345 547.907,338.344 550.823,333.079 553.643,329.6 
		556.557,326.309 561.352,323.677 566.429,322.737 572.07,323.395 577.899,326.309 582.506,331.386 587.113,337.874 
		591.814,344.455 595.198,351.036 596.89,357.617 596.609,362.788 594.634,366.831 591.814,370.309 589.651,372.848 
		586.737,375.198 583.607,376.394 	"/>
	<polygon fill="#00FF00" stroke="#800080" points="546.205,444.922 540.308,441.653 537,437 535,427 537,417 540,407 544,399 
		548,392 554.057,385.708 561.612,381.796 571.323,379.233 581.981,378.424 592,379 595.605,381.257 598,385 600.865,388.946 
		601,394 599,403 595,411 589,418 583,424 576,429 570,434 563,440 554.538,444.473 	"/>
	<polygon fill="#00FF00" stroke="#800080" points="523.006,357.034 513.766,356.798 504.17,352.77 498.484,348.86 494.693,342.344 
		490.783,332.749 486.992,322.916 482.491,310.951 480.832,301.355 483,293 488,286 498.01,280.505 509.028,280.623 519,284 
		527,288 533,294 539.237,300.644 545.397,311.07 548.003,320.31 548.832,329.432 546.344,337.606 542.079,345.188 536.512,350.4 
		530.352,354.191 	"/>
	<polygon fill="#00FF00" stroke="#800080" points="482.317,366.495 476.708,367.145 472,366 467.322,364.489 464,362 458,356 
		456.4,352.027 456,348 455.751,342.874 457.021,337.013 458.821,330.713 459.509,322.679 459.745,316.4 460.651,311.231 
		463.012,306.921 466.967,303.555 472,303 476.449,304.08 480,307 481.566,311.697 483.261,315.659 485.032,320.677 
		486.567,324.632 488.338,329.355 489.873,333.488 491.703,337.797 493.651,342.107 495.186,347.361 495.481,352.032 
		494.773,355.043 493,359 490.05,362.422 486,365 	"/>
	<polygon fill="#00FF00" stroke="#800080" points="583.29,658.059 575,658 567,654 560,649 555,642 551,634 550,623 553,613 
		555.983,605.996 563.895,599.999 574.996,597.064 584,598 593,601 602,604 609.704,606.128 615.701,609.445 621.317,612.89 
		625,617 628.207,621.188 629.484,625.654 629.356,632.034 626.548,636.245 619.785,640.967 613.405,645.177 610.47,648.233 
		606.387,651.041 599,654 590,657 	"/>
	<polygon fill="#00FF00" stroke="#800080" points="632.811,694.961 625,695 619.912,692.774 615.701,689.201 614,682 
		614.553,677.844 613.15,674.144 609.892,669.674 607.153,661.511 608,654 613.66,646.709 620.678,641.605 629.611,635.479 
		638.657,633.423 649,634 659,636 667,640 673.251,645.56 678,653 679,664 676.442,672.613 671.976,678.738 665.085,683.092 
		655.387,688.068 647.859,691.498 641.427,693.115 	"/>
	<polygon fill="#00FF00" stroke="#800080" points="634.077,745.745 629.162,744.259 626,742 623.103,738.982 621.572,733.878 
		621.954,728.901 623.358,722.521 627.059,714.482 631,708 637,702 639.309,699.425 642.626,696.745 646.582,694.065 
		651.176,691.131 655.132,689.089 659.343,686.409 669.168,682.198 676,683 681.929,687.429 686.778,694.576 688.437,701.594 
		688,707 685.826,710.804 681.418,714.865 676.442,719.203 670,724 663,729 656,734 651.687,738.344 645.051,743.065 
		637.906,745.364 	"/>
	<polygon fill="#00FF00" stroke="#800080" points="602.596,740.106 592.989,737.463 586.225,732.486 580.596,726.106 
		576.596,718.106 577.596,709.106 581.248,701.606 588.905,697.267 599.368,695.608 611.236,696.246 622.72,695.991 
		628.462,698.033 630.632,700.968 631.596,704.178 629.739,708.369 625.017,717.174 621.699,725.341 618.596,733.106 
		612.129,739.249 	"/>
	<polygon fill="#00FF00" stroke="#800080" points="666.091,787.08 658.381,785.893 653.192,782.78 646.074,776.997 641,769 640,758 
		641.775,749.122 649,742 656.898,737.705 666.684,736.222 676.025,738.594 682.549,740.078 686.7,740.968 690.556,744.081 
		692.928,748.232 692.78,753.422 690.407,757.721 687.146,759.501 685.811,760.836 685.662,764.097 685.218,769.138 
		684.031,774.773 681.363,779.221 677.656,783.373 673.06,785.745 	"/>
	<polygon fill="#00FF00" stroke="#800080" points="702.242,754.386 697.799,755.095 694.115,754.608 693.827,751.503 
		693.639,747.484 690.944,742.946 687.54,740.299 687.257,737.084 689.072,733.383 690.78,728.259 693.78,719.259 697.78,711.259 
		699.001,707.833 702.78,703.259 711.78,700.259 720.78,703.259 728.78,707.259 733.78,714.259 736.817,721.099 738.892,731.181 
		737.667,737 734.78,742.259 731.166,745.355 725.501,747.833 719.616,749.716 709.534,752.385 	"/>
	<polygon fill="#00FF00" stroke="#800080" points="683.29,816.437 676.322,813.917 671,810 669.798,797.607 675,789 
		680.177,782.186 685.662,775.96 692,770 698,764 704,759 711.334,753.667 720.667,751.833 730,756 735,763 738,772 737,783 
		731,789 724,793 716,798 710,803 704,809 697,814 691.446,816.437 	"/>
	<polygon fill="#00FF00" stroke="#800080" points="782,865 773,862 767,856 764,847 762,837 759,828 756,819 753,810 
		753.346,800.754 757.941,793.653 769,791 776.946,793.653 785,799 791,805 795,813 799,821 801,831 802,842 799,851 794,858 
		788,863 	"/>
	<polygon fill="#00FF00" stroke="#800080" points="719,903 713.5,902.125 710.185,900.31 706.925,898.605 702.718,896.672 
		698.511,895.156 693.735,893.337 690.875,889.875 689.125,886.125 688.214,881.745 688.035,874.712 688.095,869.228 
		689.645,863.864 693.102,857.427 695.784,853.493 701.03,848.307 706.334,845.983 709.851,848.665 716.704,850.93 722.487,853.255 
		724.811,856.593 725.823,862.016 727.314,866.904 728.744,871.85 730.75,876.125 732.875,879.75 736.375,882.75 736.75,888.625 
		735.625,893.5 733.5,897 729.375,900.25 724.875,902.75 	"/>
	<polygon fill="#00FF00" stroke="#800080" points="746.872,860.9 738.31,859.856 729.12,856.305 720.976,851.085 715.128,849.414 
		710.116,847.534 705.522,843.357 703.224,837.51 702.598,831.453 705.104,822.682 710.951,816.835 719.932,810.778 728.285,808.48 
		739,808 746.245,810.151 752.511,817.044 754.439,821.825 756.479,827.276 757.524,831.871 759.194,838.136 759.821,843.984 
		758.15,851.085 756.479,855.052 752.093,858.394 	"/>
	<polygon fill="#00FF00" stroke="#800080" points="709.015,997.842 701,997 693,993 686,988 681.913,977.374 682.292,966.192 
		686,956 691,949 697,943 704,938 710.531,933.026 719.06,928.667 730,927 738,931 744,937 746,947 745,956 742,964 737,972 
		732,979 726,985 719,990 714,996 	"/>
	<polygon fill="#00FF00" stroke="#800080" points="707.167,421.696 700.437,420.233 695.754,416.282 693.39,411.892 692,407 
		688.877,399.016 685,390 681.854,382.629 679.669,375.775 679,372 680.244,367.118 683,363 690,358 699,355 709,357 717,361 
		722,368 725,377 726,388 727,399 725.897,409.698 721,416 714.484,420.087 	"/>
	<polygon fill="#00FF00" stroke="#800080" points="677.32,431.459 671,431 664,426 659,419 654,412 649,405 644.493,399.869 
		641.884,393.555 641.403,387.718 642.158,382.499 643.875,377.967 646.76,373.914 650.606,370.756 655.344,368.146 
		660.838,368.009 666.538,369.176 671.551,371.374 677.595,376.524 681.715,385.04 685.561,393.899 689.269,402.62 690.609,406.73 
		692,411 693.184,416.63 692.497,421.643 689.269,427.133 683.776,430.361 	"/>
	<polygon fill="#00FF00" stroke="#800080" points="728,537 718.417,537.681 709.427,532.999 702.685,527.381 695.38,520.451 
		690.511,512.585 690,503 691.26,494.043 698.377,487.488 705.681,483.367 715.608,478.685 725.534,479.247 734,484 
		741.828,489.361 748.383,496.665 751.942,503.407 753.066,513.334 749.882,522.324 743,529 736,533 	"/>
	<polygon fill="#00FF00" stroke="#800080" points="756.437,490.297 750,490 742,486 734,482 729,475 724,468 720,460 718,450 
		718,440 722,432 729,427 737.146,421.561 747.822,421.187 757,426 763,432 768,439 771,448 774.791,456.585 774.417,465.2 772,475 
		768,483 764.678,487.113 	"/>
	<polygon fill="#00FF00" stroke="#800080" points="743,616 738.199,617.144 733,616 725,612 719,606 714,599 709,592 705,584 
		702,575 699,566 699.654,560.015 702,556 704.22,552.476 707.83,549.822 713.352,548.441 719,549 725.457,551.733 730.342,555.45 
		733,559 735.12,561.927 737.031,566.6 739.049,573.289 741.598,577.642 744.04,580.722 746.163,584.226 747.226,588.368 748,592 
		750,602 750.623,606.526 749.562,610.561 747.331,614.49 	"/>
	<polygon fill="#00FF00" stroke="#800080" points="773,592 762,591 754,587 747,582 743.764,578.635 741.454,574.952 
		739.456,571.206 737.833,565.775 737.272,560.718 738,557 742,548 747,541 751.38,534.683 757.186,530.188 761.681,527.94 769,527 
		779,529 787,533 794,538 802,542 808.129,546.857 811.5,550.416 813,555 812.249,559.405 809.253,563.9 803,568 796,573 790,580 
		784,585 779.599,589.061 	"/>
	<polygon fill="#00FF00" stroke="#800080" points="821.24,553.412 815.62,549.666 810.751,545.733 803.634,540.489 797.079,535.057 
		791,529 788.264,526.263 785,523 784.546,519.56 783.969,515.205 783.969,512.77 786.029,510.148 790.899,506.964 794.27,503.593 
		800.075,501.158 810,501 818,505 827,508 835,512 841,518 846,525 847.273,532.435 845.962,536.555 844.463,540.677 
		840.718,545.733 836,549 828.731,553.224 	"/>
	<polygon fill="#00FF00" stroke="#800080" points="780.165,400.299 777.374,402.74 774.501,403.334 768,402 760,398 
		756.968,392.622 755.806,388.669 755.864,384.832 756.329,381.518 757.085,377.39 758.655,373.666 762.667,367.001 766,362 
		768.421,357.329 773.334,351.501 777.334,347.834 782.501,346.667 789.351,349.307 792.781,353.144 798.013,355.761 804,357 
		813,360 821.443,362.796 825.221,365.937 828.244,369.716 829.756,373.96 831.034,379.831 830.57,385.241 830.046,390.125 
		827.663,394.427 825,397 823.303,398.554 820.687,400.008 817.605,401.461 814.524,401.519 812.547,399.194 810.919,396.927 
		807.547,394.194 805.106,392.101 802.316,390.473 797.358,389.258 794.292,389.659 791.851,390.183 789.408,391.578 
		787.258,393.38 785.514,395.299 782.839,398.031 	"/>
	<polygon fill="#00FF00" stroke="#800080" points="816,487 810.131,487.736 804.425,487.516 799.157,486.309 794,485 
		790.323,481.865 788.184,478.299 787.087,474.952 786.044,471.605 786.155,468.039 786.867,464.911 788.184,462.223 
		789.611,459.095 792.079,456.078 794.713,453.225 798.992,452.125 803.822,453.716 807.168,454.594 809.198,455.088 
		812.051,454.814 815.398,453.936 819.239,451.851 822.037,449.107 825,448 832.187,449.162 837.838,451.576 841,455 
		843.929,458.051 846,462 847.824,465.512 849,471 848.702,475.224 847,478 844.697,480.272 841.57,481.533 837.833,481.271 
		835.095,479.448 833.12,478.516 831.365,479.394 828.291,482.137 824.396,483.948 820.611,486.09 	"/>
	<polygon fill="#00FF00" stroke="#800080" points="859,163 849.001,162 840.501,158.167 832.001,153.667 826.001,146.5 
		824.334,137.167 826.333,128.666 830.334,121 841.834,115.5 852.334,113.667 862.001,117.667 868.167,123.333 873.667,131.167 
		876.334,138.833 877.334,148.5 872.501,156.333 868.334,161 	"/>
	<polygon fill="#00FF00" stroke="#800080" points="877.7,108.54 871.77,108.072 863.03,105.263 856.943,102.297 852.416,94.337 
		851.948,84.504 853,74 858,68 865,62 874,59 885,60 895,62 907,62 914,67 918,75 917,84 914.692,89.967 911.57,95.742 
		908.916,99.8 905.951,103.39 903.142,105.263 898.615,106.98 893.309,107.76 887.533,108.853 	"/>
	<polygon fill="#00FF00" stroke="#800080" points="899.001,180.667 892,180 885,175 882.334,167.167 881.501,157.333 
		880.167,148.667 877.834,139 874.167,129.333 867.167,120.667 859.708,113.762 858.503,109.009 860.844,106.199 865.683,107.448 
		870.682,108.857 876.144,109.666 881.302,110.02 886.359,110.02 891.365,109.312 896.725,108.301 901,108 902.946,109.262 
		904.513,112.802 905.878,115.684 910,123 914.001,128.667 918.167,138.667 918.834,147.833 917,156 915,166 911.667,174.167 
		906.834,179.667 	"/>
	<polygon fill="#00FF00" stroke="#800080" points="792.501,128 787,127 781,121 774.501,112.5 774.001,103.833 777.834,94 784,89 
		792,85 804.334,87.833 813.001,88.167 820.001,85.167 827.334,77.333 835,73 842.896,71.706 848.983,77.169 850.232,82.475 
		850.387,87.157 850.543,91.528 850,97 848.359,105.107 842,112 835.716,114.783 824,118 816.667,119.167 809.834,124 
		802.501,127.167 	"/>
	<polygon fill="#00FF00" stroke="#800080" points="877.505,918.248 869.906,916.551 863,912 856.568,906.445 851,900 846,893 
		843,884 841,874 839,864 837,854 834,845 833,834 837,826 845,822 852,816 858,810 867,809 876,810 885,813 892,818 898,824 
		903,831 908,838 912,846 915,855 915,867 915,879 913,889 910,898 906,905 900,911 895.289,914.044 887.448,916.874 	"/>
	<polygon fill="#00FF00" stroke="#800080" points="821.429,826.65 814,825 807,820 803,812 799,804 796.994,795.532 799,788 
		804,781 812,776 822,774 832,776 842,778 850,782 855,789 858,798 857,809 851,815 845,820 837,824 827,827 	"/>
	<polygon fill="#00FF00" stroke="#800080" points="892.197,638.088 881.136,636.222 875.274,629.16 873,621 870.742,610.105 
		871,599 873.808,590.252 877,581 881,573 887.532,566.533 897.526,562.003 908.053,562.003 916.714,566.133 922.71,571.596 
		928.04,579.724 929.773,591.184 928.573,601.311 925.509,609.839 921.244,617.035 915.781,623.43 909.385,629.16 901.656,634.49 	
		"/>
	<polygon fill="#00FF00" stroke="#800080" points="857,601 845,601 837,597 830,592 825,585 826.104,575.194 831.7,566.133 837,561 
		844,555 853,552 861,554 867.411,556.139 872.342,561.069 876.339,566.399 877.538,572.529 876.606,577.725 874.74,583.589 
		871.943,591.85 868.877,596.381 863.281,599.445 	"/>
	<polygon fill="#00FF00" stroke="#800080" points="980,799 974.26,799.581 968.441,799.344 960,795 954.561,788.331 
		948.739,779.305 946.085,772.708 945.134,761.292 948,751 952.426,743.886 959.898,738.355 969.311,736.026 980.664,736.219 
		990.368,739.034 997.55,744.76 1001.722,753.202 1003.164,763.671 1003,775 999,783 994,789 988.419,793.875 	"/>
	<polygon fill="#00FF00" stroke="#800080" points="947,820 935,820 925,818 917,814 909,810 901,806 894,801 887,796 882,789 
		878,781 879,770 884,763 890,757 897,752 906,748 914,744 922,740 930,736 938,732 942.789,731.043 948.156,730.967 
		955.24,730.676 960.674,731.84 965.138,735.043 958.248,736.794 952.232,742.43 947.282,748.058 944,758 944,770 947,779 
		951.359,786.098 956.501,793.182 960.965,797.064 967.856,800.266 971.163,800.77 974.842,800.843 977.948,800.648 
		981.247,800.164 982.702,801.91 981.345,804.337 974.091,809.108 969,812 961,816 952,819 	"/>
	<polygon fill="#00FF00" stroke="#800080" points="979.313,682.724 973,681 968,674 963.634,665.303 962.545,655.504 
		965.158,646.14 970,638 976,631 981.49,624.364 988.024,619.573 996.298,618.702 1005.227,623.711 1010,631 1011.759,638.954 
		1010,648 1004.791,653.326 997.387,659.424 992.597,666.61 990,676 986.281,680.329 	"/>
	<polygon fill="#00FF00" stroke="#800080" points="955,647 945,645 940,638 942,629 946.213,621.969 947.084,610.427 944,600 
		943,590 947,583 955,578 965,576 973.434,576.457 980.402,577.546 984,581 987.806,584.079 989.548,589.304 989.548,595.184 
		988.218,601.177 986.218,610.177 983,618 978,625 973,631 968,638 961,644 	"/>
	<polygon fill="#00FF00" stroke="#800080" points="179.626,27.845 178.839,33.948 178.051,39.853 179.823,45.365 182.579,50.09 
		186.91,53.437 191.635,55.996 196.162,57.965 202.068,58.949 208.368,58.752 211.911,57.768 216.439,55.209 220.179,52.256 
		224.51,48.515 227.857,44.184 230.416,40.05 231.007,36.31 229.432,31.782 227.266,27.648 223.723,24.104 219.983,20.955 
		215.848,18.198 212.305,16.427 208.958,15.443 205.021,12.883 201.084,11.308 197.344,11.112 193.997,10.915 190.453,11.702 
		187.5,13.474 184.548,16.624 182.382,19.773 180.807,23.514 	"/>
	<polygon fill="#00FF00" stroke="#800080" points="200.229,241.506 203.331,240.292 206.569,240.022 209.671,240.697 
		213.09,241.619 215.607,243.394 218.979,244.204 222.351,244.339 224.645,244.204 227.882,243.529 231.055,242.642 
		233.489,241.765 236.167,240.5 238.404,238.943 240.157,237.189 241.719,235.388 242.983,233.44 243.987,231.379 245.359,228.055 
		246.902,226.263 249.87,225.319 252.638,225.207 255.593,226.42 258.125,227.792 260.499,229.954 262.556,232.856 263.611,235.758 
		263.769,239.135 263.359,242.585 262.82,246.044 261.471,248.79 259.448,252.432 257.019,255.67 254.186,258.503 251.219,261.066 
		247.846,263.493 244.204,265.922 239.618,267.677 235.436,268.889 230.31,269.564 225.993,269.024 221.677,268.35 217.9,267.271 
		213.718,266.461 210.75,265.113 206.704,263.089 203.466,261.335 200.094,259.042 197.396,257.424 194.698,256.344 
		192.945,254.861 192.405,251.353 192.809,248.115 194.428,245.552 197.126,242.855 	"/>
	<polygon fill="#00FF00" stroke="#800080" points="175.134,272.5 175.743,276.526 176.11,280.797 176.354,285.799 176.719,291.29 
		178.062,295.073 180.502,297.757 182.942,300.319 186.847,302.271 190.141,302.149 193.192,303.125 196.486,305.566 
		199.658,308.006 202.952,310.08 206.369,311.3 209.175,311.3 212.592,309.714 215.032,307.64 217.716,304.59 219.79,302.149 
		221.255,298.855 222.841,295.682 224.061,292.876 224.549,289.46 224.427,286.654 223.451,283.481 221.987,281.163 
		220.034,280.065 218.814,277.38 218.936,274.818 217.716,271.524 215.032,268.961 212.836,267.253 209.175,265.423 
		206.247,263.837 202.952,262.129 200.268,260.42 197.584,258.834 194.778,257.736 192.948,256.272 191.239,255.296 
		188.189,255.906 185.627,257.736 183.186,259.2 181.966,260.908 179.648,263.105 177.94,265.423 176.232,267.985 	"/>
	<polygon fill="#00FF00" stroke="#800080" points="518.996,0.146 521.925,4.05 526.805,8.278 532.172,10.881 538.516,12.019 
		545.672,12.507 551.365,11.694 557.058,9.742 561.937,7.953 566.817,5.677 569.58,3.561 571.207,0.308 	"/>
	<polygon fill="#00FF00" stroke="#800080" points="455.433,152.215 451.024,154.865 447.72,158.567 444.987,161.852 444.24,165.786 
		446.464,168.977 450.412,170.772 455.617,172.927 459.745,174.541 463.695,176.156 468.362,178.49 471.916,181.591 
		474.644,184.594 476.617,186.927 477.682,190.274 481.21,191.223 485.054,189.439 488.823,187.644 492.402,185.521 
		495.862,183.825 499.234,182.618 502.823,180.465 506.054,178.131 507.49,175.618 508.926,172.208 509.105,169.156 
		508.207,165.567 506.234,161.977 504.259,159.464 500.669,156.413 497.078,153.72 494.573,151.198 492.131,148.823 
		488.823,146.003 483.719,144.686 479.514,144.754 475.308,144.889 470.56,145.703 466.828,146.856 462.826,148.281 
		459.028,150.045 	"/>
	<polygon fill="#00FF00" stroke="#800080" points="756.949,-0.001 756.625,3.5 757,6.625 757.5,8.75 757.75,12 756.75,14.875 
		755.625,18.125 754.75,20.625 754.5,24.625 754.75,28.125 756.25,31.75 757.625,34.625 759.875,36.5 762.25,38.125 765.5,39 
		769,39.5 772.375,39.75 775.5,39.875 778.875,39.375 781.75,39 784.125,38.125 786.625,36.5 788.625,34.75 790.125,32.125 
		790.75,29.75 790.375,26.375 790,23.5 789.375,21 789,18.625 788.375,16.25 788.125,13.25 787.5,10.5 787,8.125 787,5.875 
		788,3.375 788.5,1.125 787.995,-0.001 	"/>
	<polygon fill="#00FF00" stroke="#800080" points="792.553,0.449 791.726,4.09 791.064,9.053 790.568,14.348 790.402,18.485 
		791.395,23.118 792.553,28.248 795.035,32.054 798.179,35.529 801.82,38.01 804.632,40.162 808.769,40.823 812.74,40.493 
		816.546,39.665 819.856,37.349 822.999,35.198 826.309,32.054 828.791,29.241 830.611,26.428 831.77,23.284 833.755,19.974 
		834.748,17.492 836.403,14.017 837.561,11.039 839.05,7.399 840.539,4.586 841.698,1.938 841.863,0.449 	"/>
	<polygon fill="#00FF00" stroke="#800080" points="843.352,0 842.194,2.765 840.539,6.572 839.05,10.377 837.396,14.348 
		835.244,18.982 833.093,22.953 832.266,25.931 832.431,29.903 834.251,32.716 836.899,33.708 841.035,33.212 844.511,31.888 
		847.655,31.392 850.964,30.565 853.777,29.075 856.921,27.421 860.23,27.255 863.87,27.255 866.849,27.586 869.496,28.744 
		872.144,30.565 874.957,32.385 878.432,33.708 882.238,33.378 885.878,31.723 888.36,28.413 890.346,24.773 892.331,21.629 
		894.483,17.823 896.137,14.348 897.461,10.708 898.453,7.233 899.183,4.717 899.524,2.396 899.388,0 	"/>
	<polygon fill="#00FF00" stroke="#800080" points="900.582,0.255 903.322,2.994 906.483,4.996 910.065,6.892 912.593,8.788 
		915.964,9.104 918.598,10.158 921.337,12.37 924.708,14.477 927.763,16.69 931.03,19.113 934.19,20.588 937.14,21.641 
		940.826,22.379 944.198,22.273 947.99,21.43 951.362,20.588 954.627,19.218 957.577,17.217 960,15.109 962.108,12.265 
		963.371,9.21 964.531,6.47 964.952,3.415 964.636,1.73 964.004,0.15 	"/>
	<polygon fill="#00FF00" stroke="#800080" points="668.34,902.104 671.061,904.484 672.761,907.545 672.688,911.752 672.42,915.875 
		673.706,919.744 674.994,923.927 676.12,926.985 677.691,930.326 680.071,933.896 680.921,937.467 679.221,941.037 676.33,943.757 
		673.271,945.797 670.21,947.157 666.3,947.667 661.88,947.157 657.63,946.646 653.89,945.457 649.979,945.287 646.239,944.266 
		642.499,943.077 638.929,941.207 635.698,938.486 632.638,936.616 629.068,935.256 625.668,932.536 622.608,929.986 
		620.228,926.926 619.037,922.676 620.398,919.105 622.608,915.875 625.668,912.304 629.238,909.585 632.978,906.524 
		637.059,904.484 640.799,902.104 645.219,901.254 650.999,900.744 656.44,900.914 662.05,901.254 665.96,901.594 	"/>
	<polygon fill="#00FF00" stroke="#800080" points="562.96,236.774 561.724,240.793 563.27,245.276 566.516,248.214 569.916,251.615 
		573.936,251.615 578.729,250.687 583.985,248.059 586.767,244.967 588.931,241.102 590.941,236.928 591.56,233.064 593.26,229.508 
		594.032,226.416 593.106,222.397 591.096,218.687 590.477,215.595 587.54,213.894 584.293,214.358 580.739,215.131 
		577.028,214.822 574.091,213.585 569.762,213.585 566.362,213.585 563.424,214.358 560.95,216.058 560.487,218.996 
		560.796,222.861 558.786,225.798 557.395,228.735 558.477,231.672 562.187,235.228 	"/>
	<polygon fill="#00FF00" stroke="#800080" points="298.749,511.666 301.166,514.324 304.066,515.653 307.57,516.136 310.591,516.5 
		313.974,516.741 317.237,517.103 320.5,517.103 322.554,517.587 324.366,517.103 324.971,514.204 324.608,511.062 324.125,508.161 
		323.158,505.503 322.071,503.207 320.621,501.032 319.05,499.219 317.116,497.407 314.458,495.715 312.041,494.628 
		309.624,494.507 306.845,495.111 304.066,495.957 301.77,497.165 299.716,498.857 298.265,500.549 297.54,502.966 297.178,505.865 
		297.299,508.161 297.661,509.974 	"/>
	<polygon fill="#00FF00" stroke="#800080" points="439.227,1024.004 443.57,1020.663 449.75,1018.491 456.431,1016.988 
		462.277,1016.487 468.123,1017.322 474.47,1017.823 480.317,1018.825 484.325,1020.83 487.184,1023.991 	"/>
	<polygon fill="#00FF00" stroke="#800080" points="305.54,915.539 305.281,920.191 306.574,923.5 310.705,926.285 314.742,928.618 
		317.613,930.471 321.38,932.355 324.476,934.2 328.078,935.914 331.008,937.17 334.985,938.844 338.334,939.89 341.683,939.89 
		345.66,939.053 348.59,936.332 350.055,931.936 349.637,927.123 347.962,922.936 346.078,918.541 345.241,915.192 343.567,910.797 
		342.73,908.285 341.474,905.563 340.846,902.215 341.055,897.4 340.846,893.843 339.381,890.284 336.869,887.353 332.892,884.633 
		328.287,882.958 324.938,881.702 322.008,880.028 319.077,878.981 315.519,879.19 312.798,880.656 310.914,883.377 
		309.658,886.725 309.449,890.284 307.356,891.121 304.635,891.959 304.217,894.47 305.682,896.772 307.566,897.819 
		309.031,899.494 309.449,902.843 309.868,905.354 308.538,908.198 307.608,911.042 	"/>
	<polygon fill="#00FF00" stroke="#800080" points="347.674,789.2 346.43,786.466 344.814,783.109 343.323,779.877 341.458,776.396 
		339.975,773.625 337.356,769.932 335.616,767.571 334.249,763.469 334.124,760.486 334.746,757.006 335.989,754.022 
		337.232,751.163 338.351,748.802 339.469,745.942 340.712,743.705 342.809,741.714 344.679,740.297 346.833,739.107 
		349.497,738.653 352.161,738.257 354.995,737.576 356.752,737.066 357.369,735.625 356.375,733.636 354.883,731.771 
		353.267,729.907 351.03,727.546 349.165,725.929 346.927,724.189 344.442,722.573 342.825,721.703 340.837,721.082 
		338.351,720.957 335.367,720.957 333.006,721.206 330.519,721.703 328.282,722.822 326.542,724.064 325.299,725.929 
		324.553,727.67 323.558,730.156 322.937,732.766 322.191,735.377 321.943,738.608 321.197,741.592 320.451,744.202 
		319.456,746.563 318.835,749.299 318.462,752.033 318.462,755.762 318.586,758.994 318.711,762.847 318.586,765.707 
		319.401,769.828 321.073,772.543 322.937,775.402 325.05,777.639 327.909,779.877 329.898,782.239 332.384,784.476 
		334.761,787.115 337.481,789.212 340.259,789.949 342.639,790.742 345.933,790.816 	"/>
	<polygon fill="#00FF00" stroke="#800080" points="0.007,483.048 3.117,480.248 5.548,476.935 7.683,473.731 9.085,470.326 
		10.116,467.029 11.36,463.608 12.293,460.031 12.137,456.765 10.353,454.24 7.161,451.944 5.761,449.611 5.606,445.879 
		4.828,442.302 3.428,439.036 1.873,436.859 0,434.883 	"/>
	<polygon fill="#00FF00" stroke="#800080" points="44.524,490.114 47.103,493.307 51.156,495.027 55.455,496.132 59.016,496.501 
		63.315,496.869 66.631,496.378 68.842,494.904 70.316,494.781 71.912,496.378 74.983,497.361 77.685,496.746 80.878,495.764 
		83.458,494.167 85.668,492.693 88.125,490.605 90.458,488.886 92.915,486.798 94.634,484.465 95.125,480.903 95.125,477.464 
		95.125,474.885 94.388,471.568 93.406,468.743 92.178,466.287 90.581,463.953 88.616,461.62 86.528,459.532 84.686,457.444 
		82.475,455.97 80.019,454.865 77.562,454.496 74.86,454.988 72.158,455.724 69.948,456.83 67.491,459.286 65.403,462.234 
		63.806,464.198 62.947,466.408 60.982,468.005 57.911,468.252 55.577,468.252 52.998,468.375 50.051,468.866 47.891,468.997 
		46.132,469.842 45.384,471.568 45.26,474.639 45.384,477.218 45.26,480.043 45.182,482.334 45.26,484.587 44.892,487.412 	"/>
	<polygon fill="#00FF00" stroke="#800080" points="0.071,560.299 2.62,555.366 4.112,549.956 4.299,543.986 2.993,538.763 
		0.12,535.374 	"/>
	<polygon fill="#00FF00" stroke="#800080" points="0.093,615.302 4.039,615.669 6.74,614.389 9.725,615.1 11.857,614.532 
		14.558,610.978 16.121,606.999 17.685,603.587 19.248,600.46 20.67,597.617 22.517,594.347 23.797,591.931 24.223,589.515 
		23.086,587.241 21.381,584.967 19.532,583.545 18.964,580.56 16.974,577.718 14.7,574.875 12.568,572.743 10.151,570.894 
		7.45,569.331 4.608,568.194 2.192,567.626 0.059,568.052 	"/>
	<polygon fill="#00FF00" stroke="#800080" points="490.078,131.284 489.182,137.746 489.721,143.130 492.054,147.258 495.644,150.849 499.234,154.079 502.644,156.771 505.873,159.643 508.027,163.053 509.464,167.361 512.516,170.951 516.285,173.464 521.671,175.080 526.157,175.439 530.644,173.824 535.131,171.132 538.901,168.261 541.952,165.209 544.824,161.081 546.439,156.595 547.696,150.671 547.696,146.185 547.696,141.338 547.157,137.748 545.901,133.978 543.388,131.106 540.516,128.773 535.311,127.696 527.952,127.337 522.567,126.441 516.824,124.466 512.338,123.390 508.389,122.133 503.902,121.237 500.672,121.776 497.262,123.032 494.211,125.186 492.057,127.877 490.078,131.284"/>
	<polygon fill="#00FF00" stroke="#800080" points="921.337,49.137 919.441,51.666 918.071,55.458 918.493,59.145 919.547,63.148 921.653,65.255 922.812,67.994 923.971,70.628 927.658,72.419 930.819,72.840 932.925,75.052 935.664,77.370 939.457,77.791 941.774,77.053 942.828,74.103 944.408,71.891 946.410,71.996 949.044,74.103 952.521,74.103 954.838,72.417 956.945,70.310 958.314,68.519 960.210,68.098 962.844,69.784 965.478,71.575 968.323,70.838 969.692,68.836 969.903,66.308 969.903,63.147 969.692,59.881 969.692,57.250 970.008,54.722 970.323,51.561 970.428,49.138 971.587,46.821 972.113,43.976 971.376,41.553 969.796,39.657 968.637,37.023 966.846,33.757 964.950,31.018 962.526,29.859 958.839,30.280 954.730,31.860 952.202,33.335 949.885,35.021 948.305,35.126 945.777,34.178 941.984,34.810 937.981,35.969 935.663,36.812 932.924,39.656 931.238,41.974 929.342,41.974 927.236,40.920 924.286,41.341 922.600,44.080 921.757,46.398 921.337,49.137"/>
	<polygon fill="#00FF00" stroke="#800080" points="912.197,109.012 915.787,115.411 920.157,118.221 926.713,120.094 931.552,119.313 937.483,118.845 942.322,119.313 945.443,118.689 948.096,119.626 948.876,122.903 952.778,124.932 956.992,125.556 961.518,124.464 965.420,121.186 967.293,118.064 968.854,114.630 969.947,109.792 969.791,105.734 967.449,101.832 965.577,99.179 962.299,97.462 956.212,96.838 951.218,98.399 949.189,97.931 946.692,96.214 942.790,96.370 937.640,96.994 934.363,94.653 930.928,91.843 927.807,89.658 925.154,88.877 921.564,90.906 918.754,94.652 916.413,97.929 914.227,101.207 912.198,104.797 912.198,109.012"/>
	<polygon fill="#00FF00" stroke="#800080" points="781.001,427.001 778.001,423.168 776.001,419.835 774.834,414.835 774.834,411.335 775.334,407.502 777.334,404.835 779.501,402.502 782.334,399.835 784.834,397.502 787.001,395.502 789.001,393.169 792.001,391.336 795.334,390.669 798.334,390.669 802.001,391.502 805.501,394.002 808.667,396.669 811.167,398.836 813.167,401.836 814.667,404.336 816.334,408.169 817.167,412.002 817.334,416.169 817.334,419.169 817.334,423.002 816.667,426.502 818.001,428.835 819.334,431.335 820.834,434.168 822.167,437.835 822.667,441.335 822.501,445.502 821.501,448.169 819.334,450.669 816.167,452.669 813.167,453.502 809.167,453.835 806.501,453.668 801.834,452.001 798.834,450.834 796.834,448.167 795.667,445.667 795.334,442.000 796.334,438.667 793.834,439.334 791.834,436.667 793.167,434.000 791.334,432.333 789.001,431.833 786.501,430.500 784.167,429.167 781.001,427.001"/>
	<polygon fill="#00FF00" stroke="#800080" points="675.990,903.124 673.950,907.034 673.780,911.455 673.610,915.875 674.800,920.466 675.989,923.865 677.689,928.286 680.410,932.366 683.809,936.106 687.890,937.976 692.990,937.976 698.600,936.446 703.361,934.916 707.781,933.386 711.181,931.176 714.072,927.776 716.282,924.377 717.471,920.977 716.961,917.237 717.301,914.346 718.661,911.626 717.811,908.226 715.430,904.996 712.880,902.956 708.800,900.916 705.909,899.386 701.829,897.686 698.599,896.157 695.200,894.797 692.139,894.457 687.889,895.137 684.489,896.667 681.259,898.707 678.709,900.747 675.990,903.124"/>
	<polygon fill="#00FF00" stroke="#800080" points="172.250,632.750 170.625,635.000 169.375,637.750 169.633,638.979 173.375,639.500 176.625,640.750 179.000,642.000 181.875,643.625 184.750,644.875 187.513,646.044 190.284,647.512 193.002,648.925 195.250,650.125 197.375,652.000 199.625,654.000 201.875,656.500 203.125,658.875 204.524,661.262 205.339,663.001 206.000,665.250 206.625,667.500 208.375,668.375 210.625,666.750 212.946,664.794 214.305,662.838 215.125,660.750 215.000,657.250 215.250,653.875 215.664,650.664 216.000,648.250 216.968,645.229 217.875,643.000 219.142,640.881 220.555,639.088 220.250,637.375 217.250,636.875 214.875,636.500 211.750,635.750 209.250,634.375 206.625,632.375 204.250,630.375 202.000,628.750 200.000,627.500 197.250,626.375 195.000,625.750 191.750,625.500 189.250,625.500 186.875,625.750 184.250,626.125 181.875,627.000 179.750,627.625 177.375,628.875 175.500,630.000 173.250,631.625 172.250,632.750"/>
</g>
</svg>
